%TF.GenerationSoftware,KiCad,Pcbnew,9.0.9*%
%TF.CreationDate,2026-08-16T17:42:43-07:00*%
%TF.ProjectId,ZID_POD,5a49445f-504f-4442-9e6b-696361645f70,PR1.0*%
%TF.SameCoordinates,Original*%
%TF.FileFunction,Copper,L3,Inr*%
%TF.FilePolarity,Positive*%
%FSLAX46Y46*%
G04 Gerber Fmt 4.6, Leading zero omitted, Abs format (unit mm)*
G04 Created by KiCad (PCBNEW 9.0.9) date 2026-08-16 17:42:43*
%MOMM*%
%LPD*%
G01*
G04 APERTURE LIST*
G04 Aperture macros list*
%AMRoundRect*
0 Rectangle with rounded corners*
0 $1 Rounding radius*
0 $2 $3 $4 $5 $6 $7 $8 $9 X,Y pos of 4 corners*
0 Add a 4 corners polygon primitive as box body*
4,1,4,$2,$3,$4,$5,$6,$7,$8,$9,$2,$3,0*
0 Add four circle primitives for the rounded corners*
1,1,$1+$1,$2,$3*
1,1,$1+$1,$4,$5*
1,1,$1+$1,$6,$7*
1,1,$1+$1,$8,$9*
0 Add four rect primitives between the rounded corners*
20,1,$1+$1,$2,$3,$4,$5,0*
20,1,$1+$1,$4,$5,$6,$7,0*
20,1,$1+$1,$6,$7,$8,$9,0*
20,1,$1+$1,$8,$9,$2,$3,0*%
G04 Aperture macros list end*
%TA.AperFunction,ComponentPad*%
%ADD10RoundRect,0.250000X0.550000X-0.550000X0.550000X0.550000X-0.550000X0.550000X-0.550000X-0.550000X0*%
%TD*%
%TA.AperFunction,ComponentPad*%
%ADD11C,1.600000*%
%TD*%
%TA.AperFunction,ViaPad*%
%ADD12C,0.600000*%
%TD*%
%TA.AperFunction,Conductor*%
%ADD13C,0.180000*%
%TD*%
G04 APERTURE END LIST*
D10*
%TO.N,/A11*%
%TO.C,Z80-SKT1*%
X92202000Y-109474000D03*
D11*
%TO.N,/A12*%
X94742000Y-109474000D03*
%TO.N,/A13*%
X97282000Y-109474000D03*
%TO.N,/A14*%
X99822000Y-109474000D03*
%TO.N,/A15*%
X102362000Y-109474000D03*
%TO.N,/CLK*%
X104902000Y-109474000D03*
%TO.N,/D4*%
X107442000Y-109474000D03*
%TO.N,/D3*%
X109982000Y-109474000D03*
%TO.N,/D5*%
X112522000Y-109474000D03*
%TO.N,/D6*%
X115062000Y-109474000D03*
%TO.N,unconnected-(Z80-SKT1-NC{slash}GND-Pad11)*%
X117602000Y-109474000D03*
%TO.N,/D2*%
X120142000Y-109474000D03*
%TO.N,/D7*%
X122682000Y-109474000D03*
%TO.N,/D0*%
X125222000Y-109474000D03*
%TO.N,/D1*%
X127762000Y-109474000D03*
%TO.N,/INT-*%
X130302000Y-109474000D03*
%TO.N,/NMI-*%
X132842000Y-109474000D03*
%TO.N,/HALT-*%
X135382000Y-109474000D03*
%TO.N,/MREQ-*%
X137922000Y-109474000D03*
%TO.N,/IORQ-*%
X140462000Y-109474000D03*
%TO.N,/RD-*%
X140462000Y-94234000D03*
%TO.N,/WR-*%
X137922000Y-94234000D03*
%TO.N,/BACK-*%
X135382000Y-94234000D03*
%TO.N,/WAIT-*%
X132842000Y-94234000D03*
%TO.N,/BREQ-*%
X130302000Y-94234000D03*
%TO.N,/RST-*%
X127762000Y-94234000D03*
%TO.N,/M1-*%
X125222000Y-94234000D03*
%TO.N,/RFSH-*%
X122682000Y-94234000D03*
%TO.N,/GND*%
X120142000Y-94234000D03*
%TO.N,/A0*%
X117602000Y-94234000D03*
%TO.N,/A1*%
X115062000Y-94234000D03*
%TO.N,/A2*%
X112522000Y-94234000D03*
%TO.N,/A3*%
X109982000Y-94234000D03*
%TO.N,/A4*%
X107442000Y-94234000D03*
%TO.N,/A5*%
X104902000Y-94234000D03*
%TO.N,/A6*%
X102362000Y-94234000D03*
%TO.N,/A7*%
X99822000Y-94234000D03*
%TO.N,/A8*%
X97282000Y-94234000D03*
%TO.N,/A9*%
X94742000Y-94234000D03*
%TO.N,/A10*%
X92202000Y-94234000D03*
%TD*%
D12*
%TO.N,/GND*%
X93827600Y-101854000D03*
X138023600Y-96215200D03*
X133070600Y-96240600D03*
X128828800Y-96240600D03*
X123774200Y-95910400D03*
%TO.N,/A3*%
X109982000Y-97586800D03*
X122478800Y-104306600D03*
%TO.N,/A5*%
X104978200Y-97725000D03*
X124168949Y-104712000D03*
%TO.N,/A7*%
X99796600Y-98628200D03*
X125316000Y-104397000D03*
%TO.N,/A9*%
X94742000Y-98145600D03*
X126060200Y-104967000D03*
%TO.N,/A10*%
X124347200Y-97443225D03*
%TO.N,/A8*%
X123615275Y-97173615D03*
%TO.N,/A6*%
X122738215Y-96714838D03*
%TO.N,/A4*%
X120065800Y-96153225D03*
%TO.N,/A2*%
X117845551Y-95525649D03*
%TO.N,/WR-*%
X117442203Y-99517200D03*
%TO.N,/WAIT-*%
X118748420Y-98192980D03*
%TO.N,/RST-*%
X119507428Y-98013225D03*
%TO.N,/RFSH-*%
X120816000Y-99491800D03*
%TO.N,/A1*%
X119527678Y-105411976D03*
%TO.N,/M1-*%
X118730034Y-105371108D03*
%TO.N,/BREQ-*%
X117874683Y-105420357D03*
%TO.N,/BACK-*%
X117054400Y-105434537D03*
%TO.N,/RD-*%
X116456000Y-106124936D03*
%TO.N,/A15*%
X102412800Y-107442000D03*
X120287702Y-104546400D03*
%TO.N,/IORQ-*%
X116662200Y-99517200D03*
%TO.N,/INT-*%
X113961150Y-99207452D03*
%TO.N,/HALT-*%
X115087400Y-99568000D03*
%TO.N,/D0*%
X112852200Y-99542600D03*
%TO.N,/D2*%
X111887000Y-99542600D03*
%TO.N,/D6*%
X110837546Y-99529237D03*
%TO.N,/D5*%
X110642400Y-104089200D03*
%TO.N,/D3*%
X107729408Y-99104979D03*
%TO.N,/A14*%
X98374200Y-104800400D03*
%TO.N,/A11*%
X106883200Y-104140000D03*
%TO.N,/GND*%
X109601000Y-104063800D03*
X108585000Y-104063800D03*
%TO.N,/CLK*%
X109245400Y-99542600D03*
%TD*%
D13*
%TO.N,/A2*%
X113665000Y-95377000D02*
X112522000Y-94234000D01*
X117696902Y-95377000D02*
X113665000Y-95377000D01*
X117845551Y-95525649D02*
X117696902Y-95377000D01*
%TO.N,/A4*%
X109016800Y-95808800D02*
X107442000Y-94234000D01*
X112017348Y-95808800D02*
X109016800Y-95808800D01*
X112571773Y-96363225D02*
X112017348Y-95808800D01*
X120065800Y-96153225D02*
X119855800Y-96363225D01*
X119855800Y-96363225D02*
X112571773Y-96363225D01*
%TO.N,/A6*%
X104296800Y-96168800D02*
X102362000Y-94234000D01*
X112422657Y-96723225D02*
X111868232Y-96168800D01*
X122565826Y-96723225D02*
X112422657Y-96723225D01*
X111868232Y-96168800D02*
X104296800Y-96168800D01*
X122574213Y-96714838D02*
X122565826Y-96723225D01*
X122738215Y-96714838D02*
X122574213Y-96714838D01*
%TO.N,/A8*%
X111719116Y-96528800D02*
X99576800Y-96528800D01*
X112273541Y-97083225D02*
X111719116Y-96528800D01*
X120248025Y-97083225D02*
X112273541Y-97083225D01*
X123076483Y-97173615D02*
X122942698Y-97307400D01*
X122942698Y-97307400D02*
X120472200Y-97307400D01*
X123615275Y-97173615D02*
X123076483Y-97173615D01*
X120472200Y-97307400D02*
X120248025Y-97083225D01*
X99576800Y-96528800D02*
X97282000Y-94234000D01*
%TO.N,/A10*%
X111570000Y-96888800D02*
X94856800Y-96888800D01*
X94856800Y-96888800D02*
X92202000Y-94234000D01*
X120345199Y-97764600D02*
X120023824Y-97443225D01*
X124104400Y-97764600D02*
X120345199Y-97764600D01*
X120023824Y-97443225D02*
X112124425Y-97443225D01*
X124347200Y-97521800D02*
X124104400Y-97764600D01*
X112124425Y-97443225D02*
X111570000Y-96888800D01*
X124347200Y-97443225D02*
X124347200Y-97521800D01*
%TO.N,/A3*%
X110210179Y-97814979D02*
X109982000Y-97586800D01*
X117564316Y-97814978D02*
X110210179Y-97814979D01*
X122478800Y-104306600D02*
X122478800Y-102729462D01*
X122478800Y-102729462D02*
X117564316Y-97814978D01*
%TO.N,/RFSH-*%
X123901200Y-94640400D02*
X123088400Y-94640400D01*
X125476000Y-96215200D02*
X123901200Y-94640400D01*
X125476000Y-97536000D02*
X125476000Y-96215200D01*
X123520200Y-99491800D02*
X125476000Y-97536000D01*
X120816000Y-99491800D02*
X123520200Y-99491800D01*
%TO.N,/A5*%
X105428179Y-98174979D02*
X104978200Y-97725000D01*
X118372203Y-99131981D02*
X117415200Y-98174979D01*
X118372203Y-101302287D02*
X118372203Y-99131981D01*
X117415200Y-98174979D02*
X105428179Y-98174979D01*
X124004349Y-104876600D02*
X121946516Y-104876600D01*
X124168949Y-104712000D02*
X124004349Y-104876600D01*
X121946516Y-104876600D02*
X118372203Y-101302287D01*
%TO.N,/A7*%
X99889821Y-98534979D02*
X99796600Y-98628200D01*
X117266084Y-98534979D02*
X99889821Y-98534979D01*
X118012203Y-101451403D02*
X118012203Y-99281098D01*
X118012203Y-99281098D02*
X117266084Y-98534979D01*
X124430999Y-105282000D02*
X121842800Y-105282000D01*
X125316000Y-104397000D02*
X124430999Y-105282000D01*
X121842800Y-105282000D02*
X118012203Y-101451403D01*
%TO.N,/A9*%
X125385200Y-105642000D02*
X126060200Y-104967000D01*
X120577200Y-105642000D02*
X125385200Y-105642000D01*
X115657400Y-100722200D02*
X120577200Y-105642000D01*
X115657400Y-99331898D02*
X115657400Y-100722200D01*
X115323502Y-98998000D02*
X115657400Y-99331898D01*
X114851298Y-98998000D02*
X115323502Y-98998000D01*
X114517400Y-99331898D02*
X114851298Y-98998000D01*
X114517400Y-99804102D02*
X114517400Y-99331898D01*
X114208902Y-100112600D02*
X114517400Y-99804102D01*
X110614807Y-100112600D02*
X114208902Y-100112600D01*
X110267546Y-99765339D02*
X110614807Y-100112600D01*
X107594400Y-100076000D02*
X108697800Y-98972600D01*
X96672400Y-100076000D02*
X107594400Y-100076000D01*
X109481502Y-98972600D02*
X110267546Y-99758644D01*
X94742000Y-98145600D02*
X96672400Y-100076000D01*
X108697800Y-98972600D02*
X109481502Y-98972600D01*
X110267546Y-99758644D02*
X110267546Y-99765339D01*
%TO.N,/M1-*%
X126720600Y-106002000D02*
X126720600Y-95732600D01*
X119311600Y-106002000D02*
X126720600Y-106002000D01*
X118730034Y-105420434D02*
X119311600Y-106002000D01*
X118730034Y-105371108D02*
X118730034Y-105420434D01*
X126720600Y-95732600D02*
X125222000Y-94234000D01*
%TO.N,/BREQ-*%
X130302000Y-105181400D02*
X130302000Y-94234000D01*
X129121400Y-106362000D02*
X130302000Y-105181400D01*
X118782600Y-106362000D02*
X129121400Y-106362000D01*
X117874683Y-105454083D02*
X118782600Y-106362000D01*
X117874683Y-105420357D02*
X117874683Y-105454083D01*
%TO.N,/BACK-*%
X135382000Y-105918000D02*
X135382000Y-94234000D01*
X134578000Y-106722000D02*
X135382000Y-105918000D01*
X118370223Y-106722000D02*
X134578000Y-106722000D01*
X117054400Y-105434537D02*
X117082760Y-105434537D01*
X117082760Y-105434537D02*
X118370223Y-106722000D01*
%TO.N,/RD-*%
X140462000Y-104571800D02*
X140462000Y-94234000D01*
X117641702Y-107082000D02*
X137951800Y-107082000D01*
X116456000Y-106124936D02*
X116684638Y-106124936D01*
X137951800Y-107082000D02*
X140462000Y-104571800D01*
X116684638Y-106124936D02*
X117641702Y-107082000D01*
%TO.N,/A15*%
X102362000Y-107492800D02*
X102412800Y-107442000D01*
X102362000Y-109474000D02*
X102362000Y-107492800D01*
%TO.N,/HALT-*%
X115087400Y-106603800D02*
X115087400Y-99568000D01*
X115925600Y-107442000D02*
X115087400Y-106603800D01*
X135382000Y-109474000D02*
X133350000Y-107442000D01*
X133350000Y-107442000D02*
X115925600Y-107442000D01*
%TO.N,/CLK*%
X104902000Y-103886000D02*
X104902000Y-109474000D01*
X109245400Y-99542600D02*
X104902000Y-103886000D01*
%TD*%
%TA.AperFunction,Conductor*%
%TO.N,/GND*%
G36*
X92049598Y-92722185D02*
G01*
X92095353Y-92774989D01*
X92105297Y-92844147D01*
X92076272Y-92907703D01*
X92017494Y-92945477D01*
X92001957Y-92948973D01*
X91897465Y-92965522D01*
X91702776Y-93028781D01*
X91520386Y-93121715D01*
X91354786Y-93242028D01*
X91210028Y-93386786D01*
X91089715Y-93552386D01*
X90996781Y-93734776D01*
X90933522Y-93929465D01*
X90901500Y-94131648D01*
X90901500Y-94336351D01*
X90933522Y-94538534D01*
X90996781Y-94733223D01*
X91060691Y-94858653D01*
X91089712Y-94915609D01*
X91089715Y-94915613D01*
X91210028Y-95081213D01*
X91354786Y-95225971D01*
X91475226Y-95313474D01*
X91520390Y-95346287D01*
X91626555Y-95400381D01*
X91702776Y-95439218D01*
X91702778Y-95439218D01*
X91702781Y-95439220D01*
X91748094Y-95453943D01*
X91897465Y-95502477D01*
X91998557Y-95518488D01*
X92099648Y-95534500D01*
X92099649Y-95534500D01*
X92304351Y-95534500D01*
X92304352Y-95534500D01*
X92506534Y-95502477D01*
X92531518Y-95494358D01*
X92601357Y-95492364D01*
X92657516Y-95524609D01*
X94379643Y-97246736D01*
X94413128Y-97308059D01*
X94408144Y-97377751D01*
X94366272Y-97433684D01*
X94360854Y-97437519D01*
X94231707Y-97523813D01*
X94120213Y-97635307D01*
X94120210Y-97635311D01*
X94032609Y-97766414D01*
X94032602Y-97766427D01*
X93972264Y-97912098D01*
X93972261Y-97912110D01*
X93941500Y-98066753D01*
X93941500Y-98224446D01*
X93972261Y-98379089D01*
X93972264Y-98379101D01*
X94032602Y-98524772D01*
X94032609Y-98524785D01*
X94120210Y-98655888D01*
X94120213Y-98655892D01*
X94231707Y-98767386D01*
X94231711Y-98767389D01*
X94362814Y-98854990D01*
X94362827Y-98854997D01*
X94467772Y-98898466D01*
X94508503Y-98915337D01*
X94586366Y-98930825D01*
X94663146Y-98946098D01*
X94663149Y-98946098D01*
X94663158Y-98946100D01*
X94663166Y-98946100D01*
X94668080Y-98946584D01*
X94732869Y-98972742D01*
X94743614Y-98982307D01*
X96309825Y-100548518D01*
X96444476Y-100626258D01*
X96594659Y-100666500D01*
X106987045Y-100666500D01*
X107054084Y-100686185D01*
X107099839Y-100738989D01*
X107109783Y-100808147D01*
X107080758Y-100871703D01*
X107074726Y-100878181D01*
X104429483Y-103523423D01*
X104429479Y-103523428D01*
X104351741Y-103658074D01*
X104351742Y-103658074D01*
X104351742Y-103658075D01*
X104351742Y-103658076D01*
X104311500Y-103808259D01*
X104311500Y-103808261D01*
X104311500Y-108239302D01*
X104291815Y-108306341D01*
X104243797Y-108349786D01*
X104220386Y-108361714D01*
X104054786Y-108482028D01*
X103910028Y-108626786D01*
X103789715Y-108792386D01*
X103742485Y-108885080D01*
X103694510Y-108935876D01*
X103626689Y-108952671D01*
X103560554Y-108930134D01*
X103521515Y-108885080D01*
X103515861Y-108873983D01*
X103474287Y-108792390D01*
X103422021Y-108720451D01*
X103353971Y-108626786D01*
X103209213Y-108482028D01*
X103043613Y-108361714D01*
X103020203Y-108349786D01*
X103009139Y-108339336D01*
X102995297Y-108333015D01*
X102984254Y-108315832D01*
X102969408Y-108301810D01*
X102965167Y-108286131D01*
X102957523Y-108274237D01*
X102952500Y-108239302D01*
X102952500Y-108085740D01*
X102972185Y-108018701D01*
X102988820Y-107998058D01*
X103034586Y-107952292D01*
X103034589Y-107952289D01*
X103122194Y-107821179D01*
X103182537Y-107675497D01*
X103213300Y-107520842D01*
X103213300Y-107363158D01*
X103213300Y-107363155D01*
X103213299Y-107363153D01*
X103182538Y-107208510D01*
X103182537Y-107208503D01*
X103182535Y-107208498D01*
X103122197Y-107062827D01*
X103122190Y-107062814D01*
X103034589Y-106931711D01*
X103034586Y-106931707D01*
X102923092Y-106820213D01*
X102923088Y-106820210D01*
X102791985Y-106732609D01*
X102791972Y-106732602D01*
X102646301Y-106672264D01*
X102646289Y-106672261D01*
X102491645Y-106641500D01*
X102491642Y-106641500D01*
X102333958Y-106641500D01*
X102333955Y-106641500D01*
X102179310Y-106672261D01*
X102179298Y-106672264D01*
X102033627Y-106732602D01*
X102033614Y-106732609D01*
X101902511Y-106820210D01*
X101902507Y-106820213D01*
X101791013Y-106931707D01*
X101791010Y-106931711D01*
X101703409Y-107062814D01*
X101703402Y-107062827D01*
X101643064Y-107208498D01*
X101643061Y-107208510D01*
X101612300Y-107363153D01*
X101612300Y-107520846D01*
X101643061Y-107675489D01*
X101643064Y-107675501D01*
X101703403Y-107821174D01*
X101703404Y-107821176D01*
X101750602Y-107891812D01*
X101771480Y-107958489D01*
X101771500Y-107960703D01*
X101771500Y-108239302D01*
X101751815Y-108306341D01*
X101703797Y-108349786D01*
X101680386Y-108361714D01*
X101514786Y-108482028D01*
X101370028Y-108626786D01*
X101249715Y-108792386D01*
X101202485Y-108885080D01*
X101154510Y-108935876D01*
X101086689Y-108952671D01*
X101020554Y-108930134D01*
X100981515Y-108885080D01*
X100975861Y-108873983D01*
X100934287Y-108792390D01*
X100882021Y-108720451D01*
X100813971Y-108626786D01*
X100669213Y-108482028D01*
X100503613Y-108361715D01*
X100503612Y-108361714D01*
X100503610Y-108361713D01*
X100412500Y-108315290D01*
X100321223Y-108268781D01*
X100126534Y-108205522D01*
X99951995Y-108177878D01*
X99924352Y-108173500D01*
X99719648Y-108173500D01*
X99695329Y-108177351D01*
X99517465Y-108205522D01*
X99322776Y-108268781D01*
X99140386Y-108361715D01*
X98974786Y-108482028D01*
X98830028Y-108626786D01*
X98709715Y-108792386D01*
X98662485Y-108885080D01*
X98614510Y-108935876D01*
X98546689Y-108952671D01*
X98480554Y-108930134D01*
X98441515Y-108885080D01*
X98435861Y-108873983D01*
X98394287Y-108792390D01*
X98342021Y-108720451D01*
X98273971Y-108626786D01*
X98129213Y-108482028D01*
X97963613Y-108361715D01*
X97963612Y-108361714D01*
X97963610Y-108361713D01*
X97872500Y-108315290D01*
X97781223Y-108268781D01*
X97586534Y-108205522D01*
X97411995Y-108177878D01*
X97384352Y-108173500D01*
X97179648Y-108173500D01*
X97155329Y-108177351D01*
X96977465Y-108205522D01*
X96782776Y-108268781D01*
X96600386Y-108361715D01*
X96434786Y-108482028D01*
X96290028Y-108626786D01*
X96169715Y-108792386D01*
X96122485Y-108885080D01*
X96074510Y-108935876D01*
X96006689Y-108952671D01*
X95940554Y-108930134D01*
X95901515Y-108885080D01*
X95895861Y-108873983D01*
X95854287Y-108792390D01*
X95802021Y-108720451D01*
X95733971Y-108626786D01*
X95589213Y-108482028D01*
X95423613Y-108361715D01*
X95423612Y-108361714D01*
X95423610Y-108361713D01*
X95332500Y-108315290D01*
X95241223Y-108268781D01*
X95046534Y-108205522D01*
X94871995Y-108177878D01*
X94844352Y-108173500D01*
X94639648Y-108173500D01*
X94615329Y-108177351D01*
X94437465Y-108205522D01*
X94242776Y-108268781D01*
X94060386Y-108361715D01*
X93894786Y-108482028D01*
X93750032Y-108626782D01*
X93750028Y-108626787D01*
X93681978Y-108720451D01*
X93626648Y-108763117D01*
X93557035Y-108769096D01*
X93495240Y-108736490D01*
X93463954Y-108686570D01*
X93444144Y-108626787D01*
X93436814Y-108604666D01*
X93344712Y-108455344D01*
X93220656Y-108331288D01*
X93071334Y-108239186D01*
X92904797Y-108184001D01*
X92904795Y-108184000D01*
X92802010Y-108173500D01*
X91601998Y-108173500D01*
X91601981Y-108173501D01*
X91499203Y-108184000D01*
X91499200Y-108184001D01*
X91332668Y-108239185D01*
X91332663Y-108239187D01*
X91183342Y-108331289D01*
X91059289Y-108455342D01*
X90967187Y-108604663D01*
X90967186Y-108604666D01*
X90912001Y-108771203D01*
X90912001Y-108771204D01*
X90912000Y-108771204D01*
X90901500Y-108873983D01*
X90901500Y-110074001D01*
X90901501Y-110074018D01*
X90912000Y-110176796D01*
X90912001Y-110176799D01*
X90928818Y-110227548D01*
X90967186Y-110343334D01*
X91059288Y-110492656D01*
X91183344Y-110616712D01*
X91332666Y-110708814D01*
X91498585Y-110763794D01*
X91556030Y-110803567D01*
X91582853Y-110868083D01*
X91570538Y-110936858D01*
X91522995Y-110988058D01*
X91459581Y-111005500D01*
X90540500Y-111005500D01*
X90473461Y-110985815D01*
X90427706Y-110933011D01*
X90416500Y-110881500D01*
X90416500Y-104721553D01*
X97573700Y-104721553D01*
X97573700Y-104879246D01*
X97604461Y-105033889D01*
X97604464Y-105033901D01*
X97664802Y-105179572D01*
X97664809Y-105179585D01*
X97752410Y-105310688D01*
X97752413Y-105310692D01*
X97863907Y-105422186D01*
X97863911Y-105422189D01*
X97995014Y-105509790D01*
X97995027Y-105509797D01*
X98077544Y-105543976D01*
X98140703Y-105570137D01*
X98254441Y-105592761D01*
X98295353Y-105600899D01*
X98295356Y-105600900D01*
X98295358Y-105600900D01*
X98453044Y-105600900D01*
X98453045Y-105600899D01*
X98607697Y-105570137D01*
X98753379Y-105509794D01*
X98884489Y-105422189D01*
X98995989Y-105310689D01*
X99083594Y-105179579D01*
X99143937Y-105033897D01*
X99174700Y-104879242D01*
X99174700Y-104721558D01*
X99174700Y-104721555D01*
X99174699Y-104721553D01*
X99172597Y-104710986D01*
X99143937Y-104566903D01*
X99124169Y-104519179D01*
X99083597Y-104421227D01*
X99083590Y-104421214D01*
X98995989Y-104290111D01*
X98995986Y-104290107D01*
X98884492Y-104178613D01*
X98884488Y-104178610D01*
X98753385Y-104091009D01*
X98753372Y-104091002D01*
X98607701Y-104030664D01*
X98607689Y-104030661D01*
X98453045Y-103999900D01*
X98453042Y-103999900D01*
X98295358Y-103999900D01*
X98295355Y-103999900D01*
X98140710Y-104030661D01*
X98140698Y-104030664D01*
X97995027Y-104091002D01*
X97995014Y-104091009D01*
X97863911Y-104178610D01*
X97863907Y-104178613D01*
X97752413Y-104290107D01*
X97752410Y-104290111D01*
X97664809Y-104421214D01*
X97664802Y-104421227D01*
X97604464Y-104566898D01*
X97604461Y-104566910D01*
X97573700Y-104721553D01*
X90416500Y-104721553D01*
X90416500Y-92826500D01*
X90436185Y-92759461D01*
X90488989Y-92713706D01*
X90540500Y-92702500D01*
X91982559Y-92702500D01*
X92049598Y-92722185D01*
G37*
%TD.AperFunction*%
%TA.AperFunction,Conductor*%
G36*
X109850579Y-100188165D02*
G01*
X109873093Y-100205979D01*
X110252231Y-100585118D01*
X110386882Y-100662858D01*
X110400474Y-100666500D01*
X110418617Y-100671362D01*
X110418618Y-100671362D01*
X110443649Y-100678068D01*
X110537066Y-100703100D01*
X110537068Y-100703100D01*
X114286640Y-100703100D01*
X114286643Y-100703100D01*
X114340808Y-100688586D01*
X114410656Y-100690249D01*
X114468518Y-100729411D01*
X114496023Y-100793639D01*
X114496900Y-100808361D01*
X114496900Y-106681541D01*
X114526364Y-106791500D01*
X114526363Y-106791500D01*
X114537141Y-106831722D01*
X114537143Y-106831727D01*
X114614879Y-106966371D01*
X114614881Y-106966374D01*
X114614882Y-106966375D01*
X115563025Y-107914518D01*
X115697676Y-107992258D01*
X115847859Y-108032500D01*
X117050009Y-108032500D01*
X117117048Y-108052185D01*
X117162803Y-108104989D01*
X117172747Y-108174147D01*
X117143722Y-108237703D01*
X117106304Y-108266985D01*
X116920385Y-108361715D01*
X116754786Y-108482028D01*
X116610028Y-108626786D01*
X116489715Y-108792386D01*
X116442485Y-108885080D01*
X116394510Y-108935876D01*
X116326689Y-108952671D01*
X116260554Y-108930134D01*
X116221515Y-108885080D01*
X116215861Y-108873983D01*
X116174287Y-108792390D01*
X116122021Y-108720451D01*
X116053971Y-108626786D01*
X115909213Y-108482028D01*
X115743613Y-108361715D01*
X115743612Y-108361714D01*
X115743610Y-108361713D01*
X115652500Y-108315290D01*
X115561223Y-108268781D01*
X115366534Y-108205522D01*
X115191995Y-108177878D01*
X115164352Y-108173500D01*
X114959648Y-108173500D01*
X114935329Y-108177351D01*
X114757465Y-108205522D01*
X114562776Y-108268781D01*
X114380386Y-108361715D01*
X114214786Y-108482028D01*
X114070028Y-108626786D01*
X113949715Y-108792386D01*
X113902485Y-108885080D01*
X113854510Y-108935876D01*
X113786689Y-108952671D01*
X113720554Y-108930134D01*
X113681515Y-108885080D01*
X113675861Y-108873983D01*
X113634287Y-108792390D01*
X113582021Y-108720451D01*
X113513971Y-108626786D01*
X113369213Y-108482028D01*
X113203613Y-108361715D01*
X113203612Y-108361714D01*
X113203610Y-108361713D01*
X113112500Y-108315290D01*
X113021223Y-108268781D01*
X112826534Y-108205522D01*
X112651995Y-108177878D01*
X112624352Y-108173500D01*
X112419648Y-108173500D01*
X112395329Y-108177351D01*
X112217465Y-108205522D01*
X112022776Y-108268781D01*
X111840386Y-108361715D01*
X111674786Y-108482028D01*
X111530028Y-108626786D01*
X111409715Y-108792386D01*
X111362485Y-108885080D01*
X111314510Y-108935876D01*
X111246689Y-108952671D01*
X111180554Y-108930134D01*
X111141515Y-108885080D01*
X111135861Y-108873983D01*
X111094287Y-108792390D01*
X111042021Y-108720451D01*
X110973971Y-108626786D01*
X110829213Y-108482028D01*
X110663613Y-108361715D01*
X110663612Y-108361714D01*
X110663610Y-108361713D01*
X110572500Y-108315290D01*
X110481223Y-108268781D01*
X110286534Y-108205522D01*
X110111995Y-108177878D01*
X110084352Y-108173500D01*
X109879648Y-108173500D01*
X109855329Y-108177351D01*
X109677465Y-108205522D01*
X109482776Y-108268781D01*
X109300386Y-108361715D01*
X109134786Y-108482028D01*
X108990028Y-108626786D01*
X108869715Y-108792386D01*
X108822485Y-108885080D01*
X108774510Y-108935876D01*
X108706689Y-108952671D01*
X108640554Y-108930134D01*
X108601515Y-108885080D01*
X108595861Y-108873983D01*
X108554287Y-108792390D01*
X108502021Y-108720451D01*
X108433971Y-108626786D01*
X108289213Y-108482028D01*
X108123613Y-108361715D01*
X108123612Y-108361714D01*
X108123610Y-108361713D01*
X108032500Y-108315290D01*
X107941223Y-108268781D01*
X107746534Y-108205522D01*
X107571995Y-108177878D01*
X107544352Y-108173500D01*
X107339648Y-108173500D01*
X107315329Y-108177351D01*
X107137465Y-108205522D01*
X106942776Y-108268781D01*
X106760386Y-108361715D01*
X106594786Y-108482028D01*
X106450028Y-108626786D01*
X106329715Y-108792386D01*
X106282485Y-108885080D01*
X106234510Y-108935876D01*
X106166689Y-108952671D01*
X106100554Y-108930134D01*
X106061515Y-108885080D01*
X106055861Y-108873983D01*
X106014287Y-108792390D01*
X105962021Y-108720451D01*
X105893971Y-108626786D01*
X105749213Y-108482028D01*
X105583613Y-108361714D01*
X105560203Y-108349786D01*
X105509408Y-108301810D01*
X105492500Y-108239302D01*
X105492500Y-104181955D01*
X105512185Y-104114916D01*
X105528819Y-104094274D01*
X105736386Y-103886707D01*
X105953293Y-103669799D01*
X106014614Y-103636316D01*
X106084305Y-103641300D01*
X106140239Y-103683171D01*
X106164656Y-103748636D01*
X106155533Y-103804934D01*
X106113464Y-103906498D01*
X106113461Y-103906510D01*
X106082700Y-104061153D01*
X106082700Y-104218846D01*
X106113461Y-104373489D01*
X106113464Y-104373501D01*
X106173802Y-104519172D01*
X106173809Y-104519185D01*
X106261410Y-104650288D01*
X106261413Y-104650292D01*
X106372909Y-104761788D01*
X106504014Y-104849390D01*
X106504027Y-104849397D01*
X106601329Y-104889700D01*
X106649703Y-104909737D01*
X106773556Y-104934373D01*
X106804353Y-104940499D01*
X106804356Y-104940500D01*
X106804358Y-104940500D01*
X106962044Y-104940500D01*
X106962045Y-104940499D01*
X107116697Y-104909737D01*
X107262379Y-104849394D01*
X107317225Y-104812747D01*
X107393491Y-104761788D01*
X107393492Y-104761786D01*
X107504986Y-104650292D01*
X107504989Y-104650289D01*
X107592594Y-104519179D01*
X107652937Y-104373497D01*
X107683700Y-104218842D01*
X107683700Y-104061158D01*
X107683700Y-104061155D01*
X107683699Y-104061153D01*
X107677196Y-104028457D01*
X107673595Y-104010353D01*
X109841900Y-104010353D01*
X109841900Y-104168046D01*
X109872661Y-104322689D01*
X109872664Y-104322701D01*
X109933002Y-104468372D01*
X109933009Y-104468385D01*
X110020610Y-104599488D01*
X110020613Y-104599492D01*
X110132107Y-104710986D01*
X110132111Y-104710989D01*
X110263214Y-104798590D01*
X110263227Y-104798597D01*
X110385854Y-104849390D01*
X110408903Y-104858937D01*
X110511003Y-104879246D01*
X110563553Y-104889699D01*
X110563556Y-104889700D01*
X110563558Y-104889700D01*
X110721244Y-104889700D01*
X110721245Y-104889699D01*
X110875897Y-104858937D01*
X111021579Y-104798594D01*
X111152689Y-104710989D01*
X111264189Y-104599489D01*
X111351794Y-104468379D01*
X111412137Y-104322697D01*
X111442900Y-104168042D01*
X111442900Y-104010358D01*
X111442900Y-104010355D01*
X111442899Y-104010353D01*
X111429355Y-103942263D01*
X111412137Y-103855703D01*
X111380639Y-103779659D01*
X111351797Y-103710027D01*
X111351790Y-103710014D01*
X111264189Y-103578911D01*
X111264186Y-103578907D01*
X111152692Y-103467413D01*
X111152688Y-103467410D01*
X111021585Y-103379809D01*
X111021572Y-103379802D01*
X110875901Y-103319464D01*
X110875889Y-103319461D01*
X110721245Y-103288700D01*
X110721242Y-103288700D01*
X110563558Y-103288700D01*
X110563555Y-103288700D01*
X110408910Y-103319461D01*
X110408898Y-103319464D01*
X110263227Y-103379802D01*
X110263214Y-103379809D01*
X110132111Y-103467410D01*
X110132107Y-103467413D01*
X110020613Y-103578907D01*
X110020610Y-103578911D01*
X109933009Y-103710014D01*
X109933002Y-103710027D01*
X109872664Y-103855698D01*
X109872661Y-103855710D01*
X109841900Y-104010353D01*
X107673595Y-104010353D01*
X107652938Y-103906508D01*
X107652937Y-103906507D01*
X107652937Y-103906503D01*
X107628165Y-103846698D01*
X107592597Y-103760827D01*
X107592590Y-103760814D01*
X107504989Y-103629711D01*
X107504986Y-103629707D01*
X107393492Y-103518213D01*
X107393488Y-103518210D01*
X107262385Y-103430609D01*
X107262372Y-103430602D01*
X107116701Y-103370264D01*
X107116689Y-103370261D01*
X106962045Y-103339500D01*
X106962042Y-103339500D01*
X106804358Y-103339500D01*
X106804355Y-103339500D01*
X106649710Y-103370261D01*
X106649698Y-103370264D01*
X106548134Y-103412333D01*
X106478664Y-103419802D01*
X106416185Y-103388526D01*
X106380534Y-103328437D01*
X106383028Y-103258612D01*
X106412999Y-103210093D01*
X109243787Y-100379305D01*
X109305108Y-100345822D01*
X109319320Y-100343584D01*
X109324233Y-100343100D01*
X109324242Y-100343100D01*
X109324251Y-100343098D01*
X109324253Y-100343098D01*
X109361564Y-100335675D01*
X109478897Y-100312337D01*
X109624579Y-100251994D01*
X109716524Y-100190557D01*
X109783199Y-100169681D01*
X109850579Y-100188165D01*
G37*
%TD.AperFunction*%
%TA.AperFunction,Conductor*%
G36*
X139209227Y-94759389D02*
G01*
X139221808Y-94758850D01*
X139241673Y-94770445D01*
X139263445Y-94777865D01*
X139272719Y-94788568D01*
X139282150Y-94794073D01*
X139302485Y-94822919D01*
X139349715Y-94915614D01*
X139470028Y-95081213D01*
X139470034Y-95081219D01*
X139614781Y-95225966D01*
X139780390Y-95346287D01*
X139803793Y-95358211D01*
X139854589Y-95406183D01*
X139871500Y-95468696D01*
X139871500Y-104275845D01*
X139851815Y-104342884D01*
X139835181Y-104363526D01*
X137743526Y-106455181D01*
X137682203Y-106488666D01*
X137655845Y-106491500D01*
X135942955Y-106491500D01*
X135875916Y-106471815D01*
X135830161Y-106419011D01*
X135820217Y-106349853D01*
X135834469Y-106307444D01*
X135842926Y-106292166D01*
X135854518Y-106280575D01*
X135932258Y-106145924D01*
X135936181Y-106131282D01*
X135972500Y-105995741D01*
X135972500Y-95468696D01*
X135992185Y-95401657D01*
X136040206Y-95358211D01*
X136063610Y-95346287D01*
X136229219Y-95225966D01*
X136373966Y-95081219D01*
X136373968Y-95081215D01*
X136373971Y-95081213D01*
X136494284Y-94915614D01*
X136494286Y-94915611D01*
X136494287Y-94915610D01*
X136541516Y-94822917D01*
X136589489Y-94772123D01*
X136657310Y-94755328D01*
X136723445Y-94777865D01*
X136762485Y-94822919D01*
X136809715Y-94915614D01*
X136930028Y-95081213D01*
X137074786Y-95225971D01*
X137195226Y-95313474D01*
X137240390Y-95346287D01*
X137346555Y-95400381D01*
X137422776Y-95439218D01*
X137422778Y-95439218D01*
X137422781Y-95439220D01*
X137468094Y-95453943D01*
X137617465Y-95502477D01*
X137718557Y-95518488D01*
X137819648Y-95534500D01*
X137819649Y-95534500D01*
X138024351Y-95534500D01*
X138024352Y-95534500D01*
X138226534Y-95502477D01*
X138421219Y-95439220D01*
X138603610Y-95346287D01*
X138712439Y-95267219D01*
X138769213Y-95225971D01*
X138769215Y-95225968D01*
X138769219Y-95225966D01*
X138913966Y-95081219D01*
X138913968Y-95081215D01*
X138913971Y-95081213D01*
X139034284Y-94915614D01*
X139034286Y-94915611D01*
X139034287Y-94915610D01*
X139081516Y-94822917D01*
X139090161Y-94813764D01*
X139094896Y-94802099D01*
X139113693Y-94788847D01*
X139129489Y-94772123D01*
X139141711Y-94769096D01*
X139152002Y-94761842D01*
X139174982Y-94760856D01*
X139197310Y-94755328D01*
X139209227Y-94759389D01*
G37*
%TD.AperFunction*%
%TA.AperFunction,Conductor*%
G36*
X134183445Y-94777865D02*
G01*
X134222485Y-94822919D01*
X134269715Y-94915614D01*
X134390028Y-95081213D01*
X134390034Y-95081219D01*
X134534781Y-95225966D01*
X134700390Y-95346287D01*
X134723793Y-95358211D01*
X134774589Y-95406183D01*
X134791500Y-95468696D01*
X134791500Y-105622045D01*
X134771815Y-105689084D01*
X134755181Y-105709726D01*
X134369726Y-106095181D01*
X134308403Y-106128666D01*
X134282045Y-106131500D01*
X130486355Y-106131500D01*
X130419316Y-106111815D01*
X130373561Y-106059011D01*
X130363617Y-105989853D01*
X130392642Y-105926297D01*
X130398674Y-105919819D01*
X130583312Y-105735181D01*
X130774518Y-105543975D01*
X130852258Y-105409324D01*
X130857918Y-105388198D01*
X130870113Y-105342692D01*
X130878688Y-105310688D01*
X130892500Y-105259141D01*
X130892500Y-95468696D01*
X130912185Y-95401657D01*
X130960206Y-95358211D01*
X130983610Y-95346287D01*
X131149219Y-95225966D01*
X131293966Y-95081219D01*
X131293968Y-95081215D01*
X131293971Y-95081213D01*
X131414284Y-94915614D01*
X131414286Y-94915611D01*
X131414287Y-94915610D01*
X131461516Y-94822917D01*
X131509489Y-94772123D01*
X131577310Y-94755328D01*
X131643445Y-94777865D01*
X131682485Y-94822919D01*
X131729715Y-94915614D01*
X131850028Y-95081213D01*
X131994786Y-95225971D01*
X132115226Y-95313474D01*
X132160390Y-95346287D01*
X132266555Y-95400381D01*
X132342776Y-95439218D01*
X132342778Y-95439218D01*
X132342781Y-95439220D01*
X132388094Y-95453943D01*
X132537465Y-95502477D01*
X132638557Y-95518488D01*
X132739648Y-95534500D01*
X132739649Y-95534500D01*
X132944351Y-95534500D01*
X132944352Y-95534500D01*
X133146534Y-95502477D01*
X133341219Y-95439220D01*
X133523610Y-95346287D01*
X133632439Y-95267219D01*
X133689213Y-95225971D01*
X133689215Y-95225968D01*
X133689219Y-95225966D01*
X133833966Y-95081219D01*
X133833968Y-95081215D01*
X133833971Y-95081213D01*
X133954284Y-94915614D01*
X133954286Y-94915611D01*
X133954287Y-94915610D01*
X134001516Y-94822917D01*
X134049489Y-94772123D01*
X134117310Y-94755328D01*
X134183445Y-94777865D01*
G37*
%TD.AperFunction*%
%TA.AperFunction,Conductor*%
G36*
X129103445Y-94777865D02*
G01*
X129142485Y-94822919D01*
X129189715Y-94915614D01*
X129310028Y-95081213D01*
X129310034Y-95081219D01*
X129454781Y-95225966D01*
X129620390Y-95346287D01*
X129643793Y-95358211D01*
X129694589Y-95406183D01*
X129711500Y-95468696D01*
X129711500Y-104885445D01*
X129691815Y-104952484D01*
X129675181Y-104973126D01*
X128913126Y-105735181D01*
X128851803Y-105768666D01*
X128825445Y-105771500D01*
X127435100Y-105771500D01*
X127368061Y-105751815D01*
X127322306Y-105699011D01*
X127311100Y-105647500D01*
X127311100Y-95654861D01*
X127310039Y-95646804D01*
X127311561Y-95646603D01*
X127313006Y-95585916D01*
X127352170Y-95528054D01*
X127416399Y-95500551D01*
X127452503Y-95502664D01*
X127452654Y-95501715D01*
X127556101Y-95518099D01*
X127659648Y-95534500D01*
X127659649Y-95534500D01*
X127864351Y-95534500D01*
X127864352Y-95534500D01*
X128066534Y-95502477D01*
X128261219Y-95439220D01*
X128443610Y-95346287D01*
X128552439Y-95267219D01*
X128609213Y-95225971D01*
X128609215Y-95225968D01*
X128609219Y-95225966D01*
X128753966Y-95081219D01*
X128753968Y-95081215D01*
X128753971Y-95081213D01*
X128874284Y-94915614D01*
X128874286Y-94915611D01*
X128874287Y-94915610D01*
X128921516Y-94822917D01*
X128969489Y-94772123D01*
X129037310Y-94755328D01*
X129103445Y-94777865D01*
G37*
%TD.AperFunction*%
%TA.AperFunction,Conductor*%
G36*
X121221474Y-94959922D02*
G01*
X121221474Y-94959921D01*
X121253861Y-94915347D01*
X121253861Y-94915346D01*
X121301234Y-94822371D01*
X121349208Y-94771575D01*
X121417028Y-94754779D01*
X121483164Y-94777316D01*
X121522203Y-94822369D01*
X121569713Y-94915611D01*
X121690028Y-95081213D01*
X121834786Y-95225971D01*
X121955226Y-95313474D01*
X122000390Y-95346287D01*
X122106555Y-95400381D01*
X122182776Y-95439218D01*
X122182778Y-95439218D01*
X122182781Y-95439220D01*
X122228094Y-95453943D01*
X122377465Y-95502477D01*
X122478557Y-95518488D01*
X122579648Y-95534500D01*
X122579649Y-95534500D01*
X122784351Y-95534500D01*
X122784352Y-95534500D01*
X122986534Y-95502477D01*
X123181219Y-95439220D01*
X123363610Y-95346287D01*
X123489832Y-95254581D01*
X123509876Y-95247429D01*
X123527782Y-95235923D01*
X123551808Y-95232468D01*
X123555638Y-95231102D01*
X123562717Y-95230900D01*
X123605245Y-95230900D01*
X123672284Y-95250585D01*
X123692926Y-95267219D01*
X124849181Y-96423474D01*
X124882666Y-96484797D01*
X124885500Y-96511155D01*
X124885500Y-96614161D01*
X124865815Y-96681200D01*
X124813011Y-96726955D01*
X124743853Y-96736899D01*
X124714048Y-96728723D01*
X124679703Y-96714497D01*
X124580697Y-96673488D01*
X124580692Y-96673487D01*
X124580689Y-96673486D01*
X124426045Y-96642725D01*
X124426042Y-96642725D01*
X124268358Y-96642725D01*
X124267825Y-96642725D01*
X124200786Y-96623040D01*
X124180143Y-96606405D01*
X124125567Y-96551828D01*
X124125563Y-96551825D01*
X123994460Y-96464224D01*
X123994447Y-96464217D01*
X123848776Y-96403879D01*
X123848764Y-96403876D01*
X123694120Y-96373115D01*
X123694117Y-96373115D01*
X123538916Y-96373115D01*
X123471877Y-96353430D01*
X123435814Y-96318006D01*
X123360004Y-96204549D01*
X123360001Y-96204545D01*
X123248507Y-96093051D01*
X123248503Y-96093048D01*
X123117400Y-96005447D01*
X123117387Y-96005440D01*
X122971716Y-95945102D01*
X122971704Y-95945099D01*
X122817060Y-95914338D01*
X122817057Y-95914338D01*
X122659373Y-95914338D01*
X122659370Y-95914338D01*
X122504725Y-95945099D01*
X122504713Y-95945102D01*
X122359042Y-96005440D01*
X122359029Y-96005447D01*
X122227926Y-96093048D01*
X122227922Y-96093051D01*
X122224568Y-96096406D01*
X122163245Y-96129891D01*
X122136887Y-96132725D01*
X120979669Y-96132725D01*
X120912630Y-96113040D01*
X120866875Y-96060236D01*
X120858052Y-96032916D01*
X120840584Y-95945101D01*
X120835537Y-95919728D01*
X120809817Y-95857634D01*
X120775197Y-95774052D01*
X120775190Y-95774039D01*
X120687589Y-95642936D01*
X120687586Y-95642932D01*
X120657295Y-95612641D01*
X120623810Y-95551318D01*
X120628794Y-95481626D01*
X120670666Y-95425693D01*
X120688682Y-95414475D01*
X120823346Y-95345861D01*
X120823347Y-95345861D01*
X120867921Y-95313474D01*
X120188447Y-94634000D01*
X120194661Y-94634000D01*
X120296394Y-94606741D01*
X120387606Y-94554080D01*
X120462080Y-94479606D01*
X120514741Y-94388394D01*
X120542000Y-94286661D01*
X120542000Y-94280448D01*
X121221474Y-94959922D01*
G37*
%TD.AperFunction*%
%TA.AperFunction,Conductor*%
G36*
X119742000Y-94286661D02*
G01*
X119769259Y-94388394D01*
X119821920Y-94479606D01*
X119896394Y-94554080D01*
X119987606Y-94606741D01*
X120089339Y-94634000D01*
X120095553Y-94634000D01*
X119416076Y-95313474D01*
X119460650Y-95345859D01*
X119494357Y-95363033D01*
X119511018Y-95378768D01*
X119530488Y-95390852D01*
X119535935Y-95402299D01*
X119545154Y-95411006D01*
X119550663Y-95433251D01*
X119560509Y-95453943D01*
X119558902Y-95466520D01*
X119561950Y-95478827D01*
X119554559Y-95500516D01*
X119551655Y-95523249D01*
X119541987Y-95537409D01*
X119539414Y-95544962D01*
X119533043Y-95553237D01*
X119529558Y-95557388D01*
X119444011Y-95642936D01*
X119390348Y-95723247D01*
X119385988Y-95728443D01*
X119362316Y-95744187D01*
X119340499Y-95762421D01*
X119332352Y-95764117D01*
X119327811Y-95767138D01*
X119317028Y-95767307D01*
X119291009Y-95772725D01*
X118763682Y-95772725D01*
X118696643Y-95753040D01*
X118650888Y-95700236D01*
X118640944Y-95631078D01*
X118642065Y-95624534D01*
X118646050Y-95604495D01*
X118646051Y-95604493D01*
X118646051Y-95446804D01*
X118646050Y-95446802D01*
X118644031Y-95436653D01*
X118615288Y-95292152D01*
X118615286Y-95292147D01*
X118578474Y-95203274D01*
X118571005Y-95133805D01*
X118592717Y-95082936D01*
X118593960Y-95081224D01*
X118593966Y-95081219D01*
X118714287Y-94915610D01*
X118761795Y-94822369D01*
X118809769Y-94771573D01*
X118877590Y-94754778D01*
X118943725Y-94777315D01*
X118982765Y-94822369D01*
X119030141Y-94915350D01*
X119030147Y-94915359D01*
X119062523Y-94959921D01*
X119062524Y-94959922D01*
X119742000Y-94280446D01*
X119742000Y-94286661D01*
G37*
%TD.AperFunction*%
%TA.AperFunction,Conductor*%
G36*
X119992789Y-92722185D02*
G01*
X120038544Y-92774989D01*
X120048488Y-92844147D01*
X120019463Y-92907703D01*
X119960685Y-92945477D01*
X119945148Y-92948973D01*
X119837582Y-92966009D01*
X119642968Y-93029244D01*
X119460644Y-93122143D01*
X119416077Y-93154523D01*
X119416077Y-93154524D01*
X120095554Y-93834000D01*
X120089339Y-93834000D01*
X119987606Y-93861259D01*
X119896394Y-93913920D01*
X119821920Y-93988394D01*
X119769259Y-94079606D01*
X119742000Y-94181339D01*
X119742000Y-94187553D01*
X119062524Y-93508077D01*
X119062523Y-93508077D01*
X119030143Y-93552644D01*
X118982765Y-93645630D01*
X118934790Y-93696426D01*
X118866969Y-93713221D01*
X118800834Y-93690683D01*
X118761795Y-93645630D01*
X118714284Y-93552385D01*
X118593971Y-93386786D01*
X118449213Y-93242028D01*
X118283613Y-93121715D01*
X118283612Y-93121714D01*
X118283610Y-93121713D01*
X118226653Y-93092691D01*
X118101223Y-93028781D01*
X117906534Y-92965522D01*
X117802043Y-92948973D01*
X117738908Y-92919044D01*
X117701977Y-92859732D01*
X117702975Y-92789870D01*
X117741585Y-92731637D01*
X117805549Y-92703523D01*
X117821441Y-92702500D01*
X119925750Y-92702500D01*
X119992789Y-92722185D01*
G37*
%TD.AperFunction*%
%TA.AperFunction,Conductor*%
G36*
X122529598Y-92722185D02*
G01*
X122575353Y-92774989D01*
X122585297Y-92844147D01*
X122556272Y-92907703D01*
X122497494Y-92945477D01*
X122481957Y-92948973D01*
X122377465Y-92965522D01*
X122182776Y-93028781D01*
X122000386Y-93121715D01*
X121834786Y-93242028D01*
X121690028Y-93386786D01*
X121569713Y-93552388D01*
X121522203Y-93645630D01*
X121474228Y-93696426D01*
X121406407Y-93713220D01*
X121340272Y-93690682D01*
X121301234Y-93645628D01*
X121253861Y-93552652D01*
X121221474Y-93508077D01*
X121221474Y-93508076D01*
X120542000Y-94187551D01*
X120542000Y-94181339D01*
X120514741Y-94079606D01*
X120462080Y-93988394D01*
X120387606Y-93913920D01*
X120296394Y-93861259D01*
X120194661Y-93834000D01*
X120188446Y-93834000D01*
X120867922Y-93154524D01*
X120867921Y-93154523D01*
X120823359Y-93122147D01*
X120823350Y-93122141D01*
X120641031Y-93029244D01*
X120446417Y-92966009D01*
X120338852Y-92948973D01*
X120275717Y-92919044D01*
X120238786Y-92859732D01*
X120239784Y-92789870D01*
X120278394Y-92731637D01*
X120342358Y-92703523D01*
X120358250Y-92702500D01*
X122462559Y-92702500D01*
X122529598Y-92722185D01*
G37*
%TD.AperFunction*%
%TD*%
M02*
