%TF.GenerationSoftware,KiCad,Pcbnew,9.0.9*%
%TF.CreationDate,2026-08-16T17:42:47-07:00*%
%TF.ProjectId,ZID_POD,5a49445f-504f-4442-9e6b-696361645f70,PR1.0*%
%TF.SameCoordinates,Original*%
%TF.FileFunction,Plated,1,4,PTH,Drill*%
%TF.FilePolarity,Positive*%
%FSLAX46Y46*%
G04 Gerber Fmt 4.6, Leading zero omitted, Abs format (unit mm)*
G04 Created by KiCad (PCBNEW 9.0.9) date 2026-08-16 17:42:47*
%MOMM*%
%LPD*%
G01*
G04 APERTURE LIST*
%TA.AperFunction,ViaDrill*%
%ADD10C,0.300000*%
%TD*%
%TA.AperFunction,ComponentDrill*%
%ADD11C,0.800000*%
%TD*%
G04 APERTURE END LIST*
D10*
X93827600Y-101854000D03*
X94742000Y-98145600D03*
X98374200Y-104800400D03*
X99796600Y-98628200D03*
X102412800Y-107442000D03*
X104978200Y-97725000D03*
X106883200Y-104140000D03*
X107729408Y-99104979D03*
X108585000Y-104063800D03*
X109245400Y-99542600D03*
X109601000Y-104063800D03*
X109982000Y-97586800D03*
X110642400Y-104089200D03*
X110837546Y-99529237D03*
X111887000Y-99542600D03*
X112852200Y-99542600D03*
X113961150Y-99207452D03*
X115087400Y-99568000D03*
X116456000Y-106124936D03*
X116662200Y-99517200D03*
X117054400Y-105434537D03*
X117442203Y-99517200D03*
X117845551Y-95525649D03*
X117874683Y-105420357D03*
X118730034Y-105371108D03*
X118748420Y-98192980D03*
X119507428Y-98013225D03*
X119527678Y-105411976D03*
X120065800Y-96153225D03*
X120287702Y-104546400D03*
X120816000Y-99491800D03*
X122478800Y-104306600D03*
X122738215Y-96714838D03*
X123615275Y-97173615D03*
X123774200Y-95910400D03*
X124168949Y-104712000D03*
X124347200Y-97443225D03*
X125316000Y-104397000D03*
X126060200Y-104967000D03*
X128828800Y-96240600D03*
X133070600Y-96240600D03*
X138023600Y-96215200D03*
D11*
%TO.C,Z80-SKT1*%
X92202000Y-94234000D03*
X92202000Y-109474000D03*
X94742000Y-94234000D03*
X94742000Y-109474000D03*
X97282000Y-94234000D03*
X97282000Y-109474000D03*
X99822000Y-94234000D03*
X99822000Y-109474000D03*
X102362000Y-94234000D03*
X102362000Y-109474000D03*
X104902000Y-94234000D03*
X104902000Y-109474000D03*
X107442000Y-94234000D03*
X107442000Y-109474000D03*
X109982000Y-94234000D03*
X109982000Y-109474000D03*
X112522000Y-94234000D03*
X112522000Y-109474000D03*
X115062000Y-94234000D03*
X115062000Y-109474000D03*
X117602000Y-94234000D03*
X117602000Y-109474000D03*
X120142000Y-94234000D03*
X120142000Y-109474000D03*
X122682000Y-94234000D03*
X122682000Y-109474000D03*
X125222000Y-94234000D03*
X125222000Y-109474000D03*
X127762000Y-94234000D03*
X127762000Y-109474000D03*
X130302000Y-94234000D03*
X130302000Y-109474000D03*
X132842000Y-94234000D03*
X132842000Y-109474000D03*
X135382000Y-94234000D03*
X135382000Y-109474000D03*
X137922000Y-94234000D03*
X137922000Y-109474000D03*
X140462000Y-94234000D03*
X140462000Y-109474000D03*
M02*
