%TF.GenerationSoftware,KiCad,Pcbnew,9.0.9*%
%TF.CreationDate,2026-08-16T17:42:43-07:00*%
%TF.ProjectId,ZID_POD,5a49445f-504f-4442-9e6b-696361645f70,PR1.0*%
%TF.SameCoordinates,Original*%
%TF.FileFunction,Copper,L4,Bot*%
%TF.FilePolarity,Positive*%
%FSLAX46Y46*%
G04 Gerber Fmt 4.6, Leading zero omitted, Abs format (unit mm)*
G04 Created by KiCad (PCBNEW 9.0.9) date 2026-08-16 17:42:43*
%MOMM*%
%LPD*%
G01*
G04 APERTURE LIST*
G04 Aperture macros list*
%AMRoundRect*
0 Rectangle with rounded corners*
0 $1 Rounding radius*
0 $2 $3 $4 $5 $6 $7 $8 $9 X,Y pos of 4 corners*
0 Add a 4 corners polygon primitive as box body*
4,1,4,$2,$3,$4,$5,$6,$7,$8,$9,$2,$3,0*
0 Add four circle primitives for the rounded corners*
1,1,$1+$1,$2,$3*
1,1,$1+$1,$4,$5*
1,1,$1+$1,$6,$7*
1,1,$1+$1,$8,$9*
0 Add four rect primitives between the rounded corners*
20,1,$1+$1,$2,$3,$4,$5,0*
20,1,$1+$1,$4,$5,$6,$7,0*
20,1,$1+$1,$6,$7,$8,$9,0*
20,1,$1+$1,$8,$9,$2,$3,0*%
G04 Aperture macros list end*
%TA.AperFunction,ComponentPad*%
%ADD10RoundRect,0.250000X0.550000X-0.550000X0.550000X0.550000X-0.550000X0.550000X-0.550000X-0.550000X0*%
%TD*%
%TA.AperFunction,ComponentPad*%
%ADD11C,1.600000*%
%TD*%
%TA.AperFunction,ViaPad*%
%ADD12C,0.600000*%
%TD*%
%TA.AperFunction,Conductor*%
%ADD13C,0.180000*%
%TD*%
G04 APERTURE END LIST*
D10*
%TO.P,Z80-SKT1,1,A11*%
%TO.N,/A11*%
X92202000Y-109474000D03*
D11*
%TO.P,Z80-SKT1,2,A12*%
%TO.N,/A12*%
X94742000Y-109474000D03*
%TO.P,Z80-SKT1,3,A13*%
%TO.N,/A13*%
X97282000Y-109474000D03*
%TO.P,Z80-SKT1,4,A14*%
%TO.N,/A14*%
X99822000Y-109474000D03*
%TO.P,Z80-SKT1,5,A15*%
%TO.N,/A15*%
X102362000Y-109474000D03*
%TO.P,Z80-SKT1,6,CLK*%
%TO.N,/CLK*%
X104902000Y-109474000D03*
%TO.P,Z80-SKT1,7,D4*%
%TO.N,/D4*%
X107442000Y-109474000D03*
%TO.P,Z80-SKT1,8,D3*%
%TO.N,/D3*%
X109982000Y-109474000D03*
%TO.P,Z80-SKT1,9,D5*%
%TO.N,/D5*%
X112522000Y-109474000D03*
%TO.P,Z80-SKT1,10,D6*%
%TO.N,/D6*%
X115062000Y-109474000D03*
%TO.P,Z80-SKT1,11,NC/GND*%
%TO.N,unconnected-(Z80-SKT1-NC{slash}GND-Pad11)*%
X117602000Y-109474000D03*
%TO.P,Z80-SKT1,12,D2*%
%TO.N,/D2*%
X120142000Y-109474000D03*
%TO.P,Z80-SKT1,13,D7*%
%TO.N,/D7*%
X122682000Y-109474000D03*
%TO.P,Z80-SKT1,14,D0*%
%TO.N,/D0*%
X125222000Y-109474000D03*
%TO.P,Z80-SKT1,15,D1*%
%TO.N,/D1*%
X127762000Y-109474000D03*
%TO.P,Z80-SKT1,16,~{INT}*%
%TO.N,/INT-*%
X130302000Y-109474000D03*
%TO.P,Z80-SKT1,17,~{NMI}*%
%TO.N,/NMI-*%
X132842000Y-109474000D03*
%TO.P,Z80-SKT1,18,~{HALT}*%
%TO.N,/HALT-*%
X135382000Y-109474000D03*
%TO.P,Z80-SKT1,19,~{MREQ}*%
%TO.N,/MREQ-*%
X137922000Y-109474000D03*
%TO.P,Z80-SKT1,20,~{IORQ}*%
%TO.N,/IORQ-*%
X140462000Y-109474000D03*
%TO.P,Z80-SKT1,21,~{RD}*%
%TO.N,/RD-*%
X140462000Y-94234000D03*
%TO.P,Z80-SKT1,22,~{WR}*%
%TO.N,/WR-*%
X137922000Y-94234000D03*
%TO.P,Z80-SKT1,23,~{BUSACK}*%
%TO.N,/BACK-*%
X135382000Y-94234000D03*
%TO.P,Z80-SKT1,24,~{WAIT}*%
%TO.N,/WAIT-*%
X132842000Y-94234000D03*
%TO.P,Z80-SKT1,25,~{BUSREQ}*%
%TO.N,/BREQ-*%
X130302000Y-94234000D03*
%TO.P,Z80-SKT1,26,~{RESET}*%
%TO.N,/RST-*%
X127762000Y-94234000D03*
%TO.P,Z80-SKT1,27,~{M1}*%
%TO.N,/M1-*%
X125222000Y-94234000D03*
%TO.P,Z80-SKT1,28,~{RFSH}*%
%TO.N,/RFSH-*%
X122682000Y-94234000D03*
%TO.P,Z80-SKT1,29,GND*%
%TO.N,/GND*%
X120142000Y-94234000D03*
%TO.P,Z80-SKT1,30,A0*%
%TO.N,/A0*%
X117602000Y-94234000D03*
%TO.P,Z80-SKT1,31,A1*%
%TO.N,/A1*%
X115062000Y-94234000D03*
%TO.P,Z80-SKT1,32,A2*%
%TO.N,/A2*%
X112522000Y-94234000D03*
%TO.P,Z80-SKT1,33,A3*%
%TO.N,/A3*%
X109982000Y-94234000D03*
%TO.P,Z80-SKT1,34,A4*%
%TO.N,/A4*%
X107442000Y-94234000D03*
%TO.P,Z80-SKT1,35,A5*%
%TO.N,/A5*%
X104902000Y-94234000D03*
%TO.P,Z80-SKT1,36,A6*%
%TO.N,/A6*%
X102362000Y-94234000D03*
%TO.P,Z80-SKT1,37,A7*%
%TO.N,/A7*%
X99822000Y-94234000D03*
%TO.P,Z80-SKT1,38,A8*%
%TO.N,/A8*%
X97282000Y-94234000D03*
%TO.P,Z80-SKT1,39,A9*%
%TO.N,/A9*%
X94742000Y-94234000D03*
%TO.P,Z80-SKT1,40,A10*%
%TO.N,/A10*%
X92202000Y-94234000D03*
%TD*%
D12*
%TO.N,/GND*%
X93827600Y-101854000D03*
X138023600Y-96215200D03*
X133070600Y-96240600D03*
X128828800Y-96240600D03*
X123774200Y-95910400D03*
%TO.N,/A3*%
X109982000Y-97586800D03*
X122478800Y-104306600D03*
%TO.N,/A5*%
X104978200Y-97725000D03*
X124168949Y-104712000D03*
%TO.N,/A7*%
X99796600Y-98628200D03*
X125316000Y-104397000D03*
%TO.N,/A9*%
X94742000Y-98145600D03*
X126060200Y-104967000D03*
%TO.N,/A10*%
X124347200Y-97443225D03*
%TO.N,/A8*%
X123615275Y-97173615D03*
%TO.N,/A6*%
X122738215Y-96714838D03*
%TO.N,/A4*%
X120065800Y-96153225D03*
%TO.N,/A2*%
X117845551Y-95525649D03*
%TO.N,/WR-*%
X117442203Y-99517200D03*
%TO.N,/WAIT-*%
X118748420Y-98192980D03*
%TO.N,/RST-*%
X119507428Y-98013225D03*
%TO.N,/RFSH-*%
X120816000Y-99491800D03*
%TO.N,/A1*%
X119527678Y-105411976D03*
%TO.N,/M1-*%
X118730034Y-105371108D03*
%TO.N,/BREQ-*%
X117874683Y-105420357D03*
%TO.N,/BACK-*%
X117054400Y-105434537D03*
%TO.N,/RD-*%
X116456000Y-106124936D03*
%TO.N,/A15*%
X102412800Y-107442000D03*
X120287702Y-104546400D03*
%TO.N,/IORQ-*%
X116662200Y-99517200D03*
%TO.N,/INT-*%
X113961150Y-99207452D03*
%TO.N,/HALT-*%
X115087400Y-99568000D03*
%TO.N,/D0*%
X112852200Y-99542600D03*
%TO.N,/D2*%
X111887000Y-99542600D03*
%TO.N,/D6*%
X110837546Y-99529237D03*
%TO.N,/D5*%
X110642400Y-104089200D03*
%TO.N,/D3*%
X107729408Y-99104979D03*
%TO.N,/A14*%
X98374200Y-104800400D03*
%TO.N,/A11*%
X106883200Y-104140000D03*
%TO.N,/GND*%
X109601000Y-104063800D03*
X108585000Y-104063800D03*
%TO.N,/CLK*%
X109245400Y-99542600D03*
%TD*%
D13*
%TO.N,/RST-*%
X127762000Y-95605600D02*
X127762000Y-94234000D01*
X125354375Y-98013225D02*
X127762000Y-95605600D01*
X119507428Y-98013225D02*
X125354375Y-98013225D01*
%TO.N,/WAIT-*%
X127787400Y-98602800D02*
X129815000Y-96575200D01*
X130500800Y-96575200D02*
X132842000Y-94234000D01*
X118836870Y-98192980D02*
X119246690Y-98602800D01*
X129815000Y-96575200D02*
X130500800Y-96575200D01*
X118748420Y-98192980D02*
X118836870Y-98192980D01*
X119246690Y-98602800D02*
X127787400Y-98602800D01*
%TO.N,/WR-*%
X136296400Y-95859600D02*
X137922000Y-94234000D01*
X135094391Y-95859600D02*
X136296400Y-95859600D01*
X133912000Y-94677209D02*
X135094391Y-95859600D01*
X116452200Y-93870591D02*
X117158791Y-93164000D01*
X116452200Y-97810594D02*
X116452200Y-93870591D01*
X133285209Y-93164000D02*
X133912000Y-93790791D01*
X133912000Y-93790791D02*
X133912000Y-94677209D01*
X117442203Y-98800597D02*
X116452200Y-97810594D01*
X117442203Y-99517200D02*
X117442203Y-98800597D01*
X117158791Y-93164000D02*
X133285209Y-93164000D01*
%TO.N,/A1*%
X116092200Y-95264200D02*
X115062000Y-94234000D01*
X116092200Y-101842800D02*
X116092200Y-95264200D01*
X119527678Y-105278278D02*
X116092200Y-101842800D01*
X119527678Y-105411976D02*
X119527678Y-105278278D01*
%TO.N,/INT-*%
X127485209Y-107684000D02*
X129275209Y-109474000D01*
X114799348Y-107684000D02*
X127485209Y-107684000D01*
X114096800Y-106981452D02*
X114799348Y-107684000D01*
X113961150Y-99544984D02*
X114096800Y-99680634D01*
X113961150Y-99207452D02*
X113961150Y-99544984D01*
X114096800Y-99680634D02*
X114096800Y-106981452D01*
X129275209Y-109474000D02*
X130302000Y-109474000D01*
%TO.N,/D3*%
X107797600Y-107289600D02*
X109982000Y-109474000D01*
X107729408Y-99104979D02*
X107797600Y-99173171D01*
X107797600Y-99173171D02*
X107797600Y-107289600D01*
%TO.N,/D0*%
X118554325Y-108404000D02*
X123872600Y-108404000D01*
X123872600Y-108404000D02*
X124942600Y-109474000D01*
X114650232Y-108044000D02*
X118194326Y-108044000D01*
X112852200Y-106245968D02*
X114650232Y-108044000D01*
X112852200Y-99542600D02*
X112852200Y-106245968D01*
X118194326Y-108044000D02*
X118554325Y-108404000D01*
%TO.N,/D2*%
X119115209Y-109474000D02*
X120142000Y-109474000D01*
X118045209Y-108404000D02*
X119115209Y-109474000D01*
X114501116Y-108404000D02*
X118045209Y-108404000D01*
X111887000Y-105789884D02*
X114501116Y-108404000D01*
X111887000Y-99542600D02*
X111887000Y-105789884D01*
%TO.N,/IORQ-*%
X133138000Y-102150000D02*
X140462000Y-109474000D01*
X118736200Y-102150000D02*
X133138000Y-102150000D01*
X116662200Y-100076000D02*
X118736200Y-102150000D01*
X116662200Y-99517200D02*
X116662200Y-100076000D01*
%TO.N,/D6*%
X111226600Y-105638600D02*
X115062000Y-109474000D01*
X110837546Y-99529237D02*
X111226600Y-99918291D01*
X111226600Y-99918291D02*
X111226600Y-105638600D01*
%TO.N,/D5*%
X110642400Y-107467400D02*
X112522000Y-109347000D01*
X110642400Y-104089200D02*
X110642400Y-107467400D01*
%TO.N,/A14*%
X99822000Y-106248200D02*
X99822000Y-109474000D01*
X98374200Y-104800400D02*
X99822000Y-106248200D01*
%TO.N,/A11*%
X106883200Y-104140000D02*
X97536000Y-104140000D01*
X97536000Y-104140000D02*
X92202000Y-109474000D01*
%TD*%
M02*
