%TF.GenerationSoftware,KiCad,Pcbnew,9.0.9*%
%TF.CreationDate,2026-08-16T17:42:42-07:00*%
%TF.ProjectId,ZID_POD,5a49445f-504f-4442-9e6b-696361645f70,PR1.0*%
%TF.SameCoordinates,Original*%
%TF.FileFunction,Copper,L2,Inr*%
%TF.FilePolarity,Positive*%
%FSLAX46Y46*%
G04 Gerber Fmt 4.6, Leading zero omitted, Abs format (unit mm)*
G04 Created by KiCad (PCBNEW 9.0.9) date 2026-08-16 17:42:42*
%MOMM*%
%LPD*%
G01*
G04 APERTURE LIST*
G04 Aperture macros list*
%AMRoundRect*
0 Rectangle with rounded corners*
0 $1 Rounding radius*
0 $2 $3 $4 $5 $6 $7 $8 $9 X,Y pos of 4 corners*
0 Add a 4 corners polygon primitive as box body*
4,1,4,$2,$3,$4,$5,$6,$7,$8,$9,$2,$3,0*
0 Add four circle primitives for the rounded corners*
1,1,$1+$1,$2,$3*
1,1,$1+$1,$4,$5*
1,1,$1+$1,$6,$7*
1,1,$1+$1,$8,$9*
0 Add four rect primitives between the rounded corners*
20,1,$1+$1,$2,$3,$4,$5,0*
20,1,$1+$1,$4,$5,$6,$7,0*
20,1,$1+$1,$6,$7,$8,$9,0*
20,1,$1+$1,$8,$9,$2,$3,0*%
G04 Aperture macros list end*
%TA.AperFunction,ComponentPad*%
%ADD10RoundRect,0.250000X0.550000X-0.550000X0.550000X0.550000X-0.550000X0.550000X-0.550000X-0.550000X0*%
%TD*%
%TA.AperFunction,ComponentPad*%
%ADD11C,1.600000*%
%TD*%
%TA.AperFunction,ViaPad*%
%ADD12C,0.600000*%
%TD*%
%TA.AperFunction,Conductor*%
%ADD13C,0.180000*%
%TD*%
G04 APERTURE END LIST*
D10*
%TO.N,/A11*%
%TO.C,Z80-SKT1*%
X92202000Y-109474000D03*
D11*
%TO.N,/A12*%
X94742000Y-109474000D03*
%TO.N,/A13*%
X97282000Y-109474000D03*
%TO.N,/A14*%
X99822000Y-109474000D03*
%TO.N,/A15*%
X102362000Y-109474000D03*
%TO.N,/CLK*%
X104902000Y-109474000D03*
%TO.N,/D4*%
X107442000Y-109474000D03*
%TO.N,/D3*%
X109982000Y-109474000D03*
%TO.N,/D5*%
X112522000Y-109474000D03*
%TO.N,/D6*%
X115062000Y-109474000D03*
%TO.N,unconnected-(Z80-SKT1-NC{slash}GND-Pad11)*%
X117602000Y-109474000D03*
%TO.N,/D2*%
X120142000Y-109474000D03*
%TO.N,/D7*%
X122682000Y-109474000D03*
%TO.N,/D0*%
X125222000Y-109474000D03*
%TO.N,/D1*%
X127762000Y-109474000D03*
%TO.N,/INT-*%
X130302000Y-109474000D03*
%TO.N,/NMI-*%
X132842000Y-109474000D03*
%TO.N,/HALT-*%
X135382000Y-109474000D03*
%TO.N,/MREQ-*%
X137922000Y-109474000D03*
%TO.N,/IORQ-*%
X140462000Y-109474000D03*
%TO.N,/RD-*%
X140462000Y-94234000D03*
%TO.N,/WR-*%
X137922000Y-94234000D03*
%TO.N,/BACK-*%
X135382000Y-94234000D03*
%TO.N,/WAIT-*%
X132842000Y-94234000D03*
%TO.N,/BREQ-*%
X130302000Y-94234000D03*
%TO.N,/RST-*%
X127762000Y-94234000D03*
%TO.N,/M1-*%
X125222000Y-94234000D03*
%TO.N,/RFSH-*%
X122682000Y-94234000D03*
%TO.N,/GND*%
X120142000Y-94234000D03*
%TO.N,/A0*%
X117602000Y-94234000D03*
%TO.N,/A1*%
X115062000Y-94234000D03*
%TO.N,/A2*%
X112522000Y-94234000D03*
%TO.N,/A3*%
X109982000Y-94234000D03*
%TO.N,/A4*%
X107442000Y-94234000D03*
%TO.N,/A5*%
X104902000Y-94234000D03*
%TO.N,/A6*%
X102362000Y-94234000D03*
%TO.N,/A7*%
X99822000Y-94234000D03*
%TO.N,/A8*%
X97282000Y-94234000D03*
%TO.N,/A9*%
X94742000Y-94234000D03*
%TO.N,/A10*%
X92202000Y-94234000D03*
%TD*%
D12*
%TO.N,/GND*%
X93827600Y-101854000D03*
X138023600Y-96215200D03*
X133070600Y-96240600D03*
X128828800Y-96240600D03*
X123774200Y-95910400D03*
%TO.N,/A3*%
X109982000Y-97586800D03*
X122478800Y-104306600D03*
%TO.N,/A5*%
X104978200Y-97725000D03*
X124168949Y-104712000D03*
%TO.N,/A7*%
X99796600Y-98628200D03*
X125316000Y-104397000D03*
%TO.N,/A9*%
X94742000Y-98145600D03*
X126060200Y-104967000D03*
%TO.N,/A10*%
X124347200Y-97443225D03*
%TO.N,/A8*%
X123615275Y-97173615D03*
%TO.N,/A6*%
X122738215Y-96714838D03*
%TO.N,/A4*%
X120065800Y-96153225D03*
%TO.N,/A2*%
X117845551Y-95525649D03*
%TO.N,/WR-*%
X117442203Y-99517200D03*
%TO.N,/WAIT-*%
X118748420Y-98192980D03*
%TO.N,/RST-*%
X119507428Y-98013225D03*
%TO.N,/RFSH-*%
X120816000Y-99491800D03*
%TO.N,/A1*%
X119527678Y-105411976D03*
%TO.N,/M1-*%
X118730034Y-105371108D03*
%TO.N,/BREQ-*%
X117874683Y-105420357D03*
%TO.N,/BACK-*%
X117054400Y-105434537D03*
%TO.N,/RD-*%
X116456000Y-106124936D03*
%TO.N,/A15*%
X102412800Y-107442000D03*
X120287702Y-104546400D03*
%TO.N,/IORQ-*%
X116662200Y-99517200D03*
%TO.N,/INT-*%
X113961150Y-99207452D03*
%TO.N,/HALT-*%
X115087400Y-99568000D03*
%TO.N,/D0*%
X112852200Y-99542600D03*
%TO.N,/D2*%
X111887000Y-99542600D03*
%TO.N,/D6*%
X110837546Y-99529237D03*
%TO.N,/D5*%
X110642400Y-104089200D03*
%TO.N,/D3*%
X107729408Y-99104979D03*
%TO.N,/A14*%
X98374200Y-104800400D03*
%TO.N,/A11*%
X106883200Y-104140000D03*
%TO.N,/GND*%
X109601000Y-104063800D03*
X108585000Y-104063800D03*
%TO.N,/CLK*%
X109245400Y-99542600D03*
%TD*%
D13*
%TO.N,/A15*%
X102489000Y-107518200D02*
X102412800Y-107442000D01*
X118941502Y-107518200D02*
X102489000Y-107518200D01*
X120287702Y-106172000D02*
X118941502Y-107518200D01*
X120287702Y-104546400D02*
X120287702Y-106172000D01*
%TD*%
%TA.AperFunction,Conductor*%
%TO.N,/GND*%
G36*
X142195455Y-92720486D02*
G01*
X142237261Y-92768733D01*
X142247500Y-92815800D01*
X142247500Y-110892200D01*
X142229514Y-110953455D01*
X142181267Y-110995261D01*
X142134200Y-111005500D01*
X90529800Y-111005500D01*
X90468545Y-110987514D01*
X90426739Y-110939267D01*
X90416500Y-110892200D01*
X90416500Y-108866798D01*
X90944300Y-108866798D01*
X90944300Y-110081209D01*
X90950778Y-110152499D01*
X90950779Y-110152505D01*
X91001908Y-110316584D01*
X91090814Y-110463653D01*
X91090819Y-110463659D01*
X91212340Y-110585180D01*
X91212346Y-110585185D01*
X91359415Y-110674091D01*
X91359417Y-110674091D01*
X91359418Y-110674092D01*
X91523497Y-110725221D01*
X91523500Y-110725221D01*
X91523503Y-110725222D01*
X91523501Y-110725222D01*
X91549773Y-110727608D01*
X91594797Y-110731700D01*
X92809202Y-110731699D01*
X92809209Y-110731699D01*
X92854575Y-110727576D01*
X92880503Y-110725221D01*
X93044582Y-110674092D01*
X93191658Y-110585182D01*
X93313182Y-110463658D01*
X93402092Y-110316582D01*
X93453221Y-110152503D01*
X93453221Y-110152500D01*
X93455004Y-110146779D01*
X93457713Y-110147623D01*
X93481394Y-110101969D01*
X93536761Y-110070186D01*
X93600522Y-110073382D01*
X93652433Y-110110542D01*
X93664148Y-110128918D01*
X93666319Y-110133178D01*
X93782680Y-110293337D01*
X93922663Y-110433320D01*
X94082822Y-110549681D01*
X94259206Y-110639553D01*
X94259206Y-110639554D01*
X94259208Y-110639554D01*
X94259211Y-110639556D01*
X94447488Y-110700731D01*
X94643017Y-110731700D01*
X94643020Y-110731700D01*
X94840980Y-110731700D01*
X94840983Y-110731700D01*
X95036512Y-110700731D01*
X95224789Y-110639556D01*
X95401178Y-110549681D01*
X95561337Y-110433320D01*
X95701320Y-110293337D01*
X95817681Y-110133178D01*
X95907556Y-109956789D01*
X95909577Y-109952823D01*
X95910567Y-109953327D01*
X95947371Y-109907646D01*
X96007942Y-109887478D01*
X96069801Y-109903258D01*
X96113309Y-109949977D01*
X96116216Y-109956342D01*
X96116444Y-109956789D01*
X96206319Y-110133178D01*
X96322680Y-110293337D01*
X96462663Y-110433320D01*
X96622822Y-110549681D01*
X96799206Y-110639553D01*
X96799206Y-110639554D01*
X96799208Y-110639554D01*
X96799211Y-110639556D01*
X96987488Y-110700731D01*
X97183017Y-110731700D01*
X97183020Y-110731700D01*
X97380980Y-110731700D01*
X97380983Y-110731700D01*
X97576512Y-110700731D01*
X97764789Y-110639556D01*
X97941178Y-110549681D01*
X98101337Y-110433320D01*
X98241320Y-110293337D01*
X98357681Y-110133178D01*
X98447556Y-109956789D01*
X98449577Y-109952823D01*
X98450567Y-109953327D01*
X98487371Y-109907646D01*
X98547942Y-109887478D01*
X98609801Y-109903258D01*
X98653309Y-109949977D01*
X98656216Y-109956342D01*
X98656444Y-109956789D01*
X98746319Y-110133178D01*
X98862680Y-110293337D01*
X99002663Y-110433320D01*
X99162822Y-110549681D01*
X99339206Y-110639553D01*
X99339206Y-110639554D01*
X99339208Y-110639554D01*
X99339211Y-110639556D01*
X99527488Y-110700731D01*
X99723017Y-110731700D01*
X99723020Y-110731700D01*
X99920980Y-110731700D01*
X99920983Y-110731700D01*
X100116512Y-110700731D01*
X100304789Y-110639556D01*
X100481178Y-110549681D01*
X100641337Y-110433320D01*
X100781320Y-110293337D01*
X100897681Y-110133178D01*
X100987556Y-109956789D01*
X100989577Y-109952823D01*
X100990567Y-109953327D01*
X101027371Y-109907646D01*
X101087942Y-109887478D01*
X101149801Y-109903258D01*
X101193309Y-109949977D01*
X101196216Y-109956342D01*
X101196444Y-109956789D01*
X101286319Y-110133178D01*
X101402680Y-110293337D01*
X101542663Y-110433320D01*
X101702822Y-110549681D01*
X101879206Y-110639553D01*
X101879206Y-110639554D01*
X101879208Y-110639554D01*
X101879211Y-110639556D01*
X102067488Y-110700731D01*
X102263017Y-110731700D01*
X102263020Y-110731700D01*
X102460980Y-110731700D01*
X102460983Y-110731700D01*
X102656512Y-110700731D01*
X102844789Y-110639556D01*
X103021178Y-110549681D01*
X103181337Y-110433320D01*
X103321320Y-110293337D01*
X103437681Y-110133178D01*
X103527556Y-109956789D01*
X103529577Y-109952823D01*
X103530567Y-109953327D01*
X103567371Y-109907646D01*
X103627942Y-109887478D01*
X103689801Y-109903258D01*
X103733309Y-109949977D01*
X103736216Y-109956342D01*
X103736444Y-109956789D01*
X103826319Y-110133178D01*
X103942680Y-110293337D01*
X104082663Y-110433320D01*
X104242822Y-110549681D01*
X104419206Y-110639553D01*
X104419206Y-110639554D01*
X104419208Y-110639554D01*
X104419211Y-110639556D01*
X104607488Y-110700731D01*
X104803017Y-110731700D01*
X104803020Y-110731700D01*
X105000980Y-110731700D01*
X105000983Y-110731700D01*
X105196512Y-110700731D01*
X105384789Y-110639556D01*
X105561178Y-110549681D01*
X105721337Y-110433320D01*
X105861320Y-110293337D01*
X105977681Y-110133178D01*
X106067556Y-109956789D01*
X106069577Y-109952823D01*
X106070567Y-109953327D01*
X106107371Y-109907646D01*
X106167942Y-109887478D01*
X106229801Y-109903258D01*
X106273309Y-109949977D01*
X106276216Y-109956342D01*
X106276444Y-109956789D01*
X106366319Y-110133178D01*
X106482680Y-110293337D01*
X106622663Y-110433320D01*
X106782822Y-110549681D01*
X106959206Y-110639553D01*
X106959206Y-110639554D01*
X106959208Y-110639554D01*
X106959211Y-110639556D01*
X107147488Y-110700731D01*
X107343017Y-110731700D01*
X107343020Y-110731700D01*
X107540980Y-110731700D01*
X107540983Y-110731700D01*
X107736512Y-110700731D01*
X107924789Y-110639556D01*
X108101178Y-110549681D01*
X108261337Y-110433320D01*
X108401320Y-110293337D01*
X108517681Y-110133178D01*
X108607556Y-109956789D01*
X108609577Y-109952823D01*
X108610567Y-109953327D01*
X108647371Y-109907646D01*
X108707942Y-109887478D01*
X108769801Y-109903258D01*
X108813309Y-109949977D01*
X108816216Y-109956342D01*
X108816444Y-109956789D01*
X108906319Y-110133178D01*
X109022680Y-110293337D01*
X109162663Y-110433320D01*
X109322822Y-110549681D01*
X109499206Y-110639553D01*
X109499206Y-110639554D01*
X109499208Y-110639554D01*
X109499211Y-110639556D01*
X109687488Y-110700731D01*
X109883017Y-110731700D01*
X109883020Y-110731700D01*
X110080980Y-110731700D01*
X110080983Y-110731700D01*
X110276512Y-110700731D01*
X110464789Y-110639556D01*
X110641178Y-110549681D01*
X110801337Y-110433320D01*
X110941320Y-110293337D01*
X111057681Y-110133178D01*
X111147556Y-109956789D01*
X111149577Y-109952823D01*
X111150567Y-109953327D01*
X111187371Y-109907646D01*
X111247942Y-109887478D01*
X111309801Y-109903258D01*
X111353309Y-109949977D01*
X111356216Y-109956342D01*
X111356444Y-109956789D01*
X111446319Y-110133178D01*
X111562680Y-110293337D01*
X111702663Y-110433320D01*
X111862822Y-110549681D01*
X112039206Y-110639553D01*
X112039206Y-110639554D01*
X112039208Y-110639554D01*
X112039211Y-110639556D01*
X112227488Y-110700731D01*
X112423017Y-110731700D01*
X112423020Y-110731700D01*
X112620980Y-110731700D01*
X112620983Y-110731700D01*
X112816512Y-110700731D01*
X113004789Y-110639556D01*
X113181178Y-110549681D01*
X113341337Y-110433320D01*
X113481320Y-110293337D01*
X113597681Y-110133178D01*
X113687556Y-109956789D01*
X113689577Y-109952823D01*
X113690567Y-109953327D01*
X113727371Y-109907646D01*
X113787942Y-109887478D01*
X113849801Y-109903258D01*
X113893309Y-109949977D01*
X113896216Y-109956342D01*
X113896444Y-109956789D01*
X113986319Y-110133178D01*
X114102680Y-110293337D01*
X114242663Y-110433320D01*
X114402822Y-110549681D01*
X114579206Y-110639553D01*
X114579206Y-110639554D01*
X114579208Y-110639554D01*
X114579211Y-110639556D01*
X114767488Y-110700731D01*
X114963017Y-110731700D01*
X114963020Y-110731700D01*
X115160980Y-110731700D01*
X115160983Y-110731700D01*
X115356512Y-110700731D01*
X115544789Y-110639556D01*
X115721178Y-110549681D01*
X115881337Y-110433320D01*
X116021320Y-110293337D01*
X116137681Y-110133178D01*
X116227556Y-109956789D01*
X116229577Y-109952823D01*
X116230567Y-109953327D01*
X116267371Y-109907646D01*
X116327942Y-109887478D01*
X116389801Y-109903258D01*
X116433309Y-109949977D01*
X116436216Y-109956342D01*
X116436444Y-109956789D01*
X116526319Y-110133178D01*
X116642680Y-110293337D01*
X116782663Y-110433320D01*
X116942822Y-110549681D01*
X117119206Y-110639553D01*
X117119206Y-110639554D01*
X117119208Y-110639554D01*
X117119211Y-110639556D01*
X117307488Y-110700731D01*
X117503017Y-110731700D01*
X117503020Y-110731700D01*
X117700980Y-110731700D01*
X117700983Y-110731700D01*
X117896512Y-110700731D01*
X118084789Y-110639556D01*
X118261178Y-110549681D01*
X118421337Y-110433320D01*
X118561320Y-110293337D01*
X118677681Y-110133178D01*
X118767556Y-109956789D01*
X118769577Y-109952823D01*
X118770567Y-109953327D01*
X118807371Y-109907646D01*
X118867942Y-109887478D01*
X118929801Y-109903258D01*
X118973309Y-109949977D01*
X118976216Y-109956342D01*
X118976444Y-109956789D01*
X119066319Y-110133178D01*
X119182680Y-110293337D01*
X119322663Y-110433320D01*
X119482822Y-110549681D01*
X119659206Y-110639553D01*
X119659206Y-110639554D01*
X119659208Y-110639554D01*
X119659211Y-110639556D01*
X119847488Y-110700731D01*
X120043017Y-110731700D01*
X120043020Y-110731700D01*
X120240980Y-110731700D01*
X120240983Y-110731700D01*
X120436512Y-110700731D01*
X120624789Y-110639556D01*
X120801178Y-110549681D01*
X120961337Y-110433320D01*
X121101320Y-110293337D01*
X121217681Y-110133178D01*
X121307556Y-109956789D01*
X121309577Y-109952823D01*
X121310567Y-109953327D01*
X121347371Y-109907646D01*
X121407942Y-109887478D01*
X121469801Y-109903258D01*
X121513309Y-109949977D01*
X121516216Y-109956342D01*
X121516444Y-109956789D01*
X121606319Y-110133178D01*
X121722680Y-110293337D01*
X121862663Y-110433320D01*
X122022822Y-110549681D01*
X122199206Y-110639553D01*
X122199206Y-110639554D01*
X122199208Y-110639554D01*
X122199211Y-110639556D01*
X122387488Y-110700731D01*
X122583017Y-110731700D01*
X122583020Y-110731700D01*
X122780980Y-110731700D01*
X122780983Y-110731700D01*
X122976512Y-110700731D01*
X123164789Y-110639556D01*
X123341178Y-110549681D01*
X123501337Y-110433320D01*
X123641320Y-110293337D01*
X123757681Y-110133178D01*
X123847556Y-109956789D01*
X123849577Y-109952823D01*
X123850567Y-109953327D01*
X123887371Y-109907646D01*
X123947942Y-109887478D01*
X124009801Y-109903258D01*
X124053309Y-109949977D01*
X124056216Y-109956342D01*
X124056444Y-109956789D01*
X124146319Y-110133178D01*
X124262680Y-110293337D01*
X124402663Y-110433320D01*
X124562822Y-110549681D01*
X124739206Y-110639553D01*
X124739206Y-110639554D01*
X124739208Y-110639554D01*
X124739211Y-110639556D01*
X124927488Y-110700731D01*
X125123017Y-110731700D01*
X125123020Y-110731700D01*
X125320980Y-110731700D01*
X125320983Y-110731700D01*
X125516512Y-110700731D01*
X125704789Y-110639556D01*
X125881178Y-110549681D01*
X126041337Y-110433320D01*
X126181320Y-110293337D01*
X126297681Y-110133178D01*
X126387556Y-109956789D01*
X126389577Y-109952823D01*
X126390567Y-109953327D01*
X126427371Y-109907646D01*
X126487942Y-109887478D01*
X126549801Y-109903258D01*
X126593309Y-109949977D01*
X126596216Y-109956342D01*
X126596444Y-109956789D01*
X126686319Y-110133178D01*
X126802680Y-110293337D01*
X126942663Y-110433320D01*
X127102822Y-110549681D01*
X127279206Y-110639553D01*
X127279206Y-110639554D01*
X127279208Y-110639554D01*
X127279211Y-110639556D01*
X127467488Y-110700731D01*
X127663017Y-110731700D01*
X127663020Y-110731700D01*
X127860980Y-110731700D01*
X127860983Y-110731700D01*
X128056512Y-110700731D01*
X128244789Y-110639556D01*
X128421178Y-110549681D01*
X128581337Y-110433320D01*
X128721320Y-110293337D01*
X128837681Y-110133178D01*
X128927556Y-109956789D01*
X128929577Y-109952823D01*
X128930567Y-109953327D01*
X128967371Y-109907646D01*
X129027942Y-109887478D01*
X129089801Y-109903258D01*
X129133309Y-109949977D01*
X129136216Y-109956342D01*
X129136444Y-109956789D01*
X129226319Y-110133178D01*
X129342680Y-110293337D01*
X129482663Y-110433320D01*
X129642822Y-110549681D01*
X129819206Y-110639553D01*
X129819206Y-110639554D01*
X129819208Y-110639554D01*
X129819211Y-110639556D01*
X130007488Y-110700731D01*
X130203017Y-110731700D01*
X130203020Y-110731700D01*
X130400980Y-110731700D01*
X130400983Y-110731700D01*
X130596512Y-110700731D01*
X130784789Y-110639556D01*
X130961178Y-110549681D01*
X131121337Y-110433320D01*
X131261320Y-110293337D01*
X131377681Y-110133178D01*
X131467556Y-109956789D01*
X131469577Y-109952823D01*
X131470567Y-109953327D01*
X131507371Y-109907646D01*
X131567942Y-109887478D01*
X131629801Y-109903258D01*
X131673309Y-109949977D01*
X131676216Y-109956342D01*
X131676444Y-109956789D01*
X131766319Y-110133178D01*
X131882680Y-110293337D01*
X132022663Y-110433320D01*
X132182822Y-110549681D01*
X132359206Y-110639553D01*
X132359206Y-110639554D01*
X132359208Y-110639554D01*
X132359211Y-110639556D01*
X132547488Y-110700731D01*
X132743017Y-110731700D01*
X132743020Y-110731700D01*
X132940980Y-110731700D01*
X132940983Y-110731700D01*
X133136512Y-110700731D01*
X133324789Y-110639556D01*
X133501178Y-110549681D01*
X133661337Y-110433320D01*
X133801320Y-110293337D01*
X133917681Y-110133178D01*
X134007556Y-109956789D01*
X134009577Y-109952823D01*
X134010567Y-109953327D01*
X134047371Y-109907646D01*
X134107942Y-109887478D01*
X134169801Y-109903258D01*
X134213309Y-109949977D01*
X134216216Y-109956342D01*
X134216444Y-109956789D01*
X134306319Y-110133178D01*
X134422680Y-110293337D01*
X134562663Y-110433320D01*
X134722822Y-110549681D01*
X134899206Y-110639553D01*
X134899206Y-110639554D01*
X134899208Y-110639554D01*
X134899211Y-110639556D01*
X135087488Y-110700731D01*
X135283017Y-110731700D01*
X135283020Y-110731700D01*
X135480980Y-110731700D01*
X135480983Y-110731700D01*
X135676512Y-110700731D01*
X135864789Y-110639556D01*
X136041178Y-110549681D01*
X136201337Y-110433320D01*
X136341320Y-110293337D01*
X136457681Y-110133178D01*
X136547556Y-109956789D01*
X136549577Y-109952823D01*
X136550567Y-109953327D01*
X136587371Y-109907646D01*
X136647942Y-109887478D01*
X136709801Y-109903258D01*
X136753309Y-109949977D01*
X136756216Y-109956342D01*
X136756444Y-109956789D01*
X136846319Y-110133178D01*
X136962680Y-110293337D01*
X137102663Y-110433320D01*
X137262822Y-110549681D01*
X137439206Y-110639553D01*
X137439206Y-110639554D01*
X137439208Y-110639554D01*
X137439211Y-110639556D01*
X137627488Y-110700731D01*
X137823017Y-110731700D01*
X137823020Y-110731700D01*
X138020980Y-110731700D01*
X138020983Y-110731700D01*
X138216512Y-110700731D01*
X138404789Y-110639556D01*
X138581178Y-110549681D01*
X138741337Y-110433320D01*
X138881320Y-110293337D01*
X138997681Y-110133178D01*
X139087556Y-109956789D01*
X139089577Y-109952823D01*
X139090567Y-109953327D01*
X139127371Y-109907646D01*
X139187942Y-109887478D01*
X139249801Y-109903258D01*
X139293309Y-109949977D01*
X139296216Y-109956342D01*
X139296444Y-109956789D01*
X139386319Y-110133178D01*
X139502680Y-110293337D01*
X139642663Y-110433320D01*
X139802822Y-110549681D01*
X139979206Y-110639553D01*
X139979206Y-110639554D01*
X139979208Y-110639554D01*
X139979211Y-110639556D01*
X140167488Y-110700731D01*
X140363017Y-110731700D01*
X140363020Y-110731700D01*
X140560980Y-110731700D01*
X140560983Y-110731700D01*
X140756512Y-110700731D01*
X140944789Y-110639556D01*
X141121178Y-110549681D01*
X141281337Y-110433320D01*
X141421320Y-110293337D01*
X141537681Y-110133178D01*
X141627556Y-109956789D01*
X141688731Y-109768512D01*
X141719700Y-109572983D01*
X141719700Y-109375017D01*
X141688731Y-109179488D01*
X141627556Y-108991211D01*
X141537681Y-108814822D01*
X141421320Y-108654663D01*
X141281337Y-108514680D01*
X141121178Y-108398319D01*
X140944793Y-108308446D01*
X140944793Y-108308445D01*
X140834860Y-108272726D01*
X140756512Y-108247269D01*
X140756508Y-108247268D01*
X140756507Y-108247268D01*
X140756503Y-108247267D01*
X140649486Y-108230317D01*
X140560983Y-108216300D01*
X140363017Y-108216300D01*
X140286116Y-108228479D01*
X140167496Y-108247267D01*
X140167492Y-108247268D01*
X140167489Y-108247268D01*
X140167488Y-108247269D01*
X140106443Y-108267103D01*
X139979206Y-108308445D01*
X139979206Y-108308446D01*
X139802825Y-108398317D01*
X139802819Y-108398321D01*
X139642670Y-108514674D01*
X139642656Y-108514686D01*
X139502686Y-108654656D01*
X139502674Y-108654670D01*
X139386321Y-108814819D01*
X139386317Y-108814825D01*
X139294423Y-108995177D01*
X139293434Y-108994673D01*
X139256620Y-109040359D01*
X139196047Y-109060522D01*
X139134189Y-109044735D01*
X139090686Y-108998012D01*
X139087782Y-108991655D01*
X139024164Y-108866798D01*
X138997681Y-108814822D01*
X138881320Y-108654663D01*
X138741337Y-108514680D01*
X138581178Y-108398319D01*
X138404793Y-108308446D01*
X138404793Y-108308445D01*
X138294860Y-108272726D01*
X138216512Y-108247269D01*
X138216508Y-108247268D01*
X138216507Y-108247268D01*
X138216503Y-108247267D01*
X138109486Y-108230317D01*
X138020983Y-108216300D01*
X137823017Y-108216300D01*
X137746116Y-108228479D01*
X137627496Y-108247267D01*
X137627492Y-108247268D01*
X137627489Y-108247268D01*
X137627488Y-108247269D01*
X137566443Y-108267103D01*
X137439206Y-108308445D01*
X137439206Y-108308446D01*
X137262825Y-108398317D01*
X137262819Y-108398321D01*
X137102670Y-108514674D01*
X137102656Y-108514686D01*
X136962686Y-108654656D01*
X136962674Y-108654670D01*
X136846321Y-108814819D01*
X136846317Y-108814825D01*
X136754423Y-108995177D01*
X136753434Y-108994673D01*
X136716620Y-109040359D01*
X136656047Y-109060522D01*
X136594189Y-109044735D01*
X136550686Y-108998012D01*
X136547782Y-108991655D01*
X136484164Y-108866798D01*
X136457681Y-108814822D01*
X136341320Y-108654663D01*
X136201337Y-108514680D01*
X136041178Y-108398319D01*
X135864793Y-108308446D01*
X135864793Y-108308445D01*
X135754860Y-108272726D01*
X135676512Y-108247269D01*
X135676508Y-108247268D01*
X135676507Y-108247268D01*
X135676503Y-108247267D01*
X135569486Y-108230317D01*
X135480983Y-108216300D01*
X135283017Y-108216300D01*
X135206116Y-108228479D01*
X135087496Y-108247267D01*
X135087492Y-108247268D01*
X135087489Y-108247268D01*
X135087488Y-108247269D01*
X135026443Y-108267103D01*
X134899206Y-108308445D01*
X134899206Y-108308446D01*
X134722825Y-108398317D01*
X134722819Y-108398321D01*
X134562670Y-108514674D01*
X134562656Y-108514686D01*
X134422686Y-108654656D01*
X134422674Y-108654670D01*
X134306321Y-108814819D01*
X134306317Y-108814825D01*
X134214423Y-108995177D01*
X134213434Y-108994673D01*
X134176620Y-109040359D01*
X134116047Y-109060522D01*
X134054189Y-109044735D01*
X134010686Y-108998012D01*
X134007782Y-108991655D01*
X133944164Y-108866798D01*
X133917681Y-108814822D01*
X133801320Y-108654663D01*
X133661337Y-108514680D01*
X133501178Y-108398319D01*
X133324793Y-108308446D01*
X133324793Y-108308445D01*
X133214860Y-108272726D01*
X133136512Y-108247269D01*
X133136508Y-108247268D01*
X133136507Y-108247268D01*
X133136503Y-108247267D01*
X133029486Y-108230317D01*
X132940983Y-108216300D01*
X132743017Y-108216300D01*
X132666116Y-108228479D01*
X132547496Y-108247267D01*
X132547492Y-108247268D01*
X132547489Y-108247268D01*
X132547488Y-108247269D01*
X132486443Y-108267103D01*
X132359206Y-108308445D01*
X132359206Y-108308446D01*
X132182825Y-108398317D01*
X132182819Y-108398321D01*
X132022670Y-108514674D01*
X132022656Y-108514686D01*
X131882686Y-108654656D01*
X131882674Y-108654670D01*
X131766321Y-108814819D01*
X131766317Y-108814825D01*
X131674423Y-108995177D01*
X131673434Y-108994673D01*
X131636620Y-109040359D01*
X131576047Y-109060522D01*
X131514189Y-109044735D01*
X131470686Y-108998012D01*
X131467782Y-108991655D01*
X131404164Y-108866798D01*
X131377681Y-108814822D01*
X131261320Y-108654663D01*
X131121337Y-108514680D01*
X130961178Y-108398319D01*
X130784793Y-108308446D01*
X130784793Y-108308445D01*
X130674860Y-108272726D01*
X130596512Y-108247269D01*
X130596508Y-108247268D01*
X130596507Y-108247268D01*
X130596503Y-108247267D01*
X130489486Y-108230317D01*
X130400983Y-108216300D01*
X130203017Y-108216300D01*
X130126116Y-108228479D01*
X130007496Y-108247267D01*
X130007492Y-108247268D01*
X130007489Y-108247268D01*
X130007488Y-108247269D01*
X129946443Y-108267103D01*
X129819206Y-108308445D01*
X129819206Y-108308446D01*
X129642825Y-108398317D01*
X129642819Y-108398321D01*
X129482670Y-108514674D01*
X129482656Y-108514686D01*
X129342686Y-108654656D01*
X129342674Y-108654670D01*
X129226321Y-108814819D01*
X129226317Y-108814825D01*
X129134423Y-108995177D01*
X129133434Y-108994673D01*
X129096620Y-109040359D01*
X129036047Y-109060522D01*
X128974189Y-109044735D01*
X128930686Y-108998012D01*
X128927782Y-108991655D01*
X128864164Y-108866798D01*
X128837681Y-108814822D01*
X128721320Y-108654663D01*
X128581337Y-108514680D01*
X128421178Y-108398319D01*
X128244793Y-108308446D01*
X128244793Y-108308445D01*
X128134860Y-108272726D01*
X128056512Y-108247269D01*
X128056508Y-108247268D01*
X128056507Y-108247268D01*
X128056503Y-108247267D01*
X127949486Y-108230317D01*
X127860983Y-108216300D01*
X127663017Y-108216300D01*
X127586116Y-108228479D01*
X127467496Y-108247267D01*
X127467492Y-108247268D01*
X127467489Y-108247268D01*
X127467488Y-108247269D01*
X127406443Y-108267103D01*
X127279206Y-108308445D01*
X127279206Y-108308446D01*
X127102825Y-108398317D01*
X127102819Y-108398321D01*
X126942670Y-108514674D01*
X126942656Y-108514686D01*
X126802686Y-108654656D01*
X126802674Y-108654670D01*
X126686321Y-108814819D01*
X126686317Y-108814825D01*
X126594423Y-108995177D01*
X126593434Y-108994673D01*
X126556620Y-109040359D01*
X126496047Y-109060522D01*
X126434189Y-109044735D01*
X126390686Y-108998012D01*
X126387782Y-108991655D01*
X126324164Y-108866798D01*
X126297681Y-108814822D01*
X126181320Y-108654663D01*
X126041337Y-108514680D01*
X125881178Y-108398319D01*
X125704793Y-108308446D01*
X125704793Y-108308445D01*
X125594860Y-108272726D01*
X125516512Y-108247269D01*
X125516508Y-108247268D01*
X125516507Y-108247268D01*
X125516503Y-108247267D01*
X125409486Y-108230317D01*
X125320983Y-108216300D01*
X125123017Y-108216300D01*
X125046116Y-108228479D01*
X124927496Y-108247267D01*
X124927492Y-108247268D01*
X124927489Y-108247268D01*
X124927488Y-108247269D01*
X124866443Y-108267103D01*
X124739206Y-108308445D01*
X124739206Y-108308446D01*
X124562825Y-108398317D01*
X124562819Y-108398321D01*
X124402670Y-108514674D01*
X124402656Y-108514686D01*
X124262686Y-108654656D01*
X124262674Y-108654670D01*
X124146321Y-108814819D01*
X124146317Y-108814825D01*
X124054423Y-108995177D01*
X124053434Y-108994673D01*
X124016620Y-109040359D01*
X123956047Y-109060522D01*
X123894189Y-109044735D01*
X123850686Y-108998012D01*
X123847782Y-108991655D01*
X123784164Y-108866798D01*
X123757681Y-108814822D01*
X123641320Y-108654663D01*
X123501337Y-108514680D01*
X123341178Y-108398319D01*
X123164793Y-108308446D01*
X123164793Y-108308445D01*
X123054860Y-108272726D01*
X122976512Y-108247269D01*
X122976508Y-108247268D01*
X122976507Y-108247268D01*
X122976503Y-108247267D01*
X122869486Y-108230317D01*
X122780983Y-108216300D01*
X122583017Y-108216300D01*
X122506116Y-108228479D01*
X122387496Y-108247267D01*
X122387492Y-108247268D01*
X122387489Y-108247268D01*
X122387488Y-108247269D01*
X122326443Y-108267103D01*
X122199206Y-108308445D01*
X122199206Y-108308446D01*
X122022825Y-108398317D01*
X122022819Y-108398321D01*
X121862670Y-108514674D01*
X121862656Y-108514686D01*
X121722686Y-108654656D01*
X121722674Y-108654670D01*
X121606321Y-108814819D01*
X121606317Y-108814825D01*
X121514423Y-108995177D01*
X121513434Y-108994673D01*
X121476620Y-109040359D01*
X121416047Y-109060522D01*
X121354189Y-109044735D01*
X121310686Y-108998012D01*
X121307782Y-108991655D01*
X121244164Y-108866798D01*
X121217681Y-108814822D01*
X121101320Y-108654663D01*
X120961337Y-108514680D01*
X120801178Y-108398319D01*
X120624793Y-108308446D01*
X120624793Y-108308445D01*
X120514860Y-108272726D01*
X120436512Y-108247269D01*
X120436508Y-108247268D01*
X120436507Y-108247268D01*
X120436503Y-108247267D01*
X120329486Y-108230317D01*
X120240983Y-108216300D01*
X120043017Y-108216300D01*
X119966116Y-108228479D01*
X119847496Y-108247267D01*
X119847492Y-108247268D01*
X119847489Y-108247268D01*
X119847488Y-108247269D01*
X119786443Y-108267103D01*
X119659206Y-108308445D01*
X119659206Y-108308446D01*
X119482825Y-108398317D01*
X119482819Y-108398321D01*
X119322670Y-108514674D01*
X119322656Y-108514686D01*
X119182686Y-108654656D01*
X119182674Y-108654670D01*
X119066321Y-108814819D01*
X119066317Y-108814825D01*
X118974423Y-108995177D01*
X118973434Y-108994673D01*
X118936620Y-109040359D01*
X118876047Y-109060522D01*
X118814189Y-109044735D01*
X118770686Y-108998012D01*
X118767782Y-108991655D01*
X118704164Y-108866798D01*
X118677681Y-108814822D01*
X118561320Y-108654663D01*
X118421337Y-108514680D01*
X118261178Y-108398319D01*
X118084793Y-108308446D01*
X118084792Y-108308445D01*
X118084789Y-108308444D01*
X118018649Y-108286953D01*
X117965953Y-108250920D01*
X117941102Y-108192115D01*
X117951988Y-108129210D01*
X117995155Y-108082176D01*
X118053663Y-108065900D01*
X119013607Y-108065900D01*
X119013608Y-108065900D01*
X119152906Y-108028575D01*
X119277798Y-107956469D01*
X120725971Y-106508296D01*
X120798077Y-106383405D01*
X120835402Y-106244106D01*
X120835402Y-106099894D01*
X120835402Y-105117179D01*
X120853388Y-105055924D01*
X120868587Y-105037064D01*
X120870471Y-105035180D01*
X120876246Y-105029405D01*
X120959167Y-104905305D01*
X121016284Y-104767413D01*
X121045402Y-104621027D01*
X121045402Y-104471773D01*
X121016284Y-104325387D01*
X121003919Y-104295535D01*
X120993245Y-104269766D01*
X120993244Y-104269764D01*
X120977589Y-104231969D01*
X121721100Y-104231969D01*
X121721100Y-104381230D01*
X121750218Y-104527615D01*
X121750219Y-104527617D01*
X121807334Y-104665504D01*
X121807338Y-104665511D01*
X121890252Y-104789600D01*
X121890258Y-104789607D01*
X121995792Y-104895141D01*
X121995799Y-104895147D01*
X122119888Y-104978061D01*
X122119895Y-104978065D01*
X122257782Y-105035180D01*
X122257784Y-105035181D01*
X122257785Y-105035181D01*
X122257787Y-105035182D01*
X122404173Y-105064300D01*
X122404176Y-105064300D01*
X122553424Y-105064300D01*
X122553427Y-105064300D01*
X122699813Y-105035182D01*
X122837705Y-104978065D01*
X122961805Y-104895144D01*
X123067344Y-104789605D01*
X123150265Y-104665505D01*
X123161921Y-104637366D01*
X123411249Y-104637366D01*
X123411249Y-104786630D01*
X123440367Y-104933015D01*
X123440368Y-104933017D01*
X123497483Y-105070904D01*
X123497487Y-105070911D01*
X123580401Y-105195000D01*
X123580407Y-105195007D01*
X123685941Y-105300541D01*
X123685948Y-105300547D01*
X123810037Y-105383461D01*
X123810044Y-105383465D01*
X123947931Y-105440580D01*
X123947933Y-105440581D01*
X123947934Y-105440581D01*
X123947936Y-105440582D01*
X124094322Y-105469700D01*
X124094325Y-105469700D01*
X124243573Y-105469700D01*
X124243576Y-105469700D01*
X124389962Y-105440582D01*
X124527854Y-105383465D01*
X124651954Y-105300544D01*
X124757493Y-105195005D01*
X124815327Y-105108450D01*
X124864311Y-105067513D01*
X124927654Y-105059557D01*
X124952890Y-105066723D01*
X124957094Y-105068464D01*
X124957095Y-105068465D01*
X124974381Y-105075625D01*
X125094982Y-105125580D01*
X125094984Y-105125581D01*
X125094985Y-105125581D01*
X125094987Y-105125582D01*
X125241373Y-105154700D01*
X125242114Y-105154700D01*
X125242486Y-105154809D01*
X125246910Y-105155245D01*
X125246827Y-105156083D01*
X125303369Y-105172686D01*
X125345175Y-105220933D01*
X125346789Y-105224641D01*
X125388734Y-105325904D01*
X125388738Y-105325911D01*
X125471652Y-105450000D01*
X125471658Y-105450007D01*
X125577192Y-105555541D01*
X125577199Y-105555547D01*
X125701288Y-105638461D01*
X125701295Y-105638465D01*
X125839182Y-105695580D01*
X125839184Y-105695581D01*
X125839185Y-105695581D01*
X125839187Y-105695582D01*
X125985573Y-105724700D01*
X125985576Y-105724700D01*
X126134824Y-105724700D01*
X126134827Y-105724700D01*
X126281213Y-105695582D01*
X126419105Y-105638465D01*
X126543205Y-105555544D01*
X126648744Y-105450005D01*
X126731665Y-105325905D01*
X126788782Y-105188013D01*
X126817900Y-105041627D01*
X126817900Y-104892373D01*
X126788782Y-104745987D01*
X126731665Y-104608095D01*
X126731661Y-104608088D01*
X126648747Y-104483999D01*
X126648741Y-104483992D01*
X126543207Y-104378458D01*
X126543200Y-104378452D01*
X126419111Y-104295538D01*
X126419104Y-104295534D01*
X126281217Y-104238419D01*
X126281215Y-104238418D01*
X126134830Y-104209300D01*
X126134827Y-104209300D01*
X126134086Y-104209300D01*
X126133713Y-104209190D01*
X126129290Y-104208755D01*
X126129372Y-104207916D01*
X126072831Y-104191314D01*
X126031025Y-104143067D01*
X126029411Y-104139359D01*
X125987465Y-104038095D01*
X125987461Y-104038088D01*
X125904547Y-103913999D01*
X125904541Y-103913992D01*
X125799007Y-103808458D01*
X125799000Y-103808452D01*
X125674911Y-103725538D01*
X125674904Y-103725534D01*
X125537017Y-103668419D01*
X125537015Y-103668418D01*
X125390630Y-103639300D01*
X125390627Y-103639300D01*
X125241373Y-103639300D01*
X125241369Y-103639300D01*
X125094984Y-103668418D01*
X125094982Y-103668419D01*
X124957095Y-103725534D01*
X124957088Y-103725538D01*
X124832999Y-103808452D01*
X124832992Y-103808458D01*
X124727455Y-103913995D01*
X124669622Y-104000549D01*
X124620636Y-104041487D01*
X124557293Y-104049443D01*
X124532058Y-104042277D01*
X124527856Y-104040536D01*
X124527854Y-104040535D01*
X124431320Y-104000549D01*
X124389966Y-103983419D01*
X124389964Y-103983418D01*
X124243579Y-103954300D01*
X124243576Y-103954300D01*
X124094322Y-103954300D01*
X124094318Y-103954300D01*
X123947933Y-103983418D01*
X123947931Y-103983419D01*
X123810044Y-104040534D01*
X123810037Y-104040538D01*
X123685948Y-104123452D01*
X123685941Y-104123458D01*
X123580407Y-104228992D01*
X123580401Y-104228999D01*
X123497487Y-104353088D01*
X123497483Y-104353096D01*
X123449908Y-104467947D01*
X123449904Y-104467961D01*
X123440367Y-104490987D01*
X123416810Y-104609413D01*
X123416805Y-104609437D01*
X123411249Y-104637366D01*
X123161921Y-104637366D01*
X123207382Y-104527613D01*
X123236500Y-104381227D01*
X123236500Y-104231973D01*
X123207382Y-104085587D01*
X123198188Y-104063392D01*
X123150265Y-103947695D01*
X123150261Y-103947688D01*
X123067347Y-103823599D01*
X123067341Y-103823592D01*
X122961807Y-103718058D01*
X122961800Y-103718052D01*
X122837711Y-103635138D01*
X122837704Y-103635134D01*
X122699817Y-103578019D01*
X122699815Y-103578018D01*
X122553430Y-103548900D01*
X122553427Y-103548900D01*
X122404173Y-103548900D01*
X122404169Y-103548900D01*
X122257784Y-103578018D01*
X122257782Y-103578019D01*
X122119895Y-103635134D01*
X122119888Y-103635138D01*
X121995799Y-103718052D01*
X121995792Y-103718058D01*
X121890258Y-103823592D01*
X121890252Y-103823599D01*
X121807338Y-103947688D01*
X121807334Y-103947695D01*
X121750219Y-104085582D01*
X121750218Y-104085584D01*
X121721100Y-104231969D01*
X120977589Y-104231969D01*
X120959167Y-104187495D01*
X120959164Y-104187491D01*
X120959163Y-104187488D01*
X120876249Y-104063399D01*
X120876243Y-104063392D01*
X120770709Y-103957858D01*
X120770702Y-103957852D01*
X120646613Y-103874938D01*
X120646606Y-103874934D01*
X120508719Y-103817819D01*
X120508717Y-103817818D01*
X120362332Y-103788700D01*
X120362329Y-103788700D01*
X120213075Y-103788700D01*
X120213071Y-103788700D01*
X120066686Y-103817818D01*
X120066684Y-103817819D01*
X119928797Y-103874934D01*
X119928790Y-103874938D01*
X119804701Y-103957852D01*
X119804694Y-103957858D01*
X119699160Y-104063392D01*
X119699154Y-104063399D01*
X119616240Y-104187488D01*
X119616236Y-104187495D01*
X119559121Y-104325382D01*
X119559120Y-104325384D01*
X119530002Y-104471769D01*
X119530002Y-104545986D01*
X119512016Y-104607241D01*
X119463769Y-104649047D01*
X119438806Y-104657109D01*
X119306662Y-104683394D01*
X119306656Y-104683396D01*
X119213197Y-104722109D01*
X119149723Y-104728934D01*
X119106892Y-104711639D01*
X119098387Y-104705956D01*
X119088939Y-104699643D01*
X119023939Y-104672719D01*
X118951051Y-104642527D01*
X118951049Y-104642526D01*
X118804664Y-104613408D01*
X118804661Y-104613408D01*
X118655407Y-104613408D01*
X118655403Y-104613408D01*
X118509018Y-104642526D01*
X118509016Y-104642527D01*
X118371129Y-104699643D01*
X118323346Y-104731570D01*
X118262421Y-104750645D01*
X118217043Y-104742038D01*
X118095704Y-104691777D01*
X118095698Y-104691775D01*
X117949313Y-104662657D01*
X117949310Y-104662657D01*
X117800056Y-104662657D01*
X117800052Y-104662657D01*
X117653667Y-104691775D01*
X117653661Y-104691777D01*
X117515786Y-104748887D01*
X117515770Y-104748895D01*
X117513813Y-104750204D01*
X117512631Y-104750573D01*
X117510871Y-104751515D01*
X117510692Y-104751181D01*
X117452889Y-104769279D01*
X117407511Y-104760672D01*
X117275417Y-104705956D01*
X117275415Y-104705955D01*
X117129030Y-104676837D01*
X117129027Y-104676837D01*
X116979773Y-104676837D01*
X116979769Y-104676837D01*
X116833384Y-104705955D01*
X116833382Y-104705956D01*
X116695495Y-104763071D01*
X116695488Y-104763075D01*
X116571399Y-104845989D01*
X116571392Y-104845995D01*
X116465858Y-104951529D01*
X116465852Y-104951536D01*
X116382938Y-105075625D01*
X116382934Y-105075632D01*
X116325819Y-105213519D01*
X116306155Y-105312374D01*
X116276564Y-105368942D01*
X116238390Y-105394944D01*
X116097098Y-105453469D01*
X116097088Y-105453474D01*
X115972999Y-105536388D01*
X115972992Y-105536394D01*
X115867458Y-105641928D01*
X115867452Y-105641935D01*
X115784538Y-105766024D01*
X115784534Y-105766031D01*
X115727419Y-105903918D01*
X115727418Y-105903920D01*
X115698300Y-106050305D01*
X115698300Y-106199566D01*
X115727418Y-106345951D01*
X115727419Y-106345953D01*
X115784534Y-106483840D01*
X115784538Y-106483847D01*
X115867452Y-106607936D01*
X115867454Y-106607939D01*
X115867456Y-106607941D01*
X115972995Y-106713480D01*
X116047100Y-106762995D01*
X116088038Y-106811980D01*
X116095994Y-106875323D01*
X116068441Y-106932912D01*
X116014128Y-106966463D01*
X115984153Y-106970500D01*
X103059779Y-106970500D01*
X102998524Y-106952514D01*
X102979664Y-106937315D01*
X102895807Y-106853458D01*
X102895800Y-106853452D01*
X102771711Y-106770538D01*
X102771704Y-106770534D01*
X102633817Y-106713419D01*
X102633815Y-106713418D01*
X102487430Y-106684300D01*
X102487427Y-106684300D01*
X102338173Y-106684300D01*
X102338169Y-106684300D01*
X102191784Y-106713418D01*
X102191782Y-106713419D01*
X102053895Y-106770534D01*
X102053888Y-106770538D01*
X101929799Y-106853452D01*
X101929792Y-106853458D01*
X101824258Y-106958992D01*
X101824252Y-106958999D01*
X101741338Y-107083088D01*
X101741334Y-107083095D01*
X101684219Y-107220982D01*
X101684218Y-107220984D01*
X101655100Y-107367369D01*
X101655100Y-107516630D01*
X101684218Y-107663015D01*
X101684219Y-107663017D01*
X101741334Y-107800904D01*
X101741338Y-107800911D01*
X101824252Y-107925000D01*
X101824258Y-107925007D01*
X101929792Y-108030541D01*
X101929799Y-108030547D01*
X101998852Y-108076687D01*
X102039791Y-108125673D01*
X102047747Y-108189016D01*
X102020194Y-108246604D01*
X101970919Y-108278646D01*
X101915550Y-108296636D01*
X101879207Y-108308445D01*
X101879206Y-108308446D01*
X101702825Y-108398317D01*
X101702819Y-108398321D01*
X101542670Y-108514674D01*
X101542656Y-108514686D01*
X101402686Y-108654656D01*
X101402674Y-108654670D01*
X101286321Y-108814819D01*
X101286317Y-108814825D01*
X101194423Y-108995177D01*
X101193434Y-108994673D01*
X101156620Y-109040359D01*
X101096047Y-109060522D01*
X101034189Y-109044735D01*
X100990686Y-108998012D01*
X100987782Y-108991655D01*
X100924164Y-108866798D01*
X100897681Y-108814822D01*
X100781320Y-108654663D01*
X100641337Y-108514680D01*
X100481178Y-108398319D01*
X100304793Y-108308446D01*
X100304793Y-108308445D01*
X100194860Y-108272726D01*
X100116512Y-108247269D01*
X100116508Y-108247268D01*
X100116507Y-108247268D01*
X100116503Y-108247267D01*
X100009486Y-108230317D01*
X99920983Y-108216300D01*
X99723017Y-108216300D01*
X99646116Y-108228479D01*
X99527496Y-108247267D01*
X99527492Y-108247268D01*
X99527489Y-108247268D01*
X99527488Y-108247269D01*
X99466443Y-108267103D01*
X99339206Y-108308445D01*
X99339206Y-108308446D01*
X99162825Y-108398317D01*
X99162819Y-108398321D01*
X99002670Y-108514674D01*
X99002656Y-108514686D01*
X98862686Y-108654656D01*
X98862674Y-108654670D01*
X98746321Y-108814819D01*
X98746317Y-108814825D01*
X98654423Y-108995177D01*
X98653434Y-108994673D01*
X98616620Y-109040359D01*
X98556047Y-109060522D01*
X98494189Y-109044735D01*
X98450686Y-108998012D01*
X98447782Y-108991655D01*
X98384164Y-108866798D01*
X98357681Y-108814822D01*
X98241320Y-108654663D01*
X98101337Y-108514680D01*
X97941178Y-108398319D01*
X97764793Y-108308446D01*
X97764793Y-108308445D01*
X97654860Y-108272726D01*
X97576512Y-108247269D01*
X97576508Y-108247268D01*
X97576507Y-108247268D01*
X97576503Y-108247267D01*
X97469486Y-108230317D01*
X97380983Y-108216300D01*
X97183017Y-108216300D01*
X97106116Y-108228479D01*
X96987496Y-108247267D01*
X96987492Y-108247268D01*
X96987489Y-108247268D01*
X96987488Y-108247269D01*
X96926443Y-108267103D01*
X96799206Y-108308445D01*
X96799206Y-108308446D01*
X96622825Y-108398317D01*
X96622819Y-108398321D01*
X96462670Y-108514674D01*
X96462656Y-108514686D01*
X96322686Y-108654656D01*
X96322674Y-108654670D01*
X96206321Y-108814819D01*
X96206317Y-108814825D01*
X96114423Y-108995177D01*
X96113434Y-108994673D01*
X96076620Y-109040359D01*
X96016047Y-109060522D01*
X95954189Y-109044735D01*
X95910686Y-108998012D01*
X95907782Y-108991655D01*
X95844164Y-108866798D01*
X95817681Y-108814822D01*
X95701320Y-108654663D01*
X95561337Y-108514680D01*
X95401178Y-108398319D01*
X95224793Y-108308446D01*
X95224793Y-108308445D01*
X95114860Y-108272726D01*
X95036512Y-108247269D01*
X95036508Y-108247268D01*
X95036507Y-108247268D01*
X95036503Y-108247267D01*
X94929486Y-108230317D01*
X94840983Y-108216300D01*
X94643017Y-108216300D01*
X94566116Y-108228479D01*
X94447496Y-108247267D01*
X94447492Y-108247268D01*
X94447489Y-108247268D01*
X94447488Y-108247269D01*
X94386443Y-108267103D01*
X94259206Y-108308445D01*
X94259206Y-108308446D01*
X94082825Y-108398317D01*
X94082819Y-108398321D01*
X93922670Y-108514674D01*
X93922656Y-108514686D01*
X93782686Y-108654656D01*
X93782674Y-108654670D01*
X93666321Y-108814819D01*
X93666317Y-108814825D01*
X93664150Y-108819079D01*
X93620315Y-108865491D01*
X93558346Y-108880836D01*
X93497918Y-108860242D01*
X93458217Y-108810248D01*
X93455472Y-108801075D01*
X93455005Y-108801221D01*
X93402091Y-108631415D01*
X93313185Y-108484346D01*
X93313180Y-108484340D01*
X93191659Y-108362819D01*
X93191653Y-108362814D01*
X93044584Y-108273908D01*
X92917470Y-108234298D01*
X92880503Y-108222779D01*
X92880502Y-108222778D01*
X92880496Y-108222777D01*
X92880498Y-108222777D01*
X92816702Y-108216981D01*
X92809203Y-108216300D01*
X92809201Y-108216300D01*
X91594790Y-108216300D01*
X91523500Y-108222778D01*
X91523494Y-108222779D01*
X91359415Y-108273908D01*
X91212346Y-108362814D01*
X91212340Y-108362819D01*
X91090819Y-108484340D01*
X91090814Y-108484346D01*
X91001908Y-108631415D01*
X90950777Y-108795502D01*
X90944300Y-108866798D01*
X90416500Y-108866798D01*
X90416500Y-104725769D01*
X97616500Y-104725769D01*
X97616500Y-104875030D01*
X97645618Y-105021415D01*
X97645619Y-105021417D01*
X97702734Y-105159304D01*
X97702738Y-105159311D01*
X97785652Y-105283400D01*
X97785658Y-105283407D01*
X97891192Y-105388941D01*
X97891199Y-105388947D01*
X98015288Y-105471861D01*
X98015295Y-105471865D01*
X98153182Y-105528980D01*
X98153184Y-105528981D01*
X98153185Y-105528981D01*
X98153187Y-105528982D01*
X98299573Y-105558100D01*
X98299576Y-105558100D01*
X98448824Y-105558100D01*
X98448827Y-105558100D01*
X98595213Y-105528982D01*
X98733105Y-105471865D01*
X98857205Y-105388944D01*
X98962744Y-105283405D01*
X99045665Y-105159305D01*
X99102782Y-105021413D01*
X99131900Y-104875027D01*
X99131900Y-104725773D01*
X99102782Y-104579387D01*
X99045665Y-104441495D01*
X99045661Y-104441488D01*
X98962747Y-104317399D01*
X98962741Y-104317392D01*
X98857207Y-104211858D01*
X98857200Y-104211852D01*
X98770687Y-104154046D01*
X98770635Y-104154012D01*
X98733106Y-104128935D01*
X98733104Y-104128934D01*
X98595217Y-104071819D01*
X98595215Y-104071818D01*
X98562794Y-104065369D01*
X106125500Y-104065369D01*
X106125500Y-104214630D01*
X106154618Y-104361015D01*
X106154619Y-104361017D01*
X106211734Y-104498904D01*
X106211738Y-104498911D01*
X106294652Y-104623000D01*
X106294658Y-104623007D01*
X106400192Y-104728541D01*
X106400199Y-104728547D01*
X106524288Y-104811461D01*
X106524295Y-104811465D01*
X106662182Y-104868580D01*
X106662184Y-104868581D01*
X106662185Y-104868581D01*
X106662187Y-104868582D01*
X106808573Y-104897700D01*
X106808576Y-104897700D01*
X106957824Y-104897700D01*
X106957827Y-104897700D01*
X107104213Y-104868582D01*
X107242105Y-104811465D01*
X107366205Y-104728544D01*
X107471744Y-104623005D01*
X107554665Y-104498905D01*
X107611782Y-104361013D01*
X107640900Y-104214627D01*
X107640900Y-104065373D01*
X107630794Y-104014569D01*
X109884700Y-104014569D01*
X109884700Y-104163830D01*
X109913818Y-104310215D01*
X109913819Y-104310217D01*
X109970934Y-104448104D01*
X109970938Y-104448111D01*
X110053852Y-104572200D01*
X110053858Y-104572207D01*
X110159392Y-104677741D01*
X110159399Y-104677747D01*
X110283488Y-104760661D01*
X110283495Y-104760665D01*
X110421382Y-104817780D01*
X110421384Y-104817781D01*
X110421385Y-104817781D01*
X110421387Y-104817782D01*
X110567773Y-104846900D01*
X110567776Y-104846900D01*
X110717024Y-104846900D01*
X110717027Y-104846900D01*
X110863413Y-104817782D01*
X111001305Y-104760665D01*
X111125405Y-104677744D01*
X111230944Y-104572205D01*
X111313865Y-104448105D01*
X111370982Y-104310213D01*
X111400100Y-104163827D01*
X111400100Y-104014573D01*
X111370982Y-103868187D01*
X111346240Y-103808456D01*
X111313865Y-103730295D01*
X111313861Y-103730288D01*
X111230947Y-103606199D01*
X111230941Y-103606192D01*
X111125407Y-103500658D01*
X111125400Y-103500652D01*
X111001311Y-103417738D01*
X111001304Y-103417734D01*
X110863417Y-103360619D01*
X110863415Y-103360618D01*
X110717030Y-103331500D01*
X110717027Y-103331500D01*
X110567773Y-103331500D01*
X110567769Y-103331500D01*
X110421384Y-103360618D01*
X110421382Y-103360619D01*
X110283495Y-103417734D01*
X110283488Y-103417738D01*
X110159399Y-103500652D01*
X110159392Y-103500658D01*
X110053858Y-103606192D01*
X110053852Y-103606199D01*
X109970938Y-103730288D01*
X109970934Y-103730295D01*
X109913819Y-103868182D01*
X109913818Y-103868184D01*
X109884700Y-104014569D01*
X107630794Y-104014569D01*
X107619514Y-103957858D01*
X107611782Y-103918987D01*
X107554665Y-103781095D01*
X107554661Y-103781088D01*
X107471747Y-103656999D01*
X107471741Y-103656992D01*
X107366207Y-103551458D01*
X107366200Y-103551452D01*
X107242111Y-103468538D01*
X107242104Y-103468534D01*
X107104217Y-103411419D01*
X107104215Y-103411418D01*
X106957830Y-103382300D01*
X106957827Y-103382300D01*
X106808573Y-103382300D01*
X106808569Y-103382300D01*
X106662184Y-103411418D01*
X106662182Y-103411419D01*
X106524295Y-103468534D01*
X106524288Y-103468538D01*
X106400199Y-103551452D01*
X106400192Y-103551458D01*
X106294658Y-103656992D01*
X106294652Y-103656999D01*
X106211738Y-103781088D01*
X106211734Y-103781095D01*
X106154619Y-103918982D01*
X106154618Y-103918984D01*
X106125500Y-104065369D01*
X98562794Y-104065369D01*
X98448830Y-104042700D01*
X98448827Y-104042700D01*
X98299573Y-104042700D01*
X98299569Y-104042700D01*
X98153184Y-104071818D01*
X98153182Y-104071819D01*
X98015295Y-104128934D01*
X98015288Y-104128938D01*
X97891199Y-104211852D01*
X97891192Y-104211858D01*
X97785658Y-104317392D01*
X97785652Y-104317399D01*
X97702738Y-104441488D01*
X97702734Y-104441495D01*
X97645619Y-104579382D01*
X97645618Y-104579384D01*
X97616500Y-104725769D01*
X90416500Y-104725769D01*
X90416500Y-98070969D01*
X93984300Y-98070969D01*
X93984300Y-98220230D01*
X94013418Y-98366615D01*
X94013419Y-98366617D01*
X94070534Y-98504504D01*
X94070538Y-98504511D01*
X94153452Y-98628600D01*
X94153458Y-98628607D01*
X94258992Y-98734141D01*
X94258999Y-98734147D01*
X94383088Y-98817061D01*
X94383095Y-98817065D01*
X94520982Y-98874180D01*
X94520984Y-98874181D01*
X94520985Y-98874181D01*
X94520987Y-98874182D01*
X94667373Y-98903300D01*
X94667376Y-98903300D01*
X94816624Y-98903300D01*
X94816627Y-98903300D01*
X94963013Y-98874182D01*
X95100905Y-98817065D01*
X95225005Y-98734144D01*
X95330544Y-98628605D01*
X95380681Y-98553569D01*
X99038900Y-98553569D01*
X99038900Y-98702830D01*
X99068018Y-98849215D01*
X99068019Y-98849217D01*
X99125134Y-98987104D01*
X99125138Y-98987111D01*
X99208052Y-99111200D01*
X99208058Y-99111207D01*
X99313592Y-99216741D01*
X99313599Y-99216747D01*
X99437688Y-99299661D01*
X99437695Y-99299665D01*
X99575582Y-99356780D01*
X99575584Y-99356781D01*
X99575585Y-99356781D01*
X99575587Y-99356782D01*
X99721973Y-99385900D01*
X99721976Y-99385900D01*
X99871224Y-99385900D01*
X99871227Y-99385900D01*
X100017613Y-99356782D01*
X100155505Y-99299665D01*
X100279605Y-99216744D01*
X100385144Y-99111205D01*
X100439171Y-99030348D01*
X106971708Y-99030348D01*
X106971708Y-99179609D01*
X107000826Y-99325994D01*
X107000827Y-99325996D01*
X107057942Y-99463883D01*
X107057946Y-99463890D01*
X107140860Y-99587979D01*
X107140866Y-99587986D01*
X107246400Y-99693520D01*
X107246407Y-99693526D01*
X107370496Y-99776440D01*
X107370503Y-99776444D01*
X107508390Y-99833559D01*
X107508392Y-99833560D01*
X107508393Y-99833560D01*
X107508395Y-99833561D01*
X107654781Y-99862679D01*
X107654784Y-99862679D01*
X107804032Y-99862679D01*
X107804035Y-99862679D01*
X107950421Y-99833561D01*
X108088313Y-99776444D01*
X108212413Y-99693523D01*
X108304803Y-99601132D01*
X108360831Y-99570539D01*
X108424509Y-99575093D01*
X108475616Y-99613351D01*
X108496038Y-99659146D01*
X108516818Y-99763615D01*
X108516819Y-99763617D01*
X108573934Y-99901504D01*
X108573938Y-99901511D01*
X108656852Y-100025600D01*
X108656858Y-100025607D01*
X108762392Y-100131141D01*
X108762399Y-100131147D01*
X108886488Y-100214061D01*
X108886495Y-100214065D01*
X109024382Y-100271180D01*
X109024384Y-100271181D01*
X109024385Y-100271181D01*
X109024387Y-100271182D01*
X109170773Y-100300300D01*
X109170776Y-100300300D01*
X109320024Y-100300300D01*
X109320027Y-100300300D01*
X109466413Y-100271182D01*
X109604305Y-100214065D01*
X109728405Y-100131144D01*
X109833944Y-100025605D01*
X109916865Y-99901505D01*
X109939565Y-99846700D01*
X109979622Y-99796993D01*
X110040195Y-99776832D01*
X110102053Y-99792620D01*
X110145555Y-99839344D01*
X110148915Y-99846701D01*
X110166080Y-99888140D01*
X110166084Y-99888148D01*
X110248998Y-100012237D01*
X110249004Y-100012244D01*
X110354538Y-100117778D01*
X110354545Y-100117784D01*
X110478634Y-100200698D01*
X110478641Y-100200702D01*
X110616528Y-100257817D01*
X110616530Y-100257818D01*
X110616531Y-100257818D01*
X110616533Y-100257819D01*
X110762919Y-100286937D01*
X110762922Y-100286937D01*
X110912170Y-100286937D01*
X110912173Y-100286937D01*
X111058559Y-100257819D01*
X111196451Y-100200702D01*
X111289328Y-100138643D01*
X111350250Y-100119567D01*
X111411816Y-100136456D01*
X111415219Y-100138644D01*
X111528088Y-100214061D01*
X111528095Y-100214065D01*
X111665982Y-100271180D01*
X111665984Y-100271181D01*
X111665985Y-100271181D01*
X111665987Y-100271182D01*
X111812373Y-100300300D01*
X111812376Y-100300300D01*
X111961624Y-100300300D01*
X111961627Y-100300300D01*
X112108013Y-100271182D01*
X112245905Y-100214065D01*
X112306657Y-100173471D01*
X112367576Y-100154396D01*
X112429142Y-100171285D01*
X112432476Y-100173427D01*
X112493295Y-100214065D01*
X112493296Y-100214065D01*
X112493297Y-100214066D01*
X112631182Y-100271180D01*
X112631184Y-100271181D01*
X112631185Y-100271181D01*
X112631187Y-100271182D01*
X112777573Y-100300300D01*
X112777576Y-100300300D01*
X112926824Y-100300300D01*
X112926827Y-100300300D01*
X113073213Y-100271182D01*
X113211105Y-100214065D01*
X113335205Y-100131144D01*
X113440744Y-100025605D01*
X113500863Y-99935629D01*
X113549847Y-99894693D01*
X113613190Y-99886737D01*
X113638420Y-99893901D01*
X113718088Y-99926901D01*
X113740132Y-99936032D01*
X113740134Y-99936033D01*
X113740135Y-99936033D01*
X113740137Y-99936034D01*
X113886523Y-99965152D01*
X113886526Y-99965152D01*
X114035774Y-99965152D01*
X114035777Y-99965152D01*
X114182163Y-99936034D01*
X114284132Y-99893796D01*
X114347604Y-99886972D01*
X114404693Y-99915547D01*
X114421694Y-99935525D01*
X114498855Y-100051004D01*
X114604392Y-100156541D01*
X114604399Y-100156547D01*
X114728488Y-100239461D01*
X114728495Y-100239465D01*
X114866382Y-100296580D01*
X114866384Y-100296581D01*
X114866385Y-100296581D01*
X114866387Y-100296582D01*
X115012773Y-100325700D01*
X115012776Y-100325700D01*
X115162024Y-100325700D01*
X115162027Y-100325700D01*
X115308413Y-100296582D01*
X115446305Y-100239465D01*
X115570405Y-100156544D01*
X115675944Y-100051005D01*
X115758865Y-99926905D01*
X115775503Y-99886737D01*
X115780646Y-99874322D01*
X115820704Y-99824613D01*
X115881277Y-99804452D01*
X115943135Y-99820240D01*
X115986637Y-99866965D01*
X115989991Y-99874311D01*
X115990735Y-99876104D01*
X115990736Y-99876107D01*
X115990738Y-99876111D01*
X116073652Y-100000200D01*
X116073658Y-100000207D01*
X116179192Y-100105741D01*
X116179199Y-100105747D01*
X116303288Y-100188661D01*
X116303295Y-100188665D01*
X116441182Y-100245780D01*
X116441184Y-100245781D01*
X116441185Y-100245781D01*
X116441187Y-100245782D01*
X116587573Y-100274900D01*
X116587576Y-100274900D01*
X116736824Y-100274900D01*
X116736827Y-100274900D01*
X116883213Y-100245782D01*
X117008843Y-100193743D01*
X117072317Y-100186919D01*
X117095559Y-100193743D01*
X117112358Y-100200702D01*
X117221185Y-100245780D01*
X117221187Y-100245781D01*
X117221188Y-100245781D01*
X117221190Y-100245782D01*
X117367576Y-100274900D01*
X117367579Y-100274900D01*
X117516827Y-100274900D01*
X117516830Y-100274900D01*
X117663216Y-100245782D01*
X117801108Y-100188665D01*
X117925208Y-100105744D01*
X118030747Y-100000205D01*
X118113668Y-99876105D01*
X118170785Y-99738213D01*
X118199903Y-99591827D01*
X118199903Y-99442573D01*
X118194850Y-99417169D01*
X120058300Y-99417169D01*
X120058300Y-99566430D01*
X120087418Y-99712815D01*
X120087419Y-99712817D01*
X120144534Y-99850704D01*
X120144538Y-99850711D01*
X120227452Y-99974800D01*
X120227458Y-99974807D01*
X120332992Y-100080341D01*
X120332999Y-100080347D01*
X120457088Y-100163261D01*
X120457095Y-100163265D01*
X120594982Y-100220380D01*
X120594984Y-100220381D01*
X120594985Y-100220381D01*
X120594987Y-100220382D01*
X120741373Y-100249500D01*
X120741376Y-100249500D01*
X120890624Y-100249500D01*
X120890627Y-100249500D01*
X121037013Y-100220382D01*
X121174905Y-100163265D01*
X121299005Y-100080344D01*
X121404544Y-99974805D01*
X121487465Y-99850705D01*
X121544582Y-99712813D01*
X121573700Y-99566427D01*
X121573700Y-99417173D01*
X121544582Y-99270787D01*
X121487465Y-99132895D01*
X121487461Y-99132888D01*
X121404547Y-99008799D01*
X121404541Y-99008792D01*
X121299007Y-98903258D01*
X121299000Y-98903252D01*
X121174911Y-98820338D01*
X121174904Y-98820334D01*
X121037017Y-98763219D01*
X121037015Y-98763218D01*
X120890630Y-98734100D01*
X120890627Y-98734100D01*
X120741373Y-98734100D01*
X120741369Y-98734100D01*
X120594984Y-98763218D01*
X120594982Y-98763219D01*
X120457095Y-98820334D01*
X120457088Y-98820338D01*
X120332999Y-98903252D01*
X120332992Y-98903258D01*
X120227458Y-99008792D01*
X120227452Y-99008799D01*
X120144538Y-99132888D01*
X120144534Y-99132895D01*
X120087419Y-99270782D01*
X120087418Y-99270784D01*
X120058300Y-99417169D01*
X118194850Y-99417169D01*
X118170785Y-99296187D01*
X118137878Y-99216744D01*
X118113668Y-99158295D01*
X118113664Y-99158288D01*
X118030750Y-99034199D01*
X118030744Y-99034192D01*
X117925210Y-98928658D01*
X117925203Y-98928652D01*
X117801114Y-98845738D01*
X117801107Y-98845734D01*
X117663220Y-98788619D01*
X117663218Y-98788618D01*
X117516833Y-98759500D01*
X117516830Y-98759500D01*
X117367576Y-98759500D01*
X117367572Y-98759500D01*
X117221188Y-98788618D01*
X117095558Y-98840656D01*
X117032083Y-98847480D01*
X117008841Y-98840655D01*
X116883217Y-98788619D01*
X116883215Y-98788618D01*
X116736830Y-98759500D01*
X116736827Y-98759500D01*
X116587573Y-98759500D01*
X116587569Y-98759500D01*
X116441184Y-98788618D01*
X116441182Y-98788619D01*
X116303295Y-98845734D01*
X116303288Y-98845738D01*
X116179199Y-98928652D01*
X116179192Y-98928658D01*
X116073658Y-99034192D01*
X116073652Y-99034199D01*
X115990738Y-99158288D01*
X115990736Y-99158293D01*
X115968953Y-99210879D01*
X115928893Y-99260587D01*
X115868319Y-99280747D01*
X115806462Y-99264957D01*
X115762961Y-99218232D01*
X115759604Y-99210879D01*
X115758865Y-99209095D01*
X115758864Y-99209093D01*
X115758863Y-99209091D01*
X115758861Y-99209088D01*
X115675947Y-99084999D01*
X115675941Y-99084992D01*
X115570407Y-98979458D01*
X115570400Y-98979452D01*
X115446311Y-98896538D01*
X115446304Y-98896534D01*
X115308417Y-98839419D01*
X115308415Y-98839418D01*
X115162030Y-98810300D01*
X115162027Y-98810300D01*
X115012773Y-98810300D01*
X115012769Y-98810300D01*
X114866385Y-98839418D01*
X114764417Y-98881655D01*
X114700942Y-98888479D01*
X114643854Y-98859902D01*
X114626857Y-98839930D01*
X114549694Y-98724447D01*
X114444155Y-98618908D01*
X114444153Y-98618906D01*
X114444150Y-98618904D01*
X114320061Y-98535990D01*
X114320054Y-98535986D01*
X114182167Y-98478871D01*
X114182165Y-98478870D01*
X114035780Y-98449752D01*
X114035777Y-98449752D01*
X113886523Y-98449752D01*
X113886519Y-98449752D01*
X113740134Y-98478870D01*
X113740132Y-98478871D01*
X113602245Y-98535986D01*
X113602238Y-98535990D01*
X113478149Y-98618904D01*
X113478142Y-98618910D01*
X113372605Y-98724447D01*
X113312487Y-98814420D01*
X113263500Y-98855358D01*
X113200158Y-98863314D01*
X113174923Y-98856148D01*
X113158190Y-98849217D01*
X113135758Y-98839925D01*
X113073217Y-98814019D01*
X113073215Y-98814018D01*
X112926830Y-98784900D01*
X112926827Y-98784900D01*
X112777573Y-98784900D01*
X112777569Y-98784900D01*
X112631184Y-98814018D01*
X112631182Y-98814019D01*
X112493294Y-98871135D01*
X112432546Y-98911726D01*
X112371622Y-98930802D01*
X112310056Y-98913912D01*
X112306654Y-98911726D01*
X112245905Y-98871135D01*
X112108017Y-98814019D01*
X112108015Y-98814018D01*
X111961630Y-98784900D01*
X111961627Y-98784900D01*
X111812373Y-98784900D01*
X111812369Y-98784900D01*
X111665984Y-98814018D01*
X111665982Y-98814019D01*
X111528095Y-98871134D01*
X111435218Y-98933193D01*
X111374294Y-98952269D01*
X111312728Y-98935379D01*
X111309326Y-98933193D01*
X111291919Y-98921562D01*
X111196451Y-98857772D01*
X111196449Y-98857771D01*
X111196450Y-98857771D01*
X111058563Y-98800656D01*
X111058561Y-98800655D01*
X110912176Y-98771537D01*
X110912173Y-98771537D01*
X110762919Y-98771537D01*
X110762915Y-98771537D01*
X110616530Y-98800655D01*
X110616528Y-98800656D01*
X110478641Y-98857771D01*
X110478634Y-98857775D01*
X110354545Y-98940689D01*
X110354538Y-98940695D01*
X110249004Y-99046229D01*
X110248998Y-99046236D01*
X110166084Y-99170325D01*
X110166080Y-99170333D01*
X110143380Y-99225135D01*
X110103321Y-99274844D01*
X110042747Y-99295004D01*
X109980890Y-99279215D01*
X109937389Y-99232490D01*
X109934030Y-99225134D01*
X109916866Y-99183698D01*
X109916865Y-99183695D01*
X109916863Y-99183692D01*
X109916861Y-99183688D01*
X109833947Y-99059599D01*
X109833941Y-99059592D01*
X109728407Y-98954058D01*
X109728400Y-98954052D01*
X109604311Y-98871138D01*
X109604304Y-98871134D01*
X109466417Y-98814019D01*
X109466415Y-98814018D01*
X109320030Y-98784900D01*
X109320027Y-98784900D01*
X109170773Y-98784900D01*
X109170769Y-98784900D01*
X109024384Y-98814018D01*
X109024382Y-98814019D01*
X108886495Y-98871134D01*
X108886488Y-98871138D01*
X108762399Y-98954052D01*
X108670007Y-99046444D01*
X108613975Y-99077039D01*
X108550297Y-99072484D01*
X108499190Y-99034226D01*
X108478769Y-98988431D01*
X108457990Y-98883966D01*
X108453936Y-98874180D01*
X108400873Y-98746074D01*
X108400869Y-98746067D01*
X108317955Y-98621978D01*
X108317949Y-98621971D01*
X108212415Y-98516437D01*
X108212408Y-98516431D01*
X108088319Y-98433517D01*
X108088312Y-98433513D01*
X107950425Y-98376398D01*
X107950423Y-98376397D01*
X107804038Y-98347279D01*
X107804035Y-98347279D01*
X107654781Y-98347279D01*
X107654777Y-98347279D01*
X107508392Y-98376397D01*
X107508390Y-98376398D01*
X107370503Y-98433513D01*
X107370496Y-98433517D01*
X107246407Y-98516431D01*
X107246400Y-98516437D01*
X107140866Y-98621971D01*
X107140860Y-98621978D01*
X107057946Y-98746067D01*
X107057942Y-98746074D01*
X107000827Y-98883961D01*
X107000826Y-98883963D01*
X106971708Y-99030348D01*
X100439171Y-99030348D01*
X100468065Y-98987105D01*
X100525182Y-98849213D01*
X100554300Y-98702827D01*
X100554300Y-98553573D01*
X100525182Y-98407187D01*
X100468065Y-98269295D01*
X100468061Y-98269288D01*
X100385147Y-98145199D01*
X100385141Y-98145192D01*
X100279607Y-98039658D01*
X100279600Y-98039652D01*
X100155511Y-97956738D01*
X100155504Y-97956734D01*
X100017617Y-97899619D01*
X100017615Y-97899618D01*
X99871230Y-97870500D01*
X99871227Y-97870500D01*
X99721973Y-97870500D01*
X99721969Y-97870500D01*
X99575584Y-97899618D01*
X99575582Y-97899619D01*
X99437695Y-97956734D01*
X99437688Y-97956738D01*
X99313599Y-98039652D01*
X99313592Y-98039658D01*
X99208058Y-98145192D01*
X99208052Y-98145199D01*
X99125138Y-98269288D01*
X99125134Y-98269295D01*
X99068019Y-98407182D01*
X99068018Y-98407184D01*
X99038900Y-98553569D01*
X95380681Y-98553569D01*
X95413465Y-98504505D01*
X95422497Y-98482700D01*
X95470579Y-98366621D01*
X95470581Y-98366615D01*
X95470580Y-98366615D01*
X95470582Y-98366613D01*
X95499700Y-98220227D01*
X95499700Y-98070973D01*
X95470582Y-97924587D01*
X95460239Y-97899618D01*
X95413465Y-97786695D01*
X95413461Y-97786688D01*
X95360718Y-97707753D01*
X95330547Y-97662599D01*
X95330541Y-97662592D01*
X95318318Y-97650369D01*
X104220500Y-97650369D01*
X104220500Y-97799630D01*
X104249618Y-97946015D01*
X104249619Y-97946017D01*
X104306734Y-98083904D01*
X104306738Y-98083911D01*
X104389652Y-98208000D01*
X104389658Y-98208007D01*
X104495192Y-98313541D01*
X104495199Y-98313547D01*
X104619288Y-98396461D01*
X104619295Y-98396465D01*
X104757182Y-98453580D01*
X104757184Y-98453581D01*
X104757185Y-98453581D01*
X104757187Y-98453582D01*
X104903573Y-98482700D01*
X104903576Y-98482700D01*
X105052824Y-98482700D01*
X105052827Y-98482700D01*
X105199213Y-98453582D01*
X105337105Y-98396465D01*
X105461205Y-98313544D01*
X105566744Y-98208005D01*
X105649665Y-98083905D01*
X105706782Y-97946013D01*
X105735900Y-97799627D01*
X105735900Y-97650373D01*
X105718997Y-97565398D01*
X105711700Y-97528711D01*
X105710269Y-97521518D01*
X105708409Y-97512169D01*
X109224300Y-97512169D01*
X109224300Y-97661430D01*
X109253418Y-97807815D01*
X109253419Y-97807817D01*
X109310534Y-97945704D01*
X109310538Y-97945711D01*
X109393452Y-98069800D01*
X109393458Y-98069807D01*
X109498992Y-98175341D01*
X109498999Y-98175347D01*
X109623088Y-98258261D01*
X109623095Y-98258265D01*
X109760982Y-98315380D01*
X109760984Y-98315381D01*
X109760985Y-98315381D01*
X109760987Y-98315382D01*
X109907373Y-98344500D01*
X109907376Y-98344500D01*
X110056624Y-98344500D01*
X110056627Y-98344500D01*
X110203013Y-98315382D01*
X110340905Y-98258265D01*
X110465005Y-98175344D01*
X110522000Y-98118349D01*
X117990720Y-98118349D01*
X117990720Y-98267610D01*
X118019838Y-98413995D01*
X118019839Y-98413997D01*
X118076954Y-98551884D01*
X118076958Y-98551891D01*
X118159872Y-98675980D01*
X118159878Y-98675987D01*
X118265412Y-98781521D01*
X118265419Y-98781527D01*
X118389508Y-98864441D01*
X118389515Y-98864445D01*
X118527402Y-98921560D01*
X118527404Y-98921561D01*
X118527405Y-98921561D01*
X118527407Y-98921562D01*
X118673793Y-98950680D01*
X118673796Y-98950680D01*
X118823044Y-98950680D01*
X118823047Y-98950680D01*
X118969433Y-98921562D01*
X119107325Y-98864445D01*
X119231425Y-98781524D01*
X119231431Y-98781517D01*
X119235727Y-98777993D01*
X119236545Y-98778990D01*
X119286868Y-98751503D01*
X119333068Y-98751087D01*
X119432801Y-98770925D01*
X119432804Y-98770925D01*
X119582052Y-98770925D01*
X119582055Y-98770925D01*
X119728441Y-98741807D01*
X119866333Y-98684690D01*
X119990433Y-98601769D01*
X120095972Y-98496230D01*
X120178893Y-98372130D01*
X120236010Y-98234238D01*
X120265128Y-98087852D01*
X120265128Y-97938598D01*
X120236010Y-97792212D01*
X120178893Y-97654320D01*
X120178889Y-97654313D01*
X120095975Y-97530224D01*
X120095969Y-97530217D01*
X119990435Y-97424683D01*
X119990428Y-97424677D01*
X119866339Y-97341763D01*
X119866332Y-97341759D01*
X119728445Y-97284644D01*
X119728443Y-97284643D01*
X119582058Y-97255525D01*
X119582055Y-97255525D01*
X119432801Y-97255525D01*
X119432797Y-97255525D01*
X119286412Y-97284643D01*
X119286410Y-97284644D01*
X119148523Y-97341759D01*
X119148516Y-97341763D01*
X119024425Y-97424679D01*
X119020115Y-97428216D01*
X119019299Y-97427222D01*
X118968945Y-97454708D01*
X118922774Y-97455117D01*
X118823050Y-97435280D01*
X118823047Y-97435280D01*
X118673793Y-97435280D01*
X118673789Y-97435280D01*
X118527404Y-97464398D01*
X118527402Y-97464399D01*
X118389515Y-97521514D01*
X118389508Y-97521518D01*
X118265419Y-97604432D01*
X118265412Y-97604438D01*
X118159878Y-97709972D01*
X118159872Y-97709979D01*
X118076958Y-97834068D01*
X118076954Y-97834075D01*
X118019839Y-97971962D01*
X118019838Y-97971964D01*
X117990720Y-98118349D01*
X110522000Y-98118349D01*
X110570544Y-98069805D01*
X110653465Y-97945705D01*
X110710582Y-97807813D01*
X110739700Y-97661427D01*
X110739700Y-97512173D01*
X110710582Y-97365787D01*
X110653465Y-97227895D01*
X110653461Y-97227888D01*
X110570547Y-97103799D01*
X110570541Y-97103792D01*
X110465007Y-96998258D01*
X110465000Y-96998252D01*
X110340911Y-96915338D01*
X110340904Y-96915334D01*
X110203017Y-96858219D01*
X110203015Y-96858218D01*
X110056630Y-96829100D01*
X110056627Y-96829100D01*
X109907373Y-96829100D01*
X109907369Y-96829100D01*
X109760984Y-96858218D01*
X109760982Y-96858219D01*
X109623095Y-96915334D01*
X109623088Y-96915338D01*
X109498999Y-96998252D01*
X109498992Y-96998258D01*
X109393458Y-97103792D01*
X109393452Y-97103799D01*
X109310538Y-97227888D01*
X109310534Y-97227895D01*
X109253419Y-97365782D01*
X109253418Y-97365784D01*
X109224300Y-97512169D01*
X105708409Y-97512169D01*
X105706782Y-97503987D01*
X105678322Y-97435280D01*
X105649665Y-97366095D01*
X105649661Y-97366088D01*
X105566747Y-97241999D01*
X105566741Y-97241992D01*
X105461207Y-97136458D01*
X105461200Y-97136452D01*
X105337111Y-97053538D01*
X105337104Y-97053534D01*
X105199217Y-96996419D01*
X105199215Y-96996418D01*
X105052830Y-96967300D01*
X105052827Y-96967300D01*
X104903573Y-96967300D01*
X104903569Y-96967300D01*
X104757184Y-96996418D01*
X104757182Y-96996419D01*
X104619295Y-97053534D01*
X104619288Y-97053538D01*
X104495199Y-97136452D01*
X104495192Y-97136458D01*
X104389658Y-97241992D01*
X104389652Y-97241999D01*
X104306738Y-97366088D01*
X104306734Y-97366095D01*
X104249619Y-97503982D01*
X104249618Y-97503984D01*
X104220500Y-97650369D01*
X95318318Y-97650369D01*
X95225007Y-97557058D01*
X95225000Y-97557052D01*
X95100911Y-97474138D01*
X95100904Y-97474134D01*
X94963017Y-97417019D01*
X94963015Y-97417018D01*
X94816630Y-97387900D01*
X94816627Y-97387900D01*
X94667373Y-97387900D01*
X94667369Y-97387900D01*
X94520984Y-97417018D01*
X94520982Y-97417019D01*
X94383095Y-97474134D01*
X94383088Y-97474138D01*
X94258999Y-97557052D01*
X94258992Y-97557058D01*
X94153458Y-97662592D01*
X94153452Y-97662599D01*
X94070538Y-97786688D01*
X94070534Y-97786695D01*
X94013419Y-97924582D01*
X94013418Y-97924584D01*
X93984300Y-98070969D01*
X90416500Y-98070969D01*
X90416500Y-94135019D01*
X90944300Y-94135019D01*
X90944300Y-94332980D01*
X90975267Y-94528503D01*
X90975268Y-94528507D01*
X90975269Y-94528512D01*
X91036444Y-94716789D01*
X91126319Y-94893178D01*
X91242680Y-95053337D01*
X91382663Y-95193320D01*
X91542822Y-95309681D01*
X91719206Y-95399553D01*
X91719206Y-95399554D01*
X91719208Y-95399554D01*
X91719211Y-95399556D01*
X91907488Y-95460731D01*
X92103017Y-95491700D01*
X92103020Y-95491700D01*
X92300980Y-95491700D01*
X92300983Y-95491700D01*
X92496512Y-95460731D01*
X92684789Y-95399556D01*
X92861178Y-95309681D01*
X93021337Y-95193320D01*
X93161320Y-95053337D01*
X93277681Y-94893178D01*
X93367556Y-94716789D01*
X93369577Y-94712823D01*
X93370567Y-94713327D01*
X93407371Y-94667646D01*
X93467942Y-94647478D01*
X93529801Y-94663258D01*
X93573309Y-94709977D01*
X93576216Y-94716342D01*
X93654029Y-94869057D01*
X93666319Y-94893178D01*
X93782680Y-95053337D01*
X93922663Y-95193320D01*
X94082822Y-95309681D01*
X94259206Y-95399553D01*
X94259206Y-95399554D01*
X94259208Y-95399554D01*
X94259211Y-95399556D01*
X94447488Y-95460731D01*
X94643017Y-95491700D01*
X94643020Y-95491700D01*
X94840980Y-95491700D01*
X94840983Y-95491700D01*
X95036512Y-95460731D01*
X95224789Y-95399556D01*
X95401178Y-95309681D01*
X95561337Y-95193320D01*
X95701320Y-95053337D01*
X95817681Y-94893178D01*
X95907556Y-94716789D01*
X95909577Y-94712823D01*
X95910567Y-94713327D01*
X95947371Y-94667646D01*
X96007942Y-94647478D01*
X96069801Y-94663258D01*
X96113309Y-94709977D01*
X96116216Y-94716342D01*
X96194029Y-94869057D01*
X96206319Y-94893178D01*
X96322680Y-95053337D01*
X96462663Y-95193320D01*
X96622822Y-95309681D01*
X96799206Y-95399553D01*
X96799206Y-95399554D01*
X96799208Y-95399554D01*
X96799211Y-95399556D01*
X96987488Y-95460731D01*
X97183017Y-95491700D01*
X97183020Y-95491700D01*
X97380980Y-95491700D01*
X97380983Y-95491700D01*
X97576512Y-95460731D01*
X97764789Y-95399556D01*
X97941178Y-95309681D01*
X98101337Y-95193320D01*
X98241320Y-95053337D01*
X98357681Y-94893178D01*
X98447556Y-94716789D01*
X98449577Y-94712823D01*
X98450567Y-94713327D01*
X98487371Y-94667646D01*
X98547942Y-94647478D01*
X98609801Y-94663258D01*
X98653309Y-94709977D01*
X98656216Y-94716342D01*
X98734029Y-94869057D01*
X98746319Y-94893178D01*
X98862680Y-95053337D01*
X99002663Y-95193320D01*
X99162822Y-95309681D01*
X99339206Y-95399553D01*
X99339206Y-95399554D01*
X99339208Y-95399554D01*
X99339211Y-95399556D01*
X99527488Y-95460731D01*
X99723017Y-95491700D01*
X99723020Y-95491700D01*
X99920980Y-95491700D01*
X99920983Y-95491700D01*
X100116512Y-95460731D01*
X100304789Y-95399556D01*
X100481178Y-95309681D01*
X100641337Y-95193320D01*
X100781320Y-95053337D01*
X100897681Y-94893178D01*
X100987556Y-94716789D01*
X100989577Y-94712823D01*
X100990567Y-94713327D01*
X101027371Y-94667646D01*
X101087942Y-94647478D01*
X101149801Y-94663258D01*
X101193309Y-94709977D01*
X101196216Y-94716342D01*
X101274029Y-94869057D01*
X101286319Y-94893178D01*
X101402680Y-95053337D01*
X101542663Y-95193320D01*
X101702822Y-95309681D01*
X101879206Y-95399553D01*
X101879206Y-95399554D01*
X101879208Y-95399554D01*
X101879211Y-95399556D01*
X102067488Y-95460731D01*
X102263017Y-95491700D01*
X102263020Y-95491700D01*
X102460980Y-95491700D01*
X102460983Y-95491700D01*
X102656512Y-95460731D01*
X102844789Y-95399556D01*
X103021178Y-95309681D01*
X103181337Y-95193320D01*
X103321320Y-95053337D01*
X103437681Y-94893178D01*
X103527556Y-94716789D01*
X103529577Y-94712823D01*
X103530567Y-94713327D01*
X103567371Y-94667646D01*
X103627942Y-94647478D01*
X103689801Y-94663258D01*
X103733309Y-94709977D01*
X103736216Y-94716342D01*
X103814029Y-94869057D01*
X103826319Y-94893178D01*
X103942680Y-95053337D01*
X104082663Y-95193320D01*
X104242822Y-95309681D01*
X104419206Y-95399553D01*
X104419206Y-95399554D01*
X104419208Y-95399554D01*
X104419211Y-95399556D01*
X104607488Y-95460731D01*
X104803017Y-95491700D01*
X104803020Y-95491700D01*
X105000980Y-95491700D01*
X105000983Y-95491700D01*
X105196512Y-95460731D01*
X105384789Y-95399556D01*
X105561178Y-95309681D01*
X105721337Y-95193320D01*
X105861320Y-95053337D01*
X105977681Y-94893178D01*
X106067556Y-94716789D01*
X106069577Y-94712823D01*
X106070567Y-94713327D01*
X106107371Y-94667646D01*
X106167942Y-94647478D01*
X106229801Y-94663258D01*
X106273309Y-94709977D01*
X106276216Y-94716342D01*
X106354029Y-94869057D01*
X106366319Y-94893178D01*
X106482680Y-95053337D01*
X106622663Y-95193320D01*
X106782822Y-95309681D01*
X106959206Y-95399553D01*
X106959206Y-95399554D01*
X106959208Y-95399554D01*
X106959211Y-95399556D01*
X107147488Y-95460731D01*
X107343017Y-95491700D01*
X107343020Y-95491700D01*
X107540980Y-95491700D01*
X107540983Y-95491700D01*
X107736512Y-95460731D01*
X107924789Y-95399556D01*
X108101178Y-95309681D01*
X108261337Y-95193320D01*
X108401320Y-95053337D01*
X108517681Y-94893178D01*
X108607556Y-94716789D01*
X108609577Y-94712823D01*
X108610567Y-94713327D01*
X108647371Y-94667646D01*
X108707942Y-94647478D01*
X108769801Y-94663258D01*
X108813309Y-94709977D01*
X108816216Y-94716342D01*
X108894029Y-94869057D01*
X108906319Y-94893178D01*
X109022680Y-95053337D01*
X109162663Y-95193320D01*
X109322822Y-95309681D01*
X109499206Y-95399553D01*
X109499206Y-95399554D01*
X109499208Y-95399554D01*
X109499211Y-95399556D01*
X109687488Y-95460731D01*
X109883017Y-95491700D01*
X109883020Y-95491700D01*
X110080980Y-95491700D01*
X110080983Y-95491700D01*
X110276512Y-95460731D01*
X110464789Y-95399556D01*
X110641178Y-95309681D01*
X110801337Y-95193320D01*
X110941320Y-95053337D01*
X111057681Y-94893178D01*
X111147556Y-94716789D01*
X111149577Y-94712823D01*
X111150567Y-94713327D01*
X111187371Y-94667646D01*
X111247942Y-94647478D01*
X111309801Y-94663258D01*
X111353309Y-94709977D01*
X111356216Y-94716342D01*
X111434029Y-94869057D01*
X111446319Y-94893178D01*
X111562680Y-95053337D01*
X111702663Y-95193320D01*
X111862822Y-95309681D01*
X112039206Y-95399553D01*
X112039206Y-95399554D01*
X112039208Y-95399554D01*
X112039211Y-95399556D01*
X112227488Y-95460731D01*
X112423017Y-95491700D01*
X112423020Y-95491700D01*
X112620980Y-95491700D01*
X112620983Y-95491700D01*
X112816512Y-95460731D01*
X113004789Y-95399556D01*
X113181178Y-95309681D01*
X113341337Y-95193320D01*
X113481320Y-95053337D01*
X113597681Y-94893178D01*
X113687556Y-94716789D01*
X113689577Y-94712823D01*
X113690567Y-94713327D01*
X113727371Y-94667646D01*
X113787942Y-94647478D01*
X113849801Y-94663258D01*
X113893309Y-94709977D01*
X113896216Y-94716342D01*
X113974029Y-94869057D01*
X113986319Y-94893178D01*
X114102680Y-95053337D01*
X114242663Y-95193320D01*
X114402822Y-95309681D01*
X114579206Y-95399553D01*
X114579206Y-95399554D01*
X114579208Y-95399554D01*
X114579211Y-95399556D01*
X114767488Y-95460731D01*
X114963017Y-95491700D01*
X114963020Y-95491700D01*
X115160980Y-95491700D01*
X115160983Y-95491700D01*
X115356512Y-95460731D01*
X115544789Y-95399556D01*
X115721178Y-95309681D01*
X115881337Y-95193320D01*
X116021320Y-95053337D01*
X116137681Y-94893178D01*
X116227556Y-94716789D01*
X116229577Y-94712823D01*
X116230567Y-94713327D01*
X116267371Y-94667646D01*
X116327942Y-94647478D01*
X116389801Y-94663258D01*
X116433309Y-94709977D01*
X116436216Y-94716342D01*
X116514029Y-94869057D01*
X116526319Y-94893178D01*
X116642680Y-95053337D01*
X116782663Y-95193320D01*
X116942822Y-95309681D01*
X116942826Y-95309683D01*
X116942829Y-95309685D01*
X116984975Y-95331159D01*
X117025987Y-95352055D01*
X117072400Y-95395889D01*
X117087851Y-95453006D01*
X117087851Y-95600279D01*
X117116969Y-95746664D01*
X117116970Y-95746666D01*
X117174085Y-95884553D01*
X117174089Y-95884560D01*
X117257003Y-96008649D01*
X117257009Y-96008656D01*
X117362543Y-96114190D01*
X117362550Y-96114196D01*
X117486639Y-96197110D01*
X117486646Y-96197114D01*
X117624533Y-96254229D01*
X117624535Y-96254230D01*
X117624536Y-96254230D01*
X117624538Y-96254231D01*
X117770924Y-96283349D01*
X117770927Y-96283349D01*
X117920175Y-96283349D01*
X117920178Y-96283349D01*
X118066564Y-96254231D01*
X118204456Y-96197114D01*
X118328556Y-96114193D01*
X118434095Y-96008654D01*
X118517016Y-95884554D01*
X118574133Y-95746662D01*
X118603251Y-95600276D01*
X118603251Y-95451022D01*
X118574133Y-95304636D01*
X118574132Y-95304633D01*
X118574130Y-95304627D01*
X118525748Y-95187822D01*
X118518923Y-95124347D01*
X118547499Y-95067259D01*
X118550311Y-95064346D01*
X118551771Y-95062885D01*
X118561320Y-95053337D01*
X118677681Y-94893178D01*
X118747312Y-94756519D01*
X118791146Y-94710108D01*
X118853114Y-94694762D01*
X118913542Y-94715355D01*
X118949213Y-94756521D01*
X119030138Y-94915345D01*
X119030142Y-94915351D01*
X119062524Y-94959922D01*
X119742000Y-94280446D01*
X119742000Y-94286661D01*
X119769259Y-94388394D01*
X119821920Y-94479606D01*
X119896394Y-94554080D01*
X119987606Y-94606741D01*
X120089339Y-94634000D01*
X120095553Y-94634000D01*
X119416076Y-95313474D01*
X119416077Y-95313475D01*
X119460643Y-95345855D01*
X119460645Y-95345856D01*
X119547579Y-95390150D01*
X119593992Y-95433984D01*
X119609339Y-95495953D01*
X119588747Y-95556381D01*
X119576259Y-95571217D01*
X119477252Y-95670224D01*
X119394338Y-95794313D01*
X119394334Y-95794320D01*
X119337219Y-95932207D01*
X119337218Y-95932209D01*
X119308100Y-96078594D01*
X119308100Y-96227855D01*
X119337218Y-96374240D01*
X119337219Y-96374242D01*
X119394334Y-96512129D01*
X119394338Y-96512136D01*
X119477252Y-96636225D01*
X119477258Y-96636232D01*
X119582792Y-96741766D01*
X119582799Y-96741772D01*
X119706888Y-96824686D01*
X119706895Y-96824690D01*
X119844782Y-96881805D01*
X119844784Y-96881806D01*
X119844785Y-96881806D01*
X119844787Y-96881807D01*
X119991173Y-96910925D01*
X119991176Y-96910925D01*
X120140424Y-96910925D01*
X120140427Y-96910925D01*
X120286813Y-96881807D01*
X120424705Y-96824690D01*
X120548805Y-96741769D01*
X120650367Y-96640207D01*
X121980515Y-96640207D01*
X121980515Y-96789468D01*
X122009633Y-96935853D01*
X122009634Y-96935855D01*
X122066749Y-97073742D01*
X122066753Y-97073749D01*
X122149667Y-97197838D01*
X122149673Y-97197845D01*
X122255207Y-97303379D01*
X122255214Y-97303385D01*
X122379303Y-97386299D01*
X122379310Y-97386303D01*
X122517197Y-97443418D01*
X122517199Y-97443419D01*
X122517200Y-97443419D01*
X122517202Y-97443420D01*
X122663588Y-97472538D01*
X122663591Y-97472538D01*
X122812839Y-97472538D01*
X122812842Y-97472538D01*
X122812845Y-97472537D01*
X122812848Y-97472537D01*
X122819826Y-97471149D01*
X122883413Y-97476837D01*
X122933830Y-97516000D01*
X122941855Y-97528863D01*
X122943810Y-97532522D01*
X123026727Y-97656615D01*
X123026733Y-97656622D01*
X123132267Y-97762156D01*
X123132274Y-97762162D01*
X123256363Y-97845076D01*
X123256370Y-97845080D01*
X123394257Y-97902195D01*
X123394259Y-97902196D01*
X123394260Y-97902196D01*
X123394262Y-97902197D01*
X123540648Y-97931315D01*
X123540651Y-97931315D01*
X123689900Y-97931315D01*
X123689902Y-97931315D01*
X123692087Y-97930880D01*
X123693255Y-97930984D01*
X123695446Y-97930769D01*
X123695486Y-97931184D01*
X123755673Y-97936567D01*
X123794312Y-97961886D01*
X123864197Y-98031771D01*
X123864199Y-98031772D01*
X123988288Y-98114686D01*
X123988295Y-98114690D01*
X124126182Y-98171805D01*
X124126184Y-98171806D01*
X124126185Y-98171806D01*
X124126187Y-98171807D01*
X124272573Y-98200925D01*
X124272576Y-98200925D01*
X124421824Y-98200925D01*
X124421827Y-98200925D01*
X124568213Y-98171807D01*
X124706105Y-98114690D01*
X124830205Y-98031769D01*
X124935744Y-97926230D01*
X125018665Y-97802130D01*
X125075782Y-97664238D01*
X125104900Y-97517852D01*
X125104900Y-97368598D01*
X125075782Y-97222212D01*
X125018665Y-97084320D01*
X125018661Y-97084313D01*
X124935747Y-96960224D01*
X124935741Y-96960217D01*
X124830207Y-96854683D01*
X124830200Y-96854677D01*
X124706111Y-96771763D01*
X124706104Y-96771759D01*
X124568217Y-96714644D01*
X124568215Y-96714643D01*
X124421830Y-96685525D01*
X124421827Y-96685525D01*
X124272573Y-96685525D01*
X124272567Y-96685525D01*
X124270380Y-96685961D01*
X124269211Y-96685856D01*
X124267033Y-96686071D01*
X124266992Y-96685657D01*
X124206793Y-96680270D01*
X124168162Y-96654953D01*
X124098282Y-96585073D01*
X124098275Y-96585067D01*
X123974186Y-96502153D01*
X123974179Y-96502149D01*
X123836292Y-96445034D01*
X123836290Y-96445033D01*
X123689905Y-96415915D01*
X123689902Y-96415915D01*
X123540648Y-96415915D01*
X123540646Y-96415915D01*
X123540634Y-96415916D01*
X123533653Y-96417305D01*
X123470067Y-96411611D01*
X123419654Y-96372443D01*
X123411637Y-96359594D01*
X123409677Y-96355928D01*
X123326762Y-96231837D01*
X123326756Y-96231830D01*
X123221222Y-96126296D01*
X123221215Y-96126290D01*
X123097126Y-96043376D01*
X123097119Y-96043372D01*
X122959232Y-95986257D01*
X122959230Y-95986256D01*
X122812845Y-95957138D01*
X122812842Y-95957138D01*
X122663588Y-95957138D01*
X122663584Y-95957138D01*
X122517199Y-95986256D01*
X122517197Y-95986257D01*
X122379310Y-96043372D01*
X122379303Y-96043376D01*
X122255214Y-96126290D01*
X122255207Y-96126296D01*
X122149673Y-96231830D01*
X122149667Y-96231837D01*
X122066753Y-96355926D01*
X122066749Y-96355933D01*
X122009634Y-96493820D01*
X122009633Y-96493822D01*
X121980515Y-96640207D01*
X120650367Y-96640207D01*
X120654344Y-96636230D01*
X120737265Y-96512130D01*
X120794382Y-96374238D01*
X120823500Y-96227852D01*
X120823500Y-96078598D01*
X120794382Y-95932212D01*
X120737265Y-95794320D01*
X120737261Y-95794313D01*
X120654347Y-95670224D01*
X120654341Y-95670217D01*
X120606675Y-95622551D01*
X120576079Y-95566520D01*
X120580634Y-95502842D01*
X120618892Y-95451735D01*
X120637301Y-95441251D01*
X120637060Y-95440778D01*
X120823347Y-95345861D01*
X120823347Y-95345860D01*
X120867921Y-95313474D01*
X120867922Y-95313474D01*
X120188447Y-94634000D01*
X120194661Y-94634000D01*
X120296394Y-94606741D01*
X120387606Y-94554080D01*
X120462080Y-94479606D01*
X120514741Y-94388394D01*
X120542000Y-94286661D01*
X120542000Y-94280447D01*
X121221474Y-94959922D01*
X121221474Y-94959921D01*
X121253860Y-94915347D01*
X121253861Y-94915347D01*
X121334786Y-94756521D01*
X121378620Y-94710108D01*
X121440589Y-94694762D01*
X121501017Y-94715354D01*
X121536688Y-94756520D01*
X121606319Y-94893178D01*
X121722680Y-95053337D01*
X121862663Y-95193320D01*
X122022822Y-95309681D01*
X122199206Y-95399553D01*
X122199206Y-95399554D01*
X122199208Y-95399554D01*
X122199211Y-95399556D01*
X122387488Y-95460731D01*
X122583017Y-95491700D01*
X122583020Y-95491700D01*
X122780980Y-95491700D01*
X122780983Y-95491700D01*
X122976512Y-95460731D01*
X123164789Y-95399556D01*
X123341178Y-95309681D01*
X123501337Y-95193320D01*
X123641320Y-95053337D01*
X123757681Y-94893178D01*
X123847556Y-94716789D01*
X123849577Y-94712823D01*
X123850567Y-94713327D01*
X123887371Y-94667646D01*
X123947942Y-94647478D01*
X124009801Y-94663258D01*
X124053309Y-94709977D01*
X124056216Y-94716342D01*
X124134029Y-94869057D01*
X124146319Y-94893178D01*
X124262680Y-95053337D01*
X124402663Y-95193320D01*
X124562822Y-95309681D01*
X124739206Y-95399553D01*
X124739206Y-95399554D01*
X124739208Y-95399554D01*
X124739211Y-95399556D01*
X124927488Y-95460731D01*
X125123017Y-95491700D01*
X125123020Y-95491700D01*
X125320980Y-95491700D01*
X125320983Y-95491700D01*
X125516512Y-95460731D01*
X125704789Y-95399556D01*
X125881178Y-95309681D01*
X126041337Y-95193320D01*
X126181320Y-95053337D01*
X126297681Y-94893178D01*
X126387556Y-94716789D01*
X126389577Y-94712823D01*
X126390567Y-94713327D01*
X126427371Y-94667646D01*
X126487942Y-94647478D01*
X126549801Y-94663258D01*
X126593309Y-94709977D01*
X126596216Y-94716342D01*
X126674029Y-94869057D01*
X126686319Y-94893178D01*
X126802680Y-95053337D01*
X126942663Y-95193320D01*
X127102822Y-95309681D01*
X127279206Y-95399553D01*
X127279206Y-95399554D01*
X127279208Y-95399554D01*
X127279211Y-95399556D01*
X127467488Y-95460731D01*
X127663017Y-95491700D01*
X127663020Y-95491700D01*
X127860980Y-95491700D01*
X127860983Y-95491700D01*
X128056512Y-95460731D01*
X128244789Y-95399556D01*
X128421178Y-95309681D01*
X128581337Y-95193320D01*
X128721320Y-95053337D01*
X128837681Y-94893178D01*
X128927556Y-94716789D01*
X128929577Y-94712823D01*
X128930567Y-94713327D01*
X128967371Y-94667646D01*
X129027942Y-94647478D01*
X129089801Y-94663258D01*
X129133309Y-94709977D01*
X129136216Y-94716342D01*
X129214029Y-94869057D01*
X129226319Y-94893178D01*
X129342680Y-95053337D01*
X129482663Y-95193320D01*
X129642822Y-95309681D01*
X129819206Y-95399553D01*
X129819206Y-95399554D01*
X129819208Y-95399554D01*
X129819211Y-95399556D01*
X130007488Y-95460731D01*
X130203017Y-95491700D01*
X130203020Y-95491700D01*
X130400980Y-95491700D01*
X130400983Y-95491700D01*
X130596512Y-95460731D01*
X130784789Y-95399556D01*
X130961178Y-95309681D01*
X131121337Y-95193320D01*
X131261320Y-95053337D01*
X131377681Y-94893178D01*
X131467556Y-94716789D01*
X131469577Y-94712823D01*
X131470567Y-94713327D01*
X131507371Y-94667646D01*
X131567942Y-94647478D01*
X131629801Y-94663258D01*
X131673309Y-94709977D01*
X131676216Y-94716342D01*
X131754029Y-94869057D01*
X131766319Y-94893178D01*
X131882680Y-95053337D01*
X132022663Y-95193320D01*
X132182822Y-95309681D01*
X132359206Y-95399553D01*
X132359206Y-95399554D01*
X132359208Y-95399554D01*
X132359211Y-95399556D01*
X132547488Y-95460731D01*
X132743017Y-95491700D01*
X132743020Y-95491700D01*
X132940980Y-95491700D01*
X132940983Y-95491700D01*
X133136512Y-95460731D01*
X133324789Y-95399556D01*
X133501178Y-95309681D01*
X133661337Y-95193320D01*
X133801320Y-95053337D01*
X133917681Y-94893178D01*
X134007556Y-94716789D01*
X134009577Y-94712823D01*
X134010567Y-94713327D01*
X134047371Y-94667646D01*
X134107942Y-94647478D01*
X134169801Y-94663258D01*
X134213309Y-94709977D01*
X134216216Y-94716342D01*
X134294029Y-94869057D01*
X134306319Y-94893178D01*
X134422680Y-95053337D01*
X134562663Y-95193320D01*
X134722822Y-95309681D01*
X134899206Y-95399553D01*
X134899206Y-95399554D01*
X134899208Y-95399554D01*
X134899211Y-95399556D01*
X135087488Y-95460731D01*
X135283017Y-95491700D01*
X135283020Y-95491700D01*
X135480980Y-95491700D01*
X135480983Y-95491700D01*
X135676512Y-95460731D01*
X135864789Y-95399556D01*
X136041178Y-95309681D01*
X136201337Y-95193320D01*
X136341320Y-95053337D01*
X136457681Y-94893178D01*
X136547556Y-94716789D01*
X136549577Y-94712823D01*
X136550567Y-94713327D01*
X136587371Y-94667646D01*
X136647942Y-94647478D01*
X136709801Y-94663258D01*
X136753309Y-94709977D01*
X136756216Y-94716342D01*
X136834029Y-94869057D01*
X136846319Y-94893178D01*
X136962680Y-95053337D01*
X137102663Y-95193320D01*
X137262822Y-95309681D01*
X137439206Y-95399553D01*
X137439206Y-95399554D01*
X137439208Y-95399554D01*
X137439211Y-95399556D01*
X137627488Y-95460731D01*
X137823017Y-95491700D01*
X137823020Y-95491700D01*
X138020980Y-95491700D01*
X138020983Y-95491700D01*
X138216512Y-95460731D01*
X138404789Y-95399556D01*
X138581178Y-95309681D01*
X138741337Y-95193320D01*
X138881320Y-95053337D01*
X138997681Y-94893178D01*
X139087556Y-94716789D01*
X139089577Y-94712823D01*
X139090567Y-94713327D01*
X139127371Y-94667646D01*
X139187942Y-94647478D01*
X139249801Y-94663258D01*
X139293309Y-94709977D01*
X139296216Y-94716342D01*
X139374029Y-94869057D01*
X139386319Y-94893178D01*
X139502680Y-95053337D01*
X139642663Y-95193320D01*
X139802822Y-95309681D01*
X139979206Y-95399553D01*
X139979206Y-95399554D01*
X139979208Y-95399554D01*
X139979211Y-95399556D01*
X140167488Y-95460731D01*
X140363017Y-95491700D01*
X140363020Y-95491700D01*
X140560980Y-95491700D01*
X140560983Y-95491700D01*
X140756512Y-95460731D01*
X140944789Y-95399556D01*
X141121178Y-95309681D01*
X141281337Y-95193320D01*
X141421320Y-95053337D01*
X141537681Y-94893178D01*
X141627556Y-94716789D01*
X141688731Y-94528512D01*
X141719700Y-94332983D01*
X141719700Y-94135017D01*
X141688731Y-93939488D01*
X141627556Y-93751211D01*
X141537681Y-93574822D01*
X141421320Y-93414663D01*
X141281337Y-93274680D01*
X141121178Y-93158319D01*
X140944793Y-93068446D01*
X140944793Y-93068445D01*
X140883744Y-93048609D01*
X140756512Y-93007269D01*
X140756508Y-93007268D01*
X140756507Y-93007268D01*
X140756503Y-93007267D01*
X140649486Y-92990317D01*
X140560983Y-92976300D01*
X140363017Y-92976300D01*
X140286116Y-92988479D01*
X140167496Y-93007267D01*
X140167492Y-93007268D01*
X140167489Y-93007268D01*
X140167488Y-93007269D01*
X140106443Y-93027103D01*
X139979206Y-93068445D01*
X139979206Y-93068446D01*
X139802825Y-93158317D01*
X139802819Y-93158321D01*
X139642670Y-93274674D01*
X139642656Y-93274686D01*
X139502686Y-93414656D01*
X139502674Y-93414670D01*
X139386321Y-93574819D01*
X139386317Y-93574825D01*
X139294423Y-93755177D01*
X139293434Y-93754673D01*
X139256620Y-93800359D01*
X139196047Y-93820522D01*
X139134189Y-93804735D01*
X139090686Y-93758012D01*
X139087782Y-93751655D01*
X139067311Y-93711478D01*
X138997681Y-93574822D01*
X138881320Y-93414663D01*
X138741337Y-93274680D01*
X138581178Y-93158319D01*
X138404793Y-93068446D01*
X138404793Y-93068445D01*
X138343744Y-93048609D01*
X138216512Y-93007269D01*
X138216508Y-93007268D01*
X138216507Y-93007268D01*
X138216503Y-93007267D01*
X138109486Y-92990317D01*
X138020983Y-92976300D01*
X137823017Y-92976300D01*
X137746116Y-92988479D01*
X137627496Y-93007267D01*
X137627492Y-93007268D01*
X137627489Y-93007268D01*
X137627488Y-93007269D01*
X137566443Y-93027103D01*
X137439206Y-93068445D01*
X137439206Y-93068446D01*
X137262825Y-93158317D01*
X137262819Y-93158321D01*
X137102670Y-93274674D01*
X137102656Y-93274686D01*
X136962686Y-93414656D01*
X136962674Y-93414670D01*
X136846321Y-93574819D01*
X136846317Y-93574825D01*
X136754423Y-93755177D01*
X136753434Y-93754673D01*
X136716620Y-93800359D01*
X136656047Y-93820522D01*
X136594189Y-93804735D01*
X136550686Y-93758012D01*
X136547782Y-93751655D01*
X136527311Y-93711478D01*
X136457681Y-93574822D01*
X136341320Y-93414663D01*
X136201337Y-93274680D01*
X136041178Y-93158319D01*
X135864793Y-93068446D01*
X135864793Y-93068445D01*
X135803744Y-93048609D01*
X135676512Y-93007269D01*
X135676508Y-93007268D01*
X135676507Y-93007268D01*
X135676503Y-93007267D01*
X135569486Y-92990317D01*
X135480983Y-92976300D01*
X135283017Y-92976300D01*
X135206116Y-92988479D01*
X135087496Y-93007267D01*
X135087492Y-93007268D01*
X135087489Y-93007268D01*
X135087488Y-93007269D01*
X135026443Y-93027103D01*
X134899206Y-93068445D01*
X134899206Y-93068446D01*
X134722825Y-93158317D01*
X134722819Y-93158321D01*
X134562670Y-93274674D01*
X134562656Y-93274686D01*
X134422686Y-93414656D01*
X134422674Y-93414670D01*
X134306321Y-93574819D01*
X134306317Y-93574825D01*
X134214423Y-93755177D01*
X134213434Y-93754673D01*
X134176620Y-93800359D01*
X134116047Y-93820522D01*
X134054189Y-93804735D01*
X134010686Y-93758012D01*
X134007782Y-93751655D01*
X133987311Y-93711478D01*
X133917681Y-93574822D01*
X133801320Y-93414663D01*
X133661337Y-93274680D01*
X133501178Y-93158319D01*
X133324793Y-93068446D01*
X133324793Y-93068445D01*
X133263744Y-93048609D01*
X133136512Y-93007269D01*
X133136508Y-93007268D01*
X133136507Y-93007268D01*
X133136503Y-93007267D01*
X133029486Y-92990317D01*
X132940983Y-92976300D01*
X132743017Y-92976300D01*
X132666116Y-92988479D01*
X132547496Y-93007267D01*
X132547492Y-93007268D01*
X132547489Y-93007268D01*
X132547488Y-93007269D01*
X132486443Y-93027103D01*
X132359206Y-93068445D01*
X132359206Y-93068446D01*
X132182825Y-93158317D01*
X132182819Y-93158321D01*
X132022670Y-93274674D01*
X132022656Y-93274686D01*
X131882686Y-93414656D01*
X131882674Y-93414670D01*
X131766321Y-93574819D01*
X131766317Y-93574825D01*
X131674423Y-93755177D01*
X131673434Y-93754673D01*
X131636620Y-93800359D01*
X131576047Y-93820522D01*
X131514189Y-93804735D01*
X131470686Y-93758012D01*
X131467782Y-93751655D01*
X131447311Y-93711478D01*
X131377681Y-93574822D01*
X131261320Y-93414663D01*
X131121337Y-93274680D01*
X130961178Y-93158319D01*
X130784793Y-93068446D01*
X130784793Y-93068445D01*
X130723744Y-93048609D01*
X130596512Y-93007269D01*
X130596508Y-93007268D01*
X130596507Y-93007268D01*
X130596503Y-93007267D01*
X130489486Y-92990317D01*
X130400983Y-92976300D01*
X130203017Y-92976300D01*
X130126116Y-92988479D01*
X130007496Y-93007267D01*
X130007492Y-93007268D01*
X130007489Y-93007268D01*
X130007488Y-93007269D01*
X129946443Y-93027103D01*
X129819206Y-93068445D01*
X129819206Y-93068446D01*
X129642825Y-93158317D01*
X129642819Y-93158321D01*
X129482670Y-93274674D01*
X129482656Y-93274686D01*
X129342686Y-93414656D01*
X129342674Y-93414670D01*
X129226321Y-93574819D01*
X129226317Y-93574825D01*
X129134423Y-93755177D01*
X129133434Y-93754673D01*
X129096620Y-93800359D01*
X129036047Y-93820522D01*
X128974189Y-93804735D01*
X128930686Y-93758012D01*
X128927782Y-93751655D01*
X128907311Y-93711478D01*
X128837681Y-93574822D01*
X128721320Y-93414663D01*
X128581337Y-93274680D01*
X128421178Y-93158319D01*
X128244793Y-93068446D01*
X128244793Y-93068445D01*
X128183744Y-93048609D01*
X128056512Y-93007269D01*
X128056508Y-93007268D01*
X128056507Y-93007268D01*
X128056503Y-93007267D01*
X127949486Y-92990317D01*
X127860983Y-92976300D01*
X127663017Y-92976300D01*
X127586116Y-92988479D01*
X127467496Y-93007267D01*
X127467492Y-93007268D01*
X127467489Y-93007268D01*
X127467488Y-93007269D01*
X127406443Y-93027103D01*
X127279206Y-93068445D01*
X127279206Y-93068446D01*
X127102825Y-93158317D01*
X127102819Y-93158321D01*
X126942670Y-93274674D01*
X126942656Y-93274686D01*
X126802686Y-93414656D01*
X126802674Y-93414670D01*
X126686321Y-93574819D01*
X126686317Y-93574825D01*
X126594423Y-93755177D01*
X126593434Y-93754673D01*
X126556620Y-93800359D01*
X126496047Y-93820522D01*
X126434189Y-93804735D01*
X126390686Y-93758012D01*
X126387782Y-93751655D01*
X126367311Y-93711478D01*
X126297681Y-93574822D01*
X126181320Y-93414663D01*
X126041337Y-93274680D01*
X125881178Y-93158319D01*
X125704793Y-93068446D01*
X125704793Y-93068445D01*
X125643744Y-93048609D01*
X125516512Y-93007269D01*
X125516508Y-93007268D01*
X125516507Y-93007268D01*
X125516503Y-93007267D01*
X125409486Y-92990317D01*
X125320983Y-92976300D01*
X125123017Y-92976300D01*
X125046116Y-92988479D01*
X124927496Y-93007267D01*
X124927492Y-93007268D01*
X124927489Y-93007268D01*
X124927488Y-93007269D01*
X124866443Y-93027103D01*
X124739206Y-93068445D01*
X124739206Y-93068446D01*
X124562825Y-93158317D01*
X124562819Y-93158321D01*
X124402670Y-93274674D01*
X124402656Y-93274686D01*
X124262686Y-93414656D01*
X124262674Y-93414670D01*
X124146321Y-93574819D01*
X124146317Y-93574825D01*
X124054423Y-93755177D01*
X124053434Y-93754673D01*
X124016620Y-93800359D01*
X123956047Y-93820522D01*
X123894189Y-93804735D01*
X123850686Y-93758012D01*
X123847782Y-93751655D01*
X123827311Y-93711478D01*
X123757681Y-93574822D01*
X123641320Y-93414663D01*
X123501337Y-93274680D01*
X123341178Y-93158319D01*
X123164793Y-93068446D01*
X123164793Y-93068445D01*
X123103744Y-93048609D01*
X122976512Y-93007269D01*
X122976508Y-93007268D01*
X122976507Y-93007268D01*
X122976503Y-93007267D01*
X122869486Y-92990317D01*
X122780983Y-92976300D01*
X122583017Y-92976300D01*
X122506116Y-92988479D01*
X122387496Y-93007267D01*
X122387492Y-93007268D01*
X122387489Y-93007268D01*
X122387488Y-93007269D01*
X122326443Y-93027103D01*
X122199206Y-93068445D01*
X122199206Y-93068446D01*
X122022825Y-93158317D01*
X122022819Y-93158321D01*
X121862670Y-93274674D01*
X121862656Y-93274686D01*
X121722686Y-93414656D01*
X121722674Y-93414670D01*
X121606321Y-93574819D01*
X121606320Y-93574820D01*
X121536688Y-93711479D01*
X121492853Y-93757891D01*
X121430884Y-93773237D01*
X121370456Y-93752644D01*
X121334786Y-93711478D01*
X121253859Y-93552650D01*
X121253855Y-93552643D01*
X121221475Y-93508077D01*
X121221474Y-93508076D01*
X120542000Y-94187551D01*
X120542000Y-94181339D01*
X120514741Y-94079606D01*
X120462080Y-93988394D01*
X120387606Y-93913920D01*
X120296394Y-93861259D01*
X120194661Y-93834000D01*
X120188446Y-93834000D01*
X120867922Y-93154524D01*
X120867922Y-93154523D01*
X120823351Y-93122142D01*
X120823346Y-93122138D01*
X120641032Y-93029245D01*
X120641030Y-93029244D01*
X120446412Y-92966009D01*
X120446406Y-92966007D01*
X120244311Y-92934000D01*
X120039689Y-92934000D01*
X119837593Y-92966007D01*
X119837587Y-92966009D01*
X119642969Y-93029244D01*
X119642967Y-93029245D01*
X119460653Y-93122138D01*
X119460639Y-93122147D01*
X119416077Y-93154522D01*
X119416077Y-93154524D01*
X120095554Y-93834000D01*
X120089339Y-93834000D01*
X119987606Y-93861259D01*
X119896394Y-93913920D01*
X119821920Y-93988394D01*
X119769259Y-94079606D01*
X119742000Y-94181339D01*
X119742000Y-94187553D01*
X119062524Y-93508077D01*
X119062522Y-93508077D01*
X119030147Y-93552639D01*
X119030141Y-93552649D01*
X118949213Y-93711479D01*
X118905378Y-93757891D01*
X118843409Y-93773237D01*
X118782981Y-93752644D01*
X118747311Y-93711478D01*
X118741764Y-93700592D01*
X118677681Y-93574822D01*
X118561320Y-93414663D01*
X118421337Y-93274680D01*
X118261178Y-93158319D01*
X118084793Y-93068446D01*
X118084793Y-93068445D01*
X118023744Y-93048609D01*
X117896512Y-93007269D01*
X117896508Y-93007268D01*
X117896507Y-93007268D01*
X117896503Y-93007267D01*
X117789486Y-92990317D01*
X117700983Y-92976300D01*
X117503017Y-92976300D01*
X117426116Y-92988479D01*
X117307496Y-93007267D01*
X117307492Y-93007268D01*
X117307489Y-93007268D01*
X117307488Y-93007269D01*
X117246443Y-93027103D01*
X117119206Y-93068445D01*
X117119206Y-93068446D01*
X116942825Y-93158317D01*
X116942819Y-93158321D01*
X116782670Y-93274674D01*
X116782656Y-93274686D01*
X116642686Y-93414656D01*
X116642674Y-93414670D01*
X116526321Y-93574819D01*
X116526317Y-93574825D01*
X116434423Y-93755177D01*
X116433434Y-93754673D01*
X116396620Y-93800359D01*
X116336047Y-93820522D01*
X116274189Y-93804735D01*
X116230686Y-93758012D01*
X116227782Y-93751655D01*
X116207311Y-93711478D01*
X116137681Y-93574822D01*
X116021320Y-93414663D01*
X115881337Y-93274680D01*
X115721178Y-93158319D01*
X115544793Y-93068446D01*
X115544793Y-93068445D01*
X115483744Y-93048609D01*
X115356512Y-93007269D01*
X115356508Y-93007268D01*
X115356507Y-93007268D01*
X115356503Y-93007267D01*
X115249486Y-92990317D01*
X115160983Y-92976300D01*
X114963017Y-92976300D01*
X114886116Y-92988479D01*
X114767496Y-93007267D01*
X114767492Y-93007268D01*
X114767489Y-93007268D01*
X114767488Y-93007269D01*
X114706443Y-93027103D01*
X114579206Y-93068445D01*
X114579206Y-93068446D01*
X114402825Y-93158317D01*
X114402819Y-93158321D01*
X114242670Y-93274674D01*
X114242656Y-93274686D01*
X114102686Y-93414656D01*
X114102674Y-93414670D01*
X113986321Y-93574819D01*
X113986317Y-93574825D01*
X113894423Y-93755177D01*
X113893434Y-93754673D01*
X113856620Y-93800359D01*
X113796047Y-93820522D01*
X113734189Y-93804735D01*
X113690686Y-93758012D01*
X113687782Y-93751655D01*
X113667311Y-93711478D01*
X113597681Y-93574822D01*
X113481320Y-93414663D01*
X113341337Y-93274680D01*
X113181178Y-93158319D01*
X113004793Y-93068446D01*
X113004793Y-93068445D01*
X112943744Y-93048609D01*
X112816512Y-93007269D01*
X112816508Y-93007268D01*
X112816507Y-93007268D01*
X112816503Y-93007267D01*
X112709486Y-92990317D01*
X112620983Y-92976300D01*
X112423017Y-92976300D01*
X112346116Y-92988479D01*
X112227496Y-93007267D01*
X112227492Y-93007268D01*
X112227489Y-93007268D01*
X112227488Y-93007269D01*
X112166443Y-93027103D01*
X112039206Y-93068445D01*
X112039206Y-93068446D01*
X111862825Y-93158317D01*
X111862819Y-93158321D01*
X111702670Y-93274674D01*
X111702656Y-93274686D01*
X111562686Y-93414656D01*
X111562674Y-93414670D01*
X111446321Y-93574819D01*
X111446317Y-93574825D01*
X111354423Y-93755177D01*
X111353434Y-93754673D01*
X111316620Y-93800359D01*
X111256047Y-93820522D01*
X111194189Y-93804735D01*
X111150686Y-93758012D01*
X111147782Y-93751655D01*
X111127311Y-93711478D01*
X111057681Y-93574822D01*
X110941320Y-93414663D01*
X110801337Y-93274680D01*
X110641178Y-93158319D01*
X110464793Y-93068446D01*
X110464793Y-93068445D01*
X110403744Y-93048609D01*
X110276512Y-93007269D01*
X110276508Y-93007268D01*
X110276507Y-93007268D01*
X110276503Y-93007267D01*
X110169486Y-92990317D01*
X110080983Y-92976300D01*
X109883017Y-92976300D01*
X109806116Y-92988479D01*
X109687496Y-93007267D01*
X109687492Y-93007268D01*
X109687489Y-93007268D01*
X109687488Y-93007269D01*
X109626443Y-93027103D01*
X109499206Y-93068445D01*
X109499206Y-93068446D01*
X109322825Y-93158317D01*
X109322819Y-93158321D01*
X109162670Y-93274674D01*
X109162656Y-93274686D01*
X109022686Y-93414656D01*
X109022674Y-93414670D01*
X108906321Y-93574819D01*
X108906317Y-93574825D01*
X108814423Y-93755177D01*
X108813434Y-93754673D01*
X108776620Y-93800359D01*
X108716047Y-93820522D01*
X108654189Y-93804735D01*
X108610686Y-93758012D01*
X108607782Y-93751655D01*
X108587311Y-93711478D01*
X108517681Y-93574822D01*
X108401320Y-93414663D01*
X108261337Y-93274680D01*
X108101178Y-93158319D01*
X107924793Y-93068446D01*
X107924793Y-93068445D01*
X107863744Y-93048609D01*
X107736512Y-93007269D01*
X107736508Y-93007268D01*
X107736507Y-93007268D01*
X107736503Y-93007267D01*
X107629486Y-92990317D01*
X107540983Y-92976300D01*
X107343017Y-92976300D01*
X107266116Y-92988479D01*
X107147496Y-93007267D01*
X107147492Y-93007268D01*
X107147489Y-93007268D01*
X107147488Y-93007269D01*
X107086443Y-93027103D01*
X106959206Y-93068445D01*
X106959206Y-93068446D01*
X106782825Y-93158317D01*
X106782819Y-93158321D01*
X106622670Y-93274674D01*
X106622656Y-93274686D01*
X106482686Y-93414656D01*
X106482674Y-93414670D01*
X106366321Y-93574819D01*
X106366317Y-93574825D01*
X106274423Y-93755177D01*
X106273434Y-93754673D01*
X106236620Y-93800359D01*
X106176047Y-93820522D01*
X106114189Y-93804735D01*
X106070686Y-93758012D01*
X106067782Y-93751655D01*
X106047311Y-93711478D01*
X105977681Y-93574822D01*
X105861320Y-93414663D01*
X105721337Y-93274680D01*
X105561178Y-93158319D01*
X105384793Y-93068446D01*
X105384793Y-93068445D01*
X105323744Y-93048609D01*
X105196512Y-93007269D01*
X105196508Y-93007268D01*
X105196507Y-93007268D01*
X105196503Y-93007267D01*
X105089486Y-92990317D01*
X105000983Y-92976300D01*
X104803017Y-92976300D01*
X104726116Y-92988479D01*
X104607496Y-93007267D01*
X104607492Y-93007268D01*
X104607489Y-93007268D01*
X104607488Y-93007269D01*
X104546443Y-93027103D01*
X104419206Y-93068445D01*
X104419206Y-93068446D01*
X104242825Y-93158317D01*
X104242819Y-93158321D01*
X104082670Y-93274674D01*
X104082656Y-93274686D01*
X103942686Y-93414656D01*
X103942674Y-93414670D01*
X103826321Y-93574819D01*
X103826317Y-93574825D01*
X103734423Y-93755177D01*
X103733434Y-93754673D01*
X103696620Y-93800359D01*
X103636047Y-93820522D01*
X103574189Y-93804735D01*
X103530686Y-93758012D01*
X103527782Y-93751655D01*
X103507311Y-93711478D01*
X103437681Y-93574822D01*
X103321320Y-93414663D01*
X103181337Y-93274680D01*
X103021178Y-93158319D01*
X102844793Y-93068446D01*
X102844793Y-93068445D01*
X102783744Y-93048609D01*
X102656512Y-93007269D01*
X102656508Y-93007268D01*
X102656507Y-93007268D01*
X102656503Y-93007267D01*
X102549486Y-92990317D01*
X102460983Y-92976300D01*
X102263017Y-92976300D01*
X102186116Y-92988479D01*
X102067496Y-93007267D01*
X102067492Y-93007268D01*
X102067489Y-93007268D01*
X102067488Y-93007269D01*
X102006443Y-93027103D01*
X101879206Y-93068445D01*
X101879206Y-93068446D01*
X101702825Y-93158317D01*
X101702819Y-93158321D01*
X101542670Y-93274674D01*
X101542656Y-93274686D01*
X101402686Y-93414656D01*
X101402674Y-93414670D01*
X101286321Y-93574819D01*
X101286317Y-93574825D01*
X101194423Y-93755177D01*
X101193434Y-93754673D01*
X101156620Y-93800359D01*
X101096047Y-93820522D01*
X101034189Y-93804735D01*
X100990686Y-93758012D01*
X100987782Y-93751655D01*
X100967311Y-93711478D01*
X100897681Y-93574822D01*
X100781320Y-93414663D01*
X100641337Y-93274680D01*
X100481178Y-93158319D01*
X100304793Y-93068446D01*
X100304793Y-93068445D01*
X100243744Y-93048609D01*
X100116512Y-93007269D01*
X100116508Y-93007268D01*
X100116507Y-93007268D01*
X100116503Y-93007267D01*
X100009486Y-92990317D01*
X99920983Y-92976300D01*
X99723017Y-92976300D01*
X99646116Y-92988479D01*
X99527496Y-93007267D01*
X99527492Y-93007268D01*
X99527489Y-93007268D01*
X99527488Y-93007269D01*
X99466443Y-93027103D01*
X99339206Y-93068445D01*
X99339206Y-93068446D01*
X99162825Y-93158317D01*
X99162819Y-93158321D01*
X99002670Y-93274674D01*
X99002656Y-93274686D01*
X98862686Y-93414656D01*
X98862674Y-93414670D01*
X98746321Y-93574819D01*
X98746317Y-93574825D01*
X98654423Y-93755177D01*
X98653434Y-93754673D01*
X98616620Y-93800359D01*
X98556047Y-93820522D01*
X98494189Y-93804735D01*
X98450686Y-93758012D01*
X98447782Y-93751655D01*
X98427311Y-93711478D01*
X98357681Y-93574822D01*
X98241320Y-93414663D01*
X98101337Y-93274680D01*
X97941178Y-93158319D01*
X97764793Y-93068446D01*
X97764793Y-93068445D01*
X97703744Y-93048609D01*
X97576512Y-93007269D01*
X97576508Y-93007268D01*
X97576507Y-93007268D01*
X97576503Y-93007267D01*
X97469486Y-92990317D01*
X97380983Y-92976300D01*
X97183017Y-92976300D01*
X97106116Y-92988479D01*
X96987496Y-93007267D01*
X96987492Y-93007268D01*
X96987489Y-93007268D01*
X96987488Y-93007269D01*
X96926443Y-93027103D01*
X96799206Y-93068445D01*
X96799206Y-93068446D01*
X96622825Y-93158317D01*
X96622819Y-93158321D01*
X96462670Y-93274674D01*
X96462656Y-93274686D01*
X96322686Y-93414656D01*
X96322674Y-93414670D01*
X96206321Y-93574819D01*
X96206317Y-93574825D01*
X96114423Y-93755177D01*
X96113434Y-93754673D01*
X96076620Y-93800359D01*
X96016047Y-93820522D01*
X95954189Y-93804735D01*
X95910686Y-93758012D01*
X95907782Y-93751655D01*
X95887311Y-93711478D01*
X95817681Y-93574822D01*
X95701320Y-93414663D01*
X95561337Y-93274680D01*
X95401178Y-93158319D01*
X95224793Y-93068446D01*
X95224793Y-93068445D01*
X95163744Y-93048609D01*
X95036512Y-93007269D01*
X95036508Y-93007268D01*
X95036507Y-93007268D01*
X95036503Y-93007267D01*
X94929486Y-92990317D01*
X94840983Y-92976300D01*
X94643017Y-92976300D01*
X94566116Y-92988479D01*
X94447496Y-93007267D01*
X94447492Y-93007268D01*
X94447489Y-93007268D01*
X94447488Y-93007269D01*
X94386443Y-93027103D01*
X94259206Y-93068445D01*
X94259206Y-93068446D01*
X94082825Y-93158317D01*
X94082819Y-93158321D01*
X93922670Y-93274674D01*
X93922656Y-93274686D01*
X93782686Y-93414656D01*
X93782674Y-93414670D01*
X93666321Y-93574819D01*
X93666317Y-93574825D01*
X93574423Y-93755177D01*
X93573434Y-93754673D01*
X93536620Y-93800359D01*
X93476047Y-93820522D01*
X93414189Y-93804735D01*
X93370686Y-93758012D01*
X93367782Y-93751655D01*
X93347311Y-93711478D01*
X93277681Y-93574822D01*
X93161320Y-93414663D01*
X93021337Y-93274680D01*
X92861178Y-93158319D01*
X92684793Y-93068446D01*
X92684793Y-93068445D01*
X92623744Y-93048609D01*
X92496512Y-93007269D01*
X92496508Y-93007268D01*
X92496507Y-93007268D01*
X92496503Y-93007267D01*
X92389486Y-92990317D01*
X92300983Y-92976300D01*
X92103017Y-92976300D01*
X92026116Y-92988479D01*
X91907496Y-93007267D01*
X91907492Y-93007268D01*
X91907489Y-93007268D01*
X91907488Y-93007269D01*
X91846443Y-93027103D01*
X91719206Y-93068445D01*
X91719206Y-93068446D01*
X91542825Y-93158317D01*
X91542819Y-93158321D01*
X91382670Y-93274674D01*
X91382656Y-93274686D01*
X91242686Y-93414656D01*
X91242674Y-93414670D01*
X91126321Y-93574819D01*
X91126317Y-93574825D01*
X91036446Y-93751206D01*
X91036445Y-93751206D01*
X90975268Y-93939492D01*
X90975267Y-93939496D01*
X90944300Y-94135019D01*
X90416500Y-94135019D01*
X90416500Y-92815800D01*
X90434486Y-92754545D01*
X90482733Y-92712739D01*
X90529800Y-92702500D01*
X142134200Y-92702500D01*
X142195455Y-92720486D01*
G37*
%TD.AperFunction*%
%TD*%
M02*
