%TF.GenerationSoftware,KiCad,Pcbnew,9.0.9*%
%TF.CreationDate,2026-08-16T17:42:43-07:00*%
%TF.ProjectId,ZID_POD,5a49445f-504f-4442-9e6b-696361645f70,PR1.0*%
%TF.SameCoordinates,Original*%
%TF.FileFunction,Paste,Top*%
%TF.FilePolarity,Positive*%
%FSLAX46Y46*%
G04 Gerber Fmt 4.6, Leading zero omitted, Abs format (unit mm)*
G04 Created by KiCad (PCBNEW 9.0.9) date 2026-08-16 17:42:43*
%MOMM*%
%LPD*%
G01*
G04 APERTURE LIST*
%ADD10R,0.600000X1.500000*%
%ADD11R,0.800000X1.500000*%
G04 APERTURE END LIST*
D10*
%TO.C,J1*%
X126386000Y-100953999D03*
X125886000Y-102754000D03*
X125386000Y-100954000D03*
X124886000Y-102754000D03*
X124386000Y-100954000D03*
X123886000Y-102754001D03*
X123386000Y-100954000D03*
X122886000Y-102754000D03*
X122386000Y-100954000D03*
X121886000Y-102754000D03*
X121386000Y-100953999D03*
X120886000Y-102754000D03*
X120386000Y-100954000D03*
X119885999Y-102754000D03*
X119386000Y-100954000D03*
X118886000Y-102754001D03*
X118386000Y-100954000D03*
X117886000Y-102754000D03*
X117386000Y-100953999D03*
X116886000Y-102754000D03*
X116386001Y-100954000D03*
X115886000Y-102754000D03*
X115386000Y-100954000D03*
X114886000Y-102754001D03*
X114386000Y-100954000D03*
X113886000Y-102754000D03*
X113386000Y-100954000D03*
X112886000Y-102754000D03*
X112386000Y-100953999D03*
X111886000Y-102754000D03*
X111386000Y-100954000D03*
X110886000Y-102754000D03*
X110386000Y-100954000D03*
X109886000Y-102754001D03*
X109386000Y-100954000D03*
X108886000Y-102754000D03*
X108385999Y-100954000D03*
X107886000Y-102754000D03*
X107386001Y-100954000D03*
X106886000Y-102754000D03*
D11*
X127386000Y-100954000D03*
X105886000Y-101054000D03*
X127386000Y-102754000D03*
X105886000Y-102754001D03*
%TD*%
M02*
