%TF.GenerationSoftware,KiCad,Pcbnew,9.0.9*%
%TF.CreationDate,2026-08-16T17:42:42-07:00*%
%TF.ProjectId,ZID_POD,5a49445f-504f-4442-9e6b-696361645f70,PR1.0*%
%TF.SameCoordinates,Original*%
%TF.FileFunction,Copper,L1,Top*%
%TF.FilePolarity,Positive*%
%FSLAX46Y46*%
G04 Gerber Fmt 4.6, Leading zero omitted, Abs format (unit mm)*
G04 Created by KiCad (PCBNEW 9.0.9) date 2026-08-16 17:42:42*
%MOMM*%
%LPD*%
G01*
G04 APERTURE LIST*
G04 Aperture macros list*
%AMRoundRect*
0 Rectangle with rounded corners*
0 $1 Rounding radius*
0 $2 $3 $4 $5 $6 $7 $8 $9 X,Y pos of 4 corners*
0 Add a 4 corners polygon primitive as box body*
4,1,4,$2,$3,$4,$5,$6,$7,$8,$9,$2,$3,0*
0 Add four circle primitives for the rounded corners*
1,1,$1+$1,$2,$3*
1,1,$1+$1,$4,$5*
1,1,$1+$1,$6,$7*
1,1,$1+$1,$8,$9*
0 Add four rect primitives between the rounded corners*
20,1,$1+$1,$2,$3,$4,$5,0*
20,1,$1+$1,$4,$5,$6,$7,0*
20,1,$1+$1,$6,$7,$8,$9,0*
20,1,$1+$1,$8,$9,$2,$3,0*%
G04 Aperture macros list end*
%TA.AperFunction,ComponentPad*%
%ADD10RoundRect,0.250000X0.550000X-0.550000X0.550000X0.550000X-0.550000X0.550000X-0.550000X-0.550000X0*%
%TD*%
%TA.AperFunction,ComponentPad*%
%ADD11C,1.600000*%
%TD*%
%TA.AperFunction,SMDPad,CuDef*%
%ADD12R,0.600000X1.500000*%
%TD*%
%TA.AperFunction,SMDPad,CuDef*%
%ADD13R,0.800000X1.500000*%
%TD*%
%TA.AperFunction,ViaPad*%
%ADD14C,0.600000*%
%TD*%
%TA.AperFunction,Conductor*%
%ADD15C,0.180000*%
%TD*%
G04 APERTURE END LIST*
D10*
%TO.P,Z80-SKT1,1,A11*%
%TO.N,/A11*%
X92202000Y-109474000D03*
D11*
%TO.P,Z80-SKT1,2,A12*%
%TO.N,/A12*%
X94742000Y-109474000D03*
%TO.P,Z80-SKT1,3,A13*%
%TO.N,/A13*%
X97282000Y-109474000D03*
%TO.P,Z80-SKT1,4,A14*%
%TO.N,/A14*%
X99822000Y-109474000D03*
%TO.P,Z80-SKT1,5,A15*%
%TO.N,/A15*%
X102362000Y-109474000D03*
%TO.P,Z80-SKT1,6,CLK*%
%TO.N,/CLK*%
X104902000Y-109474000D03*
%TO.P,Z80-SKT1,7,D4*%
%TO.N,/D4*%
X107442000Y-109474000D03*
%TO.P,Z80-SKT1,8,D3*%
%TO.N,/D3*%
X109982000Y-109474000D03*
%TO.P,Z80-SKT1,9,D5*%
%TO.N,/D5*%
X112522000Y-109474000D03*
%TO.P,Z80-SKT1,10,D6*%
%TO.N,/D6*%
X115062000Y-109474000D03*
%TO.P,Z80-SKT1,11,NC/GND*%
%TO.N,unconnected-(Z80-SKT1-NC{slash}GND-Pad11)*%
X117602000Y-109474000D03*
%TO.P,Z80-SKT1,12,D2*%
%TO.N,/D2*%
X120142000Y-109474000D03*
%TO.P,Z80-SKT1,13,D7*%
%TO.N,/D7*%
X122682000Y-109474000D03*
%TO.P,Z80-SKT1,14,D0*%
%TO.N,/D0*%
X125222000Y-109474000D03*
%TO.P,Z80-SKT1,15,D1*%
%TO.N,/D1*%
X127762000Y-109474000D03*
%TO.P,Z80-SKT1,16,~{INT}*%
%TO.N,/INT-*%
X130302000Y-109474000D03*
%TO.P,Z80-SKT1,17,~{NMI}*%
%TO.N,/NMI-*%
X132842000Y-109474000D03*
%TO.P,Z80-SKT1,18,~{HALT}*%
%TO.N,/HALT-*%
X135382000Y-109474000D03*
%TO.P,Z80-SKT1,19,~{MREQ}*%
%TO.N,/MREQ-*%
X137922000Y-109474000D03*
%TO.P,Z80-SKT1,20,~{IORQ}*%
%TO.N,/IORQ-*%
X140462000Y-109474000D03*
%TO.P,Z80-SKT1,21,~{RD}*%
%TO.N,/RD-*%
X140462000Y-94234000D03*
%TO.P,Z80-SKT1,22,~{WR}*%
%TO.N,/WR-*%
X137922000Y-94234000D03*
%TO.P,Z80-SKT1,23,~{BUSACK}*%
%TO.N,/BACK-*%
X135382000Y-94234000D03*
%TO.P,Z80-SKT1,24,~{WAIT}*%
%TO.N,/WAIT-*%
X132842000Y-94234000D03*
%TO.P,Z80-SKT1,25,~{BUSREQ}*%
%TO.N,/BREQ-*%
X130302000Y-94234000D03*
%TO.P,Z80-SKT1,26,~{RESET}*%
%TO.N,/RST-*%
X127762000Y-94234000D03*
%TO.P,Z80-SKT1,27,~{M1}*%
%TO.N,/M1-*%
X125222000Y-94234000D03*
%TO.P,Z80-SKT1,28,~{RFSH}*%
%TO.N,/RFSH-*%
X122682000Y-94234000D03*
%TO.P,Z80-SKT1,29,GND*%
%TO.N,/GND*%
X120142000Y-94234000D03*
%TO.P,Z80-SKT1,30,A0*%
%TO.N,/A0*%
X117602000Y-94234000D03*
%TO.P,Z80-SKT1,31,A1*%
%TO.N,/A1*%
X115062000Y-94234000D03*
%TO.P,Z80-SKT1,32,A2*%
%TO.N,/A2*%
X112522000Y-94234000D03*
%TO.P,Z80-SKT1,33,A3*%
%TO.N,/A3*%
X109982000Y-94234000D03*
%TO.P,Z80-SKT1,34,A4*%
%TO.N,/A4*%
X107442000Y-94234000D03*
%TO.P,Z80-SKT1,35,A5*%
%TO.N,/A5*%
X104902000Y-94234000D03*
%TO.P,Z80-SKT1,36,A6*%
%TO.N,/A6*%
X102362000Y-94234000D03*
%TO.P,Z80-SKT1,37,A7*%
%TO.N,/A7*%
X99822000Y-94234000D03*
%TO.P,Z80-SKT1,38,A8*%
%TO.N,/A8*%
X97282000Y-94234000D03*
%TO.P,Z80-SKT1,39,A9*%
%TO.N,/A9*%
X94742000Y-94234000D03*
%TO.P,Z80-SKT1,40,A10*%
%TO.N,/A10*%
X92202000Y-94234000D03*
%TD*%
D12*
%TO.P,J1,1,Pin_1*%
%TO.N,/A10*%
X126386000Y-100953999D03*
%TO.P,J1,2,Pin_2*%
%TO.N,/A9*%
X125886000Y-102754000D03*
%TO.P,J1,3,Pin_3*%
%TO.N,/A8*%
X125386000Y-100954000D03*
%TO.P,J1,4,Pin_4*%
%TO.N,/A7*%
X124886000Y-102754000D03*
%TO.P,J1,5,Pin_5*%
%TO.N,/A6*%
X124386000Y-100954000D03*
%TO.P,J1,6,Pin_6*%
%TO.N,/A5*%
X123886000Y-102754001D03*
%TO.P,J1,7,Pin_7*%
%TO.N,/A4*%
X123386000Y-100954000D03*
%TO.P,J1,8,Pin_8*%
%TO.N,/A3*%
X122886000Y-102754000D03*
%TO.P,J1,9,Pin_9*%
%TO.N,/A2*%
X122386000Y-100954000D03*
%TO.P,J1,10,Pin_10*%
%TO.N,/A1*%
X121886000Y-102754000D03*
%TO.P,J1,11,Pin_11*%
%TO.N,/A0*%
X121386000Y-100953999D03*
%TO.P,J1,12,Pin_12*%
%TO.N,/A15*%
X120886000Y-102754000D03*
%TO.P,J1,13,Pin_13*%
%TO.N,/RFSH-*%
X120386000Y-100954000D03*
%TO.P,J1,14,Pin_14*%
%TO.N,/M1-*%
X119885999Y-102754000D03*
%TO.P,J1,15,Pin_15*%
%TO.N,/RST-*%
X119386000Y-100954000D03*
%TO.P,J1,16,Pin_16*%
%TO.N,/BREQ-*%
X118886000Y-102754001D03*
%TO.P,J1,17,Pin_17*%
%TO.N,/WAIT-*%
X118386000Y-100954000D03*
%TO.P,J1,18,Pin_18*%
%TO.N,/BACK-*%
X117886000Y-102754000D03*
%TO.P,J1,19,Pin_19*%
%TO.N,/WR-*%
X117386000Y-100953999D03*
%TO.P,J1,20,Pin_20*%
%TO.N,/RD-*%
X116886000Y-102754000D03*
%TO.P,J1,21,Pin_21*%
%TO.N,/IORQ-*%
X116386001Y-100954000D03*
%TO.P,J1,22,Pin_22*%
%TO.N,/MREQ-*%
X115886000Y-102754000D03*
%TO.P,J1,23,Pin_23*%
%TO.N,/HALT-*%
X115386000Y-100954000D03*
%TO.P,J1,24,Pin_24*%
%TO.N,/NMI-*%
X114886000Y-102754001D03*
%TO.P,J1,25,Pin_25*%
%TO.N,/INT-*%
X114386000Y-100954000D03*
%TO.P,J1,26,Pin_26*%
%TO.N,/D1*%
X113886000Y-102754000D03*
%TO.P,J1,27,Pin_27*%
%TO.N,/D0*%
X113386000Y-100954000D03*
%TO.P,J1,28,Pin_28*%
%TO.N,/D7*%
X112886000Y-102754000D03*
%TO.P,J1,29,Pin_29*%
%TO.N,/D2*%
X112386000Y-100953999D03*
%TO.P,J1,30,Pin_30*%
%TO.N,/D4*%
X111886000Y-102754000D03*
%TO.P,J1,31,Pin_31*%
%TO.N,/D6*%
X111386000Y-100954000D03*
%TO.P,J1,32,Pin_32*%
%TO.N,/D5*%
X110886000Y-102754000D03*
%TO.P,J1,33,Pin_33*%
%TO.N,/D3*%
X110386000Y-100954000D03*
%TO.P,J1,34,Pin_34*%
%TO.N,/GND*%
X109886000Y-102754001D03*
%TO.P,J1,35,Pin_35*%
%TO.N,/CLK*%
X109386000Y-100954000D03*
%TO.P,J1,36,Pin_36*%
%TO.N,/GND*%
X108886000Y-102754000D03*
%TO.P,J1,37,Pin_37*%
%TO.N,/A14*%
X108385999Y-100954000D03*
%TO.P,J1,38,Pin_38*%
%TO.N,/A13*%
X107886000Y-102754000D03*
%TO.P,J1,39,Pin_39*%
%TO.N,/A12*%
X107386001Y-100954000D03*
%TO.P,J1,40,Pin_40*%
%TO.N,/A11*%
X106886000Y-102754000D03*
D13*
%TO.P,J1,MP*%
%TO.N,N/C*%
X127386000Y-100954000D03*
X105886000Y-101054000D03*
X127386000Y-102754000D03*
X105886000Y-102754001D03*
%TD*%
D14*
%TO.N,/GND*%
X93827600Y-101854000D03*
X138023600Y-96215200D03*
X133070600Y-96240600D03*
X128828800Y-96240600D03*
X123774200Y-95910400D03*
%TO.N,/A3*%
X109982000Y-97586800D03*
X122478800Y-104306600D03*
%TO.N,/A5*%
X104978200Y-97725000D03*
X124168949Y-104712000D03*
%TO.N,/A7*%
X99796600Y-98628200D03*
X125316000Y-104397000D03*
%TO.N,/A9*%
X94742000Y-98145600D03*
X126060200Y-104967000D03*
%TO.N,/A10*%
X124347200Y-97443225D03*
%TO.N,/A8*%
X123615275Y-97173615D03*
%TO.N,/A6*%
X122738215Y-96714838D03*
%TO.N,/A4*%
X120065800Y-96153225D03*
%TO.N,/A2*%
X117845551Y-95525649D03*
%TO.N,/WR-*%
X117442203Y-99517200D03*
%TO.N,/WAIT-*%
X118748420Y-98192980D03*
%TO.N,/RST-*%
X119507428Y-98013225D03*
%TO.N,/RFSH-*%
X120816000Y-99491800D03*
%TO.N,/A1*%
X119527678Y-105411976D03*
%TO.N,/M1-*%
X118730034Y-105371108D03*
%TO.N,/BREQ-*%
X117874683Y-105420357D03*
%TO.N,/BACK-*%
X117054400Y-105434537D03*
%TO.N,/RD-*%
X116456000Y-106124936D03*
%TO.N,/A15*%
X102412800Y-107442000D03*
X120287702Y-104546400D03*
%TO.N,/IORQ-*%
X116662200Y-99517200D03*
%TO.N,/INT-*%
X113961150Y-99207452D03*
%TO.N,/HALT-*%
X115087400Y-99568000D03*
%TO.N,/D0*%
X112852200Y-99542600D03*
%TO.N,/D2*%
X111887000Y-99542600D03*
%TO.N,/D6*%
X110837546Y-99529237D03*
%TO.N,/D5*%
X110642400Y-104089200D03*
%TO.N,/D3*%
X107729408Y-99104979D03*
%TO.N,/A14*%
X98374200Y-104800400D03*
%TO.N,/A11*%
X106883200Y-104140000D03*
%TO.N,/GND*%
X109601000Y-104063800D03*
X108585000Y-104063800D03*
%TO.N,/CLK*%
X109245400Y-99542600D03*
%TD*%
D15*
%TO.N,/A2*%
X119711275Y-97083225D02*
X119892646Y-97083225D01*
X119892646Y-97083225D02*
X122386000Y-99576579D01*
X118153699Y-95525649D02*
X119711275Y-97083225D01*
X122386000Y-99576579D02*
X122386000Y-100954000D01*
X117845551Y-95525649D02*
X118153699Y-95525649D01*
%TO.N,/A0*%
X119743530Y-97443225D02*
X118957025Y-97443225D01*
X117170200Y-95656400D02*
X117170200Y-94665800D01*
X121386000Y-99085695D02*
X119743530Y-97443225D01*
X118957025Y-97443225D02*
X117170200Y-95656400D01*
X121386000Y-100953999D02*
X121386000Y-99085695D01*
%TO.N,/A4*%
X123386000Y-99840200D02*
X123386000Y-100954000D01*
X121615200Y-98069400D02*
X123386000Y-99840200D01*
X121615200Y-97702625D02*
X121615200Y-98069400D01*
X120065800Y-96153225D02*
X121615200Y-97702625D01*
%TO.N,/A6*%
X124386000Y-100078200D02*
X124386000Y-100954000D01*
X122754851Y-98447051D02*
X124386000Y-100078200D01*
X122738215Y-96714838D02*
X122754851Y-96731474D01*
X122754851Y-96731474D02*
X122754851Y-98447051D01*
%TO.N,/A8*%
X123559901Y-98540901D02*
X125386000Y-100367000D01*
X123559901Y-97228989D02*
X123559901Y-98540901D01*
X123615275Y-97173615D02*
X123559901Y-97228989D01*
%TO.N,/A10*%
X124347200Y-97443225D02*
X124347200Y-98388400D01*
X124347200Y-98388400D02*
X126386000Y-100427200D01*
%TO.N,/RST-*%
X119386000Y-100120800D02*
X119386000Y-100954000D01*
X119608600Y-99898200D02*
X119386000Y-100120800D01*
X119608600Y-98114397D02*
X119608600Y-99898200D01*
X119507428Y-98013225D02*
X119608600Y-98114397D01*
%TO.N,/WAIT-*%
X118745000Y-99359600D02*
X118386000Y-99718600D01*
X118745000Y-98196400D02*
X118745000Y-99359600D01*
X118386000Y-99718600D02*
X118386000Y-100954000D01*
X118748420Y-98192980D02*
X118745000Y-98196400D01*
%TO.N,/A3*%
X109982000Y-97586800D02*
X109982000Y-94234000D01*
X122886000Y-103899400D02*
X122478800Y-104306600D01*
X122886000Y-102754000D02*
X122886000Y-103899400D01*
%TO.N,/A5*%
X123886000Y-104378800D02*
X123886000Y-102754001D01*
X124168949Y-104661749D02*
X123886000Y-104378800D01*
X124168949Y-104712000D02*
X124168949Y-104661749D01*
X104902000Y-97282000D02*
X104902000Y-94234000D01*
X104978200Y-97358200D02*
X104902000Y-97282000D01*
X104978200Y-97725000D02*
X104978200Y-97358200D01*
%TO.N,/A1*%
X121886000Y-103843800D02*
X121886000Y-102754000D01*
X120319800Y-105410000D02*
X121886000Y-103843800D01*
X119529654Y-105410000D02*
X120319800Y-105410000D01*
X119527678Y-105411976D02*
X119529654Y-105410000D01*
%TO.N,/A15*%
X120886000Y-103853200D02*
X120886000Y-102754000D01*
X120287702Y-104451498D02*
X120886000Y-103853200D01*
X120287702Y-104546400D02*
X120287702Y-104451498D01*
%TO.N,/M1-*%
X119885999Y-104142001D02*
X119885999Y-102754000D01*
X118730034Y-105297966D02*
X119885999Y-104142001D01*
X118730034Y-105371108D02*
X118730034Y-105297966D01*
%TO.N,/BREQ-*%
X118886000Y-104409040D02*
X118886000Y-102754001D01*
X117874683Y-105420357D02*
X118886000Y-104409040D01*
%TO.N,/BACK-*%
X117886000Y-104602937D02*
X117886000Y-102754000D01*
X117054400Y-105434537D02*
X117886000Y-104602937D01*
%TO.N,/RD-*%
X116886000Y-103763800D02*
X116886000Y-102754000D01*
X116484400Y-106096536D02*
X116484400Y-104165400D01*
X116484400Y-104165400D02*
X116886000Y-103763800D01*
X116456000Y-106124936D02*
X116484400Y-106096536D01*
%TO.N,/A7*%
X99822000Y-98602800D02*
X99822000Y-94234000D01*
X99796600Y-98628200D02*
X99822000Y-98602800D01*
X124886000Y-103804000D02*
X124886000Y-102754000D01*
X125316000Y-104234000D02*
X124886000Y-103804000D01*
X125316000Y-104397000D02*
X125316000Y-104234000D01*
%TO.N,/WR-*%
X117386000Y-99573403D02*
X117386000Y-100953999D01*
X117442203Y-99517200D02*
X117386000Y-99573403D01*
%TO.N,/INT-*%
X114386000Y-99831800D02*
X114386000Y-100954000D01*
X114314507Y-99760307D02*
X114386000Y-99831800D01*
X114314507Y-99560809D02*
X114314507Y-99760307D01*
X113961150Y-99207452D02*
X114314507Y-99560809D01*
%TO.N,/D3*%
X110386000Y-99877098D02*
X110386000Y-100954000D01*
X107875987Y-98958400D02*
X109467302Y-98958400D01*
X107729408Y-99104979D02*
X107875987Y-98958400D01*
X109467302Y-98958400D02*
X110386000Y-99877098D01*
%TO.N,/A9*%
X94742000Y-98145600D02*
X94742000Y-94234000D01*
X125886000Y-104792800D02*
X126060200Y-104967000D01*
X125886000Y-102754000D02*
X125886000Y-104792800D01*
%TO.N,/RFSH-*%
X120386000Y-99921800D02*
X120386000Y-100954000D01*
X120816000Y-99491800D02*
X120386000Y-99921800D01*
%TO.N,/IORQ-*%
X116386001Y-99799801D02*
X116386001Y-100954000D01*
X116662200Y-99523602D02*
X116386001Y-99799801D01*
X116662200Y-99517200D02*
X116662200Y-99523602D01*
%TO.N,/MREQ-*%
X135699000Y-107251000D02*
X137922000Y-109474000D01*
X116496600Y-107251000D02*
X135699000Y-107251000D01*
X115886000Y-106640400D02*
X116496600Y-107251000D01*
X115886000Y-102754000D02*
X115886000Y-106640400D01*
%TO.N,/NMI-*%
X130979000Y-107611000D02*
X132842000Y-109474000D01*
X116196200Y-107611000D02*
X130979000Y-107611000D01*
X114886000Y-106300800D02*
X116196200Y-107611000D01*
X114886000Y-102754001D02*
X114886000Y-106300800D01*
%TO.N,/HALT-*%
X115386000Y-99790400D02*
X115386000Y-100954000D01*
X115163600Y-99568000D02*
X115386000Y-99790400D01*
X115087400Y-99568000D02*
X115163600Y-99568000D01*
%TO.N,/D1*%
X126259000Y-107971000D02*
X127762000Y-109474000D01*
X115997400Y-107971000D02*
X126259000Y-107971000D01*
X113886000Y-105859600D02*
X115997400Y-107971000D01*
X113886000Y-102754000D02*
X113886000Y-105859600D01*
%TO.N,/D7*%
X121539000Y-108331000D02*
X122682000Y-109474000D01*
X112886000Y-106993200D02*
X114223800Y-108331000D01*
X114223800Y-108331000D02*
X121539000Y-108331000D01*
X112886000Y-102754000D02*
X112886000Y-106993200D01*
%TO.N,/D0*%
X113386000Y-100076400D02*
X112852200Y-99542600D01*
X113386000Y-100954000D02*
X113386000Y-100076400D01*
%TO.N,/D2*%
X112386000Y-100041600D02*
X111887000Y-99542600D01*
X112386000Y-100953999D02*
X112386000Y-100041600D01*
%TO.N,/D6*%
X111386000Y-100077691D02*
X110837546Y-99529237D01*
X111386000Y-100954000D02*
X111386000Y-100077691D01*
%TO.N,/D5*%
X110886000Y-103845600D02*
X110642400Y-104089200D01*
X110886000Y-102754000D02*
X110886000Y-103845600D01*
%TO.N,/D4*%
X107442000Y-108432600D02*
X107442000Y-109474000D01*
X111886000Y-103988600D02*
X107442000Y-108432600D01*
X111886000Y-102754000D02*
X111886000Y-103988600D01*
%TO.N,/A13*%
X102006400Y-104749600D02*
X97282000Y-109474000D01*
X107079702Y-104749600D02*
X102006400Y-104749600D01*
X107886000Y-103943302D02*
X107079702Y-104749600D01*
X107886000Y-102754000D02*
X107886000Y-103943302D01*
%TO.N,/A14*%
X103500600Y-99674000D02*
X98374200Y-104800400D01*
X107696001Y-99674000D02*
X103500600Y-99674000D01*
X108385999Y-100363998D02*
X107696001Y-99674000D01*
%TO.N,/A12*%
X104182000Y-100034000D02*
X94742000Y-109474000D01*
X106466001Y-100034000D02*
X104182000Y-100034000D01*
X107386001Y-100954000D02*
X106466001Y-100034000D01*
%TO.N,/A11*%
X106886000Y-104137200D02*
X106883200Y-104140000D01*
X106886000Y-102754000D02*
X106886000Y-104137200D01*
%TO.N,/GND*%
X109886000Y-103778800D02*
X109601000Y-104063800D01*
X109886000Y-102754001D02*
X109886000Y-103778800D01*
X108886000Y-103762800D02*
X108585000Y-104063800D01*
X108886000Y-102754000D02*
X108886000Y-103762800D01*
%TO.N,/CLK*%
X109386000Y-99683200D02*
X109245400Y-99542600D01*
X109386000Y-100954000D02*
X109386000Y-99683200D01*
%TD*%
M02*
