%TF.GenerationSoftware,KiCad,Pcbnew,9.0.9*%
%TF.CreationDate,2026-08-16T17:46:03-07:00*%
%TF.ProjectId,ZID_POD,5a49445f-504f-4442-9e6b-696361645f70,PR1.0*%
%TF.SameCoordinates,Original*%
%TF.FileFunction,Copper,L1,Top*%
%TF.FilePolarity,Positive*%
%FSLAX46Y46*%
G04 Gerber Fmt 4.6, Leading zero omitted, Abs format (unit mm)*
G04 Created by KiCad (PCBNEW 9.0.9) date 2026-08-16 17:46:03*
%MOMM*%
%LPD*%
G01*
G04 APERTURE LIST*
G04 Aperture macros list*
%AMRoundRect*
0 Rectangle with rounded corners*
0 $1 Rounding radius*
0 $2 $3 $4 $5 $6 $7 $8 $9 X,Y pos of 4 corners*
0 Add a 4 corners polygon primitive as box body*
4,1,4,$2,$3,$4,$5,$6,$7,$8,$9,$2,$3,0*
0 Add four circle primitives for the rounded corners*
1,1,$1+$1,$2,$3*
1,1,$1+$1,$4,$5*
1,1,$1+$1,$6,$7*
1,1,$1+$1,$8,$9*
0 Add four rect primitives between the rounded corners*
20,1,$1+$1,$2,$3,$4,$5,0*
20,1,$1+$1,$4,$5,$6,$7,0*
20,1,$1+$1,$6,$7,$8,$9,0*
20,1,$1+$1,$8,$9,$2,$3,0*%
G04 Aperture macros list end*
%TA.AperFunction,ComponentPad*%
%ADD10RoundRect,0.250000X0.550000X-0.550000X0.550000X0.550000X-0.550000X0.550000X-0.550000X-0.550000X0*%
%TD*%
%TA.AperFunction,ComponentPad*%
%ADD11C,1.600000*%
%TD*%
%TA.AperFunction,SMDPad,CuDef*%
%ADD12R,0.300000X1.300000*%
%TD*%
%TA.AperFunction,SMDPad,CuDef*%
%ADD13R,2.000000X1.800000*%
%TD*%
%TA.AperFunction,ViaPad*%
%ADD14C,0.600000*%
%TD*%
%TA.AperFunction,Conductor*%
%ADD15C,0.180000*%
%TD*%
G04 APERTURE END LIST*
D10*
%TO.P,Z80-SKT1,1,A11*%
%TO.N,/A11*%
X92202000Y-109474000D03*
D11*
%TO.P,Z80-SKT1,2,A12*%
%TO.N,/A12*%
X94742000Y-109474000D03*
%TO.P,Z80-SKT1,3,A13*%
%TO.N,/A13*%
X97282000Y-109474000D03*
%TO.P,Z80-SKT1,4,A14*%
%TO.N,/A14*%
X99822000Y-109474000D03*
%TO.P,Z80-SKT1,5,A15*%
%TO.N,/A15*%
X102362000Y-109474000D03*
%TO.P,Z80-SKT1,6,CLK*%
%TO.N,/CLK*%
X104902000Y-109474000D03*
%TO.P,Z80-SKT1,7,D4*%
%TO.N,/D4*%
X107442000Y-109474000D03*
%TO.P,Z80-SKT1,8,D3*%
%TO.N,/D3*%
X109982000Y-109474000D03*
%TO.P,Z80-SKT1,9,D5*%
%TO.N,/D5*%
X112522000Y-109474000D03*
%TO.P,Z80-SKT1,10,D6*%
%TO.N,/D6*%
X115062000Y-109474000D03*
%TO.P,Z80-SKT1,11,GND/NC*%
%TO.N,unconnected-(Z80-SKT1-GND{slash}NC-Pad11)*%
X117602000Y-109474000D03*
%TO.P,Z80-SKT1,12,D2*%
%TO.N,/D2*%
X120142000Y-109474000D03*
%TO.P,Z80-SKT1,13,D7*%
%TO.N,/D7*%
X122682000Y-109474000D03*
%TO.P,Z80-SKT1,14,D0*%
%TO.N,/D0*%
X125222000Y-109474000D03*
%TO.P,Z80-SKT1,15,D1*%
%TO.N,/D1*%
X127762000Y-109474000D03*
%TO.P,Z80-SKT1,16,~{INT}*%
%TO.N,/INT-*%
X130302000Y-109474000D03*
%TO.P,Z80-SKT1,17,~{NMI}*%
%TO.N,/NMI-*%
X132842000Y-109474000D03*
%TO.P,Z80-SKT1,18,~{HALT}*%
%TO.N,/HALT-*%
X135382000Y-109474000D03*
%TO.P,Z80-SKT1,19,~{MREQ}*%
%TO.N,/MREQ-*%
X137922000Y-109474000D03*
%TO.P,Z80-SKT1,20,~{IORQ}*%
%TO.N,/IORQ-*%
X140462000Y-109474000D03*
%TO.P,Z80-SKT1,21,~{RD}*%
%TO.N,/RD-*%
X140462000Y-94234000D03*
%TO.P,Z80-SKT1,22,~{WR}*%
%TO.N,/WR-*%
X137922000Y-94234000D03*
%TO.P,Z80-SKT1,23,~{BUSACK}*%
%TO.N,/BACK-*%
X135382000Y-94234000D03*
%TO.P,Z80-SKT1,24,~{WAIT}*%
%TO.N,/WAIT-*%
X132842000Y-94234000D03*
%TO.P,Z80-SKT1,25,~{BUSREQ}*%
%TO.N,/BREQ-*%
X130302000Y-94234000D03*
%TO.P,Z80-SKT1,26,~{RESET}*%
%TO.N,/RST-*%
X127762000Y-94234000D03*
%TO.P,Z80-SKT1,27,~{M1}*%
%TO.N,/M1-*%
X125222000Y-94234000D03*
%TO.P,Z80-SKT1,28,~{RFSH}*%
%TO.N,/RFSH-*%
X122682000Y-94234000D03*
%TO.P,Z80-SKT1,29,GND*%
%TO.N,/GND*%
X120142000Y-94234000D03*
%TO.P,Z80-SKT1,30,A0*%
%TO.N,/A0*%
X117602000Y-94234000D03*
%TO.P,Z80-SKT1,31,A1*%
%TO.N,/A1*%
X115062000Y-94234000D03*
%TO.P,Z80-SKT1,32,A2*%
%TO.N,/A2*%
X112522000Y-94234000D03*
%TO.P,Z80-SKT1,33,A3*%
%TO.N,/A3*%
X109982000Y-94234000D03*
%TO.P,Z80-SKT1,34,A4*%
%TO.N,/A4*%
X107442000Y-94234000D03*
%TO.P,Z80-SKT1,35,A5*%
%TO.N,/A5*%
X104902000Y-94234000D03*
%TO.P,Z80-SKT1,36,A6*%
%TO.N,/A6*%
X102362000Y-94234000D03*
%TO.P,Z80-SKT1,37,A7*%
%TO.N,/A7*%
X99822000Y-94234000D03*
%TO.P,Z80-SKT1,38,A8*%
%TO.N,/A8*%
X97282000Y-94234000D03*
%TO.P,Z80-SKT1,39,A9*%
%TO.N,/A9*%
X94742000Y-94234000D03*
%TO.P,Z80-SKT1,40,A10*%
%TO.N,/A10*%
X92202000Y-94234000D03*
%TD*%
D12*
%TO.P,J1,1,Pin_1*%
%TO.N,/A10*%
X106935999Y-98806000D03*
%TO.P,J1,2,Pin_2*%
%TO.N,/A9*%
X107436000Y-98806000D03*
%TO.P,J1,3,Pin_3*%
%TO.N,/A8*%
X107936000Y-98806000D03*
%TO.P,J1,4,Pin_4*%
%TO.N,/A7*%
X108436001Y-98806000D03*
%TO.P,J1,5,Pin_5*%
%TO.N,/A6*%
X108936000Y-98806000D03*
%TO.P,J1,6,Pin_6*%
%TO.N,/A5*%
X109436000Y-98806000D03*
%TO.P,J1,7,Pin_7*%
%TO.N,/A4*%
X109936000Y-98806000D03*
%TO.P,J1,8,Pin_8*%
%TO.N,/A3*%
X110436000Y-98806000D03*
%TO.P,J1,9,Pin_9*%
%TO.N,/A2*%
X110936000Y-98805999D03*
%TO.P,J1,10,Pin_10*%
%TO.N,/A1*%
X111436000Y-98806000D03*
%TO.P,J1,11,Pin_11*%
%TO.N,/A0*%
X111936000Y-98806000D03*
%TO.P,J1,12,Pin_12*%
%TO.N,/A15*%
X112436000Y-98806000D03*
%TO.P,J1,13,Pin_13*%
%TO.N,/RFSH-*%
X112936000Y-98806000D03*
%TO.P,J1,14,Pin_14*%
%TO.N,/M1-*%
X113436000Y-98805999D03*
%TO.P,J1,15,Pin_15*%
%TO.N,/RST-*%
X113936000Y-98806000D03*
%TO.P,J1,16,Pin_16*%
%TO.N,/BREQ-*%
X114436000Y-98806000D03*
%TO.P,J1,17,Pin_17*%
%TO.N,/WAIT-*%
X114936001Y-98806000D03*
%TO.P,J1,18,Pin_18*%
%TO.N,/BACK-*%
X115436000Y-98806000D03*
%TO.P,J1,19,Pin_19*%
%TO.N,/WR-*%
X115935999Y-98806000D03*
%TO.P,J1,20,Pin_20*%
%TO.N,/RD-*%
X116436000Y-98806000D03*
%TO.P,J1,21,Pin_21*%
%TO.N,/IORQ-*%
X116936000Y-98806000D03*
%TO.P,J1,22,Pin_22*%
%TO.N,/MREQ-*%
X117436001Y-98806000D03*
%TO.P,J1,23,Pin_23*%
%TO.N,/HALT-*%
X117936000Y-98806000D03*
%TO.P,J1,24,Pin_24*%
%TO.N,/NMI-*%
X118435999Y-98806000D03*
%TO.P,J1,25,Pin_25*%
%TO.N,/INT-*%
X118936000Y-98806000D03*
%TO.P,J1,26,Pin_26*%
%TO.N,/D1*%
X119436000Y-98806000D03*
%TO.P,J1,27,Pin_27*%
%TO.N,/D0*%
X119936000Y-98805999D03*
%TO.P,J1,28,Pin_28*%
%TO.N,/D7*%
X120436000Y-98806000D03*
%TO.P,J1,29,Pin_29*%
%TO.N,/D2*%
X120936000Y-98806000D03*
%TO.P,J1,30,Pin_30*%
%TO.N,/D4*%
X121436000Y-98806000D03*
%TO.P,J1,31,Pin_31*%
%TO.N,/D6*%
X121936000Y-98806000D03*
%TO.P,J1,32,Pin_32*%
%TO.N,/D5*%
X122436000Y-98805999D03*
%TO.P,J1,33,Pin_33*%
%TO.N,/D3*%
X122936000Y-98806000D03*
%TO.P,J1,34,Pin_34*%
%TO.N,/GND*%
X123436000Y-98806000D03*
%TO.P,J1,35,Pin_35*%
%TO.N,/CLK*%
X123936000Y-98806000D03*
%TO.P,J1,36,Pin_36*%
%TO.N,/GND*%
X124436000Y-98806000D03*
%TO.P,J1,37,Pin_37*%
%TO.N,/A14*%
X124935999Y-98806000D03*
%TO.P,J1,38,Pin_38*%
%TO.N,/A13*%
X125436000Y-98806000D03*
%TO.P,J1,39,Pin_39*%
%TO.N,/A12*%
X125936000Y-98806000D03*
%TO.P,J1,40,Pin_40*%
%TO.N,/A11*%
X126436001Y-98806000D03*
D13*
%TO.P,J1,MP*%
%TO.N,N/C*%
X105132400Y-101536800D03*
X128239600Y-101536800D03*
%TD*%
D14*
%TO.N,/D1*%
X119366000Y-106728742D03*
%TO.N,/GND*%
X124434600Y-101142800D03*
X123444000Y-99974400D03*
%TO.N,/MREQ-*%
X117088621Y-104428018D03*
%TO.N,/A14*%
X125026822Y-100635181D03*
%TO.N,/D0*%
X119839085Y-107400279D03*
%TO.N,/CLK*%
X123825112Y-100654957D03*
%TO.N,/INT-*%
X118866000Y-105948781D03*
%TO.N,/D5*%
X122504200Y-102858800D03*
%TO.N,/A11*%
X127254000Y-98831400D03*
%TO.N,/A12*%
X126451922Y-100087354D03*
%TO.N,/RD-*%
X116366000Y-99845871D03*
%TO.N,/NMI-*%
X118366000Y-105334709D03*
%TO.N,/D6*%
X121920000Y-99847400D03*
%TO.N,/HALT-*%
X117843464Y-104755607D03*
%TO.N,/D7*%
X120366000Y-107975400D03*
%TO.N,/A13*%
X125681908Y-100211783D03*
%TO.N,/D3*%
X123222741Y-102555315D03*
%TO.N,/A15*%
X102362000Y-102743000D03*
%TO.N,/D4*%
X121513600Y-101718800D03*
%TO.N,/IORQ-*%
X116687600Y-103759000D03*
%TD*%
D15*
%TO.N,/D1*%
X119436000Y-106658742D02*
X119366000Y-106728742D01*
X119436000Y-98806000D02*
X119436000Y-106658742D01*
%TO.N,/BACK-*%
X115436000Y-98104032D02*
X116076032Y-97464000D01*
X115436000Y-98806000D02*
X115436000Y-98104032D01*
X132152000Y-97464000D02*
X135382000Y-94234000D01*
X116076032Y-97464000D02*
X132152000Y-97464000D01*
%TO.N,/GND*%
X123436000Y-98806000D02*
X123436000Y-99966400D01*
X124434600Y-101142800D02*
X124434600Y-99951800D01*
X123436000Y-99966400D02*
X123444000Y-99974400D01*
X124436000Y-99950400D02*
X124436000Y-98806000D01*
X124434600Y-99951800D02*
X124436000Y-99950400D01*
%TO.N,/A5*%
X105928791Y-94234000D02*
X104902000Y-94234000D01*
X109436000Y-98806000D02*
X109436000Y-97421800D01*
X106998791Y-95304000D02*
X105928791Y-94234000D01*
X109436000Y-97421800D02*
X107318200Y-95304000D01*
X107318200Y-95304000D02*
X106998791Y-95304000D01*
%TO.N,/RST-*%
X113936000Y-98806000D02*
X113936000Y-97985115D01*
X125612000Y-96384000D02*
X127762000Y-94234000D01*
X115537115Y-96384000D02*
X125612000Y-96384000D01*
X113936000Y-97985115D02*
X115537115Y-96384000D01*
%TO.N,/A6*%
X107721400Y-96443800D02*
X104571800Y-96443800D01*
X108936000Y-98806000D02*
X108936000Y-97658400D01*
X108936000Y-97658400D02*
X107721400Y-96443800D01*
X104571800Y-96443800D02*
X102362000Y-94234000D01*
%TO.N,/MREQ-*%
X117088621Y-104428018D02*
X117436001Y-104080638D01*
X117436001Y-104080638D02*
X117436001Y-98806000D01*
%TO.N,/A7*%
X108436001Y-97947770D02*
X107482031Y-96993800D01*
X108436001Y-98806000D02*
X108436001Y-97947770D01*
X102581800Y-96993800D02*
X99822000Y-94234000D01*
X107482031Y-96993800D02*
X102581800Y-96993800D01*
%TO.N,/A0*%
X111936000Y-98806000D02*
X111936000Y-97966000D01*
X114598000Y-95304000D02*
X116532000Y-95304000D01*
X116532000Y-95304000D02*
X117602000Y-94234000D01*
X111936000Y-97966000D02*
X114598000Y-95304000D01*
%TO.N,/A14*%
X124935999Y-98806000D02*
X124935999Y-100544358D01*
X124935999Y-100544358D02*
X125026822Y-100635181D01*
%TO.N,/D0*%
X119936000Y-98805999D02*
X119936000Y-107303364D01*
X119936000Y-107303364D02*
X119839085Y-107400279D01*
%TO.N,/A1*%
X111436000Y-98806000D02*
X111436000Y-97860000D01*
X111436000Y-97860000D02*
X115062000Y-94234000D01*
%TO.N,/A8*%
X100401800Y-97353800D02*
X97282000Y-94234000D01*
X107936000Y-98806000D02*
X107936000Y-97956885D01*
X107936000Y-97956885D02*
X107332915Y-97353800D01*
X107332915Y-97353800D02*
X100401800Y-97353800D01*
%TO.N,/CLK*%
X124028200Y-99738200D02*
X124028200Y-100451869D01*
X124028200Y-100451869D02*
X123825112Y-100654957D01*
X123936000Y-99646000D02*
X124028200Y-99738200D01*
X123936000Y-98806000D02*
X123936000Y-99646000D01*
%TO.N,/INT-*%
X118936000Y-105894326D02*
X118936000Y-98806000D01*
X118881545Y-105948781D02*
X118936000Y-105894326D01*
X118866000Y-105948781D02*
X118881545Y-105948781D01*
%TO.N,/D5*%
X122504200Y-102858800D02*
X122504200Y-100485400D01*
X122504200Y-100485400D02*
X122490000Y-100471200D01*
X122490000Y-100471200D02*
X122490000Y-98859999D01*
%TO.N,/A10*%
X106629200Y-100406200D02*
X106589800Y-100366800D01*
X106935999Y-100099401D02*
X106629200Y-100406200D01*
X98334800Y-100366800D02*
X92202000Y-94234000D01*
X106935999Y-98806000D02*
X106935999Y-100099401D01*
X106589800Y-100366800D02*
X98334800Y-100366800D01*
%TO.N,/A11*%
X126436001Y-98806000D02*
X127228600Y-98806000D01*
X127228600Y-98806000D02*
X127254000Y-98831400D01*
%TO.N,/A9*%
X107436000Y-98806000D02*
X107436000Y-97966001D01*
X107436000Y-97966001D02*
X107183799Y-97713800D01*
X98221800Y-97713800D02*
X94742000Y-94234000D01*
X107183799Y-97713800D02*
X98221800Y-97713800D01*
%TO.N,/A2*%
X110936000Y-95820000D02*
X112522000Y-94234000D01*
X110936000Y-98805999D02*
X110936000Y-95820000D01*
%TO.N,/A12*%
X125936000Y-98806000D02*
X125936000Y-99571432D01*
X125936000Y-99571432D02*
X126451922Y-100087354D01*
%TO.N,/WR-*%
X134332000Y-97824000D02*
X137922000Y-94234000D01*
X116225148Y-97824000D02*
X134332000Y-97824000D01*
X115935999Y-98806000D02*
X115935999Y-98113149D01*
X115935999Y-98113149D02*
X116225148Y-97824000D01*
%TO.N,/RD-*%
X116366000Y-99845871D02*
X116366000Y-99584800D01*
X116366000Y-99584800D02*
X116436000Y-99514800D01*
X116436000Y-99514800D02*
X116436000Y-98806000D01*
%TO.N,/NMI-*%
X118366000Y-105271925D02*
X118435999Y-105201926D01*
X118435999Y-105201926D02*
X118435999Y-98806000D01*
X118366000Y-105334709D02*
X118366000Y-105271925D01*
%TO.N,/A4*%
X109936000Y-96728000D02*
X107442000Y-94234000D01*
X109936000Y-98806000D02*
X109936000Y-96728000D01*
%TO.N,/BREQ-*%
X114436000Y-98085800D02*
X115777800Y-96744000D01*
X114436000Y-98806000D02*
X114436000Y-98085800D01*
X127792000Y-96744000D02*
X130302000Y-94234000D01*
X115777800Y-96744000D02*
X127792000Y-96744000D01*
%TO.N,/D6*%
X121936000Y-99831400D02*
X121920000Y-99847400D01*
X121936000Y-98806000D02*
X121936000Y-99831400D01*
%TO.N,/M1-*%
X113436000Y-97975999D02*
X115387999Y-96024000D01*
X123432000Y-96024000D02*
X125222000Y-94234000D01*
X115387999Y-96024000D02*
X123432000Y-96024000D01*
X113436000Y-98805999D02*
X113436000Y-97975999D01*
%TO.N,/D2*%
X120936000Y-98806000D02*
X120936000Y-108680000D01*
X120936000Y-108680000D02*
X120142000Y-109474000D01*
%TO.N,/RFSH-*%
X121252000Y-95664000D02*
X122682000Y-94234000D01*
X112936000Y-97965999D02*
X115237999Y-95664000D01*
X115237999Y-95664000D02*
X121252000Y-95664000D01*
X112936000Y-98806000D02*
X112936000Y-97965999D01*
%TO.N,/HALT-*%
X117874597Y-104724474D02*
X117874597Y-104491922D01*
X117874597Y-104491922D02*
X117936000Y-104430519D01*
X117936000Y-104430519D02*
X117936000Y-98806000D01*
X117843464Y-104755607D02*
X117874597Y-104724474D01*
%TO.N,/D7*%
X120436000Y-107905400D02*
X120366000Y-107975400D01*
X120436000Y-98806000D02*
X120436000Y-107905400D01*
%TO.N,/WAIT-*%
X114936001Y-98094915D02*
X115926916Y-97104000D01*
X114936001Y-98806000D02*
X114936001Y-98094915D01*
X115926916Y-97104000D02*
X129972000Y-97104000D01*
X129972000Y-97104000D02*
X132842000Y-94234000D01*
%TO.N,/A13*%
X125436000Y-98806000D02*
X125436000Y-99965875D01*
X125436000Y-99965875D02*
X125681908Y-100211783D01*
%TO.N,/D3*%
X122874000Y-102206574D02*
X123222741Y-102555315D01*
X122874000Y-98868000D02*
X122874000Y-102206574D01*
X122936000Y-98806000D02*
X122874000Y-98868000D01*
%TO.N,/A15*%
X112436000Y-100015400D02*
X112436000Y-98806000D01*
X109708400Y-102743000D02*
X112436000Y-100015400D01*
X102362000Y-102743000D02*
X109708400Y-102743000D01*
%TO.N,/D4*%
X121436000Y-99525298D02*
X121350000Y-99611298D01*
X121350000Y-99611298D02*
X121350000Y-101555200D01*
X121436000Y-98806000D02*
X121436000Y-99525298D01*
X121350000Y-101555200D02*
X121513600Y-101718800D01*
%TO.N,/IORQ-*%
X116738400Y-103759000D02*
X116936000Y-103561400D01*
X116936000Y-103561400D02*
X116936000Y-98806000D01*
X116687600Y-103759000D02*
X116738400Y-103759000D01*
%TO.N,/A3*%
X110436000Y-98806000D02*
X110436000Y-94688000D01*
%TD*%
M02*
