%TF.GenerationSoftware,KiCad,Pcbnew,9.0.9*%
%TF.CreationDate,2026-08-16T17:46:03-07:00*%
%TF.ProjectId,ZID_POD,5a49445f-504f-4442-9e6b-696361645f70,PR1.0*%
%TF.SameCoordinates,Original*%
%TF.FileFunction,Copper,L2,Inr*%
%TF.FilePolarity,Positive*%
%FSLAX46Y46*%
G04 Gerber Fmt 4.6, Leading zero omitted, Abs format (unit mm)*
G04 Created by KiCad (PCBNEW 9.0.9) date 2026-08-16 17:46:03*
%MOMM*%
%LPD*%
G01*
G04 APERTURE LIST*
G04 Aperture macros list*
%AMRoundRect*
0 Rectangle with rounded corners*
0 $1 Rounding radius*
0 $2 $3 $4 $5 $6 $7 $8 $9 X,Y pos of 4 corners*
0 Add a 4 corners polygon primitive as box body*
4,1,4,$2,$3,$4,$5,$6,$7,$8,$9,$2,$3,0*
0 Add four circle primitives for the rounded corners*
1,1,$1+$1,$2,$3*
1,1,$1+$1,$4,$5*
1,1,$1+$1,$6,$7*
1,1,$1+$1,$8,$9*
0 Add four rect primitives between the rounded corners*
20,1,$1+$1,$2,$3,$4,$5,0*
20,1,$1+$1,$4,$5,$6,$7,0*
20,1,$1+$1,$6,$7,$8,$9,0*
20,1,$1+$1,$8,$9,$2,$3,0*%
G04 Aperture macros list end*
%TA.AperFunction,ComponentPad*%
%ADD10RoundRect,0.250000X0.550000X-0.550000X0.550000X0.550000X-0.550000X0.550000X-0.550000X-0.550000X0*%
%TD*%
%TA.AperFunction,ComponentPad*%
%ADD11C,1.600000*%
%TD*%
%TA.AperFunction,ViaPad*%
%ADD12C,0.600000*%
%TD*%
G04 APERTURE END LIST*
D10*
%TO.N,/A11*%
%TO.C,Z80-SKT1*%
X92202000Y-109474000D03*
D11*
%TO.N,/A12*%
X94742000Y-109474000D03*
%TO.N,/A13*%
X97282000Y-109474000D03*
%TO.N,/A14*%
X99822000Y-109474000D03*
%TO.N,/A15*%
X102362000Y-109474000D03*
%TO.N,/CLK*%
X104902000Y-109474000D03*
%TO.N,/D4*%
X107442000Y-109474000D03*
%TO.N,/D3*%
X109982000Y-109474000D03*
%TO.N,/D5*%
X112522000Y-109474000D03*
%TO.N,/D6*%
X115062000Y-109474000D03*
%TO.N,unconnected-(Z80-SKT1-GND{slash}NC-Pad11)*%
X117602000Y-109474000D03*
%TO.N,/D2*%
X120142000Y-109474000D03*
%TO.N,/D7*%
X122682000Y-109474000D03*
%TO.N,/D0*%
X125222000Y-109474000D03*
%TO.N,/D1*%
X127762000Y-109474000D03*
%TO.N,/INT-*%
X130302000Y-109474000D03*
%TO.N,/NMI-*%
X132842000Y-109474000D03*
%TO.N,/HALT-*%
X135382000Y-109474000D03*
%TO.N,/MREQ-*%
X137922000Y-109474000D03*
%TO.N,/IORQ-*%
X140462000Y-109474000D03*
%TO.N,/RD-*%
X140462000Y-94234000D03*
%TO.N,/WR-*%
X137922000Y-94234000D03*
%TO.N,/BACK-*%
X135382000Y-94234000D03*
%TO.N,/WAIT-*%
X132842000Y-94234000D03*
%TO.N,/BREQ-*%
X130302000Y-94234000D03*
%TO.N,/RST-*%
X127762000Y-94234000D03*
%TO.N,/M1-*%
X125222000Y-94234000D03*
%TO.N,/RFSH-*%
X122682000Y-94234000D03*
%TO.N,/GND*%
X120142000Y-94234000D03*
%TO.N,/A0*%
X117602000Y-94234000D03*
%TO.N,/A1*%
X115062000Y-94234000D03*
%TO.N,/A2*%
X112522000Y-94234000D03*
%TO.N,/A3*%
X109982000Y-94234000D03*
%TO.N,/A4*%
X107442000Y-94234000D03*
%TO.N,/A5*%
X104902000Y-94234000D03*
%TO.N,/A6*%
X102362000Y-94234000D03*
%TO.N,/A7*%
X99822000Y-94234000D03*
%TO.N,/A8*%
X97282000Y-94234000D03*
%TO.N,/A9*%
X94742000Y-94234000D03*
%TO.N,/A10*%
X92202000Y-94234000D03*
%TD*%
D12*
%TO.N,/D1*%
X119366000Y-106728742D03*
%TO.N,/GND*%
X124434600Y-101142800D03*
X123444000Y-99974400D03*
%TO.N,/MREQ-*%
X117088621Y-104428018D03*
%TO.N,/A14*%
X125026822Y-100635181D03*
%TO.N,/D0*%
X119839085Y-107400279D03*
%TO.N,/CLK*%
X123825112Y-100654957D03*
%TO.N,/INT-*%
X118866000Y-105948781D03*
%TO.N,/D5*%
X122504200Y-102858800D03*
%TO.N,/A11*%
X127254000Y-98831400D03*
%TO.N,/A12*%
X126451922Y-100087354D03*
%TO.N,/RD-*%
X116366000Y-99845871D03*
%TO.N,/NMI-*%
X118366000Y-105334709D03*
%TO.N,/D6*%
X121920000Y-99847400D03*
%TO.N,/HALT-*%
X117843464Y-104755607D03*
%TO.N,/D7*%
X120366000Y-107975400D03*
%TO.N,/A13*%
X125681908Y-100211783D03*
%TO.N,/D3*%
X123222741Y-102555315D03*
%TO.N,/A15*%
X102362000Y-102743000D03*
%TO.N,/D4*%
X121513600Y-101718800D03*
%TO.N,/IORQ-*%
X116687600Y-103759000D03*
%TD*%
%TA.AperFunction,Conductor*%
%TO.N,/GND*%
G36*
X120045713Y-92721494D02*
G01*
X120089862Y-92772446D01*
X120099457Y-92839178D01*
X120071450Y-92900504D01*
X120014734Y-92936953D01*
X119999742Y-92940327D01*
X119837583Y-92966009D01*
X119642979Y-93029241D01*
X119642968Y-93029245D01*
X119460653Y-93122138D01*
X119460647Y-93122142D01*
X119416077Y-93154524D01*
X120095553Y-93834000D01*
X120089339Y-93834000D01*
X119987606Y-93861259D01*
X119896394Y-93913920D01*
X119821920Y-93988394D01*
X119769259Y-94079606D01*
X119742000Y-94181339D01*
X119742000Y-94187553D01*
X119062524Y-93508077D01*
X119030142Y-93552647D01*
X119030138Y-93552653D01*
X118969125Y-93672399D01*
X118922833Y-93721413D01*
X118857391Y-93737619D01*
X118793577Y-93715872D01*
X118755907Y-93672398D01*
X118699410Y-93561515D01*
X118699407Y-93561511D01*
X118699406Y-93561509D01*
X118580694Y-93398116D01*
X118437884Y-93255306D01*
X118437882Y-93255304D01*
X118437879Y-93255302D01*
X118328152Y-93175581D01*
X118274491Y-93136594D01*
X118274490Y-93136593D01*
X118274488Y-93136592D01*
X118274489Y-93136592D01*
X118094544Y-93044906D01*
X118094543Y-93044905D01*
X118094540Y-93044904D01*
X118039021Y-93026865D01*
X117902459Y-92982493D01*
X117734575Y-92955903D01*
X117702982Y-92950900D01*
X117501018Y-92950900D01*
X117301540Y-92982493D01*
X117109466Y-93044902D01*
X117109460Y-93044904D01*
X117109458Y-93044904D01*
X117109455Y-93044906D01*
X116929510Y-93136592D01*
X116766120Y-93255302D01*
X116766117Y-93255304D01*
X116623304Y-93398117D01*
X116623302Y-93398120D01*
X116504592Y-93561510D01*
X116438609Y-93691011D01*
X116392318Y-93740025D01*
X116326876Y-93756231D01*
X116263061Y-93734484D01*
X116225391Y-93691011D01*
X116159407Y-93561510D01*
X116040697Y-93398120D01*
X116040695Y-93398117D01*
X115897882Y-93255304D01*
X115897879Y-93255302D01*
X115788152Y-93175581D01*
X115734491Y-93136594D01*
X115734490Y-93136593D01*
X115734488Y-93136592D01*
X115734489Y-93136592D01*
X115554544Y-93044906D01*
X115554543Y-93044905D01*
X115554540Y-93044904D01*
X115499021Y-93026865D01*
X115362459Y-92982493D01*
X115194575Y-92955903D01*
X115162982Y-92950900D01*
X114961018Y-92950900D01*
X114761540Y-92982493D01*
X114569466Y-93044902D01*
X114569460Y-93044904D01*
X114569458Y-93044904D01*
X114569455Y-93044906D01*
X114389510Y-93136592D01*
X114226120Y-93255302D01*
X114226117Y-93255304D01*
X114083304Y-93398117D01*
X114083302Y-93398120D01*
X113964592Y-93561510D01*
X113898609Y-93691011D01*
X113852318Y-93740025D01*
X113786876Y-93756231D01*
X113723061Y-93734484D01*
X113685391Y-93691011D01*
X113619407Y-93561510D01*
X113500697Y-93398120D01*
X113500695Y-93398117D01*
X113357882Y-93255304D01*
X113357879Y-93255302D01*
X113248152Y-93175581D01*
X113194491Y-93136594D01*
X113194490Y-93136593D01*
X113194488Y-93136592D01*
X113194489Y-93136592D01*
X113014544Y-93044906D01*
X113014543Y-93044905D01*
X113014540Y-93044904D01*
X112959021Y-93026865D01*
X112822459Y-92982493D01*
X112654575Y-92955903D01*
X112622982Y-92950900D01*
X112421018Y-92950900D01*
X112221540Y-92982493D01*
X112029466Y-93044902D01*
X112029460Y-93044904D01*
X112029458Y-93044904D01*
X112029455Y-93044906D01*
X111849510Y-93136592D01*
X111686120Y-93255302D01*
X111686117Y-93255304D01*
X111543304Y-93398117D01*
X111543302Y-93398120D01*
X111424592Y-93561510D01*
X111358609Y-93691011D01*
X111312318Y-93740025D01*
X111246876Y-93756231D01*
X111183061Y-93734484D01*
X111145391Y-93691011D01*
X111079407Y-93561510D01*
X110960697Y-93398120D01*
X110960695Y-93398117D01*
X110817882Y-93255304D01*
X110817879Y-93255302D01*
X110708152Y-93175581D01*
X110654491Y-93136594D01*
X110654490Y-93136593D01*
X110654488Y-93136592D01*
X110654489Y-93136592D01*
X110474544Y-93044906D01*
X110474543Y-93044905D01*
X110474540Y-93044904D01*
X110419021Y-93026865D01*
X110282459Y-92982493D01*
X110114575Y-92955903D01*
X110082982Y-92950900D01*
X109881018Y-92950900D01*
X109681540Y-92982493D01*
X109489466Y-93044902D01*
X109489460Y-93044904D01*
X109489458Y-93044904D01*
X109489455Y-93044906D01*
X109309510Y-93136592D01*
X109146120Y-93255302D01*
X109146117Y-93255304D01*
X109003304Y-93398117D01*
X109003302Y-93398120D01*
X108884592Y-93561510D01*
X108818609Y-93691011D01*
X108772318Y-93740025D01*
X108706876Y-93756231D01*
X108643061Y-93734484D01*
X108605391Y-93691011D01*
X108539407Y-93561510D01*
X108420697Y-93398120D01*
X108420695Y-93398117D01*
X108277882Y-93255304D01*
X108277879Y-93255302D01*
X108168152Y-93175581D01*
X108114491Y-93136594D01*
X108114490Y-93136593D01*
X108114488Y-93136592D01*
X108114489Y-93136592D01*
X107934544Y-93044906D01*
X107934543Y-93044905D01*
X107934540Y-93044904D01*
X107879021Y-93026865D01*
X107742459Y-92982493D01*
X107574575Y-92955903D01*
X107542982Y-92950900D01*
X107341018Y-92950900D01*
X107141540Y-92982493D01*
X106949466Y-93044902D01*
X106949460Y-93044904D01*
X106949458Y-93044904D01*
X106949455Y-93044906D01*
X106769510Y-93136592D01*
X106606120Y-93255302D01*
X106606117Y-93255304D01*
X106463304Y-93398117D01*
X106463302Y-93398120D01*
X106344592Y-93561510D01*
X106278609Y-93691011D01*
X106232318Y-93740025D01*
X106166876Y-93756231D01*
X106103061Y-93734484D01*
X106065391Y-93691011D01*
X105999407Y-93561510D01*
X105880697Y-93398120D01*
X105880695Y-93398117D01*
X105737882Y-93255304D01*
X105737879Y-93255302D01*
X105628152Y-93175581D01*
X105574491Y-93136594D01*
X105574490Y-93136593D01*
X105574488Y-93136592D01*
X105574489Y-93136592D01*
X105394544Y-93044906D01*
X105394543Y-93044905D01*
X105394540Y-93044904D01*
X105339021Y-93026865D01*
X105202459Y-92982493D01*
X105034575Y-92955903D01*
X105002982Y-92950900D01*
X104801018Y-92950900D01*
X104601540Y-92982493D01*
X104409466Y-93044902D01*
X104409460Y-93044904D01*
X104409458Y-93044904D01*
X104409455Y-93044906D01*
X104229510Y-93136592D01*
X104066120Y-93255302D01*
X104066117Y-93255304D01*
X103923304Y-93398117D01*
X103923302Y-93398120D01*
X103804592Y-93561510D01*
X103738609Y-93691011D01*
X103692318Y-93740025D01*
X103626876Y-93756231D01*
X103563061Y-93734484D01*
X103525391Y-93691011D01*
X103459407Y-93561510D01*
X103340697Y-93398120D01*
X103340695Y-93398117D01*
X103197882Y-93255304D01*
X103197879Y-93255302D01*
X103088152Y-93175581D01*
X103034491Y-93136594D01*
X103034490Y-93136593D01*
X103034488Y-93136592D01*
X103034489Y-93136592D01*
X102854544Y-93044906D01*
X102854543Y-93044905D01*
X102854540Y-93044904D01*
X102799021Y-93026865D01*
X102662459Y-92982493D01*
X102494575Y-92955903D01*
X102462982Y-92950900D01*
X102261018Y-92950900D01*
X102061540Y-92982493D01*
X101869466Y-93044902D01*
X101869460Y-93044904D01*
X101869458Y-93044904D01*
X101869455Y-93044906D01*
X101689510Y-93136592D01*
X101526120Y-93255302D01*
X101526117Y-93255304D01*
X101383304Y-93398117D01*
X101383302Y-93398120D01*
X101264592Y-93561510D01*
X101198609Y-93691011D01*
X101152318Y-93740025D01*
X101086876Y-93756231D01*
X101023061Y-93734484D01*
X100985391Y-93691011D01*
X100919407Y-93561510D01*
X100800697Y-93398120D01*
X100800695Y-93398117D01*
X100657882Y-93255304D01*
X100657879Y-93255302D01*
X100548152Y-93175581D01*
X100494491Y-93136594D01*
X100494490Y-93136593D01*
X100494488Y-93136592D01*
X100494489Y-93136592D01*
X100314544Y-93044906D01*
X100314543Y-93044905D01*
X100314540Y-93044904D01*
X100259021Y-93026865D01*
X100122459Y-92982493D01*
X99954575Y-92955903D01*
X99922982Y-92950900D01*
X99721018Y-92950900D01*
X99521540Y-92982493D01*
X99329466Y-93044902D01*
X99329460Y-93044904D01*
X99329458Y-93044904D01*
X99329455Y-93044906D01*
X99149510Y-93136592D01*
X98986120Y-93255302D01*
X98986117Y-93255304D01*
X98843304Y-93398117D01*
X98843302Y-93398120D01*
X98724592Y-93561510D01*
X98658609Y-93691011D01*
X98612318Y-93740025D01*
X98546876Y-93756231D01*
X98483061Y-93734484D01*
X98445391Y-93691011D01*
X98379407Y-93561510D01*
X98260697Y-93398120D01*
X98260695Y-93398117D01*
X98117882Y-93255304D01*
X98117879Y-93255302D01*
X98008152Y-93175581D01*
X97954491Y-93136594D01*
X97954490Y-93136593D01*
X97954488Y-93136592D01*
X97954489Y-93136592D01*
X97774544Y-93044906D01*
X97774543Y-93044905D01*
X97774540Y-93044904D01*
X97719021Y-93026865D01*
X97582459Y-92982493D01*
X97414575Y-92955903D01*
X97382982Y-92950900D01*
X97181018Y-92950900D01*
X96981540Y-92982493D01*
X96789466Y-93044902D01*
X96789460Y-93044904D01*
X96789458Y-93044904D01*
X96789455Y-93044906D01*
X96609510Y-93136592D01*
X96446120Y-93255302D01*
X96446117Y-93255304D01*
X96303304Y-93398117D01*
X96303302Y-93398120D01*
X96184592Y-93561510D01*
X96118609Y-93691011D01*
X96072318Y-93740025D01*
X96006876Y-93756231D01*
X95943061Y-93734484D01*
X95905391Y-93691011D01*
X95839407Y-93561510D01*
X95720697Y-93398120D01*
X95720695Y-93398117D01*
X95577882Y-93255304D01*
X95577879Y-93255302D01*
X95468152Y-93175581D01*
X95414491Y-93136594D01*
X95414490Y-93136593D01*
X95414488Y-93136592D01*
X95414489Y-93136592D01*
X95234544Y-93044906D01*
X95234543Y-93044905D01*
X95234540Y-93044904D01*
X95179021Y-93026865D01*
X95042459Y-92982493D01*
X94874575Y-92955903D01*
X94842982Y-92950900D01*
X94641018Y-92950900D01*
X94441540Y-92982493D01*
X94249466Y-93044902D01*
X94249460Y-93044904D01*
X94249458Y-93044904D01*
X94249455Y-93044906D01*
X94069510Y-93136592D01*
X93906120Y-93255302D01*
X93906117Y-93255304D01*
X93763304Y-93398117D01*
X93763302Y-93398120D01*
X93644592Y-93561510D01*
X93578609Y-93691011D01*
X93532318Y-93740025D01*
X93466876Y-93756231D01*
X93403061Y-93734484D01*
X93365391Y-93691011D01*
X93299407Y-93561510D01*
X93180697Y-93398120D01*
X93180695Y-93398117D01*
X93037882Y-93255304D01*
X93037879Y-93255302D01*
X92928152Y-93175581D01*
X92874491Y-93136594D01*
X92874490Y-93136593D01*
X92874488Y-93136592D01*
X92874489Y-93136592D01*
X92694544Y-93044906D01*
X92694543Y-93044905D01*
X92694540Y-93044904D01*
X92639021Y-93026865D01*
X92502459Y-92982493D01*
X92334575Y-92955903D01*
X92302982Y-92950900D01*
X92101018Y-92950900D01*
X91901540Y-92982493D01*
X91709466Y-93044902D01*
X91709460Y-93044904D01*
X91709458Y-93044904D01*
X91709455Y-93044906D01*
X91529510Y-93136592D01*
X91366120Y-93255302D01*
X91366117Y-93255304D01*
X91223304Y-93398117D01*
X91223302Y-93398120D01*
X91104592Y-93561510D01*
X91012906Y-93741455D01*
X91012902Y-93741466D01*
X90950493Y-93933540D01*
X90918900Y-94133018D01*
X90918900Y-94334981D01*
X90950493Y-94534459D01*
X90973979Y-94606741D01*
X91012904Y-94726540D01*
X91012905Y-94726543D01*
X91012906Y-94726544D01*
X91104592Y-94906489D01*
X91223302Y-95069879D01*
X91223304Y-95069882D01*
X91223306Y-95069884D01*
X91366116Y-95212694D01*
X91529509Y-95331406D01*
X91529511Y-95331407D01*
X91529510Y-95331407D01*
X91557878Y-95345861D01*
X91709460Y-95423096D01*
X91901540Y-95485506D01*
X92101018Y-95517100D01*
X92101023Y-95517100D01*
X92302977Y-95517100D01*
X92302982Y-95517100D01*
X92502460Y-95485506D01*
X92694540Y-95423096D01*
X92874491Y-95331406D01*
X93037884Y-95212694D01*
X93180694Y-95069884D01*
X93299406Y-94906491D01*
X93365391Y-94776987D01*
X93411682Y-94727974D01*
X93477124Y-94711768D01*
X93540939Y-94733515D01*
X93578608Y-94776987D01*
X93596032Y-94811183D01*
X93644592Y-94906489D01*
X93763302Y-95069879D01*
X93763304Y-95069882D01*
X93763306Y-95069884D01*
X93906116Y-95212694D01*
X94069509Y-95331406D01*
X94069511Y-95331407D01*
X94069510Y-95331407D01*
X94097878Y-95345861D01*
X94249460Y-95423096D01*
X94441540Y-95485506D01*
X94641018Y-95517100D01*
X94641023Y-95517100D01*
X94842977Y-95517100D01*
X94842982Y-95517100D01*
X95042460Y-95485506D01*
X95234540Y-95423096D01*
X95414491Y-95331406D01*
X95577884Y-95212694D01*
X95720694Y-95069884D01*
X95839406Y-94906491D01*
X95905391Y-94776987D01*
X95951682Y-94727974D01*
X96017124Y-94711768D01*
X96080939Y-94733515D01*
X96118608Y-94776987D01*
X96136032Y-94811183D01*
X96184592Y-94906489D01*
X96303302Y-95069879D01*
X96303304Y-95069882D01*
X96303306Y-95069884D01*
X96446116Y-95212694D01*
X96609509Y-95331406D01*
X96609511Y-95331407D01*
X96609510Y-95331407D01*
X96637878Y-95345861D01*
X96789460Y-95423096D01*
X96981540Y-95485506D01*
X97181018Y-95517100D01*
X97181023Y-95517100D01*
X97382977Y-95517100D01*
X97382982Y-95517100D01*
X97582460Y-95485506D01*
X97774540Y-95423096D01*
X97954491Y-95331406D01*
X98117884Y-95212694D01*
X98260694Y-95069884D01*
X98379406Y-94906491D01*
X98445391Y-94776987D01*
X98491682Y-94727974D01*
X98557124Y-94711768D01*
X98620939Y-94733515D01*
X98658608Y-94776987D01*
X98676032Y-94811183D01*
X98724592Y-94906489D01*
X98843302Y-95069879D01*
X98843304Y-95069882D01*
X98843306Y-95069884D01*
X98986116Y-95212694D01*
X99149509Y-95331406D01*
X99149511Y-95331407D01*
X99149510Y-95331407D01*
X99177878Y-95345861D01*
X99329460Y-95423096D01*
X99521540Y-95485506D01*
X99721018Y-95517100D01*
X99721023Y-95517100D01*
X99922977Y-95517100D01*
X99922982Y-95517100D01*
X100122460Y-95485506D01*
X100314540Y-95423096D01*
X100494491Y-95331406D01*
X100657884Y-95212694D01*
X100800694Y-95069884D01*
X100919406Y-94906491D01*
X100985391Y-94776987D01*
X101031682Y-94727974D01*
X101097124Y-94711768D01*
X101160939Y-94733515D01*
X101198608Y-94776987D01*
X101216032Y-94811183D01*
X101264592Y-94906489D01*
X101383302Y-95069879D01*
X101383304Y-95069882D01*
X101383306Y-95069884D01*
X101526116Y-95212694D01*
X101689509Y-95331406D01*
X101689511Y-95331407D01*
X101689510Y-95331407D01*
X101717878Y-95345861D01*
X101869460Y-95423096D01*
X102061540Y-95485506D01*
X102261018Y-95517100D01*
X102261023Y-95517100D01*
X102462977Y-95517100D01*
X102462982Y-95517100D01*
X102662460Y-95485506D01*
X102854540Y-95423096D01*
X103034491Y-95331406D01*
X103197884Y-95212694D01*
X103340694Y-95069884D01*
X103459406Y-94906491D01*
X103525391Y-94776987D01*
X103571682Y-94727974D01*
X103637124Y-94711768D01*
X103700939Y-94733515D01*
X103738608Y-94776987D01*
X103756032Y-94811183D01*
X103804592Y-94906489D01*
X103923302Y-95069879D01*
X103923304Y-95069882D01*
X103923306Y-95069884D01*
X104066116Y-95212694D01*
X104229509Y-95331406D01*
X104229511Y-95331407D01*
X104229510Y-95331407D01*
X104257878Y-95345861D01*
X104409460Y-95423096D01*
X104601540Y-95485506D01*
X104801018Y-95517100D01*
X104801023Y-95517100D01*
X105002977Y-95517100D01*
X105002982Y-95517100D01*
X105202460Y-95485506D01*
X105394540Y-95423096D01*
X105574491Y-95331406D01*
X105737884Y-95212694D01*
X105880694Y-95069884D01*
X105999406Y-94906491D01*
X106065391Y-94776987D01*
X106111682Y-94727974D01*
X106177124Y-94711768D01*
X106240939Y-94733515D01*
X106278608Y-94776987D01*
X106296032Y-94811183D01*
X106344592Y-94906489D01*
X106463302Y-95069879D01*
X106463304Y-95069882D01*
X106463306Y-95069884D01*
X106606116Y-95212694D01*
X106769509Y-95331406D01*
X106769511Y-95331407D01*
X106769510Y-95331407D01*
X106797878Y-95345861D01*
X106949460Y-95423096D01*
X107141540Y-95485506D01*
X107341018Y-95517100D01*
X107341023Y-95517100D01*
X107542977Y-95517100D01*
X107542982Y-95517100D01*
X107742460Y-95485506D01*
X107934540Y-95423096D01*
X108114491Y-95331406D01*
X108277884Y-95212694D01*
X108420694Y-95069884D01*
X108539406Y-94906491D01*
X108605391Y-94776987D01*
X108651682Y-94727974D01*
X108717124Y-94711768D01*
X108780939Y-94733515D01*
X108818608Y-94776987D01*
X108836032Y-94811183D01*
X108884592Y-94906489D01*
X109003302Y-95069879D01*
X109003304Y-95069882D01*
X109003306Y-95069884D01*
X109146116Y-95212694D01*
X109309509Y-95331406D01*
X109309511Y-95331407D01*
X109309510Y-95331407D01*
X109337878Y-95345861D01*
X109489460Y-95423096D01*
X109681540Y-95485506D01*
X109881018Y-95517100D01*
X109881023Y-95517100D01*
X110082977Y-95517100D01*
X110082982Y-95517100D01*
X110282460Y-95485506D01*
X110474540Y-95423096D01*
X110654491Y-95331406D01*
X110817884Y-95212694D01*
X110960694Y-95069884D01*
X111079406Y-94906491D01*
X111145391Y-94776987D01*
X111191682Y-94727974D01*
X111257124Y-94711768D01*
X111320939Y-94733515D01*
X111358608Y-94776987D01*
X111376032Y-94811183D01*
X111424592Y-94906489D01*
X111543302Y-95069879D01*
X111543304Y-95069882D01*
X111543306Y-95069884D01*
X111686116Y-95212694D01*
X111849509Y-95331406D01*
X111849511Y-95331407D01*
X111849510Y-95331407D01*
X111877878Y-95345861D01*
X112029460Y-95423096D01*
X112221540Y-95485506D01*
X112421018Y-95517100D01*
X112421023Y-95517100D01*
X112622977Y-95517100D01*
X112622982Y-95517100D01*
X112822460Y-95485506D01*
X113014540Y-95423096D01*
X113194491Y-95331406D01*
X113357884Y-95212694D01*
X113500694Y-95069884D01*
X113619406Y-94906491D01*
X113685391Y-94776987D01*
X113731682Y-94727974D01*
X113797124Y-94711768D01*
X113860939Y-94733515D01*
X113898608Y-94776987D01*
X113916032Y-94811183D01*
X113964592Y-94906489D01*
X114083302Y-95069879D01*
X114083304Y-95069882D01*
X114083306Y-95069884D01*
X114226116Y-95212694D01*
X114389509Y-95331406D01*
X114389511Y-95331407D01*
X114389510Y-95331407D01*
X114417878Y-95345861D01*
X114569460Y-95423096D01*
X114761540Y-95485506D01*
X114961018Y-95517100D01*
X114961023Y-95517100D01*
X115162977Y-95517100D01*
X115162982Y-95517100D01*
X115362460Y-95485506D01*
X115554540Y-95423096D01*
X115734491Y-95331406D01*
X115897884Y-95212694D01*
X116040694Y-95069884D01*
X116159406Y-94906491D01*
X116225391Y-94776987D01*
X116271682Y-94727974D01*
X116337124Y-94711768D01*
X116400939Y-94733515D01*
X116438608Y-94776987D01*
X116456032Y-94811183D01*
X116504592Y-94906489D01*
X116623302Y-95069879D01*
X116623304Y-95069882D01*
X116623306Y-95069884D01*
X116766116Y-95212694D01*
X116929509Y-95331406D01*
X116929511Y-95331407D01*
X116929510Y-95331407D01*
X116957878Y-95345861D01*
X117109460Y-95423096D01*
X117301540Y-95485506D01*
X117501018Y-95517100D01*
X117501023Y-95517100D01*
X117702977Y-95517100D01*
X117702982Y-95517100D01*
X117902460Y-95485506D01*
X118094540Y-95423096D01*
X118274491Y-95331406D01*
X118437884Y-95212694D01*
X118580694Y-95069884D01*
X118699406Y-94906491D01*
X118755908Y-94795599D01*
X118802198Y-94746586D01*
X118867639Y-94730380D01*
X118931454Y-94752126D01*
X118969125Y-94795600D01*
X119030140Y-94915349D01*
X119062524Y-94959921D01*
X119062524Y-94959922D01*
X119742000Y-94280446D01*
X119742000Y-94286661D01*
X119769259Y-94388394D01*
X119821920Y-94479606D01*
X119896394Y-94554080D01*
X119987606Y-94606741D01*
X120089339Y-94634000D01*
X120095552Y-94634000D01*
X119416076Y-95313474D01*
X119460653Y-95345861D01*
X119642968Y-95438754D01*
X119642979Y-95438758D01*
X119837583Y-95501990D01*
X120039688Y-95533999D01*
X120039693Y-95534000D01*
X120244307Y-95534000D01*
X120244311Y-95533999D01*
X120446416Y-95501990D01*
X120641020Y-95438758D01*
X120641037Y-95438751D01*
X120823345Y-95345862D01*
X120867922Y-95313474D01*
X120188448Y-94634000D01*
X120194661Y-94634000D01*
X120296394Y-94606741D01*
X120387606Y-94554080D01*
X120462080Y-94479606D01*
X120514741Y-94388394D01*
X120542000Y-94286661D01*
X120542000Y-94280448D01*
X121221474Y-94959922D01*
X121253862Y-94915345D01*
X121314874Y-94795601D01*
X121361164Y-94746587D01*
X121426606Y-94730380D01*
X121490421Y-94752126D01*
X121528091Y-94795599D01*
X121529462Y-94798289D01*
X121584592Y-94906489D01*
X121703302Y-95069879D01*
X121703304Y-95069882D01*
X121703306Y-95069884D01*
X121846116Y-95212694D01*
X122009509Y-95331406D01*
X122009511Y-95331407D01*
X122009510Y-95331407D01*
X122037878Y-95345861D01*
X122189460Y-95423096D01*
X122381540Y-95485506D01*
X122581018Y-95517100D01*
X122581023Y-95517100D01*
X122782977Y-95517100D01*
X122782982Y-95517100D01*
X122982460Y-95485506D01*
X123174540Y-95423096D01*
X123354491Y-95331406D01*
X123517884Y-95212694D01*
X123660694Y-95069884D01*
X123779406Y-94906491D01*
X123845391Y-94776987D01*
X123891682Y-94727974D01*
X123957124Y-94711768D01*
X124020939Y-94733515D01*
X124058608Y-94776987D01*
X124076032Y-94811183D01*
X124124592Y-94906489D01*
X124243302Y-95069879D01*
X124243304Y-95069882D01*
X124243306Y-95069884D01*
X124386116Y-95212694D01*
X124549509Y-95331406D01*
X124549511Y-95331407D01*
X124549510Y-95331407D01*
X124577878Y-95345861D01*
X124729460Y-95423096D01*
X124921540Y-95485506D01*
X125121018Y-95517100D01*
X125121023Y-95517100D01*
X125322977Y-95517100D01*
X125322982Y-95517100D01*
X125522460Y-95485506D01*
X125714540Y-95423096D01*
X125894491Y-95331406D01*
X126057884Y-95212694D01*
X126200694Y-95069884D01*
X126319406Y-94906491D01*
X126385391Y-94776987D01*
X126431682Y-94727974D01*
X126497124Y-94711768D01*
X126560939Y-94733515D01*
X126598608Y-94776987D01*
X126616032Y-94811183D01*
X126664592Y-94906489D01*
X126783302Y-95069879D01*
X126783304Y-95069882D01*
X126783306Y-95069884D01*
X126926116Y-95212694D01*
X127089509Y-95331406D01*
X127089511Y-95331407D01*
X127089510Y-95331407D01*
X127117878Y-95345861D01*
X127269460Y-95423096D01*
X127461540Y-95485506D01*
X127661018Y-95517100D01*
X127661023Y-95517100D01*
X127862977Y-95517100D01*
X127862982Y-95517100D01*
X128062460Y-95485506D01*
X128254540Y-95423096D01*
X128434491Y-95331406D01*
X128597884Y-95212694D01*
X128740694Y-95069884D01*
X128859406Y-94906491D01*
X128925391Y-94776987D01*
X128971682Y-94727974D01*
X129037124Y-94711768D01*
X129100939Y-94733515D01*
X129138608Y-94776987D01*
X129156032Y-94811183D01*
X129204592Y-94906489D01*
X129323302Y-95069879D01*
X129323304Y-95069882D01*
X129323306Y-95069884D01*
X129466116Y-95212694D01*
X129629509Y-95331406D01*
X129629511Y-95331407D01*
X129629510Y-95331407D01*
X129657878Y-95345861D01*
X129809460Y-95423096D01*
X130001540Y-95485506D01*
X130201018Y-95517100D01*
X130201023Y-95517100D01*
X130402977Y-95517100D01*
X130402982Y-95517100D01*
X130602460Y-95485506D01*
X130794540Y-95423096D01*
X130974491Y-95331406D01*
X131137884Y-95212694D01*
X131280694Y-95069884D01*
X131399406Y-94906491D01*
X131465391Y-94776987D01*
X131511682Y-94727974D01*
X131577124Y-94711768D01*
X131640939Y-94733515D01*
X131678608Y-94776987D01*
X131696032Y-94811183D01*
X131744592Y-94906489D01*
X131863302Y-95069879D01*
X131863304Y-95069882D01*
X131863306Y-95069884D01*
X132006116Y-95212694D01*
X132169509Y-95331406D01*
X132169511Y-95331407D01*
X132169510Y-95331407D01*
X132197878Y-95345861D01*
X132349460Y-95423096D01*
X132541540Y-95485506D01*
X132741018Y-95517100D01*
X132741023Y-95517100D01*
X132942977Y-95517100D01*
X132942982Y-95517100D01*
X133142460Y-95485506D01*
X133334540Y-95423096D01*
X133514491Y-95331406D01*
X133677884Y-95212694D01*
X133820694Y-95069884D01*
X133939406Y-94906491D01*
X134005391Y-94776987D01*
X134051682Y-94727974D01*
X134117124Y-94711768D01*
X134180939Y-94733515D01*
X134218608Y-94776987D01*
X134236032Y-94811183D01*
X134284592Y-94906489D01*
X134403302Y-95069879D01*
X134403304Y-95069882D01*
X134403306Y-95069884D01*
X134546116Y-95212694D01*
X134709509Y-95331406D01*
X134709511Y-95331407D01*
X134709510Y-95331407D01*
X134737878Y-95345861D01*
X134889460Y-95423096D01*
X135081540Y-95485506D01*
X135281018Y-95517100D01*
X135281023Y-95517100D01*
X135482977Y-95517100D01*
X135482982Y-95517100D01*
X135682460Y-95485506D01*
X135874540Y-95423096D01*
X136054491Y-95331406D01*
X136217884Y-95212694D01*
X136360694Y-95069884D01*
X136479406Y-94906491D01*
X136545391Y-94776987D01*
X136591682Y-94727974D01*
X136657124Y-94711768D01*
X136720939Y-94733515D01*
X136758608Y-94776987D01*
X136776032Y-94811183D01*
X136824592Y-94906489D01*
X136943302Y-95069879D01*
X136943304Y-95069882D01*
X136943306Y-95069884D01*
X137086116Y-95212694D01*
X137249509Y-95331406D01*
X137249511Y-95331407D01*
X137249510Y-95331407D01*
X137277878Y-95345861D01*
X137429460Y-95423096D01*
X137621540Y-95485506D01*
X137821018Y-95517100D01*
X137821023Y-95517100D01*
X138022977Y-95517100D01*
X138022982Y-95517100D01*
X138222460Y-95485506D01*
X138414540Y-95423096D01*
X138594491Y-95331406D01*
X138757884Y-95212694D01*
X138900694Y-95069884D01*
X139019406Y-94906491D01*
X139085391Y-94776987D01*
X139131682Y-94727974D01*
X139197124Y-94711768D01*
X139260939Y-94733515D01*
X139298608Y-94776987D01*
X139316032Y-94811183D01*
X139364592Y-94906489D01*
X139483302Y-95069879D01*
X139483304Y-95069882D01*
X139483306Y-95069884D01*
X139626116Y-95212694D01*
X139789509Y-95331406D01*
X139789511Y-95331407D01*
X139789510Y-95331407D01*
X139817878Y-95345861D01*
X139969460Y-95423096D01*
X140161540Y-95485506D01*
X140361018Y-95517100D01*
X140361023Y-95517100D01*
X140562977Y-95517100D01*
X140562982Y-95517100D01*
X140762460Y-95485506D01*
X140954540Y-95423096D01*
X141134491Y-95331406D01*
X141297884Y-95212694D01*
X141440694Y-95069884D01*
X141559406Y-94906491D01*
X141651096Y-94726540D01*
X141713506Y-94534460D01*
X141745100Y-94334982D01*
X141745100Y-94133018D01*
X141713506Y-93933540D01*
X141651096Y-93741460D01*
X141607103Y-93655119D01*
X141559407Y-93561510D01*
X141440697Y-93398120D01*
X141440695Y-93398117D01*
X141297882Y-93255304D01*
X141297879Y-93255302D01*
X141188152Y-93175581D01*
X141134491Y-93136594D01*
X141134490Y-93136593D01*
X141134488Y-93136592D01*
X141134489Y-93136592D01*
X140954544Y-93044906D01*
X140954543Y-93044905D01*
X140954540Y-93044904D01*
X140899021Y-93026865D01*
X140762459Y-92982493D01*
X140594575Y-92955903D01*
X140562982Y-92950900D01*
X140361018Y-92950900D01*
X140161540Y-92982493D01*
X139969466Y-93044902D01*
X139969460Y-93044904D01*
X139969458Y-93044904D01*
X139969455Y-93044906D01*
X139789510Y-93136592D01*
X139626120Y-93255302D01*
X139626117Y-93255304D01*
X139483304Y-93398117D01*
X139483302Y-93398120D01*
X139364592Y-93561510D01*
X139298609Y-93691011D01*
X139252318Y-93740025D01*
X139186876Y-93756231D01*
X139123061Y-93734484D01*
X139085391Y-93691011D01*
X139019407Y-93561510D01*
X138900697Y-93398120D01*
X138900695Y-93398117D01*
X138757882Y-93255304D01*
X138757879Y-93255302D01*
X138648152Y-93175581D01*
X138594491Y-93136594D01*
X138594490Y-93136593D01*
X138594488Y-93136592D01*
X138594489Y-93136592D01*
X138414544Y-93044906D01*
X138414543Y-93044905D01*
X138414540Y-93044904D01*
X138359021Y-93026865D01*
X138222459Y-92982493D01*
X138054575Y-92955903D01*
X138022982Y-92950900D01*
X137821018Y-92950900D01*
X137621540Y-92982493D01*
X137429466Y-93044902D01*
X137429460Y-93044904D01*
X137429458Y-93044904D01*
X137429455Y-93044906D01*
X137249510Y-93136592D01*
X137086120Y-93255302D01*
X137086117Y-93255304D01*
X136943304Y-93398117D01*
X136943302Y-93398120D01*
X136824592Y-93561510D01*
X136758609Y-93691011D01*
X136712318Y-93740025D01*
X136646876Y-93756231D01*
X136583061Y-93734484D01*
X136545391Y-93691011D01*
X136479407Y-93561510D01*
X136360697Y-93398120D01*
X136360695Y-93398117D01*
X136217882Y-93255304D01*
X136217879Y-93255302D01*
X136108152Y-93175581D01*
X136054491Y-93136594D01*
X136054490Y-93136593D01*
X136054488Y-93136592D01*
X136054489Y-93136592D01*
X135874544Y-93044906D01*
X135874543Y-93044905D01*
X135874540Y-93044904D01*
X135819021Y-93026865D01*
X135682459Y-92982493D01*
X135514575Y-92955903D01*
X135482982Y-92950900D01*
X135281018Y-92950900D01*
X135081540Y-92982493D01*
X134889466Y-93044902D01*
X134889460Y-93044904D01*
X134889458Y-93044904D01*
X134889455Y-93044906D01*
X134709510Y-93136592D01*
X134546120Y-93255302D01*
X134546117Y-93255304D01*
X134403304Y-93398117D01*
X134403302Y-93398120D01*
X134284592Y-93561510D01*
X134218609Y-93691011D01*
X134172318Y-93740025D01*
X134106876Y-93756231D01*
X134043061Y-93734484D01*
X134005391Y-93691011D01*
X133939407Y-93561510D01*
X133820697Y-93398120D01*
X133820695Y-93398117D01*
X133677882Y-93255304D01*
X133677879Y-93255302D01*
X133568152Y-93175581D01*
X133514491Y-93136594D01*
X133514490Y-93136593D01*
X133514488Y-93136592D01*
X133514489Y-93136592D01*
X133334544Y-93044906D01*
X133334543Y-93044905D01*
X133334540Y-93044904D01*
X133279021Y-93026865D01*
X133142459Y-92982493D01*
X132974575Y-92955903D01*
X132942982Y-92950900D01*
X132741018Y-92950900D01*
X132541540Y-92982493D01*
X132349466Y-93044902D01*
X132349460Y-93044904D01*
X132349458Y-93044904D01*
X132349455Y-93044906D01*
X132169510Y-93136592D01*
X132006120Y-93255302D01*
X132006117Y-93255304D01*
X131863304Y-93398117D01*
X131863302Y-93398120D01*
X131744592Y-93561510D01*
X131678609Y-93691011D01*
X131632318Y-93740025D01*
X131566876Y-93756231D01*
X131503061Y-93734484D01*
X131465391Y-93691011D01*
X131399407Y-93561510D01*
X131280697Y-93398120D01*
X131280695Y-93398117D01*
X131137882Y-93255304D01*
X131137879Y-93255302D01*
X131028152Y-93175581D01*
X130974491Y-93136594D01*
X130974490Y-93136593D01*
X130974488Y-93136592D01*
X130974489Y-93136592D01*
X130794544Y-93044906D01*
X130794543Y-93044905D01*
X130794540Y-93044904D01*
X130739021Y-93026865D01*
X130602459Y-92982493D01*
X130434575Y-92955903D01*
X130402982Y-92950900D01*
X130201018Y-92950900D01*
X130001540Y-92982493D01*
X129809466Y-93044902D01*
X129809460Y-93044904D01*
X129809458Y-93044904D01*
X129809455Y-93044906D01*
X129629510Y-93136592D01*
X129466120Y-93255302D01*
X129466117Y-93255304D01*
X129323304Y-93398117D01*
X129323302Y-93398120D01*
X129204592Y-93561510D01*
X129138609Y-93691011D01*
X129092318Y-93740025D01*
X129026876Y-93756231D01*
X128963061Y-93734484D01*
X128925391Y-93691011D01*
X128859407Y-93561510D01*
X128740697Y-93398120D01*
X128740695Y-93398117D01*
X128597882Y-93255304D01*
X128597879Y-93255302D01*
X128488152Y-93175581D01*
X128434491Y-93136594D01*
X128434490Y-93136593D01*
X128434488Y-93136592D01*
X128434489Y-93136592D01*
X128254544Y-93044906D01*
X128254543Y-93044905D01*
X128254540Y-93044904D01*
X128199021Y-93026865D01*
X128062459Y-92982493D01*
X127894575Y-92955903D01*
X127862982Y-92950900D01*
X127661018Y-92950900D01*
X127461540Y-92982493D01*
X127269466Y-93044902D01*
X127269460Y-93044904D01*
X127269458Y-93044904D01*
X127269455Y-93044906D01*
X127089510Y-93136592D01*
X126926120Y-93255302D01*
X126926117Y-93255304D01*
X126783304Y-93398117D01*
X126783302Y-93398120D01*
X126664592Y-93561510D01*
X126598609Y-93691011D01*
X126552318Y-93740025D01*
X126486876Y-93756231D01*
X126423061Y-93734484D01*
X126385391Y-93691011D01*
X126319407Y-93561510D01*
X126200697Y-93398120D01*
X126200695Y-93398117D01*
X126057882Y-93255304D01*
X126057879Y-93255302D01*
X125948152Y-93175581D01*
X125894491Y-93136594D01*
X125894490Y-93136593D01*
X125894488Y-93136592D01*
X125894489Y-93136592D01*
X125714544Y-93044906D01*
X125714543Y-93044905D01*
X125714540Y-93044904D01*
X125659021Y-93026865D01*
X125522459Y-92982493D01*
X125354575Y-92955903D01*
X125322982Y-92950900D01*
X125121018Y-92950900D01*
X124921540Y-92982493D01*
X124729466Y-93044902D01*
X124729460Y-93044904D01*
X124729458Y-93044904D01*
X124729455Y-93044906D01*
X124549510Y-93136592D01*
X124386120Y-93255302D01*
X124386117Y-93255304D01*
X124243304Y-93398117D01*
X124243302Y-93398120D01*
X124124592Y-93561510D01*
X124058609Y-93691011D01*
X124012318Y-93740025D01*
X123946876Y-93756231D01*
X123883061Y-93734484D01*
X123845391Y-93691011D01*
X123779407Y-93561510D01*
X123660697Y-93398120D01*
X123660695Y-93398117D01*
X123517882Y-93255304D01*
X123517879Y-93255302D01*
X123408152Y-93175581D01*
X123354491Y-93136594D01*
X123354490Y-93136593D01*
X123354488Y-93136592D01*
X123354489Y-93136592D01*
X123174544Y-93044906D01*
X123174543Y-93044905D01*
X123174540Y-93044904D01*
X123119021Y-93026865D01*
X122982459Y-92982493D01*
X122814575Y-92955903D01*
X122782982Y-92950900D01*
X122581018Y-92950900D01*
X122381540Y-92982493D01*
X122189466Y-93044902D01*
X122189460Y-93044904D01*
X122189458Y-93044904D01*
X122189455Y-93044906D01*
X122009510Y-93136592D01*
X121846120Y-93255302D01*
X121846117Y-93255304D01*
X121703304Y-93398117D01*
X121703302Y-93398120D01*
X121584592Y-93561511D01*
X121528092Y-93672399D01*
X121481800Y-93721413D01*
X121416359Y-93737619D01*
X121352544Y-93715872D01*
X121314874Y-93672399D01*
X121253861Y-93552653D01*
X121221474Y-93508076D01*
X120542000Y-94187550D01*
X120542000Y-94181339D01*
X120514741Y-94079606D01*
X120462080Y-93988394D01*
X120387606Y-93913920D01*
X120296394Y-93861259D01*
X120194661Y-93834000D01*
X120188447Y-93834000D01*
X120867922Y-93154524D01*
X120823348Y-93122140D01*
X120823349Y-93122140D01*
X120641031Y-93029245D01*
X120641020Y-93029241D01*
X120446416Y-92966009D01*
X120284258Y-92940327D01*
X120223338Y-92911448D01*
X120187702Y-92854217D01*
X120188665Y-92786805D01*
X120225920Y-92730615D01*
X120287639Y-92703487D01*
X120302975Y-92702500D01*
X142127850Y-92702500D01*
X142192538Y-92721494D01*
X142236687Y-92772446D01*
X142247500Y-92822150D01*
X142247500Y-110885850D01*
X142228506Y-110950538D01*
X142177554Y-110994687D01*
X142127850Y-111005500D01*
X90536150Y-111005500D01*
X90471462Y-110986506D01*
X90427313Y-110935554D01*
X90416500Y-110885850D01*
X90416500Y-108875143D01*
X90918900Y-108875143D01*
X90918900Y-110072845D01*
X90926424Y-110146491D01*
X90929158Y-110173255D01*
X90983062Y-110335931D01*
X91073030Y-110481790D01*
X91073032Y-110481792D01*
X91073034Y-110481795D01*
X91194204Y-110602965D01*
X91194207Y-110602967D01*
X91194210Y-110602970D01*
X91340069Y-110692938D01*
X91502745Y-110746842D01*
X91603149Y-110757100D01*
X92800850Y-110757099D01*
X92901255Y-110746842D01*
X93063931Y-110692938D01*
X93209790Y-110602970D01*
X93330970Y-110481790D01*
X93420938Y-110335931D01*
X93460768Y-110215727D01*
X93499144Y-110160298D01*
X93561397Y-110134415D01*
X93627760Y-110146297D01*
X93671144Y-110183034D01*
X93763302Y-110309880D01*
X93763306Y-110309884D01*
X93906116Y-110452694D01*
X94069509Y-110571406D01*
X94069511Y-110571407D01*
X94069510Y-110571407D01*
X94163119Y-110619103D01*
X94249460Y-110663096D01*
X94441540Y-110725506D01*
X94641018Y-110757100D01*
X94641023Y-110757100D01*
X94842977Y-110757100D01*
X94842982Y-110757100D01*
X95042460Y-110725506D01*
X95234540Y-110663096D01*
X95414491Y-110571406D01*
X95577884Y-110452694D01*
X95720694Y-110309884D01*
X95839406Y-110146491D01*
X95905391Y-110016987D01*
X95951682Y-109967974D01*
X96017124Y-109951768D01*
X96080939Y-109973515D01*
X96118609Y-110016988D01*
X96184592Y-110146489D01*
X96303302Y-110309879D01*
X96303304Y-110309882D01*
X96303306Y-110309884D01*
X96446116Y-110452694D01*
X96609509Y-110571406D01*
X96609511Y-110571407D01*
X96609510Y-110571407D01*
X96703119Y-110619103D01*
X96789460Y-110663096D01*
X96981540Y-110725506D01*
X97181018Y-110757100D01*
X97181023Y-110757100D01*
X97382977Y-110757100D01*
X97382982Y-110757100D01*
X97582460Y-110725506D01*
X97774540Y-110663096D01*
X97954491Y-110571406D01*
X98117884Y-110452694D01*
X98260694Y-110309884D01*
X98379406Y-110146491D01*
X98445391Y-110016987D01*
X98491682Y-109967974D01*
X98557124Y-109951768D01*
X98620939Y-109973515D01*
X98658609Y-110016988D01*
X98724592Y-110146489D01*
X98843302Y-110309879D01*
X98843304Y-110309882D01*
X98843306Y-110309884D01*
X98986116Y-110452694D01*
X99149509Y-110571406D01*
X99149511Y-110571407D01*
X99149510Y-110571407D01*
X99243119Y-110619103D01*
X99329460Y-110663096D01*
X99521540Y-110725506D01*
X99721018Y-110757100D01*
X99721023Y-110757100D01*
X99922977Y-110757100D01*
X99922982Y-110757100D01*
X100122460Y-110725506D01*
X100314540Y-110663096D01*
X100494491Y-110571406D01*
X100657884Y-110452694D01*
X100800694Y-110309884D01*
X100919406Y-110146491D01*
X100985391Y-110016987D01*
X101031682Y-109967974D01*
X101097124Y-109951768D01*
X101160939Y-109973515D01*
X101198609Y-110016988D01*
X101264592Y-110146489D01*
X101383302Y-110309879D01*
X101383304Y-110309882D01*
X101383306Y-110309884D01*
X101526116Y-110452694D01*
X101689509Y-110571406D01*
X101689511Y-110571407D01*
X101689510Y-110571407D01*
X101783119Y-110619103D01*
X101869460Y-110663096D01*
X102061540Y-110725506D01*
X102261018Y-110757100D01*
X102261023Y-110757100D01*
X102462977Y-110757100D01*
X102462982Y-110757100D01*
X102662460Y-110725506D01*
X102854540Y-110663096D01*
X103034491Y-110571406D01*
X103197884Y-110452694D01*
X103340694Y-110309884D01*
X103459406Y-110146491D01*
X103525391Y-110016987D01*
X103571682Y-109967974D01*
X103637124Y-109951768D01*
X103700939Y-109973515D01*
X103738609Y-110016988D01*
X103804592Y-110146489D01*
X103923302Y-110309879D01*
X103923304Y-110309882D01*
X103923306Y-110309884D01*
X104066116Y-110452694D01*
X104229509Y-110571406D01*
X104229511Y-110571407D01*
X104229510Y-110571407D01*
X104323119Y-110619103D01*
X104409460Y-110663096D01*
X104601540Y-110725506D01*
X104801018Y-110757100D01*
X104801023Y-110757100D01*
X105002977Y-110757100D01*
X105002982Y-110757100D01*
X105202460Y-110725506D01*
X105394540Y-110663096D01*
X105574491Y-110571406D01*
X105737884Y-110452694D01*
X105880694Y-110309884D01*
X105999406Y-110146491D01*
X106065391Y-110016987D01*
X106111682Y-109967974D01*
X106177124Y-109951768D01*
X106240939Y-109973515D01*
X106278609Y-110016988D01*
X106344592Y-110146489D01*
X106463302Y-110309879D01*
X106463304Y-110309882D01*
X106463306Y-110309884D01*
X106606116Y-110452694D01*
X106769509Y-110571406D01*
X106769511Y-110571407D01*
X106769510Y-110571407D01*
X106863119Y-110619103D01*
X106949460Y-110663096D01*
X107141540Y-110725506D01*
X107341018Y-110757100D01*
X107341023Y-110757100D01*
X107542977Y-110757100D01*
X107542982Y-110757100D01*
X107742460Y-110725506D01*
X107934540Y-110663096D01*
X108114491Y-110571406D01*
X108277884Y-110452694D01*
X108420694Y-110309884D01*
X108539406Y-110146491D01*
X108605391Y-110016987D01*
X108651682Y-109967974D01*
X108717124Y-109951768D01*
X108780939Y-109973515D01*
X108818609Y-110016988D01*
X108884592Y-110146489D01*
X109003302Y-110309879D01*
X109003304Y-110309882D01*
X109003306Y-110309884D01*
X109146116Y-110452694D01*
X109309509Y-110571406D01*
X109309511Y-110571407D01*
X109309510Y-110571407D01*
X109403119Y-110619103D01*
X109489460Y-110663096D01*
X109681540Y-110725506D01*
X109881018Y-110757100D01*
X109881023Y-110757100D01*
X110082977Y-110757100D01*
X110082982Y-110757100D01*
X110282460Y-110725506D01*
X110474540Y-110663096D01*
X110654491Y-110571406D01*
X110817884Y-110452694D01*
X110960694Y-110309884D01*
X111079406Y-110146491D01*
X111145391Y-110016987D01*
X111191682Y-109967974D01*
X111257124Y-109951768D01*
X111320939Y-109973515D01*
X111358609Y-110016988D01*
X111424592Y-110146489D01*
X111543302Y-110309879D01*
X111543304Y-110309882D01*
X111543306Y-110309884D01*
X111686116Y-110452694D01*
X111849509Y-110571406D01*
X111849511Y-110571407D01*
X111849510Y-110571407D01*
X111943119Y-110619103D01*
X112029460Y-110663096D01*
X112221540Y-110725506D01*
X112421018Y-110757100D01*
X112421023Y-110757100D01*
X112622977Y-110757100D01*
X112622982Y-110757100D01*
X112822460Y-110725506D01*
X113014540Y-110663096D01*
X113194491Y-110571406D01*
X113357884Y-110452694D01*
X113500694Y-110309884D01*
X113619406Y-110146491D01*
X113685391Y-110016987D01*
X113731682Y-109967974D01*
X113797124Y-109951768D01*
X113860939Y-109973515D01*
X113898609Y-110016988D01*
X113964592Y-110146489D01*
X114083302Y-110309879D01*
X114083304Y-110309882D01*
X114083306Y-110309884D01*
X114226116Y-110452694D01*
X114389509Y-110571406D01*
X114389511Y-110571407D01*
X114389510Y-110571407D01*
X114483119Y-110619103D01*
X114569460Y-110663096D01*
X114761540Y-110725506D01*
X114961018Y-110757100D01*
X114961023Y-110757100D01*
X115162977Y-110757100D01*
X115162982Y-110757100D01*
X115362460Y-110725506D01*
X115554540Y-110663096D01*
X115734491Y-110571406D01*
X115897884Y-110452694D01*
X116040694Y-110309884D01*
X116159406Y-110146491D01*
X116225391Y-110016987D01*
X116271682Y-109967974D01*
X116337124Y-109951768D01*
X116400939Y-109973515D01*
X116438609Y-110016988D01*
X116504592Y-110146489D01*
X116623302Y-110309879D01*
X116623304Y-110309882D01*
X116623306Y-110309884D01*
X116766116Y-110452694D01*
X116929509Y-110571406D01*
X116929511Y-110571407D01*
X116929510Y-110571407D01*
X117023119Y-110619103D01*
X117109460Y-110663096D01*
X117301540Y-110725506D01*
X117501018Y-110757100D01*
X117501023Y-110757100D01*
X117702977Y-110757100D01*
X117702982Y-110757100D01*
X117902460Y-110725506D01*
X118094540Y-110663096D01*
X118274491Y-110571406D01*
X118437884Y-110452694D01*
X118580694Y-110309884D01*
X118699406Y-110146491D01*
X118765391Y-110016987D01*
X118811682Y-109967974D01*
X118877124Y-109951768D01*
X118940939Y-109973515D01*
X118978609Y-110016988D01*
X119044592Y-110146489D01*
X119163302Y-110309879D01*
X119163304Y-110309882D01*
X119163306Y-110309884D01*
X119306116Y-110452694D01*
X119469509Y-110571406D01*
X119469511Y-110571407D01*
X119469510Y-110571407D01*
X119563119Y-110619103D01*
X119649460Y-110663096D01*
X119841540Y-110725506D01*
X120041018Y-110757100D01*
X120041023Y-110757100D01*
X120242977Y-110757100D01*
X120242982Y-110757100D01*
X120442460Y-110725506D01*
X120634540Y-110663096D01*
X120814491Y-110571406D01*
X120977884Y-110452694D01*
X121120694Y-110309884D01*
X121239406Y-110146491D01*
X121305391Y-110016987D01*
X121351682Y-109967974D01*
X121417124Y-109951768D01*
X121480939Y-109973515D01*
X121518609Y-110016988D01*
X121584592Y-110146489D01*
X121703302Y-110309879D01*
X121703304Y-110309882D01*
X121703306Y-110309884D01*
X121846116Y-110452694D01*
X122009509Y-110571406D01*
X122009511Y-110571407D01*
X122009510Y-110571407D01*
X122103119Y-110619103D01*
X122189460Y-110663096D01*
X122381540Y-110725506D01*
X122581018Y-110757100D01*
X122581023Y-110757100D01*
X122782977Y-110757100D01*
X122782982Y-110757100D01*
X122982460Y-110725506D01*
X123174540Y-110663096D01*
X123354491Y-110571406D01*
X123517884Y-110452694D01*
X123660694Y-110309884D01*
X123779406Y-110146491D01*
X123845391Y-110016987D01*
X123891682Y-109967974D01*
X123957124Y-109951768D01*
X124020939Y-109973515D01*
X124058609Y-110016988D01*
X124124592Y-110146489D01*
X124243302Y-110309879D01*
X124243304Y-110309882D01*
X124243306Y-110309884D01*
X124386116Y-110452694D01*
X124549509Y-110571406D01*
X124549511Y-110571407D01*
X124549510Y-110571407D01*
X124643119Y-110619103D01*
X124729460Y-110663096D01*
X124921540Y-110725506D01*
X125121018Y-110757100D01*
X125121023Y-110757100D01*
X125322977Y-110757100D01*
X125322982Y-110757100D01*
X125522460Y-110725506D01*
X125714540Y-110663096D01*
X125894491Y-110571406D01*
X126057884Y-110452694D01*
X126200694Y-110309884D01*
X126319406Y-110146491D01*
X126385391Y-110016987D01*
X126431682Y-109967974D01*
X126497124Y-109951768D01*
X126560939Y-109973515D01*
X126598609Y-110016988D01*
X126664592Y-110146489D01*
X126783302Y-110309879D01*
X126783304Y-110309882D01*
X126783306Y-110309884D01*
X126926116Y-110452694D01*
X127089509Y-110571406D01*
X127089511Y-110571407D01*
X127089510Y-110571407D01*
X127183119Y-110619103D01*
X127269460Y-110663096D01*
X127461540Y-110725506D01*
X127661018Y-110757100D01*
X127661023Y-110757100D01*
X127862977Y-110757100D01*
X127862982Y-110757100D01*
X128062460Y-110725506D01*
X128254540Y-110663096D01*
X128434491Y-110571406D01*
X128597884Y-110452694D01*
X128740694Y-110309884D01*
X128859406Y-110146491D01*
X128925391Y-110016987D01*
X128971682Y-109967974D01*
X129037124Y-109951768D01*
X129100939Y-109973515D01*
X129138609Y-110016988D01*
X129204592Y-110146489D01*
X129323302Y-110309879D01*
X129323304Y-110309882D01*
X129323306Y-110309884D01*
X129466116Y-110452694D01*
X129629509Y-110571406D01*
X129629511Y-110571407D01*
X129629510Y-110571407D01*
X129723119Y-110619103D01*
X129809460Y-110663096D01*
X130001540Y-110725506D01*
X130201018Y-110757100D01*
X130201023Y-110757100D01*
X130402977Y-110757100D01*
X130402982Y-110757100D01*
X130602460Y-110725506D01*
X130794540Y-110663096D01*
X130974491Y-110571406D01*
X131137884Y-110452694D01*
X131280694Y-110309884D01*
X131399406Y-110146491D01*
X131465391Y-110016987D01*
X131511682Y-109967974D01*
X131577124Y-109951768D01*
X131640939Y-109973515D01*
X131678609Y-110016988D01*
X131744592Y-110146489D01*
X131863302Y-110309879D01*
X131863304Y-110309882D01*
X131863306Y-110309884D01*
X132006116Y-110452694D01*
X132169509Y-110571406D01*
X132169511Y-110571407D01*
X132169510Y-110571407D01*
X132263119Y-110619103D01*
X132349460Y-110663096D01*
X132541540Y-110725506D01*
X132741018Y-110757100D01*
X132741023Y-110757100D01*
X132942977Y-110757100D01*
X132942982Y-110757100D01*
X133142460Y-110725506D01*
X133334540Y-110663096D01*
X133514491Y-110571406D01*
X133677884Y-110452694D01*
X133820694Y-110309884D01*
X133939406Y-110146491D01*
X134005391Y-110016987D01*
X134051682Y-109967974D01*
X134117124Y-109951768D01*
X134180939Y-109973515D01*
X134218609Y-110016988D01*
X134284592Y-110146489D01*
X134403302Y-110309879D01*
X134403304Y-110309882D01*
X134403306Y-110309884D01*
X134546116Y-110452694D01*
X134709509Y-110571406D01*
X134709511Y-110571407D01*
X134709510Y-110571407D01*
X134803119Y-110619103D01*
X134889460Y-110663096D01*
X135081540Y-110725506D01*
X135281018Y-110757100D01*
X135281023Y-110757100D01*
X135482977Y-110757100D01*
X135482982Y-110757100D01*
X135682460Y-110725506D01*
X135874540Y-110663096D01*
X136054491Y-110571406D01*
X136217884Y-110452694D01*
X136360694Y-110309884D01*
X136479406Y-110146491D01*
X136545391Y-110016987D01*
X136591682Y-109967974D01*
X136657124Y-109951768D01*
X136720939Y-109973515D01*
X136758609Y-110016988D01*
X136824592Y-110146489D01*
X136943302Y-110309879D01*
X136943304Y-110309882D01*
X136943306Y-110309884D01*
X137086116Y-110452694D01*
X137249509Y-110571406D01*
X137249511Y-110571407D01*
X137249510Y-110571407D01*
X137343119Y-110619103D01*
X137429460Y-110663096D01*
X137621540Y-110725506D01*
X137821018Y-110757100D01*
X137821023Y-110757100D01*
X138022977Y-110757100D01*
X138022982Y-110757100D01*
X138222460Y-110725506D01*
X138414540Y-110663096D01*
X138594491Y-110571406D01*
X138757884Y-110452694D01*
X138900694Y-110309884D01*
X139019406Y-110146491D01*
X139085391Y-110016987D01*
X139131682Y-109967974D01*
X139197124Y-109951768D01*
X139260939Y-109973515D01*
X139298609Y-110016988D01*
X139364592Y-110146489D01*
X139483302Y-110309879D01*
X139483304Y-110309882D01*
X139483306Y-110309884D01*
X139626116Y-110452694D01*
X139789509Y-110571406D01*
X139789511Y-110571407D01*
X139789510Y-110571407D01*
X139883119Y-110619103D01*
X139969460Y-110663096D01*
X140161540Y-110725506D01*
X140361018Y-110757100D01*
X140361023Y-110757100D01*
X140562977Y-110757100D01*
X140562982Y-110757100D01*
X140762460Y-110725506D01*
X140954540Y-110663096D01*
X141134491Y-110571406D01*
X141297884Y-110452694D01*
X141440694Y-110309884D01*
X141559406Y-110146491D01*
X141651096Y-109966540D01*
X141713506Y-109774460D01*
X141745100Y-109574982D01*
X141745100Y-109373018D01*
X141713506Y-109173540D01*
X141651096Y-108981460D01*
X141564703Y-108811904D01*
X141559407Y-108801510D01*
X141440697Y-108638120D01*
X141440695Y-108638117D01*
X141297882Y-108495304D01*
X141297879Y-108495302D01*
X141171111Y-108403200D01*
X141134491Y-108376594D01*
X141134490Y-108376593D01*
X141134488Y-108376592D01*
X141134489Y-108376592D01*
X140954544Y-108284906D01*
X140954543Y-108284905D01*
X140954540Y-108284904D01*
X140862689Y-108255060D01*
X140762459Y-108222493D01*
X140594575Y-108195903D01*
X140562982Y-108190900D01*
X140361018Y-108190900D01*
X140161540Y-108222493D01*
X139969466Y-108284902D01*
X139969460Y-108284904D01*
X139969458Y-108284904D01*
X139969455Y-108284906D01*
X139789510Y-108376592D01*
X139626120Y-108495302D01*
X139626117Y-108495304D01*
X139483304Y-108638117D01*
X139483302Y-108638120D01*
X139364592Y-108801510D01*
X139298609Y-108931011D01*
X139252318Y-108980025D01*
X139186876Y-108996231D01*
X139123061Y-108974484D01*
X139085391Y-108931011D01*
X139019407Y-108801510D01*
X138900697Y-108638120D01*
X138900695Y-108638117D01*
X138757882Y-108495304D01*
X138757879Y-108495302D01*
X138631111Y-108403200D01*
X138594491Y-108376594D01*
X138594490Y-108376593D01*
X138594488Y-108376592D01*
X138594489Y-108376592D01*
X138414544Y-108284906D01*
X138414543Y-108284905D01*
X138414540Y-108284904D01*
X138322689Y-108255060D01*
X138222459Y-108222493D01*
X138054575Y-108195903D01*
X138022982Y-108190900D01*
X137821018Y-108190900D01*
X137621540Y-108222493D01*
X137429466Y-108284902D01*
X137429460Y-108284904D01*
X137429458Y-108284904D01*
X137429455Y-108284906D01*
X137249510Y-108376592D01*
X137086120Y-108495302D01*
X137086117Y-108495304D01*
X136943304Y-108638117D01*
X136943302Y-108638120D01*
X136824592Y-108801510D01*
X136758609Y-108931011D01*
X136712318Y-108980025D01*
X136646876Y-108996231D01*
X136583061Y-108974484D01*
X136545391Y-108931011D01*
X136479407Y-108801510D01*
X136360697Y-108638120D01*
X136360695Y-108638117D01*
X136217882Y-108495304D01*
X136217879Y-108495302D01*
X136091111Y-108403200D01*
X136054491Y-108376594D01*
X136054490Y-108376593D01*
X136054488Y-108376592D01*
X136054489Y-108376592D01*
X135874544Y-108284906D01*
X135874543Y-108284905D01*
X135874540Y-108284904D01*
X135782689Y-108255060D01*
X135682459Y-108222493D01*
X135514575Y-108195903D01*
X135482982Y-108190900D01*
X135281018Y-108190900D01*
X135081540Y-108222493D01*
X134889466Y-108284902D01*
X134889460Y-108284904D01*
X134889458Y-108284904D01*
X134889455Y-108284906D01*
X134709510Y-108376592D01*
X134546120Y-108495302D01*
X134546117Y-108495304D01*
X134403304Y-108638117D01*
X134403302Y-108638120D01*
X134284592Y-108801510D01*
X134218609Y-108931011D01*
X134172318Y-108980025D01*
X134106876Y-108996231D01*
X134043061Y-108974484D01*
X134005391Y-108931011D01*
X133939407Y-108801510D01*
X133820697Y-108638120D01*
X133820695Y-108638117D01*
X133677882Y-108495304D01*
X133677879Y-108495302D01*
X133551111Y-108403200D01*
X133514491Y-108376594D01*
X133514490Y-108376593D01*
X133514488Y-108376592D01*
X133514489Y-108376592D01*
X133334544Y-108284906D01*
X133334543Y-108284905D01*
X133334540Y-108284904D01*
X133242689Y-108255060D01*
X133142459Y-108222493D01*
X132974575Y-108195903D01*
X132942982Y-108190900D01*
X132741018Y-108190900D01*
X132541540Y-108222493D01*
X132349466Y-108284902D01*
X132349460Y-108284904D01*
X132349458Y-108284904D01*
X132349455Y-108284906D01*
X132169510Y-108376592D01*
X132006120Y-108495302D01*
X132006117Y-108495304D01*
X131863304Y-108638117D01*
X131863302Y-108638120D01*
X131744592Y-108801510D01*
X131678609Y-108931011D01*
X131632318Y-108980025D01*
X131566876Y-108996231D01*
X131503061Y-108974484D01*
X131465391Y-108931011D01*
X131399407Y-108801510D01*
X131280697Y-108638120D01*
X131280695Y-108638117D01*
X131137882Y-108495304D01*
X131137879Y-108495302D01*
X131011111Y-108403200D01*
X130974491Y-108376594D01*
X130974490Y-108376593D01*
X130974488Y-108376592D01*
X130974489Y-108376592D01*
X130794544Y-108284906D01*
X130794543Y-108284905D01*
X130794540Y-108284904D01*
X130702689Y-108255060D01*
X130602459Y-108222493D01*
X130434575Y-108195903D01*
X130402982Y-108190900D01*
X130201018Y-108190900D01*
X130001540Y-108222493D01*
X129809466Y-108284902D01*
X129809460Y-108284904D01*
X129809458Y-108284904D01*
X129809455Y-108284906D01*
X129629510Y-108376592D01*
X129466120Y-108495302D01*
X129466117Y-108495304D01*
X129323304Y-108638117D01*
X129323302Y-108638120D01*
X129204592Y-108801510D01*
X129138609Y-108931011D01*
X129092318Y-108980025D01*
X129026876Y-108996231D01*
X128963061Y-108974484D01*
X128925391Y-108931011D01*
X128859407Y-108801510D01*
X128740697Y-108638120D01*
X128740695Y-108638117D01*
X128597882Y-108495304D01*
X128597879Y-108495302D01*
X128471111Y-108403200D01*
X128434491Y-108376594D01*
X128434490Y-108376593D01*
X128434488Y-108376592D01*
X128434489Y-108376592D01*
X128254544Y-108284906D01*
X128254543Y-108284905D01*
X128254540Y-108284904D01*
X128162689Y-108255060D01*
X128062459Y-108222493D01*
X127894575Y-108195903D01*
X127862982Y-108190900D01*
X127661018Y-108190900D01*
X127461540Y-108222493D01*
X127269466Y-108284902D01*
X127269460Y-108284904D01*
X127269458Y-108284904D01*
X127269455Y-108284906D01*
X127089510Y-108376592D01*
X126926120Y-108495302D01*
X126926117Y-108495304D01*
X126783304Y-108638117D01*
X126783302Y-108638120D01*
X126664592Y-108801510D01*
X126598609Y-108931011D01*
X126552318Y-108980025D01*
X126486876Y-108996231D01*
X126423061Y-108974484D01*
X126385391Y-108931011D01*
X126319407Y-108801510D01*
X126200697Y-108638120D01*
X126200695Y-108638117D01*
X126057882Y-108495304D01*
X126057879Y-108495302D01*
X125931111Y-108403200D01*
X125894491Y-108376594D01*
X125894490Y-108376593D01*
X125894488Y-108376592D01*
X125894489Y-108376592D01*
X125714544Y-108284906D01*
X125714543Y-108284905D01*
X125714540Y-108284904D01*
X125622689Y-108255060D01*
X125522459Y-108222493D01*
X125354575Y-108195903D01*
X125322982Y-108190900D01*
X125121018Y-108190900D01*
X124921540Y-108222493D01*
X124729466Y-108284902D01*
X124729460Y-108284904D01*
X124729458Y-108284904D01*
X124729455Y-108284906D01*
X124549510Y-108376592D01*
X124386120Y-108495302D01*
X124386117Y-108495304D01*
X124243304Y-108638117D01*
X124243302Y-108638120D01*
X124124592Y-108801510D01*
X124058609Y-108931011D01*
X124012318Y-108980025D01*
X123946876Y-108996231D01*
X123883061Y-108974484D01*
X123845391Y-108931011D01*
X123779407Y-108801510D01*
X123660697Y-108638120D01*
X123660695Y-108638117D01*
X123517882Y-108495304D01*
X123517879Y-108495302D01*
X123391111Y-108403200D01*
X123354491Y-108376594D01*
X123354490Y-108376593D01*
X123354488Y-108376592D01*
X123354489Y-108376592D01*
X123174544Y-108284906D01*
X123174543Y-108284905D01*
X123174540Y-108284904D01*
X123082689Y-108255060D01*
X122982459Y-108222493D01*
X122814575Y-108195903D01*
X122782982Y-108190900D01*
X122581018Y-108190900D01*
X122381540Y-108222493D01*
X122189466Y-108284902D01*
X122189460Y-108284904D01*
X122189458Y-108284904D01*
X122189455Y-108284906D01*
X122009510Y-108376592D01*
X121846120Y-108495302D01*
X121846117Y-108495304D01*
X121703304Y-108638117D01*
X121703302Y-108638120D01*
X121584592Y-108801510D01*
X121518609Y-108931011D01*
X121472318Y-108980025D01*
X121406876Y-108996231D01*
X121343061Y-108974484D01*
X121305391Y-108931011D01*
X121239407Y-108801510D01*
X121120697Y-108638120D01*
X121120695Y-108638117D01*
X121036858Y-108554280D01*
X121004547Y-108495108D01*
X121009357Y-108427862D01*
X121021979Y-108403200D01*
X121039754Y-108376598D01*
X121059974Y-108346337D01*
X121060515Y-108345032D01*
X121119003Y-108203830D01*
X121119003Y-108203828D01*
X121119006Y-108203822D01*
X121149100Y-108052529D01*
X121149100Y-107898271D01*
X121119006Y-107746978D01*
X121119004Y-107746973D01*
X121119003Y-107746969D01*
X121059975Y-107604464D01*
X121059973Y-107604461D01*
X120974274Y-107476203D01*
X120865196Y-107367125D01*
X120736938Y-107281426D01*
X120736936Y-107281425D01*
X120661571Y-107250208D01*
X120609076Y-107207905D01*
X120592857Y-107174384D01*
X120592089Y-107171851D01*
X120533060Y-107029343D01*
X120533058Y-107029340D01*
X120447359Y-106901082D01*
X120338281Y-106792004D01*
X120210023Y-106706305D01*
X120204837Y-106703533D01*
X120206021Y-106701317D01*
X120162032Y-106665822D01*
X120143008Y-106620988D01*
X120119006Y-106500320D01*
X120119003Y-106500311D01*
X120059975Y-106357806D01*
X120059973Y-106357803D01*
X119974274Y-106229545D01*
X119865196Y-106120467D01*
X119736942Y-106034771D01*
X119736940Y-106034770D01*
X119736937Y-106034768D01*
X119722956Y-106028977D01*
X119670465Y-105986673D01*
X119649176Y-105922704D01*
X119649100Y-105918437D01*
X119649100Y-105871651D01*
X119641592Y-105833905D01*
X119619006Y-105720359D01*
X119619004Y-105720354D01*
X119619003Y-105720350D01*
X119559975Y-105577845D01*
X119559973Y-105577842D01*
X119474274Y-105449584D01*
X119365196Y-105340506D01*
X119236938Y-105254807D01*
X119236935Y-105254805D01*
X119199697Y-105239381D01*
X119147202Y-105197078D01*
X119128134Y-105152180D01*
X119119006Y-105106287D01*
X119090013Y-105036291D01*
X119059975Y-104963773D01*
X119059973Y-104963770D01*
X118974274Y-104835512D01*
X118865196Y-104726434D01*
X118736938Y-104640735D01*
X118736935Y-104640733D01*
X118667557Y-104611996D01*
X118615062Y-104569693D01*
X118599259Y-104532475D01*
X118598174Y-104532805D01*
X118596471Y-104527190D01*
X118596470Y-104527185D01*
X118584920Y-104499300D01*
X118537439Y-104384671D01*
X118537437Y-104384668D01*
X118451738Y-104256410D01*
X118342660Y-104147332D01*
X118214402Y-104061633D01*
X118214399Y-104061631D01*
X118071894Y-104002603D01*
X118071886Y-104002601D01*
X117920593Y-103972507D01*
X117789337Y-103972507D01*
X117724649Y-103953513D01*
X117701300Y-103932727D01*
X117701051Y-103932977D01*
X117587821Y-103819747D01*
X117587817Y-103819744D01*
X117523875Y-103777018D01*
X117480642Y-103725286D01*
X117472789Y-103687568D01*
X117471276Y-103687718D01*
X117470700Y-103681872D01*
X117456763Y-103611805D01*
X117440606Y-103530578D01*
X117440604Y-103530573D01*
X117440603Y-103530569D01*
X117381575Y-103388064D01*
X117381573Y-103388061D01*
X117295874Y-103259803D01*
X117186796Y-103150725D01*
X117058538Y-103065026D01*
X117058535Y-103065024D01*
X116916030Y-103005996D01*
X116916022Y-103005994D01*
X116764729Y-102975900D01*
X116610471Y-102975900D01*
X116459177Y-103005994D01*
X116459169Y-103005996D01*
X116316664Y-103065024D01*
X116316661Y-103065026D01*
X116188403Y-103150725D01*
X116079325Y-103259803D01*
X115993626Y-103388061D01*
X115993624Y-103388064D01*
X115934596Y-103530569D01*
X115934594Y-103530577D01*
X115904500Y-103681870D01*
X115904500Y-103836129D01*
X115934594Y-103987422D01*
X115934596Y-103987430D01*
X115993624Y-104129935D01*
X115993626Y-104129938D01*
X116079325Y-104258196D01*
X116188399Y-104367270D01*
X116188402Y-104367272D01*
X116188403Y-104367273D01*
X116252346Y-104409998D01*
X116295578Y-104461727D01*
X116303432Y-104499448D01*
X116304945Y-104499300D01*
X116305520Y-104505145D01*
X116335615Y-104656440D01*
X116335617Y-104656448D01*
X116394645Y-104798953D01*
X116394647Y-104798956D01*
X116480346Y-104927214D01*
X116589424Y-105036292D01*
X116717682Y-105121991D01*
X116717685Y-105121993D01*
X116860190Y-105181021D01*
X116860194Y-105181022D01*
X116860199Y-105181024D01*
X117011492Y-105211118D01*
X117142749Y-105211118D01*
X117207437Y-105230112D01*
X117230783Y-105250898D01*
X117231034Y-105250648D01*
X117344267Y-105363881D01*
X117472525Y-105449580D01*
X117472527Y-105449581D01*
X117541906Y-105478319D01*
X117594401Y-105520622D01*
X117610207Y-105557840D01*
X117611290Y-105557512D01*
X117612996Y-105563139D01*
X117672024Y-105705644D01*
X117672026Y-105705647D01*
X117757725Y-105833905D01*
X117866803Y-105942983D01*
X117995060Y-106028681D01*
X117995063Y-106028683D01*
X118032302Y-106044107D01*
X118084796Y-106086410D01*
X118103865Y-106131307D01*
X118112994Y-106177203D01*
X118112996Y-106177211D01*
X118172024Y-106319716D01*
X118172026Y-106319719D01*
X118257725Y-106447977D01*
X118366803Y-106557055D01*
X118495060Y-106642753D01*
X118495063Y-106642755D01*
X118509037Y-106648543D01*
X118561532Y-106690846D01*
X118582824Y-106754814D01*
X118582900Y-106759086D01*
X118582900Y-106805871D01*
X118612994Y-106957164D01*
X118612996Y-106957172D01*
X118672024Y-107099677D01*
X118672026Y-107099680D01*
X118757725Y-107227938D01*
X118866800Y-107337013D01*
X118866803Y-107337015D01*
X118995063Y-107422716D01*
X118995069Y-107422718D01*
X118995070Y-107422719D01*
X119000249Y-107425488D01*
X118999052Y-107427726D01*
X119042974Y-107463085D01*
X119062076Y-107508030D01*
X119086079Y-107628701D01*
X119086081Y-107628709D01*
X119145109Y-107771214D01*
X119145111Y-107771217D01*
X119230810Y-107899475D01*
X119339888Y-108008553D01*
X119468146Y-108094252D01*
X119468148Y-108094253D01*
X119534763Y-108121846D01*
X119587258Y-108164148D01*
X119608549Y-108228117D01*
X119591876Y-108293441D01*
X119543297Y-108338996D01*
X119469511Y-108376593D01*
X119469502Y-108376598D01*
X119306120Y-108495302D01*
X119306117Y-108495304D01*
X119163304Y-108638117D01*
X119163302Y-108638120D01*
X119044592Y-108801510D01*
X118978609Y-108931011D01*
X118932318Y-108980025D01*
X118866876Y-108996231D01*
X118803061Y-108974484D01*
X118765391Y-108931011D01*
X118699407Y-108801510D01*
X118580697Y-108638120D01*
X118580695Y-108638117D01*
X118437882Y-108495304D01*
X118437879Y-108495302D01*
X118311111Y-108403200D01*
X118274491Y-108376594D01*
X118274490Y-108376593D01*
X118274488Y-108376592D01*
X118274489Y-108376592D01*
X118094544Y-108284906D01*
X118094543Y-108284905D01*
X118094540Y-108284904D01*
X118002689Y-108255060D01*
X117902459Y-108222493D01*
X117734575Y-108195903D01*
X117702982Y-108190900D01*
X117501018Y-108190900D01*
X117301540Y-108222493D01*
X117109466Y-108284902D01*
X117109460Y-108284904D01*
X117109458Y-108284904D01*
X117109455Y-108284906D01*
X116929510Y-108376592D01*
X116766120Y-108495302D01*
X116766117Y-108495304D01*
X116623304Y-108638117D01*
X116623302Y-108638120D01*
X116504592Y-108801510D01*
X116438609Y-108931011D01*
X116392318Y-108980025D01*
X116326876Y-108996231D01*
X116263061Y-108974484D01*
X116225391Y-108931011D01*
X116159407Y-108801510D01*
X116040697Y-108638120D01*
X116040695Y-108638117D01*
X115897882Y-108495304D01*
X115897879Y-108495302D01*
X115771111Y-108403200D01*
X115734491Y-108376594D01*
X115734490Y-108376593D01*
X115734488Y-108376592D01*
X115734489Y-108376592D01*
X115554544Y-108284906D01*
X115554543Y-108284905D01*
X115554540Y-108284904D01*
X115462689Y-108255060D01*
X115362459Y-108222493D01*
X115194575Y-108195903D01*
X115162982Y-108190900D01*
X114961018Y-108190900D01*
X114761540Y-108222493D01*
X114569466Y-108284902D01*
X114569460Y-108284904D01*
X114569458Y-108284904D01*
X114569455Y-108284906D01*
X114389510Y-108376592D01*
X114226120Y-108495302D01*
X114226117Y-108495304D01*
X114083304Y-108638117D01*
X114083302Y-108638120D01*
X113964592Y-108801510D01*
X113898609Y-108931011D01*
X113852318Y-108980025D01*
X113786876Y-108996231D01*
X113723061Y-108974484D01*
X113685391Y-108931011D01*
X113619407Y-108801510D01*
X113500697Y-108638120D01*
X113500695Y-108638117D01*
X113357882Y-108495304D01*
X113357879Y-108495302D01*
X113231111Y-108403200D01*
X113194491Y-108376594D01*
X113194490Y-108376593D01*
X113194488Y-108376592D01*
X113194489Y-108376592D01*
X113014544Y-108284906D01*
X113014543Y-108284905D01*
X113014540Y-108284904D01*
X112922689Y-108255060D01*
X112822459Y-108222493D01*
X112654575Y-108195903D01*
X112622982Y-108190900D01*
X112421018Y-108190900D01*
X112221540Y-108222493D01*
X112029466Y-108284902D01*
X112029460Y-108284904D01*
X112029458Y-108284904D01*
X112029455Y-108284906D01*
X111849510Y-108376592D01*
X111686120Y-108495302D01*
X111686117Y-108495304D01*
X111543304Y-108638117D01*
X111543302Y-108638120D01*
X111424592Y-108801510D01*
X111358609Y-108931011D01*
X111312318Y-108980025D01*
X111246876Y-108996231D01*
X111183061Y-108974484D01*
X111145391Y-108931011D01*
X111079407Y-108801510D01*
X110960697Y-108638120D01*
X110960695Y-108638117D01*
X110817882Y-108495304D01*
X110817879Y-108495302D01*
X110691111Y-108403200D01*
X110654491Y-108376594D01*
X110654490Y-108376593D01*
X110654488Y-108376592D01*
X110654489Y-108376592D01*
X110474544Y-108284906D01*
X110474543Y-108284905D01*
X110474540Y-108284904D01*
X110382689Y-108255060D01*
X110282459Y-108222493D01*
X110114575Y-108195903D01*
X110082982Y-108190900D01*
X109881018Y-108190900D01*
X109681540Y-108222493D01*
X109489466Y-108284902D01*
X109489460Y-108284904D01*
X109489458Y-108284904D01*
X109489455Y-108284906D01*
X109309510Y-108376592D01*
X109146120Y-108495302D01*
X109146117Y-108495304D01*
X109003304Y-108638117D01*
X109003302Y-108638120D01*
X108884592Y-108801510D01*
X108818609Y-108931011D01*
X108772318Y-108980025D01*
X108706876Y-108996231D01*
X108643061Y-108974484D01*
X108605391Y-108931011D01*
X108539407Y-108801510D01*
X108420697Y-108638120D01*
X108420695Y-108638117D01*
X108277882Y-108495304D01*
X108277879Y-108495302D01*
X108151111Y-108403200D01*
X108114491Y-108376594D01*
X108114490Y-108376593D01*
X108114488Y-108376592D01*
X108114489Y-108376592D01*
X107934544Y-108284906D01*
X107934543Y-108284905D01*
X107934540Y-108284904D01*
X107842689Y-108255060D01*
X107742459Y-108222493D01*
X107574575Y-108195903D01*
X107542982Y-108190900D01*
X107341018Y-108190900D01*
X107141540Y-108222493D01*
X106949466Y-108284902D01*
X106949460Y-108284904D01*
X106949458Y-108284904D01*
X106949455Y-108284906D01*
X106769510Y-108376592D01*
X106606120Y-108495302D01*
X106606117Y-108495304D01*
X106463304Y-108638117D01*
X106463302Y-108638120D01*
X106344592Y-108801510D01*
X106278609Y-108931011D01*
X106232318Y-108980025D01*
X106166876Y-108996231D01*
X106103061Y-108974484D01*
X106065391Y-108931011D01*
X105999407Y-108801510D01*
X105880697Y-108638120D01*
X105880695Y-108638117D01*
X105737882Y-108495304D01*
X105737879Y-108495302D01*
X105611111Y-108403200D01*
X105574491Y-108376594D01*
X105574490Y-108376593D01*
X105574488Y-108376592D01*
X105574489Y-108376592D01*
X105394544Y-108284906D01*
X105394543Y-108284905D01*
X105394540Y-108284904D01*
X105302689Y-108255060D01*
X105202459Y-108222493D01*
X105034575Y-108195903D01*
X105002982Y-108190900D01*
X104801018Y-108190900D01*
X104601540Y-108222493D01*
X104409466Y-108284902D01*
X104409460Y-108284904D01*
X104409458Y-108284904D01*
X104409455Y-108284906D01*
X104229510Y-108376592D01*
X104066120Y-108495302D01*
X104066117Y-108495304D01*
X103923304Y-108638117D01*
X103923302Y-108638120D01*
X103804592Y-108801510D01*
X103738609Y-108931011D01*
X103692318Y-108980025D01*
X103626876Y-108996231D01*
X103563061Y-108974484D01*
X103525391Y-108931011D01*
X103459407Y-108801510D01*
X103340697Y-108638120D01*
X103340695Y-108638117D01*
X103197882Y-108495304D01*
X103197879Y-108495302D01*
X103071111Y-108403200D01*
X103034491Y-108376594D01*
X103034490Y-108376593D01*
X103034488Y-108376592D01*
X103034489Y-108376592D01*
X102854544Y-108284906D01*
X102854543Y-108284905D01*
X102854540Y-108284904D01*
X102762689Y-108255060D01*
X102662459Y-108222493D01*
X102494575Y-108195903D01*
X102462982Y-108190900D01*
X102261018Y-108190900D01*
X102061540Y-108222493D01*
X101869466Y-108284902D01*
X101869460Y-108284904D01*
X101869458Y-108284904D01*
X101869455Y-108284906D01*
X101689510Y-108376592D01*
X101526120Y-108495302D01*
X101526117Y-108495304D01*
X101383304Y-108638117D01*
X101383302Y-108638120D01*
X101264592Y-108801510D01*
X101198609Y-108931011D01*
X101152318Y-108980025D01*
X101086876Y-108996231D01*
X101023061Y-108974484D01*
X100985391Y-108931011D01*
X100919407Y-108801510D01*
X100800697Y-108638120D01*
X100800695Y-108638117D01*
X100657882Y-108495304D01*
X100657879Y-108495302D01*
X100531111Y-108403200D01*
X100494491Y-108376594D01*
X100494490Y-108376593D01*
X100494488Y-108376592D01*
X100494489Y-108376592D01*
X100314544Y-108284906D01*
X100314543Y-108284905D01*
X100314540Y-108284904D01*
X100222689Y-108255060D01*
X100122459Y-108222493D01*
X99954575Y-108195903D01*
X99922982Y-108190900D01*
X99721018Y-108190900D01*
X99521540Y-108222493D01*
X99329466Y-108284902D01*
X99329460Y-108284904D01*
X99329458Y-108284904D01*
X99329455Y-108284906D01*
X99149510Y-108376592D01*
X98986120Y-108495302D01*
X98986117Y-108495304D01*
X98843304Y-108638117D01*
X98843302Y-108638120D01*
X98724592Y-108801510D01*
X98658609Y-108931011D01*
X98612318Y-108980025D01*
X98546876Y-108996231D01*
X98483061Y-108974484D01*
X98445391Y-108931011D01*
X98379407Y-108801510D01*
X98260697Y-108638120D01*
X98260695Y-108638117D01*
X98117882Y-108495304D01*
X98117879Y-108495302D01*
X97991111Y-108403200D01*
X97954491Y-108376594D01*
X97954490Y-108376593D01*
X97954488Y-108376592D01*
X97954489Y-108376592D01*
X97774544Y-108284906D01*
X97774543Y-108284905D01*
X97774540Y-108284904D01*
X97682689Y-108255060D01*
X97582459Y-108222493D01*
X97414575Y-108195903D01*
X97382982Y-108190900D01*
X97181018Y-108190900D01*
X96981540Y-108222493D01*
X96789466Y-108284902D01*
X96789460Y-108284904D01*
X96789458Y-108284904D01*
X96789455Y-108284906D01*
X96609510Y-108376592D01*
X96446120Y-108495302D01*
X96446117Y-108495304D01*
X96303304Y-108638117D01*
X96303302Y-108638120D01*
X96184592Y-108801510D01*
X96118609Y-108931011D01*
X96072318Y-108980025D01*
X96006876Y-108996231D01*
X95943061Y-108974484D01*
X95905391Y-108931011D01*
X95839407Y-108801510D01*
X95720697Y-108638120D01*
X95720695Y-108638117D01*
X95577882Y-108495304D01*
X95577879Y-108495302D01*
X95451111Y-108403200D01*
X95414491Y-108376594D01*
X95414490Y-108376593D01*
X95414488Y-108376592D01*
X95414489Y-108376592D01*
X95234544Y-108284906D01*
X95234543Y-108284905D01*
X95234540Y-108284904D01*
X95142689Y-108255060D01*
X95042459Y-108222493D01*
X94874575Y-108195903D01*
X94842982Y-108190900D01*
X94641018Y-108190900D01*
X94441540Y-108222493D01*
X94249466Y-108284902D01*
X94249460Y-108284904D01*
X94249458Y-108284904D01*
X94249455Y-108284906D01*
X94069510Y-108376592D01*
X93906120Y-108495302D01*
X93906117Y-108495304D01*
X93763305Y-108638116D01*
X93671144Y-108764966D01*
X93617755Y-108806135D01*
X93550584Y-108811904D01*
X93490956Y-108780442D01*
X93460768Y-108732272D01*
X93429569Y-108638117D01*
X93420938Y-108612069D01*
X93330970Y-108466210D01*
X93330967Y-108466207D01*
X93330965Y-108466204D01*
X93209795Y-108345034D01*
X93209792Y-108345032D01*
X93209790Y-108345030D01*
X93063931Y-108255062D01*
X93063925Y-108255060D01*
X92901262Y-108201160D01*
X92901251Y-108201157D01*
X92800854Y-108190900D01*
X91603154Y-108190900D01*
X91502743Y-108201158D01*
X91340074Y-108255060D01*
X91340069Y-108255062D01*
X91291692Y-108284902D01*
X91194207Y-108345032D01*
X91194204Y-108345034D01*
X91073034Y-108466204D01*
X91073032Y-108466207D01*
X91073030Y-108466209D01*
X91073030Y-108466210D01*
X91055083Y-108495306D01*
X90983062Y-108612069D01*
X90983060Y-108612074D01*
X90929160Y-108774737D01*
X90929157Y-108774748D01*
X90918900Y-108875143D01*
X90416500Y-108875143D01*
X90416500Y-102665870D01*
X101578900Y-102665870D01*
X101578900Y-102820129D01*
X101608994Y-102971422D01*
X101608996Y-102971430D01*
X101668024Y-103113935D01*
X101668026Y-103113938D01*
X101753725Y-103242196D01*
X101862803Y-103351274D01*
X101991061Y-103436973D01*
X101991064Y-103436975D01*
X102133569Y-103496003D01*
X102133573Y-103496004D01*
X102133578Y-103496006D01*
X102284871Y-103526100D01*
X102439129Y-103526100D01*
X102590422Y-103496006D01*
X102590428Y-103496003D01*
X102590430Y-103496003D01*
X102732935Y-103436975D01*
X102732938Y-103436973D01*
X102861196Y-103351274D01*
X102970274Y-103242196D01*
X103022798Y-103163588D01*
X103055974Y-103113937D01*
X103055975Y-103113935D01*
X103115003Y-102971430D01*
X103115003Y-102971428D01*
X103115006Y-102971422D01*
X103145100Y-102820129D01*
X103145100Y-102665871D01*
X103115006Y-102514578D01*
X103115004Y-102514573D01*
X103115003Y-102514569D01*
X103055975Y-102372064D01*
X103055973Y-102372061D01*
X102970274Y-102243803D01*
X102861196Y-102134725D01*
X102732938Y-102049026D01*
X102732935Y-102049024D01*
X102590430Y-101989996D01*
X102590422Y-101989994D01*
X102439129Y-101959900D01*
X102284871Y-101959900D01*
X102133577Y-101989994D01*
X102133569Y-101989996D01*
X101991064Y-102049024D01*
X101991061Y-102049026D01*
X101862803Y-102134725D01*
X101753725Y-102243803D01*
X101668026Y-102372061D01*
X101668024Y-102372064D01*
X101608996Y-102514569D01*
X101608994Y-102514577D01*
X101578900Y-102665870D01*
X90416500Y-102665870D01*
X90416500Y-101641670D01*
X120730500Y-101641670D01*
X120730500Y-101795929D01*
X120760594Y-101947222D01*
X120760596Y-101947230D01*
X120819624Y-102089735D01*
X120819626Y-102089738D01*
X120905325Y-102217996D01*
X121014403Y-102327074D01*
X121142661Y-102412773D01*
X121142664Y-102412775D01*
X121285169Y-102471803D01*
X121285173Y-102471804D01*
X121285178Y-102471806D01*
X121436471Y-102501900D01*
X121590731Y-102501900D01*
X121601993Y-102499659D01*
X121608781Y-102498309D01*
X121675932Y-102504316D01*
X121729174Y-102545674D01*
X121751605Y-102609251D01*
X121749478Y-102639001D01*
X121721100Y-102781669D01*
X121721100Y-102935929D01*
X121751194Y-103087222D01*
X121751196Y-103087230D01*
X121810224Y-103229735D01*
X121810226Y-103229738D01*
X121895925Y-103357996D01*
X122005003Y-103467074D01*
X122133261Y-103552773D01*
X122133264Y-103552775D01*
X122275769Y-103611803D01*
X122275773Y-103611804D01*
X122275778Y-103611806D01*
X122427071Y-103641900D01*
X122581329Y-103641900D01*
X122732622Y-103611806D01*
X122732628Y-103611803D01*
X122732630Y-103611803D01*
X122875135Y-103552775D01*
X122875138Y-103552773D01*
X122908356Y-103530578D01*
X122960096Y-103496006D01*
X123003396Y-103467074D01*
X123003397Y-103467073D01*
X123097011Y-103373460D01*
X123156183Y-103341149D01*
X123181616Y-103338415D01*
X123299870Y-103338415D01*
X123451163Y-103308321D01*
X123451169Y-103308318D01*
X123451171Y-103308318D01*
X123593676Y-103249290D01*
X123593679Y-103249288D01*
X123604292Y-103242197D01*
X123721938Y-103163588D01*
X123831014Y-103054512D01*
X123916715Y-102926252D01*
X123975747Y-102783737D01*
X124005841Y-102632444D01*
X124005841Y-102478186D01*
X124004571Y-102471803D01*
X123999854Y-102448091D01*
X123975747Y-102326893D01*
X123975745Y-102326888D01*
X123975744Y-102326884D01*
X123916716Y-102184379D01*
X123916714Y-102184376D01*
X123831015Y-102056118D01*
X123721937Y-101947040D01*
X123593679Y-101861341D01*
X123593676Y-101861339D01*
X123451171Y-101802311D01*
X123451163Y-101802309D01*
X123299870Y-101772215D01*
X123145612Y-101772215D01*
X122994318Y-101802309D01*
X122994310Y-101802311D01*
X122851805Y-101861339D01*
X122851802Y-101861341D01*
X122723544Y-101947040D01*
X122723543Y-101947041D01*
X122629930Y-102040655D01*
X122605808Y-102053826D01*
X122583244Y-102069533D01*
X122574415Y-102070968D01*
X122570758Y-102072966D01*
X122549736Y-102075619D01*
X122547540Y-102075700D01*
X122427071Y-102075700D01*
X122399639Y-102081156D01*
X122390083Y-102081509D01*
X122366299Y-102075468D01*
X122341862Y-102073281D01*
X122334173Y-102067308D01*
X122324739Y-102064912D01*
X122308000Y-102046975D01*
X122288621Y-102031921D01*
X122285382Y-102022739D01*
X122278741Y-102015623D01*
X122274356Y-101991484D01*
X122266193Y-101968342D01*
X122267312Y-101952698D01*
X122266693Y-101949290D01*
X122267736Y-101946761D01*
X122268320Y-101938601D01*
X122296700Y-101795929D01*
X122296700Y-101641671D01*
X122266606Y-101490378D01*
X122266604Y-101490373D01*
X122266603Y-101490369D01*
X122207575Y-101347864D01*
X122207573Y-101347861D01*
X122121874Y-101219603D01*
X122012796Y-101110525D01*
X121884538Y-101024826D01*
X121884535Y-101024824D01*
X121742030Y-100965796D01*
X121742022Y-100965794D01*
X121590729Y-100935700D01*
X121436471Y-100935700D01*
X121285177Y-100965794D01*
X121285169Y-100965796D01*
X121142664Y-101024824D01*
X121142661Y-101024826D01*
X121014403Y-101110525D01*
X120905325Y-101219603D01*
X120819626Y-101347861D01*
X120819624Y-101347864D01*
X120760596Y-101490369D01*
X120760594Y-101490377D01*
X120730500Y-101641670D01*
X90416500Y-101641670D01*
X90416500Y-99768741D01*
X115582900Y-99768741D01*
X115582900Y-99923000D01*
X115612994Y-100074293D01*
X115612996Y-100074301D01*
X115672024Y-100216806D01*
X115672026Y-100216809D01*
X115757725Y-100345067D01*
X115866803Y-100454145D01*
X115995061Y-100539844D01*
X115995064Y-100539846D01*
X116137569Y-100598874D01*
X116137573Y-100598875D01*
X116137578Y-100598877D01*
X116288871Y-100628971D01*
X116443129Y-100628971D01*
X116594422Y-100598877D01*
X116594428Y-100598874D01*
X116594430Y-100598874D01*
X116736935Y-100539846D01*
X116736938Y-100539844D01*
X116865196Y-100454145D01*
X116974274Y-100345067D01*
X117017123Y-100280938D01*
X117059974Y-100216808D01*
X117116084Y-100081348D01*
X117119003Y-100074301D01*
X117119003Y-100074299D01*
X117119006Y-100074293D01*
X117149100Y-99923000D01*
X117149100Y-99770270D01*
X121136900Y-99770270D01*
X121136900Y-99924529D01*
X121166994Y-100075822D01*
X121166996Y-100075830D01*
X121226024Y-100218335D01*
X121226026Y-100218338D01*
X121311725Y-100346596D01*
X121420803Y-100455674D01*
X121549061Y-100541373D01*
X121549064Y-100541375D01*
X121691569Y-100600403D01*
X121691573Y-100600404D01*
X121691578Y-100600406D01*
X121842871Y-100630500D01*
X121997129Y-100630500D01*
X122148422Y-100600406D01*
X122148428Y-100600403D01*
X122148430Y-100600403D01*
X122202933Y-100577827D01*
X123042012Y-100577827D01*
X123042012Y-100732086D01*
X123072106Y-100883379D01*
X123072108Y-100883387D01*
X123131136Y-101025892D01*
X123131138Y-101025895D01*
X123216837Y-101154153D01*
X123325915Y-101263231D01*
X123454173Y-101348930D01*
X123454176Y-101348932D01*
X123596681Y-101407960D01*
X123596685Y-101407961D01*
X123596690Y-101407963D01*
X123747983Y-101438057D01*
X123902241Y-101438057D01*
X124053534Y-101407963D01*
X124053540Y-101407960D01*
X124053542Y-101407960D01*
X124196047Y-101348932D01*
X124196050Y-101348930D01*
X124197646Y-101347864D01*
X124324309Y-101263230D01*
X124351250Y-101236288D01*
X124410417Y-101203979D01*
X124477664Y-101208787D01*
X124520459Y-101236289D01*
X124527625Y-101243455D01*
X124655883Y-101329154D01*
X124655886Y-101329156D01*
X124798391Y-101388184D01*
X124798395Y-101388185D01*
X124798400Y-101388187D01*
X124949693Y-101418281D01*
X125103951Y-101418281D01*
X125255244Y-101388187D01*
X125255250Y-101388184D01*
X125255252Y-101388184D01*
X125397757Y-101329156D01*
X125397760Y-101329154D01*
X125526018Y-101243455D01*
X125635095Y-101134378D01*
X125696057Y-101043142D01*
X125747789Y-100999908D01*
X125772196Y-100992265D01*
X125910330Y-100964789D01*
X125910334Y-100964787D01*
X125910338Y-100964786D01*
X125990692Y-100931501D01*
X126052845Y-100905757D01*
X126126391Y-100856614D01*
X126190727Y-100836469D01*
X126217537Y-100840205D01*
X126217735Y-100839213D01*
X126223498Y-100840359D01*
X126223500Y-100840360D01*
X126374793Y-100870454D01*
X126529051Y-100870454D01*
X126680344Y-100840360D01*
X126680350Y-100840357D01*
X126680352Y-100840357D01*
X126822857Y-100781329D01*
X126822860Y-100781327D01*
X126951118Y-100695628D01*
X127060196Y-100586550D01*
X127145895Y-100458292D01*
X127145897Y-100458289D01*
X127204925Y-100315784D01*
X127204925Y-100315782D01*
X127204928Y-100315776D01*
X127235022Y-100164483D01*
X127235022Y-100010225D01*
X127204928Y-99858932D01*
X127202090Y-99852081D01*
X127172208Y-99779939D01*
X127165001Y-99712906D01*
X127195178Y-99652619D01*
X127253159Y-99618217D01*
X127282750Y-99614500D01*
X127331129Y-99614500D01*
X127482422Y-99584406D01*
X127482428Y-99584403D01*
X127482430Y-99584403D01*
X127624935Y-99525375D01*
X127624938Y-99525373D01*
X127636259Y-99517809D01*
X127700424Y-99474935D01*
X127753196Y-99439674D01*
X127862274Y-99330596D01*
X127905345Y-99266135D01*
X127947974Y-99202337D01*
X127992686Y-99094394D01*
X128007003Y-99059830D01*
X128007004Y-99059827D01*
X128007006Y-99059822D01*
X128037100Y-98908529D01*
X128037100Y-98754271D01*
X128007006Y-98602978D01*
X128007004Y-98602973D01*
X128007003Y-98602969D01*
X127947975Y-98460464D01*
X127947973Y-98460461D01*
X127862274Y-98332203D01*
X127753196Y-98223125D01*
X127624938Y-98137426D01*
X127624935Y-98137424D01*
X127482430Y-98078396D01*
X127482422Y-98078394D01*
X127331129Y-98048300D01*
X127176871Y-98048300D01*
X127025577Y-98078394D01*
X127025569Y-98078396D01*
X126883064Y-98137424D01*
X126883061Y-98137426D01*
X126754803Y-98223125D01*
X126645725Y-98332203D01*
X126560026Y-98460461D01*
X126560024Y-98460464D01*
X126500996Y-98602969D01*
X126500994Y-98602977D01*
X126470900Y-98754270D01*
X126470900Y-98908529D01*
X126500994Y-99059822D01*
X126500995Y-99059827D01*
X126533714Y-99138815D01*
X126540921Y-99205848D01*
X126510744Y-99266135D01*
X126452763Y-99300537D01*
X126423172Y-99304254D01*
X126374793Y-99304254D01*
X126223499Y-99334348D01*
X126223491Y-99334350D01*
X126080989Y-99393377D01*
X126080987Y-99393378D01*
X126007438Y-99442522D01*
X125943100Y-99462667D01*
X125916291Y-99458935D01*
X125916095Y-99459924D01*
X125910331Y-99458777D01*
X125910330Y-99458777D01*
X125759037Y-99428683D01*
X125604779Y-99428683D01*
X125453485Y-99458777D01*
X125453477Y-99458779D01*
X125310972Y-99517807D01*
X125310969Y-99517809D01*
X125182711Y-99603508D01*
X125073635Y-99712584D01*
X125012671Y-99803823D01*
X124960939Y-99847056D01*
X124936529Y-99854699D01*
X124798399Y-99882175D01*
X124798391Y-99882177D01*
X124655886Y-99941205D01*
X124655883Y-99941207D01*
X124527627Y-100026905D01*
X124500682Y-100053850D01*
X124441510Y-100086159D01*
X124374263Y-100081348D01*
X124331471Y-100053846D01*
X124324309Y-100046684D01*
X124324305Y-100046681D01*
X124324304Y-100046680D01*
X124196050Y-99960983D01*
X124196047Y-99960981D01*
X124053542Y-99901953D01*
X124053534Y-99901951D01*
X123902241Y-99871857D01*
X123747983Y-99871857D01*
X123596689Y-99901951D01*
X123596681Y-99901953D01*
X123454176Y-99960981D01*
X123454173Y-99960983D01*
X123325915Y-100046682D01*
X123216837Y-100155760D01*
X123131138Y-100284018D01*
X123131136Y-100284021D01*
X123072108Y-100426526D01*
X123072106Y-100426534D01*
X123042012Y-100577827D01*
X122202933Y-100577827D01*
X122290935Y-100541375D01*
X122290938Y-100541373D01*
X122293224Y-100539846D01*
X122394063Y-100472466D01*
X122394067Y-100472465D01*
X122415282Y-100458289D01*
X122419197Y-100455673D01*
X122528273Y-100346597D01*
X122529296Y-100345067D01*
X122613973Y-100218338D01*
X122613975Y-100218335D01*
X122673003Y-100075830D01*
X122673003Y-100075828D01*
X122673006Y-100075822D01*
X122703100Y-99924529D01*
X122703100Y-99770271D01*
X122673006Y-99618978D01*
X122673004Y-99618973D01*
X122673003Y-99618969D01*
X122613975Y-99476464D01*
X122613973Y-99476461D01*
X122528274Y-99348203D01*
X122419196Y-99239125D01*
X122290938Y-99153426D01*
X122290935Y-99153424D01*
X122148430Y-99094396D01*
X122148422Y-99094394D01*
X121997129Y-99064300D01*
X121842871Y-99064300D01*
X121691577Y-99094394D01*
X121691569Y-99094396D01*
X121549064Y-99153424D01*
X121549061Y-99153426D01*
X121420803Y-99239125D01*
X121311725Y-99348203D01*
X121226026Y-99476461D01*
X121226024Y-99476464D01*
X121166996Y-99618969D01*
X121166994Y-99618977D01*
X121136900Y-99770270D01*
X117149100Y-99770270D01*
X117149100Y-99768742D01*
X117119006Y-99617449D01*
X117119004Y-99617444D01*
X117119003Y-99617440D01*
X117059975Y-99474935D01*
X117059973Y-99474932D01*
X116974274Y-99346674D01*
X116865196Y-99237596D01*
X116736938Y-99151897D01*
X116736935Y-99151895D01*
X116594430Y-99092867D01*
X116594422Y-99092865D01*
X116443129Y-99062771D01*
X116288871Y-99062771D01*
X116137577Y-99092865D01*
X116137569Y-99092867D01*
X115995064Y-99151895D01*
X115995061Y-99151897D01*
X115866803Y-99237596D01*
X115757725Y-99346674D01*
X115672026Y-99474932D01*
X115672024Y-99474935D01*
X115612996Y-99617440D01*
X115612994Y-99617448D01*
X115582900Y-99768741D01*
X90416500Y-99768741D01*
X90416500Y-92822150D01*
X90435494Y-92757462D01*
X90486446Y-92713313D01*
X90536150Y-92702500D01*
X119981025Y-92702500D01*
X120045713Y-92721494D01*
G37*
%TD.AperFunction*%
%TD*%
M02*
