%TF.GenerationSoftware,KiCad,Pcbnew,9.0.9*%
%TF.CreationDate,2026-08-16T17:46:03-07:00*%
%TF.ProjectId,ZID_POD,5a49445f-504f-4442-9e6b-696361645f70,PR1.0*%
%TF.SameCoordinates,Original*%
%TF.FileFunction,Paste,Top*%
%TF.FilePolarity,Positive*%
%FSLAX46Y46*%
G04 Gerber Fmt 4.6, Leading zero omitted, Abs format (unit mm)*
G04 Created by KiCad (PCBNEW 9.0.9) date 2026-08-16 17:46:03*
%MOMM*%
%LPD*%
G01*
G04 APERTURE LIST*
%ADD10R,0.300000X1.300000*%
%ADD11R,2.000000X1.800000*%
G04 APERTURE END LIST*
D10*
%TO.C,J1*%
X106935999Y-98806000D03*
X107436000Y-98806000D03*
X107936000Y-98806000D03*
X108436001Y-98806000D03*
X108936000Y-98806000D03*
X109436000Y-98806000D03*
X109936000Y-98806000D03*
X110436000Y-98806000D03*
X110936000Y-98805999D03*
X111436000Y-98806000D03*
X111936000Y-98806000D03*
X112436000Y-98806000D03*
X112936000Y-98806000D03*
X113436000Y-98805999D03*
X113936000Y-98806000D03*
X114436000Y-98806000D03*
X114936001Y-98806000D03*
X115436000Y-98806000D03*
X115935999Y-98806000D03*
X116436000Y-98806000D03*
X116936000Y-98806000D03*
X117436001Y-98806000D03*
X117936000Y-98806000D03*
X118435999Y-98806000D03*
X118936000Y-98806000D03*
X119436000Y-98806000D03*
X119936000Y-98805999D03*
X120436000Y-98806000D03*
X120936000Y-98806000D03*
X121436000Y-98806000D03*
X121936000Y-98806000D03*
X122436000Y-98805999D03*
X122936000Y-98806000D03*
X123436000Y-98806000D03*
X123936000Y-98806000D03*
X124436000Y-98806000D03*
X124935999Y-98806000D03*
X125436000Y-98806000D03*
X125936000Y-98806000D03*
X126436001Y-98806000D03*
D11*
X105132400Y-101536800D03*
X128239600Y-101536800D03*
%TD*%
M02*
