%TF.GenerationSoftware,KiCad,Pcbnew,9.0.9*%
%TF.CreationDate,2026-08-16T13:25:16-07:00*%
%TF.ProjectId,ZID_MAIN,5a49445f-4d41-4494-9e2e-6b696361645f,PR1.0*%
%TF.SameCoordinates,Original*%
%TF.FileFunction,Paste,Top*%
%TF.FilePolarity,Positive*%
%FSLAX46Y46*%
G04 Gerber Fmt 4.6, Leading zero omitted, Abs format (unit mm)*
G04 Created by KiCad (PCBNEW 9.0.9) date 2026-08-16 13:25:16*
%MOMM*%
%LPD*%
G01*
G04 APERTURE LIST*
G04 Aperture macros list*
%AMRoundRect*
0 Rectangle with rounded corners*
0 $1 Rounding radius*
0 $2 $3 $4 $5 $6 $7 $8 $9 X,Y pos of 4 corners*
0 Add a 4 corners polygon primitive as box body*
4,1,4,$2,$3,$4,$5,$6,$7,$8,$9,$2,$3,0*
0 Add four circle primitives for the rounded corners*
1,1,$1+$1,$2,$3*
1,1,$1+$1,$4,$5*
1,1,$1+$1,$6,$7*
1,1,$1+$1,$8,$9*
0 Add four rect primitives between the rounded corners*
20,1,$1+$1,$2,$3,$4,$5,0*
20,1,$1+$1,$4,$5,$6,$7,0*
20,1,$1+$1,$6,$7,$8,$9,0*
20,1,$1+$1,$8,$9,$2,$3,0*%
G04 Aperture macros list end*
%ADD10R,0.300000X1.150000*%
%ADD11R,0.600000X1.150000*%
%ADD12RoundRect,0.250000X-0.262500X-0.450000X0.262500X-0.450000X0.262500X0.450000X-0.262500X0.450000X0*%
%ADD13RoundRect,0.225000X-0.250000X0.225000X-0.250000X-0.225000X0.250000X-0.225000X0.250000X0.225000X0*%
%ADD14R,0.400000X1.200000*%
%ADD15RoundRect,0.225000X0.250000X-0.225000X0.250000X0.225000X-0.250000X0.225000X-0.250000X-0.225000X0*%
%ADD16RoundRect,0.250000X0.450000X-0.262500X0.450000X0.262500X-0.450000X0.262500X-0.450000X-0.262500X0*%
%ADD17RoundRect,0.225000X0.225000X0.250000X-0.225000X0.250000X-0.225000X-0.250000X0.225000X-0.250000X0*%
%ADD18RoundRect,0.150000X0.150000X-0.512500X0.150000X0.512500X-0.150000X0.512500X-0.150000X-0.512500X0*%
%ADD19RoundRect,0.243750X0.456250X-0.243750X0.456250X0.243750X-0.456250X0.243750X-0.456250X-0.243750X0*%
%ADD20RoundRect,0.100000X0.100000X-0.562500X0.100000X0.562500X-0.100000X0.562500X-0.100000X-0.562500X0*%
%ADD21RoundRect,0.250000X0.262500X0.450000X-0.262500X0.450000X-0.262500X-0.450000X0.262500X-0.450000X0*%
%ADD22RoundRect,0.225000X-0.225000X-0.250000X0.225000X-0.250000X0.225000X0.250000X-0.225000X0.250000X0*%
%ADD23RoundRect,0.150000X-2.390000X-0.150000X2.390000X-0.150000X2.390000X0.150000X-2.390000X0.150000X0*%
%ADD24RoundRect,0.150000X-0.925000X-0.150000X0.925000X-0.150000X0.925000X0.150000X-0.925000X0.150000X0*%
%ADD25R,2.000000X1.800000*%
%ADD26R,0.300000X1.300000*%
%ADD27RoundRect,0.243750X-0.456250X0.243750X-0.456250X-0.243750X0.456250X-0.243750X0.456250X0.243750X0*%
%ADD28RoundRect,0.150000X-0.150000X0.512500X-0.150000X-0.512500X0.150000X-0.512500X0.150000X0.512500X0*%
%ADD29R,1.600000X1.000000*%
%ADD30RoundRect,0.150000X0.150000X-0.837500X0.150000X0.837500X-0.150000X0.837500X-0.150000X-0.837500X0*%
%ADD31RoundRect,0.150000X-0.150000X0.825000X-0.150000X-0.825000X0.150000X-0.825000X0.150000X0.825000X0*%
%ADD32RoundRect,0.250001X-0.872499X-1.044999X0.872499X-1.044999X0.872499X1.044999X-0.872499X1.044999X0*%
%ADD33RoundRect,0.150000X0.150000X-0.825000X0.150000X0.825000X-0.150000X0.825000X-0.150000X-0.825000X0*%
%ADD34RoundRect,0.250000X-0.450000X0.350000X-0.450000X-0.350000X0.450000X-0.350000X0.450000X0.350000X0*%
%ADD35RoundRect,0.125000X0.487500X0.125000X-0.487500X0.125000X-0.487500X-0.125000X0.487500X-0.125000X0*%
%ADD36RoundRect,0.250000X-1.000000X-0.650000X1.000000X-0.650000X1.000000X0.650000X-1.000000X0.650000X0*%
%ADD37RoundRect,0.250000X-0.250000X-0.250000X0.250000X-0.250000X0.250000X0.250000X-0.250000X0.250000X0*%
%ADD38R,1.100000X2.400000*%
%ADD39R,0.620000X1.400000*%
%ADD40RoundRect,0.250000X-0.350000X-0.450000X0.350000X-0.450000X0.350000X0.450000X-0.350000X0.450000X0*%
%ADD41RoundRect,0.125000X-0.125000X0.487500X-0.125000X-0.487500X0.125000X-0.487500X0.125000X0.487500X0*%
%ADD42RoundRect,0.250000X0.350000X0.450000X-0.350000X0.450000X-0.350000X-0.450000X0.350000X-0.450000X0*%
%ADD43R,0.600000X1.500000*%
G04 APERTURE END LIST*
D10*
%TO.C,J14*%
X175040120Y-49364000D03*
X174040120Y-49364000D03*
X172540120Y-49364000D03*
X171540120Y-49364000D03*
D11*
X170890120Y-49364000D03*
X170090120Y-49364000D03*
D10*
X172040120Y-49363999D03*
X173040120Y-49364000D03*
X173540120Y-49364000D03*
X174540119Y-49364000D03*
D11*
X175690120Y-49364000D03*
X176490120Y-49364000D03*
%TD*%
D12*
%TO.C,R34*%
X79144500Y-53848000D03*
X77319500Y-53848000D03*
%TD*%
%TO.C,R24*%
X147659620Y-72009000D03*
X145834620Y-72009000D03*
%TD*%
D13*
%TO.C,C32*%
X168616520Y-65849800D03*
X168616520Y-64299800D03*
%TD*%
D14*
%TO.C,U13*%
X132459620Y-63694000D03*
X133094620Y-63694000D03*
X133729620Y-63693999D03*
X134364620Y-63694000D03*
X134999620Y-63694000D03*
X135634620Y-63694000D03*
X136269620Y-63694000D03*
X136904620Y-63693999D03*
X137539620Y-63694000D03*
X138174620Y-63694000D03*
X138174620Y-68894000D03*
X137539620Y-68894000D03*
X136904620Y-68894001D03*
X136269620Y-68894000D03*
X135634620Y-68894000D03*
X134999620Y-68894000D03*
X134364620Y-68894000D03*
X133729620Y-68894001D03*
X133094620Y-68894000D03*
X132459620Y-68894000D03*
%TD*%
D15*
%TO.C,C25*%
X105247684Y-87081234D03*
X105247684Y-88631234D03*
%TD*%
D16*
%TO.C,R38*%
X98487120Y-54586500D03*
X98487120Y-56411500D03*
%TD*%
D17*
%TO.C,C21*%
X166505248Y-102624995D03*
X168055248Y-102624995D03*
%TD*%
%TO.C,C24*%
X73034634Y-76632048D03*
X74584634Y-76632048D03*
%TD*%
D16*
%TO.C,R37*%
X103567120Y-54586500D03*
X103567120Y-56411500D03*
%TD*%
%TO.C,R12*%
X142302120Y-134620000D03*
X142302120Y-136445000D03*
%TD*%
D13*
%TO.C,C13*%
X160590120Y-118885000D03*
X160590120Y-117335000D03*
%TD*%
D18*
%TO.C,U23*%
X167336320Y-81305400D03*
X168286320Y-81305400D03*
X169236320Y-81305400D03*
X169236320Y-83580400D03*
X168286320Y-83580400D03*
X167336320Y-83580400D03*
%TD*%
D19*
%TO.C,LED8*%
X142302120Y-141048499D03*
X142302120Y-142923501D03*
%TD*%
D15*
%TO.C,C8*%
X132422451Y-122494385D03*
X132422451Y-124044385D03*
%TD*%
D17*
%TO.C,C12*%
X156272120Y-129286000D03*
X157822120Y-129286000D03*
%TD*%
D20*
%TO.C,U19*%
X160067120Y-74296500D03*
X160717120Y-74296500D03*
X161367120Y-74296500D03*
X161367120Y-76071500D03*
X160717120Y-76071500D03*
X160067120Y-76071500D03*
%TD*%
D21*
%TO.C,R25*%
X172989120Y-76454000D03*
X174814120Y-76454000D03*
%TD*%
D18*
%TO.C,U20*%
X162957322Y-81361900D03*
X163907321Y-81361900D03*
X164857320Y-81361900D03*
X164857320Y-83636900D03*
X163907321Y-83636900D03*
X162957322Y-83636900D03*
%TD*%
D21*
%TO.C,R26*%
X180937420Y-65379600D03*
X182762420Y-65379600D03*
%TD*%
D22*
%TO.C,C18*%
X179428707Y-93103445D03*
X177878707Y-93103445D03*
%TD*%
D15*
%TO.C,C16*%
X137005856Y-99143000D03*
X137005856Y-100693000D03*
%TD*%
D23*
%TO.C,U6*%
X102043120Y-96393000D03*
X102043120Y-97663000D03*
X102043120Y-98933000D03*
X102043120Y-100203000D03*
X102043120Y-101473000D03*
X102043120Y-102743000D03*
X102043120Y-104013000D03*
X102043120Y-105283000D03*
X102043120Y-106553000D03*
X102043120Y-107823000D03*
X102043120Y-109093000D03*
X102043120Y-110363000D03*
X102043120Y-111633000D03*
X102043120Y-112903000D03*
X102043120Y-114173000D03*
X102043120Y-115443000D03*
D24*
X93537120Y-115443000D03*
X93537120Y-114173000D03*
X93537120Y-112903000D03*
X93537120Y-111633000D03*
X93537120Y-110363000D03*
X93537120Y-109093000D03*
X93537120Y-107823000D03*
X93537120Y-106553000D03*
X93537120Y-105283000D03*
X93537120Y-104013000D03*
X93537120Y-102743000D03*
X93537120Y-101473000D03*
X93537120Y-100203000D03*
X93537120Y-98933000D03*
X93537120Y-97663000D03*
X93537120Y-96393000D03*
%TD*%
D21*
%TO.C,R32*%
X77319500Y-56388000D03*
X79144500Y-56388000D03*
%TD*%
D15*
%TO.C,C11*%
X133670423Y-130391232D03*
X133670423Y-131941232D03*
%TD*%
D16*
%TO.C,R5*%
X71182120Y-134723500D03*
X71182120Y-136548500D03*
%TD*%
D21*
%TO.C,R33*%
X77356220Y-60934600D03*
X79181220Y-60934600D03*
%TD*%
%TO.C,R20*%
X145961620Y-96743000D03*
X147786620Y-96743000D03*
%TD*%
%TO.C,R36*%
X108949882Y-52324000D03*
X110774882Y-52324000D03*
%TD*%
D14*
%TO.C,U9*%
X108329620Y-63694000D03*
X108964620Y-63694000D03*
X109599620Y-63693999D03*
X110234620Y-63694000D03*
X110869620Y-63694000D03*
X111504620Y-63694000D03*
X112139620Y-63694000D03*
X112774620Y-63693999D03*
X113409620Y-63694000D03*
X114044620Y-63694000D03*
X114044620Y-68894000D03*
X113409620Y-68894000D03*
X112774620Y-68894001D03*
X112139620Y-68894000D03*
X111504620Y-68894000D03*
X110869620Y-68894000D03*
X110234620Y-68894000D03*
X109599620Y-68894001D03*
X108964620Y-68894000D03*
X108329620Y-68894000D03*
%TD*%
D21*
%TO.C,R14*%
X165519620Y-125984000D03*
X167344620Y-125984000D03*
%TD*%
D25*
%TO.C,J10*%
X110682520Y-46799200D03*
X133789720Y-46799200D03*
D26*
X112486119Y-49530000D03*
X112986120Y-49530000D03*
X113486120Y-49530000D03*
X113986121Y-49530000D03*
X114486120Y-49530000D03*
X114986120Y-49530000D03*
X115486120Y-49530000D03*
X115986120Y-49530000D03*
X116486120Y-49530001D03*
X116986120Y-49530000D03*
X117486120Y-49530000D03*
X117986120Y-49530000D03*
X118486120Y-49530000D03*
X118986120Y-49530001D03*
X119486120Y-49530000D03*
X119986120Y-49530000D03*
X120486121Y-49530000D03*
X120986120Y-49530000D03*
X121486119Y-49530000D03*
X121986120Y-49530000D03*
X122486120Y-49530000D03*
X122986121Y-49530000D03*
X123486120Y-49530000D03*
X123986119Y-49530000D03*
X124486120Y-49530000D03*
X124986120Y-49530000D03*
X125486120Y-49530001D03*
X125986120Y-49530000D03*
X126486120Y-49530000D03*
X126986120Y-49530000D03*
X127486120Y-49530000D03*
X127986120Y-49530001D03*
X128486120Y-49530000D03*
X128986120Y-49530000D03*
X129486120Y-49530000D03*
X129986120Y-49530000D03*
X130486119Y-49530000D03*
X130986120Y-49530000D03*
X131486120Y-49530000D03*
X131986121Y-49530000D03*
%TD*%
D27*
%TO.C,LED3*%
X68007120Y-142923501D03*
X68007120Y-141048499D03*
%TD*%
D16*
%TO.C,R1*%
X68007120Y-134723500D03*
X68007120Y-136548500D03*
%TD*%
D27*
%TO.C,LED7*%
X145477120Y-142923501D03*
X145477120Y-141048499D03*
%TD*%
D17*
%TO.C,C6*%
X110538479Y-136834401D03*
X112088479Y-136834401D03*
%TD*%
D13*
%TO.C,C26*%
X90357109Y-85950852D03*
X90357109Y-84400852D03*
%TD*%
D28*
%TO.C,U3*%
X182114119Y-121660500D03*
X180214121Y-121660500D03*
X180214121Y-119385500D03*
X181164120Y-119385500D03*
X182114119Y-119385500D03*
%TD*%
D29*
%TO.C,SW1*%
X178539120Y-132004000D03*
X183789120Y-132004000D03*
X178539120Y-135204000D03*
X183789120Y-135204000D03*
%TD*%
D22*
%TO.C,C36*%
X119735363Y-60966771D03*
X118185363Y-60966771D03*
%TD*%
D16*
%TO.C,R7*%
X155002120Y-134620000D03*
X155002120Y-136445000D03*
%TD*%
D30*
%TO.C,U21*%
X147382120Y-79689000D03*
X148652120Y-79689000D03*
X149922120Y-79689000D03*
X151192120Y-79689000D03*
X152462120Y-79689000D03*
X153732120Y-79689000D03*
X155002120Y-79689000D03*
X156272120Y-79689000D03*
X157542120Y-79689000D03*
X158812120Y-79689000D03*
X158812120Y-86614000D03*
X157542120Y-86614000D03*
X156272120Y-86614000D03*
X155002120Y-86614000D03*
X153732120Y-86614000D03*
X152462120Y-86614000D03*
X151192120Y-86614000D03*
X149922120Y-86614000D03*
X148652120Y-86614000D03*
X147382120Y-86614000D03*
%TD*%
D15*
%TO.C,C27*%
X128906700Y-75984762D03*
X128906700Y-77534762D03*
%TD*%
D16*
%TO.C,R10*%
X151827120Y-134620000D03*
X151827120Y-136445000D03*
%TD*%
D13*
%TO.C,C7*%
X120871948Y-125516422D03*
X120871948Y-123966422D03*
%TD*%
D16*
%TO.C,R39*%
X124014120Y-52427500D03*
X124014120Y-54252500D03*
%TD*%
D14*
%TO.C,U16*%
X132459620Y-74489000D03*
X133094620Y-74489000D03*
X133729620Y-74489000D03*
X134364620Y-74489000D03*
X134999620Y-74489000D03*
X135634620Y-74489000D03*
X136269620Y-74489000D03*
X136904620Y-74489000D03*
X137539620Y-74489000D03*
X138174620Y-74489000D03*
X138174620Y-79689000D03*
X137539620Y-79689000D03*
X136904620Y-79689000D03*
X136269620Y-79689000D03*
X135634620Y-79689000D03*
X134999620Y-79689000D03*
X134364620Y-79689000D03*
X133729620Y-79689000D03*
X133094620Y-79689000D03*
X132459620Y-79689000D03*
%TD*%
D13*
%TO.C,C30*%
X141123053Y-69503508D03*
X141123053Y-67953508D03*
%TD*%
D14*
%TO.C,U14*%
X126109620Y-79689000D03*
X125474620Y-79689000D03*
X124839620Y-79689001D03*
X124204620Y-79689000D03*
X123569620Y-79689000D03*
X122934620Y-79689000D03*
X122299620Y-79689000D03*
X121664620Y-79689001D03*
X121029620Y-79689000D03*
X120394620Y-79689000D03*
X120394620Y-74489000D03*
X121029620Y-74489000D03*
X121664620Y-74488999D03*
X122299620Y-74489000D03*
X122934620Y-74489000D03*
X123569620Y-74489000D03*
X124204620Y-74489000D03*
X124839620Y-74488999D03*
X125474620Y-74489000D03*
X126109620Y-74489000D03*
%TD*%
D31*
%TO.C,U1*%
X90740120Y-141667000D03*
X89470120Y-141667000D03*
X88200120Y-141667000D03*
X86930120Y-141667000D03*
X85660120Y-141667000D03*
X84390120Y-141667000D03*
X83120120Y-141667000D03*
X83120120Y-136717000D03*
X84390120Y-136717000D03*
X85660120Y-136717000D03*
X86930120Y-136717000D03*
X88200120Y-136717000D03*
X89470120Y-136717000D03*
X90740120Y-136717000D03*
%TD*%
D12*
%TO.C,R29*%
X79144500Y-51308000D03*
X77319500Y-51308000D03*
%TD*%
D13*
%TO.C,C14*%
X163130120Y-125997000D03*
X163130120Y-124447000D03*
%TD*%
D27*
%TO.C,LED5*%
X77532120Y-142923501D03*
X77532120Y-141048499D03*
%TD*%
D14*
%TO.C,U24*%
X88644620Y-54804000D03*
X89279620Y-54804000D03*
X89914620Y-54803999D03*
X90549620Y-54804000D03*
X91184620Y-54804000D03*
X91819620Y-54804000D03*
X92454620Y-54804000D03*
X93089620Y-54803999D03*
X93724620Y-54804000D03*
X94359620Y-54804000D03*
X94359620Y-60004000D03*
X93724620Y-60004000D03*
X93089620Y-60004001D03*
X92454620Y-60004000D03*
X91819620Y-60004000D03*
X91184620Y-60004000D03*
X90549620Y-60004000D03*
X89914620Y-60004001D03*
X89279620Y-60004000D03*
X88644620Y-60004000D03*
%TD*%
D17*
%TO.C,C10*%
X128251030Y-139049555D03*
X129801030Y-139049555D03*
%TD*%
D22*
%TO.C,C2*%
X82638120Y-132842000D03*
X81088120Y-132842000D03*
%TD*%
D21*
%TO.C,R11*%
X163233620Y-114554000D03*
X165058620Y-114554000D03*
%TD*%
D32*
%TO.C,C38*%
X178021620Y-62738000D03*
X171606620Y-62738000D03*
%TD*%
D33*
%TO.C,U4*%
X163257120Y-117159000D03*
X164527120Y-117159000D03*
X165797120Y-117159000D03*
X167067120Y-117159000D03*
X167067120Y-122109000D03*
X165797120Y-122109000D03*
X164527120Y-122109000D03*
X163257120Y-122109000D03*
%TD*%
D16*
%TO.C,R3*%
X74357120Y-134723500D03*
X74357120Y-136548500D03*
%TD*%
D12*
%TO.C,R23*%
X126958620Y-84836000D03*
X125133620Y-84836000D03*
%TD*%
%TO.C,R6*%
X160486620Y-123190000D03*
X158661620Y-123190000D03*
%TD*%
D34*
%TO.C,R13*%
X177227120Y-139684000D03*
X177227120Y-137684000D03*
%TD*%
D16*
%TO.C,R40*%
X119188120Y-52427500D03*
X119188120Y-54252500D03*
%TD*%
D31*
%TO.C,U8*%
X82993120Y-85660000D03*
X81723120Y-85660000D03*
X80453120Y-85660000D03*
X79183120Y-85660000D03*
X77913120Y-85660000D03*
X76643120Y-85660000D03*
X75373120Y-85660000D03*
X74103120Y-85660000D03*
X74103120Y-80710000D03*
X75373120Y-80710000D03*
X76643120Y-80710000D03*
X77913120Y-80710000D03*
X79183120Y-80710000D03*
X80453120Y-80710000D03*
X81723120Y-80710000D03*
X82993120Y-80710000D03*
%TD*%
D17*
%TO.C,C3*%
X66188449Y-131207229D03*
X67738449Y-131207229D03*
%TD*%
D27*
%TO.C,LED9*%
X151827120Y-142923501D03*
X151827120Y-141048499D03*
%TD*%
D35*
%TO.C,D2*%
X136696723Y-52066253D03*
X138571724Y-51416253D03*
X138571724Y-52716253D03*
%TD*%
D13*
%TO.C,C34*%
X85902315Y-54096345D03*
X85902315Y-52546345D03*
%TD*%
D22*
%TO.C,C9*%
X135641115Y-133881692D03*
X134091115Y-133881692D03*
%TD*%
%TO.C,C35*%
X104265304Y-62168616D03*
X102715304Y-62168616D03*
%TD*%
D16*
%TO.C,R8*%
X148652120Y-134620000D03*
X148652120Y-136445000D03*
%TD*%
D21*
%TO.C,R19*%
X145961620Y-103093000D03*
X147786620Y-103093000D03*
%TD*%
D31*
%TO.C,U12*%
X101687520Y-85660000D03*
X100417520Y-85660000D03*
X99147520Y-85660000D03*
X97877520Y-85660000D03*
X96607520Y-85660000D03*
X95337520Y-85660000D03*
X94067520Y-85660000D03*
X92797520Y-85660000D03*
X92797520Y-80710000D03*
X94067520Y-80710000D03*
X95337520Y-80710000D03*
X96607520Y-80710000D03*
X97877520Y-80710000D03*
X99147520Y-80710000D03*
X100417520Y-80710000D03*
X101687520Y-80710000D03*
%TD*%
D22*
%TO.C,C20*%
X172253811Y-89220533D03*
X170703811Y-89220533D03*
%TD*%
D36*
%TO.C,D4*%
X176814120Y-56896000D03*
X172814120Y-56896000D03*
%TD*%
D27*
%TO.C,LED4*%
X71182120Y-142923501D03*
X71182120Y-141048499D03*
%TD*%
D16*
%TO.C,R9*%
X145477120Y-134620000D03*
X145477120Y-136445000D03*
%TD*%
D33*
%TO.C,U10*%
X108012120Y-74549000D03*
X109282120Y-74549000D03*
X110552120Y-74549000D03*
X111822120Y-74549000D03*
X113092120Y-74549000D03*
X114362120Y-74549000D03*
X115632120Y-74549000D03*
X115632120Y-79499000D03*
X114362120Y-79499000D03*
X113092120Y-79499000D03*
X111822120Y-79499000D03*
X110552120Y-79499000D03*
X109282120Y-79499000D03*
X108012120Y-79499000D03*
%TD*%
D16*
%TO.C,R41*%
X121220120Y-52427500D03*
X121220120Y-54252500D03*
%TD*%
%TO.C,R2*%
X77532120Y-134723500D03*
X77532120Y-136548500D03*
%TD*%
D18*
%TO.C,SPARE1*%
X91370121Y-121031000D03*
X90426120Y-121031000D03*
X89470120Y-121031000D03*
X104197120Y-121036500D03*
X102297120Y-121036500D03*
D28*
X98990120Y-121042000D03*
X97090120Y-121042000D03*
X98040120Y-121042001D03*
D18*
X91370121Y-123306000D03*
X90420120Y-123306000D03*
X89470120Y-123306000D03*
X104197120Y-123311500D03*
X103247120Y-123311500D03*
X102297120Y-123311501D03*
D28*
X98990120Y-123317000D03*
X97090120Y-123317000D03*
%TD*%
D37*
%TO.C,D3*%
X142790119Y-44450000D03*
X140290121Y-44450000D03*
%TD*%
D27*
%TO.C,LED6*%
X148652120Y-142923501D03*
X148652120Y-141048499D03*
%TD*%
D15*
%TO.C,C17*%
X160606450Y-94273554D03*
X160606450Y-95823554D03*
%TD*%
D21*
%TO.C,R16*%
X128994420Y-89966800D03*
X130819420Y-89966800D03*
%TD*%
D22*
%TO.C,C5*%
X101284633Y-138790617D03*
X99734633Y-138790617D03*
%TD*%
D38*
%TO.C,SD1*%
X174474120Y-142074000D03*
X174474120Y-133074000D03*
X158324120Y-142074000D03*
X158324120Y-133074000D03*
D39*
X159704120Y-131074000D03*
X160804120Y-131074000D03*
X161904120Y-131074000D03*
X163004120Y-131074000D03*
X164104120Y-131074000D03*
X165204120Y-131074000D03*
X166304120Y-131074000D03*
X167404120Y-131074000D03*
X168504120Y-131074000D03*
%TD*%
D21*
%TO.C,R27*%
X172989120Y-71374000D03*
X174814120Y-71374000D03*
%TD*%
D12*
%TO.C,R21*%
X65936500Y-76454000D03*
X64111500Y-76454000D03*
%TD*%
D22*
%TO.C,C37*%
X132627855Y-60397795D03*
X131077855Y-60397795D03*
%TD*%
%TO.C,C4*%
X102637154Y-131139949D03*
X101087154Y-131139949D03*
%TD*%
D21*
%TO.C,R18*%
X145961620Y-93568000D03*
X147786620Y-93568000D03*
%TD*%
D15*
%TO.C,C33*%
X78802120Y-62725000D03*
X78802120Y-64275000D03*
%TD*%
D40*
%TO.C,R42*%
X182672120Y-52832000D03*
X180672120Y-52832000D03*
%TD*%
D12*
%TO.C,R31*%
X79144500Y-58928000D03*
X77319500Y-58928000D03*
%TD*%
D22*
%TO.C,C28*%
X118312120Y-84647856D03*
X116762120Y-84647856D03*
%TD*%
D17*
%TO.C,C22*%
X172134120Y-107677058D03*
X173684120Y-107677058D03*
%TD*%
%TO.C,C1*%
X93120771Y-142801723D03*
X94670771Y-142801723D03*
%TD*%
D27*
%TO.C,LED2*%
X80707120Y-142923501D03*
X80707120Y-141048499D03*
%TD*%
D16*
%TO.C,R35*%
X101027120Y-54586500D03*
X101027120Y-56411500D03*
%TD*%
D27*
%TO.C,LED1*%
X74357120Y-142923501D03*
X74357120Y-141048499D03*
%TD*%
D22*
%TO.C,C15*%
X171525120Y-127254000D03*
X169975120Y-127254000D03*
%TD*%
D17*
%TO.C,C19*%
X173952333Y-103595998D03*
X175502333Y-103595998D03*
%TD*%
D21*
%TO.C,R17*%
X145961620Y-99918000D03*
X147786620Y-99918000D03*
%TD*%
D12*
%TO.C,R30*%
X68792620Y-62992000D03*
X66967620Y-62992000D03*
%TD*%
D14*
%TO.C,U17*%
X120394620Y-63694000D03*
X121029620Y-63694000D03*
X121664620Y-63693999D03*
X122299620Y-63694000D03*
X122934620Y-63694000D03*
X123569620Y-63694000D03*
X124204620Y-63694000D03*
X124839620Y-63693999D03*
X125474620Y-63694000D03*
X126109620Y-63694000D03*
X126109620Y-68894000D03*
X125474620Y-68894000D03*
X124839620Y-68894001D03*
X124204620Y-68894000D03*
X123569620Y-68894000D03*
X122934620Y-68894000D03*
X122299620Y-68894000D03*
X121664620Y-68894001D03*
X121029620Y-68894000D03*
X120394620Y-68894000D03*
%TD*%
D21*
%TO.C,R28*%
X172989120Y-73914000D03*
X174814120Y-73914000D03*
%TD*%
D13*
%TO.C,C29*%
X138405519Y-89525924D03*
X138405519Y-87975924D03*
%TD*%
%TO.C,C23*%
X176851532Y-101765835D03*
X176851532Y-100215835D03*
%TD*%
D16*
%TO.C,R4*%
X80707120Y-134723500D03*
X80707120Y-136548500D03*
%TD*%
D12*
%TO.C,R15*%
X168868620Y-114554000D03*
X167043620Y-114554000D03*
%TD*%
D41*
%TO.C,D1*%
X107496647Y-47796492D03*
X106846647Y-45921491D03*
X108146647Y-45921491D03*
%TD*%
D27*
%TO.C,LED10*%
X155002120Y-142923501D03*
X155002120Y-141048499D03*
%TD*%
D15*
%TO.C,C31*%
X145096120Y-79997000D03*
X145096120Y-81547000D03*
%TD*%
D42*
%TO.C,R22*%
X105945320Y-70688200D03*
X107945320Y-70688200D03*
%TD*%
D43*
%TO.C,U2*%
X154367120Y-130988000D03*
X153097120Y-130988000D03*
X151827120Y-130988000D03*
X150557120Y-130988000D03*
X149287120Y-130988000D03*
X148017120Y-130988000D03*
X146747120Y-130988000D03*
X145477120Y-130988000D03*
X144207120Y-130988000D03*
X142937120Y-130988000D03*
X142937120Y-121488000D03*
X144207120Y-121488000D03*
X145477120Y-121488000D03*
X146747120Y-121488000D03*
X148017120Y-121488000D03*
X149287120Y-121488000D03*
X150557120Y-121488000D03*
X151827120Y-121488000D03*
X153097120Y-121488000D03*
X154367120Y-121488000D03*
%TD*%
M02*
