%TF.GenerationSoftware,KiCad,Pcbnew,9.0.9*%
%TF.CreationDate,2026-08-16T13:25:16-07:00*%
%TF.ProjectId,ZID_MAIN,5a49445f-4d41-4494-9e2e-6b696361645f,PR1.0*%
%TF.SameCoordinates,Original*%
%TF.FileFunction,Legend,Bot*%
%TF.FilePolarity,Positive*%
%FSLAX46Y46*%
G04 Gerber Fmt 4.6, Leading zero omitted, Abs format (unit mm)*
G04 Created by KiCad (PCBNEW 9.0.9) date 2026-08-16 13:25:16*
%MOMM*%
%LPD*%
G01*
G04 APERTURE LIST*
%ADD10C,0.150000*%
%ADD11C,0.139700*%
%ADD12C,0.120000*%
G04 APERTURE END LIST*
D10*
X176221872Y-51061209D02*
X176079015Y-51108828D01*
X176079015Y-51108828D02*
X176031396Y-51156447D01*
X176031396Y-51156447D02*
X175983777Y-51251685D01*
X175983777Y-51251685D02*
X175983777Y-51394542D01*
X175983777Y-51394542D02*
X176031396Y-51489780D01*
X176031396Y-51489780D02*
X176079015Y-51537400D01*
X176079015Y-51537400D02*
X176174253Y-51585019D01*
X176174253Y-51585019D02*
X176555205Y-51585019D01*
X176555205Y-51585019D02*
X176555205Y-50585019D01*
X176555205Y-50585019D02*
X176221872Y-50585019D01*
X176221872Y-50585019D02*
X176126634Y-50632638D01*
X176126634Y-50632638D02*
X176079015Y-50680257D01*
X176079015Y-50680257D02*
X176031396Y-50775495D01*
X176031396Y-50775495D02*
X176031396Y-50870733D01*
X176031396Y-50870733D02*
X176079015Y-50965971D01*
X176079015Y-50965971D02*
X176126634Y-51013590D01*
X176126634Y-51013590D02*
X176221872Y-51061209D01*
X176221872Y-51061209D02*
X176555205Y-51061209D01*
X174983777Y-51585019D02*
X175317110Y-51108828D01*
X175555205Y-51585019D02*
X175555205Y-50585019D01*
X175555205Y-50585019D02*
X175174253Y-50585019D01*
X175174253Y-50585019D02*
X175079015Y-50632638D01*
X175079015Y-50632638D02*
X175031396Y-50680257D01*
X175031396Y-50680257D02*
X174983777Y-50775495D01*
X174983777Y-50775495D02*
X174983777Y-50918352D01*
X174983777Y-50918352D02*
X175031396Y-51013590D01*
X175031396Y-51013590D02*
X175079015Y-51061209D01*
X175079015Y-51061209D02*
X175174253Y-51108828D01*
X175174253Y-51108828D02*
X175555205Y-51108828D01*
X174555205Y-51585019D02*
X174555205Y-50585019D01*
X174555205Y-50585019D02*
X174317110Y-50585019D01*
X174317110Y-50585019D02*
X174174253Y-50632638D01*
X174174253Y-50632638D02*
X174079015Y-50727876D01*
X174079015Y-50727876D02*
X174031396Y-50823114D01*
X174031396Y-50823114D02*
X173983777Y-51013590D01*
X173983777Y-51013590D02*
X173983777Y-51156447D01*
X173983777Y-51156447D02*
X174031396Y-51346923D01*
X174031396Y-51346923D02*
X174079015Y-51442161D01*
X174079015Y-51442161D02*
X174174253Y-51537400D01*
X174174253Y-51537400D02*
X174317110Y-51585019D01*
X174317110Y-51585019D02*
X174555205Y-51585019D01*
X172793300Y-51585019D02*
X172793300Y-50585019D01*
X172793300Y-50585019D02*
X172412348Y-50585019D01*
X172412348Y-50585019D02*
X172317110Y-50632638D01*
X172317110Y-50632638D02*
X172269491Y-50680257D01*
X172269491Y-50680257D02*
X172221872Y-50775495D01*
X172221872Y-50775495D02*
X172221872Y-50918352D01*
X172221872Y-50918352D02*
X172269491Y-51013590D01*
X172269491Y-51013590D02*
X172317110Y-51061209D01*
X172317110Y-51061209D02*
X172412348Y-51108828D01*
X172412348Y-51108828D02*
X172793300Y-51108828D01*
X171888538Y-50585019D02*
X171650443Y-51585019D01*
X171650443Y-51585019D02*
X171459967Y-50870733D01*
X171459967Y-50870733D02*
X171269491Y-51585019D01*
X171269491Y-51585019D02*
X171031396Y-50585019D01*
X170079015Y-51585019D02*
X170412348Y-51108828D01*
X170650443Y-51585019D02*
X170650443Y-50585019D01*
X170650443Y-50585019D02*
X170269491Y-50585019D01*
X170269491Y-50585019D02*
X170174253Y-50632638D01*
X170174253Y-50632638D02*
X170126634Y-50680257D01*
X170126634Y-50680257D02*
X170079015Y-50775495D01*
X170079015Y-50775495D02*
X170079015Y-50918352D01*
X170079015Y-50918352D02*
X170126634Y-51013590D01*
X170126634Y-51013590D02*
X170174253Y-51061209D01*
X170174253Y-51061209D02*
X170269491Y-51108828D01*
X170269491Y-51108828D02*
X170650443Y-51108828D01*
D11*
X142055360Y-103831995D02*
X141547360Y-103831995D01*
X141801360Y-103831995D02*
X141801360Y-104720995D01*
X141801360Y-104720995D02*
X141716693Y-104593995D01*
X141716693Y-104593995D02*
X141632027Y-104509329D01*
X141632027Y-104509329D02*
X141547360Y-104466995D01*
X142944360Y-103916662D02*
X142902027Y-103874329D01*
X142902027Y-103874329D02*
X142775027Y-103831995D01*
X142775027Y-103831995D02*
X142690360Y-103831995D01*
X142690360Y-103831995D02*
X142563360Y-103874329D01*
X142563360Y-103874329D02*
X142478694Y-103958995D01*
X142478694Y-103958995D02*
X142436360Y-104043662D01*
X142436360Y-104043662D02*
X142394027Y-104212995D01*
X142394027Y-104212995D02*
X142394027Y-104339995D01*
X142394027Y-104339995D02*
X142436360Y-104509329D01*
X142436360Y-104509329D02*
X142478694Y-104593995D01*
X142478694Y-104593995D02*
X142563360Y-104678662D01*
X142563360Y-104678662D02*
X142690360Y-104720995D01*
X142690360Y-104720995D02*
X142775027Y-104720995D01*
X142775027Y-104720995D02*
X142902027Y-104678662D01*
X142902027Y-104678662D02*
X142944360Y-104636329D01*
X143325360Y-103831995D02*
X143325360Y-104720995D01*
X143833360Y-103831995D02*
X143452360Y-104339995D01*
X143833360Y-104720995D02*
X143325360Y-104212995D01*
X141547360Y-102604329D02*
X141589693Y-102646662D01*
X141589693Y-102646662D02*
X141674360Y-102688995D01*
X141674360Y-102688995D02*
X141886027Y-102688995D01*
X141886027Y-102688995D02*
X141970693Y-102646662D01*
X141970693Y-102646662D02*
X142013027Y-102604329D01*
X142013027Y-102604329D02*
X142055360Y-102519662D01*
X142055360Y-102519662D02*
X142055360Y-102434995D01*
X142055360Y-102434995D02*
X142013027Y-102307995D01*
X142013027Y-102307995D02*
X141505027Y-101799995D01*
X141505027Y-101799995D02*
X142055360Y-101799995D01*
X142436360Y-102138662D02*
X143113694Y-102138662D01*
X141505027Y-100656995D02*
X142055360Y-100656995D01*
X142055360Y-100656995D02*
X141759027Y-100318329D01*
X141759027Y-100318329D02*
X141886027Y-100318329D01*
X141886027Y-100318329D02*
X141970693Y-100275995D01*
X141970693Y-100275995D02*
X142013027Y-100233662D01*
X142013027Y-100233662D02*
X142055360Y-100148995D01*
X142055360Y-100148995D02*
X142055360Y-99937329D01*
X142055360Y-99937329D02*
X142013027Y-99852662D01*
X142013027Y-99852662D02*
X141970693Y-99810329D01*
X141970693Y-99810329D02*
X141886027Y-99767995D01*
X141886027Y-99767995D02*
X141632027Y-99767995D01*
X141632027Y-99767995D02*
X141547360Y-99810329D01*
X141547360Y-99810329D02*
X141505027Y-99852662D01*
X142436360Y-99767995D02*
X142436360Y-100656995D01*
X142436360Y-100656995D02*
X142732694Y-100021995D01*
X142732694Y-100021995D02*
X143029027Y-100656995D01*
X143029027Y-100656995D02*
X143029027Y-99767995D01*
X143452360Y-99767995D02*
X143452360Y-100656995D01*
X141970693Y-98328662D02*
X141970693Y-97735995D01*
X141759027Y-98667329D02*
X141547360Y-98032329D01*
X141547360Y-98032329D02*
X142097693Y-98032329D01*
X142436360Y-98074662D02*
X143113694Y-98074662D01*
X142775027Y-97735995D02*
X142775027Y-98413329D01*
X142013027Y-96592995D02*
X141589693Y-96592995D01*
X141589693Y-96592995D02*
X141547360Y-96169662D01*
X141547360Y-96169662D02*
X141589693Y-96211995D01*
X141589693Y-96211995D02*
X141674360Y-96254329D01*
X141674360Y-96254329D02*
X141886027Y-96254329D01*
X141886027Y-96254329D02*
X141970693Y-96211995D01*
X141970693Y-96211995D02*
X142013027Y-96169662D01*
X142013027Y-96169662D02*
X142055360Y-96084995D01*
X142055360Y-96084995D02*
X142055360Y-95873329D01*
X142055360Y-95873329D02*
X142013027Y-95788662D01*
X142013027Y-95788662D02*
X141970693Y-95746329D01*
X141970693Y-95746329D02*
X141886027Y-95703995D01*
X141886027Y-95703995D02*
X141674360Y-95703995D01*
X141674360Y-95703995D02*
X141589693Y-95746329D01*
X141589693Y-95746329D02*
X141547360Y-95788662D01*
X142944360Y-95788662D02*
X142902027Y-95746329D01*
X142902027Y-95746329D02*
X142775027Y-95703995D01*
X142775027Y-95703995D02*
X142690360Y-95703995D01*
X142690360Y-95703995D02*
X142563360Y-95746329D01*
X142563360Y-95746329D02*
X142478694Y-95830995D01*
X142478694Y-95830995D02*
X142436360Y-95915662D01*
X142436360Y-95915662D02*
X142394027Y-96084995D01*
X142394027Y-96084995D02*
X142394027Y-96211995D01*
X142394027Y-96211995D02*
X142436360Y-96381329D01*
X142436360Y-96381329D02*
X142478694Y-96465995D01*
X142478694Y-96465995D02*
X142563360Y-96550662D01*
X142563360Y-96550662D02*
X142690360Y-96592995D01*
X142690360Y-96592995D02*
X142775027Y-96592995D01*
X142775027Y-96592995D02*
X142902027Y-96550662D01*
X142902027Y-96550662D02*
X142944360Y-96508329D01*
X143283027Y-95746329D02*
X143410027Y-95703995D01*
X143410027Y-95703995D02*
X143621694Y-95703995D01*
X143621694Y-95703995D02*
X143706360Y-95746329D01*
X143706360Y-95746329D02*
X143748694Y-95788662D01*
X143748694Y-95788662D02*
X143791027Y-95873329D01*
X143791027Y-95873329D02*
X143791027Y-95957995D01*
X143791027Y-95957995D02*
X143748694Y-96042662D01*
X143748694Y-96042662D02*
X143706360Y-96084995D01*
X143706360Y-96084995D02*
X143621694Y-96127329D01*
X143621694Y-96127329D02*
X143452360Y-96169662D01*
X143452360Y-96169662D02*
X143367694Y-96211995D01*
X143367694Y-96211995D02*
X143325360Y-96254329D01*
X143325360Y-96254329D02*
X143283027Y-96338995D01*
X143283027Y-96338995D02*
X143283027Y-96423662D01*
X143283027Y-96423662D02*
X143325360Y-96508329D01*
X143325360Y-96508329D02*
X143367694Y-96550662D01*
X143367694Y-96550662D02*
X143452360Y-96592995D01*
X143452360Y-96592995D02*
X143664027Y-96592995D01*
X143664027Y-96592995D02*
X143791027Y-96550662D01*
X141970693Y-94560995D02*
X141801360Y-94560995D01*
X141801360Y-94560995D02*
X141716693Y-94518662D01*
X141716693Y-94518662D02*
X141674360Y-94476329D01*
X141674360Y-94476329D02*
X141589693Y-94349329D01*
X141589693Y-94349329D02*
X141547360Y-94179995D01*
X141547360Y-94179995D02*
X141547360Y-93841329D01*
X141547360Y-93841329D02*
X141589693Y-93756662D01*
X141589693Y-93756662D02*
X141632027Y-93714329D01*
X141632027Y-93714329D02*
X141716693Y-93671995D01*
X141716693Y-93671995D02*
X141886027Y-93671995D01*
X141886027Y-93671995D02*
X141970693Y-93714329D01*
X141970693Y-93714329D02*
X142013027Y-93756662D01*
X142013027Y-93756662D02*
X142055360Y-93841329D01*
X142055360Y-93841329D02*
X142055360Y-94052995D01*
X142055360Y-94052995D02*
X142013027Y-94137662D01*
X142013027Y-94137662D02*
X141970693Y-94179995D01*
X141970693Y-94179995D02*
X141886027Y-94222329D01*
X141886027Y-94222329D02*
X141716693Y-94222329D01*
X141716693Y-94222329D02*
X141632027Y-94179995D01*
X141632027Y-94179995D02*
X141589693Y-94137662D01*
X141589693Y-94137662D02*
X141547360Y-94052995D01*
X142436360Y-93671995D02*
X142436360Y-94560995D01*
X142436360Y-94560995D02*
X142732694Y-93925995D01*
X142732694Y-93925995D02*
X143029027Y-94560995D01*
X143029027Y-94560995D02*
X143029027Y-93671995D01*
X143621694Y-94560995D02*
X143791027Y-94560995D01*
X143791027Y-94560995D02*
X143875694Y-94518662D01*
X143875694Y-94518662D02*
X143960360Y-94433995D01*
X143960360Y-94433995D02*
X144002694Y-94264662D01*
X144002694Y-94264662D02*
X144002694Y-93968329D01*
X144002694Y-93968329D02*
X143960360Y-93798995D01*
X143960360Y-93798995D02*
X143875694Y-93714329D01*
X143875694Y-93714329D02*
X143791027Y-93671995D01*
X143791027Y-93671995D02*
X143621694Y-93671995D01*
X143621694Y-93671995D02*
X143537027Y-93714329D01*
X143537027Y-93714329D02*
X143452360Y-93798995D01*
X143452360Y-93798995D02*
X143410027Y-93968329D01*
X143410027Y-93968329D02*
X143410027Y-94264662D01*
X143410027Y-94264662D02*
X143452360Y-94433995D01*
X143452360Y-94433995D02*
X143537027Y-94518662D01*
X143537027Y-94518662D02*
X143621694Y-94560995D01*
D10*
X132088939Y-103656143D02*
X131088939Y-103656143D01*
X131088939Y-103656143D02*
X131088939Y-103894238D01*
X131088939Y-103894238D02*
X131136558Y-104037095D01*
X131136558Y-104037095D02*
X131231796Y-104132333D01*
X131231796Y-104132333D02*
X131327034Y-104179952D01*
X131327034Y-104179952D02*
X131517510Y-104227571D01*
X131517510Y-104227571D02*
X131660367Y-104227571D01*
X131660367Y-104227571D02*
X131850843Y-104179952D01*
X131850843Y-104179952D02*
X131946081Y-104132333D01*
X131946081Y-104132333D02*
X132041320Y-104037095D01*
X132041320Y-104037095D02*
X132088939Y-103894238D01*
X132088939Y-103894238D02*
X132088939Y-103656143D01*
X131565129Y-104989476D02*
X131612748Y-105132333D01*
X131612748Y-105132333D02*
X131660367Y-105179952D01*
X131660367Y-105179952D02*
X131755605Y-105227571D01*
X131755605Y-105227571D02*
X131898462Y-105227571D01*
X131898462Y-105227571D02*
X131993700Y-105179952D01*
X131993700Y-105179952D02*
X132041320Y-105132333D01*
X132041320Y-105132333D02*
X132088939Y-105037095D01*
X132088939Y-105037095D02*
X132088939Y-104656143D01*
X132088939Y-104656143D02*
X131088939Y-104656143D01*
X131088939Y-104656143D02*
X131088939Y-104989476D01*
X131088939Y-104989476D02*
X131136558Y-105084714D01*
X131136558Y-105084714D02*
X131184177Y-105132333D01*
X131184177Y-105132333D02*
X131279415Y-105179952D01*
X131279415Y-105179952D02*
X131374653Y-105179952D01*
X131374653Y-105179952D02*
X131469891Y-105132333D01*
X131469891Y-105132333D02*
X131517510Y-105084714D01*
X131517510Y-105084714D02*
X131565129Y-104989476D01*
X131565129Y-104989476D02*
X131565129Y-104656143D01*
X131088939Y-105846619D02*
X131088939Y-106037095D01*
X131088939Y-106037095D02*
X131136558Y-106132333D01*
X131136558Y-106132333D02*
X131231796Y-106227571D01*
X131231796Y-106227571D02*
X131422272Y-106275190D01*
X131422272Y-106275190D02*
X131755605Y-106275190D01*
X131755605Y-106275190D02*
X131946081Y-106227571D01*
X131946081Y-106227571D02*
X132041320Y-106132333D01*
X132041320Y-106132333D02*
X132088939Y-106037095D01*
X132088939Y-106037095D02*
X132088939Y-105846619D01*
X132088939Y-105846619D02*
X132041320Y-105751381D01*
X132041320Y-105751381D02*
X131946081Y-105656143D01*
X131946081Y-105656143D02*
X131755605Y-105608524D01*
X131755605Y-105608524D02*
X131422272Y-105608524D01*
X131422272Y-105608524D02*
X131231796Y-105656143D01*
X131231796Y-105656143D02*
X131136558Y-105751381D01*
X131136558Y-105751381D02*
X131088939Y-105846619D01*
X132088939Y-106703762D02*
X131088939Y-106703762D01*
X131088939Y-106703762D02*
X131088939Y-107084714D01*
X131088939Y-107084714D02*
X131136558Y-107179952D01*
X131136558Y-107179952D02*
X131184177Y-107227571D01*
X131184177Y-107227571D02*
X131279415Y-107275190D01*
X131279415Y-107275190D02*
X131422272Y-107275190D01*
X131422272Y-107275190D02*
X131517510Y-107227571D01*
X131517510Y-107227571D02*
X131565129Y-107179952D01*
X131565129Y-107179952D02*
X131612748Y-107084714D01*
X131612748Y-107084714D02*
X131612748Y-106703762D01*
X131088939Y-107560905D02*
X131088939Y-108132333D01*
X132088939Y-107846619D02*
X131088939Y-107846619D01*
X132088939Y-108989476D02*
X132088939Y-108418048D01*
X132088939Y-108703762D02*
X131088939Y-108703762D01*
X131088939Y-108703762D02*
X131231796Y-108608524D01*
X131231796Y-108608524D02*
X131327034Y-108513286D01*
X131327034Y-108513286D02*
X131374653Y-108418048D01*
X83336939Y-78219541D02*
X83336939Y-78886207D01*
X83336939Y-78886207D02*
X84336939Y-78219541D01*
X84336939Y-78219541D02*
X84336939Y-78886207D01*
X84336939Y-79267160D02*
X83336939Y-79267160D01*
X83336939Y-79267160D02*
X84051224Y-79600493D01*
X84051224Y-79600493D02*
X83336939Y-79933826D01*
X83336939Y-79933826D02*
X84336939Y-79933826D01*
X84336939Y-80933826D02*
X84336939Y-80362398D01*
X84336939Y-80648112D02*
X83336939Y-80648112D01*
X83336939Y-80648112D02*
X83479796Y-80552874D01*
X83479796Y-80552874D02*
X83575034Y-80457636D01*
X83575034Y-80457636D02*
X83622653Y-80362398D01*
X85876939Y-78219541D02*
X85876939Y-78886207D01*
X85876939Y-78886207D02*
X86876939Y-78219541D01*
X86876939Y-78219541D02*
X86876939Y-78886207D01*
X86876939Y-79267160D02*
X85876939Y-79267160D01*
X85876939Y-79267160D02*
X86591224Y-79600493D01*
X86591224Y-79600493D02*
X85876939Y-79933826D01*
X85876939Y-79933826D02*
X86876939Y-79933826D01*
X86876939Y-80981445D02*
X86400748Y-80648112D01*
X86876939Y-80410017D02*
X85876939Y-80410017D01*
X85876939Y-80410017D02*
X85876939Y-80790969D01*
X85876939Y-80790969D02*
X85924558Y-80886207D01*
X85924558Y-80886207D02*
X85972177Y-80933826D01*
X85972177Y-80933826D02*
X86067415Y-80981445D01*
X86067415Y-80981445D02*
X86210272Y-80981445D01*
X86210272Y-80981445D02*
X86305510Y-80933826D01*
X86305510Y-80933826D02*
X86353129Y-80886207D01*
X86353129Y-80886207D02*
X86400748Y-80790969D01*
X86400748Y-80790969D02*
X86400748Y-80410017D01*
X86353129Y-81410017D02*
X86353129Y-81743350D01*
X86876939Y-81886207D02*
X86876939Y-81410017D01*
X86876939Y-81410017D02*
X85876939Y-81410017D01*
X85876939Y-81410017D02*
X85876939Y-81886207D01*
X86972177Y-82981445D02*
X86924558Y-82886207D01*
X86924558Y-82886207D02*
X86829320Y-82790969D01*
X86829320Y-82790969D02*
X86686462Y-82648112D01*
X86686462Y-82648112D02*
X86638843Y-82552874D01*
X86638843Y-82552874D02*
X86638843Y-82457636D01*
X86876939Y-82505255D02*
X86829320Y-82410017D01*
X86829320Y-82410017D02*
X86734081Y-82314779D01*
X86734081Y-82314779D02*
X86543605Y-82267160D01*
X86543605Y-82267160D02*
X86210272Y-82267160D01*
X86210272Y-82267160D02*
X86019796Y-82314779D01*
X86019796Y-82314779D02*
X85924558Y-82410017D01*
X85924558Y-82410017D02*
X85876939Y-82505255D01*
X85876939Y-82505255D02*
X85876939Y-82695731D01*
X85876939Y-82695731D02*
X85924558Y-82790969D01*
X85924558Y-82790969D02*
X86019796Y-82886207D01*
X86019796Y-82886207D02*
X86210272Y-82933826D01*
X86210272Y-82933826D02*
X86543605Y-82933826D01*
X86543605Y-82933826D02*
X86734081Y-82886207D01*
X86734081Y-82886207D02*
X86829320Y-82790969D01*
X86829320Y-82790969D02*
X86876939Y-82695731D01*
X86876939Y-82695731D02*
X86876939Y-82505255D01*
X88416939Y-78219541D02*
X88416939Y-78886207D01*
X88416939Y-78886207D02*
X89416939Y-78219541D01*
X89416939Y-78219541D02*
X89416939Y-78886207D01*
X89416939Y-79267160D02*
X88416939Y-79267160D01*
X88416939Y-79933826D02*
X88416939Y-80124302D01*
X88416939Y-80124302D02*
X88464558Y-80219540D01*
X88464558Y-80219540D02*
X88559796Y-80314778D01*
X88559796Y-80314778D02*
X88750272Y-80362397D01*
X88750272Y-80362397D02*
X89083605Y-80362397D01*
X89083605Y-80362397D02*
X89274081Y-80314778D01*
X89274081Y-80314778D02*
X89369320Y-80219540D01*
X89369320Y-80219540D02*
X89416939Y-80124302D01*
X89416939Y-80124302D02*
X89416939Y-79933826D01*
X89416939Y-79933826D02*
X89369320Y-79838588D01*
X89369320Y-79838588D02*
X89274081Y-79743350D01*
X89274081Y-79743350D02*
X89083605Y-79695731D01*
X89083605Y-79695731D02*
X88750272Y-79695731D01*
X88750272Y-79695731D02*
X88559796Y-79743350D01*
X88559796Y-79743350D02*
X88464558Y-79838588D01*
X88464558Y-79838588D02*
X88416939Y-79933826D01*
X89416939Y-81362397D02*
X88940748Y-81029064D01*
X89416939Y-80790969D02*
X88416939Y-80790969D01*
X88416939Y-80790969D02*
X88416939Y-81171921D01*
X88416939Y-81171921D02*
X88464558Y-81267159D01*
X88464558Y-81267159D02*
X88512177Y-81314778D01*
X88512177Y-81314778D02*
X88607415Y-81362397D01*
X88607415Y-81362397D02*
X88750272Y-81362397D01*
X88750272Y-81362397D02*
X88845510Y-81314778D01*
X88845510Y-81314778D02*
X88893129Y-81267159D01*
X88893129Y-81267159D02*
X88940748Y-81171921D01*
X88940748Y-81171921D02*
X88940748Y-80790969D01*
X89512177Y-82457635D02*
X89464558Y-82362397D01*
X89464558Y-82362397D02*
X89369320Y-82267159D01*
X89369320Y-82267159D02*
X89226462Y-82124302D01*
X89226462Y-82124302D02*
X89178843Y-82029064D01*
X89178843Y-82029064D02*
X89178843Y-81933826D01*
X89416939Y-81981445D02*
X89369320Y-81886207D01*
X89369320Y-81886207D02*
X89274081Y-81790969D01*
X89274081Y-81790969D02*
X89083605Y-81743350D01*
X89083605Y-81743350D02*
X88750272Y-81743350D01*
X88750272Y-81743350D02*
X88559796Y-81790969D01*
X88559796Y-81790969D02*
X88464558Y-81886207D01*
X88464558Y-81886207D02*
X88416939Y-81981445D01*
X88416939Y-81981445D02*
X88416939Y-82171921D01*
X88416939Y-82171921D02*
X88464558Y-82267159D01*
X88464558Y-82267159D02*
X88559796Y-82362397D01*
X88559796Y-82362397D02*
X88750272Y-82410016D01*
X88750272Y-82410016D02*
X89083605Y-82410016D01*
X89083605Y-82410016D02*
X89274081Y-82362397D01*
X89274081Y-82362397D02*
X89369320Y-82267159D01*
X89369320Y-82267159D02*
X89416939Y-82171921D01*
X89416939Y-82171921D02*
X89416939Y-81981445D01*
X90956939Y-78219541D02*
X90956939Y-78886207D01*
X90956939Y-78886207D02*
X91956939Y-78219541D01*
X91956939Y-78219541D02*
X91956939Y-78886207D01*
X91956939Y-79838588D02*
X91480748Y-79505255D01*
X91956939Y-79267160D02*
X90956939Y-79267160D01*
X90956939Y-79267160D02*
X90956939Y-79648112D01*
X90956939Y-79648112D02*
X91004558Y-79743350D01*
X91004558Y-79743350D02*
X91052177Y-79790969D01*
X91052177Y-79790969D02*
X91147415Y-79838588D01*
X91147415Y-79838588D02*
X91290272Y-79838588D01*
X91290272Y-79838588D02*
X91385510Y-79790969D01*
X91385510Y-79790969D02*
X91433129Y-79743350D01*
X91433129Y-79743350D02*
X91480748Y-79648112D01*
X91480748Y-79648112D02*
X91480748Y-79267160D01*
X91956939Y-80267160D02*
X90956939Y-80267160D01*
X90956939Y-80267160D02*
X90956939Y-80505255D01*
X90956939Y-80505255D02*
X91004558Y-80648112D01*
X91004558Y-80648112D02*
X91099796Y-80743350D01*
X91099796Y-80743350D02*
X91195034Y-80790969D01*
X91195034Y-80790969D02*
X91385510Y-80838588D01*
X91385510Y-80838588D02*
X91528367Y-80838588D01*
X91528367Y-80838588D02*
X91718843Y-80790969D01*
X91718843Y-80790969D02*
X91814081Y-80743350D01*
X91814081Y-80743350D02*
X91909320Y-80648112D01*
X91909320Y-80648112D02*
X91956939Y-80505255D01*
X91956939Y-80505255D02*
X91956939Y-80267160D01*
X93496939Y-78219541D02*
X93496939Y-78886207D01*
X93496939Y-78886207D02*
X94496939Y-78219541D01*
X94496939Y-78219541D02*
X94496939Y-78886207D01*
X93496939Y-79171922D02*
X94496939Y-79410017D01*
X94496939Y-79410017D02*
X93782653Y-79600493D01*
X93782653Y-79600493D02*
X94496939Y-79790969D01*
X94496939Y-79790969D02*
X93496939Y-80029065D01*
X94496939Y-80981445D02*
X94020748Y-80648112D01*
X94496939Y-80410017D02*
X93496939Y-80410017D01*
X93496939Y-80410017D02*
X93496939Y-80790969D01*
X93496939Y-80790969D02*
X93544558Y-80886207D01*
X93544558Y-80886207D02*
X93592177Y-80933826D01*
X93592177Y-80933826D02*
X93687415Y-80981445D01*
X93687415Y-80981445D02*
X93830272Y-80981445D01*
X93830272Y-80981445D02*
X93925510Y-80933826D01*
X93925510Y-80933826D02*
X93973129Y-80886207D01*
X93973129Y-80886207D02*
X94020748Y-80790969D01*
X94020748Y-80790969D02*
X94020748Y-80410017D01*
X96087739Y-78219541D02*
X96087739Y-78886207D01*
X96087739Y-78886207D02*
X97087739Y-78219541D01*
X97087739Y-78219541D02*
X97087739Y-78886207D01*
X96087739Y-79171922D02*
X97087739Y-79410017D01*
X97087739Y-79410017D02*
X96373453Y-79600493D01*
X96373453Y-79600493D02*
X97087739Y-79790969D01*
X97087739Y-79790969D02*
X96087739Y-80029065D01*
X96802024Y-80362398D02*
X96802024Y-80838588D01*
X97087739Y-80267160D02*
X96087739Y-80600493D01*
X96087739Y-80600493D02*
X97087739Y-80933826D01*
X97087739Y-81267160D02*
X96087739Y-81267160D01*
X96087739Y-81600493D02*
X96087739Y-82171921D01*
X97087739Y-81886207D02*
X96087739Y-81886207D01*
X78304558Y-78838588D02*
X78256939Y-78743350D01*
X78256939Y-78743350D02*
X78256939Y-78600493D01*
X78256939Y-78600493D02*
X78304558Y-78457636D01*
X78304558Y-78457636D02*
X78399796Y-78362398D01*
X78399796Y-78362398D02*
X78495034Y-78314779D01*
X78495034Y-78314779D02*
X78685510Y-78267160D01*
X78685510Y-78267160D02*
X78828367Y-78267160D01*
X78828367Y-78267160D02*
X79018843Y-78314779D01*
X79018843Y-78314779D02*
X79114081Y-78362398D01*
X79114081Y-78362398D02*
X79209320Y-78457636D01*
X79209320Y-78457636D02*
X79256939Y-78600493D01*
X79256939Y-78600493D02*
X79256939Y-78695731D01*
X79256939Y-78695731D02*
X79209320Y-78838588D01*
X79209320Y-78838588D02*
X79161700Y-78886207D01*
X79161700Y-78886207D02*
X78828367Y-78886207D01*
X78828367Y-78886207D02*
X78828367Y-78695731D01*
X79256939Y-79314779D02*
X78256939Y-79314779D01*
X78256939Y-79314779D02*
X79256939Y-79886207D01*
X79256939Y-79886207D02*
X78256939Y-79886207D01*
X79256939Y-80362398D02*
X78256939Y-80362398D01*
X78256939Y-80362398D02*
X78256939Y-80600493D01*
X78256939Y-80600493D02*
X78304558Y-80743350D01*
X78304558Y-80743350D02*
X78399796Y-80838588D01*
X78399796Y-80838588D02*
X78495034Y-80886207D01*
X78495034Y-80886207D02*
X78685510Y-80933826D01*
X78685510Y-80933826D02*
X78828367Y-80933826D01*
X78828367Y-80933826D02*
X79018843Y-80886207D01*
X79018843Y-80886207D02*
X79114081Y-80838588D01*
X79114081Y-80838588D02*
X79209320Y-80743350D01*
X79209320Y-80743350D02*
X79256939Y-80600493D01*
X79256939Y-80600493D02*
X79256939Y-80362398D01*
X80796939Y-78219541D02*
X80796939Y-78886207D01*
X80796939Y-78886207D02*
X81796939Y-78219541D01*
X81796939Y-78219541D02*
X81796939Y-78886207D01*
X81796939Y-79838588D02*
X81320748Y-79505255D01*
X81796939Y-79267160D02*
X80796939Y-79267160D01*
X80796939Y-79267160D02*
X80796939Y-79648112D01*
X80796939Y-79648112D02*
X80844558Y-79743350D01*
X80844558Y-79743350D02*
X80892177Y-79790969D01*
X80892177Y-79790969D02*
X80987415Y-79838588D01*
X80987415Y-79838588D02*
X81130272Y-79838588D01*
X81130272Y-79838588D02*
X81225510Y-79790969D01*
X81225510Y-79790969D02*
X81273129Y-79743350D01*
X81273129Y-79743350D02*
X81320748Y-79648112D01*
X81320748Y-79648112D02*
X81320748Y-79267160D01*
X81273129Y-80600493D02*
X81273129Y-80267160D01*
X81796939Y-80267160D02*
X80796939Y-80267160D01*
X80796939Y-80267160D02*
X80796939Y-80743350D01*
X81749320Y-81076684D02*
X81796939Y-81219541D01*
X81796939Y-81219541D02*
X81796939Y-81457636D01*
X81796939Y-81457636D02*
X81749320Y-81552874D01*
X81749320Y-81552874D02*
X81701700Y-81600493D01*
X81701700Y-81600493D02*
X81606462Y-81648112D01*
X81606462Y-81648112D02*
X81511224Y-81648112D01*
X81511224Y-81648112D02*
X81415986Y-81600493D01*
X81415986Y-81600493D02*
X81368367Y-81552874D01*
X81368367Y-81552874D02*
X81320748Y-81457636D01*
X81320748Y-81457636D02*
X81273129Y-81267160D01*
X81273129Y-81267160D02*
X81225510Y-81171922D01*
X81225510Y-81171922D02*
X81177891Y-81124303D01*
X81177891Y-81124303D02*
X81082653Y-81076684D01*
X81082653Y-81076684D02*
X80987415Y-81076684D01*
X80987415Y-81076684D02*
X80892177Y-81124303D01*
X80892177Y-81124303D02*
X80844558Y-81171922D01*
X80844558Y-81171922D02*
X80796939Y-81267160D01*
X80796939Y-81267160D02*
X80796939Y-81505255D01*
X80796939Y-81505255D02*
X80844558Y-81648112D01*
X81796939Y-82076684D02*
X80796939Y-82076684D01*
X81273129Y-82076684D02*
X81273129Y-82648112D01*
X81796939Y-82648112D02*
X80796939Y-82648112D01*
X145258089Y-47698819D02*
X145258089Y-46698819D01*
X145258089Y-46698819D02*
X145019994Y-46698819D01*
X145019994Y-46698819D02*
X144877137Y-46746438D01*
X144877137Y-46746438D02*
X144781899Y-46841676D01*
X144781899Y-46841676D02*
X144734280Y-46936914D01*
X144734280Y-46936914D02*
X144686661Y-47127390D01*
X144686661Y-47127390D02*
X144686661Y-47270247D01*
X144686661Y-47270247D02*
X144734280Y-47460723D01*
X144734280Y-47460723D02*
X144781899Y-47555961D01*
X144781899Y-47555961D02*
X144877137Y-47651200D01*
X144877137Y-47651200D02*
X145019994Y-47698819D01*
X145019994Y-47698819D02*
X145258089Y-47698819D01*
X144067613Y-46698819D02*
X143972375Y-46698819D01*
X143972375Y-46698819D02*
X143877137Y-46746438D01*
X143877137Y-46746438D02*
X143829518Y-46794057D01*
X143829518Y-46794057D02*
X143781899Y-46889295D01*
X143781899Y-46889295D02*
X143734280Y-47079771D01*
X143734280Y-47079771D02*
X143734280Y-47317866D01*
X143734280Y-47317866D02*
X143781899Y-47508342D01*
X143781899Y-47508342D02*
X143829518Y-47603580D01*
X143829518Y-47603580D02*
X143877137Y-47651200D01*
X143877137Y-47651200D02*
X143972375Y-47698819D01*
X143972375Y-47698819D02*
X144067613Y-47698819D01*
X144067613Y-47698819D02*
X144162851Y-47651200D01*
X144162851Y-47651200D02*
X144210470Y-47603580D01*
X144210470Y-47603580D02*
X144258089Y-47508342D01*
X144258089Y-47508342D02*
X144305708Y-47317866D01*
X144305708Y-47317866D02*
X144305708Y-47079771D01*
X144305708Y-47079771D02*
X144258089Y-46889295D01*
X144258089Y-46889295D02*
X144210470Y-46794057D01*
X144210470Y-46794057D02*
X144162851Y-46746438D01*
X144162851Y-46746438D02*
X144067613Y-46698819D01*
X145258089Y-50238819D02*
X145258089Y-49238819D01*
X145258089Y-49238819D02*
X145019994Y-49238819D01*
X145019994Y-49238819D02*
X144877137Y-49286438D01*
X144877137Y-49286438D02*
X144781899Y-49381676D01*
X144781899Y-49381676D02*
X144734280Y-49476914D01*
X144734280Y-49476914D02*
X144686661Y-49667390D01*
X144686661Y-49667390D02*
X144686661Y-49810247D01*
X144686661Y-49810247D02*
X144734280Y-50000723D01*
X144734280Y-50000723D02*
X144781899Y-50095961D01*
X144781899Y-50095961D02*
X144877137Y-50191200D01*
X144877137Y-50191200D02*
X145019994Y-50238819D01*
X145019994Y-50238819D02*
X145258089Y-50238819D01*
X143734280Y-50238819D02*
X144305708Y-50238819D01*
X144019994Y-50238819D02*
X144019994Y-49238819D01*
X144019994Y-49238819D02*
X144115232Y-49381676D01*
X144115232Y-49381676D02*
X144210470Y-49476914D01*
X144210470Y-49476914D02*
X144305708Y-49524533D01*
X145258089Y-52778819D02*
X145258089Y-51778819D01*
X145258089Y-51778819D02*
X145019994Y-51778819D01*
X145019994Y-51778819D02*
X144877137Y-51826438D01*
X144877137Y-51826438D02*
X144781899Y-51921676D01*
X144781899Y-51921676D02*
X144734280Y-52016914D01*
X144734280Y-52016914D02*
X144686661Y-52207390D01*
X144686661Y-52207390D02*
X144686661Y-52350247D01*
X144686661Y-52350247D02*
X144734280Y-52540723D01*
X144734280Y-52540723D02*
X144781899Y-52635961D01*
X144781899Y-52635961D02*
X144877137Y-52731200D01*
X144877137Y-52731200D02*
X145019994Y-52778819D01*
X145019994Y-52778819D02*
X145258089Y-52778819D01*
X144305708Y-51874057D02*
X144258089Y-51826438D01*
X144258089Y-51826438D02*
X144162851Y-51778819D01*
X144162851Y-51778819D02*
X143924756Y-51778819D01*
X143924756Y-51778819D02*
X143829518Y-51826438D01*
X143829518Y-51826438D02*
X143781899Y-51874057D01*
X143781899Y-51874057D02*
X143734280Y-51969295D01*
X143734280Y-51969295D02*
X143734280Y-52064533D01*
X143734280Y-52064533D02*
X143781899Y-52207390D01*
X143781899Y-52207390D02*
X144353327Y-52778819D01*
X144353327Y-52778819D02*
X143734280Y-52778819D01*
X145258089Y-55318819D02*
X145258089Y-54318819D01*
X145258089Y-54318819D02*
X145019994Y-54318819D01*
X145019994Y-54318819D02*
X144877137Y-54366438D01*
X144877137Y-54366438D02*
X144781899Y-54461676D01*
X144781899Y-54461676D02*
X144734280Y-54556914D01*
X144734280Y-54556914D02*
X144686661Y-54747390D01*
X144686661Y-54747390D02*
X144686661Y-54890247D01*
X144686661Y-54890247D02*
X144734280Y-55080723D01*
X144734280Y-55080723D02*
X144781899Y-55175961D01*
X144781899Y-55175961D02*
X144877137Y-55271200D01*
X144877137Y-55271200D02*
X145019994Y-55318819D01*
X145019994Y-55318819D02*
X145258089Y-55318819D01*
X144353327Y-54318819D02*
X143734280Y-54318819D01*
X143734280Y-54318819D02*
X144067613Y-54699771D01*
X144067613Y-54699771D02*
X143924756Y-54699771D01*
X143924756Y-54699771D02*
X143829518Y-54747390D01*
X143829518Y-54747390D02*
X143781899Y-54795009D01*
X143781899Y-54795009D02*
X143734280Y-54890247D01*
X143734280Y-54890247D02*
X143734280Y-55128342D01*
X143734280Y-55128342D02*
X143781899Y-55223580D01*
X143781899Y-55223580D02*
X143829518Y-55271200D01*
X143829518Y-55271200D02*
X143924756Y-55318819D01*
X143924756Y-55318819D02*
X144210470Y-55318819D01*
X144210470Y-55318819D02*
X144305708Y-55271200D01*
X144305708Y-55271200D02*
X144353327Y-55223580D01*
X145258089Y-57858819D02*
X145258089Y-56858819D01*
X145258089Y-56858819D02*
X145019994Y-56858819D01*
X145019994Y-56858819D02*
X144877137Y-56906438D01*
X144877137Y-56906438D02*
X144781899Y-57001676D01*
X144781899Y-57001676D02*
X144734280Y-57096914D01*
X144734280Y-57096914D02*
X144686661Y-57287390D01*
X144686661Y-57287390D02*
X144686661Y-57430247D01*
X144686661Y-57430247D02*
X144734280Y-57620723D01*
X144734280Y-57620723D02*
X144781899Y-57715961D01*
X144781899Y-57715961D02*
X144877137Y-57811200D01*
X144877137Y-57811200D02*
X145019994Y-57858819D01*
X145019994Y-57858819D02*
X145258089Y-57858819D01*
X143829518Y-57192152D02*
X143829518Y-57858819D01*
X144067613Y-56811200D02*
X144305708Y-57525485D01*
X144305708Y-57525485D02*
X143686661Y-57525485D01*
X145258089Y-60398819D02*
X145258089Y-59398819D01*
X145258089Y-59398819D02*
X145019994Y-59398819D01*
X145019994Y-59398819D02*
X144877137Y-59446438D01*
X144877137Y-59446438D02*
X144781899Y-59541676D01*
X144781899Y-59541676D02*
X144734280Y-59636914D01*
X144734280Y-59636914D02*
X144686661Y-59827390D01*
X144686661Y-59827390D02*
X144686661Y-59970247D01*
X144686661Y-59970247D02*
X144734280Y-60160723D01*
X144734280Y-60160723D02*
X144781899Y-60255961D01*
X144781899Y-60255961D02*
X144877137Y-60351200D01*
X144877137Y-60351200D02*
X145019994Y-60398819D01*
X145019994Y-60398819D02*
X145258089Y-60398819D01*
X143781899Y-59398819D02*
X144258089Y-59398819D01*
X144258089Y-59398819D02*
X144305708Y-59875009D01*
X144305708Y-59875009D02*
X144258089Y-59827390D01*
X144258089Y-59827390D02*
X144162851Y-59779771D01*
X144162851Y-59779771D02*
X143924756Y-59779771D01*
X143924756Y-59779771D02*
X143829518Y-59827390D01*
X143829518Y-59827390D02*
X143781899Y-59875009D01*
X143781899Y-59875009D02*
X143734280Y-59970247D01*
X143734280Y-59970247D02*
X143734280Y-60208342D01*
X143734280Y-60208342D02*
X143781899Y-60303580D01*
X143781899Y-60303580D02*
X143829518Y-60351200D01*
X143829518Y-60351200D02*
X143924756Y-60398819D01*
X143924756Y-60398819D02*
X144162851Y-60398819D01*
X144162851Y-60398819D02*
X144258089Y-60351200D01*
X144258089Y-60351200D02*
X144305708Y-60303580D01*
X145258089Y-62938819D02*
X145258089Y-61938819D01*
X145258089Y-61938819D02*
X145019994Y-61938819D01*
X145019994Y-61938819D02*
X144877137Y-61986438D01*
X144877137Y-61986438D02*
X144781899Y-62081676D01*
X144781899Y-62081676D02*
X144734280Y-62176914D01*
X144734280Y-62176914D02*
X144686661Y-62367390D01*
X144686661Y-62367390D02*
X144686661Y-62510247D01*
X144686661Y-62510247D02*
X144734280Y-62700723D01*
X144734280Y-62700723D02*
X144781899Y-62795961D01*
X144781899Y-62795961D02*
X144877137Y-62891200D01*
X144877137Y-62891200D02*
X145019994Y-62938819D01*
X145019994Y-62938819D02*
X145258089Y-62938819D01*
X143829518Y-61938819D02*
X144019994Y-61938819D01*
X144019994Y-61938819D02*
X144115232Y-61986438D01*
X144115232Y-61986438D02*
X144162851Y-62034057D01*
X144162851Y-62034057D02*
X144258089Y-62176914D01*
X144258089Y-62176914D02*
X144305708Y-62367390D01*
X144305708Y-62367390D02*
X144305708Y-62748342D01*
X144305708Y-62748342D02*
X144258089Y-62843580D01*
X144258089Y-62843580D02*
X144210470Y-62891200D01*
X144210470Y-62891200D02*
X144115232Y-62938819D01*
X144115232Y-62938819D02*
X143924756Y-62938819D01*
X143924756Y-62938819D02*
X143829518Y-62891200D01*
X143829518Y-62891200D02*
X143781899Y-62843580D01*
X143781899Y-62843580D02*
X143734280Y-62748342D01*
X143734280Y-62748342D02*
X143734280Y-62510247D01*
X143734280Y-62510247D02*
X143781899Y-62415009D01*
X143781899Y-62415009D02*
X143829518Y-62367390D01*
X143829518Y-62367390D02*
X143924756Y-62319771D01*
X143924756Y-62319771D02*
X144115232Y-62319771D01*
X144115232Y-62319771D02*
X144210470Y-62367390D01*
X144210470Y-62367390D02*
X144258089Y-62415009D01*
X144258089Y-62415009D02*
X144305708Y-62510247D01*
X145258089Y-65478819D02*
X145258089Y-64478819D01*
X145258089Y-64478819D02*
X145019994Y-64478819D01*
X145019994Y-64478819D02*
X144877137Y-64526438D01*
X144877137Y-64526438D02*
X144781899Y-64621676D01*
X144781899Y-64621676D02*
X144734280Y-64716914D01*
X144734280Y-64716914D02*
X144686661Y-64907390D01*
X144686661Y-64907390D02*
X144686661Y-65050247D01*
X144686661Y-65050247D02*
X144734280Y-65240723D01*
X144734280Y-65240723D02*
X144781899Y-65335961D01*
X144781899Y-65335961D02*
X144877137Y-65431200D01*
X144877137Y-65431200D02*
X145019994Y-65478819D01*
X145019994Y-65478819D02*
X145258089Y-65478819D01*
X144353327Y-64478819D02*
X143686661Y-64478819D01*
X143686661Y-64478819D02*
X144115232Y-65478819D01*
X109228939Y-133889905D02*
X110038462Y-133889905D01*
X110038462Y-133889905D02*
X110133700Y-133937524D01*
X110133700Y-133937524D02*
X110181320Y-133985143D01*
X110181320Y-133985143D02*
X110228939Y-134080381D01*
X110228939Y-134080381D02*
X110228939Y-134270857D01*
X110228939Y-134270857D02*
X110181320Y-134366095D01*
X110181320Y-134366095D02*
X110133700Y-134413714D01*
X110133700Y-134413714D02*
X110038462Y-134461333D01*
X110038462Y-134461333D02*
X109228939Y-134461333D01*
X109324177Y-134889905D02*
X109276558Y-134937524D01*
X109276558Y-134937524D02*
X109228939Y-135032762D01*
X109228939Y-135032762D02*
X109228939Y-135270857D01*
X109228939Y-135270857D02*
X109276558Y-135366095D01*
X109276558Y-135366095D02*
X109324177Y-135413714D01*
X109324177Y-135413714D02*
X109419415Y-135461333D01*
X109419415Y-135461333D02*
X109514653Y-135461333D01*
X109514653Y-135461333D02*
X109657510Y-135413714D01*
X109657510Y-135413714D02*
X110228939Y-134842286D01*
X110228939Y-134842286D02*
X110228939Y-135461333D01*
X109324177Y-135842286D02*
X109276558Y-135889905D01*
X109276558Y-135889905D02*
X109228939Y-135985143D01*
X109228939Y-135985143D02*
X109228939Y-136223238D01*
X109228939Y-136223238D02*
X109276558Y-136318476D01*
X109276558Y-136318476D02*
X109324177Y-136366095D01*
X109324177Y-136366095D02*
X109419415Y-136413714D01*
X109419415Y-136413714D02*
X109514653Y-136413714D01*
X109514653Y-136413714D02*
X109657510Y-136366095D01*
X109657510Y-136366095D02*
X110228939Y-135794667D01*
X110228939Y-135794667D02*
X110228939Y-136413714D01*
X108741643Y-142917104D02*
X108265453Y-142917104D01*
X108836881Y-143202819D02*
X108503548Y-142202819D01*
X108503548Y-142202819D02*
X108170215Y-143202819D01*
X107979738Y-142202819D02*
X107408310Y-142202819D01*
X107694024Y-143202819D02*
X107694024Y-142202819D01*
X106741643Y-142679009D02*
X107074976Y-142679009D01*
X107074976Y-143202819D02*
X107074976Y-142202819D01*
X107074976Y-142202819D02*
X106598786Y-142202819D01*
X105694024Y-143202819D02*
X106265452Y-143202819D01*
X105979738Y-143202819D02*
X105979738Y-142202819D01*
X105979738Y-142202819D02*
X106074976Y-142345676D01*
X106074976Y-142345676D02*
X106170214Y-142440914D01*
X106170214Y-142440914D02*
X106265452Y-142488533D01*
X104789262Y-142202819D02*
X105265452Y-142202819D01*
X105265452Y-142202819D02*
X105313071Y-142679009D01*
X105313071Y-142679009D02*
X105265452Y-142631390D01*
X105265452Y-142631390D02*
X105170214Y-142583771D01*
X105170214Y-142583771D02*
X104932119Y-142583771D01*
X104932119Y-142583771D02*
X104836881Y-142631390D01*
X104836881Y-142631390D02*
X104789262Y-142679009D01*
X104789262Y-142679009D02*
X104741643Y-142774247D01*
X104741643Y-142774247D02*
X104741643Y-143012342D01*
X104741643Y-143012342D02*
X104789262Y-143107580D01*
X104789262Y-143107580D02*
X104836881Y-143155200D01*
X104836881Y-143155200D02*
X104932119Y-143202819D01*
X104932119Y-143202819D02*
X105170214Y-143202819D01*
X105170214Y-143202819D02*
X105265452Y-143155200D01*
X105265452Y-143155200D02*
X105313071Y-143107580D01*
X104122595Y-142202819D02*
X104027357Y-142202819D01*
X104027357Y-142202819D02*
X103932119Y-142250438D01*
X103932119Y-142250438D02*
X103884500Y-142298057D01*
X103884500Y-142298057D02*
X103836881Y-142393295D01*
X103836881Y-142393295D02*
X103789262Y-142583771D01*
X103789262Y-142583771D02*
X103789262Y-142821866D01*
X103789262Y-142821866D02*
X103836881Y-143012342D01*
X103836881Y-143012342D02*
X103884500Y-143107580D01*
X103884500Y-143107580D02*
X103932119Y-143155200D01*
X103932119Y-143155200D02*
X104027357Y-143202819D01*
X104027357Y-143202819D02*
X104122595Y-143202819D01*
X104122595Y-143202819D02*
X104217833Y-143155200D01*
X104217833Y-143155200D02*
X104265452Y-143107580D01*
X104265452Y-143107580D02*
X104313071Y-143012342D01*
X104313071Y-143012342D02*
X104360690Y-142821866D01*
X104360690Y-142821866D02*
X104360690Y-142583771D01*
X104360690Y-142583771D02*
X104313071Y-142393295D01*
X104313071Y-142393295D02*
X104265452Y-142298057D01*
X104265452Y-142298057D02*
X104217833Y-142250438D01*
X104217833Y-142250438D02*
X104122595Y-142202819D01*
X102932119Y-142536152D02*
X102932119Y-143202819D01*
X103170214Y-142155200D02*
X103408309Y-142869485D01*
X103408309Y-142869485D02*
X102789262Y-142869485D01*
X102455928Y-142917104D02*
X101979738Y-142917104D01*
X102551166Y-143202819D02*
X102217833Y-142202819D01*
X102217833Y-142202819D02*
X101884500Y-143202819D01*
X101598785Y-143155200D02*
X101455928Y-143202819D01*
X101455928Y-143202819D02*
X101217833Y-143202819D01*
X101217833Y-143202819D02*
X101122595Y-143155200D01*
X101122595Y-143155200D02*
X101074976Y-143107580D01*
X101074976Y-143107580D02*
X101027357Y-143012342D01*
X101027357Y-143012342D02*
X101027357Y-142917104D01*
X101027357Y-142917104D02*
X101074976Y-142821866D01*
X101074976Y-142821866D02*
X101122595Y-142774247D01*
X101122595Y-142774247D02*
X101217833Y-142726628D01*
X101217833Y-142726628D02*
X101408309Y-142679009D01*
X101408309Y-142679009D02*
X101503547Y-142631390D01*
X101503547Y-142631390D02*
X101551166Y-142583771D01*
X101551166Y-142583771D02*
X101598785Y-142488533D01*
X101598785Y-142488533D02*
X101598785Y-142393295D01*
X101598785Y-142393295D02*
X101551166Y-142298057D01*
X101551166Y-142298057D02*
X101503547Y-142250438D01*
X101503547Y-142250438D02*
X101408309Y-142202819D01*
X101408309Y-142202819D02*
X101170214Y-142202819D01*
X101170214Y-142202819D02*
X101027357Y-142250438D01*
X100598785Y-142821866D02*
X99836881Y-142821866D01*
X98932119Y-142536152D02*
X98932119Y-143202819D01*
X99170214Y-142155200D02*
X99408309Y-142869485D01*
X99408309Y-142869485D02*
X98789262Y-142869485D01*
X97979738Y-142536152D02*
X97979738Y-143202819D01*
X98217833Y-142155200D02*
X98455928Y-142869485D01*
X98455928Y-142869485D02*
X97836881Y-142869485D01*
X97598785Y-142202819D02*
X97027357Y-142202819D01*
X97313071Y-143202819D02*
X97313071Y-142202819D01*
X104376500Y-128398614D02*
X104376500Y-127398614D01*
X103947929Y-128350995D02*
X103805072Y-128398614D01*
X103805072Y-128398614D02*
X103566977Y-128398614D01*
X103566977Y-128398614D02*
X103471739Y-128350995D01*
X103471739Y-128350995D02*
X103424120Y-128303375D01*
X103424120Y-128303375D02*
X103376501Y-128208137D01*
X103376501Y-128208137D02*
X103376501Y-128112899D01*
X103376501Y-128112899D02*
X103424120Y-128017661D01*
X103424120Y-128017661D02*
X103471739Y-127970042D01*
X103471739Y-127970042D02*
X103566977Y-127922423D01*
X103566977Y-127922423D02*
X103757453Y-127874804D01*
X103757453Y-127874804D02*
X103852691Y-127827185D01*
X103852691Y-127827185D02*
X103900310Y-127779566D01*
X103900310Y-127779566D02*
X103947929Y-127684328D01*
X103947929Y-127684328D02*
X103947929Y-127589090D01*
X103947929Y-127589090D02*
X103900310Y-127493852D01*
X103900310Y-127493852D02*
X103852691Y-127446233D01*
X103852691Y-127446233D02*
X103757453Y-127398614D01*
X103757453Y-127398614D02*
X103519358Y-127398614D01*
X103519358Y-127398614D02*
X103376501Y-127446233D01*
X102947929Y-128398614D02*
X102947929Y-127398614D01*
X102947929Y-127398614D02*
X102566977Y-127398614D01*
X102566977Y-127398614D02*
X102471739Y-127446233D01*
X102471739Y-127446233D02*
X102424120Y-127493852D01*
X102424120Y-127493852D02*
X102376501Y-127589090D01*
X102376501Y-127589090D02*
X102376501Y-127731947D01*
X102376501Y-127731947D02*
X102424120Y-127827185D01*
X102424120Y-127827185D02*
X102471739Y-127874804D01*
X102471739Y-127874804D02*
X102566977Y-127922423D01*
X102566977Y-127922423D02*
X102947929Y-127922423D01*
X101995548Y-127731947D02*
X101281263Y-127731947D01*
X101709834Y-127303375D02*
X101995548Y-128589090D01*
X101376501Y-128160518D02*
X102090786Y-128160518D01*
X101662215Y-128589090D02*
X101376501Y-127303375D01*
X101043167Y-127398614D02*
X100424120Y-127398614D01*
X100424120Y-127398614D02*
X100757453Y-127779566D01*
X100757453Y-127779566D02*
X100614596Y-127779566D01*
X100614596Y-127779566D02*
X100519358Y-127827185D01*
X100519358Y-127827185D02*
X100471739Y-127874804D01*
X100471739Y-127874804D02*
X100424120Y-127970042D01*
X100424120Y-127970042D02*
X100424120Y-128208137D01*
X100424120Y-128208137D02*
X100471739Y-128303375D01*
X100471739Y-128303375D02*
X100519358Y-128350995D01*
X100519358Y-128350995D02*
X100614596Y-128398614D01*
X100614596Y-128398614D02*
X100900310Y-128398614D01*
X100900310Y-128398614D02*
X100995548Y-128350995D01*
X100995548Y-128350995D02*
X101043167Y-128303375D01*
X135680750Y-137657276D02*
X136253169Y-138229696D01*
X136253169Y-138229696D02*
X136286841Y-138330711D01*
X136286841Y-138330711D02*
X136286841Y-138398055D01*
X136286841Y-138398055D02*
X136253169Y-138499070D01*
X136253169Y-138499070D02*
X136118482Y-138633757D01*
X136118482Y-138633757D02*
X136017467Y-138667429D01*
X136017467Y-138667429D02*
X135950124Y-138667429D01*
X135950124Y-138667429D02*
X135849108Y-138633757D01*
X135849108Y-138633757D02*
X135276689Y-138061337D01*
X135276689Y-139475551D02*
X135680750Y-139071490D01*
X135478719Y-139273520D02*
X134771612Y-138566413D01*
X134771612Y-138566413D02*
X134939971Y-138600085D01*
X134939971Y-138600085D02*
X135074658Y-138600085D01*
X135074658Y-138600085D02*
X135175673Y-138566413D01*
X133929818Y-139408207D02*
X134266536Y-139071490D01*
X134266536Y-139071490D02*
X134636925Y-139374535D01*
X134636925Y-139374535D02*
X134569582Y-139374535D01*
X134569582Y-139374535D02*
X134468567Y-139408207D01*
X134468567Y-139408207D02*
X134300208Y-139576566D01*
X134300208Y-139576566D02*
X134266536Y-139677581D01*
X134266536Y-139677581D02*
X134266536Y-139744925D01*
X134266536Y-139744925D02*
X134300208Y-139845940D01*
X134300208Y-139845940D02*
X134468567Y-140014299D01*
X134468567Y-140014299D02*
X134569582Y-140047971D01*
X134569582Y-140047971D02*
X134636925Y-140047971D01*
X134636925Y-140047971D02*
X134737941Y-140014299D01*
X134737941Y-140014299D02*
X134906299Y-139845940D01*
X134906299Y-139845940D02*
X134939971Y-139744925D01*
X134939971Y-139744925D02*
X134939971Y-139677581D01*
X124575726Y-142038986D02*
X124239009Y-141702269D01*
X124441039Y-142308360D02*
X124912444Y-141365551D01*
X124912444Y-141365551D02*
X123969635Y-141836956D01*
X124542054Y-140995162D02*
X124137993Y-140591101D01*
X123632917Y-141500238D02*
X124340024Y-140793132D01*
X123329871Y-140456414D02*
X123565573Y-140692116D01*
X123195184Y-141062505D02*
X123902291Y-140355399D01*
X123902291Y-140355399D02*
X123565573Y-140018681D01*
X122218703Y-140086025D02*
X122622764Y-140490086D01*
X122420734Y-140288055D02*
X123127841Y-139580948D01*
X123127841Y-139580948D02*
X123094169Y-139749307D01*
X123094169Y-139749307D02*
X123094169Y-139883994D01*
X123094169Y-139883994D02*
X123127841Y-139985009D01*
X122286047Y-138739154D02*
X122622764Y-139075872D01*
X122622764Y-139075872D02*
X122319718Y-139446261D01*
X122319718Y-139446261D02*
X122319718Y-139378918D01*
X122319718Y-139378918D02*
X122286047Y-139277902D01*
X122286047Y-139277902D02*
X122117688Y-139109544D01*
X122117688Y-139109544D02*
X122016673Y-139075872D01*
X122016673Y-139075872D02*
X121949329Y-139075872D01*
X121949329Y-139075872D02*
X121848314Y-139109544D01*
X121848314Y-139109544D02*
X121679955Y-139277902D01*
X121679955Y-139277902D02*
X121646283Y-139378918D01*
X121646283Y-139378918D02*
X121646283Y-139446261D01*
X121646283Y-139446261D02*
X121679955Y-139547276D01*
X121679955Y-139547276D02*
X121848314Y-139715635D01*
X121848314Y-139715635D02*
X121949329Y-139749307D01*
X121949329Y-139749307D02*
X122016673Y-139749307D01*
X121814642Y-138267750D02*
X121747299Y-138200406D01*
X121747299Y-138200406D02*
X121646283Y-138166735D01*
X121646283Y-138166735D02*
X121578940Y-138166735D01*
X121578940Y-138166735D02*
X121477925Y-138200406D01*
X121477925Y-138200406D02*
X121309566Y-138301422D01*
X121309566Y-138301422D02*
X121141207Y-138469780D01*
X121141207Y-138469780D02*
X121040192Y-138638139D01*
X121040192Y-138638139D02*
X121006520Y-138739154D01*
X121006520Y-138739154D02*
X121006520Y-138806498D01*
X121006520Y-138806498D02*
X121040192Y-138907513D01*
X121040192Y-138907513D02*
X121107535Y-138974857D01*
X121107535Y-138974857D02*
X121208551Y-139008528D01*
X121208551Y-139008528D02*
X121275894Y-139008528D01*
X121275894Y-139008528D02*
X121376909Y-138974857D01*
X121376909Y-138974857D02*
X121545268Y-138873841D01*
X121545268Y-138873841D02*
X121713627Y-138705483D01*
X121713627Y-138705483D02*
X121814642Y-138537124D01*
X121814642Y-138537124D02*
X121848314Y-138436109D01*
X121848314Y-138436109D02*
X121848314Y-138368765D01*
X121848314Y-138368765D02*
X121814642Y-138267750D01*
X120871833Y-137931032D02*
X120972848Y-137964704D01*
X120972848Y-137964704D02*
X121040192Y-137964704D01*
X121040192Y-137964704D02*
X121141207Y-137931032D01*
X121141207Y-137931032D02*
X121174879Y-137897361D01*
X121174879Y-137897361D02*
X121208551Y-137796345D01*
X121208551Y-137796345D02*
X121208551Y-137729002D01*
X121208551Y-137729002D02*
X121174879Y-137627987D01*
X121174879Y-137627987D02*
X121040192Y-137493300D01*
X121040192Y-137493300D02*
X120939177Y-137459628D01*
X120939177Y-137459628D02*
X120871833Y-137459628D01*
X120871833Y-137459628D02*
X120770818Y-137493300D01*
X120770818Y-137493300D02*
X120737146Y-137526971D01*
X120737146Y-137526971D02*
X120703474Y-137627987D01*
X120703474Y-137627987D02*
X120703474Y-137695330D01*
X120703474Y-137695330D02*
X120737146Y-137796345D01*
X120737146Y-137796345D02*
X120871833Y-137931032D01*
X120871833Y-137931032D02*
X120905505Y-138032048D01*
X120905505Y-138032048D02*
X120905505Y-138099391D01*
X120905505Y-138099391D02*
X120871833Y-138200406D01*
X120871833Y-138200406D02*
X120737146Y-138335093D01*
X120737146Y-138335093D02*
X120636131Y-138368765D01*
X120636131Y-138368765D02*
X120568787Y-138368765D01*
X120568787Y-138368765D02*
X120467772Y-138335093D01*
X120467772Y-138335093D02*
X120333085Y-138200406D01*
X120333085Y-138200406D02*
X120299413Y-138099391D01*
X120299413Y-138099391D02*
X120299413Y-138032048D01*
X120299413Y-138032048D02*
X120333085Y-137931032D01*
X120333085Y-137931032D02*
X120467772Y-137796345D01*
X120467772Y-137796345D02*
X120568787Y-137762674D01*
X120568787Y-137762674D02*
X120636131Y-137762674D01*
X120636131Y-137762674D02*
X120737146Y-137796345D01*
X120131055Y-137594315D02*
X119794337Y-137257597D01*
X119996368Y-137863689D02*
X120467772Y-136920880D01*
X120467772Y-136920880D02*
X119524963Y-137392284D01*
X119356604Y-137156582D02*
X119221917Y-137089238D01*
X119221917Y-137089238D02*
X119053558Y-136920880D01*
X119053558Y-136920880D02*
X119019887Y-136819864D01*
X119019887Y-136819864D02*
X119019887Y-136752521D01*
X119019887Y-136752521D02*
X119053558Y-136651506D01*
X119053558Y-136651506D02*
X119120902Y-136584162D01*
X119120902Y-136584162D02*
X119221917Y-136550490D01*
X119221917Y-136550490D02*
X119289261Y-136550490D01*
X119289261Y-136550490D02*
X119390276Y-136584162D01*
X119390276Y-136584162D02*
X119558635Y-136685177D01*
X119558635Y-136685177D02*
X119659650Y-136718849D01*
X119659650Y-136718849D02*
X119726993Y-136718849D01*
X119726993Y-136718849D02*
X119828009Y-136685177D01*
X119828009Y-136685177D02*
X119895352Y-136617834D01*
X119895352Y-136617834D02*
X119929024Y-136516819D01*
X119929024Y-136516819D02*
X119929024Y-136449475D01*
X119929024Y-136449475D02*
X119895352Y-136348460D01*
X119895352Y-136348460D02*
X119726993Y-136180101D01*
X119726993Y-136180101D02*
X119592306Y-136112758D01*
X136242274Y-127404942D02*
X136949380Y-126697835D01*
X135972900Y-127068225D02*
X135838213Y-127000881D01*
X135838213Y-127000881D02*
X135669854Y-126832522D01*
X135669854Y-126832522D02*
X135636182Y-126731507D01*
X135636182Y-126731507D02*
X135636182Y-126664164D01*
X135636182Y-126664164D02*
X135669854Y-126563148D01*
X135669854Y-126563148D02*
X135737198Y-126495805D01*
X135737198Y-126495805D02*
X135838213Y-126462133D01*
X135838213Y-126462133D02*
X135905556Y-126462133D01*
X135905556Y-126462133D02*
X136006572Y-126495805D01*
X136006572Y-126495805D02*
X136174930Y-126596820D01*
X136174930Y-126596820D02*
X136275946Y-126630492D01*
X136275946Y-126630492D02*
X136343289Y-126630492D01*
X136343289Y-126630492D02*
X136444304Y-126596820D01*
X136444304Y-126596820D02*
X136511648Y-126529477D01*
X136511648Y-126529477D02*
X136545320Y-126428461D01*
X136545320Y-126428461D02*
X136545320Y-126361118D01*
X136545320Y-126361118D02*
X136511648Y-126260103D01*
X136511648Y-126260103D02*
X136343289Y-126091744D01*
X136343289Y-126091744D02*
X136208602Y-126024400D01*
X135232121Y-126394790D02*
X135939228Y-125687683D01*
X135939228Y-125687683D02*
X135669854Y-125418309D01*
X135669854Y-125418309D02*
X135568839Y-125384637D01*
X135568839Y-125384637D02*
X135501495Y-125384637D01*
X135501495Y-125384637D02*
X135400480Y-125418309D01*
X135400480Y-125418309D02*
X135299465Y-125519324D01*
X135299465Y-125519324D02*
X135265793Y-125620339D01*
X135265793Y-125620339D02*
X135265793Y-125687683D01*
X135265793Y-125687683D02*
X135299465Y-125788698D01*
X135299465Y-125788698D02*
X135568839Y-126058072D01*
X135030091Y-125249950D02*
X134525015Y-124744874D01*
X135131106Y-124744874D02*
X134423999Y-125856042D01*
X134289312Y-125115263D02*
X134794389Y-125620339D01*
X134188297Y-125620339D02*
X134895404Y-124509171D01*
X134491343Y-124374484D02*
X134491343Y-124307141D01*
X134491343Y-124307141D02*
X134457671Y-124206126D01*
X134457671Y-124206126D02*
X134289312Y-124037767D01*
X134289312Y-124037767D02*
X134188297Y-124004095D01*
X134188297Y-124004095D02*
X134120954Y-124004095D01*
X134120954Y-124004095D02*
X134019938Y-124037767D01*
X134019938Y-124037767D02*
X133952595Y-124105110D01*
X133952595Y-124105110D02*
X133885251Y-124239797D01*
X133885251Y-124239797D02*
X133885251Y-125047920D01*
X133885251Y-125047920D02*
X133447518Y-124610187D01*
X178359532Y-105426481D02*
X178931951Y-105998901D01*
X178931951Y-105998901D02*
X178965623Y-106099916D01*
X178965623Y-106099916D02*
X178965623Y-106167260D01*
X178965623Y-106167260D02*
X178931951Y-106268275D01*
X178931951Y-106268275D02*
X178797264Y-106402962D01*
X178797264Y-106402962D02*
X178696249Y-106436634D01*
X178696249Y-106436634D02*
X178628906Y-106436634D01*
X178628906Y-106436634D02*
X178527890Y-106402962D01*
X178527890Y-106402962D02*
X177955471Y-105830542D01*
X177955471Y-107244756D02*
X178359532Y-106840695D01*
X178157501Y-107042725D02*
X177450394Y-106335618D01*
X177450394Y-106335618D02*
X177618753Y-106369290D01*
X177618753Y-106369290D02*
X177753440Y-106369290D01*
X177753440Y-106369290D02*
X177854455Y-106335618D01*
X177147349Y-107244756D02*
X177181020Y-107143740D01*
X177181020Y-107143740D02*
X177181020Y-107076397D01*
X177181020Y-107076397D02*
X177147349Y-106975382D01*
X177147349Y-106975382D02*
X177113677Y-106941710D01*
X177113677Y-106941710D02*
X177012661Y-106908038D01*
X177012661Y-106908038D02*
X176945318Y-106908038D01*
X176945318Y-106908038D02*
X176844303Y-106941710D01*
X176844303Y-106941710D02*
X176709616Y-107076397D01*
X176709616Y-107076397D02*
X176675944Y-107177412D01*
X176675944Y-107177412D02*
X176675944Y-107244756D01*
X176675944Y-107244756D02*
X176709616Y-107345771D01*
X176709616Y-107345771D02*
X176743287Y-107379443D01*
X176743287Y-107379443D02*
X176844303Y-107413114D01*
X176844303Y-107413114D02*
X176911646Y-107413114D01*
X176911646Y-107413114D02*
X177012661Y-107379443D01*
X177012661Y-107379443D02*
X177147349Y-107244756D01*
X177147349Y-107244756D02*
X177248364Y-107211084D01*
X177248364Y-107211084D02*
X177315707Y-107211084D01*
X177315707Y-107211084D02*
X177416723Y-107244756D01*
X177416723Y-107244756D02*
X177551410Y-107379443D01*
X177551410Y-107379443D02*
X177585081Y-107480458D01*
X177585081Y-107480458D02*
X177585081Y-107547801D01*
X177585081Y-107547801D02*
X177551410Y-107648817D01*
X177551410Y-107648817D02*
X177416723Y-107783504D01*
X177416723Y-107783504D02*
X177315707Y-107817176D01*
X177315707Y-107817176D02*
X177248364Y-107817176D01*
X177248364Y-107817176D02*
X177147349Y-107783504D01*
X177147349Y-107783504D02*
X177012661Y-107648817D01*
X177012661Y-107648817D02*
X176978990Y-107547801D01*
X176978990Y-107547801D02*
X176978990Y-107480458D01*
X176978990Y-107480458D02*
X177012661Y-107379443D01*
X167254508Y-110034986D02*
X166917791Y-109698269D01*
X167119821Y-110304360D02*
X167591226Y-109361551D01*
X167591226Y-109361551D02*
X166648417Y-109832956D01*
X167220836Y-108991162D02*
X166816775Y-108587101D01*
X166311699Y-109496238D02*
X167018806Y-108789132D01*
X166008653Y-108452414D02*
X166244355Y-108688116D01*
X165873966Y-109058505D02*
X166581073Y-108351399D01*
X166581073Y-108351399D02*
X166244355Y-108014681D01*
X164897485Y-108082025D02*
X165301546Y-108486086D01*
X165099516Y-108284055D02*
X165806623Y-107576948D01*
X165806623Y-107576948D02*
X165772951Y-107745307D01*
X165772951Y-107745307D02*
X165772951Y-107879994D01*
X165772951Y-107879994D02*
X165806623Y-107981009D01*
X164964829Y-106735154D02*
X165301546Y-107071872D01*
X165301546Y-107071872D02*
X164998500Y-107442261D01*
X164998500Y-107442261D02*
X164998500Y-107374918D01*
X164998500Y-107374918D02*
X164964829Y-107273902D01*
X164964829Y-107273902D02*
X164796470Y-107105544D01*
X164796470Y-107105544D02*
X164695455Y-107071872D01*
X164695455Y-107071872D02*
X164628111Y-107071872D01*
X164628111Y-107071872D02*
X164527096Y-107105544D01*
X164527096Y-107105544D02*
X164358737Y-107273902D01*
X164358737Y-107273902D02*
X164325065Y-107374918D01*
X164325065Y-107374918D02*
X164325065Y-107442261D01*
X164325065Y-107442261D02*
X164358737Y-107543276D01*
X164358737Y-107543276D02*
X164527096Y-107711635D01*
X164527096Y-107711635D02*
X164628111Y-107745307D01*
X164628111Y-107745307D02*
X164695455Y-107745307D01*
X164493424Y-106263750D02*
X164426081Y-106196406D01*
X164426081Y-106196406D02*
X164325065Y-106162735D01*
X164325065Y-106162735D02*
X164257722Y-106162735D01*
X164257722Y-106162735D02*
X164156707Y-106196406D01*
X164156707Y-106196406D02*
X163988348Y-106297422D01*
X163988348Y-106297422D02*
X163819989Y-106465780D01*
X163819989Y-106465780D02*
X163718974Y-106634139D01*
X163718974Y-106634139D02*
X163685302Y-106735154D01*
X163685302Y-106735154D02*
X163685302Y-106802498D01*
X163685302Y-106802498D02*
X163718974Y-106903513D01*
X163718974Y-106903513D02*
X163786317Y-106970857D01*
X163786317Y-106970857D02*
X163887333Y-107004528D01*
X163887333Y-107004528D02*
X163954676Y-107004528D01*
X163954676Y-107004528D02*
X164055691Y-106970857D01*
X164055691Y-106970857D02*
X164224050Y-106869841D01*
X164224050Y-106869841D02*
X164392409Y-106701483D01*
X164392409Y-106701483D02*
X164493424Y-106533124D01*
X164493424Y-106533124D02*
X164527096Y-106432109D01*
X164527096Y-106432109D02*
X164527096Y-106364765D01*
X164527096Y-106364765D02*
X164493424Y-106263750D01*
X163550615Y-105927032D02*
X163651630Y-105960704D01*
X163651630Y-105960704D02*
X163718974Y-105960704D01*
X163718974Y-105960704D02*
X163819989Y-105927032D01*
X163819989Y-105927032D02*
X163853661Y-105893361D01*
X163853661Y-105893361D02*
X163887333Y-105792345D01*
X163887333Y-105792345D02*
X163887333Y-105725002D01*
X163887333Y-105725002D02*
X163853661Y-105623987D01*
X163853661Y-105623987D02*
X163718974Y-105489300D01*
X163718974Y-105489300D02*
X163617959Y-105455628D01*
X163617959Y-105455628D02*
X163550615Y-105455628D01*
X163550615Y-105455628D02*
X163449600Y-105489300D01*
X163449600Y-105489300D02*
X163415928Y-105522971D01*
X163415928Y-105522971D02*
X163382256Y-105623987D01*
X163382256Y-105623987D02*
X163382256Y-105691330D01*
X163382256Y-105691330D02*
X163415928Y-105792345D01*
X163415928Y-105792345D02*
X163550615Y-105927032D01*
X163550615Y-105927032D02*
X163584287Y-106028048D01*
X163584287Y-106028048D02*
X163584287Y-106095391D01*
X163584287Y-106095391D02*
X163550615Y-106196406D01*
X163550615Y-106196406D02*
X163415928Y-106331093D01*
X163415928Y-106331093D02*
X163314913Y-106364765D01*
X163314913Y-106364765D02*
X163247569Y-106364765D01*
X163247569Y-106364765D02*
X163146554Y-106331093D01*
X163146554Y-106331093D02*
X163011867Y-106196406D01*
X163011867Y-106196406D02*
X162978195Y-106095391D01*
X162978195Y-106095391D02*
X162978195Y-106028048D01*
X162978195Y-106028048D02*
X163011867Y-105927032D01*
X163011867Y-105927032D02*
X163146554Y-105792345D01*
X163146554Y-105792345D02*
X163247569Y-105758674D01*
X163247569Y-105758674D02*
X163314913Y-105758674D01*
X163314913Y-105758674D02*
X163415928Y-105792345D01*
X162809837Y-105590315D02*
X162473119Y-105253597D01*
X162675150Y-105859689D02*
X163146554Y-104916880D01*
X163146554Y-104916880D02*
X162203745Y-105388284D01*
X162035386Y-105152582D02*
X161900699Y-105085238D01*
X161900699Y-105085238D02*
X161732340Y-104916880D01*
X161732340Y-104916880D02*
X161698669Y-104815864D01*
X161698669Y-104815864D02*
X161698669Y-104748521D01*
X161698669Y-104748521D02*
X161732340Y-104647506D01*
X161732340Y-104647506D02*
X161799684Y-104580162D01*
X161799684Y-104580162D02*
X161900699Y-104546490D01*
X161900699Y-104546490D02*
X161968043Y-104546490D01*
X161968043Y-104546490D02*
X162069058Y-104580162D01*
X162069058Y-104580162D02*
X162237417Y-104681177D01*
X162237417Y-104681177D02*
X162338432Y-104714849D01*
X162338432Y-104714849D02*
X162405775Y-104714849D01*
X162405775Y-104714849D02*
X162506791Y-104681177D01*
X162506791Y-104681177D02*
X162574134Y-104613834D01*
X162574134Y-104613834D02*
X162607806Y-104512819D01*
X162607806Y-104512819D02*
X162607806Y-104445475D01*
X162607806Y-104445475D02*
X162574134Y-104344460D01*
X162574134Y-104344460D02*
X162405775Y-104176101D01*
X162405775Y-104176101D02*
X162271088Y-104108758D01*
X181588056Y-97714147D02*
X182295162Y-97007040D01*
X181318682Y-97377430D02*
X181183995Y-97310086D01*
X181183995Y-97310086D02*
X181015636Y-97141727D01*
X181015636Y-97141727D02*
X180981964Y-97040712D01*
X180981964Y-97040712D02*
X180981964Y-96973369D01*
X180981964Y-96973369D02*
X181015636Y-96872353D01*
X181015636Y-96872353D02*
X181082980Y-96805010D01*
X181082980Y-96805010D02*
X181183995Y-96771338D01*
X181183995Y-96771338D02*
X181251338Y-96771338D01*
X181251338Y-96771338D02*
X181352354Y-96805010D01*
X181352354Y-96805010D02*
X181520712Y-96906025D01*
X181520712Y-96906025D02*
X181621728Y-96939697D01*
X181621728Y-96939697D02*
X181689071Y-96939697D01*
X181689071Y-96939697D02*
X181790086Y-96906025D01*
X181790086Y-96906025D02*
X181857430Y-96838682D01*
X181857430Y-96838682D02*
X181891102Y-96737666D01*
X181891102Y-96737666D02*
X181891102Y-96670323D01*
X181891102Y-96670323D02*
X181857430Y-96569308D01*
X181857430Y-96569308D02*
X181689071Y-96400949D01*
X181689071Y-96400949D02*
X181554384Y-96333605D01*
X180577903Y-96703995D02*
X181285010Y-95996888D01*
X181285010Y-95996888D02*
X181015636Y-95727514D01*
X181015636Y-95727514D02*
X180914621Y-95693842D01*
X180914621Y-95693842D02*
X180847277Y-95693842D01*
X180847277Y-95693842D02*
X180746262Y-95727514D01*
X180746262Y-95727514D02*
X180645247Y-95828529D01*
X180645247Y-95828529D02*
X180611575Y-95929544D01*
X180611575Y-95929544D02*
X180611575Y-95996888D01*
X180611575Y-95996888D02*
X180645247Y-96097903D01*
X180645247Y-96097903D02*
X180914621Y-96367277D01*
X180375873Y-95559155D02*
X179870797Y-95054079D01*
X180476888Y-95054079D02*
X179769781Y-96165247D01*
X179635094Y-95424468D02*
X180140171Y-95929544D01*
X179534079Y-95929544D02*
X180241186Y-94818376D01*
X178793300Y-94919392D02*
X179197361Y-95323453D01*
X178995331Y-95121422D02*
X179702438Y-94414315D01*
X179702438Y-94414315D02*
X179668766Y-94582674D01*
X179668766Y-94582674D02*
X179668766Y-94717361D01*
X179668766Y-94717361D02*
X179702438Y-94818376D01*
D12*
%TO.C,TP5*%
X184150120Y-103632000D02*
G75*
G02*
X182750120Y-103632000I-700000J0D01*
G01*
X182750120Y-103632000D02*
G75*
G02*
X184150120Y-103632000I700000J0D01*
G01*
%TO.C,TP25*%
X123367920Y-122402600D02*
G75*
G02*
X121967920Y-122402600I-700000J0D01*
G01*
X121967920Y-122402600D02*
G75*
G02*
X123367920Y-122402600I700000J0D01*
G01*
%TO.C,TP13*%
X113906266Y-128862973D02*
G75*
G02*
X112506266Y-128862973I-700000J0D01*
G01*
X112506266Y-128862973D02*
G75*
G02*
X113906266Y-128862973I700000J0D01*
G01*
%TO.C,TP22*%
X95260952Y-134279717D02*
G75*
G02*
X93860952Y-134279717I-700000J0D01*
G01*
X93860952Y-134279717D02*
G75*
G02*
X95260952Y-134279717I700000J0D01*
G01*
%TO.C,TP19*%
X120497720Y-127076200D02*
G75*
G02*
X119097720Y-127076200I-700000J0D01*
G01*
X119097720Y-127076200D02*
G75*
G02*
X120497720Y-127076200I700000J0D01*
G01*
%TO.C,U22*%
X107434120Y-141218000D02*
X106964120Y-140878000D01*
X107434120Y-140538000D01*
X107434120Y-141218000D01*
G36*
X107434120Y-141218000D02*
G01*
X106964120Y-140878000D01*
X107434120Y-140538000D01*
X107434120Y-141218000D01*
G37*
X107534120Y-140238000D02*
X107534120Y-139663000D01*
X107534120Y-130593000D02*
X107534120Y-130018000D01*
X107534120Y-130018000D02*
X106959120Y-130018000D01*
X106959120Y-140238000D02*
X107534120Y-140238000D01*
X97889120Y-130018000D02*
X97314120Y-130018000D01*
X97314120Y-140238000D02*
X97889120Y-140238000D01*
X97314120Y-139663000D02*
X97314120Y-140238000D01*
X97314120Y-130018000D02*
X97314120Y-130593000D01*
%TO.C,TP4*%
X184150120Y-106426000D02*
G75*
G02*
X182750120Y-106426000I-700000J0D01*
G01*
X182750120Y-106426000D02*
G75*
G02*
X184150120Y-106426000I700000J0D01*
G01*
%TO.C,TP8*%
X156972120Y-94234000D02*
G75*
G02*
X155572120Y-94234000I-700000J0D01*
G01*
X155572120Y-94234000D02*
G75*
G02*
X156972120Y-94234000I700000J0D01*
G01*
%TO.C,TP9*%
X158165920Y-92481400D02*
G75*
G02*
X156765920Y-92481400I-700000J0D01*
G01*
X156765920Y-92481400D02*
G75*
G02*
X158165920Y-92481400I700000J0D01*
G01*
%TO.C,TP17*%
X124104520Y-143154400D02*
G75*
G02*
X122704520Y-143154400I-700000J0D01*
G01*
X122704520Y-143154400D02*
G75*
G02*
X124104520Y-143154400I700000J0D01*
G01*
%TO.C,TP6*%
X134613337Y-142466795D02*
G75*
G02*
X133213337Y-142466795I-700000J0D01*
G01*
X133213337Y-142466795D02*
G75*
G02*
X134613337Y-142466795I700000J0D01*
G01*
%TO.C,TP18*%
X139268320Y-135991600D02*
G75*
G02*
X137868320Y-135991600I-700000J0D01*
G01*
X137868320Y-135991600D02*
G75*
G02*
X139268320Y-135991600I700000J0D01*
G01*
%TO.C,U15*%
X128204571Y-142411351D02*
X127723739Y-142892184D01*
X127631815Y-142319427D01*
X128204571Y-142411351D01*
G36*
X128204571Y-142411351D02*
G01*
X127723739Y-142892184D01*
X127631815Y-142319427D01*
X128204571Y-142411351D01*
G37*
X138634396Y-132306795D02*
X138139422Y-131811820D01*
X138139422Y-132801770D02*
X138634396Y-132306795D01*
X129074313Y-122746711D02*
X128579338Y-122251737D01*
X128579338Y-142361853D02*
X129074313Y-141866879D01*
X128579338Y-122251737D02*
X128084363Y-122746711D01*
X128084363Y-141866879D02*
X128579338Y-142361853D01*
X119019254Y-131811820D02*
X118524280Y-132306795D01*
X118524280Y-132306795D02*
X119019254Y-132801770D01*
%TO.C,TP24*%
X134613337Y-121638795D02*
G75*
G02*
X133213337Y-121638795I-700000J0D01*
G01*
X133213337Y-121638795D02*
G75*
G02*
X134613337Y-121638795I700000J0D01*
G01*
%TO.C,TP23*%
X117087338Y-134084795D02*
G75*
G02*
X115687338Y-134084795I-700000J0D01*
G01*
X115687338Y-134084795D02*
G75*
G02*
X117087338Y-134084795I700000J0D01*
G01*
%TO.C,U18*%
X170883353Y-110180556D02*
X170402521Y-110661389D01*
X170310597Y-110088632D01*
X170883353Y-110180556D01*
G36*
X170883353Y-110180556D02*
G01*
X170402521Y-110661389D01*
X170310597Y-110088632D01*
X170883353Y-110180556D01*
G37*
X181313178Y-100076000D02*
X180818204Y-99581025D01*
X180818204Y-100570975D02*
X181313178Y-100076000D01*
X171753095Y-90515916D02*
X171258120Y-90020942D01*
X171258120Y-110131058D02*
X171753095Y-109636084D01*
X171258120Y-90020942D02*
X170763145Y-90515916D01*
X170763145Y-109636084D02*
X171258120Y-110131058D01*
X161698036Y-99581025D02*
X161203062Y-100076000D01*
X161203062Y-100076000D02*
X161698036Y-100570975D01*
%TO.C,TP20*%
X108737520Y-128524000D02*
G75*
G02*
X107337520Y-128524000I-700000J0D01*
G01*
X107337520Y-128524000D02*
G75*
G02*
X108737520Y-128524000I700000J0D01*
G01*
%TO.C,TP11*%
X178104920Y-87045800D02*
G75*
G02*
X176704920Y-87045800I-700000J0D01*
G01*
X176704920Y-87045800D02*
G75*
G02*
X178104920Y-87045800I700000J0D01*
G01*
%TO.C,TP21*%
X139439337Y-125956795D02*
G75*
G02*
X138039337Y-125956795I-700000J0D01*
G01*
X138039337Y-125956795D02*
G75*
G02*
X139439337Y-125956795I700000J0D01*
G01*
%TO.C,TP10*%
X180136920Y-87071200D02*
G75*
G02*
X178736920Y-87071200I-700000J0D01*
G01*
X178736920Y-87071200D02*
G75*
G02*
X180136920Y-87071200I700000J0D01*
G01*
%TD*%
M02*
