%TF.GenerationSoftware,KiCad,Pcbnew,9.0.9*%
%TF.CreationDate,2026-08-16T13:25:16-07:00*%
%TF.ProjectId,ZID_MAIN,5a49445f-4d41-4494-9e2e-6b696361645f,PR1.0*%
%TF.SameCoordinates,Original*%
%TF.FileFunction,Soldermask,Top*%
%TF.FilePolarity,Negative*%
%FSLAX46Y46*%
G04 Gerber Fmt 4.6, Leading zero omitted, Abs format (unit mm)*
G04 Created by KiCad (PCBNEW 9.0.9) date 2026-08-16 13:25:16*
%MOMM*%
%LPD*%
G01*
G04 APERTURE LIST*
G04 Aperture macros list*
%AMRoundRect*
0 Rectangle with rounded corners*
0 $1 Rounding radius*
0 $2 $3 $4 $5 $6 $7 $8 $9 X,Y pos of 4 corners*
0 Add a 4 corners polygon primitive as box body*
4,1,4,$2,$3,$4,$5,$6,$7,$8,$9,$2,$3,0*
0 Add four circle primitives for the rounded corners*
1,1,$1+$1,$2,$3*
1,1,$1+$1,$4,$5*
1,1,$1+$1,$6,$7*
1,1,$1+$1,$8,$9*
0 Add four rect primitives between the rounded corners*
20,1,$1+$1,$2,$3,$4,$5,0*
20,1,$1+$1,$4,$5,$6,$7,0*
20,1,$1+$1,$6,$7,$8,$9,0*
20,1,$1+$1,$8,$9,$2,$3,0*%
%AMFreePoly0*
4,1,23,0.000000,0.745722,0.065263,0.745722,0.191342,0.711940,0.304381,0.646677,0.396677,0.554381,0.461940,0.441342,0.495722,0.315263,0.495722,0.250000,0.500000,0.250000,0.500000,-0.250000,0.495722,-0.250000,0.495722,-0.315263,0.461940,-0.441342,0.396677,-0.554381,0.304381,-0.646677,0.191342,-0.711940,0.065263,-0.745722,0.000000,-0.745722,0.000000,-0.750000,-0.500000,-0.750000,
-0.500000,0.750000,0.000000,0.750000,0.000000,0.745722,0.000000,0.745722,$1*%
%AMFreePoly1*
4,1,23,0.500000,-0.750000,0.000000,-0.750000,0.000000,-0.745722,-0.065263,-0.745722,-0.191342,-0.711940,-0.304381,-0.646677,-0.396677,-0.554381,-0.461940,-0.441342,-0.495722,-0.315263,-0.495722,-0.250000,-0.500000,-0.250000,-0.500000,0.250000,-0.495722,0.250000,-0.495722,0.315263,-0.461940,0.441342,-0.396677,0.554381,-0.304381,0.646677,-0.191342,0.711940,-0.065263,0.745722,0.000000,0.745722,
0.000000,0.750000,0.500000,0.750000,0.500000,-0.750000,0.500000,-0.750000,$1*%
G04 Aperture macros list end*
%ADD10C,0.000000*%
%ADD11O,1.000000X2.100000*%
%ADD12O,1.000000X1.800000*%
%ADD13R,0.300000X1.150000*%
%ADD14R,0.600000X1.150000*%
%ADD15C,0.650000*%
%ADD16RoundRect,0.250000X-0.262500X-0.450000X0.262500X-0.450000X0.262500X0.450000X-0.262500X0.450000X0*%
%ADD17R,1.700000X1.700000*%
%ADD18RoundRect,0.225000X-0.250000X0.225000X-0.250000X-0.225000X0.250000X-0.225000X0.250000X0.225000X0*%
%ADD19R,0.400000X1.200000*%
%ADD20O,1.750000X1.200000*%
%ADD21RoundRect,0.250000X0.625000X-0.350000X0.625000X0.350000X-0.625000X0.350000X-0.625000X-0.350000X0*%
%ADD22RoundRect,0.225000X0.250000X-0.225000X0.250000X0.225000X-0.250000X0.225000X-0.250000X-0.225000X0*%
%ADD23RoundRect,0.250000X0.450000X-0.262500X0.450000X0.262500X-0.450000X0.262500X-0.450000X-0.262500X0*%
%ADD24RoundRect,0.225000X0.225000X0.250000X-0.225000X0.250000X-0.225000X-0.250000X0.225000X-0.250000X0*%
%ADD25O,1.600000X2.400000*%
%ADD26C,1.400000*%
%ADD27RoundRect,0.250000X-0.550000X0.950000X-0.550000X-0.950000X0.550000X-0.950000X0.550000X0.950000X0*%
%ADD28RoundRect,0.150000X0.150000X-0.512500X0.150000X0.512500X-0.150000X0.512500X-0.150000X-0.512500X0*%
%ADD29RoundRect,0.243750X0.456250X-0.243750X0.456250X0.243750X-0.456250X0.243750X-0.456250X-0.243750X0*%
%ADD30C,1.700000*%
%ADD31RoundRect,0.100000X0.100000X-0.562500X0.100000X0.562500X-0.100000X0.562500X-0.100000X-0.562500X0*%
%ADD32RoundRect,0.250000X0.262500X0.450000X-0.262500X0.450000X-0.262500X-0.450000X0.262500X-0.450000X0*%
%ADD33RoundRect,0.225000X-0.225000X-0.250000X0.225000X-0.250000X0.225000X0.250000X-0.225000X0.250000X0*%
%ADD34RoundRect,0.150000X-2.390000X-0.150000X2.390000X-0.150000X2.390000X0.150000X-2.390000X0.150000X0*%
%ADD35RoundRect,0.150000X-0.925000X-0.150000X0.925000X-0.150000X0.925000X0.150000X-0.925000X0.150000X0*%
%ADD36C,1.350000*%
%ADD37R,1.350000X1.350000*%
%ADD38C,1.600000*%
%ADD39RoundRect,0.250000X-0.550000X-0.550000X0.550000X-0.550000X0.550000X0.550000X-0.550000X0.550000X0*%
%ADD40R,2.000000X1.800000*%
%ADD41R,0.300000X1.300000*%
%ADD42RoundRect,0.243750X-0.456250X0.243750X-0.456250X-0.243750X0.456250X-0.243750X0.456250X0.243750X0*%
%ADD43C,3.200000*%
%ADD44RoundRect,0.150000X-0.150000X0.512500X-0.150000X-0.512500X0.150000X-0.512500X0.150000X0.512500X0*%
%ADD45R,1.600000X1.000000*%
%ADD46RoundRect,0.150000X0.150000X-0.837500X0.150000X0.837500X-0.150000X0.837500X-0.150000X-0.837500X0*%
%ADD47RoundRect,0.150000X-0.150000X0.825000X-0.150000X-0.825000X0.150000X-0.825000X0.150000X0.825000X0*%
%ADD48O,2.400000X1.600000*%
%ADD49RoundRect,0.250000X-0.950000X-0.550000X0.950000X-0.550000X0.950000X0.550000X-0.950000X0.550000X0*%
%ADD50RoundRect,0.250001X-0.872499X-1.044999X0.872499X-1.044999X0.872499X1.044999X-0.872499X1.044999X0*%
%ADD51RoundRect,0.150000X0.150000X-0.825000X0.150000X0.825000X-0.150000X0.825000X-0.150000X-0.825000X0*%
%ADD52RoundRect,0.250000X-0.450000X0.350000X-0.450000X-0.350000X0.450000X-0.350000X0.450000X0.350000X0*%
%ADD53RoundRect,0.125000X0.487500X0.125000X-0.487500X0.125000X-0.487500X-0.125000X0.487500X-0.125000X0*%
%ADD54C,1.000000*%
%ADD55RoundRect,0.250000X-1.000000X-0.650000X1.000000X-0.650000X1.000000X0.650000X-1.000000X0.650000X0*%
%ADD56C,1.422400*%
%ADD57R,1.422400X1.422400*%
%ADD58RoundRect,0.250000X0.550000X-0.550000X0.550000X0.550000X-0.550000X0.550000X-0.550000X-0.550000X0*%
%ADD59RoundRect,0.250000X-0.250000X-0.250000X0.250000X-0.250000X0.250000X0.250000X-0.250000X0.250000X0*%
%ADD60R,1.100000X2.400000*%
%ADD61R,0.620000X1.400000*%
%ADD62C,0.950000*%
%ADD63R,1.600000X1.600000*%
%ADD64FreePoly0,0.000000*%
%ADD65FreePoly1,0.000000*%
%ADD66RoundRect,0.250000X-0.350000X-0.450000X0.350000X-0.450000X0.350000X0.450000X-0.350000X0.450000X0*%
%ADD67RoundRect,0.125000X-0.125000X0.487500X-0.125000X-0.487500X0.125000X-0.487500X0.125000X0.487500X0*%
%ADD68RoundRect,0.250000X0.350000X0.450000X-0.350000X0.450000X-0.350000X-0.450000X0.350000X-0.450000X0*%
%ADD69R,3.500000X1.700000*%
%ADD70O,1.700000X1.700000*%
%ADD71R,1.700000X3.500000*%
%ADD72R,0.600000X1.500000*%
G04 APERTURE END LIST*
D10*
%TO.C,JP1*%
G36*
X159724119Y-126226001D02*
G01*
X159424119Y-126226001D01*
X159424119Y-124726001D01*
X159724119Y-124726001D01*
X159724119Y-126226001D01*
G37*
%TD*%
D11*
%TO.C,J14*%
X168970120Y-48789000D03*
X177610120Y-48789000D03*
D12*
X168970120Y-44609000D03*
X177610120Y-44609000D03*
D13*
X175040120Y-49364000D03*
X174040120Y-49364000D03*
X172540120Y-49364000D03*
X171540120Y-49364000D03*
D14*
X170890120Y-49364000D03*
X170090120Y-49364000D03*
D13*
X172040120Y-49363999D03*
X173040120Y-49364000D03*
X173540120Y-49364000D03*
X174540119Y-49364000D03*
D14*
X175690120Y-49364000D03*
X176490120Y-49364000D03*
D15*
X170400120Y-48289000D03*
X176180120Y-48289000D03*
%TD*%
D16*
%TO.C,R34*%
X79144500Y-53848000D03*
X77319500Y-53848000D03*
%TD*%
D17*
%TO.C,TP14*%
X67564000Y-44704000D03*
%TD*%
D16*
%TO.C,R24*%
X147659620Y-72009000D03*
X145834620Y-72009000D03*
%TD*%
D18*
%TO.C,C32*%
X168616520Y-65849800D03*
X168616520Y-64299800D03*
%TD*%
D19*
%TO.C,U13*%
X132459620Y-63694000D03*
X133094620Y-63694000D03*
X133729620Y-63693999D03*
X134364620Y-63694000D03*
X134999620Y-63694000D03*
X135634620Y-63694000D03*
X136269620Y-63694000D03*
X136904620Y-63693999D03*
X137539620Y-63694000D03*
X138174620Y-63694000D03*
X138174620Y-68894000D03*
X137539620Y-68894000D03*
X136904620Y-68894001D03*
X136269620Y-68894000D03*
X135634620Y-68894000D03*
X134999620Y-68894000D03*
X134364620Y-68894000D03*
X133729620Y-68894001D03*
X133094620Y-68894000D03*
X132459620Y-68894000D03*
%TD*%
D20*
%TO.C,J3*%
X140016120Y-94140000D03*
X140016120Y-96140000D03*
X140016120Y-98140000D03*
X140016120Y-100140000D03*
X140016120Y-102139999D03*
D21*
X140016120Y-104140000D03*
%TD*%
D22*
%TO.C,C25*%
X105247684Y-87081234D03*
X105247684Y-88631234D03*
%TD*%
D23*
%TO.C,R38*%
X98487120Y-54586500D03*
X98487120Y-56411500D03*
%TD*%
D24*
%TO.C,C21*%
X166505248Y-102624995D03*
X168055248Y-102624995D03*
%TD*%
%TO.C,C24*%
X73034634Y-76632048D03*
X74584634Y-76632048D03*
%TD*%
D23*
%TO.C,R37*%
X103567120Y-54586500D03*
X103567120Y-56411500D03*
%TD*%
%TO.C,R12*%
X142302120Y-134620000D03*
X142302120Y-136445000D03*
%TD*%
D18*
%TO.C,C13*%
X160590120Y-118885000D03*
X160590120Y-117335000D03*
%TD*%
D25*
%TO.C,U11*%
X96836120Y-71628000D03*
D26*
X94296120Y-71628000D03*
X91756120Y-71628000D03*
D25*
X89216120Y-71628000D03*
D26*
X86676120Y-71628000D03*
X84136120Y-71628000D03*
D25*
X81596120Y-71628000D03*
X81596120Y-64008000D03*
D26*
X84136120Y-64008000D03*
X86676120Y-64008000D03*
D25*
X89216120Y-64008000D03*
D26*
X91756121Y-64008000D03*
X94296120Y-64008000D03*
D27*
X96836120Y-64008000D03*
%TD*%
D28*
%TO.C,U23*%
X167336320Y-81305400D03*
X168286320Y-81305400D03*
X169236320Y-81305400D03*
X169236320Y-83580400D03*
X168286320Y-83580400D03*
X167336320Y-83580400D03*
%TD*%
D29*
%TO.C,LED8*%
X142302120Y-141048499D03*
X142302120Y-142923501D03*
%TD*%
D30*
%TO.C,J2*%
X175514000Y-118491000D03*
X175514000Y-121031001D03*
X175514000Y-123571000D03*
D17*
X175514000Y-126111000D03*
%TD*%
D22*
%TO.C,C8*%
X132422451Y-122494385D03*
X132422451Y-124044385D03*
%TD*%
D24*
%TO.C,C12*%
X156272120Y-129286000D03*
X157822120Y-129286000D03*
%TD*%
D31*
%TO.C,U19*%
X160067120Y-74296500D03*
X160717120Y-74296500D03*
X161367120Y-74296500D03*
X161367120Y-76071500D03*
X160717120Y-76071500D03*
X160067120Y-76071500D03*
%TD*%
D32*
%TO.C,R25*%
X172989120Y-76454000D03*
X174814120Y-76454000D03*
%TD*%
D28*
%TO.C,U20*%
X162957322Y-81361900D03*
X163907321Y-81361900D03*
X164857320Y-81361900D03*
X164857320Y-83636900D03*
X163907321Y-83636900D03*
X162957322Y-83636900D03*
%TD*%
D32*
%TO.C,R26*%
X180937420Y-65379600D03*
X182762420Y-65379600D03*
%TD*%
D33*
%TO.C,C18*%
X179428707Y-93103445D03*
X177878707Y-93103445D03*
%TD*%
D22*
%TO.C,C16*%
X137005856Y-99143000D03*
X137005856Y-100693000D03*
%TD*%
D34*
%TO.C,U6*%
X102043120Y-96393000D03*
X102043120Y-97663000D03*
X102043120Y-98933000D03*
X102043120Y-100203000D03*
X102043120Y-101473000D03*
X102043120Y-102743000D03*
X102043120Y-104013000D03*
X102043120Y-105283000D03*
X102043120Y-106553000D03*
X102043120Y-107823000D03*
X102043120Y-109093000D03*
X102043120Y-110363000D03*
X102043120Y-111633000D03*
X102043120Y-112903000D03*
X102043120Y-114173000D03*
X102043120Y-115443000D03*
D35*
X93537120Y-115443000D03*
X93537120Y-114173000D03*
X93537120Y-112903000D03*
X93537120Y-111633000D03*
X93537120Y-110363000D03*
X93537120Y-109093000D03*
X93537120Y-107823000D03*
X93537120Y-106553000D03*
X93537120Y-105283000D03*
X93537120Y-104013000D03*
X93537120Y-102743000D03*
X93537120Y-101473000D03*
X93537120Y-100203000D03*
X93537120Y-98933000D03*
X93537120Y-97663000D03*
X93537120Y-96393000D03*
%TD*%
D36*
%TO.C,JP4*%
X108950001Y-55118000D03*
D37*
X106950000Y-55118000D03*
%TD*%
D32*
%TO.C,R32*%
X77319500Y-56388000D03*
X79144500Y-56388000D03*
%TD*%
D22*
%TO.C,C11*%
X133670423Y-130391232D03*
X133670423Y-131941232D03*
%TD*%
D23*
%TO.C,R5*%
X71182120Y-134723500D03*
X71182120Y-136548500D03*
%TD*%
D32*
%TO.C,R33*%
X77356220Y-60934600D03*
X79181220Y-60934600D03*
%TD*%
D38*
%TO.C,SW2*%
X68704120Y-56146500D03*
X68704120Y-58686500D03*
X61084120Y-58686500D03*
D39*
X61084120Y-56146500D03*
%TD*%
D32*
%TO.C,R20*%
X145961620Y-96743000D03*
X147786620Y-96743000D03*
%TD*%
%TO.C,R36*%
X108949882Y-52324000D03*
X110774882Y-52324000D03*
%TD*%
D36*
%TO.C,SBC2*%
X65214000Y-66294000D03*
X63214001Y-66294000D03*
D37*
X61214000Y-66294000D03*
%TD*%
D19*
%TO.C,U9*%
X108329620Y-63694000D03*
X108964620Y-63694000D03*
X109599620Y-63693999D03*
X110234620Y-63694000D03*
X110869620Y-63694000D03*
X111504620Y-63694000D03*
X112139620Y-63694000D03*
X112774620Y-63693999D03*
X113409620Y-63694000D03*
X114044620Y-63694000D03*
X114044620Y-68894000D03*
X113409620Y-68894000D03*
X112774620Y-68894001D03*
X112139620Y-68894000D03*
X111504620Y-68894000D03*
X110869620Y-68894000D03*
X110234620Y-68894000D03*
X109599620Y-68894001D03*
X108964620Y-68894000D03*
X108329620Y-68894000D03*
%TD*%
D32*
%TO.C,R14*%
X165519620Y-125984000D03*
X167344620Y-125984000D03*
%TD*%
D36*
%TO.C,OP1*%
X104202120Y-77184000D03*
X104202120Y-75184000D03*
D37*
X104202120Y-73184000D03*
%TD*%
D40*
%TO.C,J10*%
X110682520Y-46799200D03*
X133789720Y-46799200D03*
D41*
X112486119Y-49530000D03*
X112986120Y-49530000D03*
X113486120Y-49530000D03*
X113986121Y-49530000D03*
X114486120Y-49530000D03*
X114986120Y-49530000D03*
X115486120Y-49530000D03*
X115986120Y-49530000D03*
X116486120Y-49530001D03*
X116986120Y-49530000D03*
X117486120Y-49530000D03*
X117986120Y-49530000D03*
X118486120Y-49530000D03*
X118986120Y-49530001D03*
X119486120Y-49530000D03*
X119986120Y-49530000D03*
X120486121Y-49530000D03*
X120986120Y-49530000D03*
X121486119Y-49530000D03*
X121986120Y-49530000D03*
X122486120Y-49530000D03*
X122986121Y-49530000D03*
X123486120Y-49530000D03*
X123986119Y-49530000D03*
X124486120Y-49530000D03*
X124986120Y-49530000D03*
X125486120Y-49530001D03*
X125986120Y-49530000D03*
X126486120Y-49530000D03*
X126986120Y-49530000D03*
X127486120Y-49530000D03*
X127986120Y-49530001D03*
X128486120Y-49530000D03*
X128986120Y-49530000D03*
X129486120Y-49530000D03*
X129986120Y-49530000D03*
X130486119Y-49530000D03*
X130986120Y-49530000D03*
X131486120Y-49530000D03*
X131986121Y-49530000D03*
%TD*%
D30*
%TO.C,J6*%
X168718120Y-76454000D03*
X168718120Y-73914000D03*
D17*
X168718120Y-71374000D03*
%TD*%
D42*
%TO.C,LED3*%
X68007120Y-142923501D03*
X68007120Y-141048499D03*
%TD*%
D23*
%TO.C,R1*%
X68007120Y-134723500D03*
X68007120Y-136548500D03*
%TD*%
D42*
%TO.C,LED7*%
X145477120Y-142923501D03*
X145477120Y-141048499D03*
%TD*%
D24*
%TO.C,C6*%
X110538479Y-136834401D03*
X112088479Y-136834401D03*
%TD*%
D43*
%TO.C,H4*%
X182180120Y-46736000D03*
%TD*%
D18*
%TO.C,C26*%
X90357109Y-85950852D03*
X90357109Y-84400852D03*
%TD*%
D44*
%TO.C,U3*%
X182114119Y-121660500D03*
X180214121Y-121660500D03*
X180214121Y-119385500D03*
X181164120Y-119385500D03*
X182114119Y-119385500D03*
%TD*%
D45*
%TO.C,SW1*%
X178539120Y-132004000D03*
X183789120Y-132004000D03*
X178539120Y-135204000D03*
X183789120Y-135204000D03*
%TD*%
D33*
%TO.C,C36*%
X119735363Y-60966771D03*
X118185363Y-60966771D03*
%TD*%
D23*
%TO.C,R7*%
X155002120Y-134620000D03*
X155002120Y-136445000D03*
%TD*%
D36*
%TO.C,JP3*%
X76008121Y-69342000D03*
X74008122Y-69342000D03*
D37*
X72008121Y-69342000D03*
%TD*%
D36*
%TO.C,JP6*%
X172877121Y-52857400D03*
D37*
X170877120Y-52857400D03*
%TD*%
D43*
%TO.C,H2*%
X182180120Y-141224000D03*
%TD*%
D46*
%TO.C,U21*%
X147382120Y-79689000D03*
X148652120Y-79689000D03*
X149922120Y-79689000D03*
X151192120Y-79689000D03*
X152462120Y-79689000D03*
X153732120Y-79689000D03*
X155002120Y-79689000D03*
X156272120Y-79689000D03*
X157542120Y-79689000D03*
X158812120Y-79689000D03*
X158812120Y-86614000D03*
X157542120Y-86614000D03*
X156272120Y-86614000D03*
X155002120Y-86614000D03*
X153732120Y-86614000D03*
X152462120Y-86614000D03*
X151192120Y-86614000D03*
X149922120Y-86614000D03*
X148652120Y-86614000D03*
X147382120Y-86614000D03*
%TD*%
D43*
%TO.C,H3*%
X62292120Y-46736000D03*
%TD*%
D30*
%TO.C,J1*%
X182561120Y-125222000D03*
D17*
X182561120Y-127762000D03*
%TD*%
D22*
%TO.C,C27*%
X128906700Y-75984762D03*
X128906700Y-77534762D03*
%TD*%
D23*
%TO.C,R10*%
X151827120Y-134620000D03*
X151827120Y-136445000D03*
%TD*%
D18*
%TO.C,C7*%
X120871948Y-125516422D03*
X120871948Y-123966422D03*
%TD*%
D37*
%TO.C,TP2*%
X68896120Y-76454000D03*
%TD*%
D23*
%TO.C,R39*%
X124014120Y-52427500D03*
X124014120Y-54252500D03*
%TD*%
D19*
%TO.C,U16*%
X132459620Y-74489000D03*
X133094620Y-74489000D03*
X133729620Y-74489000D03*
X134364620Y-74489000D03*
X134999620Y-74489000D03*
X135634620Y-74489000D03*
X136269620Y-74489000D03*
X136904620Y-74489000D03*
X137539620Y-74489000D03*
X138174620Y-74489000D03*
X138174620Y-79689000D03*
X137539620Y-79689000D03*
X136904620Y-79689000D03*
X136269620Y-79689000D03*
X135634620Y-79689000D03*
X134999620Y-79689000D03*
X134364620Y-79689000D03*
X133729620Y-79689000D03*
X133094620Y-79689000D03*
X132459620Y-79689000D03*
%TD*%
D18*
%TO.C,C30*%
X141123053Y-69503508D03*
X141123053Y-67953508D03*
%TD*%
D36*
%TO.C,JP2*%
X76008120Y-72390000D03*
X74008121Y-72390000D03*
D37*
X72008120Y-72390000D03*
%TD*%
D17*
%TO.C,TP12*%
X71374000Y-44704000D03*
%TD*%
D19*
%TO.C,U14*%
X126109620Y-79689000D03*
X125474620Y-79689000D03*
X124839620Y-79689001D03*
X124204620Y-79689000D03*
X123569620Y-79689000D03*
X122934620Y-79689000D03*
X122299620Y-79689000D03*
X121664620Y-79689001D03*
X121029620Y-79689000D03*
X120394620Y-79689000D03*
X120394620Y-74489000D03*
X121029620Y-74489000D03*
X121664620Y-74488999D03*
X122299620Y-74489000D03*
X122934620Y-74489000D03*
X123569620Y-74489000D03*
X124204620Y-74489000D03*
X124839620Y-74488999D03*
X125474620Y-74489000D03*
X126109620Y-74489000D03*
%TD*%
D36*
%TO.C,DBOPT1*%
X133589920Y-108324399D03*
X133589920Y-106324400D03*
D37*
X133589920Y-104324399D03*
%TD*%
D47*
%TO.C,U1*%
X90740120Y-141667000D03*
X89470120Y-141667000D03*
X88200120Y-141667000D03*
X86930120Y-141667000D03*
X85660120Y-141667000D03*
X84390120Y-141667000D03*
X83120120Y-141667000D03*
X83120120Y-136717000D03*
X84390120Y-136717000D03*
X85660120Y-136717000D03*
X86930120Y-136717000D03*
X88200120Y-136717000D03*
X89470120Y-136717000D03*
X90740120Y-136717000D03*
%TD*%
D48*
%TO.C,U5*%
X84517120Y-90424000D03*
X84517120Y-92964000D03*
X84517120Y-95504000D03*
X84517120Y-98044000D03*
X84517120Y-100584000D03*
X84517120Y-103124000D03*
X84517120Y-105664000D03*
X84517120Y-108204000D03*
X84517120Y-110744000D03*
X84517120Y-113284000D03*
X84517120Y-115824000D03*
X84517120Y-118364000D03*
X84517120Y-120904000D03*
X84517120Y-123444000D03*
X84517120Y-125984000D03*
X84517120Y-128524000D03*
X69277120Y-128523999D03*
X69277120Y-125984000D03*
X69277120Y-123444000D03*
X69277120Y-120904000D03*
X69277120Y-118363999D03*
X69277120Y-115824000D03*
X69277120Y-113284000D03*
X69277120Y-110744000D03*
X69277120Y-108204001D03*
X69277120Y-105664000D03*
X69277120Y-103124000D03*
X69277120Y-100584000D03*
X69277120Y-98044000D03*
X69277120Y-95503999D03*
X69277120Y-92964000D03*
D49*
X69277120Y-90424000D03*
%TD*%
D30*
%TO.C,J9*%
X104394000Y-45974000D03*
X104394000Y-48514000D03*
X101854000Y-45974000D03*
X101853999Y-48514000D03*
X99314000Y-45974000D03*
X99314000Y-48514000D03*
X96774000Y-45974000D03*
D17*
X96774000Y-48514000D03*
%TD*%
D16*
%TO.C,R29*%
X79144500Y-51308000D03*
X77319500Y-51308000D03*
%TD*%
D36*
%TO.C,JP5*%
X137730120Y-44465999D03*
D37*
X137730120Y-46466000D03*
%TD*%
D43*
%TO.C,H1*%
X62292120Y-141224000D03*
%TD*%
D18*
%TO.C,C14*%
X163130120Y-125997000D03*
X163130120Y-124447000D03*
%TD*%
D42*
%TO.C,LED5*%
X77532120Y-142923501D03*
X77532120Y-141048499D03*
%TD*%
D19*
%TO.C,U24*%
X88644620Y-54804000D03*
X89279620Y-54804000D03*
X89914620Y-54803999D03*
X90549620Y-54804000D03*
X91184620Y-54804000D03*
X91819620Y-54804000D03*
X92454620Y-54804000D03*
X93089620Y-54803999D03*
X93724620Y-54804000D03*
X94359620Y-54804000D03*
X94359620Y-60004000D03*
X93724620Y-60004000D03*
X93089620Y-60004001D03*
X92454620Y-60004000D03*
X91819620Y-60004000D03*
X91184620Y-60004000D03*
X90549620Y-60004000D03*
X89914620Y-60004001D03*
X89279620Y-60004000D03*
X88644620Y-60004000D03*
%TD*%
D24*
%TO.C,C10*%
X128251030Y-139049555D03*
X129801030Y-139049555D03*
%TD*%
D30*
%TO.C,OP2*%
X134428120Y-93598999D03*
X134428120Y-91059000D03*
D17*
X134428120Y-88519000D03*
%TD*%
D33*
%TO.C,C2*%
X82638120Y-132842000D03*
X81088120Y-132842000D03*
%TD*%
D32*
%TO.C,R11*%
X163233620Y-114554000D03*
X165058620Y-114554000D03*
%TD*%
D50*
%TO.C,C38*%
X178021620Y-62738000D03*
X171606620Y-62738000D03*
%TD*%
D51*
%TO.C,U4*%
X163257120Y-117159000D03*
X164527120Y-117159000D03*
X165797120Y-117159000D03*
X167067120Y-117159000D03*
X167067120Y-122109000D03*
X165797120Y-122109000D03*
X164527120Y-122109000D03*
X163257120Y-122109000D03*
%TD*%
D23*
%TO.C,R3*%
X74357120Y-134723500D03*
X74357120Y-136548500D03*
%TD*%
D16*
%TO.C,R23*%
X126958620Y-84836000D03*
X125133620Y-84836000D03*
%TD*%
%TO.C,R6*%
X160486620Y-123190000D03*
X158661620Y-123190000D03*
%TD*%
D52*
%TO.C,R13*%
X177227120Y-139684000D03*
X177227120Y-137684000D03*
%TD*%
D36*
%TO.C,SBC1*%
X65246000Y-69342000D03*
X63246001Y-69342000D03*
D37*
X61246000Y-69342000D03*
%TD*%
D17*
%TO.C,TP1*%
X62215920Y-85166200D03*
%TD*%
D23*
%TO.C,R40*%
X119188120Y-52427500D03*
X119188120Y-54252500D03*
%TD*%
D36*
%TO.C,SBC3*%
X65214000Y-72390000D03*
X63214001Y-72390000D03*
D37*
X61214000Y-72390000D03*
%TD*%
D47*
%TO.C,U8*%
X82993120Y-85660000D03*
X81723120Y-85660000D03*
X80453120Y-85660000D03*
X79183120Y-85660000D03*
X77913120Y-85660000D03*
X76643120Y-85660000D03*
X75373120Y-85660000D03*
X74103120Y-85660000D03*
X74103120Y-80710000D03*
X75373120Y-80710000D03*
X76643120Y-80710000D03*
X77913120Y-80710000D03*
X79183120Y-80710000D03*
X80453120Y-80710000D03*
X81723120Y-80710000D03*
X82993120Y-80710000D03*
%TD*%
D24*
%TO.C,C3*%
X66188449Y-131207229D03*
X67738449Y-131207229D03*
%TD*%
D42*
%TO.C,LED9*%
X151827120Y-142923501D03*
X151827120Y-141048499D03*
%TD*%
D53*
%TO.C,D2*%
X136696723Y-52066253D03*
X138571724Y-51416253D03*
X138571724Y-52716253D03*
%TD*%
D18*
%TO.C,C34*%
X85902315Y-54096345D03*
X85902315Y-52546345D03*
%TD*%
D54*
%TO.C,TP3*%
X109927771Y-72130081D03*
%TD*%
D33*
%TO.C,C9*%
X135641115Y-133881692D03*
X134091115Y-133881692D03*
%TD*%
%TO.C,C35*%
X104265304Y-62168616D03*
X102715304Y-62168616D03*
%TD*%
D23*
%TO.C,R8*%
X148652120Y-134620000D03*
X148652120Y-136445000D03*
%TD*%
D30*
%TO.C,J4*%
X96582121Y-76454000D03*
X94042120Y-76454000D03*
X91502120Y-76454000D03*
X88962120Y-76454000D03*
X86422120Y-76454000D03*
X83882119Y-76454000D03*
X81342120Y-76454000D03*
D17*
X78802120Y-76454000D03*
%TD*%
D32*
%TO.C,R19*%
X145961620Y-103093000D03*
X147786620Y-103093000D03*
%TD*%
D47*
%TO.C,U12*%
X101687520Y-85660000D03*
X100417520Y-85660000D03*
X99147520Y-85660000D03*
X97877520Y-85660000D03*
X96607520Y-85660000D03*
X95337520Y-85660000D03*
X94067520Y-85660000D03*
X92797520Y-85660000D03*
X92797520Y-80710000D03*
X94067520Y-80710000D03*
X95337520Y-80710000D03*
X96607520Y-80710000D03*
X97877520Y-80710000D03*
X99147520Y-80710000D03*
X100417520Y-80710000D03*
X101687520Y-80710000D03*
%TD*%
D33*
%TO.C,C20*%
X172253811Y-89220533D03*
X170703811Y-89220533D03*
%TD*%
D55*
%TO.C,D4*%
X176814120Y-56896000D03*
X172814120Y-56896000D03*
%TD*%
D42*
%TO.C,LED4*%
X71182120Y-142923501D03*
X71182120Y-141048499D03*
%TD*%
D23*
%TO.C,R9*%
X145477120Y-134620000D03*
X145477120Y-136445000D03*
%TD*%
D56*
%TO.C,U7*%
X120077120Y-94869000D03*
X122617120Y-97409000D03*
X122617120Y-94869000D03*
X125157119Y-97409000D03*
X125157120Y-94869000D03*
X127697120Y-97409000D03*
X125157120Y-99949000D03*
X127697120Y-99949000D03*
X125157120Y-102489000D03*
X127697120Y-102489000D03*
X125157120Y-105029000D03*
X127697120Y-105029000D03*
X125157120Y-107568999D03*
X127697120Y-107569000D03*
X125157120Y-110109001D03*
X127697120Y-110109000D03*
X125157120Y-112649000D03*
X122617120Y-110109000D03*
X122617120Y-112649000D03*
X120077120Y-110109000D03*
X120077120Y-112649000D03*
X117537120Y-110109000D03*
X117537120Y-112649000D03*
X114997120Y-110109001D03*
X114997120Y-112649000D03*
X112457120Y-110109000D03*
X112457120Y-112649000D03*
X109917120Y-110109000D03*
X112457120Y-107569000D03*
X109917120Y-107569000D03*
X112457120Y-105029000D03*
X109917120Y-105029000D03*
X112457120Y-102489000D03*
X109917121Y-102489000D03*
X112457120Y-99949000D03*
X109917120Y-99949000D03*
X112457120Y-97409000D03*
X109917120Y-97409000D03*
X112457120Y-94869000D03*
X114997121Y-97409000D03*
X114997120Y-94869000D03*
X117537120Y-97409000D03*
X117537120Y-94869000D03*
D57*
X120077120Y-97409000D03*
%TD*%
D51*
%TO.C,U10*%
X108012120Y-74549000D03*
X109282120Y-74549000D03*
X110552120Y-74549000D03*
X111822120Y-74549000D03*
X113092120Y-74549000D03*
X114362120Y-74549000D03*
X115632120Y-74549000D03*
X115632120Y-79499000D03*
X114362120Y-79499000D03*
X113092120Y-79499000D03*
X111822120Y-79499000D03*
X110552120Y-79499000D03*
X109282120Y-79499000D03*
X108012120Y-79499000D03*
%TD*%
D23*
%TO.C,R41*%
X121220120Y-52427500D03*
X121220120Y-54252500D03*
%TD*%
D30*
%TO.C,J7*%
X89154000Y-45974000D03*
X89154000Y-48514000D03*
X86614000Y-45974000D03*
X86613999Y-48514000D03*
X84074000Y-45974000D03*
X84074000Y-48514000D03*
X81534000Y-45974000D03*
D17*
X81534000Y-48514000D03*
%TD*%
D23*
%TO.C,R2*%
X77532120Y-134723500D03*
X77532120Y-136548500D03*
%TD*%
D38*
%TO.C,SPARE1*%
X87946120Y-118364000D03*
X90486120Y-118364000D03*
X93026120Y-118364000D03*
X95566120Y-118364000D03*
X98106120Y-118364000D03*
X100646120Y-118364000D03*
X103186120Y-118364000D03*
X105726120Y-118364000D03*
X105726121Y-125984000D03*
X103186120Y-125984000D03*
X100646120Y-125984000D03*
X98106120Y-125984000D03*
X95566120Y-125984000D03*
X93026119Y-125984000D03*
X90486120Y-125984000D03*
D58*
X87946120Y-125984000D03*
D28*
X91370121Y-121031000D03*
X90426120Y-121031000D03*
X89470120Y-121031000D03*
X104197120Y-121036500D03*
X102297120Y-121036500D03*
D44*
X98990120Y-121042000D03*
X97090120Y-121042000D03*
X98040120Y-121042001D03*
D28*
X91370121Y-123306000D03*
X90420120Y-123306000D03*
X89470120Y-123306000D03*
X104197120Y-123311500D03*
X103247120Y-123311500D03*
X102297120Y-123311501D03*
D44*
X98990120Y-123317000D03*
X97090120Y-123317000D03*
%TD*%
D17*
%TO.C,TP15*%
X75184000Y-44704000D03*
%TD*%
D59*
%TO.C,D3*%
X142790119Y-44450000D03*
X140290121Y-44450000D03*
%TD*%
D42*
%TO.C,LED6*%
X148652120Y-142923501D03*
X148652120Y-141048499D03*
%TD*%
D54*
%TO.C,TP7*%
X111855447Y-72006600D03*
%TD*%
D22*
%TO.C,C17*%
X160606450Y-94273554D03*
X160606450Y-95823554D03*
%TD*%
D32*
%TO.C,R16*%
X128994420Y-89966800D03*
X130819420Y-89966800D03*
%TD*%
D33*
%TO.C,C5*%
X101284633Y-138790617D03*
X99734633Y-138790617D03*
%TD*%
D30*
%TO.C,OP3*%
X74422000Y-52578001D03*
X74422000Y-55118000D03*
D17*
X74422000Y-57658000D03*
%TD*%
D60*
%TO.C,SD1*%
X174474120Y-142074000D03*
X174474120Y-133074000D03*
X158324120Y-142074000D03*
X158324120Y-133074000D03*
D61*
X159704120Y-131074000D03*
X160804120Y-131074000D03*
X161904120Y-131074000D03*
X163004120Y-131074000D03*
X164104120Y-131074000D03*
X165204120Y-131074000D03*
X166304120Y-131074000D03*
X167404120Y-131074000D03*
X168504120Y-131074000D03*
D62*
X169324120Y-142494000D03*
X162524120Y-142494000D03*
%TD*%
D30*
%TO.C,J8*%
X94234000Y-45974000D03*
X94234000Y-48514000D03*
X91694000Y-45974000D03*
D17*
X91694000Y-48514000D03*
%TD*%
D38*
%TO.C,RN1*%
X65467120Y-118364000D03*
X65467120Y-115824001D03*
X65467120Y-113284000D03*
X65467120Y-110744000D03*
X65467120Y-108204000D03*
X65467120Y-105664000D03*
X65467120Y-103123999D03*
X65467120Y-100584000D03*
D63*
X65467120Y-98044000D03*
%TD*%
D32*
%TO.C,R27*%
X172989120Y-71374000D03*
X174814120Y-71374000D03*
%TD*%
D16*
%TO.C,R21*%
X65936500Y-76454000D03*
X64111500Y-76454000D03*
%TD*%
D33*
%TO.C,C37*%
X132627855Y-60397795D03*
X131077855Y-60397795D03*
%TD*%
%TO.C,C4*%
X102637154Y-131139949D03*
X101087154Y-131139949D03*
%TD*%
D64*
%TO.C,JP1*%
X160224118Y-125476001D03*
D65*
X158924120Y-125476001D03*
%TD*%
D32*
%TO.C,R18*%
X145961620Y-93568000D03*
X147786620Y-93568000D03*
%TD*%
D22*
%TO.C,C33*%
X78802120Y-62725000D03*
X78802120Y-64275000D03*
%TD*%
D66*
%TO.C,R42*%
X182672120Y-52832000D03*
X180672120Y-52832000D03*
%TD*%
D16*
%TO.C,R31*%
X79144500Y-58928000D03*
X77319500Y-58928000D03*
%TD*%
D33*
%TO.C,C28*%
X118312120Y-84647856D03*
X116762120Y-84647856D03*
%TD*%
D24*
%TO.C,C22*%
X172134120Y-107677058D03*
X173684120Y-107677058D03*
%TD*%
%TO.C,C1*%
X93120771Y-142801723D03*
X94670771Y-142801723D03*
%TD*%
D42*
%TO.C,LED2*%
X80707120Y-142923501D03*
X80707120Y-141048499D03*
%TD*%
D23*
%TO.C,R35*%
X101027120Y-54586500D03*
X101027120Y-56411500D03*
%TD*%
D38*
%TO.C,RN2*%
X88327120Y-110744000D03*
X88327120Y-108204001D03*
X88327120Y-105664000D03*
X88327120Y-103124000D03*
X88327120Y-100584000D03*
X88327120Y-98044000D03*
X88327120Y-95503999D03*
X88327120Y-92964000D03*
D63*
X88327120Y-90424000D03*
%TD*%
D42*
%TO.C,LED1*%
X74357120Y-142923501D03*
X74357120Y-141048499D03*
%TD*%
D33*
%TO.C,C15*%
X171525120Y-127254000D03*
X169975120Y-127254000D03*
%TD*%
D24*
%TO.C,C19*%
X173952333Y-103595998D03*
X175502333Y-103595998D03*
%TD*%
D32*
%TO.C,R17*%
X145961620Y-99918000D03*
X147786620Y-99918000D03*
%TD*%
D16*
%TO.C,R30*%
X68792620Y-62992000D03*
X66967620Y-62992000D03*
%TD*%
D20*
%TO.C,J5*%
X179132120Y-69152000D03*
X179132120Y-71152000D03*
X179132120Y-73152000D03*
X179132120Y-75152000D03*
X179132120Y-77151999D03*
D21*
X179132120Y-79152000D03*
%TD*%
D19*
%TO.C,U17*%
X120394620Y-63694000D03*
X121029620Y-63694000D03*
X121664620Y-63693999D03*
X122299620Y-63694000D03*
X122934620Y-63694000D03*
X123569620Y-63694000D03*
X124204620Y-63694000D03*
X124839620Y-63693999D03*
X125474620Y-63694000D03*
X126109620Y-63694000D03*
X126109620Y-68894000D03*
X125474620Y-68894000D03*
X124839620Y-68894001D03*
X124204620Y-68894000D03*
X123569620Y-68894000D03*
X122934620Y-68894000D03*
X122299620Y-68894000D03*
X121664620Y-68894001D03*
X121029620Y-68894000D03*
X120394620Y-68894000D03*
%TD*%
D32*
%TO.C,R28*%
X172989120Y-73914000D03*
X174814120Y-73914000D03*
%TD*%
D18*
%TO.C,C29*%
X138405519Y-89525924D03*
X138405519Y-87975924D03*
%TD*%
%TO.C,C23*%
X176851532Y-101765835D03*
X176851532Y-100215835D03*
%TD*%
D23*
%TO.C,R4*%
X80707120Y-134723500D03*
X80707120Y-136548500D03*
%TD*%
D16*
%TO.C,R15*%
X168868620Y-114554000D03*
X167043620Y-114554000D03*
%TD*%
D67*
%TO.C,D1*%
X107496647Y-47796492D03*
X106846647Y-45921491D03*
X108146647Y-45921491D03*
%TD*%
D42*
%TO.C,LED10*%
X155002120Y-142923501D03*
X155002120Y-141048499D03*
%TD*%
D22*
%TO.C,C31*%
X145096120Y-79997000D03*
X145096120Y-81547000D03*
%TD*%
D68*
%TO.C,R22*%
X105945320Y-70688200D03*
X107945320Y-70688200D03*
%TD*%
D30*
%TO.C,J11*%
X141794120Y-65024001D03*
X141794120Y-62484000D03*
X141794120Y-59944000D03*
X141794120Y-57404000D03*
X141794120Y-54864000D03*
X141794120Y-52323999D03*
X141794120Y-49784000D03*
D17*
X141794120Y-47244000D03*
%TD*%
D69*
%TO.C,M1*%
X146482120Y-45974000D03*
D17*
X147382120Y-45974000D03*
D69*
X146482120Y-48514000D03*
D70*
X147382120Y-48514000D03*
D69*
X146482120Y-51054000D03*
D70*
X147382120Y-51054000D03*
D69*
X146482120Y-53594000D03*
D70*
X147382120Y-53594000D03*
D69*
X146482120Y-56134000D03*
D70*
X147382120Y-56134000D03*
D69*
X146482120Y-58674000D03*
D17*
X147382120Y-58674000D03*
D69*
X146482120Y-61214000D03*
D70*
X147382120Y-61214000D03*
D69*
X146482120Y-63754000D03*
D70*
X147382120Y-63754000D03*
D69*
X146482120Y-66294000D03*
D70*
X147382120Y-66294000D03*
D71*
X149922120Y-67194000D03*
D70*
X149922120Y-66294000D03*
D71*
X152462120Y-67194000D03*
D70*
X152462120Y-66294000D03*
D71*
X155002120Y-67194001D03*
D70*
X155002120Y-66294001D03*
D71*
X157542120Y-67193999D03*
D70*
X157542120Y-66293999D03*
D71*
X160082120Y-67194000D03*
D70*
X160082120Y-66294000D03*
D69*
X163522120Y-66294000D03*
D70*
X162622120Y-66294000D03*
D69*
X163522120Y-63754000D03*
D17*
X162622120Y-63754000D03*
D69*
X163522120Y-61214000D03*
D70*
X162622120Y-61214000D03*
D69*
X163522120Y-58674000D03*
D70*
X162622120Y-58674000D03*
D69*
X163522120Y-56134000D03*
D70*
X162622120Y-56134000D03*
D69*
X163522120Y-53594000D03*
D70*
X162622120Y-53594000D03*
D69*
X163522120Y-51054000D03*
D17*
X162622120Y-51054000D03*
D69*
X163522120Y-48514000D03*
D70*
X162622120Y-48514000D03*
D69*
X163522120Y-45974000D03*
D70*
X162622120Y-45974000D03*
%TD*%
D72*
%TO.C,U2*%
X154367120Y-130988000D03*
X153097120Y-130988000D03*
X151827120Y-130988000D03*
X150557120Y-130988000D03*
X149287120Y-130988000D03*
X148017120Y-130988000D03*
X146747120Y-130988000D03*
X145477120Y-130988000D03*
X144207120Y-130988000D03*
X142937120Y-130988000D03*
X142937120Y-121488000D03*
X144207120Y-121488000D03*
X145477120Y-121488000D03*
X146747120Y-121488000D03*
X148017120Y-121488000D03*
X149287120Y-121488000D03*
X150557120Y-121488000D03*
X151827120Y-121488000D03*
X153097120Y-121488000D03*
X154367120Y-121488000D03*
%TD*%
D54*
%TO.C,TP5*%
X183450120Y-103632000D03*
%TD*%
%TO.C,TP25*%
X122667920Y-122402600D03*
%TD*%
%TO.C,TP13*%
X113206266Y-128862973D03*
%TD*%
%TO.C,TP22*%
X94560952Y-134279717D03*
%TD*%
%TO.C,TP19*%
X119797720Y-127076200D03*
%TD*%
%TO.C,TP4*%
X183450120Y-106426000D03*
%TD*%
%TO.C,TP8*%
X156272120Y-94234000D03*
%TD*%
%TO.C,TP9*%
X157465920Y-92481400D03*
%TD*%
%TO.C,TP17*%
X123404520Y-143154400D03*
%TD*%
%TO.C,TP6*%
X133913337Y-142466795D03*
%TD*%
%TO.C,TP18*%
X138568320Y-135991600D03*
%TD*%
%TO.C,TP24*%
X133913337Y-121638795D03*
%TD*%
%TO.C,TP23*%
X116387338Y-134084795D03*
%TD*%
%TO.C,TP20*%
X108037520Y-128524000D03*
%TD*%
%TO.C,TP11*%
X177404920Y-87045800D03*
%TD*%
%TO.C,TP21*%
X138739337Y-125956795D03*
%TD*%
%TO.C,TP10*%
X179436920Y-87071200D03*
%TD*%
M02*
