%TF.GenerationSoftware,KiCad,Pcbnew,9.0.9*%
%TF.CreationDate,2026-08-16T13:25:16-07:00*%
%TF.ProjectId,ZID_MAIN,5a49445f-4d41-4494-9e2e-6b696361645f,PR1.0*%
%TF.SameCoordinates,Original*%
%TF.FileFunction,Copper,L1,Top*%
%TF.FilePolarity,Positive*%
%FSLAX46Y46*%
G04 Gerber Fmt 4.6, Leading zero omitted, Abs format (unit mm)*
G04 Created by KiCad (PCBNEW 9.0.9) date 2026-08-16 13:25:16*
%MOMM*%
%LPD*%
G01*
G04 APERTURE LIST*
G04 Aperture macros list*
%AMRoundRect*
0 Rectangle with rounded corners*
0 $1 Rounding radius*
0 $2 $3 $4 $5 $6 $7 $8 $9 X,Y pos of 4 corners*
0 Add a 4 corners polygon primitive as box body*
4,1,4,$2,$3,$4,$5,$6,$7,$8,$9,$2,$3,0*
0 Add four circle primitives for the rounded corners*
1,1,$1+$1,$2,$3*
1,1,$1+$1,$4,$5*
1,1,$1+$1,$6,$7*
1,1,$1+$1,$8,$9*
0 Add four rect primitives between the rounded corners*
20,1,$1+$1,$2,$3,$4,$5,0*
20,1,$1+$1,$4,$5,$6,$7,0*
20,1,$1+$1,$6,$7,$8,$9,0*
20,1,$1+$1,$8,$9,$2,$3,0*%
%AMFreePoly0*
4,1,23,0.000000,0.745722,0.065263,0.745722,0.191342,0.711940,0.304381,0.646677,0.396677,0.554381,0.461940,0.441342,0.495722,0.315263,0.495722,0.250000,0.500000,0.250000,0.500000,-0.250000,0.495722,-0.250000,0.495722,-0.315263,0.461940,-0.441342,0.396677,-0.554381,0.304381,-0.646677,0.191342,-0.711940,0.065263,-0.745722,0.000000,-0.745722,0.000000,-0.750000,-0.500000,-0.750000,
-0.500000,0.750000,0.000000,0.750000,0.000000,0.745722,0.000000,0.745722,$1*%
%AMFreePoly1*
4,1,23,0.500000,-0.750000,0.000000,-0.750000,0.000000,-0.745722,-0.065263,-0.745722,-0.191342,-0.711940,-0.304381,-0.646677,-0.396677,-0.554381,-0.461940,-0.441342,-0.495722,-0.315263,-0.495722,-0.250000,-0.500000,-0.250000,-0.500000,0.250000,-0.495722,0.250000,-0.495722,0.315263,-0.461940,0.441342,-0.396677,0.554381,-0.304381,0.646677,-0.191342,0.711940,-0.065263,0.745722,0.000000,0.745722,
0.000000,0.750000,0.500000,0.750000,0.500000,-0.750000,0.500000,-0.750000,$1*%
G04 Aperture macros list end*
%TA.AperFunction,Conductor*%
%ADD10C,0.200000*%
%TD*%
%TA.AperFunction,EtchedComponent*%
%ADD11C,0.200000*%
%TD*%
%TA.AperFunction,ComponentPad*%
%ADD12O,1.000000X2.100000*%
%TD*%
%TA.AperFunction,ComponentPad*%
%ADD13O,1.000000X1.800000*%
%TD*%
%TA.AperFunction,SMDPad,CuDef*%
%ADD14R,0.300000X1.150000*%
%TD*%
%TA.AperFunction,SMDPad,CuDef*%
%ADD15R,0.600000X1.150000*%
%TD*%
%TA.AperFunction,SMDPad,CuDef*%
%ADD16RoundRect,0.250000X-0.262500X-0.450000X0.262500X-0.450000X0.262500X0.450000X-0.262500X0.450000X0*%
%TD*%
%TA.AperFunction,ComponentPad*%
%ADD17R,1.700000X1.700000*%
%TD*%
%TA.AperFunction,SMDPad,CuDef*%
%ADD18RoundRect,0.225000X-0.250000X0.225000X-0.250000X-0.225000X0.250000X-0.225000X0.250000X0.225000X0*%
%TD*%
%TA.AperFunction,SMDPad,CuDef*%
%ADD19R,0.400000X1.200000*%
%TD*%
%TA.AperFunction,ComponentPad*%
%ADD20O,1.750000X1.200000*%
%TD*%
%TA.AperFunction,ComponentPad*%
%ADD21RoundRect,0.250000X0.625000X-0.350000X0.625000X0.350000X-0.625000X0.350000X-0.625000X-0.350000X0*%
%TD*%
%TA.AperFunction,SMDPad,CuDef*%
%ADD22RoundRect,0.225000X0.250000X-0.225000X0.250000X0.225000X-0.250000X0.225000X-0.250000X-0.225000X0*%
%TD*%
%TA.AperFunction,SMDPad,CuDef*%
%ADD23RoundRect,0.250000X0.450000X-0.262500X0.450000X0.262500X-0.450000X0.262500X-0.450000X-0.262500X0*%
%TD*%
%TA.AperFunction,SMDPad,CuDef*%
%ADD24RoundRect,0.225000X0.225000X0.250000X-0.225000X0.250000X-0.225000X-0.250000X0.225000X-0.250000X0*%
%TD*%
%TA.AperFunction,ComponentPad*%
%ADD25O,1.600000X2.400000*%
%TD*%
%TA.AperFunction,ComponentPad*%
%ADD26C,1.400000*%
%TD*%
%TA.AperFunction,ComponentPad*%
%ADD27RoundRect,0.250000X-0.550000X0.950000X-0.550000X-0.950000X0.550000X-0.950000X0.550000X0.950000X0*%
%TD*%
%TA.AperFunction,SMDPad,CuDef*%
%ADD28RoundRect,0.150000X0.150000X-0.512500X0.150000X0.512500X-0.150000X0.512500X-0.150000X-0.512500X0*%
%TD*%
%TA.AperFunction,SMDPad,CuDef*%
%ADD29RoundRect,0.243750X0.456250X-0.243750X0.456250X0.243750X-0.456250X0.243750X-0.456250X-0.243750X0*%
%TD*%
%TA.AperFunction,ComponentPad*%
%ADD30C,1.700000*%
%TD*%
%TA.AperFunction,SMDPad,CuDef*%
%ADD31RoundRect,0.100000X0.100000X-0.562500X0.100000X0.562500X-0.100000X0.562500X-0.100000X-0.562500X0*%
%TD*%
%TA.AperFunction,SMDPad,CuDef*%
%ADD32RoundRect,0.250000X0.262500X0.450000X-0.262500X0.450000X-0.262500X-0.450000X0.262500X-0.450000X0*%
%TD*%
%TA.AperFunction,SMDPad,CuDef*%
%ADD33RoundRect,0.225000X-0.225000X-0.250000X0.225000X-0.250000X0.225000X0.250000X-0.225000X0.250000X0*%
%TD*%
%TA.AperFunction,SMDPad,CuDef*%
%ADD34RoundRect,0.150000X-2.390000X-0.150000X2.390000X-0.150000X2.390000X0.150000X-2.390000X0.150000X0*%
%TD*%
%TA.AperFunction,SMDPad,CuDef*%
%ADD35RoundRect,0.150000X-0.925000X-0.150000X0.925000X-0.150000X0.925000X0.150000X-0.925000X0.150000X0*%
%TD*%
%TA.AperFunction,ComponentPad*%
%ADD36C,1.350000*%
%TD*%
%TA.AperFunction,ComponentPad*%
%ADD37R,1.350000X1.350000*%
%TD*%
%TA.AperFunction,ComponentPad*%
%ADD38C,1.600000*%
%TD*%
%TA.AperFunction,ComponentPad*%
%ADD39RoundRect,0.250000X-0.550000X-0.550000X0.550000X-0.550000X0.550000X0.550000X-0.550000X0.550000X0*%
%TD*%
%TA.AperFunction,SMDPad,CuDef*%
%ADD40R,2.000000X1.800000*%
%TD*%
%TA.AperFunction,SMDPad,CuDef*%
%ADD41R,0.300000X1.300000*%
%TD*%
%TA.AperFunction,SMDPad,CuDef*%
%ADD42RoundRect,0.243750X-0.456250X0.243750X-0.456250X-0.243750X0.456250X-0.243750X0.456250X0.243750X0*%
%TD*%
%TA.AperFunction,SMDPad,CuDef*%
%ADD43RoundRect,0.150000X-0.150000X0.512500X-0.150000X-0.512500X0.150000X-0.512500X0.150000X0.512500X0*%
%TD*%
%TA.AperFunction,SMDPad,CuDef*%
%ADD44R,1.600000X1.000000*%
%TD*%
%TA.AperFunction,SMDPad,CuDef*%
%ADD45RoundRect,0.150000X0.150000X-0.837500X0.150000X0.837500X-0.150000X0.837500X-0.150000X-0.837500X0*%
%TD*%
%TA.AperFunction,SMDPad,CuDef*%
%ADD46RoundRect,0.150000X-0.150000X0.825000X-0.150000X-0.825000X0.150000X-0.825000X0.150000X0.825000X0*%
%TD*%
%TA.AperFunction,ComponentPad*%
%ADD47O,2.400000X1.600000*%
%TD*%
%TA.AperFunction,ComponentPad*%
%ADD48RoundRect,0.250000X-0.950000X-0.550000X0.950000X-0.550000X0.950000X0.550000X-0.950000X0.550000X0*%
%TD*%
%TA.AperFunction,SMDPad,CuDef*%
%ADD49RoundRect,0.250001X-0.872499X-1.044999X0.872499X-1.044999X0.872499X1.044999X-0.872499X1.044999X0*%
%TD*%
%TA.AperFunction,SMDPad,CuDef*%
%ADD50RoundRect,0.150000X0.150000X-0.825000X0.150000X0.825000X-0.150000X0.825000X-0.150000X-0.825000X0*%
%TD*%
%TA.AperFunction,SMDPad,CuDef*%
%ADD51RoundRect,0.250000X-0.450000X0.350000X-0.450000X-0.350000X0.450000X-0.350000X0.450000X0.350000X0*%
%TD*%
%TA.AperFunction,SMDPad,CuDef*%
%ADD52RoundRect,0.125000X0.487500X0.125000X-0.487500X0.125000X-0.487500X-0.125000X0.487500X-0.125000X0*%
%TD*%
%TA.AperFunction,ComponentPad*%
%ADD53C,1.000000*%
%TD*%
%TA.AperFunction,SMDPad,CuDef*%
%ADD54RoundRect,0.250000X-1.000000X-0.650000X1.000000X-0.650000X1.000000X0.650000X-1.000000X0.650000X0*%
%TD*%
%TA.AperFunction,ComponentPad*%
%ADD55C,1.422400*%
%TD*%
%TA.AperFunction,ComponentPad*%
%ADD56R,1.422400X1.422400*%
%TD*%
%TA.AperFunction,ComponentPad*%
%ADD57RoundRect,0.250000X0.550000X-0.550000X0.550000X0.550000X-0.550000X0.550000X-0.550000X-0.550000X0*%
%TD*%
%TA.AperFunction,SMDPad,CuDef*%
%ADD58RoundRect,0.250000X-0.250000X-0.250000X0.250000X-0.250000X0.250000X0.250000X-0.250000X0.250000X0*%
%TD*%
%TA.AperFunction,SMDPad,CuDef*%
%ADD59R,1.100000X2.400000*%
%TD*%
%TA.AperFunction,SMDPad,CuDef*%
%ADD60R,0.620000X1.400000*%
%TD*%
%TA.AperFunction,ComponentPad*%
%ADD61R,1.600000X1.600000*%
%TD*%
%TA.AperFunction,SMDPad,CuDef*%
%ADD62FreePoly0,0.000000*%
%TD*%
%TA.AperFunction,SMDPad,CuDef*%
%ADD63FreePoly1,0.000000*%
%TD*%
%TA.AperFunction,SMDPad,CuDef*%
%ADD64RoundRect,0.250000X-0.350000X-0.450000X0.350000X-0.450000X0.350000X0.450000X-0.350000X0.450000X0*%
%TD*%
%TA.AperFunction,SMDPad,CuDef*%
%ADD65RoundRect,0.125000X-0.125000X0.487500X-0.125000X-0.487500X0.125000X-0.487500X0.125000X0.487500X0*%
%TD*%
%TA.AperFunction,SMDPad,CuDef*%
%ADD66RoundRect,0.250000X0.350000X0.450000X-0.350000X0.450000X-0.350000X-0.450000X0.350000X-0.450000X0*%
%TD*%
%TA.AperFunction,SMDPad,CuDef*%
%ADD67R,3.500000X1.700000*%
%TD*%
%TA.AperFunction,ComponentPad*%
%ADD68O,1.700000X1.700000*%
%TD*%
%TA.AperFunction,SMDPad,CuDef*%
%ADD69R,1.700000X3.500000*%
%TD*%
%TA.AperFunction,SMDPad,CuDef*%
%ADD70R,0.600000X1.500000*%
%TD*%
%TA.AperFunction,ViaPad*%
%ADD71C,0.750000*%
%TD*%
%TA.AperFunction,ViaPad*%
%ADD72C,0.600000*%
%TD*%
%TA.AperFunction,Conductor*%
%ADD73C,0.300000*%
%TD*%
%TA.AperFunction,Conductor*%
%ADD74C,0.180000*%
%TD*%
%TA.AperFunction,Conductor*%
%ADD75C,0.165100*%
%TD*%
%TA.AperFunction,Conductor*%
%ADD76C,0.600000*%
%TD*%
%TA.AperFunction,Conductor*%
%ADD77C,0.800000*%
%TD*%
G04 APERTURE END LIST*
D10*
%TO.N,+3.3V*%
X163180920Y-117246400D02*
X163333320Y-117094000D01*
X163333320Y-117094000D02*
X163333320Y-114554000D01*
D11*
%TD*%
%TO.C,SPARE1*%
X105726120Y-125374400D02*
X104202120Y-123698000D01*
%TO.C,SPARE1*%
X105726120Y-118973600D02*
X104202120Y-120700800D01*
X103236919Y-123647200D02*
X103186120Y-125374400D01*
X103186120Y-118973600D02*
X102271719Y-120700800D01*
X102297119Y-123748800D02*
X100646120Y-125425200D01*
X100646120Y-119024401D02*
X99020520Y-120599200D01*
X98106120Y-125323600D02*
X98925807Y-123735678D01*
X98106120Y-118973601D02*
X98040120Y-120650000D01*
X95566120Y-125425200D02*
X97011819Y-123979500D01*
X95566120Y-118973600D02*
X97090120Y-120700800D01*
X93026120Y-125323600D02*
X91298920Y-123596400D01*
X93026120Y-118973600D02*
X91349720Y-120650000D01*
X90486120Y-125374400D02*
X90486120Y-123306000D01*
X90486120Y-118973600D02*
X90486120Y-120700800D01*
X87946120Y-125374400D02*
X89352020Y-123968500D01*
X87946120Y-118973601D02*
X89520920Y-120548400D01*
%TD*%
D12*
%TO.P,J14,SH4,SHIELD*%
%TO.N,Net-(J14-SHIELD-PadSH1)*%
X168970120Y-48789000D03*
%TO.P,J14,SH3,SHIELD*%
X177610120Y-48789000D03*
D13*
%TO.P,J14,SH2,SHIELD*%
X168970120Y-44609000D03*
%TO.P,J14,SH1,SHIELD*%
X177610120Y-44609000D03*
D14*
%TO.P,J14,B8,SBU2*%
%TO.N,unconnected-(J14-SBU2-PadB8)*%
X175040120Y-49364000D03*
%TO.P,J14,B7,D-*%
%TO.N,unconnected-(J14-D--PadB7)*%
X174040120Y-49364000D03*
%TO.P,J14,B6,D+*%
%TO.N,unconnected-(J14-D+-PadB6)*%
X172540120Y-49364000D03*
%TO.P,J14,B5,CC2*%
%TO.N,unconnected-(J14-CC2-PadB5)*%
X171540120Y-49364000D03*
D15*
%TO.P,J14,B4_A9,VBUS*%
%TO.N,/VBUSP*%
X170890120Y-49364000D03*
%TO.P,J14,B1_A12,GND*%
%TO.N,GND*%
X170090120Y-49364000D03*
D14*
%TO.P,J14,A8,SBU1*%
%TO.N,unconnected-(J14-SBU1-PadA8)*%
X172040120Y-49363999D03*
%TO.P,J14,A7,D-*%
%TO.N,unconnected-(J14-D--PadA7)*%
X173040120Y-49364000D03*
%TO.P,J14,A6,D+*%
%TO.N,unconnected-(J14-D+-PadA6)*%
X173540120Y-49364000D03*
%TO.P,J14,A5,CC1*%
%TO.N,unconnected-(J14-CC1-PadA5)*%
X174540119Y-49364000D03*
D15*
%TO.P,J14,A4_B9,VBUS*%
%TO.N,/VBUSP*%
X175690120Y-49364000D03*
%TO.P,J14,A1_B12,GND*%
%TO.N,GND*%
X176490120Y-49364000D03*
%TD*%
D16*
%TO.P,R34,2*%
%TO.N,Net-(R34-Pad2)*%
X79144500Y-53848000D03*
%TO.P,R34,1*%
%TO.N,Net-(R32-Pad2)*%
X77319500Y-53848000D03*
%TD*%
D17*
%TO.P,TP14,1,1*%
%TO.N,Net-(R32-Pad2)*%
X67564000Y-44704000D03*
%TD*%
D16*
%TO.P,R24,2*%
%TO.N,/MWTRQ-*%
X147659620Y-72009000D03*
%TO.P,R24,1*%
%TO.N,+3.3V*%
X145834620Y-72009000D03*
%TD*%
D18*
%TO.P,C32,2*%
%TO.N,+3.3V*%
X168616520Y-65849800D03*
%TO.P,C32,1*%
%TO.N,GND*%
X168616520Y-64299800D03*
%TD*%
D19*
%TO.P,U13,20,VCC*%
%TO.N,+5V*%
X132459620Y-63694000D03*
%TO.P,U13,19,~{OE}*%
%TO.N,/TDBUSEN-*%
X133094620Y-63694000D03*
%TO.P,U13,18,B0*%
%TO.N,/TD0*%
X133729620Y-63693999D03*
%TO.P,U13,17,B1*%
%TO.N,/TD1*%
X134364620Y-63694000D03*
%TO.P,U13,16,B2*%
%TO.N,/TD2*%
X134999620Y-63694000D03*
%TO.P,U13,15,B3*%
%TO.N,/TD3*%
X135634620Y-63694000D03*
%TO.P,U13,14,B4*%
%TO.N,/TD4*%
X136269620Y-63694000D03*
%TO.P,U13,13,B5*%
%TO.N,/TD5*%
X136904620Y-63693999D03*
%TO.P,U13,12,B6*%
%TO.N,/TD6*%
X137539620Y-63694000D03*
%TO.P,U13,11,B7*%
%TO.N,/TD7*%
X138174620Y-63694000D03*
%TO.P,U13,10,GND*%
%TO.N,GND*%
X138174620Y-68894000D03*
%TO.P,U13,9,A7*%
%TO.N,/ZD7*%
X137539620Y-68894000D03*
%TO.P,U13,8,A6*%
%TO.N,/ZD6*%
X136904620Y-68894001D03*
%TO.P,U13,7,A5*%
%TO.N,/ZD5*%
X136269620Y-68894000D03*
%TO.P,U13,6,A4*%
%TO.N,/ZD4*%
X135634620Y-68894000D03*
%TO.P,U13,5,A3*%
%TO.N,/ZD3*%
X134999620Y-68894000D03*
%TO.P,U13,4,A2*%
%TO.N,/ZD2*%
X134364620Y-68894000D03*
%TO.P,U13,3,A1*%
%TO.N,/ZD1*%
X133729620Y-68894001D03*
%TO.P,U13,2,A0*%
%TO.N,/ZD0*%
X133094620Y-68894000D03*
%TO.P,U13,1,A>B*%
%TO.N,/TDBUSIN-*%
X132459620Y-68894000D03*
%TD*%
D20*
%TO.P,J3,6,Pin_6*%
%TO.N,/JTDI_CO*%
X140016120Y-94140000D03*
%TO.P,J3,5,Pin_5*%
%TO.N,/JTMS*%
X140016120Y-96140000D03*
%TO.P,J3,4,Pin_4*%
%TO.N,+5V*%
X140016120Y-98140000D03*
%TO.P,J3,3,Pin_3*%
%TO.N,/JTDO_CI*%
X140016120Y-100140000D03*
%TO.P,J3,2,Pin_2*%
%TO.N,GND*%
X140016120Y-102139999D03*
D21*
%TO.P,J3,1,Pin_1*%
%TO.N,/JTCK*%
X140016120Y-104140000D03*
%TD*%
D22*
%TO.P,C25,2*%
%TO.N,+5V*%
X105247684Y-87081234D03*
%TO.P,C25,1*%
%TO.N,GND*%
X105247684Y-88631234D03*
%TD*%
D23*
%TO.P,R38,2*%
%TO.N,/SBC_I0*%
X98487120Y-54586500D03*
%TO.P,R38,1*%
%TO.N,+5V*%
X98487120Y-56411500D03*
%TD*%
D24*
%TO.P,C21,2*%
%TO.N,+5V*%
X166505248Y-102624995D03*
%TO.P,C21,1*%
%TO.N,GND*%
X168055248Y-102624995D03*
%TD*%
%TO.P,C24,2*%
%TO.N,+5V*%
X73034634Y-76632048D03*
%TO.P,C24,1*%
%TO.N,GND*%
X74584634Y-76632048D03*
%TD*%
D23*
%TO.P,R37,2*%
%TO.N,/SBC_I2*%
X103567120Y-54586500D03*
%TO.P,R37,1*%
%TO.N,+5V*%
X103567120Y-56411500D03*
%TD*%
%TO.P,R12,2*%
%TO.N,+3.3V*%
X142302120Y-134620000D03*
%TO.P,R12,1*%
%TO.N,Net-(LED8-A)*%
X142302120Y-136445000D03*
%TD*%
D18*
%TO.P,C13,2*%
%TO.N,GND*%
X160590120Y-118885000D03*
%TO.P,C13,1*%
%TO.N,+3.3V*%
X160590120Y-117335000D03*
%TD*%
D25*
%TO.P,U11,14,PWRr*%
%TO.N,+5V*%
X96836120Y-71628000D03*
D26*
%TO.P,U11,13,NC13*%
%TO.N,unconnected-(U11-NC13-Pad13)*%
X94296120Y-71628000D03*
%TO.P,U11,12,NC12*%
%TO.N,unconnected-(U11-NC12-Pad12)*%
X91756120Y-71628000D03*
D25*
%TO.P,U11,11,PWRs*%
%TO.N,+5V*%
X89216120Y-71628000D03*
D26*
%TO.P,U11,10,NC10*%
%TO.N,unconnected-(U11-NC10-Pad10)*%
X86676120Y-71628000D03*
%TO.P,U11,9,NC9*%
%TO.N,unconnected-(U11-NC9-Pad9)*%
X84136120Y-71628000D03*
D25*
%TO.P,U11,8,O*%
%TO.N,/_CLK*%
X81596120Y-71628000D03*
%TO.P,U11,7,G*%
%TO.N,GND*%
X81596120Y-64008000D03*
D26*
%TO.P,U11,6,NC6*%
%TO.N,unconnected-(U11-NC6-Pad6)*%
X84136120Y-64008000D03*
%TO.P,U11,5,NC5*%
%TO.N,unconnected-(U11-NC5-Pad5)*%
X86676120Y-64008000D03*
D25*
%TO.P,U11,4,ENs*%
%TO.N,+5V*%
X89216120Y-64008000D03*
D26*
%TO.P,U11,3,NC3*%
%TO.N,unconnected-(U11-NC3-Pad3)*%
X91756121Y-64008000D03*
%TO.P,U11,2,NC2*%
%TO.N,unconnected-(U11-NC2-Pad2)*%
X94296120Y-64008000D03*
D27*
%TO.P,U11,1,ENr*%
%TO.N,+5V*%
X96836120Y-64008000D03*
%TD*%
D28*
%TO.P,U23,6*%
%TO.N,/MRD-*%
X167336320Y-81305400D03*
%TO.P,U23,5,VCC*%
%TO.N,+3.3V*%
X168286320Y-81305400D03*
%TO.P,U23,4*%
%TO.N,/MA0*%
X169236320Y-81305400D03*
%TO.P,U23,3*%
%TO.N,/ZA0*%
X169236320Y-83580400D03*
%TO.P,U23,2,GND*%
%TO.N,GND*%
X168286320Y-83580400D03*
%TO.P,U23,1*%
%TO.N,/ZRD-*%
X167336320Y-83580400D03*
%TD*%
D29*
%TO.P,LED8,2,A*%
%TO.N,Net-(LED8-A)*%
X142302120Y-141048499D03*
%TO.P,LED8,1,K*%
%TO.N,Net-(LED8-K)*%
X142302120Y-142923501D03*
%TD*%
D30*
%TO.P,J2,4,Pin_4*%
%TO.N,/SDA_TX*%
X175514000Y-118491000D03*
%TO.P,J2,3,Pin_3*%
%TO.N,/SCK_RX*%
X175514000Y-121031001D03*
%TO.P,J2,2,Pin_2*%
%TO.N,GND*%
X175514000Y-123571000D03*
D17*
%TO.P,J2,1,Pin_1*%
%TO.N,+3.3V*%
X175514000Y-126111000D03*
%TD*%
D22*
%TO.P,C8,2*%
%TO.N,+5V*%
X132422451Y-122494385D03*
%TO.P,C8,1*%
%TO.N,GND*%
X132422451Y-124044385D03*
%TD*%
D24*
%TO.P,C12,2*%
%TO.N,+3.3V*%
X156272120Y-129286000D03*
%TO.P,C12,1*%
%TO.N,GND*%
X157822120Y-129286000D03*
%TD*%
D31*
%TO.P,U19,6*%
%TO.N,/MODINT-*%
X160067120Y-74296500D03*
%TO.P,U19,5,VCC*%
%TO.N,+3.3V*%
X160717120Y-74296500D03*
%TO.P,U19,4*%
%TO.N,/SPICS2-*%
X161367120Y-74296500D03*
%TO.P,U19,3*%
%TO.N,Net-(U2-Q2)*%
X161367120Y-76071500D03*
%TO.P,U19,2,GND*%
%TO.N,GND*%
X160717120Y-76071500D03*
%TO.P,U19,1*%
%TO.N,Net-(U2-Q1)*%
X160067120Y-76071500D03*
%TD*%
D32*
%TO.P,R25,2*%
%TO.N,+3.3V*%
X172989120Y-76454000D03*
%TO.P,R25,1*%
%TO.N,/SPICK*%
X174814120Y-76454000D03*
%TD*%
D28*
%TO.P,U20,6*%
%TO.N,/MSEL-*%
X162957322Y-81361900D03*
%TO.P,U20,5,VCC*%
%TO.N,+3.3V*%
X163907321Y-81361900D03*
%TO.P,U20,4*%
%TO.N,/MRST-*%
X164857320Y-81361900D03*
%TO.P,U20,3*%
%TO.N,/LRST-*%
X164857320Y-83636900D03*
%TO.P,U20,2,GND*%
%TO.N,GND*%
X163907321Y-83636900D03*
%TO.P,U20,1*%
%TO.N,/MOD_SEL-*%
X162957322Y-83636900D03*
%TD*%
D32*
%TO.P,R26,2*%
%TO.N,+3.3V*%
X180937420Y-65379600D03*
%TO.P,R26,1*%
%TO.N,/SPICS2-*%
X182762420Y-65379600D03*
%TD*%
D33*
%TO.P,C18,2*%
%TO.N,+5V*%
X179428707Y-93103445D03*
%TO.P,C18,1*%
%TO.N,GND*%
X177878707Y-93103445D03*
%TD*%
D22*
%TO.P,C16,2*%
%TO.N,+5V*%
X137005856Y-99143000D03*
%TO.P,C16,1*%
%TO.N,GND*%
X137005856Y-100693000D03*
%TD*%
D34*
%TO.P,U6,32,VCC*%
%TO.N,+5V*%
X102043120Y-96393000D03*
%TO.P,U6,31,A15*%
%TO.N,/RRA1*%
X102043120Y-97663000D03*
%TO.P,U6,30,CS2/CE2*%
%TO.N,+5V*%
X102043120Y-98933000D03*
%TO.P,U6,29,~{WE}*%
%TO.N,/ZWR-*%
X102043120Y-100203000D03*
%TO.P,U6,28,A13*%
%TO.N,/ZA13*%
X102043120Y-101473000D03*
%TO.P,U6,27,A8*%
%TO.N,/ZA8*%
X102043120Y-102743000D03*
%TO.P,U6,26,A9*%
%TO.N,/ZA9*%
X102043120Y-104013000D03*
%TO.P,U6,25,A11*%
%TO.N,/ZA11*%
X102043120Y-105283000D03*
%TO.P,U6,24,~{OE}*%
%TO.N,/ZRD-*%
X102043120Y-106553000D03*
%TO.P,U6,23,A10*%
%TO.N,/ZA10*%
X102043120Y-107823000D03*
%TO.P,U6,22,~{CS1}/~{CE1}*%
%TO.N,/RAM_SEL-*%
X102043120Y-109093000D03*
%TO.P,U6,21,D7*%
%TO.N,/ZD7*%
X102043120Y-110363000D03*
%TO.P,U6,20,D6*%
%TO.N,/ZD6*%
X102043120Y-111633000D03*
%TO.P,U6,19,D5*%
%TO.N,/ZD5*%
X102043120Y-112903000D03*
%TO.P,U6,18,D4*%
%TO.N,/ZD4*%
X102043120Y-114173000D03*
%TO.P,U6,17,D3*%
%TO.N,/ZD3*%
X102043120Y-115443000D03*
D35*
%TO.P,U6,16,GND*%
%TO.N,GND*%
X93537120Y-115443000D03*
%TO.P,U6,15,D2*%
%TO.N,/ZD2*%
X93537120Y-114173000D03*
%TO.P,U6,14,D1*%
%TO.N,/ZD1*%
X93537120Y-112903000D03*
%TO.P,U6,13,D0*%
%TO.N,/ZD0*%
X93537120Y-111633000D03*
%TO.P,U6,12,A0*%
%TO.N,/ZA0*%
X93537120Y-110363000D03*
%TO.P,U6,11,A1*%
%TO.N,/ZA1*%
X93537120Y-109093000D03*
%TO.P,U6,10,A2*%
%TO.N,/ZA2*%
X93537120Y-107823000D03*
%TO.P,U6,9,A3*%
%TO.N,/ZA3*%
X93537120Y-106553000D03*
%TO.P,U6,8,A4*%
%TO.N,/ZA4*%
X93537120Y-105283000D03*
%TO.P,U6,7,A5*%
%TO.N,/ZA5*%
X93537120Y-104013000D03*
%TO.P,U6,6,A6*%
%TO.N,/ZA6*%
X93537120Y-102743000D03*
%TO.P,U6,5,A7*%
%TO.N,/ZA7*%
X93537120Y-101473000D03*
%TO.P,U6,4,A12*%
%TO.N,/ZA12*%
X93537120Y-100203000D03*
%TO.P,U6,3,A14*%
%TO.N,/RRA0*%
X93537120Y-98933000D03*
%TO.P,U6,2,A16*%
%TO.N,/RRA2*%
X93537120Y-97663000D03*
%TO.P,U6,1,NC*%
%TO.N,unconnected-(U6-NC-Pad1)*%
X93537120Y-96393000D03*
%TD*%
D36*
%TO.P,JP4,2,B*%
%TO.N,/TINT-*%
X108950001Y-55118000D03*
D37*
%TO.P,JP4,1,A*%
%TO.N,/MODINT-*%
X106950000Y-55118000D03*
%TD*%
D32*
%TO.P,R32,2*%
%TO.N,Net-(R32-Pad2)*%
X77319500Y-56388000D03*
%TO.P,R32,1*%
%TO.N,+5V*%
X79144500Y-56388000D03*
%TD*%
D22*
%TO.P,C11,2*%
%TO.N,+5V*%
X133670423Y-130391232D03*
%TO.P,C11,1*%
%TO.N,GND*%
X133670423Y-131941232D03*
%TD*%
D23*
%TO.P,R5,2*%
%TO.N,GND*%
X71182120Y-134723500D03*
%TO.P,R5,1*%
%TO.N,Net-(LED4-K)*%
X71182120Y-136548500D03*
%TD*%
D32*
%TO.P,R33,2*%
%TO.N,/TGTONLY-*%
X77356220Y-60934600D03*
%TO.P,R33,1*%
%TO.N,+5V*%
X79181220Y-60934600D03*
%TD*%
D38*
%TO.P,SW2,4*%
%TO.N,/TGTONLY-*%
X68704120Y-56146500D03*
%TO.P,SW2,3*%
%TO.N,/SBC_GPI3*%
X68704120Y-58686500D03*
%TO.P,SW2,2*%
%TO.N,GND*%
X61084120Y-58686500D03*
D39*
%TO.P,SW2,1*%
X61084120Y-56146500D03*
%TD*%
D32*
%TO.P,R20,2*%
%TO.N,/JTMS*%
X145961620Y-96743000D03*
%TO.P,R20,1*%
%TO.N,+5V*%
X147786620Y-96743000D03*
%TD*%
%TO.P,R36,2*%
%TO.N,/TINT-*%
X108949882Y-52324000D03*
%TO.P,R36,1*%
%TO.N,+5V*%
X110774882Y-52324000D03*
%TD*%
D36*
%TO.P,SBC2,3,B*%
%TO.N,/_CLK*%
X65214000Y-66294000D03*
%TO.P,SBC2,2,C*%
%TO.N,/CLK*%
X63214001Y-66294000D03*
D37*
%TO.P,SBC2,1,A*%
%TO.N,/TCLK*%
X61214000Y-66294000D03*
%TD*%
D19*
%TO.P,U9,20,VCC*%
%TO.N,+5V*%
X108329620Y-63694000D03*
%TO.P,U9,19,~{OE}*%
%TO.N,/ZRST*%
X108964620Y-63694000D03*
%TO.P,U9,18,B0*%
%TO.N,/TA10*%
X109599620Y-63693999D03*
%TO.P,U9,17,B1*%
%TO.N,/TA9*%
X110234620Y-63694000D03*
%TO.P,U9,16,B2*%
%TO.N,/TA8*%
X110869620Y-63694000D03*
%TO.P,U9,15,B3*%
%TO.N,/TA7*%
X111504620Y-63694000D03*
%TO.P,U9,14,B4*%
%TO.N,/TA6*%
X112139620Y-63694000D03*
%TO.P,U9,13,B5*%
%TO.N,/TA5*%
X112774620Y-63693999D03*
%TO.P,U9,12,B6*%
%TO.N,/TA4*%
X113409620Y-63694000D03*
%TO.P,U9,11,B7*%
%TO.N,/TA3*%
X114044620Y-63694000D03*
%TO.P,U9,10,GND*%
%TO.N,GND*%
X114044620Y-68894000D03*
%TO.P,U9,9,A7*%
%TO.N,/ZA3*%
X113409620Y-68894000D03*
%TO.P,U9,8,A6*%
%TO.N,/ZA4*%
X112774620Y-68894001D03*
%TO.P,U9,7,A5*%
%TO.N,/ZA5*%
X112139620Y-68894000D03*
%TO.P,U9,6,A4*%
%TO.N,/ZA6*%
X111504620Y-68894000D03*
%TO.P,U9,5,A3*%
%TO.N,/ZA7*%
X110869620Y-68894000D03*
%TO.P,U9,4,A2*%
%TO.N,/ZA8*%
X110234620Y-68894000D03*
%TO.P,U9,3,A1*%
%TO.N,/ZA9*%
X109599620Y-68894001D03*
%TO.P,U9,2,A0*%
%TO.N,/ZA10*%
X108964620Y-68894000D03*
%TO.P,U9,1,A>B*%
%TO.N,/ZBACK-*%
X108329620Y-68894000D03*
%TD*%
D32*
%TO.P,R14,2*%
%TO.N,+3.3V*%
X165519620Y-125984000D03*
%TO.P,R14,1*%
%TO.N,/SPICS-*%
X167344620Y-125984000D03*
%TD*%
D36*
%TO.P,OP1,3,B*%
%TO.N,/RFMR-*%
X104202120Y-77184000D03*
%TO.P,OP1,2,C*%
%TO.N,Net-(OP1-C)*%
X104202120Y-75184000D03*
D37*
%TO.P,OP1,1,A*%
%TO.N,unconnected-(OP1-A-Pad1)*%
X104202120Y-73184000D03*
%TD*%
D40*
%TO.P,J10,MP*%
%TO.N,N/C*%
X110682520Y-46799200D03*
X133789720Y-46799200D03*
D41*
%TO.P,J10,40,Pin_40*%
%TO.N,/TA10*%
X112486119Y-49530000D03*
%TO.P,J10,39,Pin_39*%
%TO.N,/TA9*%
X112986120Y-49530000D03*
%TO.P,J10,38,Pin_38*%
%TO.N,/TA8*%
X113486120Y-49530000D03*
%TO.P,J10,37,Pin_37*%
%TO.N,/TA7*%
X113986121Y-49530000D03*
%TO.P,J10,36,Pin_36*%
%TO.N,/TA6*%
X114486120Y-49530000D03*
%TO.P,J10,35,Pin_35*%
%TO.N,/TA5*%
X114986120Y-49530000D03*
%TO.P,J10,34,Pin_34*%
%TO.N,/TA4*%
X115486120Y-49530000D03*
%TO.P,J10,33,Pin_33*%
%TO.N,/TA3*%
X115986120Y-49530000D03*
%TO.P,J10,32,Pin_32*%
%TO.N,/TA2*%
X116486120Y-49530001D03*
%TO.P,J10,31,Pin_31*%
%TO.N,/TA1*%
X116986120Y-49530000D03*
%TO.P,J10,30,Pin_30*%
%TO.N,/TA0*%
X117486120Y-49530000D03*
%TO.P,J10,29,Pin_29*%
%TO.N,/TA15*%
X117986120Y-49530000D03*
%TO.P,J10,28,Pin_28*%
%TO.N,/ZRFSH-*%
X118486120Y-49530000D03*
%TO.P,J10,27,Pin_27*%
%TO.N,/TM1-*%
X118986120Y-49530001D03*
%TO.P,J10,26,Pin_26*%
%TO.N,/TRST-*%
X119486120Y-49530000D03*
%TO.P,J10,25,Pin_25*%
%TO.N,/TBREQ-*%
X119986120Y-49530000D03*
%TO.P,J10,24,Pin_24*%
%TO.N,/TWAIT-*%
X120486121Y-49530000D03*
%TO.P,J10,23,Pin_23*%
%TO.N,/ZBACK-*%
X120986120Y-49530000D03*
%TO.P,J10,22,Pin_22*%
%TO.N,/TWR-*%
X121486119Y-49530000D03*
%TO.P,J10,21,Pin_21*%
%TO.N,/TRD-*%
X121986120Y-49530000D03*
%TO.P,J10,20,Pin_20*%
%TO.N,/TIORQ-*%
X122486120Y-49530000D03*
%TO.P,J10,19,Pin_19*%
%TO.N,/TMREQ-*%
X122986121Y-49530000D03*
%TO.P,J10,18,Pin_18*%
%TO.N,/ZHALT-*%
X123486120Y-49530000D03*
%TO.P,J10,17,Pin_17*%
%TO.N,/TNMI-*%
X123986119Y-49530000D03*
%TO.P,J10,16,Pin_16*%
%TO.N,/TINT-*%
X124486120Y-49530000D03*
%TO.P,J10,15,Pin_15*%
%TO.N,/TD1*%
X124986120Y-49530000D03*
%TO.P,J10,14,Pin_14*%
%TO.N,/TD0*%
X125486120Y-49530001D03*
%TO.P,J10,13,Pin_13*%
%TO.N,/TD7*%
X125986120Y-49530000D03*
%TO.P,J10,12,Pin_12*%
%TO.N,/TD2*%
X126486120Y-49530000D03*
%TO.P,J10,11,Pin_11*%
%TO.N,/TD4*%
X126986120Y-49530000D03*
%TO.P,J10,10,Pin_10*%
%TO.N,/TD6*%
X127486120Y-49530000D03*
%TO.P,J10,9,Pin_9*%
%TO.N,/TD5*%
X127986120Y-49530001D03*
%TO.P,J10,8,Pin_8*%
%TO.N,/TD3*%
X128486120Y-49530000D03*
%TO.P,J10,7,Pin_7*%
%TO.N,GND*%
X128986120Y-49530000D03*
%TO.P,J10,6,Pin_6*%
%TO.N,/CLK*%
X129486120Y-49530000D03*
%TO.P,J10,5,Pin_5*%
%TO.N,GND*%
X129986120Y-49530000D03*
%TO.P,J10,4,Pin_4*%
%TO.N,/TA14*%
X130486119Y-49530000D03*
%TO.P,J10,3,Pin_3*%
%TO.N,/TA13*%
X130986120Y-49530000D03*
%TO.P,J10,2,Pin_2*%
%TO.N,/TA12*%
X131486120Y-49530000D03*
%TO.P,J10,1,Pin_1*%
%TO.N,/TA11*%
X131986121Y-49530000D03*
%TD*%
D30*
%TO.P,J6,3,Pin_3*%
%TO.N,/SPIMI*%
X168718120Y-76454000D03*
%TO.P,J6,2,Pin_2*%
%TO.N,/SPICS-*%
X168718120Y-73914000D03*
D17*
%TO.P,J6,1,Pin_1*%
%TO.N,GND*%
X168718120Y-71374000D03*
%TD*%
D42*
%TO.P,LED3,2,A*%
%TO.N,+5V*%
X68007120Y-142923501D03*
%TO.P,LED3,1,K*%
%TO.N,Net-(LED3-K)*%
X68007120Y-141048499D03*
%TD*%
D23*
%TO.P,R1,2*%
%TO.N,GND*%
X68007120Y-134723500D03*
%TO.P,R1,1*%
%TO.N,Net-(LED3-K)*%
X68007120Y-136548500D03*
%TD*%
D42*
%TO.P,LED7,2,A*%
%TO.N,Net-(LED7-A)*%
X145477120Y-142923501D03*
%TO.P,LED7,1,K*%
%TO.N,Net-(LED7-K)*%
X145477120Y-141048499D03*
%TD*%
D24*
%TO.P,C6,2*%
%TO.N,+5V*%
X110538479Y-136834401D03*
%TO.P,C6,1*%
%TO.N,GND*%
X112088479Y-136834401D03*
%TD*%
D18*
%TO.P,C26,2*%
%TO.N,+5V*%
X90357109Y-85950852D03*
%TO.P,C26,1*%
%TO.N,GND*%
X90357109Y-84400852D03*
%TD*%
D43*
%TO.P,U3,5,VDD*%
%TO.N,+5V*%
X182114119Y-121660500D03*
%TO.P,U3,4,~{MR}*%
%TO.N,Net-(J1-Pin_2)*%
X180214121Y-121660500D03*
%TO.P,U3,3,RST*%
%TO.N,unconnected-(U3-RST-Pad3)*%
X180214121Y-119385500D03*
%TO.P,U3,2,GND*%
%TO.N,GND*%
X181164120Y-119385500D03*
%TO.P,U3,1,~{RST}*%
%TO.N,/RST-*%
X182114119Y-119385500D03*
%TD*%
D44*
%TO.P,SW1,2,2*%
%TO.N,Net-(J1-Pin_2)*%
X178539120Y-132004000D03*
X183789120Y-132004000D03*
%TO.P,SW1,1,1*%
%TO.N,GND*%
X178539120Y-135204000D03*
X183789120Y-135204000D03*
%TD*%
D33*
%TO.P,C36,2*%
%TO.N,+5V*%
X119735363Y-60966771D03*
%TO.P,C36,1*%
%TO.N,GND*%
X118185363Y-60966771D03*
%TD*%
D23*
%TO.P,R7,2*%
%TO.N,GND*%
X155002120Y-134620000D03*
%TO.P,R7,1*%
%TO.N,Net-(LED10-K)*%
X155002120Y-136445000D03*
%TD*%
D36*
%TO.P,JP3,3,C*%
%TO.N,/TCLK*%
X76008121Y-69342000D03*
%TO.P,JP3,2,B*%
%TO.N,/_CLK*%
X74008122Y-69342000D03*
D37*
%TO.P,JP3,1,A*%
%TO.N,unconnected-(JP3-A-Pad1)*%
X72008121Y-69342000D03*
%TD*%
D36*
%TO.P,JP6,2,B*%
%TO.N,+5V*%
X172877121Y-52857400D03*
D37*
%TO.P,JP6,1,A*%
%TO.N,/VBUSP*%
X170877120Y-52857400D03*
%TD*%
D45*
%TO.P,U21,20,VCC*%
%TO.N,+3.3V*%
X147382120Y-79689000D03*
%TO.P,U21,19,~{OE}*%
%TO.N,/MSEL-*%
X148652120Y-79689000D03*
%TO.P,U21,18,B0*%
%TO.N,/V3D0*%
X149922120Y-79689000D03*
%TO.P,U21,17,B1*%
%TO.N,/V3D1*%
X151192120Y-79689000D03*
%TO.P,U21,16,B2*%
%TO.N,/V3D2*%
X152462120Y-79689000D03*
%TO.P,U21,15,B3*%
%TO.N,/V3D3*%
X153732120Y-79689000D03*
%TO.P,U21,14,B4*%
%TO.N,/V3D4*%
X155002120Y-79689000D03*
%TO.P,U21,13,B5*%
%TO.N,/V3D5*%
X156272120Y-79689000D03*
%TO.P,U21,12,B6*%
%TO.N,/V3D6*%
X157542120Y-79689000D03*
%TO.P,U21,11,B7*%
%TO.N,/V3D7*%
X158812120Y-79689000D03*
%TO.P,U21,10,GND*%
%TO.N,GND*%
X158812120Y-86614000D03*
%TO.P,U21,9,A7*%
%TO.N,/ZD7*%
X157542120Y-86614000D03*
%TO.P,U21,8,A6*%
%TO.N,/ZD6*%
X156272120Y-86614000D03*
%TO.P,U21,7,A5*%
%TO.N,/ZD5*%
X155002120Y-86614000D03*
%TO.P,U21,6,A4*%
%TO.N,/ZD4*%
X153732120Y-86614000D03*
%TO.P,U21,5,A3*%
%TO.N,/ZD3*%
X152462120Y-86614000D03*
%TO.P,U21,4,A2*%
%TO.N,/ZD2*%
X151192120Y-86614000D03*
%TO.P,U21,3,A1*%
%TO.N,/ZD1*%
X149922120Y-86614000D03*
%TO.P,U21,2,A0*%
%TO.N,/ZD0*%
X148652120Y-86614000D03*
%TO.P,U21,1,A>B*%
%TO.N,/MRD-*%
X147382120Y-86614000D03*
%TD*%
D30*
%TO.P,J1,2,Pin_2*%
%TO.N,Net-(J1-Pin_2)*%
X182561120Y-125222000D03*
D17*
%TO.P,J1,1,Pin_1*%
%TO.N,GND*%
X182561120Y-127762000D03*
%TD*%
D22*
%TO.P,C27,2*%
%TO.N,+5V*%
X128906700Y-75984762D03*
%TO.P,C27,1*%
%TO.N,GND*%
X128906700Y-77534762D03*
%TD*%
D23*
%TO.P,R10,2*%
%TO.N,GND*%
X151827120Y-134620000D03*
%TO.P,R10,1*%
%TO.N,Net-(LED9-K)*%
X151827120Y-136445000D03*
%TD*%
D18*
%TO.P,C7,2*%
%TO.N,+5V*%
X120871948Y-125516422D03*
%TO.P,C7,1*%
%TO.N,GND*%
X120871948Y-123966422D03*
%TD*%
D37*
%TO.P,TP2,1,1*%
%TO.N,/_CLK*%
X68896120Y-76454000D03*
%TD*%
D23*
%TO.P,R39,2*%
%TO.N,/TNMI-*%
X124014120Y-52427500D03*
%TO.P,R39,1*%
%TO.N,+5V*%
X124014120Y-54252500D03*
%TD*%
D19*
%TO.P,U16,20,VCC*%
%TO.N,+5V*%
X132459620Y-74489000D03*
%TO.P,U16,19,~{OEb}*%
%TO.N,GND*%
X133094620Y-74489000D03*
%TO.P,U16,18,O0a*%
%TO.N,/ZMREQ-*%
X133729620Y-74489000D03*
%TO.P,U16,17,I3b*%
%TO.N,/TWAIT-*%
X134364620Y-74489000D03*
%TO.P,U16,16,O1a*%
%TO.N,/ZIORQ-*%
X134999620Y-74489000D03*
%TO.P,U16,15,I2b*%
%TO.N,/TINT-*%
X135634620Y-74489000D03*
%TO.P,U16,14,O2a*%
%TO.N,/ZRD-*%
X136269620Y-74489000D03*
%TO.P,U16,13,I1b*%
%TO.N,/TBREQ-*%
X136904620Y-74489000D03*
%TO.P,U16,12,O3a*%
%TO.N,/ZWR-*%
X137539620Y-74489000D03*
%TO.P,U16,11,I0b*%
%TO.N,/TNMI-*%
X138174620Y-74489000D03*
%TO.P,U16,10,GND*%
%TO.N,GND*%
X138174620Y-79689000D03*
%TO.P,U16,9,O0b*%
%TO.N,/TNMIB-*%
X137539620Y-79689000D03*
%TO.P,U16,8,I3a*%
%TO.N,/TWR-*%
X136904620Y-79689000D03*
%TO.P,U16,7,O1b*%
%TO.N,/TBREQB-*%
X136269620Y-79689000D03*
%TO.P,U16,6,I2a*%
%TO.N,/TRD-*%
X135634620Y-79689000D03*
%TO.P,U16,5,O2b*%
%TO.N,/TINTB-*%
X134999620Y-79689000D03*
%TO.P,U16,4,I1a*%
%TO.N,/TIORQ-*%
X134364620Y-79689000D03*
%TO.P,U16,3,O3b*%
%TO.N,/TWAITB-*%
X133729620Y-79689000D03*
%TO.P,U16,2,I0a*%
%TO.N,/TMREQ-*%
X133094620Y-79689000D03*
%TO.P,U16,1,~{OEa}*%
%TO.N,/ZBACK-*%
X132459620Y-79689000D03*
%TD*%
D18*
%TO.P,C30,2*%
%TO.N,+5V*%
X141123053Y-69503508D03*
%TO.P,C30,1*%
%TO.N,GND*%
X141123053Y-67953508D03*
%TD*%
D36*
%TO.P,JP2,3,C*%
%TO.N,/TRST-*%
X76008120Y-72390000D03*
%TO.P,JP2,2,B*%
%TO.N,/RST-*%
X74008121Y-72390000D03*
D37*
%TO.P,JP2,1,A*%
%TO.N,unconnected-(JP2-A-Pad1)*%
X72008120Y-72390000D03*
%TD*%
D17*
%TO.P,TP12,1,1*%
%TO.N,Net-(R29-Pad1)*%
X71374000Y-44704000D03*
%TD*%
D19*
%TO.P,U14,20,VCC*%
%TO.N,+5V*%
X126109620Y-79689000D03*
%TO.P,U14,19,~{OEb}*%
%TO.N,/TCBUSFEN-*%
X125474620Y-79689000D03*
%TO.P,U14,18,Oa0*%
%TO.N,/TMREQ-*%
X124839620Y-79689001D03*
%TO.P,U14,17,Ib0*%
%TO.N,Net-(OP1-C)*%
X124204620Y-79689000D03*
%TO.P,U14,16,Oa1*%
%TO.N,/TIORQ-*%
X123569620Y-79689000D03*
%TO.P,U14,15,Ib1*%
%TO.N,+5V*%
X122934620Y-79689000D03*
%TO.P,U14,14,Oa2*%
%TO.N,/TRD-*%
X122299620Y-79689000D03*
%TO.P,U14,13,Ib2*%
%TO.N,+5V*%
X121664620Y-79689001D03*
%TO.P,U14,12,Oa3*%
%TO.N,/TWR-*%
X121029620Y-79689000D03*
%TO.P,U14,11,Ib3*%
%TO.N,+5V*%
X120394620Y-79689000D03*
%TO.P,U14,10,GND*%
%TO.N,GND*%
X120394620Y-74489000D03*
%TO.P,U14,9,Ob3*%
%TO.N,/TWR-*%
X121029620Y-74489000D03*
%TO.P,U14,8,Ia3*%
%TO.N,/ZWR-*%
X121664620Y-74488999D03*
%TO.P,U14,7,Ob2*%
%TO.N,/TRD-*%
X122299620Y-74489000D03*
%TO.P,U14,6,Ia2*%
%TO.N,/ZRD-*%
X122934620Y-74489000D03*
%TO.P,U14,5,Ob1*%
%TO.N,/TIORQ-*%
X123569620Y-74489000D03*
%TO.P,U14,4,Ia1*%
%TO.N,/ZIORQ-*%
X124204620Y-74489000D03*
%TO.P,U14,3,Ob0*%
%TO.N,/TMREQ-*%
X124839620Y-74488999D03*
%TO.P,U14,2,Ia0*%
%TO.N,/ZMREQ-*%
X125474620Y-74489000D03*
%TO.P,U14,1,~{OEa}*%
%TO.N,/TCBUSEN-*%
X126109620Y-74489000D03*
%TD*%
D36*
%TO.P,DBOPT1,3,B*%
%TO.N,/BRD_RST-*%
X133589920Y-108324399D03*
%TO.P,DBOPT1,2,C*%
%TO.N,Net-(DBOPT1-C)*%
X133589920Y-106324400D03*
D37*
%TO.P,DBOPT1,1,A*%
%TO.N,/ZRST-*%
X133589920Y-104324399D03*
%TD*%
D46*
%TO.P,U1,14,VCC*%
%TO.N,+5V*%
X90740120Y-141667000D03*
%TO.P,U1,13*%
%TO.N,/LRST-*%
X89470120Y-141667000D03*
%TO.P,U1,12*%
%TO.N,/TWAIT-*%
X88200120Y-141667000D03*
%TO.P,U1,11*%
%TO.N,Net-(LED1-A)*%
X86930120Y-141667000D03*
%TO.P,U1,10*%
%TO.N,/LRST-*%
X85660120Y-141667000D03*
%TO.P,U1,9*%
%TO.N,/ZHALT-*%
X84390120Y-141667000D03*
%TO.P,U1,8*%
%TO.N,Net-(LED5-A)*%
X83120120Y-141667000D03*
%TO.P,U1,7,GND*%
%TO.N,GND*%
X83120120Y-136717000D03*
%TO.P,U1,6*%
%TO.N,Net-(LED2-A)*%
X84390120Y-136717000D03*
%TO.P,U1,5*%
%TO.N,/LRST-*%
X85660120Y-136717000D03*
%TO.P,U1,4*%
%TO.N,/ZBACK-*%
X86930120Y-136717000D03*
%TO.P,U1,3*%
%TO.N,Net-(LED4-A)*%
X88200120Y-136717000D03*
%TO.P,U1,2*%
%TO.N,/LRST-*%
X89470120Y-136717000D03*
%TO.P,U1,1*%
%TO.N,/TGTMODE-*%
X90740120Y-136717000D03*
%TD*%
D47*
%TO.P,U5,32,VCC*%
%TO.N,+5V*%
X84517120Y-90424000D03*
%TO.P,U5,31,PGM*%
%TO.N,/ZWR-*%
X84517120Y-92964000D03*
%TO.P,U5,30,NC*%
%TO.N,GND*%
X84517120Y-95504000D03*
%TO.P,U5,29,A14*%
%TO.N,/RRA0*%
X84517120Y-98044000D03*
%TO.P,U5,28,A13*%
%TO.N,/ZA13*%
X84517120Y-100584000D03*
%TO.P,U5,27,A8*%
%TO.N,/ZA8*%
X84517120Y-103124000D03*
%TO.P,U5,26,A9*%
%TO.N,/ZA9*%
X84517120Y-105664000D03*
%TO.P,U5,25,A11*%
%TO.N,/ZA11*%
X84517120Y-108204000D03*
%TO.P,U5,24,OE*%
%TO.N,/ZRD-*%
X84517120Y-110744000D03*
%TO.P,U5,23,A10*%
%TO.N,/ZA10*%
X84517120Y-113284000D03*
%TO.P,U5,22,CE*%
%TO.N,/ROM_SEL-*%
X84517120Y-115824000D03*
%TO.P,U5,21,D7*%
%TO.N,/ZD7*%
X84517120Y-118364000D03*
%TO.P,U5,20,D6*%
%TO.N,/ZD6*%
X84517120Y-120904000D03*
%TO.P,U5,19,D5*%
%TO.N,/ZD5*%
X84517120Y-123444000D03*
%TO.P,U5,18,D4*%
%TO.N,/ZD4*%
X84517120Y-125984000D03*
%TO.P,U5,17,D3*%
%TO.N,/ZD3*%
X84517120Y-128524000D03*
%TO.P,U5,16,GND*%
%TO.N,GND*%
X69277120Y-128523999D03*
%TO.P,U5,15,D2*%
%TO.N,/ZD2*%
X69277120Y-125984000D03*
%TO.P,U5,14,D1*%
%TO.N,/ZD1*%
X69277120Y-123444000D03*
%TO.P,U5,13,D0*%
%TO.N,/ZD0*%
X69277120Y-120904000D03*
%TO.P,U5,12,A0*%
%TO.N,/ZA0*%
X69277120Y-118363999D03*
%TO.P,U5,11,A1*%
%TO.N,/ZA1*%
X69277120Y-115824000D03*
%TO.P,U5,10,A2*%
%TO.N,/ZA2*%
X69277120Y-113284000D03*
%TO.P,U5,9,A3*%
%TO.N,/ZA3*%
X69277120Y-110744000D03*
%TO.P,U5,8,A4*%
%TO.N,/ZA4*%
X69277120Y-108204001D03*
%TO.P,U5,7,A5*%
%TO.N,/ZA5*%
X69277120Y-105664000D03*
%TO.P,U5,6,A6*%
%TO.N,/ZA6*%
X69277120Y-103124000D03*
%TO.P,U5,5,A7*%
%TO.N,/ZA7*%
X69277120Y-100584000D03*
%TO.P,U5,4,A12*%
%TO.N,/ZA12*%
X69277120Y-98044000D03*
%TO.P,U5,3,A15*%
%TO.N,/RRA1*%
X69277120Y-95503999D03*
%TO.P,U5,2,A16*%
%TO.N,/RRA2*%
X69277120Y-92964000D03*
D48*
%TO.P,U5,1,NC*%
%TO.N,GND*%
X69277120Y-90424000D03*
%TD*%
D30*
%TO.P,J9,8,Pin_8*%
%TO.N,/MODINT-*%
X104394000Y-45974000D03*
%TO.P,J9,7,Pin_7*%
%TO.N,+5V*%
X104394000Y-48514000D03*
%TO.P,J9,6,Pin_6*%
%TO.N,/SBC_I2*%
X101854000Y-45974000D03*
%TO.P,J9,5,Pin_5*%
%TO.N,GND*%
X101853999Y-48514000D03*
%TO.P,J9,4,Pin_4*%
%TO.N,/SBC_I1*%
X99314000Y-45974000D03*
%TO.P,J9,3,Pin_3*%
%TO.N,GND*%
X99314000Y-48514000D03*
%TO.P,J9,2,Pin_2*%
%TO.N,/SBC_I0*%
X96774000Y-45974000D03*
D17*
%TO.P,J9,1,Pin_1*%
%TO.N,GND*%
X96774000Y-48514000D03*
%TD*%
D16*
%TO.P,R29,2*%
%TO.N,Net-(R29-Pad2)*%
X79144500Y-51308000D03*
%TO.P,R29,1*%
%TO.N,Net-(R29-Pad1)*%
X77319500Y-51308000D03*
%TD*%
D36*
%TO.P,JP5,2,B*%
%TO.N,Net-(D3-K)*%
X137730120Y-44465999D03*
D37*
%TO.P,JP5,1,A*%
%TO.N,Net-(JP5-A)*%
X137730120Y-46466000D03*
%TD*%
D18*
%TO.P,C14,2*%
%TO.N,+3.3V*%
X163130120Y-125997000D03*
%TO.P,C14,1*%
%TO.N,GND*%
X163130120Y-124447000D03*
%TD*%
D42*
%TO.P,LED5,2,A*%
%TO.N,Net-(LED5-A)*%
X77532120Y-142923501D03*
%TO.P,LED5,1,K*%
%TO.N,Net-(LED5-K)*%
X77532120Y-141048499D03*
%TD*%
D19*
%TO.P,U24,20,VCC*%
%TO.N,+5V*%
X88644620Y-54804000D03*
%TO.P,U24,19,~{OE}*%
%TO.N,GND*%
X89279620Y-54804000D03*
%TO.P,U24,18,B0*%
%TO.N,/SBC_O0*%
X89914620Y-54803999D03*
%TO.P,U24,17,B1*%
%TO.N,/SBC_O1*%
X90549620Y-54804000D03*
%TO.P,U24,16,B2*%
%TO.N,/SBC_O2*%
X91184620Y-54804000D03*
%TO.P,U24,15,B3*%
%TO.N,/SBC_O3*%
X91819620Y-54804000D03*
%TO.P,U24,14,B4*%
%TO.N,/SBC_GPI0*%
X92454620Y-54804000D03*
%TO.P,U24,13,B5*%
%TO.N,/SBC_GPI1*%
X93089620Y-54803999D03*
%TO.P,U24,12,B6*%
%TO.N,/SBC_GPI2*%
X93724620Y-54804000D03*
%TO.P,U24,11,B7*%
%TO.N,/TM1-*%
X94359620Y-54804000D03*
%TO.P,U24,10,GND*%
%TO.N,GND*%
X94359620Y-60004000D03*
%TO.P,U24,9,A7*%
%TO.N,/ZM1-*%
X93724620Y-60004000D03*
%TO.P,U24,8,A6*%
%TO.N,/SBC_I2*%
X93089620Y-60004001D03*
%TO.P,U24,7,A5*%
%TO.N,/SBC_I1*%
X92454620Y-60004000D03*
%TO.P,U24,6,A4*%
%TO.N,/SBC_I0*%
X91819620Y-60004000D03*
%TO.P,U24,5,A3*%
%TO.N,/SBC_GPO3*%
X91184620Y-60004000D03*
%TO.P,U24,4,A2*%
%TO.N,/SBC_GPO2*%
X90549620Y-60004000D03*
%TO.P,U24,3,A1*%
%TO.N,/SBC_GPO1*%
X89914620Y-60004001D03*
%TO.P,U24,2,A0*%
%TO.N,/SBC_GPO0*%
X89279620Y-60004000D03*
%TO.P,U24,1,A>B*%
%TO.N,GND*%
X88644620Y-60004000D03*
%TD*%
D24*
%TO.P,C10,2*%
%TO.N,+5V*%
X128251030Y-139049555D03*
%TO.P,C10,1*%
%TO.N,GND*%
X129801030Y-139049555D03*
%TD*%
D30*
%TO.P,OP2,3,B*%
%TO.N,unconnected-(OP2-B-Pad3)*%
X134428120Y-93598999D03*
%TO.P,OP2,2,C*%
%TO.N,/TWAITRQ-*%
X134428120Y-91059000D03*
D17*
%TO.P,OP2,1,A*%
%TO.N,/TWAITB-*%
X134428120Y-88519000D03*
%TD*%
D33*
%TO.P,C2,2*%
%TO.N,+5V*%
X82638120Y-132842000D03*
%TO.P,C2,1*%
%TO.N,GND*%
X81088120Y-132842000D03*
%TD*%
D32*
%TO.P,R11,2*%
%TO.N,+3.3V*%
X163233620Y-114554000D03*
%TO.P,R11,1*%
%TO.N,/SCK_RX*%
X165058620Y-114554000D03*
%TD*%
D49*
%TO.P,C38,2*%
%TO.N,GND*%
X178021620Y-62738000D03*
%TO.P,C38,1*%
%TO.N,+5V*%
X171606620Y-62738000D03*
%TD*%
D50*
%TO.P,U4,8,VCC*%
%TO.N,+3.3V*%
X163257120Y-117159000D03*
%TO.P,U4,7,WP*%
%TO.N,GND*%
X164527120Y-117159000D03*
%TO.P,U4,6,SCL*%
%TO.N,/SCK_RX*%
X165797120Y-117159000D03*
%TO.P,U4,5,SDA*%
%TO.N,/SDA_TX*%
X167067120Y-117159000D03*
%TO.P,U4,4,GND*%
%TO.N,GND*%
X167067120Y-122109000D03*
%TO.P,U4,3,A2*%
X165797120Y-122109000D03*
%TO.P,U4,2,A1*%
X164527120Y-122109000D03*
%TO.P,U4,1,A0*%
%TO.N,Net-(JP1-B)*%
X163257120Y-122109000D03*
%TD*%
D23*
%TO.P,R3,2*%
%TO.N,GND*%
X74357120Y-134723500D03*
%TO.P,R3,1*%
%TO.N,Net-(LED1-K)*%
X74357120Y-136548500D03*
%TD*%
D16*
%TO.P,R23,2*%
%TO.N,+5V*%
X126958620Y-84836000D03*
%TO.P,R23,1*%
%TO.N,Net-(OP1-C)*%
X125133620Y-84836000D03*
%TD*%
%TO.P,R6,2*%
%TO.N,Net-(JP1-B)*%
X160486620Y-123190000D03*
%TO.P,R6,1*%
%TO.N,+3.3V*%
X158661620Y-123190000D03*
%TD*%
D51*
%TO.P,R13,2*%
%TO.N,Net-(SD1-SHLD)*%
X177227120Y-139684000D03*
%TO.P,R13,1*%
%TO.N,GND*%
X177227120Y-137684000D03*
%TD*%
D36*
%TO.P,SBC1,3,B*%
%TO.N,/RST-*%
X65246000Y-69342000D03*
%TO.P,SBC1,2,C*%
%TO.N,/BRD_RST-*%
X63246001Y-69342000D03*
D37*
%TO.P,SBC1,1,A*%
%TO.N,/TRST-*%
X61246000Y-69342000D03*
%TD*%
D17*
%TO.P,TP1,1,1*%
%TO.N,/TGTMODE-*%
X62215920Y-85166200D03*
%TD*%
D23*
%TO.P,R40,2*%
%TO.N,/TBREQ-*%
X119188120Y-52427500D03*
%TO.P,R40,1*%
%TO.N,+5V*%
X119188120Y-54252500D03*
%TD*%
D36*
%TO.P,SBC3,3,B*%
%TO.N,GND*%
X65214000Y-72390000D03*
%TO.P,SBC3,2,C*%
%TO.N,/SBCMODE-*%
X63214001Y-72390000D03*
D37*
%TO.P,SBC3,1,A*%
%TO.N,unconnected-(SBC3-A-Pad1)*%
X61214000Y-72390000D03*
%TD*%
D46*
%TO.P,U8,16,VCC*%
%TO.N,+5V*%
X82993120Y-85660000D03*
%TO.P,U8,15,~{LD}*%
%TO.N,/TGTMODE-*%
X81723120Y-85660000D03*
%TO.P,U8,14,H*%
%TO.N,/ZA8*%
X80453120Y-85660000D03*
%TO.P,U8,13,Qh*%
%TO.N,Net-(U12-Ds)*%
X79183120Y-85660000D03*
%TO.P,U8,12,G*%
%TO.N,/ZA9*%
X77913120Y-85660000D03*
%TO.P,U8,11,F*%
%TO.N,/ZA10*%
X76643120Y-85660000D03*
%TO.P,U8,10,E*%
%TO.N,/ZA11*%
X75373120Y-85660000D03*
%TO.P,U8,9,~{Clr}*%
%TO.N,+5V*%
X74103120Y-85660000D03*
%TO.P,U8,8,GND*%
%TO.N,GND*%
X74103120Y-80710000D03*
%TO.P,U8,7,Clk*%
%TO.N,/PC_LATCH-*%
X75373120Y-80710000D03*
%TO.P,U8,6,~{CE}*%
%TO.N,GND*%
X76643120Y-80710000D03*
%TO.P,U8,5,D*%
%TO.N,/ZA12*%
X77913120Y-80710000D03*
%TO.P,U8,4,C*%
%TO.N,/ZA13*%
X79183120Y-80710000D03*
%TO.P,U8,3,B*%
%TO.N,/ZA14*%
X80453120Y-80710000D03*
%TO.P,U8,2,A*%
%TO.N,/ZA15*%
X81723120Y-80710000D03*
%TO.P,U8,1,Ds*%
%TO.N,GND*%
X82993120Y-80710000D03*
%TD*%
D24*
%TO.P,C3,2*%
%TO.N,+5V*%
X66188449Y-131207229D03*
%TO.P,C3,1*%
%TO.N,GND*%
X67738449Y-131207229D03*
%TD*%
D42*
%TO.P,LED9,2,A*%
%TO.N,Net-(LED9-A)*%
X151827120Y-142923501D03*
%TO.P,LED9,1,K*%
%TO.N,Net-(LED9-K)*%
X151827120Y-141048499D03*
%TD*%
D52*
%TO.P,D2,3,A*%
%TO.N,GND*%
X136696723Y-52066253D03*
%TO.P,D2,2,K*%
%TO.N,/ZBACK-*%
X138571724Y-51416253D03*
%TO.P,D2,1,K*%
%TO.N,/CLK*%
X138571724Y-52716253D03*
%TD*%
D18*
%TO.P,C34,2*%
%TO.N,+5V*%
X85902315Y-54096345D03*
%TO.P,C34,1*%
%TO.N,GND*%
X85902315Y-52546345D03*
%TD*%
D53*
%TO.P,TP3,1,1*%
%TO.N,Net-(R22-Pad1)*%
X109927771Y-72130081D03*
%TD*%
D33*
%TO.P,C9,2*%
%TO.N,+5V*%
X135641115Y-133881692D03*
%TO.P,C9,1*%
%TO.N,GND*%
X134091115Y-133881692D03*
%TD*%
%TO.P,C35,2*%
%TO.N,+5V*%
X104265304Y-62168616D03*
%TO.P,C35,1*%
%TO.N,GND*%
X102715304Y-62168616D03*
%TD*%
D23*
%TO.P,R8,2*%
%TO.N,GND*%
X148652120Y-134620000D03*
%TO.P,R8,1*%
%TO.N,Net-(LED6-K)*%
X148652120Y-136445000D03*
%TD*%
D30*
%TO.P,J4,8,Pin_8*%
%TO.N,/ZWAIT-*%
X96582121Y-76454000D03*
%TO.P,J4,7,Pin_7*%
%TO.N,/ZWR-*%
X94042120Y-76454000D03*
%TO.P,J4,6,Pin_6*%
%TO.N,/ZRD-*%
X91502120Y-76454000D03*
%TO.P,J4,5,Pin_5*%
%TO.N,/ZIORQ-*%
X88962120Y-76454000D03*
%TO.P,J4,4,Pin_4*%
%TO.N,/ZMREQ-*%
X86422120Y-76454000D03*
%TO.P,J4,3,Pin_3*%
%TO.N,/ZM1-*%
X83882119Y-76454000D03*
%TO.P,J4,2,Pin_2*%
%TO.N,/ZRFSH-*%
X81342120Y-76454000D03*
D17*
%TO.P,J4,1,Pin_1*%
%TO.N,GND*%
X78802120Y-76454000D03*
%TD*%
D32*
%TO.P,R19,2*%
%TO.N,/JTCK*%
X145961620Y-103093000D03*
%TO.P,R19,1*%
%TO.N,+5V*%
X147786620Y-103093000D03*
%TD*%
D46*
%TO.P,U12,16,VCC*%
%TO.N,+5V*%
X101687520Y-85660000D03*
%TO.P,U12,15,~{LD}*%
%TO.N,/TGTMODE-*%
X100417520Y-85660000D03*
%TO.P,U12,14,H*%
%TO.N,/ZA0*%
X99147520Y-85660000D03*
%TO.P,U12,13,Qh*%
%TO.N,/PCRD_DIN*%
X97877520Y-85660000D03*
%TO.P,U12,12,G*%
%TO.N,/ZA1*%
X96607520Y-85660000D03*
%TO.P,U12,11,F*%
%TO.N,/ZA2*%
X95337520Y-85660000D03*
%TO.P,U12,10,E*%
%TO.N,/ZA3*%
X94067520Y-85660000D03*
%TO.P,U12,9,~{Clr}*%
%TO.N,+5V*%
X92797520Y-85660000D03*
%TO.P,U12,8,GND*%
%TO.N,GND*%
X92797520Y-80710000D03*
%TO.P,U12,7,Clk*%
%TO.N,/PC_LATCH-*%
X94067520Y-80710000D03*
%TO.P,U12,6,~{CE}*%
%TO.N,GND*%
X95337520Y-80710000D03*
%TO.P,U12,5,D*%
%TO.N,/ZA4*%
X96607520Y-80710000D03*
%TO.P,U12,4,C*%
%TO.N,/ZA5*%
X97877520Y-80710000D03*
%TO.P,U12,3,B*%
%TO.N,/ZA6*%
X99147520Y-80710000D03*
%TO.P,U12,2,A*%
%TO.N,/ZA7*%
X100417520Y-80710000D03*
%TO.P,U12,1,Ds*%
%TO.N,Net-(U12-Ds)*%
X101687520Y-80710000D03*
%TD*%
D33*
%TO.P,C20,2*%
%TO.N,+5V*%
X172253811Y-89220533D03*
%TO.P,C20,1*%
%TO.N,GND*%
X170703811Y-89220533D03*
%TD*%
D54*
%TO.P,D4,2,A*%
%TO.N,GND*%
X176814120Y-56896000D03*
%TO.P,D4,1,K*%
%TO.N,+5V*%
X172814120Y-56896000D03*
%TD*%
D42*
%TO.P,LED4,2,A*%
%TO.N,Net-(LED4-A)*%
X71182120Y-142923501D03*
%TO.P,LED4,1,K*%
%TO.N,Net-(LED4-K)*%
X71182120Y-141048499D03*
%TD*%
D23*
%TO.P,R9,2*%
%TO.N,GND*%
X145477120Y-134620000D03*
%TO.P,R9,1*%
%TO.N,Net-(LED7-K)*%
X145477120Y-136445000D03*
%TD*%
D55*
%TO.P,U7,44,A_{10}*%
%TO.N,/ZA10*%
X120077120Y-94869000D03*
%TO.P,U7,43,A_{9}*%
%TO.N,/ZA9*%
X122617120Y-97409000D03*
%TO.P,U7,42,A_{8}*%
%TO.N,/ZA8*%
X122617120Y-94869000D03*
%TO.P,U7,41,A_{7}*%
%TO.N,/ZA7*%
X125157119Y-97409000D03*
%TO.P,U7,40,A_{6}*%
%TO.N,/ZA6*%
X125157120Y-94869000D03*
%TO.P,U7,39,A_{5}*%
%TO.N,/ZA5*%
X127697120Y-97409000D03*
%TO.P,U7,38,A_{4}*%
%TO.N,/ZA4*%
X125157120Y-99949000D03*
%TO.P,U7,37,A_{3}*%
%TO.N,/ZA3*%
X127697120Y-99949000D03*
%TO.P,U7,36,A_{2}*%
%TO.N,/ZA2*%
X125157120Y-102489000D03*
%TO.P,U7,35,A_{1}*%
%TO.N,/ZA1*%
X127697120Y-102489000D03*
%TO.P,U7,34,A_{0}*%
%TO.N,/ZA0*%
X125157120Y-105029000D03*
%TO.P,U7,33,GND*%
%TO.N,GND*%
X127697120Y-105029000D03*
%TO.P,U7,32,~{RFSH}*%
%TO.N,/ZRFSH-*%
X125157120Y-107568999D03*
%TO.P,U7,31,~{M1}*%
%TO.N,/ZM1-*%
X127697120Y-107569000D03*
%TO.P,U7,30,~{RESET}*%
%TO.N,Net-(DBOPT1-C)*%
X125157120Y-110109001D03*
%TO.P,U7,29,~{BUSREQ}*%
%TO.N,/ZBREQ-*%
X127697120Y-110109000D03*
%TO.P,U7,28,~{WAIT}*%
%TO.N,/ZWAIT-*%
X125157120Y-112649000D03*
%TO.P,U7,27,~{BUSACK}*%
%TO.N,/ZBACK-*%
X122617120Y-110109000D03*
%TO.P,U7,26,~{WR}*%
%TO.N,/ZWR-*%
X122617120Y-112649000D03*
%TO.P,U7,25,NC*%
%TO.N,unconnected-(U7-NC-Pad25)*%
X120077120Y-110109000D03*
%TO.P,U7,24,NC*%
%TO.N,unconnected-(U7-NC-Pad24)*%
X120077120Y-112649000D03*
%TO.P,U7,23,~{RD}*%
%TO.N,/ZRD-*%
X117537120Y-110109000D03*
%TO.P,U7,22,~{IORQ}*%
%TO.N,/ZIORQ-*%
X117537120Y-112649000D03*
%TO.P,U7,21,~{MREQ}*%
%TO.N,/ZMREQ-*%
X114997120Y-110109001D03*
%TO.P,U7,20,~{HALT}*%
%TO.N,/ZHALT-*%
X114997120Y-112649000D03*
%TO.P,U7,19,~{NMI}*%
%TO.N,/ZNMI-*%
X112457120Y-110109000D03*
%TO.P,U7,18,~{INT}*%
%TO.N,/ZINT-*%
X112457120Y-112649000D03*
%TO.P,U7,17,D_{1}*%
%TO.N,/ZD1*%
X109917120Y-110109000D03*
%TO.P,U7,16,D_{0}*%
%TO.N,/ZD0*%
X112457120Y-107569000D03*
%TO.P,U7,15,D_{7}*%
%TO.N,/ZD7*%
X109917120Y-107569000D03*
%TO.P,U7,14,D_{2}*%
%TO.N,/ZD2*%
X112457120Y-105029000D03*
%TO.P,U7,13,V_{CC}*%
%TO.N,+5V*%
X109917120Y-105029000D03*
%TO.P,U7,12,NC*%
%TO.N,unconnected-(U7-NC-Pad12)*%
X112457120Y-102489000D03*
%TO.P,U7,11,D_{6}*%
%TO.N,/ZD6*%
X109917121Y-102489000D03*
%TO.P,U7,10,D_{5}*%
%TO.N,/ZD5*%
X112457120Y-99949000D03*
%TO.P,U7,9,D_{3}*%
%TO.N,/ZD3*%
X109917120Y-99949000D03*
%TO.P,U7,8,D_{4}*%
%TO.N,/ZD4*%
X112457120Y-97409000D03*
%TO.P,U7,7,CLK*%
%TO.N,/CLK*%
X109917120Y-97409000D03*
%TO.P,U7,6,NC*%
%TO.N,unconnected-(U7-NC-Pad6)*%
X112457120Y-94869000D03*
%TO.P,U7,5,A_{15}*%
%TO.N,/ZA15*%
X114997121Y-97409000D03*
%TO.P,U7,4,A_{14}*%
%TO.N,/ZA14*%
X114997120Y-94869000D03*
%TO.P,U7,3,A_{13}*%
%TO.N,/ZA13*%
X117537120Y-97409000D03*
%TO.P,U7,2,A_{12}*%
%TO.N,/ZA12*%
X117537120Y-94869000D03*
D56*
%TO.P,U7,1,A_{11}*%
%TO.N,/ZA11*%
X120077120Y-97409000D03*
%TD*%
D50*
%TO.P,U10,14,VCC*%
%TO.N,+5V*%
X108012120Y-74549000D03*
%TO.P,U10,13*%
%TO.N,Net-(R22-Pad1)*%
X109282120Y-74549000D03*
%TO.P,U10,12*%
%TO.N,Net-(TP7-Pad1)*%
X110552120Y-74549000D03*
%TO.P,U10,11*%
%TO.N,/ZRST-*%
X111822120Y-74549000D03*
%TO.P,U10,10*%
%TO.N,/ZRST*%
X113092120Y-74549000D03*
%TO.P,U10,9*%
%TO.N,Net-(OP3-A)*%
X114362120Y-74549000D03*
%TO.P,U10,8*%
%TO.N,Net-(OP3-B)*%
X115632120Y-74549000D03*
%TO.P,U10,7,GND*%
%TO.N,GND*%
X115632120Y-79499000D03*
%TO.P,U10,6*%
%TO.N,Net-(OP3-A)*%
X114362120Y-79499000D03*
%TO.P,U10,5*%
%TO.N,Net-(R34-Pad2)*%
X113092120Y-79499000D03*
%TO.P,U10,4*%
%TO.N,Net-(R29-Pad2)*%
X111822120Y-79499000D03*
%TO.P,U10,3*%
%TO.N,/SYNC*%
X110552120Y-79499000D03*
%TO.P,U10,2*%
%TO.N,/ROM_SEL-*%
X109282120Y-79499000D03*
%TO.P,U10,1*%
%TO.N,/ROM_SEL*%
X108012120Y-79499000D03*
%TD*%
D23*
%TO.P,R41,2*%
%TO.N,/TWAIT-*%
X121220120Y-52427500D03*
%TO.P,R41,1*%
%TO.N,+5V*%
X121220120Y-54252500D03*
%TD*%
D30*
%TO.P,J7,8,Pin_8*%
%TO.N,/SBC_O3*%
X89154000Y-45974000D03*
%TO.P,J7,7,Pin_7*%
%TO.N,GND*%
X89154000Y-48514000D03*
%TO.P,J7,6,Pin_6*%
%TO.N,/SBC_O2*%
X86614000Y-45974000D03*
%TO.P,J7,5,Pin_5*%
%TO.N,GND*%
X86613999Y-48514000D03*
%TO.P,J7,4,Pin_4*%
%TO.N,/SBC_O1*%
X84074000Y-45974000D03*
%TO.P,J7,3,Pin_3*%
%TO.N,GND*%
X84074000Y-48514000D03*
%TO.P,J7,2,Pin_2*%
%TO.N,/SBC_O0*%
X81534000Y-45974000D03*
D17*
%TO.P,J7,1,Pin_1*%
%TO.N,GND*%
X81534000Y-48514000D03*
%TD*%
D23*
%TO.P,R2,2*%
%TO.N,GND*%
X77532120Y-134723500D03*
%TO.P,R2,1*%
%TO.N,Net-(LED5-K)*%
X77532120Y-136548500D03*
%TD*%
D38*
%TO.P,SPARE1,16,UC*%
%TO.N,unconnected-(SPARE1-UC-Pad16)*%
X87946120Y-118364000D03*
%TO.P,SPARE1,15,UC*%
%TO.N,unconnected-(SPARE1-UC-Pad15)*%
X90486120Y-118364000D03*
%TO.P,SPARE1,14,UC*%
%TO.N,unconnected-(SPARE1-UC-Pad14)*%
X93026120Y-118364000D03*
%TO.P,SPARE1,13,UC*%
%TO.N,unconnected-(SPARE1-UC-Pad13)*%
X95566120Y-118364000D03*
%TO.P,SPARE1,12,UC*%
%TO.N,unconnected-(SPARE1-UC-Pad12)*%
X98106120Y-118364000D03*
%TO.P,SPARE1,11,UC*%
%TO.N,unconnected-(SPARE1-UC-Pad11)*%
X100646120Y-118364000D03*
%TO.P,SPARE1,10,UC*%
%TO.N,unconnected-(SPARE1-UC-Pad10)*%
X103186120Y-118364000D03*
%TO.P,SPARE1,9,UC*%
%TO.N,unconnected-(SPARE1-UC-Pad9)*%
X105726120Y-118364000D03*
%TO.P,SPARE1,8,UC*%
%TO.N,unconnected-(SPARE1-UC-Pad8)*%
X105726121Y-125984000D03*
%TO.P,SPARE1,7,UC*%
%TO.N,unconnected-(SPARE1-UC-Pad7)*%
X103186120Y-125984000D03*
%TO.P,SPARE1,6,UC*%
%TO.N,unconnected-(SPARE1-UC-Pad6)*%
X100646120Y-125984000D03*
%TO.P,SPARE1,5,UC*%
%TO.N,unconnected-(SPARE1-UC-Pad5)*%
X98106120Y-125984000D03*
%TO.P,SPARE1,4,UC*%
%TO.N,unconnected-(SPARE1-UC-Pad4)*%
X95566120Y-125984000D03*
%TO.P,SPARE1,3,UC*%
%TO.N,unconnected-(SPARE1-UC-Pad3)*%
X93026119Y-125984000D03*
%TO.P,SPARE1,2,UC*%
%TO.N,unconnected-(SPARE1-UC-Pad2)*%
X90486120Y-125984000D03*
D57*
%TO.P,SPARE1,1,UC*%
%TO.N,unconnected-(SPARE1-UC-Pad1)*%
X87946120Y-125984000D03*
D28*
%TO.P,SPARE1,*%
%TO.N,*%
X91370121Y-121031000D03*
X90426120Y-121031000D03*
X89470120Y-121031000D03*
X104197120Y-121036500D03*
X102297120Y-121036500D03*
D43*
X98990120Y-121042000D03*
X97090120Y-121042000D03*
X98040120Y-121042001D03*
D28*
X91370121Y-123306000D03*
X90420120Y-123306000D03*
X89470120Y-123306000D03*
X104197120Y-123311500D03*
X103247120Y-123311500D03*
X102297120Y-123311501D03*
D43*
X98990120Y-123317000D03*
X97090120Y-123317000D03*
%TD*%
D17*
%TO.P,TP15,1,1*%
%TO.N,GND*%
X75184000Y-44704000D03*
%TD*%
D58*
%TO.P,D3,2,A*%
%TO.N,+5V*%
X142790119Y-44450000D03*
%TO.P,D3,1,K*%
%TO.N,Net-(D3-K)*%
X140290121Y-44450000D03*
%TD*%
D42*
%TO.P,LED6,2,A*%
%TO.N,Net-(LED6-A)*%
X148652120Y-142923501D03*
%TO.P,LED6,1,K*%
%TO.N,Net-(LED6-K)*%
X148652120Y-141048499D03*
%TD*%
D53*
%TO.P,TP7,1,1*%
%TO.N,Net-(TP7-Pad1)*%
X111855447Y-72006600D03*
%TD*%
D22*
%TO.P,C17,2*%
%TO.N,+5V*%
X160606450Y-94273554D03*
%TO.P,C17,1*%
%TO.N,GND*%
X160606450Y-95823554D03*
%TD*%
D32*
%TO.P,R16,2*%
%TO.N,+5V*%
X128994420Y-89966800D03*
%TO.P,R16,1*%
%TO.N,/TWAITRQ-*%
X130819420Y-89966800D03*
%TD*%
D33*
%TO.P,C5,2*%
%TO.N,+5V*%
X101284633Y-138790617D03*
%TO.P,C5,1*%
%TO.N,GND*%
X99734633Y-138790617D03*
%TD*%
D30*
%TO.P,OP3,3,B*%
%TO.N,Net-(OP3-B)*%
X74422000Y-52578001D03*
%TO.P,OP3,2,C*%
%TO.N,/EXTBRKRQ-*%
X74422000Y-55118000D03*
D17*
%TO.P,OP3,1,A*%
%TO.N,Net-(OP3-A)*%
X74422000Y-57658000D03*
%TD*%
D59*
%TO.P,SD1,10,SHLD*%
%TO.N,Net-(SD1-SHLD)*%
X174474120Y-142074000D03*
X174474120Y-133074000D03*
X158324120Y-142074000D03*
X158324120Y-133074000D03*
D60*
%TO.P,SD1,9,DET*%
%TO.N,unconnected-(SD1-DET-Pad9)*%
X159704120Y-131074000D03*
%TO.P,SD1,8*%
%TO.N,unconnected-(SD1-Pad8)*%
X160804120Y-131074000D03*
%TO.P,SD1,7,MISO*%
%TO.N,/SPIMI*%
X161904120Y-131074000D03*
%TO.P,SD1,6,GND*%
%TO.N,GND*%
X163004120Y-131074000D03*
%TO.P,SD1,5,CLK*%
%TO.N,/SPICK*%
X164104120Y-131074000D03*
%TO.P,SD1,4,VDD*%
%TO.N,+3.3V*%
X165204120Y-131074000D03*
%TO.P,SD1,3,MOSI*%
%TO.N,/SPIMO*%
X166304120Y-131074000D03*
%TO.P,SD1,2,CS*%
%TO.N,/SPICS-*%
X167404120Y-131074000D03*
%TO.P,SD1,1*%
%TO.N,unconnected-(SD1-Pad1)*%
X168504120Y-131074000D03*
%TD*%
D30*
%TO.P,J8,4,Pin_4*%
%TO.N,+5V*%
X94234000Y-45974000D03*
%TO.P,J8,3,Pin_3*%
X94234000Y-48514000D03*
%TO.P,J8,2,Pin_2*%
X91694000Y-45974000D03*
D17*
%TO.P,J8,1,Pin_1*%
X91694000Y-48514000D03*
%TD*%
D38*
%TO.P,RN1,9,R8*%
%TO.N,/ZA0*%
X65467120Y-118364000D03*
%TO.P,RN1,8,R7*%
%TO.N,/ZA1*%
X65467120Y-115824001D03*
%TO.P,RN1,7,R6*%
%TO.N,/ZA2*%
X65467120Y-113284000D03*
%TO.P,RN1,6,R5*%
%TO.N,/ZA3*%
X65467120Y-110744000D03*
%TO.P,RN1,5,R4*%
%TO.N,/ZA4*%
X65467120Y-108204000D03*
%TO.P,RN1,4,R3*%
%TO.N,/ZA5*%
X65467120Y-105664000D03*
%TO.P,RN1,3,R2*%
%TO.N,/ZA6*%
X65467120Y-103123999D03*
%TO.P,RN1,2,R1*%
%TO.N,/ZA7*%
X65467120Y-100584000D03*
D61*
%TO.P,RN1,1,common*%
%TO.N,+5V*%
X65467120Y-98044000D03*
%TD*%
D32*
%TO.P,R27,2*%
%TO.N,+3.3V*%
X172989120Y-71374000D03*
%TO.P,R27,1*%
%TO.N,/SPIMO*%
X174814120Y-71374000D03*
%TD*%
D16*
%TO.P,R21,2*%
%TO.N,+5V*%
X65936500Y-76454000D03*
%TO.P,R21,1*%
%TO.N,/SBCMODE-*%
X64111500Y-76454000D03*
%TD*%
D33*
%TO.P,C37,2*%
%TO.N,+5V*%
X132627855Y-60397795D03*
%TO.P,C37,1*%
%TO.N,GND*%
X131077855Y-60397795D03*
%TD*%
%TO.P,C4,2*%
%TO.N,+5V*%
X102637154Y-131139949D03*
%TO.P,C4,1*%
%TO.N,GND*%
X101087154Y-131139949D03*
%TD*%
D62*
%TO.P,JP1,2,B*%
%TO.N,Net-(JP1-B)*%
X160224118Y-125476001D03*
D63*
%TO.P,JP1,1,A*%
%TO.N,GND*%
X158924120Y-125476001D03*
%TD*%
D32*
%TO.P,R18,2*%
%TO.N,/JTDI_CO*%
X145961620Y-93568000D03*
%TO.P,R18,1*%
%TO.N,+5V*%
X147786620Y-93568000D03*
%TD*%
D22*
%TO.P,C33,2*%
%TO.N,+5V*%
X78802120Y-62725000D03*
%TO.P,C33,1*%
%TO.N,GND*%
X78802120Y-64275000D03*
%TD*%
D64*
%TO.P,R42,2*%
%TO.N,Net-(J14-SHIELD-PadSH1)*%
X182672120Y-52832000D03*
%TO.P,R42,1*%
%TO.N,GND*%
X180672120Y-52832000D03*
%TD*%
D16*
%TO.P,R31,2*%
%TO.N,+5V*%
X79144500Y-58928000D03*
%TO.P,R31,1*%
%TO.N,/EXTBRKRQ-*%
X77319500Y-58928000D03*
%TD*%
D33*
%TO.P,C28,2*%
%TO.N,+5V*%
X118312120Y-84647856D03*
%TO.P,C28,1*%
%TO.N,GND*%
X116762120Y-84647856D03*
%TD*%
D24*
%TO.P,C22,2*%
%TO.N,+5V*%
X172134120Y-107677058D03*
%TO.P,C22,1*%
%TO.N,GND*%
X173684120Y-107677058D03*
%TD*%
%TO.P,C1,2*%
%TO.N,+5V*%
X93120771Y-142801723D03*
%TO.P,C1,1*%
%TO.N,GND*%
X94670771Y-142801723D03*
%TD*%
D42*
%TO.P,LED2,2,A*%
%TO.N,Net-(LED2-A)*%
X80707120Y-142923501D03*
%TO.P,LED2,1,K*%
%TO.N,Net-(LED2-K)*%
X80707120Y-141048499D03*
%TD*%
D23*
%TO.P,R35,2*%
%TO.N,/SBC_I1*%
X101027120Y-54586500D03*
%TO.P,R35,1*%
%TO.N,+5V*%
X101027120Y-56411500D03*
%TD*%
D38*
%TO.P,RN2,9,R8*%
%TO.N,/ZA10*%
X88327120Y-110744000D03*
%TO.P,RN2,8,R7*%
%TO.N,/ZA11*%
X88327120Y-108204001D03*
%TO.P,RN2,7,R6*%
%TO.N,/ZA9*%
X88327120Y-105664000D03*
%TO.P,RN2,6,R5*%
%TO.N,/ZA8*%
X88327120Y-103124000D03*
%TO.P,RN2,5,R4*%
%TO.N,/ZA13*%
X88327120Y-100584000D03*
%TO.P,RN2,4,R3*%
%TO.N,/ZA12*%
X88327120Y-98044000D03*
%TO.P,RN2,3,R2*%
%TO.N,/ZA14*%
X88327120Y-95503999D03*
%TO.P,RN2,2,R1*%
%TO.N,/ZA15*%
X88327120Y-92964000D03*
D61*
%TO.P,RN2,1,common*%
%TO.N,+5V*%
X88327120Y-90424000D03*
%TD*%
D42*
%TO.P,LED1,2,A*%
%TO.N,Net-(LED1-A)*%
X74357120Y-142923501D03*
%TO.P,LED1,1,K*%
%TO.N,Net-(LED1-K)*%
X74357120Y-141048499D03*
%TD*%
D33*
%TO.P,C15,2*%
%TO.N,+3.3V*%
X171525120Y-127254000D03*
%TO.P,C15,1*%
%TO.N,GND*%
X169975120Y-127254000D03*
%TD*%
D24*
%TO.P,C19,2*%
%TO.N,+5V*%
X173952333Y-103595998D03*
%TO.P,C19,1*%
%TO.N,GND*%
X175502333Y-103595998D03*
%TD*%
D32*
%TO.P,R17,2*%
%TO.N,/JTDO_CI*%
X145961620Y-99918000D03*
%TO.P,R17,1*%
%TO.N,+5V*%
X147786620Y-99918000D03*
%TD*%
D16*
%TO.P,R30,2*%
%TO.N,/SBC_GPI3*%
X68792620Y-62992000D03*
%TO.P,R30,1*%
%TO.N,+5V*%
X66967620Y-62992000D03*
%TD*%
D20*
%TO.P,J5,6,Pin_6*%
%TO.N,/SPICS2-*%
X179132120Y-69152000D03*
%TO.P,J5,5,Pin_5*%
%TO.N,/SPIMO*%
X179132120Y-71152000D03*
%TO.P,J5,4,Pin_4*%
%TO.N,/SPIMI*%
X179132120Y-73152000D03*
%TO.P,J5,3,Pin_3*%
%TO.N,/SPICK*%
X179132120Y-75152000D03*
%TO.P,J5,2,Pin_2*%
%TO.N,GND*%
X179132120Y-77151999D03*
D21*
%TO.P,J5,1,Pin_1*%
%TO.N,+3.3V*%
X179132120Y-79152000D03*
%TD*%
D19*
%TO.P,U17,20,VCC*%
%TO.N,+5V*%
X120394620Y-63694000D03*
%TO.P,U17,19,~{OE}*%
%TO.N,/ZRST*%
X121029620Y-63694000D03*
%TO.P,U17,18,B0*%
%TO.N,/TA2*%
X121664620Y-63693999D03*
%TO.P,U17,17,B1*%
%TO.N,/TA1*%
X122299620Y-63694000D03*
%TO.P,U17,16,B2*%
%TO.N,/TA0*%
X122934620Y-63694000D03*
%TO.P,U17,15,B3*%
%TO.N,/TA15*%
X123569620Y-63694000D03*
%TO.P,U17,14,B4*%
%TO.N,/TA14*%
X124204620Y-63694000D03*
%TO.P,U17,13,B5*%
%TO.N,/TA13*%
X124839620Y-63693999D03*
%TO.P,U17,12,B6*%
%TO.N,/TA12*%
X125474620Y-63694000D03*
%TO.P,U17,11,B7*%
%TO.N,/TA11*%
X126109620Y-63694000D03*
%TO.P,U17,10,GND*%
%TO.N,GND*%
X126109620Y-68894000D03*
%TO.P,U17,9,A7*%
%TO.N,/ZA11*%
X125474620Y-68894000D03*
%TO.P,U17,8,A6*%
%TO.N,/ZA12*%
X124839620Y-68894001D03*
%TO.P,U17,7,A5*%
%TO.N,/ZA13*%
X124204620Y-68894000D03*
%TO.P,U17,6,A4*%
%TO.N,/ZA14*%
X123569620Y-68894000D03*
%TO.P,U17,5,A3*%
%TO.N,/ZA15*%
X122934620Y-68894000D03*
%TO.P,U17,4,A2*%
%TO.N,/ZA0*%
X122299620Y-68894000D03*
%TO.P,U17,3,A1*%
%TO.N,/ZA1*%
X121664620Y-68894001D03*
%TO.P,U17,2,A0*%
%TO.N,/ZA2*%
X121029620Y-68894000D03*
%TO.P,U17,1,A>B*%
%TO.N,/ZBACK-*%
X120394620Y-68894000D03*
%TD*%
D32*
%TO.P,R28,2*%
%TO.N,+3.3V*%
X172989120Y-73914000D03*
%TO.P,R28,1*%
%TO.N,/SPIMI*%
X174814120Y-73914000D03*
%TD*%
D18*
%TO.P,C29,2*%
%TO.N,+5V*%
X138405519Y-89525924D03*
%TO.P,C29,1*%
%TO.N,GND*%
X138405519Y-87975924D03*
%TD*%
%TO.P,C23,2*%
%TO.N,+5V*%
X176851532Y-101765835D03*
%TO.P,C23,1*%
%TO.N,GND*%
X176851532Y-100215835D03*
%TD*%
D23*
%TO.P,R4,2*%
%TO.N,GND*%
X80707120Y-134723500D03*
%TO.P,R4,1*%
%TO.N,Net-(LED2-K)*%
X80707120Y-136548500D03*
%TD*%
D16*
%TO.P,R15,2*%
%TO.N,+3.3V*%
X168868620Y-114554000D03*
%TO.P,R15,1*%
%TO.N,/SDA_TX*%
X167043620Y-114554000D03*
%TD*%
D65*
%TO.P,D1,3,A*%
%TO.N,GND*%
X107496647Y-47796492D03*
%TO.P,D1,2,K*%
%TO.N,/ZRFSH-*%
X106846647Y-45921491D03*
%TO.P,D1,1,K*%
%TO.N,/TRST-*%
X108146647Y-45921491D03*
%TD*%
D42*
%TO.P,LED10,2,A*%
%TO.N,Net-(LED10-A)*%
X155002120Y-142923501D03*
%TO.P,LED10,1,K*%
%TO.N,Net-(LED10-K)*%
X155002120Y-141048499D03*
%TD*%
D22*
%TO.P,C31,2*%
%TO.N,+3.3V*%
X145096120Y-79997000D03*
%TO.P,C31,1*%
%TO.N,GND*%
X145096120Y-81547000D03*
%TD*%
D66*
%TO.P,R22,2*%
%TO.N,+5V*%
X105945320Y-70688200D03*
%TO.P,R22,1*%
%TO.N,Net-(R22-Pad1)*%
X107945320Y-70688200D03*
%TD*%
D30*
%TO.P,J11,8,Pin_8*%
%TO.N,/TD7*%
X141794120Y-65024001D03*
%TO.P,J11,7,Pin_7*%
%TO.N,/TD6*%
X141794120Y-62484000D03*
%TO.P,J11,6,Pin_6*%
%TO.N,/TD5*%
X141794120Y-59944000D03*
%TO.P,J11,5,Pin_5*%
%TO.N,/TD4*%
X141794120Y-57404000D03*
%TO.P,J11,4,Pin_4*%
%TO.N,/TD3*%
X141794120Y-54864000D03*
%TO.P,J11,3,Pin_3*%
%TO.N,/TD2*%
X141794120Y-52323999D03*
%TO.P,J11,2,Pin_2*%
%TO.N,/TD1*%
X141794120Y-49784000D03*
D17*
%TO.P,J11,1,Pin_1*%
%TO.N,/TD0*%
X141794120Y-47244000D03*
%TD*%
D67*
%TO.P,M1,23,VBUS*%
%TO.N,Net-(JP5-A)*%
X146482120Y-45974000D03*
D17*
X147382120Y-45974000D03*
D67*
%TO.P,M1,22,GND*%
%TO.N,GND*%
X146482120Y-48514000D03*
D68*
X147382120Y-48514000D03*
D67*
%TO.P,M1,21,3V3*%
%TO.N,+3.3V*%
X146482120Y-51054000D03*
D68*
X147382120Y-51054000D03*
D67*
%TO.P,M1,20,GP29*%
%TO.N,/SPICS-*%
X146482120Y-53594000D03*
D68*
X147382120Y-53594000D03*
D67*
%TO.P,M1,19,GP28*%
%TO.N,/SPIMI*%
X146482120Y-56134000D03*
D68*
X147382120Y-56134000D03*
D67*
%TO.P,M1,18,GP27*%
%TO.N,/SPIMO*%
X146482120Y-58674000D03*
D17*
X147382120Y-58674000D03*
D67*
%TO.P,M1,17,GP26*%
%TO.N,/SPICK*%
X146482120Y-61214000D03*
D68*
X147382120Y-61214000D03*
D67*
%TO.P,M1,16,GP15*%
%TO.N,/IOECLK*%
X146482120Y-63754000D03*
D68*
X147382120Y-63754000D03*
D67*
%TO.P,M1,15,GP14*%
%TO.N,/MRST-*%
X146482120Y-66294000D03*
D68*
X147382120Y-66294000D03*
D69*
%TO.P,M1,14,GP13*%
%TO.N,/MWTRQ-*%
X149922120Y-67194000D03*
D68*
X149922120Y-66294000D03*
D69*
%TO.P,M1,13,GP12*%
%TO.N,/MSEL-*%
X152462120Y-67194000D03*
D68*
X152462120Y-66294000D03*
D69*
%TO.P,M1,12,GP11*%
%TO.N,/MRD-*%
X155002120Y-67194001D03*
D68*
X155002120Y-66294001D03*
D69*
%TO.P,M1,11,GP10*%
%TO.N,/MA0*%
X157542120Y-67193999D03*
D68*
X157542120Y-66293999D03*
D69*
%TO.P,M1,10,GP9*%
%TO.N,/V3D7*%
X160082120Y-67194000D03*
D68*
X160082120Y-66294000D03*
D67*
%TO.P,M1,9,GP8*%
%TO.N,/V3D6*%
X163522120Y-66294000D03*
D68*
X162622120Y-66294000D03*
D67*
%TO.P,M1,8,GP7*%
%TO.N,/V3D5*%
X163522120Y-63754000D03*
D17*
X162622120Y-63754000D03*
D67*
%TO.P,M1,7,GP6*%
%TO.N,/V3D4*%
X163522120Y-61214000D03*
D68*
X162622120Y-61214000D03*
D67*
%TO.P,M1,6,GP5*%
%TO.N,/V3D3*%
X163522120Y-58674000D03*
D68*
X162622120Y-58674000D03*
D67*
%TO.P,M1,5,GP4*%
%TO.N,/V3D2*%
X163522120Y-56134000D03*
D68*
X162622120Y-56134000D03*
D67*
%TO.P,M1,4,GP3*%
%TO.N,/V3D1*%
X163522120Y-53594000D03*
D68*
X162622120Y-53594000D03*
D67*
%TO.P,M1,3,GP2*%
%TO.N,/V3D0*%
X163522120Y-51054000D03*
D17*
X162622120Y-51054000D03*
D67*
%TO.P,M1,2,GP1*%
%TO.N,/SCK_RX*%
X163522120Y-48514000D03*
D68*
X162622120Y-48514000D03*
D67*
%TO.P,M1,1,GP0*%
%TO.N,/SDA_TX*%
X163522120Y-45974000D03*
D68*
X162622120Y-45974000D03*
%TD*%
D70*
%TO.P,U2,20,VCC*%
%TO.N,+3.3V*%
X154367120Y-130988000D03*
%TO.P,U2,19,Q7*%
%TO.N,Net-(LED10-A)*%
X153097120Y-130988000D03*
%TO.P,U2,18,D7*%
%TO.N,/V3D7*%
X151827120Y-130988000D03*
%TO.P,U2,17,D6*%
%TO.N,/V3D6*%
X150557120Y-130988000D03*
%TO.P,U2,16,Q6*%
%TO.N,Net-(LED9-A)*%
X149287120Y-130988000D03*
%TO.P,U2,15,Q5*%
%TO.N,Net-(LED6-A)*%
X148017120Y-130988000D03*
%TO.P,U2,14,D5*%
%TO.N,/V3D5*%
X146747120Y-130988000D03*
%TO.P,U2,13,D4*%
%TO.N,/V3D4*%
X145477120Y-130988000D03*
%TO.P,U2,12,Q4*%
%TO.N,Net-(LED7-A)*%
X144207120Y-130988000D03*
%TO.P,U2,11,Cp*%
%TO.N,/IOECLK*%
X142937120Y-130988000D03*
%TO.P,U2,10,GND*%
%TO.N,GND*%
X142937120Y-121488000D03*
%TO.P,U2,9,Q3*%
%TO.N,Net-(LED8-K)*%
X144207120Y-121488000D03*
%TO.P,U2,8,D3*%
%TO.N,/V3D3*%
X145477120Y-121488000D03*
%TO.P,U2,7,D2*%
%TO.N,/V3D2*%
X146747120Y-121488000D03*
%TO.P,U2,6,Q2*%
%TO.N,Net-(U2-Q2)*%
X148017120Y-121488000D03*
%TO.P,U2,5,Q1*%
%TO.N,Net-(U2-Q1)*%
X149287120Y-121488000D03*
%TO.P,U2,4,D1*%
%TO.N,/V3D1*%
X150557120Y-121488000D03*
%TO.P,U2,3,D0*%
%TO.N,/V3D0*%
X151827120Y-121488000D03*
%TO.P,U2,2,Q0*%
%TO.N,/ATTN*%
X153097120Y-121488000D03*
%TO.P,U2,1,~{Mr}*%
%TO.N,/MRST-*%
X154367120Y-121488000D03*
%TD*%
D53*
%TO.P,TP5,1,1*%
%TO.N,/IO120*%
X183450120Y-103632000D03*
%TD*%
%TO.P,TP25,1,1*%
%TO.N,Net-(U15-EMC72{slash}IO)*%
X122667920Y-122402600D03*
%TD*%
%TO.P,TP13,1,1*%
%TO.N,Net-(U22-D41{slash}IO{slash}GCK3)*%
X113206266Y-128862973D03*
%TD*%
%TO.P,TP22,1,1*%
%TO.N,Net-(U22-CMC33{slash}IO)*%
X94560952Y-134279717D03*
%TD*%
%TO.P,TP19,1,1*%
%TO.N,Net-(U15-DMC54{slash}IO)*%
X119797720Y-127076200D03*
%TD*%
%TO.P,TP4,1,1*%
%TO.N,/IO121*%
X183450120Y-106426000D03*
%TD*%
%TO.P,TP8,1,1*%
%TO.N,/IO61*%
X156272120Y-94234000D03*
%TD*%
%TO.P,TP9,1,1*%
%TO.N,/PCRD_DIN*%
X157465920Y-92481400D03*
%TD*%
%TO.P,TP17,1,1*%
%TO.N,Net-(U15-BMC30{slash}IO)*%
X123404520Y-143154400D03*
%TD*%
%TO.P,TP6,1,1*%
%TO.N,Net-(U15-AMC9{slash}IO)*%
X133913337Y-142466795D03*
%TD*%
%TO.P,TP18,1,1*%
%TO.N,Net-(U15-HMC120{slash}IO)*%
X138568320Y-135991600D03*
%TD*%
%TO.P,TP24,1,1*%
%TO.N,Net-(U15-FMC88{slash}IO)*%
X133913337Y-121638795D03*
%TD*%
%TO.P,TP23,1,1*%
%TO.N,Net-(U15-CMC33{slash}IO)*%
X116387338Y-134084795D03*
%TD*%
%TO.P,TP20,1,1*%
%TO.N,Net-(U22-DMC57{slash}IO)*%
X108037520Y-128524000D03*
%TD*%
%TO.P,TP11,1,1*%
%TO.N,Net-(U18-FMC88{slash}IO)*%
X177404920Y-87045800D03*
%TD*%
%TO.P,TP21,1,1*%
%TO.N,Net-(U15-GMC104{slash}IO)*%
X138739337Y-125956795D03*
%TD*%
%TO.P,TP10,1,1*%
%TO.N,Net-(U18-FMC89{slash}IO)*%
X179436920Y-87071200D03*
%TD*%
D71*
%TO.N,+5V*%
X103973520Y-50957000D03*
X93432520Y-50850800D03*
%TO.N,GND*%
X158014638Y-88790352D03*
X131460920Y-138412063D03*
X118740832Y-62082513D03*
X114044137Y-67556284D03*
X168451776Y-127279433D03*
X130368720Y-62336200D03*
X151824895Y-132915276D03*
X114181493Y-84622707D03*
X176373388Y-92151290D03*
X178281422Y-100745216D03*
X125583488Y-136691915D03*
X135007720Y-52066253D03*
X155398984Y-132901556D03*
X139142377Y-86722004D03*
X145486204Y-132901556D03*
X164546657Y-119414939D03*
X177119658Y-50735945D03*
X139109169Y-76943395D03*
X176671821Y-103476819D03*
X182106120Y-117256299D03*
X159746365Y-129049328D03*
D72*
X88629047Y-58784954D03*
D71*
X95662022Y-115479015D03*
X159477120Y-98129648D03*
X106349918Y-132472381D03*
X120058477Y-73004941D03*
X148648689Y-132915276D03*
X181264261Y-135215522D03*
X138975821Y-67438887D03*
X166828811Y-95823554D03*
X122445732Y-123959079D03*
X101821217Y-132531793D03*
X160717461Y-77441748D03*
X95856178Y-142801723D03*
X95002750Y-61418886D03*
X133041120Y-77537556D03*
X71182120Y-133444365D03*
X117920391Y-129709522D03*
X113336428Y-136811659D03*
D72*
X124765399Y-90928495D03*
D71*
X134005332Y-123668000D03*
X130058575Y-46984919D03*
X179217657Y-52833945D03*
X164582704Y-132836078D03*
X88232874Y-56114672D03*
X88569545Y-85762609D03*
X83110491Y-134733868D03*
X176242701Y-136059309D03*
X169495218Y-51360228D03*
D72*
X107540000Y-49219011D03*
D71*
X163696679Y-85301291D03*
X101515682Y-62171458D03*
X104028907Y-142409873D03*
X167758095Y-84937400D03*
X77706862Y-133405400D03*
X98469626Y-138476769D03*
X178911712Y-59563509D03*
X98710037Y-127859000D03*
X106037447Y-95878400D03*
X84547119Y-80300561D03*
X167564150Y-104284442D03*
X136993621Y-137665025D03*
X128823765Y-47003212D03*
X170669176Y-87979936D03*
X170706702Y-93869109D03*
X176802399Y-58503662D03*
D72*
X128449249Y-93459855D03*
D71*
X142945771Y-119659735D03*
X126450336Y-70282017D03*
X175736926Y-109737901D03*
X141077065Y-84773515D03*
X105227215Y-90906009D03*
X136803780Y-132326102D03*
X167432718Y-61702789D03*
%TO.N,+3.3V*%
X166914720Y-65862200D03*
X144003920Y-77393800D03*
D72*
X143572120Y-84963000D03*
D71*
X174433120Y-69397400D03*
X144922920Y-69820000D03*
X159650320Y-116535200D03*
X154367120Y-132994400D03*
X154875120Y-123190000D03*
X141971920Y-132410200D03*
X143572120Y-117602000D03*
X164323920Y-127254000D03*
X168260920Y-79629000D03*
X170318320Y-114223800D03*
X163917520Y-76606400D03*
X160727410Y-72765800D03*
X172985320Y-69773800D03*
%TO.N,+5V*%
X133929688Y-129061407D03*
X183094520Y-122936000D03*
X122454829Y-125496475D03*
X163076291Y-94281609D03*
X163308265Y-91770832D03*
X146924920Y-104329800D03*
D72*
X147786620Y-95097600D03*
D71*
X90755025Y-143422595D03*
D72*
X121640456Y-78028795D03*
D71*
X165353952Y-102653421D03*
X173563166Y-89238727D03*
X71779029Y-76665414D03*
X178755451Y-94466642D03*
X109461098Y-136829853D03*
X102133143Y-57777599D03*
X174250720Y-105199347D03*
X120869273Y-127162245D03*
X125207920Y-119532400D03*
X71047041Y-85834527D03*
X106741919Y-62157813D03*
X105966208Y-97395945D03*
X104548400Y-70696501D03*
X133064620Y-62336200D03*
X169226120Y-62001400D03*
X102972650Y-139336438D03*
X170362476Y-107828997D03*
X104858786Y-85604722D03*
X120527720Y-84554217D03*
X132908156Y-120687848D03*
X133041120Y-76153153D03*
D72*
X147786620Y-101447600D03*
D71*
X178138144Y-101891440D03*
X111132522Y-54338884D03*
X148652120Y-104329800D03*
X66403823Y-142302145D03*
X134698767Y-140314200D03*
D72*
X147786620Y-98196400D03*
D71*
X119553944Y-63197815D03*
X127128249Y-138984200D03*
X134753720Y-134809588D03*
X140821635Y-71911126D03*
X122533715Y-119043986D03*
X122891556Y-55659089D03*
X85896250Y-55374239D03*
X128635873Y-84829005D03*
X65272169Y-63669201D03*
X139406520Y-131902200D03*
D72*
X122977718Y-78069732D03*
D71*
X123120470Y-133137255D03*
X151344520Y-44450000D03*
X128366374Y-80379427D03*
X103110719Y-132531793D03*
X84052033Y-133405400D03*
X169226120Y-56007000D03*
D72*
%TO.N,/ZBACK-*%
X132459620Y-80746600D03*
X120483520Y-46990000D03*
X119416720Y-70256400D03*
X120432720Y-81635600D03*
X122032306Y-124730252D03*
X160241917Y-87731600D03*
X87006320Y-130048000D03*
X109540388Y-70953166D03*
X160241917Y-83515200D03*
%TO.N,/CLK*%
X110470862Y-83123000D03*
X129144920Y-53049400D03*
X128230520Y-83123000D03*
X132884299Y-52961328D03*
X179738371Y-107750149D03*
%TO.N,/TRST-*%
X109561520Y-45278400D03*
X119467520Y-43980000D03*
%TO.N,/ZRFSH-*%
X118416120Y-44918400D03*
X131075320Y-44715200D03*
X132599320Y-100050600D03*
X174139520Y-102590600D03*
X131806120Y-76748714D03*
%TO.N,/SPICK*%
X164433320Y-128473200D03*
%TO.N,/SPIMI*%
X163511120Y-127889000D03*
%TO.N,/SPIMO*%
X166330520Y-129667000D03*
%TO.N,/SPICS2-*%
X162438122Y-74295000D03*
%TO.N,/SPICS-*%
X173569520Y-125933200D03*
%TO.N,/ZWAIT-*%
X96150320Y-90474800D03*
X121626520Y-90449400D03*
X183148320Y-95028797D03*
%TO.N,/ZRD-*%
X114263520Y-136772996D03*
X136688720Y-139649200D03*
X165898720Y-112095207D03*
X85722120Y-73660000D03*
X105522920Y-106553000D03*
X91502120Y-73713800D03*
X127138320Y-72584400D03*
%TO.N,/ZWR-*%
X131456320Y-114808000D03*
X110234620Y-114338100D03*
X93584920Y-68199000D03*
X115403520Y-134340600D03*
X131380120Y-136525000D03*
X148067920Y-114782600D03*
X128067269Y-67902051D03*
X98690320Y-100203000D03*
%TO.N,/ZM1-*%
X92848320Y-61747400D03*
X79843520Y-114630200D03*
X177100120Y-107340400D03*
%TO.N,/ZMREQ-*%
X134834520Y-109269399D03*
X128484520Y-74523600D03*
X155054321Y-109269399D03*
%TO.N,/ZIORQ-*%
X175007489Y-96425625D03*
X132294520Y-115378000D03*
X127773320Y-73583800D03*
X128967120Y-91490800D03*
X174918511Y-114556791D03*
X87840678Y-74230000D03*
%TO.N,/TD4*%
X126916120Y-56667400D03*
%TO.N,/TD5*%
X128241720Y-57505600D03*
%TO.N,/TD3*%
X129703720Y-54864000D03*
%TO.N,/TD6*%
X126715319Y-59597199D03*
%TO.N,/TD1*%
X124979320Y-48260000D03*
%TO.N,/TD7*%
X124609520Y-61671200D03*
%TO.N,/TD0*%
X125511366Y-47689622D03*
%TO.N,/TD2*%
X126416120Y-52298600D03*
%TO.N,/TWAIT-*%
X122540920Y-53340000D03*
X134176911Y-53545991D03*
X134732920Y-76098400D03*
X135215520Y-142468600D03*
%TO.N,/TWR-*%
X117384720Y-58078600D03*
X121347120Y-46736000D03*
%TO.N,/ZHALT-*%
X123175920Y-51181000D03*
X116267120Y-91541600D03*
X84390120Y-143259227D03*
%TO.N,/TIORQ-*%
X121728120Y-51155600D03*
X123506120Y-73228200D03*
%TO.N,/TINT-*%
X124217320Y-47701200D03*
X132167520Y-44715200D03*
X135621920Y-76098400D03*
%TO.N,/TRD-*%
X130359949Y-77578494D03*
X135569494Y-45540575D03*
X129703720Y-60107600D03*
X135672720Y-54114122D03*
%TO.N,/TNMI-*%
X124547520Y-55346600D03*
X139482720Y-68529200D03*
X124217320Y-67321200D03*
%TO.N,/TBREQ-*%
X120077120Y-53365400D03*
X136333120Y-76631800D03*
%TO.N,/TMREQ-*%
X124852320Y-72923400D03*
X122998120Y-48271200D03*
%TO.N,/JTDI_CO*%
X137704720Y-110591600D03*
X168006920Y-110032800D03*
%TO.N,/JTCK*%
X127417720Y-132765800D03*
X170198420Y-100526100D03*
X100823920Y-132740400D03*
%TO.N,/JTDO_CI*%
X138288920Y-118516400D03*
X109459920Y-128676400D03*
%TO.N,/JTMS*%
X141540120Y-108153200D03*
X125512720Y-127177800D03*
X141844920Y-127152400D03*
X162012520Y-108153200D03*
%TO.N,/JTD1O2I*%
X182873020Y-96084100D03*
X182586520Y-114198400D03*
%TO.N,/JTD2O3I*%
X115987720Y-138938000D03*
X133259720Y-134823200D03*
%TO.N,/RST-*%
X178954320Y-139700000D03*
X60310920Y-133934200D03*
%TO.N,/ZRST-*%
X179857184Y-105040535D03*
X111847520Y-75869800D03*
X131766274Y-75170309D03*
%TO.N,/MODINT-*%
X159382120Y-74625200D03*
X143597520Y-58648600D03*
X142225920Y-74676000D03*
%TO.N,/V3D7*%
X158303523Y-77536748D03*
X158812120Y-128416200D03*
%TO.N,/MRST-*%
X164857320Y-79832200D03*
X166482920Y-120269000D03*
%TO.N,/V3D1*%
X150596720Y-75754000D03*
X150557120Y-120243600D03*
%TO.N,/V3D5*%
X156272120Y-76073000D03*
X157491320Y-126734800D03*
%TO.N,/IOECLK*%
X142937120Y-129514600D03*
%TO.N,/V3D6*%
X158177120Y-127276200D03*
X157542120Y-76073000D03*
%TO.N,/MWTRQ-*%
X163422220Y-99771200D03*
%TO.N,/V3D3*%
X145477120Y-120269000D03*
X145477120Y-74055200D03*
X153732120Y-76073000D03*
X154163920Y-74055200D03*
%TO.N,/V3D4*%
X156348320Y-125958600D03*
X155002120Y-76073000D03*
%TO.N,/V3D0*%
X151344520Y-123266200D03*
X149222120Y-75793600D03*
%TO.N,/V3D2*%
X152462120Y-76073000D03*
X146747120Y-120269000D03*
X146137520Y-75195200D03*
%TO.N,/RFMR-*%
X156907120Y-108762800D03*
X106843720Y-110947200D03*
%TO.N,/TWAITB-*%
X133742320Y-80873600D03*
%TO.N,/TWAITRQ-*%
X162215720Y-90486000D03*
%TO.N,Net-(OP3-B)*%
X115606720Y-67321200D03*
%TO.N,/EXTBRKRQ-*%
X183718320Y-102514400D03*
X183729520Y-54356000D03*
%TO.N,Net-(OP1-C)*%
X103617920Y-80924400D03*
X124191920Y-84836000D03*
X124191920Y-80873600D03*
%TO.N,Net-(OP3-A)*%
X114387520Y-72237600D03*
X114362120Y-81443600D03*
X114387520Y-59410600D03*
%TO.N,/TGTONLY-*%
X158151720Y-90678000D03*
%TO.N,/SBC_GPI3*%
X98676120Y-67513200D03*
X101687520Y-122097800D03*
%TO.N,/SBCMODE-*%
X164475343Y-84902152D03*
X164758720Y-100126800D03*
%TO.N,/ZA10*%
X121628320Y-106451400D03*
X76643120Y-92125800D03*
X108951920Y-67778400D03*
X128941720Y-125857000D03*
%TO.N,/ZA14*%
X128371720Y-124333000D03*
X115062120Y-71551800D03*
X114336720Y-118948200D03*
X80453120Y-79222600D03*
X122650697Y-70705184D03*
X176699158Y-112687100D03*
%TO.N,/ZA9*%
X117183972Y-143094049D03*
X118308320Y-102900200D03*
X110425120Y-70967600D03*
X122896520Y-90982800D03*
X77913120Y-92151200D03*
X117410120Y-70916800D03*
%TO.N,/ZA12*%
X116608520Y-120156200D03*
X117449720Y-73177400D03*
X124282320Y-71023800D03*
%TO.N,/ZA15*%
X179411520Y-111379000D03*
X115936920Y-120650000D03*
X122820320Y-65423391D03*
X81723120Y-79197200D03*
X128027320Y-125095000D03*
%TO.N,/ZA13*%
X123362655Y-71023800D03*
X124369720Y-136499600D03*
X117562520Y-100482400D03*
X79259320Y-90500200D03*
X119173920Y-72121800D03*
%TO.N,/ZA8*%
X78765520Y-93141800D03*
X121996320Y-87969000D03*
X123607720Y-101371400D03*
X128382920Y-126415800D03*
X109541289Y-87969000D03*
%TO.N,/ZA11*%
X76643120Y-93624400D03*
X120915320Y-105881400D03*
X128128920Y-132105400D03*
X125258720Y-88392000D03*
X125487320Y-70993000D03*
%TO.N,/BRD_RST-*%
X172909120Y-104013000D03*
X131227720Y-76225400D03*
%TO.N,/ZA3*%
X126801422Y-129038698D03*
X169505520Y-112687100D03*
X95520000Y-106578400D03*
X95520000Y-92565079D03*
X93229320Y-137515600D03*
X122693320Y-141020800D03*
X126801422Y-114238000D03*
%TO.N,/ZA6*%
X127058771Y-130102149D03*
X176235218Y-96612111D03*
X98842720Y-82499200D03*
X123379120Y-104114600D03*
X72553720Y-80952800D03*
X97888863Y-103352600D03*
%TO.N,/ZA7*%
X136002920Y-101244400D03*
X179335320Y-100406200D03*
X136028320Y-143357600D03*
X71791720Y-80314800D03*
X100392120Y-82615000D03*
X121245520Y-82524600D03*
%TO.N,/ZA4*%
X66610120Y-82615000D03*
X97902920Y-105283000D03*
X130770520Y-143383000D03*
X96607520Y-82615000D03*
X130668920Y-102285800D03*
X97928320Y-100660200D03*
X170978720Y-104521000D03*
%TO.N,/ZA1*%
X122134520Y-141655800D03*
X118603920Y-67629000D03*
X92594320Y-141655800D03*
X118603920Y-91019400D03*
X128371721Y-112568299D03*
X119924720Y-102158800D03*
X96759920Y-89585800D03*
X96328120Y-109093000D03*
X167907518Y-112660200D03*
X96746080Y-92565079D03*
%TO.N,/ZA0*%
X98941493Y-88544400D03*
X102830520Y-88544400D03*
X122312320Y-70002400D03*
X97318863Y-110338067D03*
X95167408Y-138340314D03*
X104532320Y-69596000D03*
X128941720Y-134583400D03*
X162418920Y-85674200D03*
X169657920Y-84861400D03*
%TO.N,/ZA5*%
X67321320Y-81356200D03*
X128899546Y-140504174D03*
X129703720Y-83693000D03*
X97877520Y-82473800D03*
X175576120Y-98577400D03*
%TO.N,/ZA2*%
X126452520Y-91287600D03*
X122693320Y-142265400D03*
X91857720Y-143002000D03*
X168713619Y-112660200D03*
X121042320Y-70408800D03*
X128371720Y-113487200D03*
X96133042Y-92082810D03*
X96023320Y-107823000D03*
%TO.N,/ROM_SEL-*%
X105751520Y-81457800D03*
%TO.N,/RRA1*%
X166519520Y-89560400D03*
X65074920Y-87491905D03*
%TO.N,/ZD5*%
X136256920Y-66751200D03*
X169632520Y-103276400D03*
X169643720Y-93370400D03*
X145019920Y-68097400D03*
X96963120Y-129463800D03*
X107199320Y-115773200D03*
X113385720Y-115787400D03*
X118680120Y-138125200D03*
X99070029Y-137003052D03*
X154432120Y-84531200D03*
X112711120Y-66686200D03*
%TO.N,/ZD4*%
X170607218Y-103835150D03*
X170826320Y-95097600D03*
X134453520Y-85307400D03*
X83434830Y-143723110D03*
X105370520Y-114173000D03*
X106273720Y-98397800D03*
X153681320Y-84074000D03*
X102424120Y-142976600D03*
X135621920Y-69875400D03*
%TO.N,/ZD3*%
X136917320Y-83845400D03*
X121778920Y-133426200D03*
X106208720Y-115341400D03*
X103821120Y-63550800D03*
X152411320Y-83362800D03*
X135012320Y-66124051D03*
X171613720Y-105968800D03*
X106081720Y-99949000D03*
X153351120Y-105968800D03*
X100112720Y-131876800D03*
%TO.N,/RRA0*%
X167152041Y-89103978D03*
%TO.N,/ZD6*%
X104488812Y-65063390D03*
X137541322Y-83275400D03*
X112507920Y-142518000D03*
X136917320Y-65557400D03*
X171359720Y-86172400D03*
X105153956Y-142518000D03*
X107772320Y-120954800D03*
X105370520Y-111633000D03*
X156792820Y-84543900D03*
X169784920Y-106538800D03*
X115022520Y-142518000D03*
%TO.N,/RRA2*%
X65644920Y-86856800D03*
X166610730Y-88542386D03*
%TO.N,/ZD7*%
X103196126Y-143088000D03*
X138161920Y-82742000D03*
X182011120Y-112485161D03*
X104278320Y-119659400D03*
X182448320Y-88366600D03*
X103081729Y-64493391D03*
X158481920Y-84886800D03*
X98791920Y-110363000D03*
X111771320Y-143088000D03*
X137552320Y-64871600D03*
X115571769Y-143094049D03*
%TO.N,/ZD2*%
X151166720Y-83997800D03*
X122286920Y-130581400D03*
X134402720Y-69875400D03*
X99764384Y-130563312D03*
X151660520Y-70485000D03*
X95743920Y-114096800D03*
X152781120Y-99593400D03*
X173569520Y-99187000D03*
%TO.N,/ZD0*%
X148118720Y-84988400D03*
X99071320Y-131928000D03*
X139228720Y-108699399D03*
X133107320Y-70866000D03*
X167011345Y-110078625D03*
X120889920Y-132195800D03*
X147932120Y-73471000D03*
%TO.N,/ZD1*%
X152004920Y-106639000D03*
X149922120Y-84023200D03*
X99477720Y-132740400D03*
X116613972Y-136985200D03*
X149922120Y-71055000D03*
X95743920Y-112903000D03*
X133738425Y-70284197D03*
X177811320Y-107923997D03*
X137603120Y-116992400D03*
X137134720Y-106426000D03*
%TO.N,/MOD_SEL-*%
X162369987Y-84367600D03*
X165898720Y-98044000D03*
%TO.N,/ROM_SEL*%
X109891720Y-77927200D03*
X168032320Y-87426800D03*
%TO.N,/SYNC*%
X183018320Y-80873600D03*
X110577520Y-77535000D03*
%TO.N,/ZINT-*%
X110044120Y-95783400D03*
X176719120Y-98221800D03*
%TO.N,/ZNMI-*%
X178203393Y-99198073D03*
%TO.N,/ZBREQ-*%
X177423505Y-99184707D03*
%TO.N,Net-(U2-Q2)*%
X148042520Y-120269000D03*
X146772520Y-77535000D03*
X161885520Y-77241400D03*
%TO.N,Net-(U2-Q1)*%
X159447120Y-76950800D03*
X149312520Y-120269000D03*
X149312520Y-76950800D03*
%TO.N,/LRST-*%
X134545642Y-139079201D03*
X110679120Y-135153400D03*
X102678120Y-135128000D03*
X184288320Y-136702800D03*
X184288320Y-92735400D03*
X131950120Y-135153400D03*
%TO.N,/ATTN*%
X183348520Y-113284000D03*
%TO.N,/TDBUSIN-*%
X167740220Y-100674400D03*
X169073720Y-78155800D03*
X132459620Y-69850000D03*
%TO.N,/TDBUSEN-*%
X161021920Y-71170800D03*
X133107320Y-67614800D03*
X161021920Y-87731600D03*
%TO.N,/RAM_SEL-*%
X105345120Y-109118400D03*
X171715320Y-116357400D03*
X172324920Y-92710000D03*
%TO.N,/SBC_GPI0*%
X92340320Y-56337200D03*
X108345920Y-127076200D03*
%TO.N,/SBC_GPO0*%
X108113720Y-140220500D03*
X89241520Y-61112400D03*
X90130520Y-139192000D03*
%TO.N,/SBC_GPO3*%
X92772120Y-66903600D03*
X105649920Y-138836400D03*
X92086320Y-134340600D03*
%TO.N,/SBC_GPO2*%
X90350000Y-66929000D03*
X102526743Y-138318223D03*
X91287720Y-139192000D03*
%TO.N,/SBC_GPI2*%
X101636720Y-127711200D03*
X93713878Y-57008800D03*
%TO.N,/SBC_GPI1*%
X110983920Y-129057400D03*
X93089620Y-55854600D03*
%TO.N,/SBC_GPO1*%
X106366720Y-136671800D03*
X93799320Y-138328400D03*
X89952720Y-62357000D03*
%TO.N,/TGTMODE-*%
X90717720Y-138404600D03*
X100442920Y-84263000D03*
X181976920Y-134162800D03*
X81723120Y-84263000D03*
X104824120Y-134328200D03*
X81697720Y-88138000D03*
%TO.N,/TBREQB-*%
X160039881Y-81178400D03*
X160767920Y-91516200D03*
X136256920Y-80899000D03*
%TO.N,/TNMIB-*%
X160161669Y-80362251D03*
X139177920Y-80340200D03*
X161428320Y-91059000D03*
%TO.N,/PC_LATCH-*%
X164298520Y-101904800D03*
X94067520Y-77952600D03*
X163905343Y-87184000D03*
%TO.N,/TINTB-*%
X158899881Y-88986000D03*
X158710520Y-81502800D03*
X135023520Y-81330800D03*
%TO.N,/SBC_IO*%
X165289120Y-89154000D03*
X165314520Y-137555200D03*
X101763720Y-137555200D03*
%TO.N,/TGT_NOW*%
X140854320Y-129883552D03*
X140905120Y-112095207D03*
X164323920Y-108991400D03*
X99071320Y-133502400D03*
%TO.N,/BRK_DEQ*%
X100913502Y-143260000D03*
X163384120Y-140462000D03*
X163075414Y-107452604D03*
%TO.N,Net-(R29-Pad2)*%
X83018520Y-74218800D03*
X81570720Y-51333400D03*
X113701720Y-72694800D03*
%TO.N,Net-(R34-Pad2)*%
X116597320Y-58078600D03*
X91375120Y-58089800D03*
%TO.N,/TCBUSEN-*%
X126122320Y-76225400D03*
X161809320Y-78725800D03*
X161799987Y-87676682D03*
%TO.N,/TCBUSFEN-*%
X125512720Y-77535000D03*
%TO.N,/ZRST*%
X121016920Y-62484000D03*
X113281120Y-71653400D03*
X108977320Y-62484000D03*
%TO.N,/BRK1_AEQ*%
X162799920Y-108280200D03*
X162805341Y-118630532D03*
%TO.N,/BRKN_AEQ*%
X162037920Y-118491000D03*
X162037920Y-110003307D03*
%TO.N,/ZID_IO*%
X160488520Y-127685800D03*
X105421320Y-136855200D03*
X160497286Y-97580000D03*
X107326320Y-127711200D03*
X116622720Y-127635000D03*
%TO.N,/MEM_OP*%
X136598320Y-107569000D03*
X161457832Y-107578163D03*
X112126920Y-132195800D03*
X112126920Y-117652800D03*
X136598320Y-117652800D03*
%TO.N,/PCRD_DIN*%
X97852120Y-91313000D03*
%TO.N,Net-(U12-Ds)*%
X79833519Y-78748787D03*
X101193720Y-78574900D03*
%TD*%
D73*
%TO.N,+5V*%
X104394000Y-50536520D02*
X103973520Y-50957000D01*
X104394000Y-48514000D02*
X104394000Y-50536520D01*
X94234000Y-50049320D02*
X93432520Y-50850800D01*
X94234000Y-48514000D02*
X94234000Y-50049320D01*
X94234000Y-48514000D02*
X94234000Y-45974000D01*
X91694000Y-48514000D02*
X94234000Y-48514000D01*
X91694000Y-45974000D02*
X91694000Y-48514000D01*
X94234000Y-45974000D02*
X91694000Y-45974000D01*
D74*
%TO.N,/ZRFSH-*%
X108059738Y-44708400D02*
X106846647Y-45921491D01*
X118206120Y-44708400D02*
X108059738Y-44708400D01*
X118416120Y-44918400D02*
X118206120Y-44708400D01*
D73*
%TO.N,GND*%
X158924120Y-126231001D02*
X158924120Y-125476001D01*
X133094620Y-75181348D02*
X133766120Y-75852848D01*
X133628947Y-124044385D02*
X134005332Y-123668000D01*
X129512968Y-76928494D02*
X131066661Y-76928494D01*
X155398984Y-134223136D02*
X155398984Y-132901556D01*
X122438389Y-123966422D02*
X122445732Y-123959079D01*
X107496647Y-47796492D02*
X107496647Y-49175658D01*
X142937120Y-119668386D02*
X142945771Y-119659735D01*
X137005856Y-100693000D02*
X138569121Y-100693000D01*
X177878707Y-93103445D02*
X177325543Y-93103445D01*
X84137680Y-80710000D02*
X84547119Y-80300561D01*
X114044620Y-68894000D02*
X114044620Y-67556767D01*
X133766120Y-75852848D02*
X133766120Y-76812556D01*
X127296759Y-93459855D02*
X124765399Y-90928495D01*
X176485120Y-50101408D02*
X177119658Y-50735945D01*
X93537120Y-115443000D02*
X95626007Y-115443000D01*
X131077855Y-60397795D02*
X131077855Y-61627065D01*
X169975120Y-127254000D02*
X168477209Y-127254000D01*
X181164120Y-119385500D02*
X181164120Y-118198299D01*
X118185363Y-60966771D02*
X118185363Y-61527044D01*
X177325543Y-93103445D02*
X176373388Y-92151290D01*
X176485120Y-49405000D02*
X176485120Y-50101408D01*
X77532120Y-134723500D02*
X74357120Y-134723500D01*
X89205767Y-84400852D02*
X88569545Y-85037074D01*
X136418910Y-131941232D02*
X136803780Y-132326102D01*
X177227120Y-137684000D02*
X177227120Y-137043728D01*
X170085120Y-50770326D02*
X169495218Y-51360228D01*
D75*
X76643120Y-82008622D02*
X76324960Y-82326782D01*
D73*
X164546657Y-119414939D02*
X164546657Y-117178537D01*
X181264261Y-135215522D02*
X178550642Y-135215522D01*
X94359620Y-60775756D02*
X95002750Y-61418886D01*
X170085120Y-49405000D02*
X170085120Y-50770326D01*
X126109620Y-69941301D02*
X126450336Y-70282017D01*
X158812120Y-86614000D02*
X158812120Y-87992870D01*
X151827120Y-134620000D02*
X151827120Y-132917501D01*
X82993120Y-80710000D02*
X84137680Y-80710000D01*
X159746365Y-129049328D02*
X159746365Y-127053246D01*
X68007120Y-134723500D02*
X71182120Y-134723500D01*
D75*
X76324960Y-82326782D02*
X74660206Y-82326782D01*
D73*
X101087154Y-131797730D02*
X101821217Y-132531793D01*
X131066661Y-76928494D02*
X131675723Y-77537556D01*
D75*
X88644620Y-58800527D02*
X88629047Y-58784954D01*
D73*
X129986120Y-47057374D02*
X130058575Y-46984919D01*
D76*
X178021620Y-60453601D02*
X178911712Y-59563509D01*
D73*
X134091115Y-133881692D02*
X135646705Y-132326102D01*
X92797520Y-82094100D02*
X90490768Y-84400852D01*
D75*
X93389827Y-82600258D02*
X92797520Y-82007951D01*
D73*
X115632120Y-79499000D02*
X115632120Y-83517856D01*
X133670423Y-131941232D02*
X136418910Y-131941232D01*
X101518524Y-62168616D02*
X101515682Y-62171458D01*
X168286320Y-84409175D02*
X167758095Y-84937400D01*
X98783474Y-138790617D02*
X98469626Y-138476769D01*
X168477209Y-127254000D02*
X168451776Y-127279433D01*
X181164120Y-118198299D02*
X182106120Y-117256299D01*
X155002120Y-134620000D02*
X155398984Y-134223136D01*
X83120120Y-134743497D02*
X83110491Y-134733868D01*
X81088120Y-132842000D02*
X81088120Y-134342500D01*
D75*
X88644620Y-60004000D02*
X88644620Y-58800527D01*
D73*
X89279620Y-54804000D02*
X89279620Y-55704000D01*
X140608432Y-67438887D02*
X138975821Y-67438887D01*
X160717120Y-77441407D02*
X160717461Y-77441748D01*
X167067120Y-122109000D02*
X174052000Y-122109000D01*
X163766198Y-132836078D02*
X164582704Y-132836078D01*
X120394620Y-73341084D02*
X120058477Y-73004941D01*
X175736926Y-109729864D02*
X173684120Y-107677058D01*
X67738449Y-130062670D02*
X69277120Y-128523999D01*
X78802120Y-64275000D02*
X81329120Y-64275000D01*
X120871948Y-123966422D02*
X122438389Y-123966422D01*
X131077855Y-61627065D02*
X130368720Y-62336200D01*
X175736926Y-109737901D02*
X175736926Y-109729864D01*
X163004120Y-132074000D02*
X163766198Y-132836078D01*
X163130120Y-124447000D02*
X164527120Y-123050000D01*
X90357109Y-84400852D02*
X89205767Y-84400852D01*
X165797120Y-122109000D02*
X167067120Y-122109000D01*
X138569121Y-100693000D02*
X140016120Y-102139999D01*
X128986120Y-47165567D02*
X128823765Y-47003212D01*
X120394620Y-74489000D02*
X120394620Y-73341084D01*
X95626007Y-115443000D02*
X95662022Y-115479015D01*
X141123053Y-67953508D02*
X140608432Y-67438887D01*
X138174620Y-77877944D02*
X139109169Y-76943395D01*
X144303580Y-81547000D02*
X141077065Y-84773515D01*
X85902315Y-50342315D02*
X84074000Y-48514000D01*
X170703811Y-93866218D02*
X170706702Y-93869109D01*
X168616520Y-64299800D02*
X168616520Y-62886591D01*
X95856178Y-142801723D02*
X94670771Y-142801723D01*
X138174620Y-68240088D02*
X138975821Y-67438887D01*
X170703811Y-89220533D02*
X170703811Y-88014571D01*
X168286320Y-83580400D02*
X168286320Y-84409175D01*
X81088120Y-134342500D02*
X80707120Y-134723500D01*
X168055248Y-103793344D02*
X167564150Y-104284442D01*
X107496647Y-49175658D02*
X107540000Y-49219011D01*
X145096120Y-81547000D02*
X144303580Y-81547000D01*
X138405519Y-87458862D02*
X139142377Y-86722004D01*
X163004120Y-131074000D02*
X163004120Y-132074000D01*
X179219602Y-52832000D02*
X179217657Y-52833945D01*
X128906700Y-77534762D02*
X129512968Y-76928494D01*
X164527120Y-123050000D02*
X164527120Y-122109000D01*
X160606450Y-95823554D02*
X159477120Y-96952884D01*
X80707120Y-134723500D02*
X77532120Y-134723500D01*
X92797520Y-80710000D02*
X92797520Y-82094100D01*
X176814120Y-58491941D02*
X176802399Y-58503662D01*
X118185363Y-61527044D02*
X118740832Y-62082513D01*
X128986120Y-49530000D02*
X128986120Y-47165567D01*
X74584634Y-76632048D02*
X78624072Y-76632048D01*
X126109620Y-68894000D02*
X126109620Y-69941301D01*
X133766120Y-76812556D02*
X133041120Y-77537556D01*
X88569545Y-85037074D02*
X88569545Y-85762609D01*
X142937120Y-121488000D02*
X142937120Y-119668386D01*
X138405519Y-87975924D02*
X138405519Y-87458862D01*
X175502333Y-103595998D02*
X176552642Y-103595998D01*
X135646705Y-132326102D02*
X136803780Y-132326102D01*
X174052000Y-122109000D02*
X175514000Y-123571000D01*
X128449249Y-93459855D02*
X127296759Y-93459855D01*
X115632120Y-83517856D02*
X116762120Y-84647856D01*
X159509693Y-129286000D02*
X159746365Y-129049328D01*
X170703811Y-88014571D02*
X170669176Y-87979936D01*
X88868948Y-56114672D02*
X88232874Y-56114672D01*
X101087154Y-131139949D02*
X101087154Y-131797730D01*
X168055248Y-102624995D02*
X168055248Y-103793344D01*
X114206642Y-84647856D02*
X114181493Y-84622707D01*
X145477120Y-132910640D02*
X145486204Y-132901556D01*
X161120059Y-119414939D02*
X164546657Y-119414939D01*
X132422451Y-124044385D02*
X133628947Y-124044385D01*
X77532120Y-134723500D02*
X77532120Y-133580142D01*
D75*
X74103120Y-81769696D02*
X74103120Y-80710000D01*
D73*
X176552642Y-103595998D02*
X176671821Y-103476819D01*
X74584634Y-76771299D02*
X74103120Y-77252813D01*
D75*
X95337520Y-80710000D02*
X95337520Y-81962537D01*
D73*
X181275783Y-135204000D02*
X181264261Y-135215522D01*
X83120120Y-136717000D02*
X83120120Y-134743497D01*
X160590120Y-118885000D02*
X161120059Y-119414939D01*
X157822120Y-129286000D02*
X159509693Y-129286000D01*
X148652120Y-134620000D02*
X148652120Y-132918707D01*
X116762120Y-84647856D02*
X114206642Y-84647856D01*
X151827120Y-132917501D02*
X151824895Y-132915276D01*
X131675723Y-77537556D02*
X133041120Y-77537556D01*
X105227215Y-95068168D02*
X106037447Y-95878400D01*
X163907321Y-83636900D02*
X163696679Y-83847542D01*
X133094620Y-74489000D02*
X133094620Y-75181348D01*
X138174620Y-68894000D02*
X138174620Y-68240088D01*
D75*
X93430763Y-82559322D02*
X93389827Y-82600258D01*
D73*
X176851532Y-100215835D02*
X177752041Y-100215835D01*
D75*
X94740735Y-82559322D02*
X93430763Y-82559322D01*
D73*
X145477120Y-134620000D02*
X145477120Y-132910640D01*
X177752041Y-100215835D02*
X178281422Y-100745216D01*
X105247684Y-88631234D02*
X105247684Y-90885540D01*
X138174620Y-79689000D02*
X138174620Y-77877944D01*
X130823428Y-139049555D02*
X129801030Y-139049555D01*
X77532120Y-133580142D02*
X77706862Y-133405400D01*
X158812120Y-87992870D02*
X158014638Y-88790352D01*
X131460920Y-138412063D02*
X130823428Y-139049555D01*
D76*
X176814120Y-56896000D02*
X176814120Y-58491941D01*
D73*
X164527120Y-122109000D02*
X165797120Y-122109000D01*
D75*
X74660206Y-82326782D02*
X74103120Y-81769696D01*
D73*
X170703811Y-89220533D02*
X170703811Y-93866218D01*
X159477120Y-96952884D02*
X159477120Y-98129648D01*
X159746365Y-127053246D02*
X158924120Y-126231001D01*
D75*
X92797520Y-82007951D02*
X92797520Y-80710000D01*
D73*
X105227215Y-90906009D02*
X105227215Y-95068168D01*
X102715304Y-62168616D02*
X101518524Y-62168616D01*
X160717120Y-76071500D02*
X160717120Y-77441407D01*
X113313686Y-136834401D02*
X113336428Y-136811659D01*
X180672120Y-52832000D02*
X179219602Y-52832000D01*
D75*
X76643120Y-80710000D02*
X76643120Y-82008622D01*
D73*
X67738449Y-131207229D02*
X67738449Y-130062670D01*
X99734633Y-138790617D02*
X98783474Y-138790617D01*
X160606450Y-95823554D02*
X166828811Y-95823554D01*
X71182120Y-133444365D02*
X71182120Y-134723500D01*
X135007720Y-52066253D02*
X136696723Y-52066253D01*
X177119658Y-50735945D02*
X179217657Y-52833945D01*
X105247684Y-90885540D02*
X105227215Y-90906009D01*
X74357120Y-134723500D02*
X71182120Y-134723500D01*
D75*
X95337520Y-81962537D02*
X94740735Y-82559322D01*
D73*
X85902315Y-52546345D02*
X85902315Y-50342315D01*
X129986120Y-49530000D02*
X129986120Y-47057374D01*
D76*
X178021620Y-62738000D02*
X178021620Y-60453601D01*
D73*
X168616520Y-62886591D02*
X167432718Y-61702789D01*
X94359620Y-60004000D02*
X94359620Y-60775756D01*
X148652120Y-132918707D02*
X148648689Y-132915276D01*
X74103120Y-77252813D02*
X74103120Y-80710000D01*
X114044620Y-67556767D02*
X114044137Y-67556284D01*
X112088479Y-136834401D02*
X113313686Y-136834401D01*
X163696679Y-83847542D02*
X163696679Y-85301291D01*
X177227120Y-137043728D02*
X176242701Y-136059309D01*
X89279620Y-55704000D02*
X88868948Y-56114672D01*
X183789120Y-135204000D02*
X181275783Y-135204000D01*
%TO.N,+3.3V*%
X158661620Y-123190000D02*
X154875120Y-123190000D01*
X163081120Y-117335000D02*
X163257120Y-117159000D01*
X145834620Y-70731700D02*
X144922920Y-69820000D01*
X147382120Y-79689000D02*
X145404120Y-79689000D01*
X163907321Y-81361900D02*
X163907321Y-76616599D01*
X156272120Y-129286000D02*
X154519520Y-129286000D01*
X169988120Y-114554000D02*
X170318320Y-114223800D01*
X160450120Y-117335000D02*
X159650320Y-116535200D01*
X172989120Y-69777600D02*
X172985320Y-69773800D01*
X165519620Y-126058300D02*
X164323920Y-127254000D01*
X165204120Y-131074000D02*
X165204120Y-126299500D01*
X163907321Y-76616599D02*
X163917520Y-76606400D01*
X154519520Y-129286000D02*
X154367120Y-129438400D01*
X160717120Y-72776090D02*
X160727410Y-72765800D01*
X168286320Y-81305400D02*
X168286320Y-79654400D01*
X165519620Y-125984000D02*
X163143120Y-125984000D01*
X145115020Y-78504900D02*
X144003920Y-77393800D01*
X174433120Y-69397400D02*
X178450920Y-65379600D01*
X154367120Y-130988000D02*
X154367120Y-132994400D01*
X142302120Y-134620000D02*
X142302120Y-132740400D01*
X174371000Y-127254000D02*
X175514000Y-126111000D01*
X168286320Y-79654400D02*
X168260920Y-79629000D01*
X145115020Y-79978100D02*
X145115020Y-78504900D01*
X166927120Y-65849800D02*
X168616520Y-65849800D01*
X145404120Y-79689000D02*
X145096120Y-79997000D01*
X168868620Y-114554000D02*
X169988120Y-114554000D01*
X172989120Y-71374000D02*
X172989120Y-73914000D01*
X172989120Y-71374000D02*
X172989120Y-69777600D01*
X160590120Y-117335000D02*
X163081120Y-117335000D01*
X160717120Y-74296500D02*
X160717120Y-72776090D01*
X154367120Y-129438400D02*
X154367120Y-130988000D01*
X145834620Y-72009000D02*
X145834620Y-70731700D01*
X142302120Y-132740400D02*
X141971920Y-132410200D01*
X178450920Y-65379600D02*
X180937420Y-65379600D01*
X172989120Y-73914000D02*
X172989120Y-76454000D01*
X166914720Y-65862200D02*
X166927120Y-65849800D01*
X171525120Y-127254000D02*
X174371000Y-127254000D01*
%TO.N,+5V*%
X78802120Y-62725000D02*
X79451885Y-62075235D01*
X173952333Y-104900960D02*
X174250720Y-105199347D01*
X65936500Y-78192522D02*
X65936500Y-76454000D01*
X104265304Y-62168616D02*
X106731116Y-62168616D01*
X119735363Y-60966771D02*
X119735363Y-63034743D01*
X147786620Y-98196400D02*
X147786620Y-99918000D01*
X131778108Y-119557800D02*
X125233320Y-119557800D01*
X121484967Y-54252500D02*
X122891556Y-55659089D01*
X105945320Y-70688200D02*
X104556701Y-70688200D01*
X71812395Y-76632048D02*
X71779029Y-76665414D01*
D75*
X122934620Y-78112830D02*
X122977718Y-78069732D01*
D73*
X120871948Y-127159570D02*
X120869273Y-127162245D01*
X128906700Y-75984762D02*
X130402462Y-74489000D01*
D76*
X182114119Y-121955599D02*
X183094520Y-122936000D01*
D73*
X108012120Y-72755000D02*
X105945320Y-70688200D01*
X119717016Y-63034743D02*
X119553944Y-63197815D01*
X119735363Y-63034743D02*
X120394620Y-63694000D01*
X126109620Y-79689000D02*
X127675947Y-79689000D01*
X139013120Y-99143000D02*
X140016120Y-98140000D01*
X88327120Y-88106445D02*
X88327120Y-90424000D01*
X119782720Y-83809217D02*
X120527720Y-84554217D01*
X120871948Y-125516422D02*
X120871948Y-127159570D01*
X179428707Y-93103445D02*
X179428707Y-93793386D01*
X104556701Y-70688200D02*
X104548400Y-70696501D01*
X90740120Y-141667000D02*
X90740120Y-143407690D01*
D75*
X125233320Y-119557800D02*
X125207920Y-119532400D01*
D73*
X101027120Y-56671576D02*
X102133143Y-57777599D01*
X110538479Y-136834401D02*
X109465646Y-136834401D01*
X163068236Y-94273554D02*
X163076291Y-94281609D01*
D76*
X169962720Y-62738000D02*
X169226120Y-62001400D01*
D73*
X79144500Y-58928000D02*
X79144500Y-60897880D01*
X132908156Y-120687848D02*
X132908156Y-122008680D01*
X165382378Y-102624995D02*
X165353952Y-102653421D01*
X126958620Y-84836000D02*
X128628878Y-84836000D01*
X128251030Y-139049555D02*
X127193604Y-139049555D01*
X135641115Y-133922193D02*
X134753720Y-134809588D01*
X90357109Y-86076456D02*
X88327120Y-88106445D01*
X127193604Y-139049555D02*
X127128249Y-138984200D01*
X160606450Y-94273554D02*
X163068236Y-94273554D01*
X74103120Y-85660000D02*
X71221568Y-85660000D01*
X176851532Y-101765835D02*
X178012539Y-101765835D01*
X130402462Y-74489000D02*
X132459620Y-74489000D01*
X104963263Y-96393000D02*
X102043120Y-96393000D01*
X65949370Y-62992000D02*
X65272169Y-63669201D01*
X124014120Y-54252500D02*
X121220120Y-54252500D01*
X66188449Y-142086771D02*
X66403823Y-142302145D01*
X101027120Y-56411500D02*
X98487120Y-56411500D01*
X82993120Y-88900000D02*
X84517120Y-90424000D01*
X173952333Y-103595998D02*
X173952333Y-104900960D01*
X109465646Y-136834401D02*
X109461098Y-136829853D01*
X127675947Y-79689000D02*
X128366374Y-80379427D01*
X73034634Y-76632048D02*
X71812395Y-76632048D01*
X119782720Y-80300900D02*
X119782720Y-83809217D01*
X120527720Y-84554217D02*
X118405759Y-84554217D01*
X82993120Y-85660000D02*
X82993120Y-88900000D01*
X110774882Y-53981244D02*
X111132522Y-54338884D01*
X73034634Y-77143234D02*
X70768955Y-79408913D01*
X119735363Y-63034743D02*
X119717016Y-63034743D01*
X90357109Y-85950852D02*
X91588001Y-85950852D01*
X110774882Y-52324000D02*
X110774882Y-53981244D01*
X141123053Y-69503508D02*
X141123053Y-71609708D01*
X102963888Y-139345200D02*
X101839216Y-139345200D01*
X79181220Y-62345900D02*
X78802120Y-62725000D01*
X133670423Y-130391232D02*
X133670423Y-129320672D01*
X138405519Y-89525924D02*
X138405519Y-96529399D01*
X87936965Y-54096345D02*
X88644620Y-54804000D01*
X147786620Y-103464300D02*
X148652120Y-104329800D01*
X102637154Y-131139949D02*
X102637154Y-132058228D01*
X104858786Y-85604722D02*
X104803508Y-85660000D01*
X141123053Y-71609708D02*
X140821635Y-71911126D01*
D76*
X172814120Y-56896000D02*
X170115120Y-56896000D01*
D73*
X132908156Y-122008680D02*
X132422451Y-122494385D01*
X85902315Y-54096345D02*
X87936965Y-54096345D01*
X172134120Y-107677058D02*
X170514415Y-107677058D01*
X147786620Y-96743000D02*
X147786620Y-98196400D01*
X132947893Y-62219473D02*
X133064620Y-62336200D01*
X132459620Y-74489000D02*
X132459620Y-75571653D01*
X166505248Y-102624995D02*
X165382378Y-102624995D01*
X91878853Y-85660000D02*
X92797520Y-85660000D01*
X128906700Y-75984762D02*
X126109620Y-78781842D01*
X170514415Y-107677058D02*
X170362476Y-107828997D01*
X125233320Y-119557800D02*
X123047529Y-119557800D01*
X142790119Y-44450000D02*
X151344520Y-44450000D01*
X120871948Y-125516422D02*
X122434882Y-125516422D01*
X147786620Y-93568000D02*
X147786620Y-95097600D01*
X71221568Y-85660000D02*
X71047041Y-85834527D01*
X104803508Y-85660000D02*
X101687520Y-85660000D01*
X122434882Y-125516422D02*
X122454829Y-125496475D01*
X173544972Y-89220533D02*
X173563166Y-89238727D01*
X91536048Y-141667000D02*
X90740120Y-141667000D01*
X79181220Y-60934600D02*
X79181220Y-62345900D01*
X132459620Y-62219473D02*
X132947893Y-62219473D01*
X147786620Y-103468100D02*
X146924920Y-104329800D01*
X90740120Y-143407690D02*
X90755025Y-143422595D01*
X79451885Y-62075235D02*
X87283355Y-62075235D01*
X147786620Y-99918000D02*
X147786620Y-101447600D01*
X120394620Y-79689000D02*
X119782720Y-80300900D01*
X108278106Y-63694000D02*
X106741919Y-62157813D01*
X133670423Y-129320672D02*
X133929688Y-129061407D01*
X132459620Y-62219473D02*
X132459620Y-63694000D01*
X132908156Y-120687848D02*
X131778108Y-119557800D01*
X85902315Y-55368174D02*
X85896250Y-55374239D01*
D76*
X170115120Y-56896000D02*
X169226120Y-56007000D01*
D73*
X105247684Y-87081234D02*
X105247684Y-85993620D01*
X87283355Y-62075235D02*
X89216120Y-64008000D01*
X172253811Y-89220533D02*
X173544972Y-89220533D01*
X105247684Y-85993620D02*
X104858786Y-85604722D01*
X68007120Y-142923501D02*
X67025179Y-142923501D01*
X137005856Y-99143000D02*
X139013120Y-99143000D01*
X83488633Y-132842000D02*
X84052033Y-133405400D01*
X132459620Y-60566030D02*
X132459620Y-62219473D01*
X102972650Y-139336438D02*
X102963888Y-139345200D01*
D75*
X122934620Y-79689000D02*
X122934620Y-78112830D01*
D73*
X66188449Y-131207229D02*
X66188449Y-142086771D01*
X121220120Y-54252500D02*
X119188120Y-54252500D01*
X179428707Y-93793386D02*
X178755451Y-94466642D01*
X67025179Y-142923501D02*
X66403823Y-142302145D01*
X82638120Y-132842000D02*
X83488633Y-132842000D01*
X138405519Y-96529399D02*
X140016120Y-98140000D01*
X93120771Y-142801723D02*
X92670771Y-142801723D01*
X79144500Y-56388000D02*
X79144500Y-58928000D01*
X73034634Y-76632048D02*
X73034634Y-77143234D01*
X108012120Y-74549000D02*
X108012120Y-72755000D01*
X123047529Y-119557800D02*
X122533715Y-119043986D01*
D75*
X121664620Y-78052959D02*
X121640456Y-78028795D01*
D73*
X128635873Y-84829005D02*
X128994420Y-85187552D01*
X132459620Y-75571653D02*
X133041120Y-76153153D01*
X67152891Y-79408913D02*
X65936500Y-78192522D01*
X126109620Y-78781842D02*
X126109620Y-79689000D01*
X147786620Y-95097600D02*
X147786620Y-96743000D01*
X102637154Y-132058228D02*
X103110719Y-132531793D01*
X106731116Y-62168616D02*
X106741919Y-62157813D01*
D76*
X171606620Y-62738000D02*
X169962720Y-62738000D01*
D73*
X128628878Y-84836000D02*
X128635873Y-84829005D01*
X70768955Y-79408913D02*
X67152891Y-79408913D01*
X147786620Y-101447600D02*
X147786620Y-103093000D01*
X103567120Y-56411500D02*
X101027120Y-56411500D01*
X104429153Y-98933000D02*
X105966208Y-97395945D01*
X91588001Y-85950852D02*
X91878853Y-85660000D01*
X85902315Y-54096345D02*
X85902315Y-55368174D01*
X92670771Y-142801723D02*
X91536048Y-141667000D01*
X178012539Y-101765835D02*
X178138144Y-101891440D01*
D75*
X121664620Y-79689001D02*
X121664620Y-78052959D01*
D73*
X101839216Y-139345200D02*
X101284633Y-138790617D01*
X105966208Y-97395945D02*
X104963263Y-96393000D01*
X66967620Y-62992000D02*
X65949370Y-62992000D01*
X128994420Y-85187552D02*
X128994420Y-89966800D01*
D74*
%TO.N,Net-(LED10-K)*%
X155002120Y-141048499D02*
X155002120Y-136445000D01*
%TO.N,Net-(LED10-A)*%
X153097120Y-141018501D02*
X153097120Y-130988000D01*
X155002120Y-142923501D02*
X153097120Y-141018501D01*
%TO.N,Net-(LED9-K)*%
X151827120Y-141048499D02*
X151827120Y-136445000D01*
%TO.N,Net-(LED9-A)*%
X149642120Y-140738501D02*
X149642120Y-131343000D01*
X149642120Y-131343000D02*
X149287120Y-130988000D01*
X151827120Y-142923501D02*
X149642120Y-140738501D01*
%TO.N,Net-(LED6-K)*%
X148652120Y-141048499D02*
X148652120Y-136445000D01*
%TO.N,Net-(LED6-A)*%
X147662120Y-131343000D02*
X148017120Y-130988000D01*
X147662120Y-141933501D02*
X147662120Y-131343000D01*
X148652120Y-142923501D02*
X147662120Y-141933501D01*
%TO.N,Net-(LED7-A)*%
X145477120Y-142923501D02*
X144207120Y-141653501D01*
X144207120Y-141653501D02*
X144207120Y-130988000D01*
%TO.N,Net-(LED7-K)*%
X145477120Y-141048499D02*
X145477120Y-136445000D01*
%TO.N,Net-(LED8-K)*%
X143507120Y-122638000D02*
X144207120Y-121938000D01*
X143507120Y-141718501D02*
X143507120Y-122638000D01*
X142302120Y-142923501D02*
X143507120Y-141718501D01*
%TO.N,Net-(LED8-A)*%
X142302120Y-141048499D02*
X142302120Y-136445000D01*
%TO.N,Net-(LED4-A)*%
X81863315Y-132398555D02*
X81863315Y-141515605D01*
X84960120Y-138060200D02*
X84960120Y-132428433D01*
X81291320Y-142087600D02*
X72121920Y-142087600D01*
X84960120Y-132428433D02*
X84345412Y-131813725D01*
X88200120Y-138023600D02*
X87666720Y-138557000D01*
X81863315Y-141515605D02*
X81291320Y-142087600D01*
X72043421Y-142062200D02*
X71182120Y-142923501D01*
X87666720Y-138557000D02*
X85456920Y-138557000D01*
X85456920Y-138557000D02*
X84960120Y-138060200D01*
X88200120Y-136717000D02*
X88200120Y-138023600D01*
X72096520Y-142062200D02*
X72043421Y-142062200D01*
X82448145Y-131813725D02*
X81863315Y-132398555D01*
X84345412Y-131813725D02*
X82448145Y-131813725D01*
X72121920Y-142087600D02*
X72096520Y-142062200D01*
%TO.N,Net-(LED4-K)*%
X71182120Y-141048499D02*
X71182120Y-136548500D01*
%TO.N,Net-(LED2-K)*%
X80707120Y-141048499D02*
X80707120Y-136548500D01*
%TO.N,Net-(LED2-A)*%
X82004819Y-142923501D02*
X80707120Y-142923501D01*
X84390120Y-138823872D02*
X82550120Y-140663872D01*
X82550120Y-140663872D02*
X82550120Y-142378200D01*
X84390120Y-136717000D02*
X84390120Y-138823872D01*
X82550120Y-142378200D02*
X82004819Y-142923501D01*
%TO.N,Net-(LED5-A)*%
X82161719Y-143681001D02*
X78289620Y-143681001D01*
X78289620Y-143681001D02*
X77532120Y-142923501D01*
X83120120Y-142722600D02*
X82161719Y-143681001D01*
X83120120Y-141667000D02*
X83120120Y-142722600D01*
%TO.N,Net-(LED5-K)*%
X77532120Y-141048499D02*
X77532120Y-136548500D01*
%TO.N,Net-(LED1-K)*%
X74357120Y-141048499D02*
X74357120Y-136548500D01*
%TO.N,Net-(LED1-A)*%
X84786648Y-140360400D02*
X84123592Y-140360400D01*
X84123592Y-140360400D02*
X83690120Y-140793872D01*
X85090120Y-140663872D02*
X84786648Y-140360400D01*
X83690120Y-140793872D02*
X83690120Y-142670128D01*
X85331992Y-142912000D02*
X85090120Y-142670128D01*
X85090120Y-142670128D02*
X85090120Y-140663872D01*
X83448248Y-142912000D02*
X83439837Y-142912000D01*
X85988248Y-142912000D02*
X85331992Y-142912000D01*
X82310835Y-144041001D02*
X75474620Y-144041001D01*
X75474620Y-144041001D02*
X74357120Y-142923501D01*
X86930120Y-141970128D02*
X85988248Y-142912000D01*
X83439837Y-142912000D02*
X82310835Y-144041001D01*
X83690120Y-142670128D02*
X83448248Y-142912000D01*
%TO.N,/ZBACK-*%
X86930120Y-136717000D02*
X86930120Y-130124200D01*
X136139494Y-45304473D02*
X134980221Y-44145200D01*
X86930120Y-130124200D02*
X87006320Y-130048000D01*
X108329620Y-68894000D02*
X108329620Y-69530182D01*
X120986120Y-47492600D02*
X120483520Y-46990000D01*
X109540388Y-70743268D02*
X109540388Y-70953166D01*
X108815320Y-70015882D02*
X108815320Y-70018200D01*
X134980221Y-44145200D02*
X123131818Y-44145200D01*
X120483520Y-46793498D02*
X120483520Y-46990000D01*
X123131818Y-44145200D02*
X120483520Y-46793498D01*
X132459620Y-80746600D02*
X132459620Y-79689000D01*
X120986120Y-49530000D02*
X120986120Y-47492600D01*
X119416720Y-70256400D02*
X120432720Y-69240400D01*
X138571724Y-51416253D02*
X136139494Y-48984023D01*
X108329620Y-69530182D02*
X108815320Y-70015882D01*
X108815320Y-70018200D02*
X109540388Y-70743268D01*
X136139494Y-48984023D02*
X136139494Y-45304473D01*
%TO.N,/CLK*%
X132889224Y-52966253D02*
X132884299Y-52961328D01*
X111172120Y-86281500D02*
X111172120Y-96154000D01*
X129486120Y-52708200D02*
X129144920Y-53049400D01*
X129486120Y-49530000D02*
X129486120Y-52708200D01*
X110470862Y-83123000D02*
X110440221Y-83153641D01*
X111172120Y-96154000D02*
X109917120Y-97409000D01*
X138571724Y-52716253D02*
X138321724Y-52966253D01*
X138321724Y-52966253D02*
X132889224Y-52966253D01*
X110440221Y-83153641D02*
X110440221Y-85519601D01*
X110440221Y-85519601D02*
X111187120Y-86266500D01*
%TO.N,/TRST-*%
X119467520Y-43980000D02*
X119467520Y-45822200D01*
X119486120Y-45840800D02*
X119486120Y-49530000D01*
X119467520Y-45822200D02*
X119486120Y-45840800D01*
X108146647Y-45921491D02*
X108556873Y-45511265D01*
X108556873Y-45511265D02*
X109481553Y-45511265D01*
%TO.N,/ZRFSH-*%
X118416120Y-44918400D02*
X118416120Y-45373751D01*
X118416120Y-45373751D02*
X118486120Y-45443751D01*
X118486120Y-45443751D02*
X118486120Y-49530000D01*
%TO.N,/SDA_TX*%
X167067120Y-117159000D02*
X168399120Y-118491000D01*
X168399120Y-118491000D02*
X175514000Y-118491000D01*
X167067120Y-117159000D02*
X167067120Y-114577500D01*
%TO.N,/SCK_RX*%
X168694122Y-121031001D02*
X165797120Y-118133999D01*
X165797120Y-117159000D02*
X165797120Y-115292500D01*
X165797120Y-115292500D02*
X165058620Y-114554000D01*
X175514000Y-121031001D02*
X168694122Y-121031001D01*
X165797120Y-118133999D02*
X165797120Y-117159000D01*
%TO.N,/SPICK*%
X164433320Y-128473200D02*
X164095320Y-128811200D01*
X177830120Y-76454000D02*
X179132120Y-75152000D01*
X174814120Y-76454000D02*
X177830120Y-76454000D01*
X164095320Y-128811200D02*
X164095320Y-131065200D01*
%TO.N,/SPIMI*%
X162495120Y-127889000D02*
X161904120Y-128480000D01*
X174031620Y-77896900D02*
X173437620Y-78490900D01*
X173437620Y-78490900D02*
X170755020Y-78490900D01*
X174031620Y-74696500D02*
X174031620Y-77896900D01*
X161904120Y-128480000D02*
X161904120Y-131074000D01*
X174814120Y-73914000D02*
X174031620Y-74696500D01*
X174814120Y-73914000D02*
X178370120Y-73914000D01*
X163511120Y-127889000D02*
X162495120Y-127889000D01*
X170755020Y-78490900D02*
X168718120Y-76454000D01*
X178370120Y-73914000D02*
X179132120Y-73152000D01*
%TO.N,/SPIMO*%
X174814120Y-71374000D02*
X178910120Y-71374000D01*
X166330520Y-129667000D02*
X166330520Y-131047600D01*
%TO.N,/SPICS2-*%
X162438122Y-74295000D02*
X161368620Y-74295000D01*
X182584620Y-65699500D02*
X179132120Y-69152000D01*
%TO.N,Net-(J1-Pin_2)*%
X178539120Y-132004000D02*
X183789120Y-132004000D01*
X180214121Y-122875001D02*
X182561120Y-125222000D01*
X183789120Y-126450000D02*
X182561120Y-125222000D01*
X180214121Y-121660500D02*
X180214121Y-122875001D01*
X183789120Y-132004000D02*
X183789120Y-126450000D01*
%TO.N,/SPICS-*%
X167404120Y-131074000D02*
X167404120Y-126043500D01*
X173518720Y-125984000D02*
X173569520Y-125933200D01*
X167344620Y-125984000D02*
X173518720Y-125984000D01*
%TO.N,/ZRD-*%
X165898720Y-112090200D02*
X181018418Y-112090200D01*
X122934620Y-72910700D02*
X123891520Y-71953800D01*
X165898720Y-112095207D02*
X165898720Y-112090200D01*
X136269620Y-72885300D02*
X136269620Y-74489000D01*
X181018418Y-112090200D02*
X184948720Y-108159898D01*
X123891520Y-71953800D02*
X126507720Y-71953800D01*
X122934620Y-74489000D02*
X122934620Y-72910700D01*
X127138320Y-72584400D02*
X135968720Y-72584400D01*
X126507720Y-71953800D02*
X127138320Y-72584400D01*
X88770329Y-111814000D02*
X85587120Y-111814000D01*
X85587120Y-111814000D02*
X84517120Y-110744000D01*
X135968720Y-72584400D02*
X136269620Y-72885300D01*
X184948720Y-108159898D02*
X184948720Y-83362800D01*
X167336320Y-82687200D02*
X167336320Y-83580400D01*
X184110520Y-82524600D02*
X167498920Y-82524600D01*
X184948720Y-83362800D02*
X184110520Y-82524600D01*
X92061328Y-108523000D02*
X88770329Y-111814000D01*
X167498920Y-82524600D02*
X167336320Y-82687200D01*
X102043120Y-106553000D02*
X98378822Y-106553000D01*
X96408822Y-108523000D02*
X92061328Y-108523000D01*
X102043120Y-106553000D02*
X105522920Y-106553000D01*
X98378822Y-106553000D02*
X96408822Y-108523000D01*
%TO.N,/ZWR-*%
X131456320Y-114808000D02*
X123506120Y-114808000D01*
X122676720Y-71593800D02*
X128036120Y-71593800D01*
X127610105Y-134013400D02*
X129177822Y-134013400D01*
X128103520Y-71577200D02*
X136510920Y-71577200D01*
X137539620Y-72605900D02*
X137539620Y-74489000D01*
X115403520Y-134340600D02*
X115917715Y-134854795D01*
X121664620Y-74488999D02*
X121664620Y-72605900D01*
X120928020Y-114338100D02*
X122617120Y-112649000D01*
X115917715Y-134854795D02*
X126768711Y-134854795D01*
X128036120Y-71593800D02*
X128078120Y-71551800D01*
X128078120Y-67912902D02*
X128067269Y-67902051D01*
X128078120Y-71551800D02*
X128103520Y-71577200D01*
X136510920Y-71577200D02*
X137539620Y-72605900D01*
X128078120Y-71551800D02*
X128078120Y-67912902D01*
X123506120Y-114808000D02*
X122617120Y-113919000D01*
X122617120Y-113919000D02*
X122617120Y-112649000D01*
X110234620Y-114338100D02*
X120928020Y-114338100D01*
X131380120Y-136215698D02*
X131380120Y-136525000D01*
X102043120Y-100203000D02*
X98690320Y-100203000D01*
X126768711Y-134854795D02*
X127610105Y-134013400D01*
X121664620Y-72605900D02*
X122676720Y-71593800D01*
X129177822Y-134013400D02*
X131380120Y-136215698D01*
%TO.N,/ZM1-*%
X93109018Y-61747400D02*
X93724620Y-61131798D01*
X92848320Y-61747400D02*
X93109018Y-61747400D01*
X93724620Y-61131798D02*
X93724620Y-60004000D01*
%TO.N,/ZMREQ-*%
X128484520Y-74523600D02*
X129611970Y-74523600D01*
X125674920Y-73619000D02*
X126579620Y-73619000D01*
X125474620Y-73819300D02*
X125674920Y-73619000D01*
X125474620Y-74489000D02*
X125474620Y-73819300D01*
X129611970Y-74523600D02*
X130564470Y-73571100D01*
X130564470Y-73571100D02*
X133729620Y-73571100D01*
X127484220Y-74523600D02*
X128484520Y-74523600D01*
X126579620Y-73619000D02*
X127484220Y-74523600D01*
X133729620Y-73571100D02*
X133729620Y-74489000D01*
%TO.N,/ZIORQ-*%
X134999620Y-73471381D02*
X134999620Y-74489000D01*
X124204620Y-74489000D02*
X124204620Y-72656700D01*
X130415354Y-73211100D02*
X134739339Y-73211100D01*
X127053536Y-73583800D02*
X127773320Y-73583800D01*
X125783536Y-72313800D02*
X127053536Y-73583800D01*
X130042654Y-73583800D02*
X130415354Y-73211100D01*
X127773320Y-73583800D02*
X130042654Y-73583800D01*
X124547520Y-72313800D02*
X125783536Y-72313800D01*
X134739339Y-73211100D02*
X134999620Y-73471381D01*
X124204620Y-72656700D02*
X124547520Y-72313800D01*
%TO.N,/TD4*%
X126916120Y-56559400D02*
X126986120Y-56489400D01*
X126916120Y-56667400D02*
X126916120Y-56559400D01*
X138974720Y-57404000D02*
X141794120Y-57404000D01*
X136269620Y-63694000D02*
X136269620Y-60109100D01*
X136269620Y-60109100D02*
X138974720Y-57404000D01*
X126986120Y-56489400D02*
X126986120Y-49530000D01*
%TO.N,/TD5*%
X136904620Y-61048900D02*
X138009520Y-59944000D01*
X136904620Y-63693999D02*
X136904620Y-61048900D01*
X138009520Y-59944000D02*
X141794120Y-59944000D01*
X128241720Y-57505600D02*
X127986120Y-57250000D01*
X127986120Y-57250000D02*
X127986120Y-49530001D01*
%TO.N,/TD3*%
X135634620Y-58839100D02*
X139609720Y-54864000D01*
X128486120Y-49530000D02*
X128486120Y-53595600D01*
X128486120Y-53595600D02*
X129703720Y-54813200D01*
X129703720Y-54813200D02*
X129703720Y-54864000D01*
X135634620Y-63694000D02*
X135634620Y-58839100D01*
X139609720Y-54864000D02*
X141794120Y-54864000D01*
%TO.N,/TD6*%
X137780920Y-62484000D02*
X141794120Y-62484000D01*
X137539620Y-63694000D02*
X137539620Y-62725300D01*
X126715319Y-59597199D02*
X126748521Y-59597199D01*
X127486120Y-58859600D02*
X127486120Y-49530000D01*
X126748521Y-59597199D02*
X127486120Y-58859600D01*
X137539620Y-62725300D02*
X137780920Y-62484000D01*
%TO.N,/TD1*%
X134364620Y-58903716D02*
X140674120Y-52594216D01*
X134364620Y-63694000D02*
X134364620Y-58903716D01*
X124986120Y-48266800D02*
X124979320Y-48260000D01*
X140674120Y-51015565D02*
X141794120Y-49895565D01*
X140674120Y-52594216D02*
X140674120Y-51015565D01*
X124986120Y-49530000D02*
X124986120Y-48266800D01*
%TO.N,/TD7*%
X125817520Y-51739800D02*
X125817520Y-60463200D01*
X125986120Y-49530000D02*
X125986120Y-51571200D01*
X140464119Y-63694000D02*
X141794120Y-65024001D01*
X138174620Y-63694000D02*
X140464119Y-63694000D01*
X125817520Y-60463200D02*
X124609520Y-61671200D01*
X125986120Y-51571200D02*
X125817520Y-51739800D01*
%TO.N,/TD0*%
X125549320Y-49466801D02*
X125486120Y-49530001D01*
X133729620Y-63693999D02*
X133729620Y-59003949D01*
X133729620Y-59003949D02*
X140314120Y-52419449D01*
X140314120Y-47404717D02*
X140474837Y-47244000D01*
X125549320Y-47727576D02*
X125549320Y-49466801D01*
X125511366Y-47689622D02*
X125549320Y-47727576D01*
X140314120Y-52419449D02*
X140314120Y-47404717D01*
X140474837Y-47244000D02*
X141794120Y-47244000D01*
%TO.N,/TD2*%
X126486120Y-49530000D02*
X126486120Y-52228600D01*
X134999620Y-58777832D02*
X141453453Y-52323999D01*
X126486120Y-52228600D02*
X126416120Y-52298600D01*
X134999620Y-63694000D02*
X134999620Y-58777832D01*
%TO.N,/TA13*%
X130986120Y-56968384D02*
X130986120Y-49530000D01*
X124839620Y-63693999D02*
X124839620Y-63114884D01*
X124839620Y-63114884D02*
X130986120Y-56968384D01*
%TO.N,/TA1*%
X116986120Y-56364782D02*
X116986120Y-49530000D01*
X122299620Y-61678282D02*
X116986120Y-56364782D01*
X122299620Y-63694000D02*
X122299620Y-61678282D01*
%TO.N,/TA5*%
X112774620Y-63693999D02*
X112774620Y-59016900D01*
X112774620Y-59016900D02*
X114986120Y-56805400D01*
X114986120Y-56805400D02*
X114986120Y-49530000D01*
%TO.N,/TA15*%
X117986120Y-56346550D02*
X117986120Y-49530000D01*
X123569620Y-63694000D02*
X123569620Y-61930050D01*
X123569620Y-61930050D02*
X117986120Y-56346550D01*
%TO.N,/TA11*%
X126109620Y-62863116D02*
X131986121Y-56986615D01*
X126109620Y-63694000D02*
X126109620Y-62863116D01*
X131986121Y-56986615D02*
X131986121Y-49530000D01*
%TO.N,/TM1-*%
X94359620Y-54804000D02*
X95374000Y-53789620D01*
X95374000Y-53789620D02*
X95374000Y-45790080D01*
X118986120Y-44654400D02*
X118986120Y-49530001D01*
X118680120Y-44348400D02*
X118986120Y-44654400D01*
X96815680Y-44348400D02*
X118680120Y-44348400D01*
X95374000Y-45790080D02*
X96815680Y-44348400D01*
%TO.N,/TWAIT-*%
X134732920Y-76098400D02*
X134364620Y-75730100D01*
X133494120Y-144190000D02*
X88936720Y-144190000D01*
X135215520Y-142468600D02*
X133494120Y-144190000D01*
X88200120Y-143453400D02*
X88200120Y-141667000D01*
X121628420Y-52427500D02*
X122540920Y-53340000D01*
X88936720Y-144190000D02*
X88200120Y-143453400D01*
X134364620Y-75730100D02*
X134364620Y-74489000D01*
X121069620Y-52324000D02*
X120486121Y-51740501D01*
X120486121Y-51740501D02*
X120486121Y-49530000D01*
%TO.N,/TA8*%
X113486120Y-49530000D02*
X113486120Y-56611368D01*
X113486120Y-56611368D02*
X110869620Y-59227868D01*
X110869620Y-59227868D02*
X110869620Y-63694000D01*
%TO.N,/TWR-*%
X117384720Y-69030502D02*
X121029620Y-72675402D01*
X136904620Y-81851500D02*
X136359520Y-82396600D01*
X121029620Y-79689000D02*
X121029620Y-74489000D01*
X136359520Y-82396600D02*
X122082720Y-82396600D01*
X117384720Y-58078600D02*
X117384720Y-69030502D01*
X121029620Y-81343500D02*
X121029620Y-79689000D01*
X121347120Y-46812200D02*
X121486119Y-46951199D01*
X136904620Y-79689000D02*
X136904620Y-81851500D01*
X121347120Y-46736000D02*
X121347120Y-46812200D01*
X121486119Y-46951199D02*
X121486119Y-49530000D01*
X122082720Y-82396600D02*
X121029620Y-81343500D01*
X121029620Y-72675402D02*
X121029620Y-74489000D01*
%TO.N,/ZHALT-*%
X123486120Y-50870800D02*
X123175920Y-51181000D01*
X84390120Y-141667000D02*
X84390120Y-143259227D01*
X123486120Y-49530000D02*
X123486120Y-50870800D01*
%TO.N,/TA9*%
X110234620Y-59353752D02*
X110234620Y-63694000D01*
X112986120Y-49530000D02*
X112986120Y-56602252D01*
X112986120Y-56602252D02*
X110234620Y-59353752D01*
%TO.N,/TA14*%
X124204620Y-62914000D02*
X130486119Y-56632501D01*
X124204620Y-63694000D02*
X124204620Y-62914000D01*
X130486119Y-56632501D02*
X130486119Y-49530000D01*
%TO.N,/TA12*%
X125474620Y-62989000D02*
X131486120Y-56977500D01*
X131486120Y-56977500D02*
X131486120Y-49530000D01*
X125474620Y-63694000D02*
X125474620Y-62989000D01*
%TO.N,/TA3*%
X115986120Y-61752500D02*
X115986120Y-49530000D01*
X114044620Y-63694000D02*
X115986120Y-61752500D01*
%TO.N,/TIORQ-*%
X134364620Y-81318100D02*
X134006120Y-81676600D01*
X123569620Y-81140300D02*
X123569620Y-79689000D01*
X123506120Y-73228200D02*
X123506120Y-74425500D01*
X122486120Y-49530000D02*
X122486120Y-50397600D01*
X122486120Y-50397600D02*
X121728120Y-51155600D01*
X134006120Y-81676600D02*
X124105920Y-81676600D01*
X123569620Y-79689000D02*
X123569620Y-74489000D01*
X134364620Y-79689000D02*
X134364620Y-81318100D01*
X124105920Y-81676600D02*
X123569620Y-81140300D01*
%TO.N,/TA2*%
X116486120Y-56373898D02*
X116486120Y-49530001D01*
X121664620Y-61552398D02*
X116486120Y-56373898D01*
X121664620Y-63693999D02*
X121664620Y-61552398D01*
%TO.N,/TA10*%
X112486119Y-56593137D02*
X109599620Y-59479636D01*
X109599620Y-59479636D02*
X109599620Y-63693999D01*
X112486119Y-49530000D02*
X112486119Y-56593137D01*
%TO.N,/TINT-*%
X124409320Y-48023898D02*
X124409320Y-48496102D01*
X124217320Y-47701200D02*
X124217320Y-47831898D01*
X124217320Y-47831898D02*
X124409320Y-48023898D01*
X135634620Y-76085700D02*
X135621920Y-76098400D01*
X135634620Y-74489000D02*
X135634620Y-76085700D01*
X108949882Y-52324000D02*
X108949882Y-55117881D01*
X124486120Y-48572902D02*
X124486120Y-49530000D01*
X124409320Y-48496102D02*
X124486120Y-48572902D01*
%TO.N,/TA6*%
X112139620Y-58976100D02*
X114486120Y-56629600D01*
X112139620Y-63694000D02*
X112139620Y-58976100D01*
X114486120Y-56629600D02*
X114486120Y-49530000D01*
%TO.N,/TRD-*%
X130359949Y-77578494D02*
X130359949Y-78191229D01*
X123709320Y-45339000D02*
X135367920Y-45339000D01*
X130635468Y-78466748D02*
X135186913Y-78466748D01*
X122299620Y-81191100D02*
X122299620Y-79689000D01*
X135672720Y-54114122D02*
X135672720Y-54138600D01*
X135634620Y-81699100D02*
X135297120Y-82036600D01*
X130359949Y-78191229D02*
X130635468Y-78466748D01*
X135186913Y-78466748D02*
X135634620Y-78914455D01*
X135672720Y-54138600D02*
X129703720Y-60107600D01*
X121986120Y-47062200D02*
X123709320Y-45339000D01*
X121986120Y-49530000D02*
X121986120Y-47062200D01*
X135634620Y-78914455D02*
X135634620Y-79689000D01*
X122299620Y-79689000D02*
X122299620Y-74489000D01*
X135297120Y-82036600D02*
X123145120Y-82036600D01*
X135634620Y-79689000D02*
X135634620Y-81699100D01*
X123145120Y-82036600D02*
X122299620Y-81191100D01*
X135367920Y-45339000D02*
X135569494Y-45540575D01*
%TO.N,/TNMI-*%
X138174620Y-72402700D02*
X138174620Y-74489000D01*
X125004120Y-53417500D02*
X125004120Y-54890000D01*
X139482720Y-68529200D02*
X139482720Y-71094600D01*
X125004120Y-54890000D02*
X124547520Y-55346600D01*
X124014120Y-52427500D02*
X125004120Y-53417500D01*
X139482720Y-71094600D02*
X138174620Y-72402700D01*
X124014120Y-52427500D02*
X124014120Y-49558001D01*
%TO.N,/TBREQ-*%
X119188120Y-52476400D02*
X120077120Y-53365400D01*
X136333120Y-76631800D02*
X136904620Y-76060300D01*
X119986120Y-51526000D02*
X119986120Y-49530000D01*
X119188120Y-52324000D02*
X119986120Y-51526000D01*
X136904620Y-76060300D02*
X136904620Y-74489000D01*
%TO.N,/TA4*%
X113409620Y-58915300D02*
X115486120Y-56838800D01*
X115486120Y-56838800D02*
X115486120Y-49530000D01*
X113409620Y-63694000D02*
X113409620Y-58915300D01*
%TO.N,/TMREQ-*%
X122986121Y-48283199D02*
X122998120Y-48271200D01*
X124839620Y-81038700D02*
X124839620Y-79689001D01*
X124839620Y-74488999D02*
X124839620Y-72936100D01*
X133094620Y-79689000D02*
X133094620Y-80917702D01*
X133094620Y-80917702D02*
X132695722Y-81316600D01*
X124839620Y-79689001D02*
X124839620Y-74488999D01*
X124839620Y-72936100D02*
X124852320Y-72923400D01*
X125117520Y-81316600D02*
X124839620Y-81038700D01*
X122986121Y-49530000D02*
X122986121Y-48283199D01*
X132695722Y-81316600D02*
X125117520Y-81316600D01*
%TO.N,/TA7*%
X113986121Y-56620483D02*
X111504620Y-59101984D01*
X111504620Y-59101984D02*
X111504620Y-63694000D01*
X113986121Y-49530000D02*
X113986121Y-56620483D01*
%TO.N,/TA0*%
X122934620Y-63694000D02*
X122934620Y-61804166D01*
X117486120Y-56355666D02*
X117486120Y-49530000D01*
X122934620Y-61804166D02*
X117486120Y-56355666D01*
%TO.N,/JTDI_CO*%
X140582520Y-93573600D02*
X145956020Y-93573600D01*
X140016120Y-94140000D02*
X140582520Y-93573600D01*
%TO.N,/JTCK*%
X115551788Y-133322284D02*
X101405804Y-133322284D01*
X127417720Y-132765800D02*
X126851045Y-132199125D01*
X121766199Y-132199125D02*
X121010529Y-132954795D01*
X141063120Y-103093000D02*
X140016120Y-104140000D01*
X145961620Y-103093000D02*
X141063120Y-103093000D01*
X126851045Y-132199125D02*
X121766199Y-132199125D01*
X115919276Y-132954795D02*
X115551788Y-133322284D01*
X101405804Y-133322284D02*
X100823920Y-132740400D01*
X121010529Y-132954795D02*
X115919276Y-132954795D01*
%TO.N,/JTDO_CI*%
X145961620Y-99918000D02*
X140238120Y-99918000D01*
%TO.N,/JTMS*%
X145358620Y-96140000D02*
X145961620Y-96743000D01*
X140016120Y-96140000D02*
X145358620Y-96140000D01*
D77*
%TO.N,Net-(J14-SHIELD-PadSH1)*%
X168965120Y-48830000D02*
X168965120Y-44650000D01*
X177605120Y-44650000D02*
X177605120Y-48830000D01*
X178905120Y-48830000D02*
X182672120Y-52597000D01*
X168965120Y-44650000D02*
X177605120Y-44650000D01*
X177605120Y-48830000D02*
X178905120Y-48830000D01*
D74*
%TO.N,/_CLK*%
X68896120Y-76454000D02*
X68896120Y-69976120D01*
X68896120Y-69976120D02*
X65214000Y-66294000D01*
%TO.N,Net-(JP1-B)*%
X162176120Y-123190000D02*
X163257120Y-122109000D01*
X160224118Y-125476001D02*
X160224118Y-123452502D01*
X160486620Y-123190000D02*
X162176120Y-123190000D01*
%TO.N,/RST-*%
X179885993Y-120728000D02*
X177449120Y-123164873D01*
X182114119Y-119385500D02*
X182114119Y-120047999D01*
X177449120Y-123164873D02*
X177449120Y-136335398D01*
X182114119Y-120047999D02*
X181434118Y-120728000D01*
X177449120Y-136335398D02*
X178954320Y-137840598D01*
X181434118Y-120728000D02*
X179885993Y-120728000D01*
X178954320Y-137840598D02*
X178954320Y-139700000D01*
%TO.N,/ZRST-*%
X111847520Y-75869800D02*
X111847520Y-74574400D01*
%TO.N,/MODINT-*%
X106950000Y-55118000D02*
X106950000Y-49082904D01*
X159710820Y-74296500D02*
X159382120Y-74625200D01*
X106950000Y-49082904D02*
X104394000Y-46526904D01*
X160067120Y-74296500D02*
X159710820Y-74296500D01*
%TO.N,/V3D7*%
X158812120Y-78124752D02*
X158812120Y-79689000D01*
X153020920Y-128422400D02*
X151827120Y-129616200D01*
X158812120Y-128416200D02*
X158805920Y-128422400D01*
X151827120Y-129616200D02*
X151827120Y-130988000D01*
X158303523Y-77616155D02*
X158812120Y-78124752D01*
X158805920Y-128422400D02*
X153020920Y-128422400D01*
X158303523Y-77536748D02*
X158303523Y-77616155D01*
%TO.N,/MRST-*%
X154367120Y-121488000D02*
X155586120Y-120269000D01*
X164857320Y-79832200D02*
X164857320Y-81361900D01*
X155586120Y-120269000D02*
X166482920Y-120269000D01*
%TO.N,/V3D1*%
X150596720Y-76011000D02*
X151192120Y-76606400D01*
X151192120Y-76606400D02*
X151192120Y-79689000D01*
X150596720Y-75754000D02*
X150596720Y-76011000D01*
X150557120Y-121488000D02*
X150557120Y-120243600D01*
%TO.N,/V3D5*%
X156272120Y-79689000D02*
X156272120Y-76073000D01*
X157477120Y-126720600D02*
X149998320Y-126720600D01*
X146747120Y-129971800D02*
X146747120Y-130988000D01*
X157491320Y-126734800D02*
X157477120Y-126720600D01*
X149998320Y-126720600D02*
X146747120Y-129971800D01*
%TO.N,/IOECLK*%
X142937120Y-129514600D02*
X142937120Y-130988000D01*
%TO.N,/V3D6*%
X157542120Y-79689000D02*
X157542120Y-76073000D01*
X158177120Y-127276200D02*
X158148520Y-127304800D01*
X150557120Y-129997200D02*
X150557120Y-130988000D01*
X158148520Y-127304800D02*
X153249520Y-127304800D01*
X153249520Y-127304800D02*
X150557120Y-129997200D01*
%TO.N,/MWTRQ-*%
X149947520Y-69977000D02*
X149922120Y-69951600D01*
X147915520Y-72009000D02*
X149947520Y-69977000D01*
X149922120Y-69951600D02*
X149922120Y-66294000D01*
%TO.N,/V3D3*%
X145477120Y-121488000D02*
X145477120Y-120269000D01*
X153732120Y-79689000D02*
X153732120Y-76073000D01*
X154163920Y-74055200D02*
X154163920Y-75641200D01*
X154163920Y-75641200D02*
X153732120Y-76073000D01*
%TO.N,/MSEL-*%
X148652120Y-74804116D02*
X150913836Y-72542400D01*
X156053320Y-72100800D02*
X155738720Y-72415400D01*
X156122120Y-72032000D02*
X156122120Y-64518400D01*
X161697920Y-72100800D02*
X156053320Y-72100800D01*
X156122120Y-64518400D02*
X155357720Y-63754000D01*
X163008122Y-81311100D02*
X163008122Y-73411002D01*
X150913836Y-72542400D02*
X155611720Y-72542400D01*
X163008122Y-73411002D02*
X161697920Y-72100800D01*
X153224120Y-63754000D02*
X152462120Y-64516000D01*
X155357720Y-63754000D02*
X153224120Y-63754000D01*
X155611720Y-72542400D02*
X156122120Y-72032000D01*
X152462120Y-64516000D02*
X152462120Y-66294000D01*
X148652120Y-79689000D02*
X148652120Y-74804116D01*
%TO.N,/V3D4*%
X149693520Y-125958600D02*
X145477120Y-130175000D01*
X156348320Y-125958600D02*
X149693520Y-125958600D01*
X145477120Y-130175000D02*
X145477120Y-130988000D01*
X155002120Y-79689000D02*
X155002120Y-76073000D01*
%TO.N,/MA0*%
X157542120Y-69646800D02*
X157542120Y-66293999D01*
X169236320Y-81305400D02*
X169236320Y-79124502D01*
X169236320Y-79124502D02*
X161852618Y-71740800D01*
X161852618Y-71740800D02*
X159636120Y-71740800D01*
X159636120Y-71740800D02*
X157542120Y-69646800D01*
%TO.N,/MRD-*%
X146283121Y-80737000D02*
X147026520Y-81480399D01*
X166711520Y-82346800D02*
X167336320Y-81722000D01*
X143241920Y-79352356D02*
X144626564Y-80737000D01*
X143241920Y-76631800D02*
X143241920Y-79352356D01*
X151892120Y-71055000D02*
X147102720Y-75844400D01*
X151896622Y-71055000D02*
X151892120Y-71055000D01*
X154447822Y-68503800D02*
X151896622Y-71055000D01*
X147382120Y-84150200D02*
X149185520Y-82346800D01*
X147026520Y-81480399D02*
X147026520Y-83693000D01*
X149185520Y-82346800D02*
X166711520Y-82346800D01*
X147026520Y-83693000D02*
X147382120Y-84048600D01*
X147102720Y-75844400D02*
X144029320Y-75844400D01*
X147382120Y-86614000D02*
X147382120Y-84150200D01*
X144029320Y-75844400D02*
X143241920Y-76631800D01*
X144626564Y-80737000D02*
X146283121Y-80737000D01*
%TO.N,/V3D0*%
X149922120Y-76160400D02*
X149922120Y-79689000D01*
X149555320Y-75793600D02*
X149922120Y-76160400D01*
X149222120Y-75793600D02*
X149555320Y-75793600D01*
X151344520Y-123266200D02*
X151827120Y-122783600D01*
X151827120Y-122783600D02*
X151827120Y-121488000D01*
%TO.N,/V3D2*%
X146747120Y-121488000D02*
X146747120Y-120269000D01*
X152462120Y-79689000D02*
X152462120Y-76073000D01*
%TO.N,/TWAITB-*%
X133729620Y-80860900D02*
X133742320Y-80873600D01*
X133729620Y-79689000D02*
X133729620Y-80860900D01*
%TO.N,/TWAITRQ-*%
X134428120Y-91059000D02*
X133259720Y-89890600D01*
X133259720Y-89890600D02*
X130895620Y-89890600D01*
%TO.N,Net-(OP3-B)*%
X115632120Y-74549000D02*
X115632120Y-67346600D01*
X115632120Y-67346600D02*
X115606720Y-67321200D01*
%TO.N,/EXTBRKRQ-*%
X77319500Y-58015500D02*
X77319500Y-58928000D01*
X74422000Y-55118000D02*
X77319500Y-58015500D01*
%TO.N,Net-(OP1-C)*%
X124204620Y-80860900D02*
X124191920Y-80873600D01*
X124191920Y-84836000D02*
X125133620Y-84836000D01*
X124204620Y-79689000D02*
X124204620Y-80860900D01*
%TO.N,Net-(OP3-A)*%
X114387520Y-72237600D02*
X114362120Y-72263000D01*
X114362120Y-72263000D02*
X114362120Y-74549000D01*
X114362120Y-81443600D02*
X114362120Y-79499000D01*
%TO.N,/TGTONLY-*%
X68704120Y-56146500D02*
X73466820Y-60909200D01*
X73466820Y-60909200D02*
X77330820Y-60909200D01*
%TO.N,/SBC_GPI3*%
X74103120Y-67513200D02*
X69581920Y-62992000D01*
X68704120Y-62903500D02*
X68704120Y-58686500D01*
X98676120Y-67513200D02*
X74103120Y-67513200D01*
X69581920Y-62992000D02*
X68792620Y-62992000D01*
D77*
%TO.N,Net-(SD1-SHLD)*%
X174474120Y-133074000D02*
X171150120Y-136398000D01*
X158324120Y-133074000D02*
X158324120Y-142074000D01*
X171150120Y-136398000D02*
X161648120Y-136398000D01*
X174474120Y-142074000D02*
X174474120Y-133074000D01*
X161648120Y-136398000D02*
X158324120Y-133074000D01*
X174837120Y-142074000D02*
X177227120Y-139684000D01*
X174474120Y-142074000D02*
X174837120Y-142074000D01*
D74*
%TO.N,/SBCMODE-*%
X64111500Y-73287499D02*
X63214001Y-72390000D01*
X64111500Y-76454000D02*
X64111500Y-73287499D01*
%TO.N,/ZA10*%
X76643120Y-85660000D02*
X76643120Y-92125800D01*
X88352520Y-113284000D02*
X84517120Y-113284000D01*
X108964620Y-67791100D02*
X108951920Y-67778400D01*
X109612320Y-106451400D02*
X121628320Y-106451400D01*
X102043120Y-107823000D02*
X108240720Y-107823000D01*
X91843520Y-109793000D02*
X88352520Y-113284000D01*
X108964620Y-68894000D02*
X108964620Y-67791100D01*
X102043120Y-107823000D02*
X99122120Y-107823000D01*
X97152120Y-109793000D02*
X91843520Y-109793000D01*
X99122120Y-107823000D02*
X97152120Y-109793000D01*
X108240720Y-107823000D02*
X109612320Y-106451400D01*
%TO.N,/ZA14*%
X80453120Y-79222600D02*
X80453120Y-80710000D01*
X123569620Y-68894000D02*
X123569620Y-69786261D01*
X123569620Y-69786261D02*
X122650697Y-70705184D01*
%TO.N,/ZA9*%
X96570920Y-103443000D02*
X90548120Y-103443000D01*
X122896520Y-90982800D02*
X123598320Y-91684600D01*
X77913120Y-92151200D02*
X77913120Y-85660000D01*
X123598320Y-91684600D02*
X123598320Y-96427800D01*
X117195520Y-104013000D02*
X102043120Y-104013000D01*
X109599620Y-68894001D02*
X109599620Y-70142100D01*
X102043120Y-104013000D02*
X97140919Y-104013000D01*
X97140919Y-104013000D02*
X96570920Y-103443000D01*
X118308320Y-102900200D02*
X117195520Y-104013000D01*
X109599620Y-70142100D02*
X110425120Y-70967600D01*
X123598320Y-96427800D02*
X122617120Y-97409000D01*
X90548120Y-103443000D02*
X88327120Y-105664000D01*
%TO.N,/ZA12*%
X76850135Y-82927185D02*
X67104037Y-82927185D01*
X93537120Y-100203000D02*
X91959320Y-100203000D01*
X67104037Y-82927185D02*
X66846222Y-83185000D01*
X77913120Y-81864200D02*
X76850135Y-82927185D01*
X64504920Y-83563000D02*
X64504920Y-93271800D01*
X89800320Y-98044000D02*
X88327120Y-98044000D01*
X64882920Y-83185000D02*
X64504920Y-83563000D01*
X66846222Y-83185000D02*
X64882920Y-83185000D01*
X91959320Y-100203000D02*
X89800320Y-98044000D01*
X117537120Y-73547200D02*
X117537120Y-94869000D01*
X64504920Y-93271800D02*
X69277120Y-98044000D01*
X124839620Y-70466500D02*
X124282320Y-71023800D01*
X124839620Y-68894001D02*
X124839620Y-70466500D01*
X77913120Y-80710000D02*
X77913120Y-81864200D01*
%TO.N,/ZA15*%
X122871120Y-65474191D02*
X122871120Y-68830500D01*
X122820320Y-65423391D02*
X122871120Y-65474191D01*
X81723120Y-80710000D02*
X81723120Y-79197200D01*
%TO.N,/ZA13*%
X101992320Y-101422200D02*
X97267920Y-101422200D01*
X79259320Y-90500200D02*
X78497320Y-89738200D01*
X124204620Y-68894000D02*
X124204620Y-70181835D01*
X96748720Y-100903000D02*
X88646120Y-100903000D01*
X117033520Y-101011400D02*
X117562520Y-100482400D01*
X78497320Y-81395800D02*
X79183120Y-80710000D01*
X97267920Y-101422200D02*
X96748720Y-100903000D01*
X78497320Y-89738200D02*
X78497320Y-81395800D01*
X105324120Y-101011400D02*
X117033520Y-101011400D01*
X102043120Y-101473000D02*
X104862520Y-101473000D01*
X104862520Y-101473000D02*
X105324120Y-101011400D01*
X124204620Y-70181835D02*
X123362655Y-71023800D01*
%TO.N,/ZA8*%
X109647094Y-101371400D02*
X108275494Y-102743000D01*
X109541289Y-87466169D02*
X109524166Y-87449046D01*
X102043120Y-102743000D02*
X97318720Y-102743000D01*
X89278120Y-102173000D02*
X88327120Y-103124000D01*
X110995120Y-72527945D02*
X110995120Y-70434500D01*
X111147520Y-80476728D02*
X111147520Y-76744600D01*
X109982120Y-73540945D02*
X110995120Y-72527945D01*
X110995120Y-70434500D02*
X110234620Y-69674000D01*
X78765520Y-93102200D02*
X78765520Y-93141800D01*
X108275494Y-102743000D02*
X102043120Y-102743000D01*
X109541289Y-87969000D02*
X109541289Y-87466169D01*
X109982120Y-75579200D02*
X109982120Y-73540945D01*
X110234620Y-69674000D02*
X110234620Y-68894000D01*
X80453120Y-85660000D02*
X80453120Y-91414600D01*
X109524166Y-87449046D02*
X109524166Y-82100082D01*
X123607720Y-101371400D02*
X109647094Y-101371400D01*
X109524166Y-82100082D02*
X111147520Y-80476728D01*
X111147520Y-76744600D02*
X109982120Y-75579200D01*
X96748720Y-102173000D02*
X89278120Y-102173000D01*
X80453120Y-91414600D02*
X78765520Y-93102200D01*
X97318720Y-102743000D02*
X96748720Y-102173000D01*
%TO.N,/ZA11*%
X96585120Y-105918000D02*
X96520120Y-105853000D01*
X75373120Y-92608400D02*
X75373120Y-85660000D01*
X76389120Y-93624400D02*
X75373120Y-92608400D01*
X99020520Y-105283000D02*
X98385520Y-105918000D01*
X90678121Y-105853000D02*
X88327120Y-108204001D01*
X120751720Y-106045000D02*
X109517209Y-106045000D01*
X125474620Y-70980300D02*
X125487320Y-70993000D01*
X120915320Y-105881400D02*
X120751720Y-106045000D01*
X125474620Y-68894000D02*
X125474620Y-70980300D01*
X98385520Y-105918000D02*
X96585120Y-105918000D01*
X76643120Y-93624400D02*
X76389120Y-93624400D01*
X108755209Y-105283000D02*
X102043120Y-105283000D01*
X102043120Y-105283000D02*
X99020520Y-105283000D01*
X109517209Y-106045000D02*
X108755209Y-105283000D01*
X96520120Y-105853000D02*
X90678121Y-105853000D01*
%TO.N,/BRD_RST-*%
X170095913Y-111525207D02*
X165662618Y-111525207D01*
X148263811Y-111525207D02*
X134498127Y-111525207D01*
X165662618Y-111525207D02*
X164970625Y-112217200D01*
X148955804Y-112217200D02*
X148263811Y-111525207D01*
X172909120Y-108712000D02*
X170095913Y-111525207D01*
X134498127Y-111525207D02*
X133589920Y-110617000D01*
X133589920Y-110617000D02*
X133589920Y-108324399D01*
X164970625Y-112217200D02*
X148955804Y-112217200D01*
X172909120Y-104013000D02*
X172909120Y-108712000D01*
%TO.N,Net-(R32-Pad2)*%
X77319500Y-53848000D02*
X77319500Y-56388000D01*
X77319500Y-53848000D02*
X68175500Y-44704000D01*
%TO.N,/ZA3*%
X94067520Y-85660000D02*
X94067520Y-91112599D01*
X98270720Y-77178400D02*
X98270720Y-72906736D01*
X105594656Y-65582800D02*
X110801618Y-65582800D01*
X108349822Y-139650500D02*
X108567322Y-139868000D01*
X94067520Y-84150200D02*
X96037520Y-82180200D01*
X93229320Y-139336012D02*
X95262929Y-141369621D01*
X121540520Y-139868000D02*
X122693320Y-141020800D01*
X110801618Y-65582800D02*
X113409620Y-68190802D01*
X93537120Y-106553000D02*
X91491330Y-106553000D01*
X113409620Y-68190802D02*
X113409620Y-68894000D01*
X94067520Y-91112599D02*
X95520000Y-92565079D01*
X94067520Y-85660000D02*
X94067520Y-84150200D01*
X95520000Y-106578400D02*
X95494600Y-106553000D01*
X96037520Y-82180200D02*
X96037520Y-79411600D01*
X107761849Y-139766271D02*
X107877618Y-139650500D01*
X88748130Y-109296200D02*
X70724920Y-109296200D01*
X91491330Y-106553000D02*
X88748130Y-109296200D01*
X106158496Y-141369621D02*
X107761846Y-139766271D01*
X107877618Y-139650500D02*
X108349822Y-139650500D01*
X95262929Y-141369621D02*
X106158496Y-141369621D01*
X93229320Y-137515600D02*
X93229320Y-139336012D01*
X95494600Y-106553000D02*
X93537120Y-106553000D01*
X70724920Y-109296200D02*
X69277120Y-110744000D01*
X108567322Y-139868000D02*
X121540520Y-139868000D01*
X96037520Y-79411600D02*
X98270720Y-77178400D01*
X98270720Y-72906736D02*
X105594656Y-65582800D01*
X107761846Y-139766271D02*
X107761849Y-139766271D01*
%TO.N,/ZA6*%
X99147520Y-82194400D02*
X98842720Y-82499200D01*
X111504620Y-68894000D02*
X111504620Y-67829584D01*
X99350720Y-73354084D02*
X99350720Y-80506800D01*
X88770329Y-104194000D02*
X70347120Y-104194000D01*
X93537120Y-102743000D02*
X90221329Y-102743000D01*
X97888863Y-103352600D02*
X96989636Y-103352600D01*
X111504620Y-67829584D02*
X110485836Y-66810800D01*
X96380036Y-102743000D02*
X93537120Y-102743000D01*
X70347120Y-104194000D02*
X69277120Y-103124000D01*
X99147520Y-80710000D02*
X99147520Y-82194400D01*
X110485836Y-66810800D02*
X105894004Y-66810800D01*
X90221329Y-102743000D02*
X88770329Y-104194000D01*
X105894004Y-66810800D02*
X99350720Y-73354084D01*
X96989636Y-103352600D02*
X96380036Y-102743000D01*
%TO.N,/ZA7*%
X70347120Y-101654000D02*
X69277120Y-100584000D01*
X110336720Y-67170800D02*
X106043120Y-67170800D01*
X127525947Y-98390200D02*
X126138319Y-98390200D01*
X89212920Y-101654000D02*
X70347120Y-101654000D01*
X106043120Y-67170800D02*
X100417520Y-72796400D01*
X110869620Y-67703700D02*
X110336720Y-67170800D01*
X110869620Y-68894000D02*
X110869620Y-67703700D01*
X100417520Y-72796400D02*
X100417520Y-80710000D01*
X126138319Y-98390200D02*
X125157119Y-97409000D01*
X100417520Y-82589600D02*
X100392120Y-82615000D01*
X130380147Y-101244400D02*
X127525947Y-98390200D01*
X136002920Y-101244400D02*
X130380147Y-101244400D01*
X93537120Y-101473000D02*
X89393920Y-101473000D01*
X89393920Y-101473000D02*
X89212920Y-101654000D01*
X100417520Y-80710000D02*
X100417520Y-82589600D01*
%TO.N,/ZA4*%
X125157120Y-99949000D02*
X124175920Y-98967800D01*
X96607520Y-82615000D02*
X96607520Y-80710000D01*
X97928320Y-100158898D02*
X97928320Y-100660200D01*
X97902920Y-105283000D02*
X93537120Y-105283000D01*
X98454218Y-99633000D02*
X97928320Y-100158898D01*
X98630720Y-77711801D02*
X96607520Y-79735001D01*
X106175093Y-98967800D02*
X105509893Y-99633000D01*
X129890920Y-101507800D02*
X126715920Y-101507800D01*
X93537120Y-105283000D02*
X90730445Y-105283000D01*
X90730445Y-105283000D02*
X88879445Y-107134000D01*
X96607520Y-79735001D02*
X96607520Y-80710000D01*
X105509893Y-99633000D02*
X98454218Y-99633000D01*
X112774620Y-68894001D02*
X112774620Y-68081350D01*
X124175920Y-98967800D02*
X106175093Y-98967800D01*
X130668920Y-102285800D02*
X129890920Y-101507800D01*
X112774620Y-68081350D02*
X110784070Y-66090800D01*
X105595772Y-66090800D02*
X98630720Y-73055852D01*
X98630720Y-73055852D02*
X98630720Y-77711801D01*
X70347121Y-107134000D02*
X69277120Y-108204001D01*
X110784070Y-66090800D02*
X105595772Y-66090800D01*
X88879445Y-107134000D02*
X70347121Y-107134000D01*
X126715920Y-101507800D02*
X125157120Y-99949000D01*
%TO.N,/ZA1*%
X121179619Y-67629000D02*
X118603920Y-67629000D01*
X127697120Y-102489000D02*
X126715920Y-103470200D01*
X96759920Y-89585800D02*
X96759920Y-85812400D01*
X92000445Y-109093000D02*
X88901645Y-112191800D01*
X72909320Y-112191800D02*
X69277120Y-115824000D01*
X88901645Y-112191800D02*
X72909320Y-112191800D01*
X122134520Y-141655800D02*
X122045447Y-141744873D01*
X96746080Y-92565079D02*
X96759920Y-92551239D01*
X126715920Y-103470200D02*
X121236120Y-103470200D01*
X93537120Y-109093000D02*
X92000445Y-109093000D01*
X92683393Y-141744873D02*
X92594320Y-141655800D01*
X96328120Y-109093000D02*
X93537120Y-109093000D01*
X121664620Y-68894001D02*
X121664620Y-68114001D01*
X122045447Y-141744873D02*
X92683393Y-141744873D01*
X96759920Y-92551239D02*
X96759920Y-89585800D01*
X121664620Y-68114001D02*
X121179619Y-67629000D01*
X121236120Y-103470200D02*
X119924720Y-102158800D01*
%TO.N,/ZA0*%
X88073120Y-114376200D02*
X82307320Y-114376200D01*
X122312320Y-70002400D02*
X122312320Y-68906700D01*
X98941493Y-88544400D02*
X102830520Y-88544400D01*
X108614710Y-139406272D02*
X115649890Y-139406272D01*
X82307320Y-114376200D02*
X79408520Y-117275000D01*
X105947375Y-140932964D02*
X107589839Y-139290500D01*
X79408520Y-117275000D02*
X70366119Y-117275000D01*
X95167408Y-138340314D02*
X97760058Y-140932964D01*
X169657920Y-84861400D02*
X169607120Y-84861400D01*
X98941493Y-88242427D02*
X99147520Y-88036400D01*
X97293930Y-110363000D02*
X97318863Y-110338067D01*
X169607120Y-84861400D02*
X169236320Y-84490600D01*
X93537120Y-110363000D02*
X92086320Y-110363000D01*
X93537120Y-110363000D02*
X97293930Y-110363000D01*
X108498938Y-139290500D02*
X108614710Y-139406272D01*
X115751618Y-139508000D02*
X116223822Y-139508000D01*
X99147520Y-88036400D02*
X99147520Y-85660000D01*
X116325550Y-139406272D02*
X120044506Y-139406272D01*
X92086320Y-110363000D02*
X88073120Y-114376200D01*
X120044506Y-139406272D02*
X124235983Y-135214795D01*
X97760058Y-140932964D02*
X105947375Y-140932964D01*
X107589839Y-139290500D02*
X108498938Y-139290500D01*
X70366119Y-117275000D02*
X69277120Y-118363999D01*
X98941493Y-88544400D02*
X98941493Y-88242427D01*
X127549222Y-134583400D02*
X128941720Y-134583400D01*
X116223822Y-139508000D02*
X116325550Y-139406272D01*
X124235983Y-135214795D02*
X126917828Y-135214795D01*
X169236320Y-84490600D02*
X169236320Y-83580400D01*
X115649890Y-139406272D02*
X115751618Y-139508000D01*
X126917828Y-135214795D02*
X127549222Y-134583400D01*
%TO.N,/ZA5*%
X97877520Y-82473800D02*
X97877520Y-80710000D01*
X98990720Y-73204968D02*
X98990720Y-78338000D01*
X110634954Y-66450800D02*
X105744888Y-66450800D01*
X105744888Y-66450800D02*
X98990720Y-73204968D01*
X112139620Y-68894000D02*
X112139620Y-67955466D01*
X112139620Y-67955466D02*
X110634954Y-66450800D01*
X70347120Y-106734000D02*
X69277120Y-105664000D01*
X93537120Y-104013000D02*
X91491329Y-104013000D01*
X91491329Y-104013000D02*
X88770329Y-106734000D01*
X88770329Y-106734000D02*
X70347120Y-106734000D01*
X98990720Y-78338000D02*
X97877520Y-79451200D01*
X97877520Y-79451200D02*
X97877520Y-80710000D01*
%TO.N,/ZA2*%
X93537120Y-107823000D02*
X90730446Y-107823000D01*
X92685720Y-143830000D02*
X121128720Y-143830000D01*
X121128720Y-143830000D02*
X122693320Y-142265400D01*
X90730446Y-107823000D02*
X88897246Y-109656200D01*
X72904920Y-109656200D02*
X69277120Y-113284000D01*
X88897246Y-109656200D02*
X72904920Y-109656200D01*
X95337520Y-91287288D02*
X95337520Y-85660000D01*
X121042320Y-70408800D02*
X121042320Y-68906700D01*
X96023320Y-107823000D02*
X93537120Y-107823000D01*
X91857720Y-143002000D02*
X92685720Y-143830000D01*
X96133042Y-92082810D02*
X95337520Y-91287288D01*
%TO.N,/ROM_SEL-*%
X108621720Y-81457800D02*
X105751520Y-81457800D01*
X109282120Y-80797400D02*
X108621720Y-81457800D01*
X109282120Y-78841600D02*
X109282120Y-80797400D01*
%TO.N,/RRA1*%
X65086120Y-87503105D02*
X65086120Y-92862400D01*
X90280720Y-96594000D02*
X76742520Y-96594000D01*
X102043120Y-97663000D02*
X95896320Y-97663000D01*
X65086120Y-92862400D02*
X67727719Y-95503999D01*
X95896320Y-97663000D02*
X95326320Y-98233000D01*
X91919720Y-98233000D02*
X90280720Y-96594000D01*
X67727719Y-95503999D02*
X69277120Y-95503999D01*
X65074920Y-87491905D02*
X65086120Y-87503105D01*
X76742520Y-96594000D02*
X75652519Y-95503999D01*
X95326320Y-98233000D02*
X91919720Y-98233000D01*
X75652519Y-95503999D02*
X69277120Y-95503999D01*
%TO.N,/ZD5*%
X155611720Y-93319600D02*
X155002120Y-92710000D01*
X155002120Y-85101200D02*
X154432120Y-84531200D01*
X99087881Y-136985200D02*
X101999822Y-136985200D01*
X101999822Y-136985200D02*
X103139822Y-138125200D01*
X99070029Y-137003052D02*
X99087881Y-136985200D01*
X155002120Y-86614000D02*
X155002120Y-85101200D01*
X107199320Y-127032098D02*
X104767618Y-129463800D01*
X106843720Y-112903000D02*
X107199320Y-113258600D01*
X102043120Y-112903000D02*
X106843720Y-112903000D01*
X107199320Y-113258600D02*
X107199320Y-115773200D01*
X155002120Y-92710000D02*
X155002120Y-86614000D01*
X169643720Y-93370400D02*
X169592920Y-93319600D01*
X136269620Y-66763900D02*
X136269620Y-68894000D01*
X136256920Y-66751200D02*
X136269620Y-66763900D01*
X104767618Y-129463800D02*
X96963120Y-129463800D01*
X103139822Y-138125200D02*
X118680120Y-138125200D01*
X107199320Y-115773200D02*
X107199320Y-127032098D01*
X169592920Y-93319600D02*
X155611720Y-93319600D01*
%TO.N,/ZD4*%
X153732120Y-94462600D02*
X153732120Y-86614000D01*
X102043120Y-114173000D02*
X105370520Y-114173000D01*
X153732120Y-84124800D02*
X153681320Y-84074000D01*
X98243911Y-114173000D02*
X94096120Y-118320791D01*
X85914120Y-127381000D02*
X84517120Y-125984000D01*
X106273720Y-98397800D02*
X107842720Y-98397800D01*
X93635720Y-127381000D02*
X85914120Y-127381000D01*
X102043120Y-114173000D02*
X98243911Y-114173000D01*
X153732120Y-86614000D02*
X153732120Y-84124800D01*
X170479520Y-95097600D02*
X170454120Y-95072200D01*
X94096120Y-126920600D02*
X93635720Y-127381000D01*
X107842720Y-98397800D02*
X107850320Y-98390200D01*
X135621920Y-69875400D02*
X135621920Y-68906700D01*
X170454120Y-95072200D02*
X154341720Y-95072200D01*
X111475920Y-98390200D02*
X112457120Y-97409000D01*
X170826320Y-95097600D02*
X170479520Y-95097600D01*
X94096120Y-118320791D02*
X94096120Y-126920600D01*
X154341720Y-95072200D02*
X153732120Y-94462600D01*
X107850320Y-98390200D02*
X111475920Y-98390200D01*
%TO.N,/ZD3*%
X102043120Y-115443000D02*
X102043120Y-119888000D01*
X134999620Y-66136751D02*
X134999620Y-68894000D01*
X152462120Y-88138000D02*
X152462120Y-86614000D01*
X135012320Y-66124051D02*
X134999620Y-66136751D01*
X153351120Y-89027000D02*
X152462120Y-88138000D01*
X102043120Y-119888000D02*
X99576120Y-122355000D01*
X152462120Y-83413600D02*
X152411320Y-83362800D01*
X99576120Y-122355000D02*
X99576120Y-127885800D01*
X152462120Y-86614000D02*
X152462120Y-83413600D01*
X99576120Y-127885800D02*
X99579320Y-127889000D01*
X106107120Y-115443000D02*
X106208720Y-115341400D01*
X153351120Y-105968800D02*
X153351120Y-89027000D01*
X106081720Y-99949000D02*
X109917120Y-99949000D01*
X99579320Y-127889000D02*
X99579320Y-128066800D01*
X99579320Y-128066800D02*
X99122120Y-128524000D01*
X99122120Y-128524000D02*
X84517120Y-128524000D01*
X102043120Y-115443000D02*
X106107120Y-115443000D01*
%TO.N,/RRA0*%
X93537120Y-98933000D02*
X91730720Y-98933000D01*
X89771720Y-96974000D02*
X85587120Y-96974000D01*
X85587120Y-96974000D02*
X84517120Y-98044000D01*
X91730720Y-98933000D02*
X89771720Y-96974000D01*
%TO.N,/ZD6*%
X162655022Y-86244200D02*
X162726822Y-86172400D01*
X156272120Y-86614000D02*
X156272120Y-85064600D01*
X107772320Y-120954800D02*
X107772320Y-113298200D01*
X162726822Y-86172400D02*
X171359720Y-86172400D01*
X157389720Y-83947000D02*
X159867615Y-83947000D01*
X112507920Y-142518000D02*
X115022520Y-142518000D01*
X107772320Y-113298200D02*
X106107120Y-111633000D01*
X159867615Y-83947000D02*
X162164815Y-86244200D01*
X162164815Y-86244200D02*
X162655022Y-86244200D01*
X102043120Y-111633000D02*
X105370520Y-111633000D01*
X156792820Y-84543900D02*
X157389720Y-83947000D01*
X106107120Y-111633000D02*
X105370520Y-111633000D01*
X136917320Y-65557400D02*
X136904620Y-65570100D01*
X136904620Y-65570100D02*
X136904620Y-68894001D01*
X156272120Y-85064600D02*
X156792820Y-84543900D01*
%TO.N,/RRA2*%
X95337520Y-94945200D02*
X94600920Y-94208600D01*
X94600920Y-94208600D02*
X70521720Y-94208600D01*
X93537120Y-97663000D02*
X94677120Y-97663000D01*
X65644920Y-91541600D02*
X67067320Y-92964000D01*
X70521720Y-94208600D02*
X69277120Y-92964000D01*
X65644920Y-86856800D02*
X65644920Y-91541600D01*
X95337520Y-97002600D02*
X95337520Y-94945200D01*
X94677120Y-97663000D02*
X95337520Y-97002600D01*
X67067320Y-92964000D02*
X69277120Y-92964000D01*
%TO.N,/ZD7*%
X158481920Y-84886800D02*
X158227920Y-84886800D01*
X108109320Y-108183000D02*
X109303120Y-108183000D01*
X158227920Y-84886800D02*
X157542120Y-85572600D01*
X105929320Y-110363000D02*
X108109320Y-108183000D01*
X109303120Y-108183000D02*
X109917120Y-107569000D01*
X182448320Y-88366600D02*
X182422920Y-88392000D01*
X102043120Y-110363000D02*
X105929320Y-110363000D01*
X137552320Y-65227200D02*
X137539620Y-65239900D01*
X158698830Y-84886800D02*
X158481920Y-84886800D01*
X111771320Y-143088000D02*
X115565720Y-143088000D01*
X172655120Y-88392000D02*
X170877120Y-86614000D01*
X160426030Y-86614000D02*
X158698830Y-84886800D01*
X137539620Y-65239900D02*
X137539620Y-68894000D01*
X182422920Y-88392000D02*
X172655120Y-88392000D01*
X170877120Y-86614000D02*
X160426030Y-86614000D01*
X115565720Y-143088000D02*
X115571769Y-143094049D01*
X157542120Y-85572600D02*
X157542120Y-86614000D01*
X102043120Y-110363000D02*
X98791920Y-110363000D01*
X137552320Y-64871600D02*
X137552320Y-65227200D01*
%TO.N,/ZD2*%
X152766920Y-89636600D02*
X151192120Y-88061800D01*
X90623911Y-114173000D02*
X85264511Y-119532400D01*
X80681720Y-119532399D02*
X74230120Y-125984000D01*
X93537120Y-114173000D02*
X95667720Y-114173000D01*
X151192120Y-84023200D02*
X151166720Y-83997800D01*
X152781120Y-99593400D02*
X152766920Y-99579200D01*
X74230120Y-125984000D02*
X69277120Y-125984000D01*
X134402720Y-69875400D02*
X134402720Y-68932100D01*
X152766920Y-99579200D02*
X152766920Y-89636600D01*
X151192120Y-86614000D02*
X151192120Y-84023200D01*
X85264511Y-119532400D02*
X80681720Y-119532399D01*
X93537120Y-114173000D02*
X90623911Y-114173000D01*
X151192120Y-88061800D02*
X151192120Y-86614000D01*
X95667720Y-114173000D02*
X95743920Y-114096800D01*
%TO.N,/ZD0*%
X133094620Y-68894000D02*
X133094620Y-70853300D01*
X95007320Y-111633000D02*
X95577320Y-111063000D01*
X149820520Y-108788200D02*
X152889520Y-111857200D01*
X148652120Y-86614000D02*
X148652120Y-88163400D01*
X89017236Y-114754000D02*
X82438636Y-114754000D01*
X133094620Y-70853300D02*
X133107320Y-70866000D01*
X148652120Y-88163400D02*
X151434920Y-90946200D01*
X82438636Y-114754000D02*
X76288636Y-120904000D01*
X151434920Y-107199200D02*
X149845920Y-108788200D01*
X76288636Y-120904000D02*
X69277120Y-120904000D01*
X151434920Y-90946200D02*
X151434920Y-107199200D01*
X165513502Y-111165207D02*
X165924763Y-111165207D01*
X111475920Y-108550200D02*
X112457120Y-107569000D01*
X93537120Y-111633000D02*
X92138236Y-111633000D01*
X148652120Y-85521800D02*
X148652120Y-86614000D01*
X148118720Y-84988400D02*
X148652120Y-85521800D01*
X149845920Y-108788200D02*
X148144120Y-108788200D01*
X152889520Y-111857200D02*
X164821509Y-111857200D01*
X105921818Y-111063000D02*
X108434618Y-108550200D01*
X139317521Y-108788200D02*
X148144120Y-108788200D01*
X148144120Y-108788200D02*
X149820520Y-108788200D01*
X92138236Y-111633000D02*
X89017236Y-114754000D01*
X165924763Y-111165207D02*
X167011345Y-110078625D01*
X139228720Y-108699399D02*
X139317521Y-108788200D01*
X164821509Y-111857200D02*
X165513502Y-111165207D01*
X95577320Y-111063000D02*
X105921818Y-111063000D01*
X93537120Y-111633000D02*
X95007320Y-111633000D01*
X108434618Y-108550200D02*
X111475920Y-108550200D01*
%TO.N,/ZD1*%
X93537120Y-112903000D02*
X91377352Y-112903000D01*
X74257752Y-123444000D02*
X69277120Y-123444000D01*
X80407752Y-117294000D02*
X74257752Y-123444000D01*
X149922120Y-87960200D02*
X149922120Y-86614000D01*
X152055720Y-90093800D02*
X149922120Y-87960200D01*
X86986352Y-117294000D02*
X80407752Y-117294000D01*
X133738425Y-70284197D02*
X133738425Y-68902806D01*
X152004920Y-106639000D02*
X152055720Y-106588200D01*
X93537120Y-112903000D02*
X95743920Y-112903000D01*
X152055720Y-106588200D02*
X152055720Y-90093800D01*
X149922120Y-86614000D02*
X149922120Y-84023200D01*
X91377352Y-112903000D02*
X86986352Y-117294000D01*
%TO.N,/MOD_SEL-*%
X162369987Y-84367600D02*
X162369987Y-84091470D01*
X162369987Y-84091470D02*
X162957322Y-83504135D01*
%TO.N,/ROM_SEL*%
X108012120Y-78536800D02*
X108012120Y-79499000D01*
X109891720Y-77927200D02*
X108621720Y-77927200D01*
X108621720Y-77927200D02*
X108012120Y-78536800D01*
%TO.N,/SYNC*%
X110552120Y-77560400D02*
X110552120Y-79499000D01*
X110577520Y-77535000D02*
X110552120Y-77560400D01*
%TO.N,Net-(U2-Q2)*%
X161367120Y-76723000D02*
X161367120Y-76071500D01*
X148042520Y-120269000D02*
X148042520Y-121462600D01*
X161885520Y-77241400D02*
X161367120Y-76723000D01*
%TO.N,Net-(U2-Q1)*%
X159447120Y-76950800D02*
X159447120Y-76733400D01*
X159447120Y-76733400D02*
X160067120Y-76113400D01*
X149312520Y-120269000D02*
X149312520Y-121462600D01*
%TO.N,/LRST-*%
X164908120Y-84531200D02*
X164908120Y-83916598D01*
X184288320Y-86182200D02*
X183708520Y-85602400D01*
X89470120Y-141667000D02*
X89470120Y-136717000D01*
X102678120Y-135128000D02*
X90084121Y-135128000D01*
X88936720Y-135356600D02*
X87987392Y-135356600D01*
X87500120Y-135843872D02*
X87500120Y-137720128D01*
X87987392Y-135356600D02*
X87500120Y-135843872D01*
X87258248Y-137962000D02*
X86601992Y-137962000D01*
X90084121Y-135128000D02*
X89470120Y-135742001D01*
X89470120Y-137262717D02*
X89470120Y-141667000D01*
X85660120Y-141072717D02*
X89470120Y-137262717D01*
X87500120Y-137720128D02*
X87258248Y-137962000D01*
X183708520Y-85602400D02*
X165979320Y-85602400D01*
X165979320Y-85602400D02*
X164908120Y-84531200D01*
X89470120Y-135742001D02*
X89470120Y-136717000D01*
X86601992Y-137962000D02*
X85660120Y-137020128D01*
X89470120Y-135890000D02*
X88936720Y-135356600D01*
X184288320Y-92735400D02*
X184288320Y-86182200D01*
%TO.N,/ATTN*%
X181465222Y-113258600D02*
X181463722Y-113257100D01*
X165084420Y-113257100D02*
X164654120Y-112826800D01*
X181463722Y-113257100D02*
X165084420Y-113257100D01*
X153097120Y-113842800D02*
X153097120Y-121488000D01*
X183348520Y-113284000D02*
X183323120Y-113258600D01*
X183323120Y-113258600D02*
X181465222Y-113258600D01*
X164654120Y-112826800D02*
X154113120Y-112826800D01*
X154113120Y-112826800D02*
X153097120Y-113842800D01*
%TO.N,/TDBUSIN-*%
X132459620Y-69850000D02*
X132459620Y-68894000D01*
%TO.N,/TDBUSEN-*%
X133094620Y-65544700D02*
X133094620Y-63694000D01*
X133107320Y-65557400D02*
X133094620Y-65544700D01*
X133107320Y-67614800D02*
X133107320Y-65557400D01*
%TO.N,/RAM_SEL-*%
X105345120Y-109118400D02*
X105319720Y-109093000D01*
X105319720Y-109093000D02*
X102043120Y-109093000D01*
%TO.N,/SBC_GPI0*%
X92454620Y-56222900D02*
X92454620Y-54804000D01*
X92340320Y-56337200D02*
X92454620Y-56222900D01*
%TO.N,/SBC_O1*%
X90549620Y-54061825D02*
X85214000Y-48726205D01*
X85214000Y-47114000D02*
X84074000Y-45974000D01*
X85214000Y-48726205D02*
X85214000Y-47114000D01*
X90549620Y-54804000D02*
X90549620Y-54061825D01*
%TO.N,/SBC_I2*%
X93089620Y-59299000D02*
X93274620Y-59114000D01*
X105624520Y-55702200D02*
X104508820Y-54586500D01*
X93089620Y-60004001D02*
X93089620Y-59299000D01*
X102993999Y-47113999D02*
X101854000Y-45974000D01*
X105624520Y-58470800D02*
X105624520Y-55702200D01*
X93274620Y-59114000D02*
X104981320Y-59114000D01*
X103567120Y-54586500D02*
X102993999Y-54013379D01*
X102993999Y-54013379D02*
X102993999Y-47113999D01*
X104508820Y-54586500D02*
X103567120Y-54586500D01*
X104981320Y-59114000D02*
X105624520Y-58470800D01*
%TO.N,/SBC_O0*%
X89241520Y-53340000D02*
X84110720Y-53340000D01*
X82789920Y-47229920D02*
X81534000Y-45974000D01*
X89914620Y-54013100D02*
X89241520Y-53340000D01*
X82789920Y-52019200D02*
X82789920Y-47229920D01*
X89914620Y-54803999D02*
X89914620Y-54013100D01*
X84110720Y-53340000D02*
X82789920Y-52019200D01*
%TO.N,/SBC_I1*%
X104764111Y-58674000D02*
X104997994Y-58440117D01*
X93004620Y-58674000D02*
X104764111Y-58674000D01*
X104658134Y-55516421D02*
X101957041Y-55516421D01*
X92454620Y-60004000D02*
X92454620Y-59224000D01*
X104997994Y-58440117D02*
X104997994Y-55856281D01*
X92454620Y-59224000D02*
X93004620Y-58674000D01*
X104997994Y-55856281D02*
X104658134Y-55516421D01*
X101957041Y-55516421D02*
X101027120Y-54586500D01*
X100713999Y-47373999D02*
X99314000Y-45974000D01*
X100713999Y-54273379D02*
X100713999Y-47373999D01*
%TO.N,/SBC_GPO0*%
X89241520Y-61112400D02*
X89242247Y-61112400D01*
X89242247Y-61112400D02*
X89279620Y-61075027D01*
X89279620Y-61075027D02*
X89279620Y-60004000D01*
%TO.N,/SBC_GPO3*%
X92772120Y-66903600D02*
X92772120Y-62839600D01*
X91171920Y-61239400D02*
X91171920Y-60016700D01*
X92772120Y-62839600D02*
X91171920Y-61239400D01*
%TO.N,/SBC_O2*%
X87753999Y-47113999D02*
X86614000Y-45974000D01*
X87753999Y-48726203D02*
X87753999Y-47113999D01*
X91184620Y-52156824D02*
X87753999Y-48726203D01*
X91184620Y-54804000D02*
X91184620Y-52156824D01*
%TO.N,/SBC_O3*%
X91819620Y-50919620D02*
X90294000Y-49394000D01*
X90294000Y-47114000D02*
X89154000Y-45974000D01*
X90294000Y-49394000D02*
X90294000Y-47114000D01*
X91819620Y-54804000D02*
X91819620Y-50919620D01*
%TO.N,/SBC_I0*%
X93477776Y-57578800D02*
X93980878Y-57578800D01*
X98487120Y-54586500D02*
X97914000Y-54013380D01*
X96973178Y-54586500D02*
X98487120Y-54586500D01*
X97914000Y-54013380D02*
X97914000Y-47114000D01*
X91819620Y-60004000D02*
X91819620Y-59236956D01*
X91819620Y-59236956D02*
X93477776Y-57578800D01*
X97914000Y-47114000D02*
X96774000Y-45974000D01*
X93980878Y-57578800D02*
X96973178Y-54586500D01*
%TO.N,/SBC_GPO2*%
X90549620Y-66729380D02*
X90549620Y-60004000D01*
X90350000Y-66929000D02*
X90549620Y-66729380D01*
%TO.N,/SBC_GPI2*%
X93713878Y-57008800D02*
X93713878Y-54814742D01*
%TO.N,/SBC_GPI1*%
X93089620Y-55854600D02*
X93089620Y-54803999D01*
%TO.N,/SBC_GPO1*%
X89914620Y-62318900D02*
X89914620Y-60004001D01*
X105980120Y-136285200D02*
X95842520Y-136285200D01*
X106366720Y-136671800D02*
X105980120Y-136285200D01*
X95842520Y-136285200D02*
X93799320Y-138328400D01*
X89952720Y-62357000D02*
X89914620Y-62318900D01*
D73*
%TO.N,Net-(D3-K)*%
X140290121Y-44450000D02*
X137746119Y-44450000D01*
D74*
%TO.N,Net-(LED3-K)*%
X68007120Y-141048499D02*
X68007120Y-136548500D01*
%TO.N,/TGTMODE-*%
X90717720Y-138404600D02*
X90717720Y-136739400D01*
X100442920Y-84263000D02*
X100442920Y-85521700D01*
X81697720Y-88138000D02*
X81723120Y-88112600D01*
X81723120Y-88112600D02*
X81723120Y-85660000D01*
X91541720Y-135915400D02*
X90740120Y-136717000D01*
X103236920Y-135915400D02*
X91541720Y-135915400D01*
X81723120Y-85660000D02*
X81723120Y-84263000D01*
X104824120Y-134328200D02*
X103236920Y-135915400D01*
%TO.N,/TBREQB-*%
X136269620Y-79689000D02*
X136269620Y-80886300D01*
X136269620Y-80886300D02*
X136256920Y-80899000D01*
%TO.N,/TNMIB-*%
X137539620Y-80469000D02*
X137539620Y-79689000D01*
X138939120Y-80579000D02*
X137649620Y-80579000D01*
X137649620Y-80579000D02*
X137539620Y-80469000D01*
X139177920Y-80340200D02*
X138939120Y-80579000D01*
%TO.N,/PC_LATCH-*%
X76922520Y-77952600D02*
X94067520Y-77952600D01*
X75373120Y-80710000D02*
X75373120Y-79502000D01*
X75373120Y-79502000D02*
X76922520Y-77952600D01*
X94067520Y-77952600D02*
X94067520Y-80710000D01*
%TO.N,Net-(R29-Pad1)*%
X77319500Y-51308000D02*
X77319500Y-50649500D01*
X77319500Y-50649500D02*
X71374000Y-44704000D01*
%TO.N,/TINTB-*%
X134999620Y-79689000D02*
X134999620Y-81306900D01*
X134999620Y-81306900D02*
X135023520Y-81330800D01*
%TO.N,/TGT_NOW*%
X121542818Y-133996200D02*
X120861413Y-133314795D01*
X140854320Y-129883552D02*
X140854320Y-129922917D01*
X127118188Y-133996200D02*
X121542818Y-133996200D01*
X115700904Y-133682284D02*
X99251204Y-133682284D01*
X140854320Y-129922917D02*
X139611005Y-131166232D01*
X120861413Y-133314795D02*
X116068393Y-133314795D01*
X116068393Y-133314795D02*
X115700904Y-133682284D01*
X99251204Y-133682284D02*
X99071320Y-133502400D01*
X139611005Y-131166232D02*
X129948156Y-131166232D01*
X129948156Y-131166232D02*
X127118188Y-133996200D01*
%TO.N,Net-(R29-Pad2)*%
X111822120Y-78524001D02*
X111822120Y-79499000D01*
X79144500Y-51308000D02*
X81545320Y-51308000D01*
X113701720Y-72694800D02*
X113701720Y-76644401D01*
X113701720Y-76644401D02*
X111822120Y-78524001D01*
X81545320Y-51308000D02*
X81570720Y-51333400D01*
%TO.N,Net-(R34-Pad2)*%
X116597320Y-58078600D02*
X116597320Y-75285600D01*
X83386300Y-58089800D02*
X79144500Y-53848000D01*
X116597320Y-75285600D02*
X113092120Y-78790800D01*
X91375120Y-58089800D02*
X83386300Y-58089800D01*
%TO.N,/TCBUSEN-*%
X126122320Y-76225400D02*
X126122320Y-74501700D01*
%TO.N,/TCBUSFEN-*%
X125474620Y-79689000D02*
X125474620Y-77573100D01*
X125474620Y-77573100D02*
X125512720Y-77535000D01*
%TO.N,/ZRST*%
X113281120Y-71653400D02*
X113092120Y-71842400D01*
X113092120Y-71842400D02*
X113092120Y-74549000D01*
X121029620Y-63694000D02*
X121029620Y-62496700D01*
X121029620Y-62496700D02*
X121016920Y-62484000D01*
X108977320Y-62484000D02*
X108977320Y-63681300D01*
%TO.N,/ZID_IO*%
X107326320Y-127711200D02*
X116546520Y-127711200D01*
X116546520Y-127711200D02*
X116622720Y-127635000D01*
D76*
%TO.N,/VBUSP*%
X170885120Y-49405000D02*
X170885120Y-52849400D01*
X174585520Y-54635400D02*
X171791520Y-54635400D01*
X171791520Y-54635400D02*
X170877120Y-53721000D01*
X175685120Y-53535800D02*
X174585520Y-54635400D01*
X175685120Y-49405000D02*
X175685120Y-53535800D01*
X170877120Y-53721000D02*
X170877120Y-52857400D01*
D74*
%TO.N,Net-(R22-Pad1)*%
X107945320Y-70850000D02*
X109225401Y-72130081D01*
X109282120Y-73152000D02*
X109282120Y-74549000D01*
X109225401Y-72130081D02*
X109927771Y-72130081D01*
X109927771Y-72506349D02*
X109282120Y-73152000D01*
%TO.N,Net-(TP7-Pad1)*%
X111855447Y-72178873D02*
X110552120Y-73482200D01*
X110552120Y-73482200D02*
X110552120Y-74549000D01*
%TO.N,/PCRD_DIN*%
X97852120Y-91313000D02*
X97852120Y-89664800D01*
X97891620Y-89625300D02*
X97891620Y-85648700D01*
X97852120Y-89664800D02*
X97891620Y-89625300D01*
%TO.N,Net-(U12-Ds)*%
X79833519Y-78748787D02*
X79868920Y-78784188D01*
X101687520Y-78968600D02*
X101687520Y-80710000D01*
X79868920Y-84974200D02*
X79183120Y-85660000D01*
X101293820Y-78574900D02*
X101687520Y-78968600D01*
X101193720Y-78574900D02*
X101293820Y-78574900D01*
X79868920Y-78784188D02*
X79868920Y-84974200D01*
%TD*%
M02*
