%TF.GenerationSoftware,KiCad,Pcbnew,9.0.9*%
%TF.CreationDate,2026-08-16T13:21:44-07:00*%
%TF.ProjectId,ZID_MAIN,5a49445f-4d41-4494-9e2e-6b696361645f,PR1.0*%
%TF.SameCoordinates,Original*%
%TF.FileFunction,Plated,1,6,PTH,Mixed*%
%TF.FilePolarity,Positive*%
%FSLAX46Y46*%
G04 Gerber Fmt 4.6, Leading zero omitted, Abs format (unit mm)*
G04 Created by KiCad (PCBNEW 9.0.9) date 2026-08-16 13:21:44*
%MOMM*%
%LPD*%
G01*
G04 APERTURE LIST*
%TA.AperFunction,ViaDrill*%
%ADD10C,0.300000*%
%TD*%
%TA.AperFunction,ViaDrill*%
%ADD11C,0.400000*%
%TD*%
%TA.AperFunction,ComponentDrill*%
%ADD12C,0.500000*%
%TD*%
G04 aperture for slot hole*
%TA.AperFunction,ComponentDrill*%
%ADD13C,0.600000*%
%TD*%
%TA.AperFunction,ComponentDrill*%
%ADD14C,0.750000*%
%TD*%
%TA.AperFunction,ComponentDrill*%
%ADD15C,0.800000*%
%TD*%
%TA.AperFunction,ComponentDrill*%
%ADD16C,1.000000*%
%TD*%
%TA.AperFunction,ComponentDrill*%
%ADD17C,1.020000*%
%TD*%
G04 APERTURE END LIST*
D10*
X60310920Y-133934200D03*
X65074920Y-87491905D03*
X65644920Y-86856800D03*
X66610120Y-82615000D03*
X67321320Y-81356200D03*
X71791720Y-80314800D03*
X72553720Y-80952800D03*
X76643120Y-92125800D03*
X76643120Y-93624400D03*
X77913120Y-92151200D03*
X78765520Y-93141800D03*
X79259320Y-90500200D03*
X79833519Y-78748787D03*
X79843520Y-114630200D03*
X80453120Y-79222600D03*
X81570720Y-51333400D03*
X81697720Y-88138000D03*
X81723120Y-79197200D03*
X81723120Y-84263000D03*
X83018520Y-74218800D03*
X83434830Y-143723110D03*
X84390120Y-143259227D03*
X85722120Y-73660000D03*
X87006320Y-130048000D03*
X87840678Y-74230000D03*
X88629047Y-58784954D03*
X89241520Y-61112400D03*
X89952720Y-62357000D03*
X90130520Y-139192000D03*
X90350000Y-66929000D03*
X90717720Y-138404600D03*
X91287720Y-139192000D03*
X91375120Y-58089800D03*
X91502120Y-73713800D03*
X91857720Y-143002000D03*
X92086320Y-134340600D03*
X92340320Y-56337200D03*
X92594320Y-141655800D03*
X92772120Y-66903600D03*
X92848320Y-61747400D03*
X93089620Y-55854600D03*
X93229320Y-137515600D03*
X93584920Y-68199000D03*
X93713878Y-57008800D03*
X93799320Y-138328400D03*
X94067520Y-77952600D03*
X95167408Y-138340314D03*
X95520000Y-92565079D03*
X95520000Y-106578400D03*
X95743920Y-112903000D03*
X95743920Y-114096800D03*
X96023320Y-107823000D03*
X96133042Y-92082810D03*
X96150320Y-90474800D03*
X96328120Y-109093000D03*
X96607520Y-82615000D03*
X96746080Y-92565079D03*
X96759920Y-89585800D03*
X96963120Y-129463800D03*
X97318863Y-110338067D03*
X97852120Y-91313000D03*
X97877520Y-82473800D03*
X97888863Y-103352600D03*
X97902920Y-105283000D03*
X97928320Y-100660200D03*
X98676120Y-67513200D03*
X98690320Y-100203000D03*
X98791920Y-110363000D03*
X98842720Y-82499200D03*
X98941493Y-88544400D03*
X99070029Y-137003052D03*
X99071320Y-131928000D03*
X99071320Y-133502400D03*
X99477720Y-132740400D03*
X99764384Y-130563312D03*
X100112720Y-131876800D03*
X100392120Y-82615000D03*
X100442920Y-84263000D03*
X100823920Y-132740400D03*
X100913502Y-143260000D03*
X101193720Y-78574900D03*
X101636720Y-127711200D03*
X101687520Y-122097800D03*
X101763720Y-137555200D03*
X102424120Y-142976600D03*
X102526743Y-138318223D03*
X102678120Y-135128000D03*
X102830520Y-88544400D03*
X103081729Y-64493391D03*
X103196126Y-143088000D03*
X103617920Y-80924400D03*
X103821120Y-63550800D03*
X104278320Y-119659400D03*
X104488812Y-65063390D03*
X104532320Y-69596000D03*
X104824120Y-134328200D03*
X105153956Y-142518000D03*
X105345120Y-109118400D03*
X105370520Y-111633000D03*
X105370520Y-114173000D03*
X105421320Y-136855200D03*
X105522920Y-106553000D03*
X105649920Y-138836400D03*
X105751520Y-81457800D03*
X106081720Y-99949000D03*
X106208720Y-115341400D03*
X106273720Y-98397800D03*
X106366720Y-136671800D03*
X106843720Y-110947200D03*
X107199320Y-115773200D03*
X107326320Y-127711200D03*
X107540000Y-49219011D03*
X107772320Y-120954800D03*
X108113720Y-140220500D03*
X108345920Y-127076200D03*
X108951920Y-67778400D03*
X108977320Y-62484000D03*
X109459920Y-128676400D03*
X109540388Y-70953166D03*
X109541289Y-87969000D03*
X109561520Y-45278400D03*
X109891720Y-77927200D03*
X110044120Y-95783400D03*
X110234620Y-114338100D03*
X110425120Y-70967600D03*
X110470862Y-83123000D03*
X110577520Y-77535000D03*
X110679120Y-135153400D03*
X110983920Y-129057400D03*
X111771320Y-143088000D03*
X111847520Y-75869800D03*
X112126920Y-117652800D03*
X112126920Y-132195800D03*
X112507920Y-142518000D03*
X112711120Y-66686200D03*
X113281120Y-71653400D03*
X113385720Y-115787400D03*
X113701720Y-72694800D03*
X114263520Y-136772996D03*
X114336720Y-118948200D03*
X114362120Y-81443600D03*
X114387520Y-59410600D03*
X114387520Y-72237600D03*
X115022520Y-142518000D03*
X115062120Y-71551800D03*
X115403520Y-134340600D03*
X115571769Y-143094049D03*
X115606720Y-67321200D03*
X115936920Y-120650000D03*
X115987720Y-138938000D03*
X116267120Y-91541600D03*
X116597320Y-58078600D03*
X116608520Y-120156200D03*
X116613972Y-136985200D03*
X116622720Y-127635000D03*
X117183972Y-143094049D03*
X117384720Y-58078600D03*
X117410120Y-70916800D03*
X117449720Y-73177400D03*
X117562520Y-100482400D03*
X118308320Y-102900200D03*
X118416120Y-44918400D03*
X118603920Y-67629000D03*
X118603920Y-91019400D03*
X118680120Y-138125200D03*
X119173920Y-72121800D03*
X119416720Y-70256400D03*
X119467520Y-43980000D03*
X119924720Y-102158800D03*
X120077120Y-53365400D03*
X120432720Y-81635600D03*
X120483520Y-46990000D03*
X120889920Y-132195800D03*
X120915320Y-105881400D03*
X121016920Y-62484000D03*
X121042320Y-70408800D03*
X121245520Y-82524600D03*
X121347120Y-46736000D03*
X121626520Y-90449400D03*
X121628320Y-106451400D03*
X121640456Y-78028795D03*
X121728120Y-51155600D03*
X121778920Y-133426200D03*
X121996320Y-87969000D03*
X122032306Y-124730252D03*
X122134520Y-141655800D03*
X122286920Y-130581400D03*
X122312320Y-70002400D03*
X122540920Y-53340000D03*
X122650697Y-70705184D03*
X122693320Y-141020800D03*
X122693320Y-142265400D03*
X122820320Y-65423391D03*
X122896520Y-90982800D03*
X122977718Y-78069732D03*
X122998120Y-48271200D03*
X123175920Y-51181000D03*
X123362655Y-71023800D03*
X123379120Y-104114600D03*
X123506120Y-73228200D03*
X123607720Y-101371400D03*
X124191920Y-80873600D03*
X124191920Y-84836000D03*
X124217320Y-47701200D03*
X124217320Y-67321200D03*
X124282320Y-71023800D03*
X124369720Y-136499600D03*
X124547520Y-55346600D03*
X124609520Y-61671200D03*
X124765399Y-90928495D03*
X124852320Y-72923400D03*
X124979320Y-48260000D03*
X125258720Y-88392000D03*
X125487320Y-70993000D03*
X125511366Y-47689622D03*
X125512720Y-77535000D03*
X125512720Y-127177800D03*
X126122320Y-76225400D03*
X126416120Y-52298600D03*
X126452520Y-91287600D03*
X126715319Y-59597199D03*
X126801422Y-114238000D03*
X126801422Y-129038698D03*
X126916120Y-56667400D03*
X127058771Y-130102149D03*
X127138320Y-72584400D03*
X127417720Y-132765800D03*
X127773320Y-73583800D03*
X128027320Y-125095000D03*
X128067269Y-67902051D03*
X128128920Y-132105400D03*
X128230520Y-83123000D03*
X128241720Y-57505600D03*
X128371720Y-113487200D03*
X128371720Y-124333000D03*
X128371721Y-112568299D03*
X128382920Y-126415800D03*
X128449249Y-93459855D03*
X128484520Y-74523600D03*
X128899546Y-140504174D03*
X128941720Y-125857000D03*
X128941720Y-134583400D03*
X128967120Y-91490800D03*
X129144920Y-53049400D03*
X129703720Y-54864000D03*
X129703720Y-60107600D03*
X129703720Y-83693000D03*
X130359949Y-77578494D03*
X130668920Y-102285800D03*
X130770520Y-143383000D03*
X131075320Y-44715200D03*
X131227720Y-76225400D03*
X131380120Y-136525000D03*
X131456320Y-114808000D03*
X131766274Y-75170309D03*
X131806120Y-76748714D03*
X131950120Y-135153400D03*
X132167520Y-44715200D03*
X132294520Y-115378000D03*
X132459620Y-69850000D03*
X132459620Y-80746600D03*
X132599320Y-100050600D03*
X132884299Y-52961328D03*
X133107320Y-67614800D03*
X133107320Y-70866000D03*
X133259720Y-134823200D03*
X133738425Y-70284197D03*
X133742320Y-80873600D03*
X134176911Y-53545991D03*
X134402720Y-69875400D03*
X134453520Y-85307400D03*
X134545642Y-139079201D03*
X134732920Y-76098400D03*
X134834520Y-109269399D03*
X135012320Y-66124051D03*
X135023520Y-81330800D03*
X135215520Y-142468600D03*
X135569494Y-45540575D03*
X135621920Y-69875400D03*
X135621920Y-76098400D03*
X135672720Y-54114122D03*
X136002920Y-101244400D03*
X136028320Y-143357600D03*
X136256920Y-66751200D03*
X136256920Y-80899000D03*
X136333120Y-76631800D03*
X136598320Y-107569000D03*
X136598320Y-117652800D03*
X136688720Y-139649200D03*
X136917320Y-65557400D03*
X136917320Y-83845400D03*
X137134720Y-106426000D03*
X137541322Y-83275400D03*
X137552320Y-64871600D03*
X137603120Y-116992400D03*
X137704720Y-110591600D03*
X138161920Y-82742000D03*
X138288920Y-118516400D03*
X139177920Y-80340200D03*
X139228720Y-108699399D03*
X139482720Y-68529200D03*
X140854320Y-129883552D03*
X140905120Y-112095207D03*
X141540120Y-108153200D03*
X141844920Y-127152400D03*
X142225920Y-74676000D03*
X142937120Y-129514600D03*
X143572120Y-84963000D03*
X143597520Y-58648600D03*
X145019920Y-68097400D03*
X145477120Y-74055200D03*
X145477120Y-120269000D03*
X146137520Y-75195200D03*
X146747120Y-120269000D03*
X146772520Y-77535000D03*
X147786620Y-95097600D03*
X147786620Y-98196400D03*
X147786620Y-101447600D03*
X147932120Y-73471000D03*
X148042520Y-120269000D03*
X148067920Y-114782600D03*
X148118720Y-84988400D03*
X149222120Y-75793600D03*
X149312520Y-76950800D03*
X149312520Y-120269000D03*
X149922120Y-71055000D03*
X149922120Y-84023200D03*
X150557120Y-120243600D03*
X150596720Y-75754000D03*
X151166720Y-83997800D03*
X151344520Y-123266200D03*
X151660520Y-70485000D03*
X152004920Y-106639000D03*
X152411320Y-83362800D03*
X152462120Y-76073000D03*
X152781120Y-99593400D03*
X153351120Y-105968800D03*
X153681320Y-84074000D03*
X153732120Y-76073000D03*
X154163920Y-74055200D03*
X154432120Y-84531200D03*
X155002120Y-76073000D03*
X155054321Y-109269399D03*
X156272120Y-76073000D03*
X156348320Y-125958600D03*
X156792820Y-84543900D03*
X156907120Y-108762800D03*
X157491320Y-126734800D03*
X157542120Y-76073000D03*
X158151720Y-90678000D03*
X158177120Y-127276200D03*
X158303523Y-77536748D03*
X158481920Y-84886800D03*
X158710520Y-81502800D03*
X158812120Y-128416200D03*
X158899881Y-88986000D03*
X159382120Y-74625200D03*
X159447120Y-76950800D03*
X160039881Y-81178400D03*
X160161669Y-80362251D03*
X160241917Y-83515200D03*
X160241917Y-87731600D03*
X160488520Y-127685800D03*
X160497286Y-97580000D03*
X160767920Y-91516200D03*
X161021920Y-71170800D03*
X161021920Y-87731600D03*
X161428320Y-91059000D03*
X161457832Y-107578163D03*
X161799987Y-87676682D03*
X161809320Y-78725800D03*
X161885520Y-77241400D03*
X162012520Y-108153200D03*
X162037920Y-110003307D03*
X162037920Y-118491000D03*
X162215720Y-90486000D03*
X162369987Y-84367600D03*
X162418920Y-85674200D03*
X162438122Y-74295000D03*
X162799920Y-108280200D03*
X162805341Y-118630532D03*
X163075414Y-107452604D03*
X163384120Y-140462000D03*
X163422220Y-99771200D03*
X163511120Y-127889000D03*
X163905343Y-87184000D03*
X164298520Y-101904800D03*
X164323920Y-108991400D03*
X164433320Y-128473200D03*
X164475343Y-84902152D03*
X164758720Y-100126800D03*
X164857320Y-79832200D03*
X165289120Y-89154000D03*
X165314520Y-137555200D03*
X165898720Y-98044000D03*
X165898720Y-112095207D03*
X166330520Y-129667000D03*
X166482920Y-120269000D03*
X166519520Y-89560400D03*
X166610730Y-88542386D03*
X167011345Y-110078625D03*
X167152041Y-89103978D03*
X167740220Y-100674400D03*
X167907518Y-112660200D03*
X168006920Y-110032800D03*
X168032320Y-87426800D03*
X168713619Y-112660200D03*
X169073720Y-78155800D03*
X169505520Y-112687100D03*
X169632520Y-103276400D03*
X169643720Y-93370400D03*
X169657920Y-84861400D03*
X169784920Y-106538800D03*
X170198420Y-100526100D03*
X170607218Y-103835150D03*
X170826320Y-95097600D03*
X170978720Y-104521000D03*
X171359720Y-86172400D03*
X171613720Y-105968800D03*
X171715320Y-116357400D03*
X172324920Y-92710000D03*
X172909120Y-104013000D03*
X173569520Y-99187000D03*
X173569520Y-125933200D03*
X174139520Y-102590600D03*
X174918511Y-114556791D03*
X175007489Y-96425625D03*
X175576120Y-98577400D03*
X176235218Y-96612111D03*
X176699158Y-112687100D03*
X176719120Y-98221800D03*
X177100120Y-107340400D03*
X177423505Y-99184707D03*
X177811320Y-107923997D03*
X178203393Y-99198073D03*
X178954320Y-139700000D03*
X179335320Y-100406200D03*
X179411520Y-111379000D03*
X179738371Y-107750149D03*
X179857184Y-105040535D03*
X181976920Y-134162800D03*
X182011120Y-112485161D03*
X182448320Y-88366600D03*
X182586520Y-114198400D03*
X182873020Y-96084100D03*
X183018320Y-80873600D03*
X183148320Y-95028797D03*
X183348520Y-113284000D03*
X183718320Y-102514400D03*
X183729520Y-54356000D03*
X184288320Y-92735400D03*
X184288320Y-136702800D03*
D11*
X65272169Y-63669201D03*
X66403823Y-142302145D03*
X71047041Y-85834527D03*
X71182120Y-133444365D03*
X71779029Y-76665414D03*
X77706862Y-133405400D03*
X83110491Y-134733868D03*
X84052033Y-133405400D03*
X84547119Y-80300561D03*
X85896250Y-55374239D03*
X88232874Y-56114672D03*
X88569545Y-85762609D03*
X90755025Y-143422595D03*
X93432520Y-50850800D03*
X95002750Y-61418886D03*
X95662022Y-115479015D03*
X95856178Y-142801723D03*
X98469626Y-138476769D03*
X98710037Y-127859000D03*
X101515682Y-62171458D03*
X101821217Y-132531793D03*
X102133143Y-57777599D03*
X102972650Y-139336438D03*
X103110719Y-132531793D03*
X103973520Y-50957000D03*
X104028907Y-142409873D03*
X104548400Y-70696501D03*
X104858786Y-85604722D03*
X105227215Y-90906009D03*
X105966208Y-97395945D03*
X106037447Y-95878400D03*
X106349918Y-132472381D03*
X106741919Y-62157813D03*
X109461098Y-136829853D03*
X111132522Y-54338884D03*
X113336428Y-136811659D03*
X114044137Y-67556284D03*
X114181493Y-84622707D03*
X117920391Y-129709522D03*
X118740832Y-62082513D03*
X119553944Y-63197815D03*
X120058477Y-73004941D03*
X120527720Y-84554217D03*
X120869273Y-127162245D03*
X122445732Y-123959079D03*
X122454829Y-125496475D03*
X122533715Y-119043986D03*
X122891556Y-55659089D03*
X123120470Y-133137255D03*
X125207920Y-119532400D03*
X125583488Y-136691915D03*
X126450336Y-70282017D03*
X127128249Y-138984200D03*
X128366374Y-80379427D03*
X128635873Y-84829005D03*
X128823765Y-47003212D03*
X130058575Y-46984919D03*
X130368720Y-62336200D03*
X131460920Y-138412063D03*
X132908156Y-120687848D03*
X133041120Y-76153153D03*
X133041120Y-77537556D03*
X133064620Y-62336200D03*
X133929688Y-129061407D03*
X134005332Y-123668000D03*
X134698767Y-140314200D03*
X134753720Y-134809588D03*
X135007720Y-52066253D03*
X136803780Y-132326102D03*
X136993621Y-137665025D03*
X138975821Y-67438887D03*
X139109169Y-76943395D03*
X139142377Y-86722004D03*
X139406520Y-131902200D03*
X140821635Y-71911126D03*
X141077065Y-84773515D03*
X141971920Y-132410200D03*
X142945771Y-119659735D03*
X143572120Y-117602000D03*
X144003920Y-77393800D03*
X144922920Y-69820000D03*
X145486204Y-132901556D03*
X146924920Y-104329800D03*
X148648689Y-132915276D03*
X148652120Y-104329800D03*
X151344520Y-44450000D03*
X151824895Y-132915276D03*
X154367120Y-132994400D03*
X154875120Y-123190000D03*
X155398984Y-132901556D03*
X158014638Y-88790352D03*
X159477120Y-98129648D03*
X159650320Y-116535200D03*
X159746365Y-129049328D03*
X160717461Y-77441748D03*
X160727410Y-72765800D03*
X163076291Y-94281609D03*
X163308265Y-91770832D03*
X163696679Y-85301291D03*
X163917520Y-76606400D03*
X164323920Y-127254000D03*
X164546657Y-119414939D03*
X164582704Y-132836078D03*
X165353952Y-102653421D03*
X166828811Y-95823554D03*
X166914720Y-65862200D03*
X167432718Y-61702789D03*
X167564150Y-104284442D03*
X167758095Y-84937400D03*
X168260920Y-79629000D03*
X168451776Y-127279433D03*
X169226120Y-56007000D03*
X169226120Y-62001400D03*
X169495218Y-51360228D03*
X170318320Y-114223800D03*
X170362476Y-107828997D03*
X170669176Y-87979936D03*
X170706702Y-93869109D03*
X172985320Y-69773800D03*
X173563166Y-89238727D03*
X174250720Y-105199347D03*
X174433120Y-69397400D03*
X175736926Y-109737901D03*
X176242701Y-136059309D03*
X176373388Y-92151290D03*
X176671821Y-103476819D03*
X176802399Y-58503662D03*
X177119658Y-50735945D03*
X178138144Y-101891440D03*
X178281422Y-100745216D03*
X178755451Y-94466642D03*
X178911712Y-59563509D03*
X179217657Y-52833945D03*
X181264261Y-135215522D03*
X182106120Y-117256299D03*
X183094520Y-122936000D03*
D12*
%TO.C,TP22*%
X94560952Y-134279717D03*
%TO.C,TP20*%
X108037520Y-128524000D03*
%TO.C,TP3*%
X109927771Y-72130081D03*
%TO.C,TP7*%
X111855447Y-72006600D03*
%TO.C,TP13*%
X113206266Y-128862973D03*
%TO.C,TP23*%
X116387338Y-134084795D03*
%TO.C,TP19*%
X119797720Y-127076200D03*
%TO.C,TP25*%
X122667920Y-122402600D03*
%TO.C,TP17*%
X123404520Y-143154400D03*
%TO.C,TP24*%
X133913337Y-121638795D03*
%TO.C,TP6*%
X133913337Y-142466795D03*
%TO.C,TP18*%
X138568320Y-135991600D03*
%TO.C,TP21*%
X138739337Y-125956795D03*
%TO.C,TP8*%
X156272120Y-94234000D03*
%TO.C,TP9*%
X157465920Y-92481400D03*
%TO.C,TP11*%
X177404920Y-87045800D03*
%TO.C,TP10*%
X179436920Y-87071200D03*
%TO.C,TP5*%
X183450120Y-103632000D03*
%TO.C,TP4*%
X183450120Y-106426000D03*
D13*
%TO.C,J14*%
X168970120Y-44209000D02*
X168970120Y-45009000D01*
X168970120Y-48239000D02*
X168970120Y-49339000D01*
X177610120Y-44209000D02*
X177610120Y-45009000D01*
X177610120Y-48239000D02*
X177610120Y-49339000D01*
D14*
%TO.C,J3*%
X140016120Y-94140000D03*
X140016120Y-96140000D03*
X140016120Y-98140000D03*
X140016120Y-100140000D03*
X140016120Y-102139999D03*
X140016120Y-104140000D03*
%TO.C,J5*%
X179132120Y-69152000D03*
X179132120Y-71152000D03*
X179132120Y-73152000D03*
X179132120Y-75152000D03*
X179132120Y-77151999D03*
X179132120Y-79152000D03*
D15*
%TO.C,SW2*%
X61084120Y-56146500D03*
X61084120Y-58686500D03*
%TO.C,SBC2*%
X61214000Y-66294000D03*
%TO.C,SBC3*%
X61214000Y-72390000D03*
%TO.C,SBC1*%
X61246000Y-69342000D03*
%TO.C,SBC2*%
X63214001Y-66294000D03*
%TO.C,SBC3*%
X63214001Y-72390000D03*
%TO.C,SBC1*%
X63246001Y-69342000D03*
%TO.C,SBC2*%
X65214000Y-66294000D03*
%TO.C,SBC3*%
X65214000Y-72390000D03*
%TO.C,SBC1*%
X65246000Y-69342000D03*
%TO.C,RN1*%
X65467120Y-98044000D03*
X65467120Y-100584000D03*
X65467120Y-103123999D03*
X65467120Y-105664000D03*
X65467120Y-108204000D03*
X65467120Y-110744000D03*
X65467120Y-113284000D03*
X65467120Y-115824001D03*
X65467120Y-118364000D03*
%TO.C,SW2*%
X68704120Y-56146500D03*
X68704120Y-58686500D03*
%TO.C,TP2*%
X68896120Y-76454000D03*
%TO.C,U5*%
X69277120Y-90424000D03*
X69277120Y-92964000D03*
X69277120Y-95503999D03*
X69277120Y-98044000D03*
X69277120Y-100584000D03*
X69277120Y-103124000D03*
X69277120Y-105664000D03*
X69277120Y-108204001D03*
X69277120Y-110744000D03*
X69277120Y-113284000D03*
X69277120Y-115824000D03*
X69277120Y-118363999D03*
X69277120Y-120904000D03*
X69277120Y-123444000D03*
X69277120Y-125984000D03*
X69277120Y-128523999D03*
%TO.C,JP2*%
X72008120Y-72390000D03*
%TO.C,JP3*%
X72008121Y-69342000D03*
%TO.C,JP2*%
X74008121Y-72390000D03*
%TO.C,JP3*%
X74008122Y-69342000D03*
%TO.C,JP2*%
X76008120Y-72390000D03*
%TO.C,JP3*%
X76008121Y-69342000D03*
%TO.C,U11*%
X81596120Y-64008000D03*
X81596120Y-71628000D03*
X84136120Y-64008000D03*
X84136120Y-71628000D03*
%TO.C,U5*%
X84517120Y-90424000D03*
X84517120Y-92964000D03*
X84517120Y-95504000D03*
X84517120Y-98044000D03*
X84517120Y-100584000D03*
X84517120Y-103124000D03*
X84517120Y-105664000D03*
X84517120Y-108204000D03*
X84517120Y-110744000D03*
X84517120Y-113284000D03*
X84517120Y-115824000D03*
X84517120Y-118364000D03*
X84517120Y-120904000D03*
X84517120Y-123444000D03*
X84517120Y-125984000D03*
X84517120Y-128524000D03*
%TO.C,U11*%
X86676120Y-64008000D03*
X86676120Y-71628000D03*
%TO.C,SPARE1*%
X87946120Y-118364000D03*
X87946120Y-125984000D03*
%TO.C,RN2*%
X88327120Y-90424000D03*
X88327120Y-92964000D03*
X88327120Y-95503999D03*
X88327120Y-98044000D03*
X88327120Y-100584000D03*
X88327120Y-103124000D03*
X88327120Y-105664000D03*
X88327120Y-108204001D03*
X88327120Y-110744000D03*
%TO.C,U11*%
X89216120Y-64008000D03*
X89216120Y-71628000D03*
%TO.C,SPARE1*%
X90486120Y-118364000D03*
X90486120Y-125984000D03*
%TO.C,U11*%
X91756120Y-71628000D03*
X91756121Y-64008000D03*
%TO.C,SPARE1*%
X93026119Y-125984000D03*
X93026120Y-118364000D03*
%TO.C,U11*%
X94296120Y-64008000D03*
X94296120Y-71628000D03*
%TO.C,SPARE1*%
X95566120Y-118364000D03*
X95566120Y-125984000D03*
%TO.C,U11*%
X96836120Y-64008000D03*
X96836120Y-71628000D03*
%TO.C,SPARE1*%
X98106120Y-118364000D03*
X98106120Y-125984000D03*
X100646120Y-118364000D03*
X100646120Y-125984000D03*
X103186120Y-118364000D03*
X103186120Y-125984000D03*
%TO.C,OP1*%
X104202120Y-73184000D03*
X104202120Y-75184000D03*
X104202120Y-77184000D03*
%TO.C,SPARE1*%
X105726120Y-118364000D03*
X105726121Y-125984000D03*
%TO.C,JP4*%
X106950000Y-55118000D03*
X108950001Y-55118000D03*
%TO.C,U7*%
X109917120Y-97409000D03*
X109917120Y-99949000D03*
X109917120Y-105029000D03*
X109917120Y-107569000D03*
X109917120Y-110109000D03*
X109917121Y-102489000D03*
X112457120Y-94869000D03*
X112457120Y-97409000D03*
X112457120Y-99949000D03*
X112457120Y-102489000D03*
X112457120Y-105029000D03*
X112457120Y-107569000D03*
X112457120Y-110109000D03*
X112457120Y-112649000D03*
X114997120Y-94869000D03*
X114997120Y-110109001D03*
X114997120Y-112649000D03*
X114997121Y-97409000D03*
X117537120Y-94869000D03*
X117537120Y-97409000D03*
X117537120Y-110109000D03*
X117537120Y-112649000D03*
X120077120Y-94869000D03*
X120077120Y-97409000D03*
X120077120Y-110109000D03*
X120077120Y-112649000D03*
X122617120Y-94869000D03*
X122617120Y-97409000D03*
X122617120Y-110109000D03*
X122617120Y-112649000D03*
X125157119Y-97409000D03*
X125157120Y-94869000D03*
X125157120Y-99949000D03*
X125157120Y-102489000D03*
X125157120Y-105029000D03*
X125157120Y-107568999D03*
X125157120Y-110109001D03*
X125157120Y-112649000D03*
X127697120Y-97409000D03*
X127697120Y-99949000D03*
X127697120Y-102489000D03*
X127697120Y-105029000D03*
X127697120Y-107569000D03*
X127697120Y-110109000D03*
%TO.C,DBOPT1*%
X133589920Y-104324399D03*
X133589920Y-106324400D03*
X133589920Y-108324399D03*
%TO.C,JP5*%
X137730120Y-44465999D03*
X137730120Y-46466000D03*
%TO.C,JP6*%
X170877120Y-52857400D03*
X172877121Y-52857400D03*
D16*
%TO.C,TP1*%
X62215920Y-85166200D03*
%TO.C,TP14*%
X67564000Y-44704000D03*
%TO.C,TP12*%
X71374000Y-44704000D03*
%TO.C,OP3*%
X74422000Y-52578001D03*
X74422000Y-55118000D03*
X74422000Y-57658000D03*
%TO.C,TP15*%
X75184000Y-44704000D03*
%TO.C,J4*%
X78802120Y-76454000D03*
X81342120Y-76454000D03*
%TO.C,J7*%
X81534000Y-45974000D03*
X81534000Y-48514000D03*
%TO.C,J4*%
X83882119Y-76454000D03*
%TO.C,J7*%
X84074000Y-45974000D03*
X84074000Y-48514000D03*
%TO.C,J4*%
X86422120Y-76454000D03*
%TO.C,J7*%
X86613999Y-48514000D03*
X86614000Y-45974000D03*
%TO.C,J4*%
X88962120Y-76454000D03*
%TO.C,J7*%
X89154000Y-45974000D03*
X89154000Y-48514000D03*
%TO.C,J4*%
X91502120Y-76454000D03*
%TO.C,J8*%
X91694000Y-45974000D03*
X91694000Y-48514000D03*
%TO.C,J4*%
X94042120Y-76454000D03*
%TO.C,J8*%
X94234000Y-45974000D03*
X94234000Y-48514000D03*
%TO.C,J4*%
X96582121Y-76454000D03*
%TO.C,J9*%
X96774000Y-45974000D03*
X96774000Y-48514000D03*
X99314000Y-45974000D03*
X99314000Y-48514000D03*
X101853999Y-48514000D03*
X101854000Y-45974000D03*
X104394000Y-45974000D03*
X104394000Y-48514000D03*
%TO.C,OP2*%
X134428120Y-88519000D03*
X134428120Y-91059000D03*
X134428120Y-93598999D03*
%TO.C,J11*%
X141794120Y-47244000D03*
X141794120Y-49784000D03*
X141794120Y-52323999D03*
X141794120Y-54864000D03*
X141794120Y-57404000D03*
X141794120Y-59944000D03*
X141794120Y-62484000D03*
X141794120Y-65024001D03*
%TO.C,J6*%
X168718120Y-71374000D03*
X168718120Y-73914000D03*
X168718120Y-76454000D03*
%TO.C,J2*%
X175514000Y-118491000D03*
X175514000Y-121031001D03*
X175514000Y-123571000D03*
X175514000Y-126111000D03*
%TO.C,J1*%
X182561120Y-125222000D03*
X182561120Y-127762000D03*
D17*
%TO.C,M1*%
X147382120Y-45974000D03*
X147382120Y-48514000D03*
X147382120Y-51054000D03*
X147382120Y-53594000D03*
X147382120Y-56134000D03*
X147382120Y-58674000D03*
X147382120Y-61214000D03*
X147382120Y-63754000D03*
X147382120Y-66294000D03*
X149922120Y-66294000D03*
X152462120Y-66294000D03*
X155002120Y-66294001D03*
X157542120Y-66293999D03*
X160082120Y-66294000D03*
X162622120Y-45974000D03*
X162622120Y-48514000D03*
X162622120Y-51054000D03*
X162622120Y-53594000D03*
X162622120Y-56134000D03*
X162622120Y-58674000D03*
X162622120Y-61214000D03*
X162622120Y-63754000D03*
X162622120Y-66294000D03*
M02*
