%TF.GenerationSoftware,KiCad,Pcbnew,9.0.9*%
%TF.CreationDate,2026-08-16T13:25:16-07:00*%
%TF.ProjectId,ZID_MAIN,5a49445f-4d41-4494-9e2e-6b696361645f,PR1.0*%
%TF.SameCoordinates,Original*%
%TF.FileFunction,Copper,L5,Inr*%
%TF.FilePolarity,Positive*%
%FSLAX46Y46*%
G04 Gerber Fmt 4.6, Leading zero omitted, Abs format (unit mm)*
G04 Created by KiCad (PCBNEW 9.0.9) date 2026-08-16 13:25:16*
%MOMM*%
%LPD*%
G01*
G04 APERTURE LIST*
G04 Aperture macros list*
%AMRoundRect*
0 Rectangle with rounded corners*
0 $1 Rounding radius*
0 $2 $3 $4 $5 $6 $7 $8 $9 X,Y pos of 4 corners*
0 Add a 4 corners polygon primitive as box body*
4,1,4,$2,$3,$4,$5,$6,$7,$8,$9,$2,$3,0*
0 Add four circle primitives for the rounded corners*
1,1,$1+$1,$2,$3*
1,1,$1+$1,$4,$5*
1,1,$1+$1,$6,$7*
1,1,$1+$1,$8,$9*
0 Add four rect primitives between the rounded corners*
20,1,$1+$1,$2,$3,$4,$5,0*
20,1,$1+$1,$4,$5,$6,$7,0*
20,1,$1+$1,$6,$7,$8,$9,0*
20,1,$1+$1,$8,$9,$2,$3,0*%
G04 Aperture macros list end*
%TA.AperFunction,ComponentPad*%
%ADD10O,1.000000X2.100000*%
%TD*%
%TA.AperFunction,ComponentPad*%
%ADD11O,1.000000X1.800000*%
%TD*%
%TA.AperFunction,ComponentPad*%
%ADD12R,1.700000X1.700000*%
%TD*%
%TA.AperFunction,ComponentPad*%
%ADD13O,1.750000X1.200000*%
%TD*%
%TA.AperFunction,ComponentPad*%
%ADD14RoundRect,0.250000X0.625000X-0.350000X0.625000X0.350000X-0.625000X0.350000X-0.625000X-0.350000X0*%
%TD*%
%TA.AperFunction,ComponentPad*%
%ADD15O,1.600000X2.400000*%
%TD*%
%TA.AperFunction,ComponentPad*%
%ADD16C,1.400000*%
%TD*%
%TA.AperFunction,ComponentPad*%
%ADD17RoundRect,0.250000X-0.550000X0.950000X-0.550000X-0.950000X0.550000X-0.950000X0.550000X0.950000X0*%
%TD*%
%TA.AperFunction,ComponentPad*%
%ADD18C,1.700000*%
%TD*%
%TA.AperFunction,ComponentPad*%
%ADD19C,1.350000*%
%TD*%
%TA.AperFunction,ComponentPad*%
%ADD20R,1.350000X1.350000*%
%TD*%
%TA.AperFunction,ComponentPad*%
%ADD21C,1.600000*%
%TD*%
%TA.AperFunction,ComponentPad*%
%ADD22RoundRect,0.250000X-0.550000X-0.550000X0.550000X-0.550000X0.550000X0.550000X-0.550000X0.550000X0*%
%TD*%
%TA.AperFunction,ComponentPad*%
%ADD23O,2.400000X1.600000*%
%TD*%
%TA.AperFunction,ComponentPad*%
%ADD24RoundRect,0.250000X-0.950000X-0.550000X0.950000X-0.550000X0.950000X0.550000X-0.950000X0.550000X0*%
%TD*%
%TA.AperFunction,ComponentPad*%
%ADD25C,1.000000*%
%TD*%
%TA.AperFunction,ComponentPad*%
%ADD26C,1.422400*%
%TD*%
%TA.AperFunction,ComponentPad*%
%ADD27R,1.422400X1.422400*%
%TD*%
%TA.AperFunction,ComponentPad*%
%ADD28RoundRect,0.250000X0.550000X-0.550000X0.550000X0.550000X-0.550000X0.550000X-0.550000X-0.550000X0*%
%TD*%
%TA.AperFunction,ComponentPad*%
%ADD29R,1.600000X1.600000*%
%TD*%
%TA.AperFunction,ComponentPad*%
%ADD30O,1.700000X1.700000*%
%TD*%
%TA.AperFunction,ViaPad*%
%ADD31C,0.750000*%
%TD*%
%TA.AperFunction,ViaPad*%
%ADD32C,0.600000*%
%TD*%
%TA.AperFunction,Conductor*%
%ADD33C,0.600000*%
%TD*%
%TA.AperFunction,Conductor*%
%ADD34C,0.180000*%
%TD*%
G04 APERTURE END LIST*
D10*
%TO.N,Net-(J14-SHIELD-PadSH1)*%
%TO.C,J14*%
X168970120Y-48789000D03*
X177610120Y-48789000D03*
D11*
X168970120Y-44609000D03*
X177610120Y-44609000D03*
%TD*%
D12*
%TO.N,Net-(R32-Pad2)*%
%TO.C,TP14*%
X67564000Y-44704000D03*
%TD*%
D13*
%TO.N,/JTDI_CO*%
%TO.C,J3*%
X140016120Y-94140000D03*
%TO.N,/JTMS*%
X140016120Y-96140000D03*
%TO.N,+5V*%
X140016120Y-98140000D03*
%TO.N,/JTDO_CI*%
X140016120Y-100140000D03*
%TO.N,GND*%
X140016120Y-102139999D03*
D14*
%TO.N,/JTCK*%
X140016120Y-104140000D03*
%TD*%
D15*
%TO.N,+5V*%
%TO.C,U11*%
X96836120Y-71628000D03*
D16*
%TO.N,unconnected-(U11-NC13-Pad13)*%
X94296120Y-71628000D03*
%TO.N,unconnected-(U11-NC12-Pad12)*%
X91756120Y-71628000D03*
D15*
%TO.N,+5V*%
X89216120Y-71628000D03*
D16*
%TO.N,unconnected-(U11-NC10-Pad10)*%
X86676120Y-71628000D03*
%TO.N,unconnected-(U11-NC9-Pad9)*%
X84136120Y-71628000D03*
D15*
%TO.N,/_CLK*%
X81596120Y-71628000D03*
%TO.N,GND*%
X81596120Y-64008000D03*
D16*
%TO.N,unconnected-(U11-NC6-Pad6)*%
X84136120Y-64008000D03*
%TO.N,unconnected-(U11-NC5-Pad5)*%
X86676120Y-64008000D03*
D15*
%TO.N,+5V*%
X89216120Y-64008000D03*
D16*
%TO.N,unconnected-(U11-NC3-Pad3)*%
X91756121Y-64008000D03*
%TO.N,unconnected-(U11-NC2-Pad2)*%
X94296120Y-64008000D03*
D17*
%TO.N,+5V*%
X96836120Y-64008000D03*
%TD*%
D18*
%TO.N,/SDA_TX*%
%TO.C,J2*%
X175514000Y-118491000D03*
%TO.N,/SCK_RX*%
X175514000Y-121031001D03*
%TO.N,GND*%
X175514000Y-123571000D03*
D12*
%TO.N,+3.3V*%
X175514000Y-126111000D03*
%TD*%
D19*
%TO.N,/TINT-*%
%TO.C,JP4*%
X108950001Y-55118000D03*
D20*
%TO.N,/MODINT-*%
X106950000Y-55118000D03*
%TD*%
D21*
%TO.N,/TGTONLY-*%
%TO.C,SW2*%
X68704120Y-56146500D03*
%TO.N,/SBC_GPI3*%
X68704120Y-58686500D03*
%TO.N,GND*%
X61084120Y-58686500D03*
D22*
X61084120Y-56146500D03*
%TD*%
D19*
%TO.N,/_CLK*%
%TO.C,SBC2*%
X65214000Y-66294000D03*
%TO.N,/CLK*%
X63214001Y-66294000D03*
D20*
%TO.N,/TCLK*%
X61214000Y-66294000D03*
%TD*%
D19*
%TO.N,/RFMR-*%
%TO.C,OP1*%
X104202120Y-77184000D03*
%TO.N,Net-(OP1-C)*%
X104202120Y-75184000D03*
D20*
%TO.N,unconnected-(OP1-A-Pad1)*%
X104202120Y-73184000D03*
%TD*%
D18*
%TO.N,/SPIMI*%
%TO.C,J6*%
X168718120Y-76454000D03*
%TO.N,/SPICS-*%
X168718120Y-73914000D03*
D12*
%TO.N,GND*%
X168718120Y-71374000D03*
%TD*%
D19*
%TO.N,/TCLK*%
%TO.C,JP3*%
X76008121Y-69342000D03*
%TO.N,/_CLK*%
X74008122Y-69342000D03*
D20*
%TO.N,unconnected-(JP3-A-Pad1)*%
X72008121Y-69342000D03*
%TD*%
D19*
%TO.N,+5V*%
%TO.C,JP6*%
X172877121Y-52857400D03*
D20*
%TO.N,/VBUSP*%
X170877120Y-52857400D03*
%TD*%
D18*
%TO.N,Net-(J1-Pin_2)*%
%TO.C,J1*%
X182561120Y-125222000D03*
D12*
%TO.N,GND*%
X182561120Y-127762000D03*
%TD*%
D20*
%TO.N,/_CLK*%
%TO.C,TP2*%
X68896120Y-76454000D03*
%TD*%
D19*
%TO.N,/TRST-*%
%TO.C,JP2*%
X76008120Y-72390000D03*
%TO.N,/RST-*%
X74008121Y-72390000D03*
D20*
%TO.N,unconnected-(JP2-A-Pad1)*%
X72008120Y-72390000D03*
%TD*%
D12*
%TO.N,Net-(R29-Pad1)*%
%TO.C,TP12*%
X71374000Y-44704000D03*
%TD*%
D19*
%TO.N,/BRD_RST-*%
%TO.C,DBOPT1*%
X133589920Y-108324399D03*
%TO.N,Net-(DBOPT1-C)*%
X133589920Y-106324400D03*
D20*
%TO.N,/ZRST-*%
X133589920Y-104324399D03*
%TD*%
D23*
%TO.N,+5V*%
%TO.C,U5*%
X84517120Y-90424000D03*
%TO.N,/ZWR-*%
X84517120Y-92964000D03*
%TO.N,GND*%
X84517120Y-95504000D03*
%TO.N,/RRA0*%
X84517120Y-98044000D03*
%TO.N,/ZA13*%
X84517120Y-100584000D03*
%TO.N,/ZA8*%
X84517120Y-103124000D03*
%TO.N,/ZA9*%
X84517120Y-105664000D03*
%TO.N,/ZA11*%
X84517120Y-108204000D03*
%TO.N,/ZRD-*%
X84517120Y-110744000D03*
%TO.N,/ZA10*%
X84517120Y-113284000D03*
%TO.N,/ROM_SEL-*%
X84517120Y-115824000D03*
%TO.N,/ZD7*%
X84517120Y-118364000D03*
%TO.N,/ZD6*%
X84517120Y-120904000D03*
%TO.N,/ZD5*%
X84517120Y-123444000D03*
%TO.N,/ZD4*%
X84517120Y-125984000D03*
%TO.N,/ZD3*%
X84517120Y-128524000D03*
%TO.N,GND*%
X69277120Y-128523999D03*
%TO.N,/ZD2*%
X69277120Y-125984000D03*
%TO.N,/ZD1*%
X69277120Y-123444000D03*
%TO.N,/ZD0*%
X69277120Y-120904000D03*
%TO.N,/ZA0*%
X69277120Y-118363999D03*
%TO.N,/ZA1*%
X69277120Y-115824000D03*
%TO.N,/ZA2*%
X69277120Y-113284000D03*
%TO.N,/ZA3*%
X69277120Y-110744000D03*
%TO.N,/ZA4*%
X69277120Y-108204001D03*
%TO.N,/ZA5*%
X69277120Y-105664000D03*
%TO.N,/ZA6*%
X69277120Y-103124000D03*
%TO.N,/ZA7*%
X69277120Y-100584000D03*
%TO.N,/ZA12*%
X69277120Y-98044000D03*
%TO.N,/RRA1*%
X69277120Y-95503999D03*
%TO.N,/RRA2*%
X69277120Y-92964000D03*
D24*
%TO.N,GND*%
X69277120Y-90424000D03*
%TD*%
D18*
%TO.N,/MODINT-*%
%TO.C,J9*%
X104394000Y-45974000D03*
%TO.N,+5V*%
X104394000Y-48514000D03*
%TO.N,/SBC_I2*%
X101854000Y-45974000D03*
%TO.N,GND*%
X101853999Y-48514000D03*
%TO.N,/SBC_I1*%
X99314000Y-45974000D03*
%TO.N,GND*%
X99314000Y-48514000D03*
%TO.N,/SBC_I0*%
X96774000Y-45974000D03*
D12*
%TO.N,GND*%
X96774000Y-48514000D03*
%TD*%
D19*
%TO.N,Net-(D3-K)*%
%TO.C,JP5*%
X137730120Y-44465999D03*
D20*
%TO.N,Net-(JP5-A)*%
X137730120Y-46466000D03*
%TD*%
D18*
%TO.N,unconnected-(OP2-B-Pad3)*%
%TO.C,OP2*%
X134428120Y-93598999D03*
%TO.N,/TWAITRQ-*%
X134428120Y-91059000D03*
D12*
%TO.N,/TWAITB-*%
X134428120Y-88519000D03*
%TD*%
D19*
%TO.N,/RST-*%
%TO.C,SBC1*%
X65246000Y-69342000D03*
%TO.N,/BRD_RST-*%
X63246001Y-69342000D03*
D20*
%TO.N,/TRST-*%
X61246000Y-69342000D03*
%TD*%
D12*
%TO.N,/TGTMODE-*%
%TO.C,TP1*%
X62215920Y-85166200D03*
%TD*%
D19*
%TO.N,GND*%
%TO.C,SBC3*%
X65214000Y-72390000D03*
%TO.N,/SBCMODE-*%
X63214001Y-72390000D03*
D20*
%TO.N,unconnected-(SBC3-A-Pad1)*%
X61214000Y-72390000D03*
%TD*%
D25*
%TO.N,Net-(R22-Pad1)*%
%TO.C,TP3*%
X109927771Y-72130081D03*
%TD*%
D18*
%TO.N,/ZWAIT-*%
%TO.C,J4*%
X96582121Y-76454000D03*
%TO.N,/ZWR-*%
X94042120Y-76454000D03*
%TO.N,/ZRD-*%
X91502120Y-76454000D03*
%TO.N,/ZIORQ-*%
X88962120Y-76454000D03*
%TO.N,/ZMREQ-*%
X86422120Y-76454000D03*
%TO.N,/ZM1-*%
X83882119Y-76454000D03*
%TO.N,/ZRFSH-*%
X81342120Y-76454000D03*
D12*
%TO.N,GND*%
X78802120Y-76454000D03*
%TD*%
D26*
%TO.N,/ZA10*%
%TO.C,U7*%
X120077120Y-94869000D03*
%TO.N,/ZA9*%
X122617120Y-97409000D03*
%TO.N,/ZA8*%
X122617120Y-94869000D03*
%TO.N,/ZA7*%
X125157119Y-97409000D03*
%TO.N,/ZA6*%
X125157120Y-94869000D03*
%TO.N,/ZA5*%
X127697120Y-97409000D03*
%TO.N,/ZA4*%
X125157120Y-99949000D03*
%TO.N,/ZA3*%
X127697120Y-99949000D03*
%TO.N,/ZA2*%
X125157120Y-102489000D03*
%TO.N,/ZA1*%
X127697120Y-102489000D03*
%TO.N,/ZA0*%
X125157120Y-105029000D03*
%TO.N,GND*%
X127697120Y-105029000D03*
%TO.N,/ZRFSH-*%
X125157120Y-107568999D03*
%TO.N,/ZM1-*%
X127697120Y-107569000D03*
%TO.N,Net-(DBOPT1-C)*%
X125157120Y-110109001D03*
%TO.N,/ZBREQ-*%
X127697120Y-110109000D03*
%TO.N,/ZWAIT-*%
X125157120Y-112649000D03*
%TO.N,/ZBACK-*%
X122617120Y-110109000D03*
%TO.N,/ZWR-*%
X122617120Y-112649000D03*
%TO.N,unconnected-(U7-NC-Pad25)*%
X120077120Y-110109000D03*
%TO.N,unconnected-(U7-NC-Pad24)*%
X120077120Y-112649000D03*
%TO.N,/ZRD-*%
X117537120Y-110109000D03*
%TO.N,/ZIORQ-*%
X117537120Y-112649000D03*
%TO.N,/ZMREQ-*%
X114997120Y-110109001D03*
%TO.N,/ZHALT-*%
X114997120Y-112649000D03*
%TO.N,/ZNMI-*%
X112457120Y-110109000D03*
%TO.N,/ZINT-*%
X112457120Y-112649000D03*
%TO.N,/ZD1*%
X109917120Y-110109000D03*
%TO.N,/ZD0*%
X112457120Y-107569000D03*
%TO.N,/ZD7*%
X109917120Y-107569000D03*
%TO.N,/ZD2*%
X112457120Y-105029000D03*
%TO.N,+5V*%
X109917120Y-105029000D03*
%TO.N,unconnected-(U7-NC-Pad12)*%
X112457120Y-102489000D03*
%TO.N,/ZD6*%
X109917121Y-102489000D03*
%TO.N,/ZD5*%
X112457120Y-99949000D03*
%TO.N,/ZD3*%
X109917120Y-99949000D03*
%TO.N,/ZD4*%
X112457120Y-97409000D03*
%TO.N,/CLK*%
X109917120Y-97409000D03*
%TO.N,unconnected-(U7-NC-Pad6)*%
X112457120Y-94869000D03*
%TO.N,/ZA15*%
X114997121Y-97409000D03*
%TO.N,/ZA14*%
X114997120Y-94869000D03*
%TO.N,/ZA13*%
X117537120Y-97409000D03*
%TO.N,/ZA12*%
X117537120Y-94869000D03*
D27*
%TO.N,/ZA11*%
X120077120Y-97409000D03*
%TD*%
D18*
%TO.N,/SBC_O3*%
%TO.C,J7*%
X89154000Y-45974000D03*
%TO.N,GND*%
X89154000Y-48514000D03*
%TO.N,/SBC_O2*%
X86614000Y-45974000D03*
%TO.N,GND*%
X86613999Y-48514000D03*
%TO.N,/SBC_O1*%
X84074000Y-45974000D03*
%TO.N,GND*%
X84074000Y-48514000D03*
%TO.N,/SBC_O0*%
X81534000Y-45974000D03*
D12*
%TO.N,GND*%
X81534000Y-48514000D03*
%TD*%
D21*
%TO.N,unconnected-(SPARE1-UC-Pad16)*%
%TO.C,SPARE1*%
X87946120Y-118364000D03*
%TO.N,unconnected-(SPARE1-UC-Pad15)*%
X90486120Y-118364000D03*
%TO.N,unconnected-(SPARE1-UC-Pad14)*%
X93026120Y-118364000D03*
%TO.N,unconnected-(SPARE1-UC-Pad13)*%
X95566120Y-118364000D03*
%TO.N,unconnected-(SPARE1-UC-Pad12)*%
X98106120Y-118364000D03*
%TO.N,unconnected-(SPARE1-UC-Pad11)*%
X100646120Y-118364000D03*
%TO.N,unconnected-(SPARE1-UC-Pad10)*%
X103186120Y-118364000D03*
%TO.N,unconnected-(SPARE1-UC-Pad9)*%
X105726120Y-118364000D03*
%TO.N,unconnected-(SPARE1-UC-Pad8)*%
X105726121Y-125984000D03*
%TO.N,unconnected-(SPARE1-UC-Pad7)*%
X103186120Y-125984000D03*
%TO.N,unconnected-(SPARE1-UC-Pad6)*%
X100646120Y-125984000D03*
%TO.N,unconnected-(SPARE1-UC-Pad5)*%
X98106120Y-125984000D03*
%TO.N,unconnected-(SPARE1-UC-Pad4)*%
X95566120Y-125984000D03*
%TO.N,unconnected-(SPARE1-UC-Pad3)*%
X93026119Y-125984000D03*
%TO.N,unconnected-(SPARE1-UC-Pad2)*%
X90486120Y-125984000D03*
D28*
%TO.N,unconnected-(SPARE1-UC-Pad1)*%
X87946120Y-125984000D03*
%TD*%
D12*
%TO.N,GND*%
%TO.C,TP15*%
X75184000Y-44704000D03*
%TD*%
D25*
%TO.N,Net-(TP7-Pad1)*%
%TO.C,TP7*%
X111855447Y-72006600D03*
%TD*%
D18*
%TO.N,Net-(OP3-B)*%
%TO.C,OP3*%
X74422000Y-52578001D03*
%TO.N,/EXTBRKRQ-*%
X74422000Y-55118000D03*
D12*
%TO.N,Net-(OP3-A)*%
X74422000Y-57658000D03*
%TD*%
D18*
%TO.N,+5V*%
%TO.C,J8*%
X94234000Y-45974000D03*
X94234000Y-48514000D03*
X91694000Y-45974000D03*
D12*
X91694000Y-48514000D03*
%TD*%
D21*
%TO.N,/ZA0*%
%TO.C,RN1*%
X65467120Y-118364000D03*
%TO.N,/ZA1*%
X65467120Y-115824001D03*
%TO.N,/ZA2*%
X65467120Y-113284000D03*
%TO.N,/ZA3*%
X65467120Y-110744000D03*
%TO.N,/ZA4*%
X65467120Y-108204000D03*
%TO.N,/ZA5*%
X65467120Y-105664000D03*
%TO.N,/ZA6*%
X65467120Y-103123999D03*
%TO.N,/ZA7*%
X65467120Y-100584000D03*
D29*
%TO.N,+5V*%
X65467120Y-98044000D03*
%TD*%
D21*
%TO.N,/ZA10*%
%TO.C,RN2*%
X88327120Y-110744000D03*
%TO.N,/ZA11*%
X88327120Y-108204001D03*
%TO.N,/ZA9*%
X88327120Y-105664000D03*
%TO.N,/ZA8*%
X88327120Y-103124000D03*
%TO.N,/ZA13*%
X88327120Y-100584000D03*
%TO.N,/ZA12*%
X88327120Y-98044000D03*
%TO.N,/ZA14*%
X88327120Y-95503999D03*
%TO.N,/ZA15*%
X88327120Y-92964000D03*
D29*
%TO.N,+5V*%
X88327120Y-90424000D03*
%TD*%
D13*
%TO.N,/SPICS2-*%
%TO.C,J5*%
X179132120Y-69152000D03*
%TO.N,/SPIMO*%
X179132120Y-71152000D03*
%TO.N,/SPIMI*%
X179132120Y-73152000D03*
%TO.N,/SPICK*%
X179132120Y-75152000D03*
%TO.N,GND*%
X179132120Y-77151999D03*
D14*
%TO.N,+3.3V*%
X179132120Y-79152000D03*
%TD*%
D18*
%TO.N,/TD7*%
%TO.C,J11*%
X141794120Y-65024001D03*
%TO.N,/TD6*%
X141794120Y-62484000D03*
%TO.N,/TD5*%
X141794120Y-59944000D03*
%TO.N,/TD4*%
X141794120Y-57404000D03*
%TO.N,/TD3*%
X141794120Y-54864000D03*
%TO.N,/TD2*%
X141794120Y-52323999D03*
%TO.N,/TD1*%
X141794120Y-49784000D03*
D12*
%TO.N,/TD0*%
X141794120Y-47244000D03*
%TD*%
%TO.N,Net-(JP5-A)*%
%TO.C,M1*%
X147382120Y-45974000D03*
D30*
%TO.N,GND*%
X147382120Y-48514000D03*
%TO.N,+3.3V*%
X147382120Y-51054000D03*
%TO.N,/SPICS-*%
X147382120Y-53594000D03*
%TO.N,/SPIMI*%
X147382120Y-56134000D03*
D12*
%TO.N,/SPIMO*%
X147382120Y-58674000D03*
D30*
%TO.N,/SPICK*%
X147382120Y-61214000D03*
%TO.N,/IOECLK*%
X147382120Y-63754000D03*
%TO.N,/MRST-*%
X147382120Y-66294000D03*
%TO.N,/MWTRQ-*%
X149922120Y-66294000D03*
%TO.N,/MSEL-*%
X152462120Y-66294000D03*
%TO.N,/MRD-*%
X155002120Y-66294001D03*
%TO.N,/MA0*%
X157542120Y-66293999D03*
%TO.N,/V3D7*%
X160082120Y-66294000D03*
%TO.N,/V3D6*%
X162622120Y-66294000D03*
D12*
%TO.N,/V3D5*%
X162622120Y-63754000D03*
D30*
%TO.N,/V3D4*%
X162622120Y-61214000D03*
%TO.N,/V3D3*%
X162622120Y-58674000D03*
%TO.N,/V3D2*%
X162622120Y-56134000D03*
%TO.N,/V3D1*%
X162622120Y-53594000D03*
D12*
%TO.N,/V3D0*%
X162622120Y-51054000D03*
D30*
%TO.N,/SCK_RX*%
X162622120Y-48514000D03*
%TO.N,/SDA_TX*%
X162622120Y-45974000D03*
%TD*%
D25*
%TO.N,/IO120*%
%TO.C,TP5*%
X183450120Y-103632000D03*
%TD*%
%TO.N,Net-(U15-EMC72{slash}IO)*%
%TO.C,TP25*%
X122667920Y-122402600D03*
%TD*%
%TO.N,Net-(U22-D41{slash}IO{slash}GCK3)*%
%TO.C,TP13*%
X113206266Y-128862973D03*
%TD*%
%TO.N,Net-(U22-CMC33{slash}IO)*%
%TO.C,TP22*%
X94560952Y-134279717D03*
%TD*%
%TO.N,Net-(U15-DMC54{slash}IO)*%
%TO.C,TP19*%
X119797720Y-127076200D03*
%TD*%
%TO.N,/IO121*%
%TO.C,TP4*%
X183450120Y-106426000D03*
%TD*%
%TO.N,/IO61*%
%TO.C,TP8*%
X156272120Y-94234000D03*
%TD*%
%TO.N,/PCRD_DIN*%
%TO.C,TP9*%
X157465920Y-92481400D03*
%TD*%
%TO.N,Net-(U15-BMC30{slash}IO)*%
%TO.C,TP17*%
X123404520Y-143154400D03*
%TD*%
%TO.N,Net-(U15-AMC9{slash}IO)*%
%TO.C,TP6*%
X133913337Y-142466795D03*
%TD*%
%TO.N,Net-(U15-HMC120{slash}IO)*%
%TO.C,TP18*%
X138568320Y-135991600D03*
%TD*%
%TO.N,Net-(U15-FMC88{slash}IO)*%
%TO.C,TP24*%
X133913337Y-121638795D03*
%TD*%
%TO.N,Net-(U15-CMC33{slash}IO)*%
%TO.C,TP23*%
X116387338Y-134084795D03*
%TD*%
%TO.N,Net-(U22-DMC57{slash}IO)*%
%TO.C,TP20*%
X108037520Y-128524000D03*
%TD*%
%TO.N,Net-(U18-FMC88{slash}IO)*%
%TO.C,TP11*%
X177404920Y-87045800D03*
%TD*%
%TO.N,Net-(U15-GMC104{slash}IO)*%
%TO.C,TP21*%
X138739337Y-125956795D03*
%TD*%
%TO.N,Net-(U18-FMC89{slash}IO)*%
%TO.C,TP10*%
X179436920Y-87071200D03*
%TD*%
D31*
%TO.N,+5V*%
X103973520Y-50957000D03*
X93432520Y-50850800D03*
%TO.N,GND*%
X158014638Y-88790352D03*
X131460920Y-138412063D03*
X118740832Y-62082513D03*
X114044137Y-67556284D03*
X168451776Y-127279433D03*
X130368720Y-62336200D03*
X151824895Y-132915276D03*
X114181493Y-84622707D03*
X176373388Y-92151290D03*
X178281422Y-100745216D03*
X125583488Y-136691915D03*
X135007720Y-52066253D03*
X155398984Y-132901556D03*
X139142377Y-86722004D03*
X145486204Y-132901556D03*
X164546657Y-119414939D03*
X177119658Y-50735945D03*
X139109169Y-76943395D03*
X176671821Y-103476819D03*
X182106120Y-117256299D03*
X159746365Y-129049328D03*
D32*
X88629047Y-58784954D03*
D31*
X95662022Y-115479015D03*
X159477120Y-98129648D03*
X106349918Y-132472381D03*
X120058477Y-73004941D03*
X148648689Y-132915276D03*
X181264261Y-135215522D03*
X138975821Y-67438887D03*
X166828811Y-95823554D03*
X122445732Y-123959079D03*
X101821217Y-132531793D03*
X160717461Y-77441748D03*
X95856178Y-142801723D03*
X95002750Y-61418886D03*
X133041120Y-77537556D03*
X71182120Y-133444365D03*
X117920391Y-129709522D03*
X113336428Y-136811659D03*
D32*
X124765399Y-90928495D03*
D31*
X134005332Y-123668000D03*
X130058575Y-46984919D03*
X179217657Y-52833945D03*
X164582704Y-132836078D03*
X88232874Y-56114672D03*
X88569545Y-85762609D03*
X83110491Y-134733868D03*
X176242701Y-136059309D03*
X169495218Y-51360228D03*
D32*
X107540000Y-49219011D03*
D31*
X163696679Y-85301291D03*
X101515682Y-62171458D03*
X104028907Y-142409873D03*
X167758095Y-84937400D03*
X77706862Y-133405400D03*
X98469626Y-138476769D03*
X178911712Y-59563509D03*
X98710037Y-127859000D03*
X106037447Y-95878400D03*
X84547119Y-80300561D03*
X167564150Y-104284442D03*
X136993621Y-137665025D03*
X128823765Y-47003212D03*
X170669176Y-87979936D03*
X170706702Y-93869109D03*
X176802399Y-58503662D03*
D32*
X128449249Y-93459855D03*
D31*
X142945771Y-119659735D03*
X126450336Y-70282017D03*
X175736926Y-109737901D03*
X141077065Y-84773515D03*
X105227215Y-90906009D03*
X136803780Y-132326102D03*
X167432718Y-61702789D03*
%TO.N,+3.3V*%
X166914720Y-65862200D03*
X144003920Y-77393800D03*
D32*
X143572120Y-84963000D03*
D31*
X174433120Y-69397400D03*
X144922920Y-69820000D03*
X159650320Y-116535200D03*
X154367120Y-132994400D03*
X154875120Y-123190000D03*
X141971920Y-132410200D03*
X143572120Y-117602000D03*
X164323920Y-127254000D03*
X168260920Y-79629000D03*
X170318320Y-114223800D03*
X163917520Y-76606400D03*
X160727410Y-72765800D03*
X172985320Y-69773800D03*
%TO.N,+5V*%
X133929688Y-129061407D03*
X183094520Y-122936000D03*
X122454829Y-125496475D03*
X163076291Y-94281609D03*
X163308265Y-91770832D03*
X146924920Y-104329800D03*
D32*
X147786620Y-95097600D03*
D31*
X90755025Y-143422595D03*
D32*
X121640456Y-78028795D03*
D31*
X165353952Y-102653421D03*
X173563166Y-89238727D03*
X71779029Y-76665414D03*
X178755451Y-94466642D03*
X109461098Y-136829853D03*
X102133143Y-57777599D03*
X174250720Y-105199347D03*
X120869273Y-127162245D03*
X125207920Y-119532400D03*
X71047041Y-85834527D03*
X106741919Y-62157813D03*
X105966208Y-97395945D03*
X104548400Y-70696501D03*
X133064620Y-62336200D03*
X169226120Y-62001400D03*
X102972650Y-139336438D03*
X170362476Y-107828997D03*
X104858786Y-85604722D03*
X120527720Y-84554217D03*
X132908156Y-120687848D03*
X133041120Y-76153153D03*
D32*
X147786620Y-101447600D03*
D31*
X178138144Y-101891440D03*
X111132522Y-54338884D03*
X148652120Y-104329800D03*
X66403823Y-142302145D03*
X134698767Y-140314200D03*
D32*
X147786620Y-98196400D03*
D31*
X119553944Y-63197815D03*
X127128249Y-138984200D03*
X134753720Y-134809588D03*
X140821635Y-71911126D03*
X122533715Y-119043986D03*
X122891556Y-55659089D03*
X85896250Y-55374239D03*
X128635873Y-84829005D03*
X65272169Y-63669201D03*
X139406520Y-131902200D03*
D32*
X122977718Y-78069732D03*
D31*
X123120470Y-133137255D03*
X151344520Y-44450000D03*
X128366374Y-80379427D03*
X103110719Y-132531793D03*
X84052033Y-133405400D03*
X169226120Y-56007000D03*
D32*
%TO.N,/ZBACK-*%
X132459620Y-80746600D03*
X120483520Y-46990000D03*
X119416720Y-70256400D03*
X120432720Y-81635600D03*
X122032306Y-124730252D03*
X160241917Y-87731600D03*
X87006320Y-130048000D03*
X109540388Y-70953166D03*
X160241917Y-83515200D03*
%TO.N,/CLK*%
X110470862Y-83123000D03*
X129144920Y-53049400D03*
X128230520Y-83123000D03*
X132884299Y-52961328D03*
X179738371Y-107750149D03*
%TO.N,/TRST-*%
X109561520Y-45278400D03*
X119467520Y-43980000D03*
%TO.N,/ZRFSH-*%
X118416120Y-44918400D03*
X131075320Y-44715200D03*
X132599320Y-100050600D03*
X174139520Y-102590600D03*
X131806120Y-76748714D03*
%TO.N,/SPICK*%
X164433320Y-128473200D03*
%TO.N,/SPIMI*%
X163511120Y-127889000D03*
%TO.N,/SPIMO*%
X166330520Y-129667000D03*
%TO.N,/SPICS2-*%
X162438122Y-74295000D03*
%TO.N,/SPICS-*%
X173569520Y-125933200D03*
%TO.N,/ZWAIT-*%
X96150320Y-90474800D03*
X121626520Y-90449400D03*
X183148320Y-95028797D03*
%TO.N,/ZRD-*%
X114263520Y-136772996D03*
X136688720Y-139649200D03*
X165898720Y-112095207D03*
X85722120Y-73660000D03*
X105522920Y-106553000D03*
X91502120Y-73713800D03*
X127138320Y-72584400D03*
%TO.N,/ZWR-*%
X131456320Y-114808000D03*
X110234620Y-114338100D03*
X93584920Y-68199000D03*
X115403520Y-134340600D03*
X131380120Y-136525000D03*
X148067920Y-114782600D03*
X128067269Y-67902051D03*
X98690320Y-100203000D03*
%TO.N,/ZM1-*%
X92848320Y-61747400D03*
X79843520Y-114630200D03*
X177100120Y-107340400D03*
%TO.N,/ZMREQ-*%
X134834520Y-109269399D03*
X128484520Y-74523600D03*
X155054321Y-109269399D03*
%TO.N,/ZIORQ-*%
X175007489Y-96425625D03*
X132294520Y-115378000D03*
X127773320Y-73583800D03*
X128967120Y-91490800D03*
X174918511Y-114556791D03*
X87840678Y-74230000D03*
%TO.N,/TD4*%
X126916120Y-56667400D03*
%TO.N,/TD5*%
X128241720Y-57505600D03*
%TO.N,/TD3*%
X129703720Y-54864000D03*
%TO.N,/TD6*%
X126715319Y-59597199D03*
%TO.N,/TD1*%
X124979320Y-48260000D03*
%TO.N,/TD7*%
X124609520Y-61671200D03*
%TO.N,/TD0*%
X125511366Y-47689622D03*
%TO.N,/TD2*%
X126416120Y-52298600D03*
%TO.N,/TWAIT-*%
X122540920Y-53340000D03*
X134176911Y-53545991D03*
X134732920Y-76098400D03*
X135215520Y-142468600D03*
%TO.N,/TWR-*%
X117384720Y-58078600D03*
X121347120Y-46736000D03*
%TO.N,/ZHALT-*%
X123175920Y-51181000D03*
X116267120Y-91541600D03*
X84390120Y-143259227D03*
%TO.N,/TIORQ-*%
X121728120Y-51155600D03*
X123506120Y-73228200D03*
%TO.N,/TINT-*%
X124217320Y-47701200D03*
X132167520Y-44715200D03*
X135621920Y-76098400D03*
%TO.N,/TRD-*%
X130359949Y-77578494D03*
X135569494Y-45540575D03*
X129703720Y-60107600D03*
X135672720Y-54114122D03*
%TO.N,/TNMI-*%
X124547520Y-55346600D03*
X139482720Y-68529200D03*
X124217320Y-67321200D03*
%TO.N,/TBREQ-*%
X120077120Y-53365400D03*
X136333120Y-76631800D03*
%TO.N,/TMREQ-*%
X124852320Y-72923400D03*
X122998120Y-48271200D03*
%TO.N,/JTDI_CO*%
X137704720Y-110591600D03*
X168006920Y-110032800D03*
%TO.N,/JTCK*%
X127417720Y-132765800D03*
X170198420Y-100526100D03*
X100823920Y-132740400D03*
%TO.N,/JTDO_CI*%
X138288920Y-118516400D03*
X109459920Y-128676400D03*
%TO.N,/JTMS*%
X141540120Y-108153200D03*
X125512720Y-127177800D03*
X141844920Y-127152400D03*
X162012520Y-108153200D03*
%TO.N,/JTD1O2I*%
X182873020Y-96084100D03*
X182586520Y-114198400D03*
%TO.N,/JTD2O3I*%
X115987720Y-138938000D03*
X133259720Y-134823200D03*
%TO.N,/RST-*%
X178954320Y-139700000D03*
X60310920Y-133934200D03*
%TO.N,/ZRST-*%
X179857184Y-105040535D03*
X111847520Y-75869800D03*
X131766274Y-75170309D03*
%TO.N,/MODINT-*%
X159382120Y-74625200D03*
X143597520Y-58648600D03*
X142225920Y-74676000D03*
%TO.N,/V3D7*%
X158303523Y-77536748D03*
X158812120Y-128416200D03*
%TO.N,/MRST-*%
X164857320Y-79832200D03*
X166482920Y-120269000D03*
%TO.N,/V3D1*%
X150596720Y-75754000D03*
X150557120Y-120243600D03*
%TO.N,/V3D5*%
X156272120Y-76073000D03*
X157491320Y-126734800D03*
%TO.N,/IOECLK*%
X142937120Y-129514600D03*
%TO.N,/V3D6*%
X158177120Y-127276200D03*
X157542120Y-76073000D03*
%TO.N,/MWTRQ-*%
X163422220Y-99771200D03*
%TO.N,/V3D3*%
X145477120Y-120269000D03*
X145477120Y-74055200D03*
X153732120Y-76073000D03*
X154163920Y-74055200D03*
%TO.N,/V3D4*%
X156348320Y-125958600D03*
X155002120Y-76073000D03*
%TO.N,/V3D0*%
X151344520Y-123266200D03*
X149222120Y-75793600D03*
%TO.N,/V3D2*%
X152462120Y-76073000D03*
X146747120Y-120269000D03*
X146137520Y-75195200D03*
%TO.N,/RFMR-*%
X156907120Y-108762800D03*
X106843720Y-110947200D03*
%TO.N,/TWAITB-*%
X133742320Y-80873600D03*
%TO.N,/TWAITRQ-*%
X162215720Y-90486000D03*
%TO.N,Net-(OP3-B)*%
X115606720Y-67321200D03*
%TO.N,/EXTBRKRQ-*%
X183718320Y-102514400D03*
X183729520Y-54356000D03*
%TO.N,Net-(OP1-C)*%
X103617920Y-80924400D03*
X124191920Y-84836000D03*
X124191920Y-80873600D03*
%TO.N,Net-(OP3-A)*%
X114387520Y-72237600D03*
X114362120Y-81443600D03*
X114387520Y-59410600D03*
%TO.N,/TGTONLY-*%
X158151720Y-90678000D03*
%TO.N,/SBC_GPI3*%
X98676120Y-67513200D03*
X101687520Y-122097800D03*
%TO.N,/SBCMODE-*%
X164475343Y-84902152D03*
X164758720Y-100126800D03*
%TO.N,/ZA10*%
X121628320Y-106451400D03*
X76643120Y-92125800D03*
X108951920Y-67778400D03*
X128941720Y-125857000D03*
%TO.N,/ZA14*%
X128371720Y-124333000D03*
X115062120Y-71551800D03*
X114336720Y-118948200D03*
X80453120Y-79222600D03*
X122650697Y-70705184D03*
X176699158Y-112687100D03*
%TO.N,/ZA9*%
X117183972Y-143094049D03*
X118308320Y-102900200D03*
X110425120Y-70967600D03*
X122896520Y-90982800D03*
X77913120Y-92151200D03*
X117410120Y-70916800D03*
%TO.N,/ZA12*%
X116608520Y-120156200D03*
X117449720Y-73177400D03*
X124282320Y-71023800D03*
%TO.N,/ZA15*%
X179411520Y-111379000D03*
X115936920Y-120650000D03*
X122820320Y-65423391D03*
X81723120Y-79197200D03*
X128027320Y-125095000D03*
%TO.N,/ZA13*%
X123362655Y-71023800D03*
X124369720Y-136499600D03*
X117562520Y-100482400D03*
X79259320Y-90500200D03*
X119173920Y-72121800D03*
%TO.N,/ZA8*%
X78765520Y-93141800D03*
X121996320Y-87969000D03*
X123607720Y-101371400D03*
X128382920Y-126415800D03*
X109541289Y-87969000D03*
%TO.N,/ZA11*%
X76643120Y-93624400D03*
X120915320Y-105881400D03*
X128128920Y-132105400D03*
X125258720Y-88392000D03*
X125487320Y-70993000D03*
%TO.N,/BRD_RST-*%
X172909120Y-104013000D03*
X131227720Y-76225400D03*
%TO.N,/ZA3*%
X126801422Y-129038698D03*
X169505520Y-112687100D03*
X95520000Y-106578400D03*
X95520000Y-92565079D03*
X93229320Y-137515600D03*
X122693320Y-141020800D03*
X126801422Y-114238000D03*
%TO.N,/ZA6*%
X127058771Y-130102149D03*
X176235218Y-96612111D03*
X98842720Y-82499200D03*
X123379120Y-104114600D03*
X72553720Y-80952800D03*
X97888863Y-103352600D03*
%TO.N,/ZA7*%
X136002920Y-101244400D03*
X179335320Y-100406200D03*
X136028320Y-143357600D03*
X71791720Y-80314800D03*
X100392120Y-82615000D03*
X121245520Y-82524600D03*
%TO.N,/ZA4*%
X66610120Y-82615000D03*
X97902920Y-105283000D03*
X130770520Y-143383000D03*
X96607520Y-82615000D03*
X130668920Y-102285800D03*
X97928320Y-100660200D03*
X170978720Y-104521000D03*
%TO.N,/ZA1*%
X122134520Y-141655800D03*
X118603920Y-67629000D03*
X92594320Y-141655800D03*
X118603920Y-91019400D03*
X128371721Y-112568299D03*
X119924720Y-102158800D03*
X96759920Y-89585800D03*
X96328120Y-109093000D03*
X167907518Y-112660200D03*
X96746080Y-92565079D03*
%TO.N,/ZA0*%
X98941493Y-88544400D03*
X102830520Y-88544400D03*
X122312320Y-70002400D03*
X97318863Y-110338067D03*
X95167408Y-138340314D03*
X104532320Y-69596000D03*
X128941720Y-134583400D03*
X162418920Y-85674200D03*
X169657920Y-84861400D03*
%TO.N,/ZA5*%
X67321320Y-81356200D03*
X128899546Y-140504174D03*
X129703720Y-83693000D03*
X97877520Y-82473800D03*
X175576120Y-98577400D03*
%TO.N,/ZA2*%
X126452520Y-91287600D03*
X122693320Y-142265400D03*
X91857720Y-143002000D03*
X168713619Y-112660200D03*
X121042320Y-70408800D03*
X128371720Y-113487200D03*
X96133042Y-92082810D03*
X96023320Y-107823000D03*
%TO.N,/ROM_SEL-*%
X105751520Y-81457800D03*
%TO.N,/RRA1*%
X166519520Y-89560400D03*
X65074920Y-87491905D03*
%TO.N,/ZD5*%
X136256920Y-66751200D03*
X169632520Y-103276400D03*
X169643720Y-93370400D03*
X145019920Y-68097400D03*
X96963120Y-129463800D03*
X107199320Y-115773200D03*
X113385720Y-115787400D03*
X118680120Y-138125200D03*
X99070029Y-137003052D03*
X154432120Y-84531200D03*
X112711120Y-66686200D03*
%TO.N,/ZD4*%
X170607218Y-103835150D03*
X170826320Y-95097600D03*
X134453520Y-85307400D03*
X83434830Y-143723110D03*
X105370520Y-114173000D03*
X106273720Y-98397800D03*
X153681320Y-84074000D03*
X102424120Y-142976600D03*
X135621920Y-69875400D03*
%TO.N,/ZD3*%
X136917320Y-83845400D03*
X121778920Y-133426200D03*
X106208720Y-115341400D03*
X103821120Y-63550800D03*
X152411320Y-83362800D03*
X135012320Y-66124051D03*
X171613720Y-105968800D03*
X106081720Y-99949000D03*
X153351120Y-105968800D03*
X100112720Y-131876800D03*
%TO.N,/RRA0*%
X167152041Y-89103978D03*
%TO.N,/ZD6*%
X104488812Y-65063390D03*
X137541322Y-83275400D03*
X112507920Y-142518000D03*
X136917320Y-65557400D03*
X171359720Y-86172400D03*
X105153956Y-142518000D03*
X107772320Y-120954800D03*
X105370520Y-111633000D03*
X156792820Y-84543900D03*
X169784920Y-106538800D03*
X115022520Y-142518000D03*
%TO.N,/RRA2*%
X65644920Y-86856800D03*
X166610730Y-88542386D03*
%TO.N,/ZD7*%
X103196126Y-143088000D03*
X138161920Y-82742000D03*
X182011120Y-112485161D03*
X104278320Y-119659400D03*
X182448320Y-88366600D03*
X103081729Y-64493391D03*
X158481920Y-84886800D03*
X98791920Y-110363000D03*
X111771320Y-143088000D03*
X137552320Y-64871600D03*
X115571769Y-143094049D03*
%TO.N,/ZD2*%
X151166720Y-83997800D03*
X122286920Y-130581400D03*
X134402720Y-69875400D03*
X99764384Y-130563312D03*
X151660520Y-70485000D03*
X95743920Y-114096800D03*
X152781120Y-99593400D03*
X173569520Y-99187000D03*
%TO.N,/ZD0*%
X148118720Y-84988400D03*
X99071320Y-131928000D03*
X139228720Y-108699399D03*
X133107320Y-70866000D03*
X167011345Y-110078625D03*
X120889920Y-132195800D03*
X147932120Y-73471000D03*
%TO.N,/ZD1*%
X152004920Y-106639000D03*
X149922120Y-84023200D03*
X99477720Y-132740400D03*
X116613972Y-136985200D03*
X149922120Y-71055000D03*
X95743920Y-112903000D03*
X133738425Y-70284197D03*
X177811320Y-107923997D03*
X137603120Y-116992400D03*
X137134720Y-106426000D03*
%TO.N,/MOD_SEL-*%
X162369987Y-84367600D03*
X165898720Y-98044000D03*
%TO.N,/ROM_SEL*%
X109891720Y-77927200D03*
X168032320Y-87426800D03*
%TO.N,/SYNC*%
X183018320Y-80873600D03*
X110577520Y-77535000D03*
%TO.N,/ZINT-*%
X110044120Y-95783400D03*
X176719120Y-98221800D03*
%TO.N,/ZNMI-*%
X178203393Y-99198073D03*
%TO.N,/ZBREQ-*%
X177423505Y-99184707D03*
%TO.N,Net-(U2-Q2)*%
X148042520Y-120269000D03*
X146772520Y-77535000D03*
X161885520Y-77241400D03*
%TO.N,Net-(U2-Q1)*%
X159447120Y-76950800D03*
X149312520Y-120269000D03*
X149312520Y-76950800D03*
%TO.N,/LRST-*%
X134545642Y-139079201D03*
X110679120Y-135153400D03*
X102678120Y-135128000D03*
X184288320Y-136702800D03*
X184288320Y-92735400D03*
X131950120Y-135153400D03*
%TO.N,/ATTN*%
X183348520Y-113284000D03*
%TO.N,/TDBUSIN-*%
X167740220Y-100674400D03*
X169073720Y-78155800D03*
X132459620Y-69850000D03*
%TO.N,/TDBUSEN-*%
X161021920Y-71170800D03*
X133107320Y-67614800D03*
X161021920Y-87731600D03*
%TO.N,/RAM_SEL-*%
X105345120Y-109118400D03*
X171715320Y-116357400D03*
X172324920Y-92710000D03*
%TO.N,/SBC_GPI0*%
X92340320Y-56337200D03*
X108345920Y-127076200D03*
%TO.N,/SBC_GPO0*%
X108113720Y-140220500D03*
X89241520Y-61112400D03*
X90130520Y-139192000D03*
%TO.N,/SBC_GPO3*%
X92772120Y-66903600D03*
X105649920Y-138836400D03*
X92086320Y-134340600D03*
%TO.N,/SBC_GPO2*%
X90350000Y-66929000D03*
X102526743Y-138318223D03*
X91287720Y-139192000D03*
%TO.N,/SBC_GPI2*%
X101636720Y-127711200D03*
X93713878Y-57008800D03*
%TO.N,/SBC_GPI1*%
X110983920Y-129057400D03*
X93089620Y-55854600D03*
%TO.N,/SBC_GPO1*%
X106366720Y-136671800D03*
X93799320Y-138328400D03*
X89952720Y-62357000D03*
%TO.N,/TGTMODE-*%
X90717720Y-138404600D03*
X100442920Y-84263000D03*
X181976920Y-134162800D03*
X81723120Y-84263000D03*
X104824120Y-134328200D03*
X81697720Y-88138000D03*
%TO.N,/TBREQB-*%
X160039881Y-81178400D03*
X160767920Y-91516200D03*
X136256920Y-80899000D03*
%TO.N,/TNMIB-*%
X160161669Y-80362251D03*
X139177920Y-80340200D03*
X161428320Y-91059000D03*
%TO.N,/PC_LATCH-*%
X164298520Y-101904800D03*
X94067520Y-77952600D03*
X163905343Y-87184000D03*
%TO.N,/TINTB-*%
X158899881Y-88986000D03*
X158710520Y-81502800D03*
X135023520Y-81330800D03*
%TO.N,/SBC_IO*%
X165289120Y-89154000D03*
X165314520Y-137555200D03*
X101763720Y-137555200D03*
%TO.N,/TGT_NOW*%
X140854320Y-129883552D03*
X140905120Y-112095207D03*
X164323920Y-108991400D03*
X99071320Y-133502400D03*
%TO.N,/BRK_DEQ*%
X100913502Y-143260000D03*
X163384120Y-140462000D03*
X163075414Y-107452604D03*
%TO.N,Net-(R29-Pad2)*%
X83018520Y-74218800D03*
X81570720Y-51333400D03*
X113701720Y-72694800D03*
%TO.N,Net-(R34-Pad2)*%
X116597320Y-58078600D03*
X91375120Y-58089800D03*
%TO.N,/TCBUSEN-*%
X126122320Y-76225400D03*
X161809320Y-78725800D03*
X161799987Y-87676682D03*
%TO.N,/TCBUSFEN-*%
X125512720Y-77535000D03*
%TO.N,/ZRST*%
X121016920Y-62484000D03*
X113281120Y-71653400D03*
X108977320Y-62484000D03*
%TO.N,/BRK1_AEQ*%
X162799920Y-108280200D03*
X162805341Y-118630532D03*
%TO.N,/BRKN_AEQ*%
X162037920Y-118491000D03*
X162037920Y-110003307D03*
%TO.N,/ZID_IO*%
X160488520Y-127685800D03*
X105421320Y-136855200D03*
X160497286Y-97580000D03*
X107326320Y-127711200D03*
X116622720Y-127635000D03*
%TO.N,/MEM_OP*%
X136598320Y-107569000D03*
X161457832Y-107578163D03*
X112126920Y-132195800D03*
X112126920Y-117652800D03*
X136598320Y-117652800D03*
%TO.N,/PCRD_DIN*%
X97852120Y-91313000D03*
%TO.N,Net-(U12-Ds)*%
X79833519Y-78748787D03*
X101193720Y-78574900D03*
%TD*%
D33*
%TO.N,+5V*%
X182937931Y-122936000D02*
X183094520Y-122936000D01*
X174860731Y-131013200D02*
X182937931Y-122936000D01*
X140295520Y-131013200D02*
X174860731Y-131013200D01*
X139406520Y-131902200D02*
X140295520Y-131013200D01*
D34*
%TO.N,/ZBACK-*%
X122023158Y-124739400D02*
X118712218Y-124739400D01*
X149539070Y-82072800D02*
X159071520Y-82072800D01*
X122032306Y-124730252D02*
X122023158Y-124739400D01*
X159071520Y-82072800D02*
X160241917Y-83243197D01*
X132459620Y-81494400D02*
X133108820Y-82143600D01*
X160241917Y-83243197D02*
X160241917Y-83515200D01*
X133108820Y-82143600D02*
X149468269Y-82143600D01*
X149468269Y-82143600D02*
X149539070Y-82072800D01*
X99473594Y-130048000D02*
X87006320Y-130048000D01*
X99719594Y-129802000D02*
X99473594Y-130048000D01*
X118712218Y-124739400D02*
X113649618Y-129802000D01*
X132459620Y-80746600D02*
X132459620Y-81494400D01*
X113649618Y-129802000D02*
X99719594Y-129802000D01*
%TO.N,/CLK*%
X133981352Y-105379400D02*
X132754921Y-105379400D01*
X161020893Y-107209000D02*
X137044422Y-107209000D01*
X178994523Y-108493997D02*
X166977233Y-108493997D01*
X166306236Y-107823000D02*
X164251912Y-107823000D01*
X112371547Y-98475800D02*
X110983920Y-98475800D01*
X163311516Y-106882604D02*
X161347289Y-106882604D01*
X110408862Y-83185000D02*
X64560201Y-83185000D01*
X64249000Y-82873799D02*
X64249000Y-67328999D01*
X164251912Y-107823000D02*
X163311516Y-106882604D01*
X132754921Y-105379400D02*
X130845721Y-103470200D01*
X166977233Y-108493997D02*
X166306236Y-107823000D01*
X137044422Y-107209000D02*
X136834422Y-106999000D01*
X64560201Y-83185000D02*
X64249000Y-82873799D01*
X179738371Y-107750149D02*
X178994523Y-108493997D01*
X110470862Y-83123000D02*
X110408862Y-83185000D01*
X136834422Y-106999000D02*
X135600952Y-106999000D01*
X110983920Y-98475800D02*
X109917120Y-97409000D01*
X161347289Y-106882604D02*
X161020893Y-107209000D01*
X135600952Y-106999000D02*
X133981352Y-105379400D01*
X64249000Y-67328999D02*
X63214001Y-66294000D01*
X130845721Y-103470200D02*
X117365947Y-103470200D01*
X128230520Y-83123000D02*
X110470862Y-83123000D01*
X117365947Y-103470200D02*
X112371547Y-98475800D01*
%TO.N,/ZRFSH-*%
X97046041Y-75334000D02*
X82462120Y-75334000D01*
X127498422Y-76795400D02*
X126358422Y-75655400D01*
X112868022Y-75655400D02*
X112083622Y-76439800D01*
X126358422Y-75655400D02*
X112868022Y-75655400D01*
X112083622Y-76439800D02*
X104794352Y-76439800D01*
X131759434Y-76795400D02*
X127498422Y-76795400D01*
X104483552Y-76129000D02*
X97841041Y-76129000D01*
X131806120Y-76748714D02*
X131759434Y-76795400D01*
X82462120Y-75334000D02*
X81342120Y-76454000D01*
X97841041Y-76129000D02*
X97046041Y-75334000D01*
X104794352Y-76439800D02*
X104483552Y-76129000D01*
%TO.N,/SPICK*%
X161202120Y-65830080D02*
X156586040Y-61214000D01*
X161202120Y-67981920D02*
X161202120Y-65830080D01*
X168372200Y-75152000D02*
X161202120Y-67981920D01*
X179132120Y-75152000D02*
X168372200Y-75152000D01*
X156586040Y-61214000D02*
X147382120Y-61214000D01*
%TO.N,/SPIMI*%
X180277120Y-58853800D02*
X178878120Y-57454800D01*
X178878120Y-57454800D02*
X148702920Y-57454800D01*
X180277120Y-72007000D02*
X180277120Y-58853800D01*
X179132120Y-73152000D02*
X180277120Y-72007000D01*
X148702920Y-57454800D02*
X147382120Y-56134000D01*
%TO.N,/SPICS-*%
X180637120Y-73152366D02*
X179767486Y-74022000D01*
X179767486Y-74022000D02*
X168826120Y-74022000D01*
X148502120Y-54714000D02*
X176646437Y-54714000D01*
X147382120Y-53594000D02*
X148502120Y-54714000D01*
X180637120Y-58704683D02*
X180637120Y-73152366D01*
X176646437Y-54714000D02*
X180637120Y-58704683D01*
%TO.N,/ZWAIT-*%
X183122221Y-95028797D02*
X182281720Y-95869298D01*
X183148320Y-95028797D02*
X183122221Y-95028797D01*
X121402320Y-90225200D02*
X96399920Y-90225200D01*
X140669018Y-112665207D02*
X139941611Y-111937800D01*
X182281720Y-109601000D02*
X181341920Y-110540800D01*
X125868320Y-111937800D02*
X125157120Y-112649000D01*
X139941611Y-111937800D02*
X125868320Y-111937800D01*
X169220816Y-110540800D02*
X167096409Y-112665207D01*
X167096409Y-112665207D02*
X140669018Y-112665207D01*
X181341920Y-110540800D02*
X169220816Y-110540800D01*
X96399920Y-90225200D02*
X96150320Y-90474800D01*
X182281720Y-95869298D02*
X182281720Y-109601000D01*
X121626520Y-90449400D02*
X121402320Y-90225200D01*
%TO.N,/ZRD-*%
X91448320Y-73660000D02*
X91502120Y-73713800D01*
X115759120Y-139649200D02*
X136688720Y-139649200D01*
X85722120Y-73660000D02*
X91448320Y-73660000D01*
X114263520Y-138153600D02*
X115759120Y-139649200D01*
X114263520Y-136772996D02*
X114263520Y-138153600D01*
%TO.N,/ZWR-*%
X127490920Y-68478400D02*
X93864320Y-68478400D01*
X131481720Y-114782600D02*
X131456320Y-114808000D01*
X128067269Y-67902051D02*
X127490920Y-68478400D01*
X93864320Y-68478400D02*
X93584920Y-68199000D01*
X148067920Y-114782600D02*
X131481720Y-114782600D01*
%TO.N,/ZMREQ-*%
X128103547Y-109127800D02*
X115978321Y-109127800D01*
X115978321Y-109127800D02*
X114997120Y-110109001D01*
X155054321Y-109269399D02*
X134834520Y-109269399D01*
X134834520Y-109269399D02*
X128245146Y-109269399D01*
X128245146Y-109269399D02*
X128103547Y-109127800D01*
%TO.N,/ZIORQ-*%
X132294520Y-115378000D02*
X120266120Y-115378000D01*
X174918511Y-114556791D02*
X174097302Y-115378000D01*
X120266120Y-115378000D02*
X117537120Y-112649000D01*
X174097302Y-115378000D02*
X132294520Y-115378000D01*
%TO.N,/TWAIT-*%
X122540920Y-53340000D02*
X122820320Y-53619400D01*
X122820320Y-53619400D02*
X134103502Y-53619400D01*
X134103502Y-53619400D02*
X134176911Y-53545991D01*
%TO.N,/TNMI-*%
X128292520Y-67321200D02*
X129297320Y-68326000D01*
X139279520Y-68326000D02*
X139482720Y-68529200D01*
X124217320Y-67321200D02*
X128292520Y-67321200D01*
X129297320Y-68326000D02*
X139279520Y-68326000D01*
%TO.N,/JTDI_CO*%
X156745729Y-109433307D02*
X155587436Y-110591600D01*
X168006920Y-110032800D02*
X166395520Y-108421400D01*
X163464822Y-108421400D02*
X162452915Y-109433307D01*
X162452915Y-109433307D02*
X156745729Y-109433307D01*
X155587436Y-110591600D02*
X137704720Y-110591600D01*
X166395520Y-108421400D02*
X163464822Y-108421400D01*
%TO.N,/JTCK*%
X166071120Y-104678800D02*
X152816786Y-104678800D01*
X170198420Y-100551500D02*
X166071120Y-104678800D01*
X141357355Y-104994800D02*
X141012554Y-104650000D01*
X152500785Y-104994800D02*
X141357355Y-104994800D01*
X141012554Y-104650000D02*
X140526120Y-104650000D01*
X170198420Y-100526100D02*
X170198420Y-100551500D01*
X152816786Y-104678800D02*
X152500785Y-104994800D01*
%TO.N,/JTDO_CI*%
X138018243Y-118245723D02*
X138288920Y-118516400D01*
X119890597Y-118245723D02*
X138018243Y-118245723D01*
X109459920Y-128676400D02*
X119890597Y-118245723D01*
%TO.N,/JTMS*%
X141819520Y-127177800D02*
X141844920Y-127152400D01*
X125512720Y-127177800D02*
X141819520Y-127177800D01*
X141540120Y-108153200D02*
X162012520Y-108153200D01*
%TO.N,/JTD2O3I*%
X115987720Y-138938000D02*
X119010320Y-135915400D01*
X132142120Y-135915400D02*
X133234320Y-134823200D01*
X133234320Y-134823200D02*
X133259720Y-134823200D01*
X119010320Y-135915400D02*
X132142120Y-135915400D01*
%TO.N,/RST-*%
X123552796Y-141074174D02*
X136069848Y-141074174D01*
X60310920Y-133934200D02*
X67167220Y-140790500D01*
X67167220Y-140790500D02*
X108349822Y-140790500D01*
X108349822Y-140790500D02*
X108830722Y-140309600D01*
X108830722Y-140309600D02*
X122788222Y-140309600D01*
X122788222Y-140309600D02*
X123552796Y-141074174D01*
X136069848Y-141074174D02*
X137444022Y-139700000D01*
X137444022Y-139700000D02*
X178954320Y-139700000D01*
%TO.N,/ZRST-*%
X178958468Y-104141819D02*
X173586403Y-104141819D01*
X135748920Y-105714800D02*
X134358519Y-104324399D01*
X131766274Y-75170309D02*
X131752583Y-75184000D01*
X131752583Y-75184000D02*
X112533320Y-75184000D01*
X112533320Y-75184000D02*
X111847520Y-75869800D01*
X152799018Y-105714800D02*
X135748920Y-105714800D01*
X179857184Y-105040535D02*
X178958468Y-104141819D01*
X134358519Y-104324399D02*
X133589920Y-104324399D01*
X172329422Y-105398800D02*
X153115018Y-105398800D01*
X173586403Y-104141819D02*
X172329422Y-105398800D01*
X153115018Y-105398800D02*
X152799018Y-105714800D01*
%TO.N,/MODINT-*%
X159382120Y-74625200D02*
X142276720Y-74625200D01*
X110480600Y-58648600D02*
X106950000Y-55118000D01*
X143597520Y-58648600D02*
X110480600Y-58648600D01*
X142276720Y-74625200D02*
X142225920Y-74676000D01*
%TO.N,/V3D3*%
X145477120Y-74055200D02*
X145491320Y-74041000D01*
X145491320Y-74041000D02*
X154149720Y-74041000D01*
X154149720Y-74041000D02*
X154163920Y-74055200D01*
%TO.N,/V3D2*%
X151573120Y-75184000D02*
X152462120Y-76073000D01*
X146137520Y-75195200D02*
X146148720Y-75184000D01*
X146148720Y-75184000D02*
X151573120Y-75184000D01*
%TO.N,/RFMR-*%
X106986720Y-111090200D02*
X106843720Y-110947200D01*
X156907120Y-108762800D02*
X155648320Y-110021600D01*
X136400018Y-111090200D02*
X106986720Y-111090200D01*
X137468618Y-110021600D02*
X136400018Y-111090200D01*
X155648320Y-110021600D02*
X137468618Y-110021600D01*
%TO.N,/TWAITRQ-*%
X162215720Y-90486000D02*
X159149822Y-90486000D01*
X158119622Y-91516200D02*
X134885320Y-91516200D01*
X159149822Y-90486000D02*
X158119622Y-91516200D01*
%TO.N,Net-(OP3-B)*%
X112427218Y-67208400D02*
X102315822Y-67208400D01*
X71182120Y-55817881D02*
X74422000Y-52578001D01*
X73493520Y-66319400D02*
X71182120Y-64008000D01*
X113766071Y-66437351D02*
X112947222Y-67256200D01*
X112475018Y-67256200D02*
X112427218Y-67208400D01*
X115606720Y-67321200D02*
X114722871Y-66437351D01*
X71182120Y-64008000D02*
X71182120Y-55817881D01*
X102315822Y-67208400D02*
X101426822Y-66319400D01*
X101426822Y-66319400D02*
X73493520Y-66319400D01*
X114722871Y-66437351D02*
X113766071Y-66437351D01*
X112947222Y-67256200D02*
X112475018Y-67256200D01*
%TO.N,/EXTBRKRQ-*%
X183729520Y-54356000D02*
X183119920Y-54356000D01*
X183119920Y-54356000D02*
X183117920Y-54354000D01*
X170062320Y-54354000D02*
X168006920Y-52298600D01*
X168006920Y-52298600D02*
X144933320Y-52298600D01*
X183117920Y-54354000D02*
X170062320Y-54354000D01*
X144933320Y-52298600D02*
X143538720Y-50904000D01*
X143538720Y-50904000D02*
X141330200Y-50904000D01*
X140565800Y-50139600D02*
X79400400Y-50139600D01*
X79400400Y-50139600D02*
X74422000Y-55118000D01*
X141330200Y-50904000D02*
X140565800Y-50139600D01*
%TO.N,Net-(OP1-C)*%
X103668720Y-80873600D02*
X103617920Y-80924400D01*
X124191920Y-80873600D02*
X103668720Y-80873600D01*
%TO.N,Net-(OP3-A)*%
X74422000Y-57658000D02*
X76174600Y-59410600D01*
X76174600Y-59410600D02*
X114387520Y-59410600D01*
%TO.N,/TGTONLY-*%
X59752120Y-65098500D02*
X68704120Y-56146500D01*
X135647320Y-90678000D02*
X134834520Y-89865200D01*
X158151720Y-90678000D02*
X135647320Y-90678000D01*
X59752120Y-86004400D02*
X59752120Y-65098500D01*
X98937622Y-89865200D02*
X97780422Y-88708000D01*
X62455720Y-88708000D02*
X59752120Y-86004400D01*
X134834520Y-89865200D02*
X98937622Y-89865200D01*
X97780422Y-88708000D02*
X62455720Y-88708000D01*
%TO.N,/SBCMODE-*%
X63231920Y-83058000D02*
X63231920Y-72407919D01*
X164374720Y-82143600D02*
X161991520Y-79760400D01*
X63866920Y-83693000D02*
X63231920Y-83058000D01*
X164475343Y-84902152D02*
X164374720Y-84801529D01*
X161991520Y-79760400D02*
X132493320Y-79760400D01*
X128560720Y-83693000D02*
X63866920Y-83693000D01*
X132493320Y-79760400D02*
X128560720Y-83693000D01*
X164374720Y-84801529D02*
X164374720Y-82143600D01*
%TO.N,/ZA14*%
X172274120Y-124333000D02*
X128371720Y-124333000D01*
X114015920Y-93887800D02*
X114997120Y-94869000D01*
X121804081Y-71551800D02*
X115062120Y-71551800D01*
X176699158Y-112687100D02*
X176693720Y-112692538D01*
X88327120Y-95503999D02*
X89943319Y-93887800D01*
X176693720Y-113587684D02*
X173061520Y-117219884D01*
X173061520Y-123545600D02*
X172274120Y-124333000D01*
X176693720Y-112692538D02*
X176693720Y-113587684D01*
X89943319Y-93887800D02*
X114015920Y-93887800D01*
X173061520Y-117219884D02*
X173061520Y-123545600D01*
X122650697Y-70705184D02*
X121804081Y-71551800D01*
%TO.N,/ZA9*%
X122617120Y-102666800D02*
X122617120Y-97409000D01*
X122383720Y-102900200D02*
X122617120Y-102666800D01*
X118308320Y-102900200D02*
X122383720Y-102900200D01*
%TO.N,/ZA12*%
X87257120Y-99114000D02*
X70347120Y-99114000D01*
X70347120Y-99114000D02*
X69277120Y-98044000D01*
X117449720Y-73177400D02*
X118118761Y-73846441D01*
X110280222Y-95213400D02*
X91157720Y-95213400D01*
X116555920Y-95850200D02*
X110917022Y-95850200D01*
X88327120Y-98044000D02*
X87257120Y-99114000D01*
X91157720Y-95213400D02*
X88327120Y-98044000D01*
X121459679Y-73846441D02*
X124282320Y-71023800D01*
X110917022Y-95850200D02*
X110280222Y-95213400D01*
X117537120Y-94869000D02*
X116555920Y-95850200D01*
X118118761Y-73846441D02*
X121459679Y-73846441D01*
%TO.N,/ZA15*%
X172021236Y-125095000D02*
X128027320Y-125095000D01*
X173421520Y-117369000D02*
X173421520Y-123694716D01*
X173421520Y-123694716D02*
X172021236Y-125095000D01*
X179411520Y-111379000D02*
X173421520Y-117369000D01*
%TO.N,/ZA13*%
X122264655Y-72121800D02*
X123362655Y-71023800D01*
X119173920Y-72121800D02*
X122264655Y-72121800D01*
%TO.N,/ZA8*%
X121996320Y-87969000D02*
X109541289Y-87969000D01*
%TO.N,/ZA3*%
X169492820Y-112687100D02*
X169505520Y-112687100D01*
X126801422Y-114238000D02*
X127682920Y-114238000D01*
X93229320Y-137515600D02*
X72985520Y-137515600D01*
X63308120Y-112903000D02*
X65467120Y-110744000D01*
X63308120Y-127838200D02*
X63308120Y-112903000D01*
X127682920Y-114238000D02*
X127798720Y-114122200D01*
X127798720Y-114122200D02*
X168057720Y-114122200D01*
X168057720Y-114122200D02*
X169492820Y-112687100D01*
X72985520Y-137515600D02*
X63308120Y-127838200D01*
%TO.N,/ZA6*%
X172578920Y-97002600D02*
X172467520Y-97114000D01*
X140651486Y-95270000D02*
X135108520Y-95270000D01*
X176235218Y-96612111D02*
X175844729Y-97002600D01*
X98006463Y-103470200D02*
X97888863Y-103352600D01*
X135108520Y-95270000D02*
X134917519Y-95078999D01*
X73481720Y-81880800D02*
X96026501Y-81880800D01*
X123379120Y-104114600D02*
X117501231Y-104114600D01*
X175844729Y-97002600D02*
X172578920Y-97002600D01*
X98028520Y-81685000D02*
X98842720Y-82499200D01*
X96222302Y-81685000D02*
X98028520Y-81685000D01*
X72553720Y-80952800D02*
X73481720Y-81880800D01*
X162379036Y-97114000D02*
X161915036Y-96650000D01*
X125749121Y-95078999D02*
X125558120Y-95270000D01*
X134917519Y-95078999D02*
X125749121Y-95078999D01*
X161915036Y-96650000D02*
X142031486Y-96650000D01*
X117501231Y-104114600D02*
X116856831Y-103470200D01*
X142031486Y-96650000D02*
X140651486Y-95270000D01*
X172467520Y-97114000D02*
X162379036Y-97114000D01*
X96026501Y-81880800D02*
X96222302Y-81685000D01*
X116856831Y-103470200D02*
X98006463Y-103470200D01*
%TO.N,/ZA7*%
X121245520Y-82524600D02*
X121007120Y-82763000D01*
X167504118Y-100104400D02*
X169814018Y-100104400D01*
X71859720Y-80382800D02*
X71791720Y-80314800D01*
X99102120Y-81325000D02*
X96073185Y-81325000D01*
X166911718Y-100696800D02*
X167504118Y-100104400D01*
X141356886Y-100304600D02*
X163149518Y-100304600D01*
X136237320Y-101010000D02*
X140651486Y-101010000D01*
X169994818Y-99923600D02*
X178852720Y-99923600D01*
X178852720Y-99923600D02*
X179335320Y-100406200D01*
X96073185Y-81325000D02*
X95877385Y-81520800D01*
X163541718Y-100696800D02*
X166911718Y-100696800D01*
X111352022Y-82763000D02*
X111142022Y-82553000D01*
X121007120Y-82763000D02*
X111352022Y-82763000D01*
X140651486Y-101010000D02*
X141356886Y-100304600D01*
X111142022Y-82553000D02*
X100454120Y-82553000D01*
X100454120Y-82553000D02*
X100392120Y-82615000D01*
X100392120Y-82615000D02*
X99102120Y-81325000D01*
X73927822Y-81520800D02*
X72789822Y-80382800D01*
X169814018Y-100104400D02*
X169994818Y-99923600D01*
X163149518Y-100304600D02*
X163541718Y-100696800D01*
X136002920Y-101244400D02*
X136237320Y-101010000D01*
X72789822Y-80382800D02*
X71859720Y-80382800D01*
X95877385Y-81520800D02*
X73927822Y-81520800D01*
%TO.N,/ZA4*%
X96593320Y-82600800D02*
X66624320Y-82600800D01*
X136165521Y-105010000D02*
X133441321Y-102285800D01*
X168412320Y-105038800D02*
X152965902Y-105038800D01*
X140863438Y-105010000D02*
X136165521Y-105010000D01*
X66624320Y-82600800D02*
X66610120Y-82615000D01*
X170978720Y-104521000D02*
X170953320Y-104495600D01*
X141208238Y-105354800D02*
X140863438Y-105010000D01*
X168955520Y-104495600D02*
X168412320Y-105038800D01*
X133441321Y-102285800D02*
X130668920Y-102285800D01*
X152965902Y-105038800D02*
X152649902Y-105354800D01*
X170953320Y-104495600D02*
X168955520Y-104495600D01*
X152649902Y-105354800D02*
X141208238Y-105354800D01*
X96607520Y-82615000D02*
X96593320Y-82600800D01*
%TO.N,/ZA1*%
X129861520Y-113402200D02*
X167165518Y-113402200D01*
X167165518Y-113402200D02*
X167907518Y-112660200D01*
X128371721Y-112568299D02*
X129027619Y-112568299D01*
X129027619Y-112568299D02*
X129861520Y-113402200D01*
%TO.N,/ZA0*%
X104532320Y-69596000D02*
X121905920Y-69596000D01*
X162418920Y-85674200D02*
X162900811Y-86156091D01*
X168363229Y-86156091D02*
X169657920Y-84861400D01*
X162900811Y-86156091D02*
X168363229Y-86156091D01*
X121905920Y-69596000D02*
X122312320Y-70002400D01*
%TO.N,/ZA5*%
X97642879Y-82708441D02*
X97877520Y-82473800D01*
X175576120Y-98577400D02*
X175536520Y-98617000D01*
X172996418Y-98954000D02*
X164313939Y-98954000D01*
X150775920Y-98841200D02*
X150404720Y-99212400D01*
X129818520Y-99212400D02*
X127856120Y-97250000D01*
X68205920Y-82240800D02*
X96175618Y-82240800D01*
X173333418Y-98617000D02*
X172996418Y-98954000D01*
X67321320Y-81356200D02*
X68205920Y-82240800D01*
X96175618Y-82240800D02*
X96371418Y-82045000D01*
X175536520Y-98617000D02*
X173333418Y-98617000D01*
X96371418Y-82045000D02*
X96979438Y-82045000D01*
X164313939Y-98954000D02*
X164201138Y-98841200D01*
X96979438Y-82045000D02*
X97642879Y-82708441D01*
X150404720Y-99212400D02*
X129818520Y-99212400D01*
X164201138Y-98841200D02*
X150775920Y-98841200D01*
%TO.N,/ZA2*%
X128371720Y-113487200D02*
X128484520Y-113487200D01*
X128759520Y-113762200D02*
X167611619Y-113762200D01*
X167611619Y-113762200D02*
X168713619Y-112660200D01*
X128484520Y-113487200D02*
X128759520Y-113762200D01*
%TO.N,/RRA1*%
X161788135Y-90107483D02*
X161979618Y-89916000D01*
X138256603Y-90107483D02*
X161788135Y-90107483D01*
X65074920Y-87491905D02*
X65140025Y-87426800D01*
X78525120Y-87399000D02*
X135548120Y-87399000D01*
X166163920Y-89916000D02*
X166519520Y-89560400D01*
X161979618Y-89916000D02*
X166163920Y-89916000D01*
X65140025Y-87426800D02*
X78497320Y-87426800D01*
X78497320Y-87426800D02*
X78525120Y-87399000D01*
X135548120Y-87399000D02*
X138256603Y-90107483D01*
%TO.N,/ZD5*%
X136776862Y-66231258D02*
X136256920Y-66751200D01*
X112711120Y-66686200D02*
X112886338Y-66686200D01*
X113599135Y-65973403D02*
X122055114Y-65973403D01*
X122775762Y-66694051D02*
X136199771Y-66694051D01*
X122055114Y-65973403D02*
X122775762Y-66694051D01*
X143153778Y-66231258D02*
X136776862Y-66231258D01*
X145019920Y-68097400D02*
X143153778Y-66231258D01*
X136199771Y-66694051D02*
X136256920Y-66751200D01*
X112886338Y-66686200D02*
X113599135Y-65973403D01*
%TO.N,/ZD4*%
X135037720Y-85852000D02*
X151903320Y-85852000D01*
X101971569Y-142524049D02*
X100130618Y-142524049D01*
X83901720Y-144190000D02*
X83434830Y-143723110D01*
X100130618Y-142524049D02*
X98464667Y-144190000D01*
X98464667Y-144190000D02*
X83901720Y-144190000D01*
X102424120Y-142976600D02*
X101971569Y-142524049D01*
X151903320Y-85852000D02*
X153681320Y-84074000D01*
X134493120Y-85307400D02*
X135037720Y-85852000D01*
X134453520Y-85307400D02*
X134493120Y-85307400D01*
%TO.N,/ZD3*%
X112475018Y-66116200D02*
X112947222Y-66116200D01*
X136917320Y-83845400D02*
X149293818Y-83845400D01*
X112467168Y-66124050D02*
X112475018Y-66116200D01*
X149293818Y-83845400D02*
X149711418Y-83427800D01*
X103906286Y-66124050D02*
X112467168Y-66124050D01*
X100299483Y-131690037D02*
X109017927Y-131690037D01*
X149711418Y-83427800D02*
X152346320Y-83427800D01*
X113526676Y-65536746D02*
X122127573Y-65536746D01*
X153351120Y-105968800D02*
X171613720Y-105968800D01*
X134881660Y-65993391D02*
X135012320Y-66124051D01*
X103218218Y-63550800D02*
X102511729Y-64257289D01*
X112947222Y-66116200D02*
X113526676Y-65536746D01*
X122127573Y-65536746D02*
X122584218Y-65993391D01*
X103821120Y-63550800D02*
X103218218Y-63550800D01*
X100112720Y-131876800D02*
X100299483Y-131690037D01*
X121667515Y-133314795D02*
X121778920Y-133426200D01*
X102511729Y-64257289D02*
X102511729Y-64729493D01*
X110642685Y-133314795D02*
X121667515Y-133314795D01*
X122584218Y-65993391D02*
X134881660Y-65993391D01*
X102511729Y-64729493D02*
X103906286Y-66124050D01*
X109017927Y-131690037D02*
X110642685Y-133314795D01*
X152346320Y-83427800D02*
X152411320Y-83362800D01*
%TO.N,/RRA0*%
X85587120Y-96974000D02*
X84517120Y-98044000D01*
X167089520Y-89796502D02*
X163634622Y-93251400D01*
X134892040Y-94718999D02*
X128436119Y-94718999D01*
X85587120Y-96491400D02*
X85587120Y-96974000D01*
X136418439Y-93192600D02*
X134892040Y-94718999D01*
X126329920Y-92612800D02*
X97599903Y-92612800D01*
X96499913Y-91512810D02*
X91291519Y-91512810D01*
X91291519Y-91512810D02*
X88770329Y-94034000D01*
X88044520Y-94034000D02*
X85587120Y-96491400D01*
X167089520Y-89324298D02*
X167089520Y-89796502D01*
X157146975Y-93251400D02*
X157088175Y-93192600D01*
X97599903Y-92612800D02*
X96499913Y-91512810D01*
X157088175Y-93192600D02*
X136418439Y-93192600D01*
X128436119Y-94718999D02*
X126329920Y-92612800D01*
X88770329Y-94034000D02*
X88044520Y-94034000D01*
X163634622Y-93251400D02*
X157146975Y-93251400D01*
%TO.N,/ZD6*%
X153065022Y-83210400D02*
X155459320Y-83210400D01*
X104698811Y-64853391D02*
X136213311Y-64853391D01*
X155459320Y-83210400D02*
X156792820Y-84543900D01*
X107772320Y-120954800D02*
X107721520Y-120904000D01*
X104488812Y-65063390D02*
X104698811Y-64853391D01*
X149318102Y-83312000D02*
X149837302Y-82792800D01*
X137541322Y-83275400D02*
X137577922Y-83312000D01*
X152647422Y-82792800D02*
X153065022Y-83210400D01*
X107721520Y-120904000D02*
X84517120Y-120904000D01*
X136213311Y-64853391D02*
X136917320Y-65557400D01*
X149837302Y-82792800D02*
X152647422Y-82792800D01*
X137577922Y-83312000D02*
X149318102Y-83312000D01*
%TO.N,/RRA2*%
X141789552Y-87813000D02*
X136471236Y-87813000D01*
X143724035Y-89747483D02*
X141789552Y-87813000D01*
X159133037Y-89747483D02*
X143724035Y-89747483D01*
X166610730Y-88542386D02*
X160338134Y-88542386D01*
X136471236Y-87813000D02*
X135515036Y-86856800D01*
X160338134Y-88542386D02*
X159133037Y-89747483D01*
X135515036Y-86856800D02*
X65644920Y-86856800D01*
%TO.N,/ZD7*%
X156027920Y-82432800D02*
X158481920Y-84886800D01*
X149393186Y-82727800D02*
X149688186Y-82432800D01*
X103081729Y-64493391D02*
X137174111Y-64493391D01*
X138161920Y-82742000D02*
X138176120Y-82727800D01*
X104278320Y-119659400D02*
X85812520Y-119659400D01*
X137174111Y-64493391D02*
X137552320Y-64871600D01*
X149688186Y-82432800D02*
X156027920Y-82432800D01*
X85812520Y-119659400D02*
X84517120Y-118364000D01*
X138176120Y-82727800D02*
X149393186Y-82727800D01*
%TO.N,/ZD2*%
X164164822Y-99314000D02*
X173442520Y-99314000D01*
X173442520Y-99314000D02*
X173569520Y-99187000D01*
X153173320Y-99201200D02*
X164052022Y-99201200D01*
X135012320Y-70485000D02*
X134402720Y-69875400D01*
X152781120Y-99593400D02*
X153173320Y-99201200D01*
X122286920Y-130581400D02*
X99782472Y-130581400D01*
X164052022Y-99201200D02*
X164164822Y-99314000D01*
X151660520Y-70485000D02*
X135012320Y-70485000D01*
X99782472Y-130581400D02*
X99764384Y-130563312D01*
%TO.N,/ZD0*%
X99071320Y-131927600D02*
X99876803Y-131122117D01*
X133107320Y-70866000D02*
X135712320Y-73471000D01*
X76211720Y-131928000D02*
X73696720Y-129413000D01*
X73696720Y-129413000D02*
X73696720Y-123088400D01*
X99876803Y-131122117D02*
X119816237Y-131122117D01*
X135712320Y-73471000D02*
X147932120Y-73471000D01*
X99071320Y-131928000D02*
X76211720Y-131928000D01*
X99071320Y-131928000D02*
X99071320Y-131927600D01*
X71512320Y-120904000D02*
X69277120Y-120904000D01*
X73696720Y-123088400D02*
X71512320Y-120904000D01*
X119816237Y-131122117D02*
X120889920Y-132195800D01*
%TO.N,/ZD1*%
X108356520Y-108548400D02*
X109917120Y-110109000D01*
X104775120Y-108882298D02*
X105109018Y-108548400D01*
X152004920Y-106639000D02*
X137347720Y-106639000D01*
X137347720Y-106639000D02*
X137134720Y-106426000D01*
X161198173Y-106522604D02*
X168962622Y-106522604D01*
X111573702Y-116992400D02*
X104775120Y-110193818D01*
X76515004Y-132740400D02*
X70747120Y-126972516D01*
X137603120Y-116992400D02*
X111573702Y-116992400D01*
X177088426Y-106522604D02*
X177811320Y-107245498D01*
X102830520Y-136093200D02*
X99477720Y-132740400D01*
X115409906Y-136093200D02*
X102830520Y-136093200D01*
X171866018Y-106522604D02*
X177088426Y-106522604D01*
X161081776Y-106639000D02*
X161198173Y-106522604D01*
X116301906Y-136985200D02*
X115409906Y-136093200D01*
X95743920Y-112903000D02*
X102065938Y-112903000D01*
X70747120Y-126972516D02*
X70747120Y-124914000D01*
X70747120Y-124914000D02*
X69277120Y-123444000D01*
X177811320Y-107245498D02*
X177811320Y-107923997D01*
X99477720Y-132740400D02*
X76515004Y-132740400D01*
X152004920Y-106639000D02*
X161081776Y-106639000D01*
X102065938Y-112903000D02*
X104775120Y-110193818D01*
X171279822Y-107108800D02*
X171866018Y-106522604D01*
X104775120Y-110193818D02*
X104775120Y-108882298D01*
X134509228Y-71055000D02*
X133738425Y-70284197D01*
X105109018Y-108548400D02*
X108356520Y-108548400D01*
X168962622Y-106522604D02*
X169548818Y-107108800D01*
X169548818Y-107108800D02*
X171279822Y-107108800D01*
X149922120Y-71055000D02*
X134509228Y-71055000D01*
X116613972Y-136985200D02*
X116301906Y-136985200D01*
%TO.N,/SYNC*%
X162140636Y-79400400D02*
X112442920Y-79400400D01*
X183018320Y-80873600D02*
X163613836Y-80873600D01*
X163613836Y-80873600D02*
X162140636Y-79400400D01*
X112442920Y-79400400D02*
X110577520Y-77535000D01*
%TO.N,/ZINT-*%
X128685747Y-97010000D02*
X161765920Y-97010000D01*
X161765920Y-97010000D02*
X162229920Y-97474000D01*
X117959547Y-96443800D02*
X119095920Y-96443800D01*
X110688520Y-96427800D02*
X117943547Y-96427800D01*
X162229920Y-97474000D02*
X175971320Y-97474000D01*
X117943547Y-96427800D02*
X117959547Y-96443800D01*
X119111920Y-96427800D02*
X128103547Y-96427800D01*
X110044120Y-95783400D02*
X110688520Y-96427800D01*
X119095920Y-96443800D02*
X119111920Y-96427800D01*
X128103547Y-96427800D02*
X128685747Y-97010000D01*
X175971320Y-97474000D02*
X176719120Y-98221800D01*
%TO.N,/LRST-*%
X181911919Y-139079201D02*
X184288320Y-136702800D01*
X134545642Y-139079201D02*
X181911919Y-139079201D01*
X110679120Y-135153400D02*
X110983920Y-135458200D01*
X110983920Y-135458200D02*
X131645320Y-135458200D01*
X131645320Y-135458200D02*
X131950120Y-135153400D01*
%TO.N,/TDBUSIN-*%
X139381120Y-78155800D02*
X169073720Y-78155800D01*
X132459620Y-69850000D02*
X132459620Y-71234300D01*
X132459620Y-71234300D02*
X139381120Y-78155800D01*
%TO.N,/TDBUSEN-*%
X133107320Y-67614800D02*
X133400920Y-67321200D01*
X133400920Y-67321200D02*
X136493022Y-67321200D01*
X142707676Y-66591258D02*
X144783818Y-68667400D01*
X136493022Y-67321200D02*
X137222964Y-66591258D01*
X158518520Y-68667400D02*
X161021920Y-71170800D01*
X144783818Y-68667400D02*
X158518520Y-68667400D01*
X137222964Y-66591258D02*
X142707676Y-66591258D01*
%TO.N,/RAM_SEL-*%
X132740622Y-115738000D02*
X132530622Y-115948000D01*
X132530622Y-115948000D02*
X114352422Y-115948000D01*
X110307818Y-115217400D02*
X105345120Y-110254702D01*
X171095920Y-115738000D02*
X132740622Y-115738000D01*
X171715320Y-116357400D02*
X171095920Y-115738000D01*
X105345120Y-110254702D02*
X105345120Y-109118400D01*
X114352422Y-115948000D02*
X113621822Y-115217400D01*
X113621822Y-115217400D02*
X110307818Y-115217400D01*
%TO.N,/SBC_GPO0*%
X108113720Y-140220500D02*
X91159020Y-140220500D01*
X91159020Y-140220500D02*
X90130520Y-139192000D01*
%TO.N,/SBC_GPO3*%
X101277921Y-135049717D02*
X92795437Y-135049717D01*
X92795437Y-135049717D02*
X92086320Y-134340600D01*
X105064604Y-138836400D02*
X101277921Y-135049717D01*
X105649920Y-138836400D02*
X105064604Y-138836400D01*
%TO.N,/SBC_GPO2*%
X101230320Y-139635000D02*
X91730720Y-139635000D01*
X102526743Y-138318223D02*
X102526743Y-138338577D01*
X102526743Y-138338577D02*
X101230320Y-139635000D01*
X91730720Y-139635000D02*
X91287720Y-139192000D01*
%TO.N,/TGTMODE-*%
X111242422Y-134910600D02*
X110660022Y-134328200D01*
X81813520Y-84353400D02*
X100352520Y-84353400D01*
X181976920Y-134162800D02*
X181827520Y-134013400D01*
X62215920Y-86156800D02*
X64197120Y-88138000D01*
X116662320Y-134910600D02*
X111242422Y-134910600D01*
X181827520Y-134013400D02*
X117559520Y-134013400D01*
X64197120Y-88138000D02*
X81697720Y-88138000D01*
X81723120Y-84263000D02*
X81813520Y-84353400D01*
X110660022Y-134328200D02*
X104824120Y-134328200D01*
X117559520Y-134013400D02*
X116662320Y-134910600D01*
X100352520Y-84353400D02*
X100442920Y-84263000D01*
X62215920Y-85166200D02*
X62215920Y-86156800D01*
%TO.N,/TBREQB-*%
X136268120Y-80910200D02*
X159771681Y-80910200D01*
X159771681Y-80910200D02*
X160039881Y-81178400D01*
X136256920Y-80899000D02*
X136268120Y-80910200D01*
%TO.N,/TNMIB-*%
X160161669Y-80362251D02*
X160129818Y-80330400D01*
X160129818Y-80330400D02*
X139187720Y-80330400D01*
X139187720Y-80330400D02*
X139177920Y-80340200D01*
%TO.N,/TINTB-*%
X135023520Y-81330800D02*
X135195520Y-81502800D01*
X135195520Y-81502800D02*
X158710520Y-81502800D01*
%TO.N,/TGT_NOW*%
X142805720Y-110951600D02*
X162363720Y-110951600D01*
X162363720Y-110951600D02*
X164323920Y-108991400D01*
X140905120Y-112095207D02*
X141662113Y-112095207D01*
X141662113Y-112095207D02*
X142805720Y-110951600D01*
%TO.N,/BRK_DEQ*%
X100913502Y-143260000D02*
X100913502Y-143675782D01*
X101190720Y-143953000D02*
X159893120Y-143953000D01*
X159893120Y-143953000D02*
X163384120Y-140462000D01*
X100913502Y-143675782D02*
X101190720Y-143953000D01*
%TO.N,Net-(R29-Pad2)*%
X83018520Y-74218800D02*
X83653520Y-74853800D01*
X103195888Y-74853800D02*
X103810688Y-74239000D01*
X83653520Y-74853800D02*
X103195888Y-74853800D01*
X112157520Y-74239000D02*
X113701720Y-72694800D01*
X103810688Y-74239000D02*
X112157520Y-74239000D01*
%TO.N,/TCBUSEN-*%
X128622720Y-78725800D02*
X126122320Y-76225400D01*
X161809320Y-78725800D02*
X128622720Y-78725800D01*
%TO.N,/ZRST*%
X119278491Y-62532815D02*
X119063793Y-62747513D01*
X109240833Y-62747513D02*
X108977320Y-62484000D01*
X121016920Y-62484000D02*
X120968105Y-62532815D01*
X120968105Y-62532815D02*
X119278491Y-62532815D01*
X119063793Y-62747513D02*
X109240833Y-62747513D01*
%TO.N,/ZID_IO*%
X116833920Y-127846200D02*
X116622720Y-127635000D01*
X160328120Y-127846200D02*
X116833920Y-127846200D01*
X160488520Y-127685800D02*
X160328120Y-127846200D01*
%TO.N,/MEM_OP*%
X161457832Y-107578163D02*
X161448669Y-107569000D01*
X161448669Y-107569000D02*
X136598320Y-107569000D01*
X136598320Y-117652800D02*
X112126920Y-117652800D01*
%TO.N,/PCRD_DIN*%
X156099122Y-92252800D02*
X156327722Y-92481400D01*
X100519120Y-92252800D02*
X156099122Y-92252800D01*
X97852120Y-91313000D02*
X99579320Y-91313000D01*
X156327722Y-92481400D02*
X157465920Y-92481400D01*
X99579320Y-91313000D02*
X100519120Y-92252800D01*
%TO.N,Net-(U12-Ds)*%
X101193720Y-78574900D02*
X100963620Y-78574900D01*
X100950920Y-78587600D02*
X79994706Y-78587600D01*
X79994706Y-78587600D02*
X79833519Y-78748787D01*
X100963620Y-78574900D02*
X100950920Y-78587600D01*
%TD*%
M02*
