%TF.GenerationSoftware,KiCad,Pcbnew,9.0.9*%
%TF.CreationDate,2026-08-16T13:25:16-07:00*%
%TF.ProjectId,ZID_MAIN,5a49445f-4d41-4494-9e2e-6b696361645f,PR1.0*%
%TF.SameCoordinates,Original*%
%TF.FileFunction,Copper,L2,Inr*%
%TF.FilePolarity,Positive*%
%FSLAX46Y46*%
G04 Gerber Fmt 4.6, Leading zero omitted, Abs format (unit mm)*
G04 Created by KiCad (PCBNEW 9.0.9) date 2026-08-16 13:25:16*
%MOMM*%
%LPD*%
G01*
G04 APERTURE LIST*
G04 Aperture macros list*
%AMRoundRect*
0 Rectangle with rounded corners*
0 $1 Rounding radius*
0 $2 $3 $4 $5 $6 $7 $8 $9 X,Y pos of 4 corners*
0 Add a 4 corners polygon primitive as box body*
4,1,4,$2,$3,$4,$5,$6,$7,$8,$9,$2,$3,0*
0 Add four circle primitives for the rounded corners*
1,1,$1+$1,$2,$3*
1,1,$1+$1,$4,$5*
1,1,$1+$1,$6,$7*
1,1,$1+$1,$8,$9*
0 Add four rect primitives between the rounded corners*
20,1,$1+$1,$2,$3,$4,$5,0*
20,1,$1+$1,$4,$5,$6,$7,0*
20,1,$1+$1,$6,$7,$8,$9,0*
20,1,$1+$1,$8,$9,$2,$3,0*%
G04 Aperture macros list end*
%TA.AperFunction,ComponentPad*%
%ADD10O,1.000000X2.100000*%
%TD*%
%TA.AperFunction,ComponentPad*%
%ADD11O,1.000000X1.800000*%
%TD*%
%TA.AperFunction,ComponentPad*%
%ADD12R,1.700000X1.700000*%
%TD*%
%TA.AperFunction,ComponentPad*%
%ADD13O,1.750000X1.200000*%
%TD*%
%TA.AperFunction,ComponentPad*%
%ADD14RoundRect,0.250000X0.625000X-0.350000X0.625000X0.350000X-0.625000X0.350000X-0.625000X-0.350000X0*%
%TD*%
%TA.AperFunction,ComponentPad*%
%ADD15O,1.600000X2.400000*%
%TD*%
%TA.AperFunction,ComponentPad*%
%ADD16C,1.400000*%
%TD*%
%TA.AperFunction,ComponentPad*%
%ADD17RoundRect,0.250000X-0.550000X0.950000X-0.550000X-0.950000X0.550000X-0.950000X0.550000X0.950000X0*%
%TD*%
%TA.AperFunction,ComponentPad*%
%ADD18C,1.700000*%
%TD*%
%TA.AperFunction,ComponentPad*%
%ADD19C,1.350000*%
%TD*%
%TA.AperFunction,ComponentPad*%
%ADD20R,1.350000X1.350000*%
%TD*%
%TA.AperFunction,ComponentPad*%
%ADD21C,1.600000*%
%TD*%
%TA.AperFunction,ComponentPad*%
%ADD22RoundRect,0.250000X-0.550000X-0.550000X0.550000X-0.550000X0.550000X0.550000X-0.550000X0.550000X0*%
%TD*%
%TA.AperFunction,ComponentPad*%
%ADD23O,2.400000X1.600000*%
%TD*%
%TA.AperFunction,ComponentPad*%
%ADD24RoundRect,0.250000X-0.950000X-0.550000X0.950000X-0.550000X0.950000X0.550000X-0.950000X0.550000X0*%
%TD*%
%TA.AperFunction,ComponentPad*%
%ADD25C,1.000000*%
%TD*%
%TA.AperFunction,ComponentPad*%
%ADD26C,1.422400*%
%TD*%
%TA.AperFunction,ComponentPad*%
%ADD27R,1.422400X1.422400*%
%TD*%
%TA.AperFunction,ComponentPad*%
%ADD28RoundRect,0.250000X0.550000X-0.550000X0.550000X0.550000X-0.550000X0.550000X-0.550000X-0.550000X0*%
%TD*%
%TA.AperFunction,ComponentPad*%
%ADD29R,1.600000X1.600000*%
%TD*%
%TA.AperFunction,ComponentPad*%
%ADD30O,1.700000X1.700000*%
%TD*%
%TA.AperFunction,ViaPad*%
%ADD31C,0.750000*%
%TD*%
%TA.AperFunction,ViaPad*%
%ADD32C,0.600000*%
%TD*%
%TA.AperFunction,Conductor*%
%ADD33C,0.600000*%
%TD*%
%TA.AperFunction,Conductor*%
%ADD34C,0.300000*%
%TD*%
%TA.AperFunction,Conductor*%
%ADD35C,0.180000*%
%TD*%
G04 APERTURE END LIST*
D10*
%TO.N,Net-(J14-SHIELD-PadSH1)*%
%TO.C,J14*%
X168970120Y-48789000D03*
X177610120Y-48789000D03*
D11*
X168970120Y-44609000D03*
X177610120Y-44609000D03*
%TD*%
D12*
%TO.N,Net-(R32-Pad2)*%
%TO.C,TP14*%
X67564000Y-44704000D03*
%TD*%
D13*
%TO.N,/JTDI_CO*%
%TO.C,J3*%
X140016120Y-94140000D03*
%TO.N,/JTMS*%
X140016120Y-96140000D03*
%TO.N,+5V*%
X140016120Y-98140000D03*
%TO.N,/JTDO_CI*%
X140016120Y-100140000D03*
%TO.N,GND*%
X140016120Y-102139999D03*
D14*
%TO.N,/JTCK*%
X140016120Y-104140000D03*
%TD*%
D15*
%TO.N,+5V*%
%TO.C,U11*%
X96836120Y-71628000D03*
D16*
%TO.N,unconnected-(U11-NC13-Pad13)*%
X94296120Y-71628000D03*
%TO.N,unconnected-(U11-NC12-Pad12)*%
X91756120Y-71628000D03*
D15*
%TO.N,+5V*%
X89216120Y-71628000D03*
D16*
%TO.N,unconnected-(U11-NC10-Pad10)*%
X86676120Y-71628000D03*
%TO.N,unconnected-(U11-NC9-Pad9)*%
X84136120Y-71628000D03*
D15*
%TO.N,/_CLK*%
X81596120Y-71628000D03*
%TO.N,GND*%
X81596120Y-64008000D03*
D16*
%TO.N,unconnected-(U11-NC6-Pad6)*%
X84136120Y-64008000D03*
%TO.N,unconnected-(U11-NC5-Pad5)*%
X86676120Y-64008000D03*
D15*
%TO.N,+5V*%
X89216120Y-64008000D03*
D16*
%TO.N,unconnected-(U11-NC3-Pad3)*%
X91756121Y-64008000D03*
%TO.N,unconnected-(U11-NC2-Pad2)*%
X94296120Y-64008000D03*
D17*
%TO.N,+5V*%
X96836120Y-64008000D03*
%TD*%
D18*
%TO.N,/SDA_TX*%
%TO.C,J2*%
X175514000Y-118491000D03*
%TO.N,/SCK_RX*%
X175514000Y-121031001D03*
%TO.N,GND*%
X175514000Y-123571000D03*
D12*
%TO.N,+3.3V*%
X175514000Y-126111000D03*
%TD*%
D19*
%TO.N,/TINT-*%
%TO.C,JP4*%
X108950001Y-55118000D03*
D20*
%TO.N,/MODINT-*%
X106950000Y-55118000D03*
%TD*%
D21*
%TO.N,/TGTONLY-*%
%TO.C,SW2*%
X68704120Y-56146500D03*
%TO.N,/SBC_GPI3*%
X68704120Y-58686500D03*
%TO.N,GND*%
X61084120Y-58686500D03*
D22*
X61084120Y-56146500D03*
%TD*%
D19*
%TO.N,/_CLK*%
%TO.C,SBC2*%
X65214000Y-66294000D03*
%TO.N,/CLK*%
X63214001Y-66294000D03*
D20*
%TO.N,/TCLK*%
X61214000Y-66294000D03*
%TD*%
D19*
%TO.N,/RFMR-*%
%TO.C,OP1*%
X104202120Y-77184000D03*
%TO.N,Net-(OP1-C)*%
X104202120Y-75184000D03*
D20*
%TO.N,unconnected-(OP1-A-Pad1)*%
X104202120Y-73184000D03*
%TD*%
D18*
%TO.N,/SPIMI*%
%TO.C,J6*%
X168718120Y-76454000D03*
%TO.N,/SPICS-*%
X168718120Y-73914000D03*
D12*
%TO.N,GND*%
X168718120Y-71374000D03*
%TD*%
D19*
%TO.N,/TCLK*%
%TO.C,JP3*%
X76008121Y-69342000D03*
%TO.N,/_CLK*%
X74008122Y-69342000D03*
D20*
%TO.N,unconnected-(JP3-A-Pad1)*%
X72008121Y-69342000D03*
%TD*%
D19*
%TO.N,+5V*%
%TO.C,JP6*%
X172877121Y-52857400D03*
D20*
%TO.N,/VBUSP*%
X170877120Y-52857400D03*
%TD*%
D18*
%TO.N,Net-(J1-Pin_2)*%
%TO.C,J1*%
X182561120Y-125222000D03*
D12*
%TO.N,GND*%
X182561120Y-127762000D03*
%TD*%
D20*
%TO.N,/_CLK*%
%TO.C,TP2*%
X68896120Y-76454000D03*
%TD*%
D19*
%TO.N,/TRST-*%
%TO.C,JP2*%
X76008120Y-72390000D03*
%TO.N,/RST-*%
X74008121Y-72390000D03*
D20*
%TO.N,unconnected-(JP2-A-Pad1)*%
X72008120Y-72390000D03*
%TD*%
D12*
%TO.N,Net-(R29-Pad1)*%
%TO.C,TP12*%
X71374000Y-44704000D03*
%TD*%
D19*
%TO.N,/BRD_RST-*%
%TO.C,DBOPT1*%
X133589920Y-108324399D03*
%TO.N,Net-(DBOPT1-C)*%
X133589920Y-106324400D03*
D20*
%TO.N,/ZRST-*%
X133589920Y-104324399D03*
%TD*%
D23*
%TO.N,+5V*%
%TO.C,U5*%
X84517120Y-90424000D03*
%TO.N,/ZWR-*%
X84517120Y-92964000D03*
%TO.N,GND*%
X84517120Y-95504000D03*
%TO.N,/RRA0*%
X84517120Y-98044000D03*
%TO.N,/ZA13*%
X84517120Y-100584000D03*
%TO.N,/ZA8*%
X84517120Y-103124000D03*
%TO.N,/ZA9*%
X84517120Y-105664000D03*
%TO.N,/ZA11*%
X84517120Y-108204000D03*
%TO.N,/ZRD-*%
X84517120Y-110744000D03*
%TO.N,/ZA10*%
X84517120Y-113284000D03*
%TO.N,/ROM_SEL-*%
X84517120Y-115824000D03*
%TO.N,/ZD7*%
X84517120Y-118364000D03*
%TO.N,/ZD6*%
X84517120Y-120904000D03*
%TO.N,/ZD5*%
X84517120Y-123444000D03*
%TO.N,/ZD4*%
X84517120Y-125984000D03*
%TO.N,/ZD3*%
X84517120Y-128524000D03*
%TO.N,GND*%
X69277120Y-128523999D03*
%TO.N,/ZD2*%
X69277120Y-125984000D03*
%TO.N,/ZD1*%
X69277120Y-123444000D03*
%TO.N,/ZD0*%
X69277120Y-120904000D03*
%TO.N,/ZA0*%
X69277120Y-118363999D03*
%TO.N,/ZA1*%
X69277120Y-115824000D03*
%TO.N,/ZA2*%
X69277120Y-113284000D03*
%TO.N,/ZA3*%
X69277120Y-110744000D03*
%TO.N,/ZA4*%
X69277120Y-108204001D03*
%TO.N,/ZA5*%
X69277120Y-105664000D03*
%TO.N,/ZA6*%
X69277120Y-103124000D03*
%TO.N,/ZA7*%
X69277120Y-100584000D03*
%TO.N,/ZA12*%
X69277120Y-98044000D03*
%TO.N,/RRA1*%
X69277120Y-95503999D03*
%TO.N,/RRA2*%
X69277120Y-92964000D03*
D24*
%TO.N,GND*%
X69277120Y-90424000D03*
%TD*%
D18*
%TO.N,/MODINT-*%
%TO.C,J9*%
X104394000Y-45974000D03*
%TO.N,+5V*%
X104394000Y-48514000D03*
%TO.N,/SBC_I2*%
X101854000Y-45974000D03*
%TO.N,GND*%
X101853999Y-48514000D03*
%TO.N,/SBC_I1*%
X99314000Y-45974000D03*
%TO.N,GND*%
X99314000Y-48514000D03*
%TO.N,/SBC_I0*%
X96774000Y-45974000D03*
D12*
%TO.N,GND*%
X96774000Y-48514000D03*
%TD*%
D19*
%TO.N,Net-(D3-K)*%
%TO.C,JP5*%
X137730120Y-44465999D03*
D20*
%TO.N,Net-(JP5-A)*%
X137730120Y-46466000D03*
%TD*%
D18*
%TO.N,unconnected-(OP2-B-Pad3)*%
%TO.C,OP2*%
X134428120Y-93598999D03*
%TO.N,/TWAITRQ-*%
X134428120Y-91059000D03*
D12*
%TO.N,/TWAITB-*%
X134428120Y-88519000D03*
%TD*%
D19*
%TO.N,/RST-*%
%TO.C,SBC1*%
X65246000Y-69342000D03*
%TO.N,/BRD_RST-*%
X63246001Y-69342000D03*
D20*
%TO.N,/TRST-*%
X61246000Y-69342000D03*
%TD*%
D12*
%TO.N,/TGTMODE-*%
%TO.C,TP1*%
X62215920Y-85166200D03*
%TD*%
D19*
%TO.N,GND*%
%TO.C,SBC3*%
X65214000Y-72390000D03*
%TO.N,/SBCMODE-*%
X63214001Y-72390000D03*
D20*
%TO.N,unconnected-(SBC3-A-Pad1)*%
X61214000Y-72390000D03*
%TD*%
D25*
%TO.N,Net-(R22-Pad1)*%
%TO.C,TP3*%
X109927771Y-72130081D03*
%TD*%
D18*
%TO.N,/ZWAIT-*%
%TO.C,J4*%
X96582121Y-76454000D03*
%TO.N,/ZWR-*%
X94042120Y-76454000D03*
%TO.N,/ZRD-*%
X91502120Y-76454000D03*
%TO.N,/ZIORQ-*%
X88962120Y-76454000D03*
%TO.N,/ZMREQ-*%
X86422120Y-76454000D03*
%TO.N,/ZM1-*%
X83882119Y-76454000D03*
%TO.N,/ZRFSH-*%
X81342120Y-76454000D03*
D12*
%TO.N,GND*%
X78802120Y-76454000D03*
%TD*%
D26*
%TO.N,/ZA10*%
%TO.C,U7*%
X120077120Y-94869000D03*
%TO.N,/ZA9*%
X122617120Y-97409000D03*
%TO.N,/ZA8*%
X122617120Y-94869000D03*
%TO.N,/ZA7*%
X125157119Y-97409000D03*
%TO.N,/ZA6*%
X125157120Y-94869000D03*
%TO.N,/ZA5*%
X127697120Y-97409000D03*
%TO.N,/ZA4*%
X125157120Y-99949000D03*
%TO.N,/ZA3*%
X127697120Y-99949000D03*
%TO.N,/ZA2*%
X125157120Y-102489000D03*
%TO.N,/ZA1*%
X127697120Y-102489000D03*
%TO.N,/ZA0*%
X125157120Y-105029000D03*
%TO.N,GND*%
X127697120Y-105029000D03*
%TO.N,/ZRFSH-*%
X125157120Y-107568999D03*
%TO.N,/ZM1-*%
X127697120Y-107569000D03*
%TO.N,Net-(DBOPT1-C)*%
X125157120Y-110109001D03*
%TO.N,/ZBREQ-*%
X127697120Y-110109000D03*
%TO.N,/ZWAIT-*%
X125157120Y-112649000D03*
%TO.N,/ZBACK-*%
X122617120Y-110109000D03*
%TO.N,/ZWR-*%
X122617120Y-112649000D03*
%TO.N,unconnected-(U7-NC-Pad25)*%
X120077120Y-110109000D03*
%TO.N,unconnected-(U7-NC-Pad24)*%
X120077120Y-112649000D03*
%TO.N,/ZRD-*%
X117537120Y-110109000D03*
%TO.N,/ZIORQ-*%
X117537120Y-112649000D03*
%TO.N,/ZMREQ-*%
X114997120Y-110109001D03*
%TO.N,/ZHALT-*%
X114997120Y-112649000D03*
%TO.N,/ZNMI-*%
X112457120Y-110109000D03*
%TO.N,/ZINT-*%
X112457120Y-112649000D03*
%TO.N,/ZD1*%
X109917120Y-110109000D03*
%TO.N,/ZD0*%
X112457120Y-107569000D03*
%TO.N,/ZD7*%
X109917120Y-107569000D03*
%TO.N,/ZD2*%
X112457120Y-105029000D03*
%TO.N,+5V*%
X109917120Y-105029000D03*
%TO.N,unconnected-(U7-NC-Pad12)*%
X112457120Y-102489000D03*
%TO.N,/ZD6*%
X109917121Y-102489000D03*
%TO.N,/ZD5*%
X112457120Y-99949000D03*
%TO.N,/ZD3*%
X109917120Y-99949000D03*
%TO.N,/ZD4*%
X112457120Y-97409000D03*
%TO.N,/CLK*%
X109917120Y-97409000D03*
%TO.N,unconnected-(U7-NC-Pad6)*%
X112457120Y-94869000D03*
%TO.N,/ZA15*%
X114997121Y-97409000D03*
%TO.N,/ZA14*%
X114997120Y-94869000D03*
%TO.N,/ZA13*%
X117537120Y-97409000D03*
%TO.N,/ZA12*%
X117537120Y-94869000D03*
D27*
%TO.N,/ZA11*%
X120077120Y-97409000D03*
%TD*%
D18*
%TO.N,/SBC_O3*%
%TO.C,J7*%
X89154000Y-45974000D03*
%TO.N,GND*%
X89154000Y-48514000D03*
%TO.N,/SBC_O2*%
X86614000Y-45974000D03*
%TO.N,GND*%
X86613999Y-48514000D03*
%TO.N,/SBC_O1*%
X84074000Y-45974000D03*
%TO.N,GND*%
X84074000Y-48514000D03*
%TO.N,/SBC_O0*%
X81534000Y-45974000D03*
D12*
%TO.N,GND*%
X81534000Y-48514000D03*
%TD*%
D21*
%TO.N,unconnected-(SPARE1-UC-Pad16)*%
%TO.C,SPARE1*%
X87946120Y-118364000D03*
%TO.N,unconnected-(SPARE1-UC-Pad15)*%
X90486120Y-118364000D03*
%TO.N,unconnected-(SPARE1-UC-Pad14)*%
X93026120Y-118364000D03*
%TO.N,unconnected-(SPARE1-UC-Pad13)*%
X95566120Y-118364000D03*
%TO.N,unconnected-(SPARE1-UC-Pad12)*%
X98106120Y-118364000D03*
%TO.N,unconnected-(SPARE1-UC-Pad11)*%
X100646120Y-118364000D03*
%TO.N,unconnected-(SPARE1-UC-Pad10)*%
X103186120Y-118364000D03*
%TO.N,unconnected-(SPARE1-UC-Pad9)*%
X105726120Y-118364000D03*
%TO.N,unconnected-(SPARE1-UC-Pad8)*%
X105726121Y-125984000D03*
%TO.N,unconnected-(SPARE1-UC-Pad7)*%
X103186120Y-125984000D03*
%TO.N,unconnected-(SPARE1-UC-Pad6)*%
X100646120Y-125984000D03*
%TO.N,unconnected-(SPARE1-UC-Pad5)*%
X98106120Y-125984000D03*
%TO.N,unconnected-(SPARE1-UC-Pad4)*%
X95566120Y-125984000D03*
%TO.N,unconnected-(SPARE1-UC-Pad3)*%
X93026119Y-125984000D03*
%TO.N,unconnected-(SPARE1-UC-Pad2)*%
X90486120Y-125984000D03*
D28*
%TO.N,unconnected-(SPARE1-UC-Pad1)*%
X87946120Y-125984000D03*
%TD*%
D12*
%TO.N,GND*%
%TO.C,TP15*%
X75184000Y-44704000D03*
%TD*%
D25*
%TO.N,Net-(TP7-Pad1)*%
%TO.C,TP7*%
X111855447Y-72006600D03*
%TD*%
D18*
%TO.N,Net-(OP3-B)*%
%TO.C,OP3*%
X74422000Y-52578001D03*
%TO.N,/EXTBRKRQ-*%
X74422000Y-55118000D03*
D12*
%TO.N,Net-(OP3-A)*%
X74422000Y-57658000D03*
%TD*%
D18*
%TO.N,+5V*%
%TO.C,J8*%
X94234000Y-45974000D03*
X94234000Y-48514000D03*
X91694000Y-45974000D03*
D12*
X91694000Y-48514000D03*
%TD*%
D21*
%TO.N,/ZA0*%
%TO.C,RN1*%
X65467120Y-118364000D03*
%TO.N,/ZA1*%
X65467120Y-115824001D03*
%TO.N,/ZA2*%
X65467120Y-113284000D03*
%TO.N,/ZA3*%
X65467120Y-110744000D03*
%TO.N,/ZA4*%
X65467120Y-108204000D03*
%TO.N,/ZA5*%
X65467120Y-105664000D03*
%TO.N,/ZA6*%
X65467120Y-103123999D03*
%TO.N,/ZA7*%
X65467120Y-100584000D03*
D29*
%TO.N,+5V*%
X65467120Y-98044000D03*
%TD*%
D21*
%TO.N,/ZA10*%
%TO.C,RN2*%
X88327120Y-110744000D03*
%TO.N,/ZA11*%
X88327120Y-108204001D03*
%TO.N,/ZA9*%
X88327120Y-105664000D03*
%TO.N,/ZA8*%
X88327120Y-103124000D03*
%TO.N,/ZA13*%
X88327120Y-100584000D03*
%TO.N,/ZA12*%
X88327120Y-98044000D03*
%TO.N,/ZA14*%
X88327120Y-95503999D03*
%TO.N,/ZA15*%
X88327120Y-92964000D03*
D29*
%TO.N,+5V*%
X88327120Y-90424000D03*
%TD*%
D13*
%TO.N,/SPICS2-*%
%TO.C,J5*%
X179132120Y-69152000D03*
%TO.N,/SPIMO*%
X179132120Y-71152000D03*
%TO.N,/SPIMI*%
X179132120Y-73152000D03*
%TO.N,/SPICK*%
X179132120Y-75152000D03*
%TO.N,GND*%
X179132120Y-77151999D03*
D14*
%TO.N,+3.3V*%
X179132120Y-79152000D03*
%TD*%
D18*
%TO.N,/TD7*%
%TO.C,J11*%
X141794120Y-65024001D03*
%TO.N,/TD6*%
X141794120Y-62484000D03*
%TO.N,/TD5*%
X141794120Y-59944000D03*
%TO.N,/TD4*%
X141794120Y-57404000D03*
%TO.N,/TD3*%
X141794120Y-54864000D03*
%TO.N,/TD2*%
X141794120Y-52323999D03*
%TO.N,/TD1*%
X141794120Y-49784000D03*
D12*
%TO.N,/TD0*%
X141794120Y-47244000D03*
%TD*%
%TO.N,Net-(JP5-A)*%
%TO.C,M1*%
X147382120Y-45974000D03*
D30*
%TO.N,GND*%
X147382120Y-48514000D03*
%TO.N,+3.3V*%
X147382120Y-51054000D03*
%TO.N,/SPICS-*%
X147382120Y-53594000D03*
%TO.N,/SPIMI*%
X147382120Y-56134000D03*
D12*
%TO.N,/SPIMO*%
X147382120Y-58674000D03*
D30*
%TO.N,/SPICK*%
X147382120Y-61214000D03*
%TO.N,/IOECLK*%
X147382120Y-63754000D03*
%TO.N,/MRST-*%
X147382120Y-66294000D03*
%TO.N,/MWTRQ-*%
X149922120Y-66294000D03*
%TO.N,/MSEL-*%
X152462120Y-66294000D03*
%TO.N,/MRD-*%
X155002120Y-66294001D03*
%TO.N,/MA0*%
X157542120Y-66293999D03*
%TO.N,/V3D7*%
X160082120Y-66294000D03*
%TO.N,/V3D6*%
X162622120Y-66294000D03*
D12*
%TO.N,/V3D5*%
X162622120Y-63754000D03*
D30*
%TO.N,/V3D4*%
X162622120Y-61214000D03*
%TO.N,/V3D3*%
X162622120Y-58674000D03*
%TO.N,/V3D2*%
X162622120Y-56134000D03*
%TO.N,/V3D1*%
X162622120Y-53594000D03*
D12*
%TO.N,/V3D0*%
X162622120Y-51054000D03*
D30*
%TO.N,/SCK_RX*%
X162622120Y-48514000D03*
%TO.N,/SDA_TX*%
X162622120Y-45974000D03*
%TD*%
D25*
%TO.N,/IO120*%
%TO.C,TP5*%
X183450120Y-103632000D03*
%TD*%
%TO.N,Net-(U15-EMC72{slash}IO)*%
%TO.C,TP25*%
X122667920Y-122402600D03*
%TD*%
%TO.N,Net-(U22-D41{slash}IO{slash}GCK3)*%
%TO.C,TP13*%
X113206266Y-128862973D03*
%TD*%
%TO.N,Net-(U22-CMC33{slash}IO)*%
%TO.C,TP22*%
X94560952Y-134279717D03*
%TD*%
%TO.N,Net-(U15-DMC54{slash}IO)*%
%TO.C,TP19*%
X119797720Y-127076200D03*
%TD*%
%TO.N,/IO121*%
%TO.C,TP4*%
X183450120Y-106426000D03*
%TD*%
%TO.N,/IO61*%
%TO.C,TP8*%
X156272120Y-94234000D03*
%TD*%
%TO.N,/PCRD_DIN*%
%TO.C,TP9*%
X157465920Y-92481400D03*
%TD*%
%TO.N,Net-(U15-BMC30{slash}IO)*%
%TO.C,TP17*%
X123404520Y-143154400D03*
%TD*%
%TO.N,Net-(U15-AMC9{slash}IO)*%
%TO.C,TP6*%
X133913337Y-142466795D03*
%TD*%
%TO.N,Net-(U15-HMC120{slash}IO)*%
%TO.C,TP18*%
X138568320Y-135991600D03*
%TD*%
%TO.N,Net-(U15-FMC88{slash}IO)*%
%TO.C,TP24*%
X133913337Y-121638795D03*
%TD*%
%TO.N,Net-(U15-CMC33{slash}IO)*%
%TO.C,TP23*%
X116387338Y-134084795D03*
%TD*%
%TO.N,Net-(U22-DMC57{slash}IO)*%
%TO.C,TP20*%
X108037520Y-128524000D03*
%TD*%
%TO.N,Net-(U18-FMC88{slash}IO)*%
%TO.C,TP11*%
X177404920Y-87045800D03*
%TD*%
%TO.N,Net-(U15-GMC104{slash}IO)*%
%TO.C,TP21*%
X138739337Y-125956795D03*
%TD*%
%TO.N,Net-(U18-FMC89{slash}IO)*%
%TO.C,TP10*%
X179436920Y-87071200D03*
%TD*%
D31*
%TO.N,+5V*%
X103973520Y-50957000D03*
X93432520Y-50850800D03*
%TO.N,GND*%
X158014638Y-88790352D03*
X131460920Y-138412063D03*
X118740832Y-62082513D03*
X114044137Y-67556284D03*
X168451776Y-127279433D03*
X130368720Y-62336200D03*
X151824895Y-132915276D03*
X114181493Y-84622707D03*
X176373388Y-92151290D03*
X178281422Y-100745216D03*
X125583488Y-136691915D03*
X135007720Y-52066253D03*
X155398984Y-132901556D03*
X139142377Y-86722004D03*
X145486204Y-132901556D03*
X164546657Y-119414939D03*
X177119658Y-50735945D03*
X139109169Y-76943395D03*
X176671821Y-103476819D03*
X182106120Y-117256299D03*
X159746365Y-129049328D03*
D32*
X88629047Y-58784954D03*
D31*
X95662022Y-115479015D03*
X159477120Y-98129648D03*
X106349918Y-132472381D03*
X120058477Y-73004941D03*
X148648689Y-132915276D03*
X181264261Y-135215522D03*
X138975821Y-67438887D03*
X166828811Y-95823554D03*
X122445732Y-123959079D03*
X101821217Y-132531793D03*
X160717461Y-77441748D03*
X95856178Y-142801723D03*
X95002750Y-61418886D03*
X133041120Y-77537556D03*
X71182120Y-133444365D03*
X117920391Y-129709522D03*
X113336428Y-136811659D03*
D32*
X124765399Y-90928495D03*
D31*
X134005332Y-123668000D03*
X130058575Y-46984919D03*
X179217657Y-52833945D03*
X164582704Y-132836078D03*
X88232874Y-56114672D03*
X88569545Y-85762609D03*
X83110491Y-134733868D03*
X176242701Y-136059309D03*
X169495218Y-51360228D03*
D32*
X107540000Y-49219011D03*
D31*
X163696679Y-85301291D03*
X101515682Y-62171458D03*
X104028907Y-142409873D03*
X167758095Y-84937400D03*
X77706862Y-133405400D03*
X98469626Y-138476769D03*
X178911712Y-59563509D03*
X98710037Y-127859000D03*
X106037447Y-95878400D03*
X84547119Y-80300561D03*
X167564150Y-104284442D03*
X136993621Y-137665025D03*
X128823765Y-47003212D03*
X170669176Y-87979936D03*
X170706702Y-93869109D03*
X176802399Y-58503662D03*
D32*
X128449249Y-93459855D03*
D31*
X142945771Y-119659735D03*
X126450336Y-70282017D03*
X175736926Y-109737901D03*
X141077065Y-84773515D03*
X105227215Y-90906009D03*
X136803780Y-132326102D03*
X167432718Y-61702789D03*
%TO.N,+3.3V*%
X166914720Y-65862200D03*
X144003920Y-77393800D03*
D32*
X143572120Y-84963000D03*
D31*
X174433120Y-69397400D03*
X144922920Y-69820000D03*
X159650320Y-116535200D03*
X154367120Y-132994400D03*
X154875120Y-123190000D03*
X141971920Y-132410200D03*
X143572120Y-117602000D03*
X164323920Y-127254000D03*
X168260920Y-79629000D03*
X170318320Y-114223800D03*
X163917520Y-76606400D03*
X160727410Y-72765800D03*
X172985320Y-69773800D03*
%TO.N,+5V*%
X133929688Y-129061407D03*
X183094520Y-122936000D03*
X122454829Y-125496475D03*
X163076291Y-94281609D03*
X163308265Y-91770832D03*
X146924920Y-104329800D03*
D32*
X147786620Y-95097600D03*
D31*
X90755025Y-143422595D03*
D32*
X121640456Y-78028795D03*
D31*
X165353952Y-102653421D03*
X173563166Y-89238727D03*
X71779029Y-76665414D03*
X178755451Y-94466642D03*
X109461098Y-136829853D03*
X102133143Y-57777599D03*
X174250720Y-105199347D03*
X120869273Y-127162245D03*
X125207920Y-119532400D03*
X71047041Y-85834527D03*
X106741919Y-62157813D03*
X105966208Y-97395945D03*
X104548400Y-70696501D03*
X133064620Y-62336200D03*
X169226120Y-62001400D03*
X102972650Y-139336438D03*
X170362476Y-107828997D03*
X104858786Y-85604722D03*
X120527720Y-84554217D03*
X132908156Y-120687848D03*
X133041120Y-76153153D03*
D32*
X147786620Y-101447600D03*
D31*
X178138144Y-101891440D03*
X111132522Y-54338884D03*
X148652120Y-104329800D03*
X66403823Y-142302145D03*
X134698767Y-140314200D03*
D32*
X147786620Y-98196400D03*
D31*
X119553944Y-63197815D03*
X127128249Y-138984200D03*
X134753720Y-134809588D03*
X140821635Y-71911126D03*
X122533715Y-119043986D03*
X122891556Y-55659089D03*
X85896250Y-55374239D03*
X128635873Y-84829005D03*
X65272169Y-63669201D03*
X139406520Y-131902200D03*
D32*
X122977718Y-78069732D03*
D31*
X123120470Y-133137255D03*
X151344520Y-44450000D03*
X128366374Y-80379427D03*
X103110719Y-132531793D03*
X84052033Y-133405400D03*
X169226120Y-56007000D03*
D32*
%TO.N,/ZBACK-*%
X132459620Y-80746600D03*
X120483520Y-46990000D03*
X119416720Y-70256400D03*
X120432720Y-81635600D03*
X122032306Y-124730252D03*
X160241917Y-87731600D03*
X87006320Y-130048000D03*
X109540388Y-70953166D03*
X160241917Y-83515200D03*
%TO.N,/CLK*%
X110470862Y-83123000D03*
X129144920Y-53049400D03*
X128230520Y-83123000D03*
X132884299Y-52961328D03*
X179738371Y-107750149D03*
%TO.N,/TRST-*%
X109561520Y-45278400D03*
X119467520Y-43980000D03*
%TO.N,/ZRFSH-*%
X118416120Y-44918400D03*
X131075320Y-44715200D03*
X132599320Y-100050600D03*
X174139520Y-102590600D03*
X131806120Y-76748714D03*
%TO.N,/SPICK*%
X164433320Y-128473200D03*
%TO.N,/SPIMI*%
X163511120Y-127889000D03*
%TO.N,/SPIMO*%
X166330520Y-129667000D03*
%TO.N,/SPICS2-*%
X162438122Y-74295000D03*
%TO.N,/SPICS-*%
X173569520Y-125933200D03*
%TO.N,/ZWAIT-*%
X96150320Y-90474800D03*
X121626520Y-90449400D03*
X183148320Y-95028797D03*
%TO.N,/ZRD-*%
X114263520Y-136772996D03*
X136688720Y-139649200D03*
X165898720Y-112095207D03*
X85722120Y-73660000D03*
X105522920Y-106553000D03*
X91502120Y-73713800D03*
X127138320Y-72584400D03*
%TO.N,/ZWR-*%
X131456320Y-114808000D03*
X110234620Y-114338100D03*
X93584920Y-68199000D03*
X115403520Y-134340600D03*
X131380120Y-136525000D03*
X148067920Y-114782600D03*
X128067269Y-67902051D03*
X98690320Y-100203000D03*
%TO.N,/ZM1-*%
X92848320Y-61747400D03*
X79843520Y-114630200D03*
X177100120Y-107340400D03*
%TO.N,/ZMREQ-*%
X134834520Y-109269399D03*
X128484520Y-74523600D03*
X155054321Y-109269399D03*
%TO.N,/ZIORQ-*%
X175007489Y-96425625D03*
X132294520Y-115378000D03*
X127773320Y-73583800D03*
X128967120Y-91490800D03*
X174918511Y-114556791D03*
X87840678Y-74230000D03*
%TO.N,/TD4*%
X126916120Y-56667400D03*
%TO.N,/TD5*%
X128241720Y-57505600D03*
%TO.N,/TD3*%
X129703720Y-54864000D03*
%TO.N,/TD6*%
X126715319Y-59597199D03*
%TO.N,/TD1*%
X124979320Y-48260000D03*
%TO.N,/TD7*%
X124609520Y-61671200D03*
%TO.N,/TD0*%
X125511366Y-47689622D03*
%TO.N,/TD2*%
X126416120Y-52298600D03*
%TO.N,/TWAIT-*%
X122540920Y-53340000D03*
X134176911Y-53545991D03*
X134732920Y-76098400D03*
X135215520Y-142468600D03*
%TO.N,/TWR-*%
X117384720Y-58078600D03*
X121347120Y-46736000D03*
%TO.N,/ZHALT-*%
X123175920Y-51181000D03*
X116267120Y-91541600D03*
X84390120Y-143259227D03*
%TO.N,/TIORQ-*%
X121728120Y-51155600D03*
X123506120Y-73228200D03*
%TO.N,/TINT-*%
X124217320Y-47701200D03*
X132167520Y-44715200D03*
X135621920Y-76098400D03*
%TO.N,/TRD-*%
X130359949Y-77578494D03*
X135569494Y-45540575D03*
X129703720Y-60107600D03*
X135672720Y-54114122D03*
%TO.N,/TNMI-*%
X124547520Y-55346600D03*
X139482720Y-68529200D03*
X124217320Y-67321200D03*
%TO.N,/TBREQ-*%
X120077120Y-53365400D03*
X136333120Y-76631800D03*
%TO.N,/TMREQ-*%
X124852320Y-72923400D03*
X122998120Y-48271200D03*
%TO.N,/JTDI_CO*%
X137704720Y-110591600D03*
X168006920Y-110032800D03*
%TO.N,/JTCK*%
X127417720Y-132765800D03*
X170198420Y-100526100D03*
X100823920Y-132740400D03*
%TO.N,/JTDO_CI*%
X138288920Y-118516400D03*
X109459920Y-128676400D03*
%TO.N,/JTMS*%
X141540120Y-108153200D03*
X125512720Y-127177800D03*
X141844920Y-127152400D03*
X162012520Y-108153200D03*
%TO.N,/JTD1O2I*%
X182873020Y-96084100D03*
X182586520Y-114198400D03*
%TO.N,/JTD2O3I*%
X115987720Y-138938000D03*
X133259720Y-134823200D03*
%TO.N,/RST-*%
X178954320Y-139700000D03*
X60310920Y-133934200D03*
%TO.N,/ZRST-*%
X179857184Y-105040535D03*
X111847520Y-75869800D03*
X131766274Y-75170309D03*
%TO.N,/MODINT-*%
X159382120Y-74625200D03*
X143597520Y-58648600D03*
X142225920Y-74676000D03*
%TO.N,/V3D7*%
X158303523Y-77536748D03*
X158812120Y-128416200D03*
%TO.N,/MRST-*%
X164857320Y-79832200D03*
X166482920Y-120269000D03*
%TO.N,/V3D1*%
X150596720Y-75754000D03*
X150557120Y-120243600D03*
%TO.N,/V3D5*%
X156272120Y-76073000D03*
X157491320Y-126734800D03*
%TO.N,/IOECLK*%
X142937120Y-129514600D03*
%TO.N,/V3D6*%
X158177120Y-127276200D03*
X157542120Y-76073000D03*
%TO.N,/MWTRQ-*%
X163422220Y-99771200D03*
%TO.N,/V3D3*%
X145477120Y-120269000D03*
X145477120Y-74055200D03*
X153732120Y-76073000D03*
X154163920Y-74055200D03*
%TO.N,/V3D4*%
X156348320Y-125958600D03*
X155002120Y-76073000D03*
%TO.N,/V3D0*%
X151344520Y-123266200D03*
X149222120Y-75793600D03*
%TO.N,/V3D2*%
X152462120Y-76073000D03*
X146747120Y-120269000D03*
X146137520Y-75195200D03*
%TO.N,/RFMR-*%
X156907120Y-108762800D03*
X106843720Y-110947200D03*
%TO.N,/TWAITB-*%
X133742320Y-80873600D03*
%TO.N,/TWAITRQ-*%
X162215720Y-90486000D03*
%TO.N,Net-(OP3-B)*%
X115606720Y-67321200D03*
%TO.N,/EXTBRKRQ-*%
X183718320Y-102514400D03*
X183729520Y-54356000D03*
%TO.N,Net-(OP1-C)*%
X103617920Y-80924400D03*
X124191920Y-84836000D03*
X124191920Y-80873600D03*
%TO.N,Net-(OP3-A)*%
X114387520Y-72237600D03*
X114362120Y-81443600D03*
X114387520Y-59410600D03*
%TO.N,/TGTONLY-*%
X158151720Y-90678000D03*
%TO.N,/SBC_GPI3*%
X98676120Y-67513200D03*
X101687520Y-122097800D03*
%TO.N,/SBCMODE-*%
X164475343Y-84902152D03*
X164758720Y-100126800D03*
%TO.N,/ZA10*%
X121628320Y-106451400D03*
X76643120Y-92125800D03*
X108951920Y-67778400D03*
X128941720Y-125857000D03*
%TO.N,/ZA14*%
X128371720Y-124333000D03*
X115062120Y-71551800D03*
X114336720Y-118948200D03*
X80453120Y-79222600D03*
X122650697Y-70705184D03*
X176699158Y-112687100D03*
%TO.N,/ZA9*%
X117183972Y-143094049D03*
X118308320Y-102900200D03*
X110425120Y-70967600D03*
X122896520Y-90982800D03*
X77913120Y-92151200D03*
X117410120Y-70916800D03*
%TO.N,/ZA12*%
X116608520Y-120156200D03*
X117449720Y-73177400D03*
X124282320Y-71023800D03*
%TO.N,/ZA15*%
X179411520Y-111379000D03*
X115936920Y-120650000D03*
X122820320Y-65423391D03*
X81723120Y-79197200D03*
X128027320Y-125095000D03*
%TO.N,/ZA13*%
X123362655Y-71023800D03*
X124369720Y-136499600D03*
X117562520Y-100482400D03*
X79259320Y-90500200D03*
X119173920Y-72121800D03*
%TO.N,/ZA8*%
X78765520Y-93141800D03*
X121996320Y-87969000D03*
X123607720Y-101371400D03*
X128382920Y-126415800D03*
X109541289Y-87969000D03*
%TO.N,/ZA11*%
X76643120Y-93624400D03*
X120915320Y-105881400D03*
X128128920Y-132105400D03*
X125258720Y-88392000D03*
X125487320Y-70993000D03*
%TO.N,/BRD_RST-*%
X172909120Y-104013000D03*
X131227720Y-76225400D03*
%TO.N,/ZA3*%
X126801422Y-129038698D03*
X169505520Y-112687100D03*
X95520000Y-106578400D03*
X95520000Y-92565079D03*
X93229320Y-137515600D03*
X122693320Y-141020800D03*
X126801422Y-114238000D03*
%TO.N,/ZA6*%
X127058771Y-130102149D03*
X176235218Y-96612111D03*
X98842720Y-82499200D03*
X123379120Y-104114600D03*
X72553720Y-80952800D03*
X97888863Y-103352600D03*
%TO.N,/ZA7*%
X136002920Y-101244400D03*
X179335320Y-100406200D03*
X136028320Y-143357600D03*
X71791720Y-80314800D03*
X100392120Y-82615000D03*
X121245520Y-82524600D03*
%TO.N,/ZA4*%
X66610120Y-82615000D03*
X97902920Y-105283000D03*
X130770520Y-143383000D03*
X96607520Y-82615000D03*
X130668920Y-102285800D03*
X97928320Y-100660200D03*
X170978720Y-104521000D03*
%TO.N,/ZA1*%
X122134520Y-141655800D03*
X118603920Y-67629000D03*
X92594320Y-141655800D03*
X118603920Y-91019400D03*
X128371721Y-112568299D03*
X119924720Y-102158800D03*
X96759920Y-89585800D03*
X96328120Y-109093000D03*
X167907518Y-112660200D03*
X96746080Y-92565079D03*
%TO.N,/ZA0*%
X98941493Y-88544400D03*
X102830520Y-88544400D03*
X122312320Y-70002400D03*
X97318863Y-110338067D03*
X95167408Y-138340314D03*
X104532320Y-69596000D03*
X128941720Y-134583400D03*
X162418920Y-85674200D03*
X169657920Y-84861400D03*
%TO.N,/ZA5*%
X67321320Y-81356200D03*
X128899546Y-140504174D03*
X129703720Y-83693000D03*
X97877520Y-82473800D03*
X175576120Y-98577400D03*
%TO.N,/ZA2*%
X126452520Y-91287600D03*
X122693320Y-142265400D03*
X91857720Y-143002000D03*
X168713619Y-112660200D03*
X121042320Y-70408800D03*
X128371720Y-113487200D03*
X96133042Y-92082810D03*
X96023320Y-107823000D03*
%TO.N,/ROM_SEL-*%
X105751520Y-81457800D03*
%TO.N,/RRA1*%
X166519520Y-89560400D03*
X65074920Y-87491905D03*
%TO.N,/ZD5*%
X136256920Y-66751200D03*
X169632520Y-103276400D03*
X169643720Y-93370400D03*
X145019920Y-68097400D03*
X96963120Y-129463800D03*
X107199320Y-115773200D03*
X113385720Y-115787400D03*
X118680120Y-138125200D03*
X99070029Y-137003052D03*
X154432120Y-84531200D03*
X112711120Y-66686200D03*
%TO.N,/ZD4*%
X170607218Y-103835150D03*
X170826320Y-95097600D03*
X134453520Y-85307400D03*
X83434830Y-143723110D03*
X105370520Y-114173000D03*
X106273720Y-98397800D03*
X153681320Y-84074000D03*
X102424120Y-142976600D03*
X135621920Y-69875400D03*
%TO.N,/ZD3*%
X136917320Y-83845400D03*
X121778920Y-133426200D03*
X106208720Y-115341400D03*
X103821120Y-63550800D03*
X152411320Y-83362800D03*
X135012320Y-66124051D03*
X171613720Y-105968800D03*
X106081720Y-99949000D03*
X153351120Y-105968800D03*
X100112720Y-131876800D03*
%TO.N,/RRA0*%
X167152041Y-89103978D03*
%TO.N,/ZD6*%
X104488812Y-65063390D03*
X137541322Y-83275400D03*
X112507920Y-142518000D03*
X136917320Y-65557400D03*
X171359720Y-86172400D03*
X105153956Y-142518000D03*
X107772320Y-120954800D03*
X105370520Y-111633000D03*
X156792820Y-84543900D03*
X169784920Y-106538800D03*
X115022520Y-142518000D03*
%TO.N,/RRA2*%
X65644920Y-86856800D03*
X166610730Y-88542386D03*
%TO.N,/ZD7*%
X103196126Y-143088000D03*
X138161920Y-82742000D03*
X182011120Y-112485161D03*
X104278320Y-119659400D03*
X182448320Y-88366600D03*
X103081729Y-64493391D03*
X158481920Y-84886800D03*
X98791920Y-110363000D03*
X111771320Y-143088000D03*
X137552320Y-64871600D03*
X115571769Y-143094049D03*
%TO.N,/ZD2*%
X151166720Y-83997800D03*
X122286920Y-130581400D03*
X134402720Y-69875400D03*
X99764384Y-130563312D03*
X151660520Y-70485000D03*
X95743920Y-114096800D03*
X152781120Y-99593400D03*
X173569520Y-99187000D03*
%TO.N,/ZD0*%
X148118720Y-84988400D03*
X99071320Y-131928000D03*
X139228720Y-108699399D03*
X133107320Y-70866000D03*
X167011345Y-110078625D03*
X120889920Y-132195800D03*
X147932120Y-73471000D03*
%TO.N,/ZD1*%
X152004920Y-106639000D03*
X149922120Y-84023200D03*
X99477720Y-132740400D03*
X116613972Y-136985200D03*
X149922120Y-71055000D03*
X95743920Y-112903000D03*
X133738425Y-70284197D03*
X177811320Y-107923997D03*
X137603120Y-116992400D03*
X137134720Y-106426000D03*
%TO.N,/MOD_SEL-*%
X162369987Y-84367600D03*
X165898720Y-98044000D03*
%TO.N,/ROM_SEL*%
X109891720Y-77927200D03*
X168032320Y-87426800D03*
%TO.N,/SYNC*%
X183018320Y-80873600D03*
X110577520Y-77535000D03*
%TO.N,/ZINT-*%
X110044120Y-95783400D03*
X176719120Y-98221800D03*
%TO.N,/ZNMI-*%
X178203393Y-99198073D03*
%TO.N,/ZBREQ-*%
X177423505Y-99184707D03*
%TO.N,Net-(U2-Q2)*%
X148042520Y-120269000D03*
X146772520Y-77535000D03*
X161885520Y-77241400D03*
%TO.N,Net-(U2-Q1)*%
X159447120Y-76950800D03*
X149312520Y-120269000D03*
X149312520Y-76950800D03*
%TO.N,/LRST-*%
X134545642Y-139079201D03*
X110679120Y-135153400D03*
X102678120Y-135128000D03*
X184288320Y-136702800D03*
X184288320Y-92735400D03*
X131950120Y-135153400D03*
%TO.N,/ATTN*%
X183348520Y-113284000D03*
%TO.N,/TDBUSIN-*%
X167740220Y-100674400D03*
X169073720Y-78155800D03*
X132459620Y-69850000D03*
%TO.N,/TDBUSEN-*%
X161021920Y-71170800D03*
X133107320Y-67614800D03*
X161021920Y-87731600D03*
%TO.N,/RAM_SEL-*%
X105345120Y-109118400D03*
X171715320Y-116357400D03*
X172324920Y-92710000D03*
%TO.N,/SBC_GPI0*%
X92340320Y-56337200D03*
X108345920Y-127076200D03*
%TO.N,/SBC_GPO0*%
X108113720Y-140220500D03*
X89241520Y-61112400D03*
X90130520Y-139192000D03*
%TO.N,/SBC_GPO3*%
X92772120Y-66903600D03*
X105649920Y-138836400D03*
X92086320Y-134340600D03*
%TO.N,/SBC_GPO2*%
X90350000Y-66929000D03*
X102526743Y-138318223D03*
X91287720Y-139192000D03*
%TO.N,/SBC_GPI2*%
X101636720Y-127711200D03*
X93713878Y-57008800D03*
%TO.N,/SBC_GPI1*%
X110983920Y-129057400D03*
X93089620Y-55854600D03*
%TO.N,/SBC_GPO1*%
X106366720Y-136671800D03*
X93799320Y-138328400D03*
X89952720Y-62357000D03*
%TO.N,/TGTMODE-*%
X90717720Y-138404600D03*
X100442920Y-84263000D03*
X181976920Y-134162800D03*
X81723120Y-84263000D03*
X104824120Y-134328200D03*
X81697720Y-88138000D03*
%TO.N,/TBREQB-*%
X160039881Y-81178400D03*
X160767920Y-91516200D03*
X136256920Y-80899000D03*
%TO.N,/TNMIB-*%
X160161669Y-80362251D03*
X139177920Y-80340200D03*
X161428320Y-91059000D03*
%TO.N,/PC_LATCH-*%
X164298520Y-101904800D03*
X94067520Y-77952600D03*
X163905343Y-87184000D03*
%TO.N,/TINTB-*%
X158899881Y-88986000D03*
X158710520Y-81502800D03*
X135023520Y-81330800D03*
%TO.N,/SBC_IO*%
X165289120Y-89154000D03*
X165314520Y-137555200D03*
X101763720Y-137555200D03*
%TO.N,/TGT_NOW*%
X140854320Y-129883552D03*
X140905120Y-112095207D03*
X164323920Y-108991400D03*
X99071320Y-133502400D03*
%TO.N,/BRK_DEQ*%
X100913502Y-143260000D03*
X163384120Y-140462000D03*
X163075414Y-107452604D03*
%TO.N,Net-(R29-Pad2)*%
X83018520Y-74218800D03*
X81570720Y-51333400D03*
X113701720Y-72694800D03*
%TO.N,Net-(R34-Pad2)*%
X116597320Y-58078600D03*
X91375120Y-58089800D03*
%TO.N,/TCBUSEN-*%
X126122320Y-76225400D03*
X161809320Y-78725800D03*
X161799987Y-87676682D03*
%TO.N,/TCBUSFEN-*%
X125512720Y-77535000D03*
%TO.N,/ZRST*%
X121016920Y-62484000D03*
X113281120Y-71653400D03*
X108977320Y-62484000D03*
%TO.N,/BRK1_AEQ*%
X162799920Y-108280200D03*
X162805341Y-118630532D03*
%TO.N,/BRKN_AEQ*%
X162037920Y-118491000D03*
X162037920Y-110003307D03*
%TO.N,/ZID_IO*%
X160488520Y-127685800D03*
X105421320Y-136855200D03*
X160497286Y-97580000D03*
X107326320Y-127711200D03*
X116622720Y-127635000D03*
%TO.N,/MEM_OP*%
X136598320Y-107569000D03*
X161457832Y-107578163D03*
X112126920Y-132195800D03*
X112126920Y-117652800D03*
X136598320Y-117652800D03*
%TO.N,/PCRD_DIN*%
X97852120Y-91313000D03*
%TO.N,Net-(U12-Ds)*%
X79833519Y-78748787D03*
X101193720Y-78574900D03*
%TD*%
D33*
%TO.N,+3.3V*%
X143572120Y-84963000D02*
X143572120Y-117602000D01*
D34*
%TO.N,+5V*%
X163076291Y-94281609D02*
X163076291Y-92002806D01*
X163076291Y-92002806D02*
X163308265Y-91770832D01*
D35*
%TO.N,/ZBACK-*%
X120432720Y-83312000D02*
X122566320Y-85445600D01*
X121884138Y-124730252D02*
X121763455Y-124609569D01*
X109612320Y-70881234D02*
X109540388Y-70953166D01*
X122566320Y-85445600D02*
X122566320Y-88925400D01*
X120432720Y-81635600D02*
X121037178Y-81031142D01*
X122566320Y-88925400D02*
X123598320Y-89957400D01*
X121635920Y-111090200D02*
X122617120Y-110109000D01*
X109612320Y-57861200D02*
X109612320Y-70881234D01*
X120483520Y-46990000D02*
X109612320Y-57861200D01*
X160241917Y-83515200D02*
X160241917Y-87731600D01*
X120432720Y-81635600D02*
X120432720Y-83312000D01*
X122032306Y-124730252D02*
X121884138Y-124730252D01*
X122617120Y-98796627D02*
X122617120Y-110109000D01*
X121037178Y-71876858D02*
X119416720Y-70256400D01*
X123598320Y-89957400D02*
X123598320Y-97815427D01*
X123598320Y-97815427D02*
X122617120Y-98796627D01*
X121037178Y-81031142D02*
X121037178Y-71876858D01*
X121763455Y-113182962D02*
X121635920Y-113055427D01*
X121635920Y-113055427D02*
X121635920Y-111090200D01*
X121763455Y-124609569D02*
X121763455Y-113182962D01*
%TO.N,/CLK*%
X128241720Y-83123000D02*
X129133720Y-82231000D01*
X129133720Y-53060600D02*
X129144920Y-53049400D01*
X128230520Y-83123000D02*
X128241720Y-83123000D01*
X129133720Y-82231000D02*
X129133720Y-53060600D01*
%TO.N,/ZRFSH-*%
X131075320Y-75285457D02*
X131530172Y-75740309D01*
X131075320Y-44715200D02*
X131075320Y-75285457D01*
X131802822Y-75994400D02*
X131802822Y-76192493D01*
X131802822Y-76192493D02*
X131806120Y-76195791D01*
X131797720Y-76757114D02*
X131806120Y-76748714D01*
X132599320Y-100050600D02*
X131797720Y-99249000D01*
X131548731Y-75740309D02*
X131802822Y-75994400D01*
X131530172Y-75740309D02*
X131548731Y-75740309D01*
X131797720Y-99249000D02*
X131797720Y-76757114D01*
X131806120Y-76195791D02*
X131806120Y-76748714D01*
%TO.N,/SPICK*%
X180503720Y-126541169D02*
X180503720Y-76225400D01*
X164433320Y-128473200D02*
X178571689Y-128473200D01*
X180503720Y-76225400D02*
X179430320Y-75152000D01*
X178571689Y-128473200D02*
X180503720Y-126541169D01*
%TO.N,/SPIMI*%
X163511120Y-127889000D02*
X163511120Y-128600200D01*
X163511120Y-128600200D02*
X164007920Y-129097000D01*
X164007920Y-129097000D02*
X178457005Y-129097000D01*
X178457005Y-129097000D02*
X181081120Y-126472885D01*
X181081120Y-75101000D02*
X179132120Y-73152000D01*
X181081120Y-126472885D02*
X181081120Y-75101000D01*
%TO.N,/SPIMO*%
X181441120Y-73251200D02*
X181441120Y-126622001D01*
X148502120Y-59794000D02*
X147382120Y-58674000D01*
X181441120Y-126622001D02*
X178396120Y-129667000D01*
X178396120Y-129667000D02*
X166330520Y-129667000D01*
X179132120Y-71152000D02*
X175550720Y-67570600D01*
X174257720Y-59794000D02*
X148502120Y-59794000D01*
X179341920Y-71152000D02*
X181441120Y-73251200D01*
X175550720Y-61087000D02*
X174257720Y-59794000D01*
X175550720Y-67570600D02*
X175550720Y-61087000D01*
%TO.N,/SPICS-*%
X172894920Y-99318502D02*
X172894920Y-78065400D01*
X172894920Y-78065400D02*
X168743520Y-73914000D01*
X173569520Y-99993102D02*
X172894920Y-99318502D01*
X173569520Y-125933200D02*
X173569520Y-99993102D01*
%TO.N,/ZWAIT-*%
X96037520Y-90362000D02*
X96037520Y-76998601D01*
X96150320Y-90474800D02*
X96037520Y-90362000D01*
X96037520Y-76998601D02*
X96582121Y-76454000D01*
%TO.N,/ZRD-*%
X85722120Y-73660000D02*
X85302120Y-74080000D01*
X83027120Y-88123818D02*
X83027120Y-109254000D01*
X85302120Y-85848818D02*
X83027120Y-88123818D01*
X85302120Y-74080000D02*
X85302120Y-85848818D01*
X83027120Y-109254000D02*
X84517120Y-110744000D01*
X91502120Y-73713800D02*
X91502120Y-76454000D01*
%TO.N,/ZWR-*%
X93326120Y-75738000D02*
X94042120Y-76454000D01*
X131380120Y-114884200D02*
X131456320Y-114808000D01*
X93584920Y-68199000D02*
X93326120Y-68457800D01*
X131380120Y-136525000D02*
X131380120Y-114884200D01*
X93326120Y-68457800D02*
X93326120Y-75738000D01*
%TO.N,/ZM1-*%
X83882119Y-86759703D02*
X79843520Y-90798302D01*
X79843520Y-90798302D02*
X79843520Y-114630200D01*
X83882119Y-76454000D02*
X83882119Y-86759703D01*
%TO.N,/ZIORQ-*%
X127773320Y-73583800D02*
X127660520Y-73696600D01*
X174918511Y-114124991D02*
X174918511Y-114556791D01*
X87859868Y-74230000D02*
X88962120Y-75332252D01*
X175007489Y-96425625D02*
X174915720Y-96517394D01*
X127660520Y-90184200D02*
X128967120Y-91490800D01*
X174915720Y-114122200D02*
X174918511Y-114124991D01*
X88962120Y-75332252D02*
X88962120Y-76454000D01*
X87840678Y-74230000D02*
X87859868Y-74230000D01*
X174915720Y-96517394D02*
X174915720Y-114122200D01*
X127660520Y-73696600D02*
X127660520Y-90184200D01*
%TO.N,/TWAIT-*%
X135621920Y-93989119D02*
X135418720Y-94192319D01*
X134732920Y-76098400D02*
X135621920Y-76987400D01*
X135621920Y-76987400D02*
X135621920Y-93989119D01*
X135418720Y-142265400D02*
X135215520Y-142468600D01*
X135418720Y-94192319D02*
X135418720Y-142265400D01*
%TO.N,/TWR-*%
X117384720Y-58078600D02*
X117384720Y-50894902D01*
X117384720Y-50894902D02*
X121053520Y-47226102D01*
X121053520Y-47226102D02*
X121053520Y-47029600D01*
X121053520Y-47029600D02*
X121347120Y-46736000D01*
%TO.N,/ZHALT-*%
X114997120Y-119093902D02*
X114997120Y-112649000D01*
X114833520Y-119257502D02*
X114997120Y-119093902D01*
X84866920Y-144190000D02*
X112544418Y-144190000D01*
X114833520Y-141900898D02*
X114833520Y-119257502D01*
X84390120Y-143259227D02*
X84390120Y-143713200D01*
X112544418Y-144190000D02*
X114833520Y-141900898D01*
X116267120Y-61055427D02*
X116267120Y-91541600D01*
X123175920Y-51181000D02*
X123175920Y-54146627D01*
X123175920Y-54146627D02*
X116267120Y-61055427D01*
X84390120Y-143713200D02*
X84866920Y-144190000D01*
%TO.N,/TINT-*%
X136191920Y-68109753D02*
X136191920Y-75528400D01*
X132192920Y-44740600D02*
X132192920Y-64110753D01*
X132192920Y-64110753D02*
X136191920Y-68109753D01*
X136191920Y-75528400D02*
X135621920Y-76098400D01*
X132167520Y-44715200D02*
X132192920Y-44740600D01*
%TO.N,/TRD-*%
X129703720Y-76922265D02*
X130359949Y-77578494D01*
X129703720Y-60107600D02*
X129703720Y-76922265D01*
X135672720Y-45643800D02*
X135672720Y-54114122D01*
%TO.N,/TNMI-*%
X124217320Y-67321200D02*
X124039520Y-67143400D01*
X124039520Y-67143400D02*
X124039520Y-55854600D01*
X124039520Y-55854600D02*
X124547520Y-55346600D01*
%TO.N,/JTDO_CI*%
X138288920Y-101867200D02*
X140016120Y-100140000D01*
X138288920Y-118516400D02*
X138288920Y-101867200D01*
%TO.N,/JTMS*%
X141540120Y-97664000D02*
X140016120Y-96140000D01*
X141844920Y-127152400D02*
X141844920Y-108458000D01*
X141540120Y-108153200D02*
X141540120Y-97664000D01*
X141844920Y-108458000D02*
X141540120Y-108153200D01*
%TO.N,/JTD1O2I*%
X182581120Y-96376000D02*
X182873020Y-96084100D01*
X182581120Y-114193000D02*
X182581120Y-96376000D01*
X182586520Y-114198400D02*
X182581120Y-114193000D01*
%TO.N,/RST-*%
X60310920Y-133934200D02*
X60310920Y-75183080D01*
X62159000Y-72108569D02*
X64925569Y-69342000D01*
X60310920Y-75183080D02*
X62159000Y-73335000D01*
X62159000Y-73335000D02*
X62159000Y-72108569D01*
%TO.N,/ZRST-*%
X132376120Y-77957501D02*
X133107320Y-78688701D01*
X133169320Y-99535098D02*
X133169320Y-103903799D01*
X132376120Y-75780155D02*
X132376120Y-77957501D01*
X133107320Y-99473098D02*
X133169320Y-99535098D01*
X133107320Y-78688701D02*
X133107320Y-99473098D01*
X131766274Y-75170309D02*
X132376120Y-75780155D01*
%TO.N,/MODINT-*%
X143597520Y-68808600D02*
X142225920Y-70180200D01*
X142225920Y-70180200D02*
X142225920Y-74676000D01*
X143597520Y-58648600D02*
X143597520Y-68808600D01*
%TO.N,/V3D7*%
X158829947Y-80552089D02*
X157484621Y-81897415D01*
X158812120Y-92144502D02*
X158812120Y-128416200D01*
X158303523Y-77536748D02*
X158303523Y-77616155D01*
X157170851Y-90503233D02*
X158812120Y-92144502D01*
X157484621Y-84730992D02*
X157170851Y-85044762D01*
X158303523Y-77616155D02*
X158829947Y-78142579D01*
X158829947Y-78142579D02*
X158829947Y-80552089D01*
X157484621Y-81897415D02*
X157484621Y-84730992D01*
X157170851Y-85044762D02*
X157170851Y-90503233D01*
%TO.N,/MRST-*%
X164857320Y-74142600D02*
X161202120Y-70487400D01*
X166482920Y-110356302D02*
X166441345Y-110314727D01*
X166789009Y-97959813D02*
X167722041Y-97026781D01*
X160691720Y-64668400D02*
X149007720Y-64668400D01*
X166309520Y-81284400D02*
X164857320Y-79832200D01*
X166482920Y-120269000D02*
X166482920Y-110356302D01*
X167722041Y-87922623D02*
X166309520Y-86510102D01*
X166309520Y-86510102D02*
X166309520Y-81284400D01*
X166789009Y-109494859D02*
X166789009Y-97959813D01*
X166441345Y-110314727D02*
X166441345Y-109842523D01*
X149007720Y-64668400D02*
X147382120Y-66294000D01*
X161202120Y-70487400D02*
X161202120Y-65178800D01*
X161202120Y-65178800D02*
X160691720Y-64668400D01*
X164857320Y-79832200D02*
X164857320Y-74142600D01*
X166441345Y-109842523D02*
X166789009Y-109494859D01*
X167722041Y-97026781D02*
X167722041Y-87922623D01*
%TO.N,/V3D1*%
X151268320Y-119532400D02*
X150557120Y-120243600D01*
X150596720Y-84233902D02*
X151268320Y-84905502D01*
X150596720Y-75754000D02*
X150596720Y-84233902D01*
X151268320Y-84905502D02*
X151268320Y-119532400D01*
%TO.N,/V3D5*%
X157477120Y-126441200D02*
X157477120Y-94016600D01*
X156272120Y-82091684D02*
X156272120Y-76073000D01*
X155502120Y-82861684D02*
X156272120Y-82091684D01*
X157491320Y-126455400D02*
X157477120Y-126441200D01*
X157491320Y-126734800D02*
X157491320Y-126455400D01*
X155502120Y-92041600D02*
X155502120Y-82861684D01*
X157477120Y-94016600D02*
X155502120Y-92041600D01*
%TO.N,/IOECLK*%
X144257920Y-64490600D02*
X144257920Y-70095453D01*
X144816720Y-70654253D02*
X144816720Y-127635000D01*
X144816720Y-127635000D02*
X142937120Y-129514600D01*
X147382120Y-63754000D02*
X144994520Y-63754000D01*
X144994520Y-63754000D02*
X144257920Y-64490600D01*
X144257920Y-70095453D02*
X144816720Y-70654253D01*
%TO.N,/V3D6*%
X158235920Y-127017400D02*
X158235920Y-92098660D01*
X158235920Y-92098660D02*
X156159320Y-90022060D01*
X156159320Y-82713600D02*
X157542120Y-81330800D01*
X158177120Y-127276200D02*
X158177120Y-127076200D01*
X157542120Y-81330800D02*
X157542120Y-76073000D01*
X156159320Y-90022060D02*
X156159320Y-82713600D01*
X158177120Y-127076200D02*
X158235920Y-127017400D01*
%TO.N,/MWTRQ-*%
X159189947Y-77499729D02*
X158112120Y-76421902D01*
X163422220Y-99631500D02*
X159469881Y-95679161D01*
X158112120Y-74255400D02*
X150150720Y-66294000D01*
X159189947Y-78437305D02*
X159189947Y-77499729D01*
X158112120Y-76421902D02*
X158112120Y-74255400D01*
X159469881Y-78717239D02*
X159189947Y-78437305D01*
X159469881Y-95679161D02*
X159469881Y-78717239D01*
X163422220Y-99771200D02*
X163422220Y-99631500D01*
%TO.N,/V3D3*%
X145477120Y-74055200D02*
X145477120Y-120269000D01*
%TO.N,/V3D4*%
X156337120Y-125947400D02*
X156337120Y-95387945D01*
X155002120Y-94052945D02*
X155002120Y-76073000D01*
X156348320Y-125958600D02*
X156337120Y-125947400D01*
X156337120Y-95387945D02*
X155002120Y-94052945D01*
%TO.N,/V3D0*%
X150740900Y-123266200D02*
X151344520Y-123266200D01*
X149222120Y-75793600D02*
X149222120Y-75832506D01*
X150624724Y-123269608D02*
X150737492Y-123269608D01*
X149384218Y-75994604D02*
X149384218Y-76073000D01*
X148742520Y-84158818D02*
X150548320Y-85964618D01*
X148742520Y-121387404D02*
X150624724Y-123269608D01*
X148742520Y-76714698D02*
X148742520Y-84158818D01*
X149384218Y-76073000D02*
X148742520Y-76714698D01*
X148742520Y-120032898D02*
X148742520Y-121387404D01*
X150737492Y-123269608D02*
X150740900Y-123266200D01*
X150548320Y-85964618D02*
X150548320Y-118227098D01*
X149222120Y-75832506D02*
X149384218Y-75994604D01*
X150548320Y-118227098D02*
X148742520Y-120032898D01*
%TO.N,/V3D2*%
X146137520Y-75195200D02*
X145837120Y-75495600D01*
X145837120Y-119359000D02*
X146747120Y-120269000D01*
X145837120Y-75495600D02*
X145837120Y-119359000D01*
%TO.N,/RFMR-*%
X106843720Y-79825600D02*
X104202120Y-77184000D01*
X106843720Y-110947200D02*
X106843720Y-79825600D01*
%TO.N,/EXTBRKRQ-*%
X183718320Y-54367200D02*
X183718320Y-102514400D01*
X183729520Y-54356000D02*
X183718320Y-54367200D01*
%TO.N,Net-(OP1-C)*%
X103257120Y-76129000D02*
X104202120Y-75184000D01*
X124191920Y-80873600D02*
X124191920Y-84836000D01*
X103257120Y-80563600D02*
X103257120Y-76129000D01*
X103617920Y-80924400D02*
X103257120Y-80563600D01*
%TO.N,Net-(OP3-A)*%
X114385275Y-72235355D02*
X114387520Y-72237600D01*
X114712767Y-59735847D02*
X114712767Y-71095051D01*
X114362120Y-81443600D02*
X114387520Y-81418200D01*
X114385275Y-71422543D02*
X114385275Y-72235355D01*
X114712767Y-71095051D02*
X114385275Y-71422543D01*
X114387520Y-59410600D02*
X114712767Y-59735847D01*
X114387520Y-81418200D02*
X114387520Y-72237600D01*
%TO.N,/SBC_GPI3*%
X98676120Y-67513200D02*
X101763720Y-70600800D01*
X101763720Y-122021600D02*
X101687520Y-122097800D01*
X101763720Y-70600800D02*
X101763720Y-122021600D01*
%TO.N,/SBCMODE-*%
X164758720Y-100126800D02*
X164806520Y-100079000D01*
X164806520Y-89477502D02*
X164475343Y-89146325D01*
X164806520Y-100079000D02*
X164806520Y-89477502D01*
X164475343Y-89146325D02*
X164475343Y-84902152D01*
%TO.N,/ZA10*%
X121628320Y-96420200D02*
X120077120Y-94869000D01*
X121628320Y-106451400D02*
X121628320Y-96420200D01*
%TO.N,/ZA14*%
X114336720Y-117805200D02*
X113955720Y-117424200D01*
X114336720Y-118948200D02*
X114336720Y-117805200D01*
X114997120Y-71616800D02*
X114997120Y-94869000D01*
X115062120Y-71551800D02*
X114997120Y-71616800D01*
X113955720Y-117424200D02*
X113955720Y-95910400D01*
X113955720Y-95910400D02*
X114997120Y-94869000D01*
%TO.N,/ZA9*%
X118308320Y-102900200D02*
X118518320Y-103110200D01*
X118518320Y-126545502D02*
X117183972Y-127879850D01*
X117183972Y-127879850D02*
X117183972Y-143094049D01*
X118518320Y-103110200D02*
X118518320Y-126545502D01*
%TO.N,/ZA12*%
X116555920Y-120103600D02*
X116555920Y-95850200D01*
X116555920Y-95850200D02*
X117537120Y-94869000D01*
X116608520Y-120156200D02*
X116555920Y-120103600D01*
%TO.N,/ZA15*%
X115936920Y-120650000D02*
X116038520Y-120548400D01*
X115978320Y-94462573D02*
X115978320Y-96427801D01*
X118019720Y-92421173D02*
X115978320Y-94462573D01*
X116038520Y-120548400D02*
X116038520Y-98450399D01*
X118458529Y-65423391D02*
X118019720Y-65862200D01*
X115978320Y-96427801D02*
X114997121Y-97409000D01*
X122820320Y-65423391D02*
X118458529Y-65423391D01*
X116038520Y-98450399D02*
X114997121Y-97409000D01*
X118019720Y-65862200D02*
X118019720Y-92421173D01*
%TO.N,/ZA13*%
X118502320Y-95056173D02*
X118502320Y-96443800D01*
X118502320Y-96443800D02*
X117537120Y-97409000D01*
X118878320Y-98750200D02*
X117537120Y-97409000D01*
X118878320Y-123746032D02*
X118878320Y-98750200D01*
X124369720Y-129237432D02*
X118878320Y-123746032D01*
X119173920Y-94384573D02*
X118502320Y-95056173D01*
X119173920Y-72121800D02*
X119173920Y-94384573D01*
X124369720Y-136499600D02*
X124369720Y-129237432D01*
%TO.N,/ZA8*%
X122206320Y-88179000D02*
X121996320Y-87969000D01*
X122206320Y-94458200D02*
X122206320Y-88179000D01*
%TO.N,/ZA11*%
X125258720Y-78087102D02*
X125258720Y-88392000D01*
X121650010Y-71822592D02*
X121650010Y-74478392D01*
X120915320Y-105881400D02*
X121058320Y-105738400D01*
X121058320Y-105738400D02*
X121058320Y-98390200D01*
X121058320Y-98390200D02*
X120077120Y-97409000D01*
X120472320Y-70644902D02*
X121650010Y-71822592D01*
X120915320Y-105881400D02*
X121058320Y-106024400D01*
X125487320Y-70993000D02*
X123926720Y-69432400D01*
X120472320Y-70172698D02*
X120472320Y-70644902D01*
X121058320Y-106024400D02*
X121058320Y-125416916D01*
X121058320Y-125416916D02*
X127746804Y-132105400D01*
X121212618Y-69432400D02*
X120472320Y-70172698D01*
X123926720Y-69432400D02*
X121212618Y-69432400D01*
X127746804Y-132105400D02*
X128128920Y-132105400D01*
X121650010Y-74478392D02*
X125258720Y-78087102D01*
%TO.N,/BRD_RST-*%
X131238920Y-105973399D02*
X133589920Y-108324399D01*
X131227720Y-76225400D02*
X131227720Y-102038498D01*
X131227720Y-102038498D02*
X131238920Y-102049698D01*
X131238920Y-102049698D02*
X131238920Y-105973399D01*
%TO.N,/ZA3*%
X126695920Y-100950200D02*
X127697120Y-99949000D01*
X126801422Y-114238000D02*
X126801422Y-129038698D01*
X126801422Y-114238000D02*
X126695920Y-114132498D01*
X126695920Y-114132498D02*
X126695920Y-100950200D01*
X95520000Y-92565079D02*
X95520000Y-106578400D01*
%TO.N,/ZA6*%
X126138319Y-95850199D02*
X126138319Y-103809800D01*
X72553720Y-101625400D02*
X71055120Y-103124000D01*
X72553720Y-80952800D02*
X72553720Y-101625400D01*
X126138319Y-129181697D02*
X127058771Y-130102149D01*
X123683920Y-103809800D02*
X123379120Y-104114600D01*
X126138319Y-103809800D02*
X126138319Y-129181697D01*
X126138319Y-103809800D02*
X123683920Y-103809800D01*
X125157120Y-94869000D02*
X126138319Y-95850199D01*
X71055120Y-103124000D02*
X69277120Y-103124000D01*
%TO.N,/ZA7*%
X71791720Y-80314800D02*
X71791720Y-99974400D01*
X71182120Y-100584000D02*
X69277120Y-100584000D01*
X124115720Y-85623400D02*
X124115720Y-95885000D01*
X136028320Y-101269800D02*
X136002920Y-101244400D01*
X121245520Y-82753200D02*
X124115720Y-85623400D01*
X121245520Y-82524600D02*
X121245520Y-82753200D01*
X136028320Y-143357600D02*
X136028320Y-101269800D01*
X71791720Y-99974400D02*
X71182120Y-100584000D01*
X124115720Y-95885000D02*
X125157119Y-96926399D01*
%TO.N,/ZA4*%
X66610120Y-105537001D02*
X69277120Y-108204001D01*
X130795920Y-143357600D02*
X130795920Y-102412800D01*
X66610120Y-82615000D02*
X66610120Y-105537001D01*
X130795920Y-102412800D02*
X130668920Y-102285800D01*
X98458863Y-101190743D02*
X98458863Y-104727057D01*
X130770520Y-143383000D02*
X130795920Y-143357600D01*
X97928320Y-100660200D02*
X98458863Y-101190743D01*
X98458863Y-104727057D02*
X97902920Y-105283000D01*
%TO.N,/ZA1*%
X96746080Y-92565079D02*
X96785320Y-92604319D01*
X129151720Y-111132400D02*
X129151720Y-103943600D01*
X126782720Y-141655800D02*
X122134520Y-141655800D01*
X129151720Y-103943600D02*
X127697120Y-102489000D01*
X96785320Y-92604319D02*
X96785320Y-108635800D01*
X128371721Y-112568299D02*
X129027619Y-112568299D01*
X128371721Y-111912399D02*
X129151720Y-111132400D01*
X130075920Y-138464200D02*
X126833520Y-141706600D01*
X118603920Y-67629000D02*
X118603920Y-91019400D01*
X126833520Y-141706600D02*
X126782720Y-141655800D01*
X129027619Y-112568299D02*
X130075920Y-113616600D01*
X130075920Y-113616600D02*
X130075920Y-138464200D01*
X128371721Y-112568299D02*
X128371721Y-111912399D01*
X96785320Y-108635800D02*
X96328120Y-109093000D01*
%TO.N,/ZA0*%
X124090320Y-106095800D02*
X125157120Y-105029000D01*
X128941720Y-134583400D02*
X128941720Y-132003800D01*
X102830520Y-88544400D02*
X102830520Y-71297800D01*
X124090320Y-127939800D02*
X124090320Y-106095800D01*
X128941720Y-132003800D02*
X127610069Y-130672149D01*
X97318863Y-92652359D02*
X98941493Y-91029729D01*
X97318863Y-110338067D02*
X97318863Y-92652359D01*
X126822669Y-130672149D02*
X124090320Y-127939800D01*
X98941493Y-91029729D02*
X98941493Y-88544400D01*
X127610069Y-130672149D02*
X126822669Y-130672149D01*
X102830520Y-71297800D02*
X104532320Y-69596000D01*
%TO.N,/ZA5*%
X130098920Y-102521902D02*
X130098920Y-99810800D01*
X130098920Y-99810800D02*
X127697120Y-97409000D01*
X129729120Y-83718400D02*
X129729120Y-95377000D01*
X67321320Y-103708200D02*
X69277120Y-105664000D01*
X129703720Y-83693000D02*
X129729120Y-83718400D01*
X128899546Y-140504174D02*
X130435920Y-138967800D01*
X130435920Y-102858902D02*
X130098920Y-102521902D01*
X67321320Y-81356200D02*
X67321320Y-103708200D01*
X130435920Y-138967800D02*
X130435920Y-102858902D01*
X129729120Y-95377000D02*
X127697120Y-97409000D01*
%TO.N,/ZA2*%
X129715920Y-114718600D02*
X129715920Y-138315084D01*
X126902218Y-75779400D02*
X121531618Y-70408800D01*
X128371720Y-113487200D02*
X128484520Y-113487200D01*
X96131309Y-92082810D02*
X96133042Y-92082810D01*
X126902218Y-90837902D02*
X126902218Y-75779400D01*
X96124920Y-92089199D02*
X96131309Y-92082810D01*
X96023320Y-107823000D02*
X96023320Y-107746800D01*
X128484520Y-113487200D02*
X129715920Y-114718600D01*
X121938018Y-142265400D02*
X122693320Y-142265400D01*
X121564520Y-141891902D02*
X121938018Y-142265400D01*
X96124920Y-107645200D02*
X96124920Y-92089199D01*
X124592934Y-138315084D02*
X121564520Y-141343498D01*
X129715920Y-138315084D02*
X124592934Y-138315084D01*
X121564520Y-141343498D02*
X121564520Y-141891902D01*
X96023320Y-107746800D02*
X96124920Y-107645200D01*
X121531618Y-70408800D02*
X121042320Y-70408800D01*
X126452520Y-91287600D02*
X126902218Y-90837902D01*
%TO.N,/ZD5*%
X109900862Y-87019640D02*
X109900862Y-82845658D01*
X111318520Y-88437298D02*
X109900862Y-87019640D01*
X97091428Y-137003052D02*
X96963120Y-136874744D01*
X112457120Y-99949000D02*
X111318520Y-98810400D01*
X169628420Y-103272300D02*
X169628420Y-93385700D01*
X112457120Y-99949000D02*
X113438320Y-100930200D01*
X113438320Y-100930200D02*
X113438320Y-115734800D01*
X154733920Y-71690000D02*
X151141320Y-68097400D01*
X109900862Y-82845658D02*
X112711120Y-80035400D01*
X154432120Y-75322200D02*
X154733920Y-75020400D01*
X151141320Y-68097400D02*
X145019920Y-68097400D01*
X169632520Y-103276400D02*
X169628420Y-103272300D01*
X169628420Y-93385700D02*
X169643720Y-93370400D01*
X99070029Y-137003052D02*
X97091428Y-137003052D01*
X111318520Y-98810400D02*
X111318520Y-88437298D01*
X154432120Y-84531200D02*
X154432120Y-75322200D01*
X154733920Y-75020400D02*
X154733920Y-71690000D01*
X96963120Y-136874744D02*
X96963120Y-129463800D01*
X112711120Y-80035400D02*
X112711120Y-66686200D01*
X113438320Y-115734800D02*
X113385720Y-115787400D01*
%TO.N,/ZD4*%
X104775120Y-99653600D02*
X104775120Y-113577600D01*
X83434830Y-143723110D02*
X82358120Y-142646400D01*
X82358120Y-127152400D02*
X83526520Y-125984000D01*
X134453520Y-76625102D02*
X134162920Y-76334502D01*
X134162920Y-76334502D02*
X134162920Y-71334400D01*
X170826320Y-103616048D02*
X170607218Y-103835150D01*
X106273720Y-98397800D02*
X106030920Y-98397800D01*
X134453520Y-85307400D02*
X134453520Y-76625102D01*
X134162920Y-71334400D02*
X135621920Y-69875400D01*
X104775120Y-113577600D02*
X105370520Y-114173000D01*
X170826320Y-95097600D02*
X170826320Y-103616048D01*
X82358120Y-142646400D02*
X82358120Y-127152400D01*
X106030920Y-98397800D02*
X104775120Y-99653600D01*
%TO.N,/ZD3*%
X106208720Y-115341400D02*
X106208720Y-100076000D01*
X106438472Y-66193552D02*
X108935920Y-68691000D01*
X136917320Y-83845400D02*
X136917320Y-66421000D01*
X106208720Y-100076000D02*
X106081720Y-99949000D01*
X136917320Y-66421000D02*
X136612520Y-66116200D01*
X136612520Y-66116200D02*
X136604669Y-66124051D01*
X108935920Y-98967800D02*
X109917120Y-99949000D01*
X106438472Y-66168152D02*
X106438472Y-66193552D01*
X136604669Y-66124051D02*
X135012320Y-66124051D01*
X108935920Y-68691000D02*
X108935920Y-98967800D01*
X103821120Y-63550800D02*
X106438472Y-66168152D01*
%TO.N,/ZD6*%
X108378920Y-100950799D02*
X109917121Y-102489000D01*
X171548720Y-86361400D02*
X171548720Y-104775000D01*
X108378920Y-68953498D02*
X108378920Y-100950799D01*
X137541322Y-83275400D02*
X137526920Y-83260998D01*
X137526920Y-83260998D02*
X137526920Y-66167000D01*
X107772320Y-121265602D02*
X107772320Y-120954800D01*
X104254120Y-129640400D02*
X106796121Y-127098399D01*
X137526920Y-66167000D02*
X136917320Y-65557400D01*
X106796121Y-122241801D02*
X107772320Y-121265602D01*
X106796121Y-127098399D02*
X106796121Y-122241801D01*
X171359720Y-86172400D02*
X171548720Y-86361400D01*
X104488812Y-65063390D02*
X108378920Y-68953498D01*
X105153956Y-141280207D02*
X104254120Y-140380371D01*
X171548720Y-104775000D02*
X169784920Y-106538800D01*
X105153956Y-142518000D02*
X105153956Y-141280207D01*
X104254120Y-140380371D02*
X104254120Y-129640400D01*
%TO.N,/ZD7*%
X103196126Y-141129714D02*
X103894120Y-140431720D01*
X103112711Y-64493391D02*
X107944720Y-69325400D01*
X107944720Y-69325400D02*
X107944720Y-105596600D01*
X138161920Y-82742000D02*
X138161920Y-65481200D01*
X103894120Y-127079400D02*
X104278320Y-126695200D01*
X103894120Y-140431720D02*
X103894120Y-127079400D01*
X182002320Y-88812600D02*
X182448320Y-88366600D01*
X182002320Y-112476361D02*
X182002320Y-88812600D01*
X103196126Y-143088000D02*
X103196126Y-141129714D01*
X107944720Y-105596600D02*
X109917120Y-107569000D01*
X103081729Y-64493391D02*
X103112711Y-64493391D01*
X104278320Y-126695200D02*
X104278320Y-119659400D01*
X182011120Y-112485161D02*
X182002320Y-112476361D01*
X138161920Y-65481200D02*
X137552320Y-64871600D01*
%TO.N,/ZD2*%
X151166720Y-83997800D02*
X151166720Y-70978800D01*
X151166720Y-70978800D02*
X151660520Y-70485000D01*
%TO.N,/ZD0*%
X147932120Y-84801800D02*
X148118720Y-84988400D01*
X147932120Y-73471000D02*
X147932120Y-84801800D01*
%TO.N,/ZD1*%
X137134720Y-110355498D02*
X137134720Y-116524000D01*
X149922120Y-84023200D02*
X149922120Y-71055000D01*
X137134720Y-106426000D02*
X137168320Y-106459600D01*
X137168320Y-106459600D02*
X137168320Y-110321898D01*
X137168320Y-110321898D02*
X137134720Y-110355498D01*
X137134720Y-116524000D02*
X137603120Y-116992400D01*
%TO.N,/MOD_SEL-*%
X163592187Y-82916800D02*
X165605120Y-82916800D01*
X162369987Y-84367600D02*
X162369987Y-84139000D01*
X165949520Y-97993200D02*
X165898720Y-98044000D01*
X165949520Y-83261200D02*
X165949520Y-97993200D01*
X165605120Y-82916800D02*
X165949520Y-83261200D01*
X162369987Y-84139000D02*
X163592187Y-82916800D01*
%TO.N,/ZINT-*%
X110044120Y-95783400D02*
X110958520Y-96697800D01*
X110958520Y-111150400D02*
X112457120Y-112649000D01*
X110958520Y-96697800D02*
X110958520Y-111150400D01*
%TO.N,Net-(U2-Q2)*%
X146197120Y-78110400D02*
X146197120Y-114029400D01*
X146197120Y-114029400D02*
X148042520Y-115874800D01*
X148042520Y-115874800D02*
X148042520Y-120269000D01*
X146772520Y-77535000D02*
X146197120Y-78110400D01*
%TO.N,Net-(U2-Q1)*%
X150908320Y-118673200D02*
X149312520Y-120269000D01*
X150908320Y-85815502D02*
X150908320Y-118673200D01*
X149312520Y-76950800D02*
X149352120Y-76990400D01*
X149352120Y-84259302D02*
X150908320Y-85815502D01*
X149352120Y-76990400D02*
X149352120Y-84259302D01*
%TO.N,/TDBUSIN-*%
X169073720Y-78155800D02*
X169073720Y-99340900D01*
X169073720Y-99340900D02*
X167740220Y-100674400D01*
%TO.N,/TDBUSEN-*%
X162045422Y-78155800D02*
X161573218Y-78155800D01*
X163050681Y-73199561D02*
X163050681Y-77150541D01*
X161021920Y-71170800D02*
X163050681Y-73199561D01*
X161573218Y-78155800D02*
X161229987Y-78499031D01*
X163050681Y-77150541D02*
X162045422Y-78155800D01*
X161229987Y-78499031D02*
X161229987Y-87523533D01*
X161229987Y-87523533D02*
X161021920Y-87731600D01*
%TO.N,/RAM_SEL-*%
X172183720Y-115889000D02*
X172183720Y-92851200D01*
X171715320Y-116357400D02*
X172183720Y-115889000D01*
X172183720Y-92851200D02*
X172324920Y-92710000D01*
%TO.N,/SBC_GPI0*%
X98466120Y-61193000D02*
X107224720Y-69951600D01*
X97726236Y-56438800D02*
X98466120Y-57178684D01*
X107224720Y-110522098D02*
X108342320Y-111639698D01*
X92441920Y-56438800D02*
X97726236Y-56438800D01*
X108342320Y-111639698D02*
X108342320Y-127072600D01*
X107224720Y-69951600D02*
X107224720Y-110522098D01*
X92340320Y-56337200D02*
X92441920Y-56438800D01*
X108342320Y-127072600D02*
X108345920Y-127076200D01*
X98466120Y-57178684D02*
X98466120Y-61193000D01*
%TO.N,/SBC_GPO0*%
X89144414Y-61209506D02*
X89144414Y-61234906D01*
X87542120Y-75990080D02*
X87542120Y-87459000D01*
X89415120Y-138476600D02*
X90130520Y-139192000D01*
X87161533Y-72514375D02*
X87161533Y-75609493D01*
X89417120Y-91514000D02*
X89415120Y-91516000D01*
X89241520Y-61112400D02*
X89144414Y-61209506D01*
X87161533Y-75609493D02*
X87542120Y-75990080D01*
X87646120Y-72029788D02*
X87161533Y-72514375D01*
X89415120Y-91516000D02*
X89415120Y-138476600D01*
X87542120Y-87459000D02*
X89417120Y-89334000D01*
X89417120Y-89334000D02*
X89417120Y-91514000D01*
X87646120Y-62733200D02*
X87646120Y-72029788D01*
X89144414Y-61234906D02*
X87646120Y-62733200D01*
%TO.N,/SBC_GPO3*%
X92772120Y-78409800D02*
X91956119Y-79225801D01*
X91956119Y-134210399D02*
X92086320Y-134340600D01*
X92772120Y-66903600D02*
X92772120Y-78409800D01*
X91956119Y-79225801D02*
X91956119Y-134210399D01*
%TO.N,/SBC_GPO2*%
X90350000Y-116714671D02*
X91596119Y-117960790D01*
X91596119Y-117960790D02*
X91596119Y-134024699D01*
X91287720Y-134333098D02*
X91287720Y-139192000D01*
X91596119Y-134024699D02*
X91287720Y-134333098D01*
X90350000Y-66929000D02*
X90350000Y-116714671D01*
%TO.N,/SBC_GPI2*%
X98106120Y-77125908D02*
X99511493Y-78531281D01*
X99511493Y-120727875D02*
X101716120Y-122932502D01*
X99511493Y-78531281D02*
X99511493Y-120727875D01*
X101716120Y-127631800D02*
X101636720Y-127711200D01*
X97787120Y-57008800D02*
X98106120Y-57327800D01*
X98106120Y-57327800D02*
X98106120Y-77125908D01*
X93713878Y-57008800D02*
X97787120Y-57008800D01*
X101716120Y-122932502D02*
X101716120Y-127631800D01*
%TO.N,/SBC_GPI1*%
X108915920Y-126964000D02*
X110983920Y-129032000D01*
X110983920Y-129032000D02*
X110983920Y-129057400D01*
X108915920Y-111704181D02*
X108915920Y-126964000D01*
X107584720Y-110372981D02*
X108915920Y-111704181D01*
X93089620Y-55854600D02*
X93115020Y-55829200D01*
X107584720Y-69802484D02*
X107584720Y-110372981D01*
X97625752Y-55829200D02*
X98847982Y-57051430D01*
X98847982Y-57051430D02*
X98847982Y-61065746D01*
X93115020Y-55829200D02*
X97625752Y-55829200D01*
X98847982Y-61065746D02*
X107584720Y-69802484D01*
%TO.N,/SBC_GPO1*%
X94950000Y-92328977D02*
X94950000Y-117466911D01*
X93790952Y-133960772D02*
X93790952Y-137271130D01*
X93799320Y-137279498D02*
X93799320Y-138328400D01*
X95266120Y-72029788D02*
X95185120Y-72110788D01*
X94118320Y-118298591D02*
X94118320Y-133633404D01*
X93790952Y-137271130D02*
X93799320Y-137279498D01*
X95266120Y-62869800D02*
X95266120Y-72029788D01*
X89952720Y-62357000D02*
X94753320Y-62357000D01*
X95185120Y-92093857D02*
X94950000Y-92328977D01*
X94118320Y-133633404D02*
X93790952Y-133960772D01*
X94950000Y-117466911D02*
X94118320Y-118298591D01*
X94753320Y-62357000D02*
X95266120Y-62869800D01*
X95185120Y-72110788D02*
X95185120Y-92093857D01*
%TO.N,/PC_LATCH-*%
X164115343Y-101721623D02*
X164115343Y-87394000D01*
X164115343Y-87394000D02*
X163905343Y-87184000D01*
X164298520Y-101904800D02*
X164115343Y-101721623D01*
%TO.N,/TINTB-*%
X159051920Y-88833961D02*
X158899881Y-88986000D01*
X158710520Y-81502800D02*
X159051920Y-81844200D01*
X159051920Y-81844200D02*
X159051920Y-88833961D01*
%TO.N,/SBC_IO*%
X166429009Y-99380391D02*
X165289120Y-98240502D01*
X163753920Y-108755298D02*
X166429009Y-106080209D01*
X165314520Y-137555200D02*
X162931320Y-135172000D01*
X166429009Y-106080209D02*
X166429009Y-99380391D01*
X165289120Y-98240502D02*
X165289120Y-89154000D01*
X162931320Y-135172000D02*
X162931320Y-119819771D01*
X162931320Y-119819771D02*
X163753920Y-118997171D01*
X163753920Y-118997171D02*
X163753920Y-108755298D01*
%TO.N,/TGT_NOW*%
X140854320Y-129883552D02*
X140854320Y-112146007D01*
X140854320Y-112146007D02*
X140905120Y-112095207D01*
%TO.N,/BRK_DEQ*%
X163369920Y-108044098D02*
X163075414Y-107749592D01*
X162571320Y-119670655D02*
X163375341Y-118866634D01*
X163075414Y-107749592D02*
X163075414Y-107452604D01*
X163384120Y-140462000D02*
X162571320Y-139649200D01*
X162571320Y-139649200D02*
X162571320Y-119670655D01*
X163375341Y-118394430D02*
X163369920Y-118389009D01*
X163369920Y-118389009D02*
X163369920Y-108044098D01*
X163375341Y-118866634D02*
X163375341Y-118394430D01*
%TO.N,Net-(R29-Pad2)*%
X83018520Y-74218800D02*
X83018520Y-52781200D01*
X83018520Y-52781200D02*
X81570720Y-51333400D01*
%TO.N,/TCBUSEN-*%
X161799987Y-87676682D02*
X161799987Y-78735133D01*
X161799987Y-78735133D02*
X161809320Y-78725800D01*
%TO.N,/BRK1_AEQ*%
X162799920Y-118625111D02*
X162799920Y-108280200D01*
%TO.N,/BRKN_AEQ*%
X162037920Y-110003307D02*
X162037920Y-118491000D01*
%TO.N,/ZID_IO*%
X160497286Y-97580000D02*
X160488520Y-97588766D01*
X160488520Y-97588766D02*
X160488520Y-127685800D01*
X105421320Y-129616200D02*
X105421320Y-136855200D01*
X107326320Y-127711200D02*
X105421320Y-129616200D01*
%TO.N,/MEM_OP*%
X112126920Y-117652800D02*
X112126920Y-132195800D01*
X136598320Y-107569000D02*
X136598320Y-117652800D01*
%TD*%
M02*
