%TF.GenerationSoftware,KiCad,Pcbnew,9.0.9*%
%TF.CreationDate,2026-08-16T19:39:25-07:00*%
%TF.ProjectId,ZID_EXP_BP,5a49445f-4558-4505-9f42-502e6b696361,PR 1.0*%
%TF.SameCoordinates,Original*%
%TF.FileFunction,Soldermask,Bot*%
%TF.FilePolarity,Negative*%
%FSLAX46Y46*%
G04 Gerber Fmt 4.6, Leading zero omitted, Abs format (unit mm)*
G04 Created by KiCad (PCBNEW 9.0.9) date 2026-08-16 19:39:25*
%MOMM*%
%LPD*%
G01*
G04 APERTURE LIST*
G04 Aperture macros list*
%AMRoundRect*
0 Rectangle with rounded corners*
0 $1 Rounding radius*
0 $2 $3 $4 $5 $6 $7 $8 $9 X,Y pos of 4 corners*
0 Add a 4 corners polygon primitive as box body*
4,1,4,$2,$3,$4,$5,$6,$7,$8,$9,$2,$3,0*
0 Add four circle primitives for the rounded corners*
1,1,$1+$1,$2,$3*
1,1,$1+$1,$4,$5*
1,1,$1+$1,$6,$7*
1,1,$1+$1,$8,$9*
0 Add four rect primitives between the rounded corners*
20,1,$1+$1,$2,$3,$4,$5,0*
20,1,$1+$1,$4,$5,$6,$7,0*
20,1,$1+$1,$6,$7,$8,$9,0*
20,1,$1+$1,$8,$9,$2,$3,0*%
G04 Aperture macros list end*
%ADD10R,1.700000X1.700000*%
%ADD11C,1.700000*%
%ADD12RoundRect,0.250000X-0.350000X-0.625000X0.350000X-0.625000X0.350000X0.625000X-0.350000X0.625000X0*%
%ADD13O,1.200000X1.750000*%
%ADD14C,3.200000*%
%ADD15C,3.250000*%
%ADD16C,3.251200*%
%ADD17RoundRect,0.250000X-0.650000X0.650000X-0.650000X-0.650000X0.650000X-0.650000X0.650000X0.650000X0*%
%ADD18C,1.800000*%
%ADD19R,1.600000X1.600000*%
%ADD20C,1.600000*%
%ADD21C,1.440000*%
%ADD22RoundRect,0.250000X-0.950000X-0.550000X0.950000X-0.550000X0.950000X0.550000X-0.950000X0.550000X0*%
%ADD23O,2.400000X1.600000*%
%ADD24C,0.650000*%
%ADD25O,1.800000X1.000000*%
%ADD26O,2.100000X1.000000*%
%ADD27R,1.350000X1.350000*%
%ADD28C,1.350000*%
G04 APERTURE END LIST*
D10*
%TO.C,OP6*%
X133152932Y-65562490D03*
D11*
X133152932Y-68102490D03*
X133152932Y-70642490D03*
%TD*%
D10*
%TO.C,DISP1*%
X169050759Y-58072131D03*
D11*
X166510759Y-58072131D03*
X163970760Y-58072131D03*
X161430759Y-58072131D03*
X158890759Y-58072131D03*
X156350759Y-58072131D03*
X153810759Y-58072131D03*
X151270758Y-58072131D03*
X148730759Y-58072131D03*
X146190759Y-58072131D03*
X143650759Y-58072131D03*
X141110760Y-58072131D03*
X138570759Y-58072131D03*
X136030759Y-58072131D03*
X133490759Y-58072131D03*
X130950760Y-58072131D03*
X128410758Y-58072131D03*
X125870759Y-58072131D03*
X123330759Y-58072131D03*
X120790759Y-58072131D03*
X118250760Y-58072131D03*
X115710759Y-58072131D03*
%TD*%
D10*
%TO.C,DISP2*%
X171591599Y-49182491D03*
D11*
X171591599Y-51722491D03*
X169051599Y-49182491D03*
X169051599Y-51722491D03*
X166511600Y-49182491D03*
X166511599Y-51722491D03*
X163971599Y-49182491D03*
X163971599Y-51722491D03*
X161431599Y-49182491D03*
X161431599Y-51722491D03*
X158891599Y-49182491D03*
X158891599Y-51722491D03*
X156351599Y-49182491D03*
X156351599Y-51722491D03*
X153811598Y-49182491D03*
X153811599Y-51722491D03*
X151271599Y-49182491D03*
X151271599Y-51722491D03*
X148731599Y-49182491D03*
X148731599Y-51722491D03*
%TD*%
D10*
%TO.C,OP8*%
X142127599Y-65562490D03*
D11*
X142127599Y-68102490D03*
X142127599Y-70642490D03*
%TD*%
D10*
%TO.C,JP4*%
X106821599Y-89909491D03*
D11*
X106821599Y-92449491D03*
X104281599Y-89909491D03*
X104281599Y-92449491D03*
%TD*%
D12*
%TO.C,J15*%
X88343599Y-47404491D03*
D13*
X90343600Y-47404491D03*
X92343599Y-47404491D03*
X94343599Y-47404491D03*
X96343599Y-47404491D03*
X98343599Y-47404491D03*
%TD*%
D14*
%TO.C,H1*%
X184550759Y-47072131D03*
%TD*%
%TO.C,H7*%
X81167599Y-47658491D03*
%TD*%
D10*
%TO.C,OP7*%
X137640266Y-65562490D03*
D11*
X137640266Y-68102490D03*
X137640266Y-70642490D03*
%TD*%
D14*
%TO.C,H9*%
X201055599Y-142146491D03*
%TD*%
D10*
%TO.C,BUS3*%
X200872715Y-81649608D03*
D11*
X198332715Y-81649608D03*
X195792716Y-81649608D03*
X193252715Y-81649608D03*
X190712715Y-81649608D03*
X188172715Y-81649608D03*
X185632715Y-81649608D03*
X183092714Y-81649608D03*
X180552715Y-81649608D03*
X178012715Y-81649608D03*
X175472715Y-81649608D03*
X172932716Y-81649608D03*
X170392715Y-81649608D03*
X167852715Y-81649608D03*
X165312715Y-81649608D03*
X162772716Y-81649608D03*
X160232714Y-81649608D03*
X157692715Y-81649608D03*
X155152715Y-81649608D03*
X152612715Y-81649608D03*
X150072716Y-81649608D03*
X147532715Y-81649608D03*
X144992715Y-81649608D03*
X142452715Y-81649608D03*
X139912716Y-81649608D03*
X137372714Y-81649608D03*
X134832715Y-81649608D03*
X132292715Y-81649608D03*
X129752715Y-81649608D03*
X127212714Y-81649608D03*
X124672715Y-81649608D03*
X122132715Y-81649608D03*
X119592715Y-81649608D03*
X117052716Y-81649608D03*
X114512714Y-81649608D03*
X111972715Y-81649608D03*
X109432715Y-81649608D03*
X106892715Y-81649608D03*
X104352714Y-81649608D03*
X101812715Y-81649608D03*
X200872715Y-79109608D03*
X198332715Y-79109608D03*
X195792715Y-79109608D03*
X193252715Y-79109608D03*
X190712715Y-79109608D03*
X188172715Y-79109608D03*
X185632715Y-79109608D03*
X183092715Y-79109608D03*
X180552715Y-79109608D03*
X178012715Y-79109608D03*
X175472715Y-79109608D03*
X172932715Y-79109608D03*
X170392715Y-79109608D03*
X167852715Y-79109608D03*
X165312715Y-79109608D03*
X162772715Y-79109608D03*
X160232715Y-79109608D03*
X157692715Y-79109608D03*
X155152715Y-79109608D03*
X152612715Y-79109608D03*
X150072715Y-79109608D03*
X147532715Y-79109608D03*
X144992715Y-79109608D03*
X142452715Y-79109608D03*
X139912715Y-79109608D03*
X137372715Y-79109608D03*
X134832715Y-79109608D03*
X132292715Y-79109608D03*
X129752715Y-79109608D03*
X127212715Y-79109608D03*
X124672715Y-79109608D03*
X122132715Y-79109608D03*
X119592715Y-79109608D03*
X117052715Y-79109608D03*
X114512715Y-79109608D03*
X111972715Y-79109608D03*
X109432715Y-79109608D03*
X106892715Y-79109608D03*
X104352715Y-79109608D03*
X101812715Y-79109608D03*
%TD*%
D10*
%TO.C,JP1*%
X198261599Y-111459491D03*
D11*
X198261599Y-113999491D03*
X195721599Y-111459491D03*
X195721599Y-113999491D03*
X193181600Y-111459491D03*
X193181599Y-113999491D03*
%TD*%
D15*
%TO.C,KBD1*%
X85909599Y-97315491D03*
D16*
X85909599Y-89695491D03*
D17*
X94799599Y-95410491D03*
D18*
X92259599Y-94140491D03*
X94799599Y-92870491D03*
X92259599Y-91600491D03*
%TD*%
D10*
%TO.C,J2*%
X100409479Y-143162491D03*
D11*
X100409479Y-140622491D03*
X102949479Y-143162491D03*
X102949479Y-140622491D03*
X105489478Y-143162491D03*
X105489479Y-140622491D03*
X108029479Y-143162491D03*
X108029479Y-140622491D03*
%TD*%
D10*
%TO.C,BUS2*%
X200872715Y-103199608D03*
D11*
X198332715Y-103199608D03*
X195792716Y-103199608D03*
X193252715Y-103199608D03*
X190712715Y-103199608D03*
X188172715Y-103199608D03*
X185632715Y-103199608D03*
X183092714Y-103199608D03*
X180552715Y-103199608D03*
X178012715Y-103199608D03*
X175472715Y-103199608D03*
X172932716Y-103199608D03*
X170392715Y-103199608D03*
X167852715Y-103199608D03*
X165312715Y-103199608D03*
X162772716Y-103199608D03*
X160232714Y-103199608D03*
X157692715Y-103199608D03*
X155152715Y-103199608D03*
X152612715Y-103199608D03*
X150072716Y-103199608D03*
X147532715Y-103199608D03*
X144992715Y-103199608D03*
X142452715Y-103199608D03*
X139912716Y-103199608D03*
X137372714Y-103199608D03*
X134832715Y-103199608D03*
X132292715Y-103199608D03*
X129752715Y-103199608D03*
X127212714Y-103199608D03*
X124672715Y-103199608D03*
X122132715Y-103199608D03*
X119592715Y-103199608D03*
X117052716Y-103199608D03*
X114512714Y-103199608D03*
X111972715Y-103199608D03*
X109432715Y-103199608D03*
X106892715Y-103199608D03*
X104352714Y-103199608D03*
X101812715Y-103199608D03*
X200872715Y-100659608D03*
X198332715Y-100659608D03*
X195792715Y-100659608D03*
X193252715Y-100659608D03*
X190712715Y-100659608D03*
X188172715Y-100659608D03*
X185632715Y-100659608D03*
X183092715Y-100659608D03*
X180552715Y-100659608D03*
X178012715Y-100659608D03*
X175472715Y-100659608D03*
X172932715Y-100659608D03*
X170392715Y-100659608D03*
X167852715Y-100659608D03*
X165312715Y-100659608D03*
X162772715Y-100659608D03*
X160232715Y-100659608D03*
X157692715Y-100659608D03*
X155152715Y-100659608D03*
X152612715Y-100659608D03*
X150072715Y-100659608D03*
X147532715Y-100659608D03*
X144992715Y-100659608D03*
X142452715Y-100659608D03*
X139912715Y-100659608D03*
X137372715Y-100659608D03*
X134832715Y-100659608D03*
X132292715Y-100659608D03*
X129752715Y-100659608D03*
X127212715Y-100659608D03*
X124672715Y-100659608D03*
X122132715Y-100659608D03*
X119592715Y-100659608D03*
X117052715Y-100659608D03*
X114512715Y-100659608D03*
X111972715Y-100659608D03*
X109432715Y-100659608D03*
X106892715Y-100659608D03*
X104352715Y-100659608D03*
X101812715Y-100659608D03*
%TD*%
D14*
%TO.C,H8*%
X201055599Y-47658491D03*
%TD*%
D19*
%TO.C,RN1*%
X91835599Y-54516491D03*
D20*
X91835599Y-57056491D03*
X91835599Y-59596490D03*
X91835599Y-62136491D03*
X91835599Y-64676491D03*
X91835599Y-67216491D03*
X91835599Y-69756491D03*
X91835599Y-72296492D03*
X91835599Y-74836491D03*
%TD*%
D10*
%TO.C,OP5*%
X128665599Y-65562491D03*
D11*
X128665599Y-68102491D03*
X128665599Y-70642490D03*
%TD*%
D10*
%TO.C,OP9*%
X152795599Y-65562491D03*
D11*
X152795599Y-68102491D03*
X152795599Y-70642490D03*
%TD*%
D21*
%TO.C,RV1*%
X199725599Y-54287480D03*
X197185599Y-56827480D03*
X199725599Y-59367479D03*
%TD*%
D10*
%TO.C,JP3*%
X109361599Y-111459491D03*
D11*
X109361599Y-113999491D03*
X106821599Y-111459491D03*
X106821599Y-113999491D03*
X104281600Y-111459491D03*
X104281599Y-113999491D03*
%TD*%
D10*
%TO.C,KBD2*%
X81675599Y-82202491D03*
D11*
X84215599Y-82202491D03*
X86755598Y-82202491D03*
X89295599Y-82202491D03*
%TD*%
D10*
%TO.C,J3*%
X110569479Y-143162491D03*
D11*
X110569479Y-140622491D03*
X113109479Y-143162491D03*
X113109479Y-140622491D03*
%TD*%
D14*
%TO.C,H10*%
X81167599Y-106586491D03*
%TD*%
%TO.C,H6*%
X81167599Y-142146491D03*
%TD*%
D10*
%TO.C,JP2*%
X198261599Y-89909491D03*
D11*
X198261599Y-92449491D03*
X195721599Y-89909491D03*
X195721599Y-92449491D03*
%TD*%
D10*
%TO.C,OP3*%
X119690932Y-65562491D03*
D11*
X119690932Y-68102491D03*
X119690932Y-70642490D03*
%TD*%
D10*
%TO.C,OP4*%
X124178266Y-65562491D03*
D11*
X124178266Y-68102491D03*
X124178266Y-70642490D03*
%TD*%
D10*
%TO.C,OP1*%
X88025599Y-137574491D03*
D11*
X88025599Y-135034491D03*
X88025599Y-132494492D03*
%TD*%
D22*
%TO.C,SW1*%
X80659599Y-57056491D03*
D23*
X80659599Y-59596491D03*
X80659599Y-62136490D03*
X80659599Y-64676491D03*
X80659599Y-67216491D03*
X80659599Y-69756491D03*
X80659599Y-72296491D03*
X80659599Y-74836492D03*
X88279599Y-74836491D03*
X88279599Y-72296491D03*
X88279599Y-69756491D03*
X88279599Y-67216491D03*
X88279599Y-64676491D03*
X88279599Y-62136491D03*
X88279599Y-59596491D03*
X88279599Y-57056491D03*
%TD*%
D10*
%TO.C,BUS1*%
X200872715Y-124749608D03*
D11*
X198332715Y-124749608D03*
X195792716Y-124749608D03*
X193252715Y-124749608D03*
X190712715Y-124749608D03*
X188172715Y-124749608D03*
X185632715Y-124749608D03*
X183092714Y-124749608D03*
X180552715Y-124749608D03*
X178012715Y-124749608D03*
X175472715Y-124749608D03*
X172932716Y-124749608D03*
X170392715Y-124749608D03*
X167852715Y-124749608D03*
X165312715Y-124749608D03*
X162772716Y-124749608D03*
X160232714Y-124749608D03*
X157692715Y-124749608D03*
X155152715Y-124749608D03*
X152612715Y-124749608D03*
X150072716Y-124749608D03*
X147532715Y-124749608D03*
X144992715Y-124749608D03*
X142452715Y-124749608D03*
X139912716Y-124749608D03*
X137372714Y-124749608D03*
X134832715Y-124749608D03*
X132292715Y-124749608D03*
X129752715Y-124749608D03*
X127212714Y-124749608D03*
X124672715Y-124749608D03*
X122132715Y-124749608D03*
X119592715Y-124749608D03*
X117052716Y-124749608D03*
X114512714Y-124749608D03*
X111972715Y-124749608D03*
X109432715Y-124749608D03*
X106892715Y-124749608D03*
X104352714Y-124749608D03*
X101812715Y-124749608D03*
X200872715Y-122209608D03*
X198332715Y-122209608D03*
X195792715Y-122209608D03*
X193252715Y-122209608D03*
X190712715Y-122209608D03*
X188172715Y-122209608D03*
X185632715Y-122209608D03*
X183092715Y-122209608D03*
X180552715Y-122209608D03*
X178012715Y-122209608D03*
X175472715Y-122209608D03*
X172932715Y-122209608D03*
X170392715Y-122209608D03*
X167852715Y-122209608D03*
X165312715Y-122209608D03*
X162772715Y-122209608D03*
X160232715Y-122209608D03*
X157692715Y-122209608D03*
X155152715Y-122209608D03*
X152612715Y-122209608D03*
X150072715Y-122209608D03*
X147532715Y-122209608D03*
X144992715Y-122209608D03*
X142452715Y-122209608D03*
X139912715Y-122209608D03*
X137372715Y-122209608D03*
X134832715Y-122209608D03*
X132292715Y-122209608D03*
X129752715Y-122209608D03*
X127212715Y-122209608D03*
X124672715Y-122209608D03*
X122132715Y-122209608D03*
X119592715Y-122209608D03*
X117052715Y-122209608D03*
X114512715Y-122209608D03*
X111972715Y-122209608D03*
X109432715Y-122209608D03*
X106892715Y-122209608D03*
X104352715Y-122209608D03*
X101812715Y-122209608D03*
%TD*%
D24*
%TO.C,PWR1*%
X82698099Y-129040091D03*
X82698099Y-134820091D03*
D25*
X79018099Y-127610091D03*
X79018099Y-136250091D03*
D26*
X83198099Y-127610091D03*
X83198099Y-136250091D03*
%TD*%
D10*
%TO.C,OP2*%
X115203599Y-65562491D03*
D11*
X115203599Y-68102491D03*
X115203599Y-70642490D03*
%TD*%
D10*
%TO.C,J4*%
X115649479Y-143162491D03*
D11*
X115649479Y-140622491D03*
X118189479Y-143162491D03*
X118189479Y-140622491D03*
X120729478Y-143162491D03*
X120729479Y-140622491D03*
X123269479Y-143162491D03*
X123269479Y-140622491D03*
%TD*%
D14*
%TO.C,H2*%
X108350759Y-47072131D03*
%TD*%
D27*
%TO.C,JP5*%
X148731599Y-68502491D03*
D28*
X148731599Y-70502492D03*
%TD*%
M02*
