%TF.GenerationSoftware,KiCad,Pcbnew,9.0.9*%
%TF.CreationDate,2026-08-16T12:20:23-07:00*%
%TF.ProjectId,ZID_EXP_BP,5a49445f-4558-4505-9f42-502e6b696361,PR 1.0*%
%TF.SameCoordinates,Original*%
%TF.FileFunction,Soldermask,Top*%
%TF.FilePolarity,Negative*%
%FSLAX46Y46*%
G04 Gerber Fmt 4.6, Leading zero omitted, Abs format (unit mm)*
G04 Created by KiCad (PCBNEW 9.0.9) date 2026-08-16 12:20:23*
%MOMM*%
%LPD*%
G01*
G04 APERTURE LIST*
G04 Aperture macros list*
%AMRoundRect*
0 Rectangle with rounded corners*
0 $1 Rounding radius*
0 $2 $3 $4 $5 $6 $7 $8 $9 X,Y pos of 4 corners*
0 Add a 4 corners polygon primitive as box body*
4,1,4,$2,$3,$4,$5,$6,$7,$8,$9,$2,$3,0*
0 Add four circle primitives for the rounded corners*
1,1,$1+$1,$2,$3*
1,1,$1+$1,$4,$5*
1,1,$1+$1,$6,$7*
1,1,$1+$1,$8,$9*
0 Add four rect primitives between the rounded corners*
20,1,$1+$1,$2,$3,$4,$5,0*
20,1,$1+$1,$4,$5,$6,$7,0*
20,1,$1+$1,$6,$7,$8,$9,0*
20,1,$1+$1,$8,$9,$2,$3,0*%
G04 Aperture macros list end*
%ADD10R,1.700000X1.700000*%
%ADD11C,1.700000*%
%ADD12RoundRect,0.250000X-0.262500X-0.450000X0.262500X-0.450000X0.262500X0.450000X-0.262500X0.450000X0*%
%ADD13R,0.300000X1.300000*%
%ADD14R,2.000000X1.800000*%
%ADD15RoundRect,0.225000X0.250000X-0.225000X0.250000X0.225000X-0.250000X0.225000X-0.250000X-0.225000X0*%
%ADD16RoundRect,0.250000X-0.350000X-0.625000X0.350000X-0.625000X0.350000X0.625000X-0.350000X0.625000X0*%
%ADD17O,1.200000X1.750000*%
%ADD18C,3.200000*%
%ADD19RoundRect,0.250000X-0.450000X0.350000X-0.450000X-0.350000X0.450000X-0.350000X0.450000X0.350000X0*%
%ADD20RoundRect,0.250000X0.262500X0.450000X-0.262500X0.450000X-0.262500X-0.450000X0.262500X-0.450000X0*%
%ADD21RoundRect,0.250000X0.450000X-0.262500X0.450000X0.262500X-0.450000X0.262500X-0.450000X-0.262500X0*%
%ADD22RoundRect,0.250000X0.450000X-0.350000X0.450000X0.350000X-0.450000X0.350000X-0.450000X-0.350000X0*%
%ADD23C,3.250000*%
%ADD24C,3.251200*%
%ADD25RoundRect,0.250000X-0.650000X0.650000X-0.650000X-0.650000X0.650000X-0.650000X0.650000X0.650000X0*%
%ADD26C,1.800000*%
%ADD27RoundRect,0.250000X0.412500X1.100000X-0.412500X1.100000X-0.412500X-1.100000X0.412500X-1.100000X0*%
%ADD28RoundRect,0.250000X-0.350000X-0.450000X0.350000X-0.450000X0.350000X0.450000X-0.350000X0.450000X0*%
%ADD29R,1.600000X1.600000*%
%ADD30C,1.600000*%
%ADD31RoundRect,0.225000X-0.250000X0.225000X-0.250000X-0.225000X0.250000X-0.225000X0.250000X0.225000X0*%
%ADD32C,1.440000*%
%ADD33RoundRect,0.150000X0.512500X0.150000X-0.512500X0.150000X-0.512500X-0.150000X0.512500X-0.150000X0*%
%ADD34RoundRect,0.225000X0.225000X0.250000X-0.225000X0.250000X-0.225000X-0.250000X0.225000X-0.250000X0*%
%ADD35RoundRect,0.250000X0.350000X0.450000X-0.350000X0.450000X-0.350000X-0.450000X0.350000X-0.450000X0*%
%ADD36RoundRect,0.225000X-0.225000X-0.250000X0.225000X-0.250000X0.225000X0.250000X-0.225000X0.250000X0*%
%ADD37RoundRect,0.250000X-0.950000X-0.550000X0.950000X-0.550000X0.950000X0.550000X-0.950000X0.550000X0*%
%ADD38O,2.400000X1.600000*%
%ADD39RoundRect,0.250000X0.650000X-1.000000X0.650000X1.000000X-0.650000X1.000000X-0.650000X-1.000000X0*%
%ADD40C,0.650000*%
%ADD41R,1.150000X0.600000*%
%ADD42R,1.150000X0.300000*%
%ADD43O,1.800000X1.000000*%
%ADD44O,2.100000X1.000000*%
%ADD45RoundRect,0.137500X0.600000X0.137500X-0.600000X0.137500X-0.600000X-0.137500X0.600000X-0.137500X0*%
%ADD46RoundRect,0.137500X0.137500X0.600000X-0.137500X0.600000X-0.137500X-0.600000X0.137500X-0.600000X0*%
%ADD47RoundRect,0.250001X1.044999X-0.872499X1.044999X0.872499X-1.044999X0.872499X-1.044999X-0.872499X0*%
%ADD48R,1.350000X1.350000*%
%ADD49C,1.350000*%
%ADD50RoundRect,0.125000X0.125000X-0.487500X0.125000X0.487500X-0.125000X0.487500X-0.125000X-0.487500X0*%
G04 APERTURE END LIST*
D10*
%TO.C,OP6*%
X133152932Y-65562490D03*
D11*
X133152932Y-68102490D03*
X133152932Y-70642490D03*
%TD*%
D10*
%TO.C,DISP1*%
X169050759Y-58072131D03*
D11*
X166510759Y-58072131D03*
X163970760Y-58072131D03*
X161430759Y-58072131D03*
X158890759Y-58072131D03*
X156350759Y-58072131D03*
X153810759Y-58072131D03*
X151270758Y-58072131D03*
X148730759Y-58072131D03*
X146190759Y-58072131D03*
X143650759Y-58072131D03*
X141110760Y-58072131D03*
X138570759Y-58072131D03*
X136030759Y-58072131D03*
X133490759Y-58072131D03*
X130950760Y-58072131D03*
X128410758Y-58072131D03*
X125870759Y-58072131D03*
X123330759Y-58072131D03*
X120790759Y-58072131D03*
X118250760Y-58072131D03*
X115710759Y-58072131D03*
%TD*%
D10*
%TO.C,DISP2*%
X171591599Y-49182491D03*
D11*
X171591599Y-51722491D03*
X169051599Y-49182491D03*
X169051599Y-51722491D03*
X166511600Y-49182491D03*
X166511599Y-51722491D03*
X163971599Y-49182491D03*
X163971599Y-51722491D03*
X161431599Y-49182491D03*
X161431599Y-51722491D03*
X158891599Y-49182491D03*
X158891599Y-51722491D03*
X156351599Y-49182491D03*
X156351599Y-51722491D03*
X153811598Y-49182491D03*
X153811599Y-51722491D03*
X151271599Y-49182491D03*
X151271599Y-51722491D03*
X148731599Y-49182491D03*
X148731599Y-51722491D03*
%TD*%
D10*
%TO.C,OP8*%
X142127599Y-65562490D03*
D11*
X142127599Y-68102490D03*
X142127599Y-70642490D03*
%TD*%
D10*
%TO.C,JP4*%
X106821599Y-89909491D03*
D11*
X106821599Y-92449491D03*
X104281599Y-89909491D03*
X104281599Y-92449491D03*
%TD*%
D12*
%TO.C,R3*%
X192641744Y-59342491D03*
X194466744Y-59342491D03*
%TD*%
D13*
%TO.C,J1*%
X131361599Y-139280491D03*
X131861599Y-139280491D03*
X132361599Y-139280491D03*
X132861599Y-139280491D03*
X133361599Y-139280491D03*
X133861599Y-139280491D03*
X134361599Y-139280491D03*
X134861599Y-139280491D03*
X135361599Y-139280491D03*
X135861599Y-139280491D03*
X136361599Y-139280491D03*
X136861599Y-139280491D03*
X137361599Y-139280491D03*
X137861599Y-139280491D03*
X138361599Y-139280491D03*
X138861599Y-139280491D03*
X139361599Y-139280491D03*
X139861599Y-139280491D03*
X140361599Y-139280491D03*
X140861599Y-139280491D03*
X141361599Y-139280491D03*
X141861599Y-139280491D03*
X142361599Y-139280491D03*
X142861599Y-139280491D03*
X143361599Y-139280491D03*
X143861599Y-139280491D03*
X144361599Y-139280491D03*
X144861599Y-139280491D03*
X145361599Y-139280491D03*
X145861599Y-139280491D03*
X146361599Y-139280491D03*
X146861599Y-139280491D03*
X147361599Y-139280491D03*
X147861599Y-139280491D03*
X148361599Y-139280491D03*
X148861599Y-139280491D03*
X149361599Y-139280491D03*
X149861599Y-139280491D03*
X150361599Y-139280491D03*
X150861599Y-139280491D03*
D14*
X129557999Y-142011291D03*
X152665199Y-142011291D03*
%TD*%
D15*
%TO.C,C6*%
X112663599Y-64181491D03*
X112663599Y-62631491D03*
%TD*%
D16*
%TO.C,J15*%
X88343599Y-47404491D03*
D17*
X90343600Y-47404491D03*
X92343599Y-47404491D03*
X94343599Y-47404491D03*
X96343599Y-47404491D03*
X98343599Y-47404491D03*
%TD*%
D18*
%TO.C,H1*%
X184550759Y-47072131D03*
%TD*%
D19*
%TO.C,R1*%
X198261599Y-106602491D03*
X198261599Y-108602491D03*
%TD*%
D20*
%TO.C,R11*%
X89192099Y-53246491D03*
X87367099Y-53246491D03*
%TD*%
D18*
%TO.C,H7*%
X81167599Y-47658491D03*
%TD*%
D10*
%TO.C,OP7*%
X137640266Y-65562490D03*
D11*
X137640266Y-68102490D03*
X137640266Y-70642490D03*
%TD*%
D21*
%TO.C,R10*%
X94883599Y-54666991D03*
X94883599Y-52841991D03*
%TD*%
D18*
%TO.C,H9*%
X201055599Y-142146491D03*
%TD*%
D10*
%TO.C,BUS3*%
X200872715Y-81649608D03*
D11*
X198332715Y-81649608D03*
X195792716Y-81649608D03*
X193252715Y-81649608D03*
X190712715Y-81649608D03*
X188172715Y-81649608D03*
X185632715Y-81649608D03*
X183092714Y-81649608D03*
X180552715Y-81649608D03*
X178012715Y-81649608D03*
X175472715Y-81649608D03*
X172932716Y-81649608D03*
X170392715Y-81649608D03*
X167852715Y-81649608D03*
X165312715Y-81649608D03*
X162772716Y-81649608D03*
X160232714Y-81649608D03*
X157692715Y-81649608D03*
X155152715Y-81649608D03*
X152612715Y-81649608D03*
X150072716Y-81649608D03*
X147532715Y-81649608D03*
X144992715Y-81649608D03*
X142452715Y-81649608D03*
X139912716Y-81649608D03*
X137372714Y-81649608D03*
X134832715Y-81649608D03*
X132292715Y-81649608D03*
X129752715Y-81649608D03*
X127212714Y-81649608D03*
X124672715Y-81649608D03*
X122132715Y-81649608D03*
X119592715Y-81649608D03*
X117052716Y-81649608D03*
X114512714Y-81649608D03*
X111972715Y-81649608D03*
X109432715Y-81649608D03*
X106892715Y-81649608D03*
X104352714Y-81649608D03*
X101812715Y-81649608D03*
X200872715Y-79109608D03*
X198332715Y-79109608D03*
X195792715Y-79109608D03*
X193252715Y-79109608D03*
X190712715Y-79109608D03*
X188172715Y-79109608D03*
X185632715Y-79109608D03*
X183092715Y-79109608D03*
X180552715Y-79109608D03*
X178012715Y-79109608D03*
X175472715Y-79109608D03*
X172932715Y-79109608D03*
X170392715Y-79109608D03*
X167852715Y-79109608D03*
X165312715Y-79109608D03*
X162772715Y-79109608D03*
X160232715Y-79109608D03*
X157692715Y-79109608D03*
X155152715Y-79109608D03*
X152612715Y-79109608D03*
X150072715Y-79109608D03*
X147532715Y-79109608D03*
X144992715Y-79109608D03*
X142452715Y-79109608D03*
X139912715Y-79109608D03*
X137372715Y-79109608D03*
X134832715Y-79109608D03*
X132292715Y-79109608D03*
X129752715Y-79109608D03*
X127212715Y-79109608D03*
X124672715Y-79109608D03*
X122132715Y-79109608D03*
X119592715Y-79109608D03*
X117052715Y-79109608D03*
X114512715Y-79109608D03*
X111972715Y-79109608D03*
X109432715Y-79109608D03*
X106892715Y-79109608D03*
X104352715Y-79109608D03*
X101812715Y-79109608D03*
%TD*%
D10*
%TO.C,JP1*%
X198261599Y-111459491D03*
D11*
X198261599Y-113999491D03*
X195721599Y-111459491D03*
X195721599Y-113999491D03*
X193181600Y-111459491D03*
X193181599Y-113999491D03*
%TD*%
D21*
%TO.C,R12*%
X98439599Y-54666991D03*
X98439599Y-52841991D03*
%TD*%
D22*
%TO.C,R16*%
X96153599Y-79900491D03*
X96153599Y-77900491D03*
%TD*%
D21*
%TO.C,R13*%
X101995599Y-54666991D03*
X101995599Y-52841991D03*
%TD*%
D23*
%TO.C,KBD1*%
X85909599Y-97315491D03*
D24*
X85909599Y-89695491D03*
D25*
X94799599Y-95410491D03*
D26*
X92259599Y-94140491D03*
X94799599Y-92870491D03*
X92259599Y-91600491D03*
%TD*%
D27*
%TO.C,C1*%
X178156795Y-62675080D03*
X175031795Y-62675080D03*
%TD*%
D28*
%TO.C,R14*%
X79024599Y-123401291D03*
X81024599Y-123401291D03*
%TD*%
D10*
%TO.C,J2*%
X100409479Y-143162491D03*
D11*
X100409479Y-140622491D03*
X102949479Y-143162491D03*
X102949479Y-140622491D03*
X105489478Y-143162491D03*
X105489479Y-140622491D03*
X108029479Y-143162491D03*
X108029479Y-140622491D03*
%TD*%
D10*
%TO.C,BUS2*%
X200872715Y-103199608D03*
D11*
X198332715Y-103199608D03*
X195792716Y-103199608D03*
X193252715Y-103199608D03*
X190712715Y-103199608D03*
X188172715Y-103199608D03*
X185632715Y-103199608D03*
X183092714Y-103199608D03*
X180552715Y-103199608D03*
X178012715Y-103199608D03*
X175472715Y-103199608D03*
X172932716Y-103199608D03*
X170392715Y-103199608D03*
X167852715Y-103199608D03*
X165312715Y-103199608D03*
X162772716Y-103199608D03*
X160232714Y-103199608D03*
X157692715Y-103199608D03*
X155152715Y-103199608D03*
X152612715Y-103199608D03*
X150072716Y-103199608D03*
X147532715Y-103199608D03*
X144992715Y-103199608D03*
X142452715Y-103199608D03*
X139912716Y-103199608D03*
X137372714Y-103199608D03*
X134832715Y-103199608D03*
X132292715Y-103199608D03*
X129752715Y-103199608D03*
X127212714Y-103199608D03*
X124672715Y-103199608D03*
X122132715Y-103199608D03*
X119592715Y-103199608D03*
X117052716Y-103199608D03*
X114512714Y-103199608D03*
X111972715Y-103199608D03*
X109432715Y-103199608D03*
X106892715Y-103199608D03*
X104352714Y-103199608D03*
X101812715Y-103199608D03*
X200872715Y-100659608D03*
X198332715Y-100659608D03*
X195792715Y-100659608D03*
X193252715Y-100659608D03*
X190712715Y-100659608D03*
X188172715Y-100659608D03*
X185632715Y-100659608D03*
X183092715Y-100659608D03*
X180552715Y-100659608D03*
X178012715Y-100659608D03*
X175472715Y-100659608D03*
X172932715Y-100659608D03*
X170392715Y-100659608D03*
X167852715Y-100659608D03*
X165312715Y-100659608D03*
X162772715Y-100659608D03*
X160232715Y-100659608D03*
X157692715Y-100659608D03*
X155152715Y-100659608D03*
X152612715Y-100659608D03*
X150072715Y-100659608D03*
X147532715Y-100659608D03*
X144992715Y-100659608D03*
X142452715Y-100659608D03*
X139912715Y-100659608D03*
X137372715Y-100659608D03*
X134832715Y-100659608D03*
X132292715Y-100659608D03*
X129752715Y-100659608D03*
X127212715Y-100659608D03*
X124672715Y-100659608D03*
X122132715Y-100659608D03*
X119592715Y-100659608D03*
X117052715Y-100659608D03*
X114512715Y-100659608D03*
X111972715Y-100659608D03*
X109432715Y-100659608D03*
X106892715Y-100659608D03*
X104352715Y-100659608D03*
X101812715Y-100659608D03*
%TD*%
D28*
%TO.C,R8*%
X86771599Y-78900491D03*
X88771599Y-78900491D03*
%TD*%
D18*
%TO.C,H8*%
X201055599Y-47658491D03*
%TD*%
D29*
%TO.C,RN1*%
X91835599Y-54516491D03*
D30*
X91835599Y-57056491D03*
X91835599Y-59596490D03*
X91835599Y-62136491D03*
X91835599Y-64676491D03*
X91835599Y-67216491D03*
X91835599Y-69756491D03*
X91835599Y-72296492D03*
X91835599Y-74836491D03*
%TD*%
D31*
%TO.C,C4*%
X95899599Y-62644491D03*
X95899599Y-64194491D03*
%TD*%
D10*
%TO.C,OP5*%
X128665599Y-65562491D03*
D11*
X128665599Y-68102491D03*
X128665599Y-70642490D03*
%TD*%
D10*
%TO.C,OP9*%
X152795599Y-65562491D03*
D11*
X152795599Y-68102491D03*
X152795599Y-70642490D03*
%TD*%
D32*
%TO.C,RV1*%
X199725599Y-54287480D03*
X197185599Y-56827480D03*
X199725599Y-59367479D03*
%TD*%
D10*
%TO.C,JP3*%
X109361599Y-111459491D03*
D11*
X109361599Y-113999491D03*
X106821599Y-111459491D03*
X106821599Y-113999491D03*
X104281600Y-111459491D03*
X104281599Y-113999491D03*
%TD*%
D28*
%TO.C,R15*%
X95915599Y-57310491D03*
X97915599Y-57310491D03*
%TD*%
D33*
%TO.C,Q1*%
X178175192Y-57417516D03*
X178175192Y-55517518D03*
X175900192Y-56467517D03*
%TD*%
D10*
%TO.C,KBD2*%
X81675599Y-82202491D03*
D11*
X84215599Y-82202491D03*
X86755598Y-82202491D03*
X89295599Y-82202491D03*
%TD*%
D10*
%TO.C,J3*%
X110569479Y-143162491D03*
D11*
X110569479Y-140622491D03*
X113109479Y-143162491D03*
X113109479Y-140622491D03*
%TD*%
D34*
%TO.C,C7*%
X105564599Y-54770491D03*
X104014599Y-54770491D03*
%TD*%
D18*
%TO.C,H10*%
X81167599Y-106586491D03*
%TD*%
D35*
%TO.C,R7*%
X84199599Y-78900491D03*
X82199599Y-78900491D03*
%TD*%
D18*
%TO.C,H6*%
X81167599Y-142146491D03*
%TD*%
D21*
%TO.C,R6*%
X175147599Y-68382991D03*
X175147599Y-66557991D03*
%TD*%
D36*
%TO.C,C2*%
X186818599Y-54262491D03*
X188368599Y-54262491D03*
%TD*%
D10*
%TO.C,JP2*%
X198261599Y-89909491D03*
D11*
X198261599Y-92449491D03*
X195721599Y-89909491D03*
X195721599Y-92449491D03*
%TD*%
D19*
%TO.C,R9*%
X109361599Y-106602491D03*
X109361599Y-108602491D03*
%TD*%
D10*
%TO.C,OP3*%
X119690932Y-65562491D03*
D11*
X119690932Y-68102491D03*
X119690932Y-70642490D03*
%TD*%
D21*
%TO.C,R2*%
X181028268Y-63251908D03*
X181028268Y-61426908D03*
%TD*%
%TO.C,R4*%
X126125599Y-49840991D03*
X126125599Y-48015991D03*
%TD*%
D10*
%TO.C,OP4*%
X124178266Y-65562491D03*
D11*
X124178266Y-68102491D03*
X124178266Y-70642490D03*
%TD*%
D10*
%TO.C,OP1*%
X88025599Y-137574491D03*
D11*
X88025599Y-135034491D03*
X88025599Y-132494492D03*
%TD*%
D37*
%TO.C,SW1*%
X80659599Y-57056491D03*
D38*
X80659599Y-59596491D03*
X80659599Y-62136490D03*
X80659599Y-64676491D03*
X80659599Y-67216491D03*
X80659599Y-69756491D03*
X80659599Y-72296491D03*
X80659599Y-74836492D03*
X88279599Y-74836491D03*
X88279599Y-72296491D03*
X88279599Y-69756491D03*
X88279599Y-67216491D03*
X88279599Y-64676491D03*
X88279599Y-62136491D03*
X88279599Y-59596491D03*
X88279599Y-57056491D03*
%TD*%
D39*
%TO.C,D1*%
X160212399Y-113920492D03*
X160212399Y-109920490D03*
%TD*%
D10*
%TO.C,BUS1*%
X200872715Y-124749608D03*
D11*
X198332715Y-124749608D03*
X195792716Y-124749608D03*
X193252715Y-124749608D03*
X190712715Y-124749608D03*
X188172715Y-124749608D03*
X185632715Y-124749608D03*
X183092714Y-124749608D03*
X180552715Y-124749608D03*
X178012715Y-124749608D03*
X175472715Y-124749608D03*
X172932716Y-124749608D03*
X170392715Y-124749608D03*
X167852715Y-124749608D03*
X165312715Y-124749608D03*
X162772716Y-124749608D03*
X160232714Y-124749608D03*
X157692715Y-124749608D03*
X155152715Y-124749608D03*
X152612715Y-124749608D03*
X150072716Y-124749608D03*
X147532715Y-124749608D03*
X144992715Y-124749608D03*
X142452715Y-124749608D03*
X139912716Y-124749608D03*
X137372714Y-124749608D03*
X134832715Y-124749608D03*
X132292715Y-124749608D03*
X129752715Y-124749608D03*
X127212714Y-124749608D03*
X124672715Y-124749608D03*
X122132715Y-124749608D03*
X119592715Y-124749608D03*
X117052716Y-124749608D03*
X114512714Y-124749608D03*
X111972715Y-124749608D03*
X109432715Y-124749608D03*
X106892715Y-124749608D03*
X104352714Y-124749608D03*
X101812715Y-124749608D03*
X200872715Y-122209608D03*
X198332715Y-122209608D03*
X195792715Y-122209608D03*
X193252715Y-122209608D03*
X190712715Y-122209608D03*
X188172715Y-122209608D03*
X185632715Y-122209608D03*
X183092715Y-122209608D03*
X180552715Y-122209608D03*
X178012715Y-122209608D03*
X175472715Y-122209608D03*
X172932715Y-122209608D03*
X170392715Y-122209608D03*
X167852715Y-122209608D03*
X165312715Y-122209608D03*
X162772715Y-122209608D03*
X160232715Y-122209608D03*
X157692715Y-122209608D03*
X155152715Y-122209608D03*
X152612715Y-122209608D03*
X150072715Y-122209608D03*
X147532715Y-122209608D03*
X144992715Y-122209608D03*
X142452715Y-122209608D03*
X139912715Y-122209608D03*
X137372715Y-122209608D03*
X134832715Y-122209608D03*
X132292715Y-122209608D03*
X129752715Y-122209608D03*
X127212715Y-122209608D03*
X124672715Y-122209608D03*
X122132715Y-122209608D03*
X119592715Y-122209608D03*
X117052715Y-122209608D03*
X114512715Y-122209608D03*
X111972715Y-122209608D03*
X109432715Y-122209608D03*
X106892715Y-122209608D03*
X104352715Y-122209608D03*
X101812715Y-122209608D03*
%TD*%
D40*
%TO.C,PWR1*%
X82698099Y-129040091D03*
X82698099Y-134820091D03*
D41*
X83773099Y-128730091D03*
X83773099Y-129530091D03*
D42*
X83773099Y-130680092D03*
X83773099Y-131680091D03*
X83773099Y-132180091D03*
X83773098Y-133180091D03*
D41*
X83773099Y-135130091D03*
X83773099Y-134330091D03*
D42*
X83773099Y-133680091D03*
X83773099Y-132680091D03*
X83773099Y-131180091D03*
X83773099Y-130180091D03*
D43*
X79018099Y-127610091D03*
X79018099Y-136250091D03*
D44*
X83198099Y-127610091D03*
X83198099Y-136250091D03*
%TD*%
D10*
%TO.C,OP2*%
X115203599Y-65562491D03*
D11*
X115203599Y-68102491D03*
X115203599Y-70642490D03*
%TD*%
D36*
%TO.C,C5*%
X104268599Y-73566491D03*
X105818599Y-73566491D03*
%TD*%
D45*
%TO.C,U1*%
X109615599Y-68930491D03*
X109615599Y-68130491D03*
X109615599Y-67330491D03*
X109615599Y-66530491D03*
X109615599Y-65730491D03*
X109615599Y-64930491D03*
X109615599Y-64130491D03*
X109615599Y-63330491D03*
X109615599Y-62530491D03*
X109615599Y-61730491D03*
X109615599Y-60930491D03*
D46*
X107953099Y-59267991D03*
X107153099Y-59267991D03*
X106353099Y-59267991D03*
X105553099Y-59267991D03*
X104753099Y-59267991D03*
X103953099Y-59267991D03*
X103153099Y-59267991D03*
X102353099Y-59267991D03*
X101553099Y-59267991D03*
X100753099Y-59267991D03*
X99953099Y-59267991D03*
D45*
X98290599Y-60930491D03*
X98290599Y-61730491D03*
X98290599Y-62530491D03*
X98290599Y-63330491D03*
X98290599Y-64130491D03*
X98290599Y-64930491D03*
X98290599Y-65730491D03*
X98290599Y-66530491D03*
X98290599Y-67330491D03*
X98290599Y-68130491D03*
X98290599Y-68930491D03*
D46*
X99953099Y-70592991D03*
X100753099Y-70592991D03*
X101553099Y-70592991D03*
X102353099Y-70592991D03*
X103153099Y-70592991D03*
X103953099Y-70592991D03*
X104753099Y-70592991D03*
X105553099Y-70592991D03*
X106353099Y-70592991D03*
X107153099Y-70592991D03*
X107953099Y-70592991D03*
%TD*%
D10*
%TO.C,J4*%
X115649479Y-143162491D03*
D11*
X115649479Y-140622491D03*
X118189479Y-143162491D03*
X118189479Y-140622491D03*
X120729478Y-143162491D03*
X120729479Y-140622491D03*
X123269479Y-143162491D03*
X123269479Y-140622491D03*
%TD*%
D20*
%TO.C,R5*%
X194466744Y-54287480D03*
X192641744Y-54287480D03*
%TD*%
D47*
%TO.C,C3*%
X159145599Y-94045991D03*
X159145599Y-87630991D03*
%TD*%
D18*
%TO.C,H2*%
X108350759Y-47072131D03*
%TD*%
D48*
%TO.C,JP5*%
X148731599Y-68502491D03*
D49*
X148731599Y-70502492D03*
%TD*%
D50*
%TO.C,D2*%
X93420799Y-86314991D03*
X94720799Y-86314991D03*
X94070799Y-84439990D03*
%TD*%
M02*
