%TF.GenerationSoftware,KiCad,Pcbnew,9.0.9*%
%TF.CreationDate,2026-08-16T12:20:23-07:00*%
%TF.ProjectId,ZID_EXP_BP,5a49445f-4558-4505-9f42-502e6b696361,PR 1.0*%
%TF.SameCoordinates,Original*%
%TF.FileFunction,Paste,Top*%
%TF.FilePolarity,Positive*%
%FSLAX46Y46*%
G04 Gerber Fmt 4.6, Leading zero omitted, Abs format (unit mm)*
G04 Created by KiCad (PCBNEW 9.0.9) date 2026-08-16 12:20:23*
%MOMM*%
%LPD*%
G01*
G04 APERTURE LIST*
G04 Aperture macros list*
%AMRoundRect*
0 Rectangle with rounded corners*
0 $1 Rounding radius*
0 $2 $3 $4 $5 $6 $7 $8 $9 X,Y pos of 4 corners*
0 Add a 4 corners polygon primitive as box body*
4,1,4,$2,$3,$4,$5,$6,$7,$8,$9,$2,$3,0*
0 Add four circle primitives for the rounded corners*
1,1,$1+$1,$2,$3*
1,1,$1+$1,$4,$5*
1,1,$1+$1,$6,$7*
1,1,$1+$1,$8,$9*
0 Add four rect primitives between the rounded corners*
20,1,$1+$1,$2,$3,$4,$5,0*
20,1,$1+$1,$4,$5,$6,$7,0*
20,1,$1+$1,$6,$7,$8,$9,0*
20,1,$1+$1,$8,$9,$2,$3,0*%
G04 Aperture macros list end*
%ADD10RoundRect,0.250000X-0.262500X-0.450000X0.262500X-0.450000X0.262500X0.450000X-0.262500X0.450000X0*%
%ADD11R,0.300000X1.300000*%
%ADD12R,2.000000X1.800000*%
%ADD13RoundRect,0.225000X0.250000X-0.225000X0.250000X0.225000X-0.250000X0.225000X-0.250000X-0.225000X0*%
%ADD14RoundRect,0.250000X-0.450000X0.350000X-0.450000X-0.350000X0.450000X-0.350000X0.450000X0.350000X0*%
%ADD15RoundRect,0.250000X0.262500X0.450000X-0.262500X0.450000X-0.262500X-0.450000X0.262500X-0.450000X0*%
%ADD16RoundRect,0.250000X0.450000X-0.262500X0.450000X0.262500X-0.450000X0.262500X-0.450000X-0.262500X0*%
%ADD17RoundRect,0.250000X0.450000X-0.350000X0.450000X0.350000X-0.450000X0.350000X-0.450000X-0.350000X0*%
%ADD18RoundRect,0.250000X0.412500X1.100000X-0.412500X1.100000X-0.412500X-1.100000X0.412500X-1.100000X0*%
%ADD19RoundRect,0.250000X-0.350000X-0.450000X0.350000X-0.450000X0.350000X0.450000X-0.350000X0.450000X0*%
%ADD20RoundRect,0.225000X-0.250000X0.225000X-0.250000X-0.225000X0.250000X-0.225000X0.250000X0.225000X0*%
%ADD21RoundRect,0.150000X0.512500X0.150000X-0.512500X0.150000X-0.512500X-0.150000X0.512500X-0.150000X0*%
%ADD22RoundRect,0.225000X0.225000X0.250000X-0.225000X0.250000X-0.225000X-0.250000X0.225000X-0.250000X0*%
%ADD23RoundRect,0.250000X0.350000X0.450000X-0.350000X0.450000X-0.350000X-0.450000X0.350000X-0.450000X0*%
%ADD24RoundRect,0.225000X-0.225000X-0.250000X0.225000X-0.250000X0.225000X0.250000X-0.225000X0.250000X0*%
%ADD25RoundRect,0.250000X0.650000X-1.000000X0.650000X1.000000X-0.650000X1.000000X-0.650000X-1.000000X0*%
%ADD26R,1.150000X0.600000*%
%ADD27R,1.150000X0.300000*%
%ADD28RoundRect,0.137500X0.600000X0.137500X-0.600000X0.137500X-0.600000X-0.137500X0.600000X-0.137500X0*%
%ADD29RoundRect,0.137500X0.137500X0.600000X-0.137500X0.600000X-0.137500X-0.600000X0.137500X-0.600000X0*%
%ADD30RoundRect,0.250001X1.044999X-0.872499X1.044999X0.872499X-1.044999X0.872499X-1.044999X-0.872499X0*%
%ADD31RoundRect,0.125000X0.125000X-0.487500X0.125000X0.487500X-0.125000X0.487500X-0.125000X-0.487500X0*%
G04 APERTURE END LIST*
D10*
%TO.C,R3*%
X192641744Y-59342491D03*
X194466744Y-59342491D03*
%TD*%
D11*
%TO.C,J1*%
X131361599Y-139280491D03*
X131861599Y-139280491D03*
X132361599Y-139280491D03*
X132861599Y-139280491D03*
X133361599Y-139280491D03*
X133861599Y-139280491D03*
X134361599Y-139280491D03*
X134861599Y-139280491D03*
X135361599Y-139280491D03*
X135861599Y-139280491D03*
X136361599Y-139280491D03*
X136861599Y-139280491D03*
X137361599Y-139280491D03*
X137861599Y-139280491D03*
X138361599Y-139280491D03*
X138861599Y-139280491D03*
X139361599Y-139280491D03*
X139861599Y-139280491D03*
X140361599Y-139280491D03*
X140861599Y-139280491D03*
X141361599Y-139280491D03*
X141861599Y-139280491D03*
X142361599Y-139280491D03*
X142861599Y-139280491D03*
X143361599Y-139280491D03*
X143861599Y-139280491D03*
X144361599Y-139280491D03*
X144861599Y-139280491D03*
X145361599Y-139280491D03*
X145861599Y-139280491D03*
X146361599Y-139280491D03*
X146861599Y-139280491D03*
X147361599Y-139280491D03*
X147861599Y-139280491D03*
X148361599Y-139280491D03*
X148861599Y-139280491D03*
X149361599Y-139280491D03*
X149861599Y-139280491D03*
X150361599Y-139280491D03*
X150861599Y-139280491D03*
D12*
X129557999Y-142011291D03*
X152665199Y-142011291D03*
%TD*%
D13*
%TO.C,C6*%
X112663599Y-64181491D03*
X112663599Y-62631491D03*
%TD*%
D14*
%TO.C,R1*%
X198261599Y-106602491D03*
X198261599Y-108602491D03*
%TD*%
D15*
%TO.C,R11*%
X89192099Y-53246491D03*
X87367099Y-53246491D03*
%TD*%
D16*
%TO.C,R10*%
X94883599Y-54666991D03*
X94883599Y-52841991D03*
%TD*%
%TO.C,R12*%
X98439599Y-54666991D03*
X98439599Y-52841991D03*
%TD*%
D17*
%TO.C,R16*%
X96153599Y-79900491D03*
X96153599Y-77900491D03*
%TD*%
D16*
%TO.C,R13*%
X101995599Y-54666991D03*
X101995599Y-52841991D03*
%TD*%
D18*
%TO.C,C1*%
X178156795Y-62675080D03*
X175031795Y-62675080D03*
%TD*%
D19*
%TO.C,R14*%
X79024599Y-123401291D03*
X81024599Y-123401291D03*
%TD*%
%TO.C,R8*%
X86771599Y-78900491D03*
X88771599Y-78900491D03*
%TD*%
D20*
%TO.C,C4*%
X95899599Y-62644491D03*
X95899599Y-64194491D03*
%TD*%
D19*
%TO.C,R15*%
X95915599Y-57310491D03*
X97915599Y-57310491D03*
%TD*%
D21*
%TO.C,Q1*%
X178175192Y-57417516D03*
X178175192Y-55517518D03*
X175900192Y-56467517D03*
%TD*%
D22*
%TO.C,C7*%
X105564599Y-54770491D03*
X104014599Y-54770491D03*
%TD*%
D23*
%TO.C,R7*%
X84199599Y-78900491D03*
X82199599Y-78900491D03*
%TD*%
D16*
%TO.C,R6*%
X175147599Y-68382991D03*
X175147599Y-66557991D03*
%TD*%
D24*
%TO.C,C2*%
X186818599Y-54262491D03*
X188368599Y-54262491D03*
%TD*%
D14*
%TO.C,R9*%
X109361599Y-106602491D03*
X109361599Y-108602491D03*
%TD*%
D16*
%TO.C,R2*%
X181028268Y-63251908D03*
X181028268Y-61426908D03*
%TD*%
%TO.C,R4*%
X126125599Y-49840991D03*
X126125599Y-48015991D03*
%TD*%
D25*
%TO.C,D1*%
X160212399Y-113920492D03*
X160212399Y-109920490D03*
%TD*%
D26*
%TO.C,PWR1*%
X83773099Y-128730091D03*
X83773099Y-129530091D03*
D27*
X83773099Y-130680092D03*
X83773099Y-131680091D03*
X83773099Y-132180091D03*
X83773098Y-133180091D03*
D26*
X83773099Y-135130091D03*
X83773099Y-134330091D03*
D27*
X83773099Y-133680091D03*
X83773099Y-132680091D03*
X83773099Y-131180091D03*
X83773099Y-130180091D03*
%TD*%
D24*
%TO.C,C5*%
X104268599Y-73566491D03*
X105818599Y-73566491D03*
%TD*%
D28*
%TO.C,U1*%
X109615599Y-68930491D03*
X109615599Y-68130491D03*
X109615599Y-67330491D03*
X109615599Y-66530491D03*
X109615599Y-65730491D03*
X109615599Y-64930491D03*
X109615599Y-64130491D03*
X109615599Y-63330491D03*
X109615599Y-62530491D03*
X109615599Y-61730491D03*
X109615599Y-60930491D03*
D29*
X107953099Y-59267991D03*
X107153099Y-59267991D03*
X106353099Y-59267991D03*
X105553099Y-59267991D03*
X104753099Y-59267991D03*
X103953099Y-59267991D03*
X103153099Y-59267991D03*
X102353099Y-59267991D03*
X101553099Y-59267991D03*
X100753099Y-59267991D03*
X99953099Y-59267991D03*
D28*
X98290599Y-60930491D03*
X98290599Y-61730491D03*
X98290599Y-62530491D03*
X98290599Y-63330491D03*
X98290599Y-64130491D03*
X98290599Y-64930491D03*
X98290599Y-65730491D03*
X98290599Y-66530491D03*
X98290599Y-67330491D03*
X98290599Y-68130491D03*
X98290599Y-68930491D03*
D29*
X99953099Y-70592991D03*
X100753099Y-70592991D03*
X101553099Y-70592991D03*
X102353099Y-70592991D03*
X103153099Y-70592991D03*
X103953099Y-70592991D03*
X104753099Y-70592991D03*
X105553099Y-70592991D03*
X106353099Y-70592991D03*
X107153099Y-70592991D03*
X107953099Y-70592991D03*
%TD*%
D15*
%TO.C,R5*%
X194466744Y-54287480D03*
X192641744Y-54287480D03*
%TD*%
D30*
%TO.C,C3*%
X159145599Y-94045991D03*
X159145599Y-87630991D03*
%TD*%
D31*
%TO.C,D2*%
X93420799Y-86314991D03*
X94720799Y-86314991D03*
X94070799Y-84439990D03*
%TD*%
M02*
