%TF.GenerationSoftware,KiCad,Pcbnew,9.0.9*%
%TF.CreationDate,2026-08-16T19:39:25-07:00*%
%TF.ProjectId,ZID_EXP_BP,5a49445f-4558-4505-9f42-502e6b696361,PR 1.0*%
%TF.SameCoordinates,Original*%
%TF.FileFunction,Legend,Bot*%
%TF.FilePolarity,Positive*%
%FSLAX46Y46*%
G04 Gerber Fmt 4.6, Leading zero omitted, Abs format (unit mm)*
G04 Created by KiCad (PCBNEW 9.0.9) date 2026-08-16 19:39:25*
%MOMM*%
%LPD*%
G01*
G04 APERTURE LIST*
%ADD10C,0.158750*%
%ADD11C,0.100000*%
%ADD12C,0.150000*%
G04 APERTURE END LIST*
D10*
X178523954Y-51748814D02*
X178463478Y-51688338D01*
X178463478Y-51688338D02*
X178342525Y-51627862D01*
X178342525Y-51627862D02*
X178040144Y-51627862D01*
X178040144Y-51627862D02*
X177919192Y-51688338D01*
X177919192Y-51688338D02*
X177858716Y-51748814D01*
X177858716Y-51748814D02*
X177798239Y-51869766D01*
X177798239Y-51869766D02*
X177798239Y-51990719D01*
X177798239Y-51990719D02*
X177858716Y-52172147D01*
X177858716Y-52172147D02*
X178584430Y-52897862D01*
X178584430Y-52897862D02*
X177798239Y-52897862D01*
X177253954Y-52414052D02*
X176286335Y-52414052D01*
X175802525Y-51627862D02*
X175016334Y-51627862D01*
X175016334Y-51627862D02*
X175439668Y-52111671D01*
X175439668Y-52111671D02*
X175258239Y-52111671D01*
X175258239Y-52111671D02*
X175137287Y-52172147D01*
X175137287Y-52172147D02*
X175076811Y-52232624D01*
X175076811Y-52232624D02*
X175016334Y-52353576D01*
X175016334Y-52353576D02*
X175016334Y-52655957D01*
X175016334Y-52655957D02*
X175076811Y-52776909D01*
X175076811Y-52776909D02*
X175137287Y-52837386D01*
X175137287Y-52837386D02*
X175258239Y-52897862D01*
X175258239Y-52897862D02*
X175621096Y-52897862D01*
X175621096Y-52897862D02*
X175742049Y-52837386D01*
X175742049Y-52837386D02*
X175802525Y-52776909D01*
X184757839Y-52897862D02*
X185483554Y-52897862D01*
X185120697Y-52897862D02*
X185120697Y-51627862D01*
X185120697Y-51627862D02*
X185241649Y-51809290D01*
X185241649Y-51809290D02*
X185362601Y-51930243D01*
X185362601Y-51930243D02*
X185483554Y-51990719D01*
X184213554Y-52414052D02*
X183245935Y-52414052D01*
X182701649Y-51748814D02*
X182641173Y-51688338D01*
X182641173Y-51688338D02*
X182520220Y-51627862D01*
X182520220Y-51627862D02*
X182217839Y-51627862D01*
X182217839Y-51627862D02*
X182096887Y-51688338D01*
X182096887Y-51688338D02*
X182036411Y-51748814D01*
X182036411Y-51748814D02*
X181975934Y-51869766D01*
X181975934Y-51869766D02*
X181975934Y-51990719D01*
X181975934Y-51990719D02*
X182036411Y-52172147D01*
X182036411Y-52172147D02*
X182762125Y-52897862D01*
X182762125Y-52897862D02*
X181975934Y-52897862D01*
X201310173Y-51627862D02*
X201068268Y-51627862D01*
X201068268Y-51627862D02*
X200947316Y-51688338D01*
X200947316Y-51688338D02*
X200826363Y-51809290D01*
X200826363Y-51809290D02*
X200765887Y-52051195D01*
X200765887Y-52051195D02*
X200765887Y-52474528D01*
X200765887Y-52474528D02*
X200826363Y-52716433D01*
X200826363Y-52716433D02*
X200947316Y-52837386D01*
X200947316Y-52837386D02*
X201068268Y-52897862D01*
X201068268Y-52897862D02*
X201310173Y-52897862D01*
X201310173Y-52897862D02*
X201431125Y-52837386D01*
X201431125Y-52837386D02*
X201552078Y-52716433D01*
X201552078Y-52716433D02*
X201612554Y-52474528D01*
X201612554Y-52474528D02*
X201612554Y-52051195D01*
X201612554Y-52051195D02*
X201552078Y-51809290D01*
X201552078Y-51809290D02*
X201431125Y-51688338D01*
X201431125Y-51688338D02*
X201310173Y-51627862D01*
X200221602Y-52897862D02*
X200221602Y-51627862D01*
X200221602Y-51627862D02*
X199737792Y-51627862D01*
X199737792Y-51627862D02*
X199616840Y-51688338D01*
X199616840Y-51688338D02*
X199556363Y-51748814D01*
X199556363Y-51748814D02*
X199495887Y-51869766D01*
X199495887Y-51869766D02*
X199495887Y-52051195D01*
X199495887Y-52051195D02*
X199556363Y-52172147D01*
X199556363Y-52172147D02*
X199616840Y-52232624D01*
X199616840Y-52232624D02*
X199737792Y-52293100D01*
X199737792Y-52293100D02*
X200221602Y-52293100D01*
X199133030Y-51627862D02*
X198407316Y-51627862D01*
X198770173Y-52897862D02*
X198770173Y-51627862D01*
X197983983Y-52897862D02*
X197983983Y-51627862D01*
X197137316Y-51627862D02*
X196895411Y-51627862D01*
X196895411Y-51627862D02*
X196774459Y-51688338D01*
X196774459Y-51688338D02*
X196653506Y-51809290D01*
X196653506Y-51809290D02*
X196593030Y-52051195D01*
X196593030Y-52051195D02*
X196593030Y-52474528D01*
X196593030Y-52474528D02*
X196653506Y-52716433D01*
X196653506Y-52716433D02*
X196774459Y-52837386D01*
X196774459Y-52837386D02*
X196895411Y-52897862D01*
X196895411Y-52897862D02*
X197137316Y-52897862D01*
X197137316Y-52897862D02*
X197258268Y-52837386D01*
X197258268Y-52837386D02*
X197379221Y-52716433D01*
X197379221Y-52716433D02*
X197439697Y-52474528D01*
X197439697Y-52474528D02*
X197439697Y-52051195D01*
X197439697Y-52051195D02*
X197379221Y-51809290D01*
X197379221Y-51809290D02*
X197258268Y-51688338D01*
X197258268Y-51688338D02*
X197137316Y-51627862D01*
X196048745Y-52897862D02*
X196048745Y-51627862D01*
X196048745Y-51627862D02*
X195323030Y-52897862D01*
X195323030Y-52897862D02*
X195323030Y-51627862D01*
X193811126Y-51567386D02*
X194899697Y-53200243D01*
X193448269Y-52837386D02*
X193266840Y-52897862D01*
X193266840Y-52897862D02*
X192964459Y-52897862D01*
X192964459Y-52897862D02*
X192843507Y-52837386D01*
X192843507Y-52837386D02*
X192783031Y-52776909D01*
X192783031Y-52776909D02*
X192722554Y-52655957D01*
X192722554Y-52655957D02*
X192722554Y-52535005D01*
X192722554Y-52535005D02*
X192783031Y-52414052D01*
X192783031Y-52414052D02*
X192843507Y-52353576D01*
X192843507Y-52353576D02*
X192964459Y-52293100D01*
X192964459Y-52293100D02*
X193206364Y-52232624D01*
X193206364Y-52232624D02*
X193327316Y-52172147D01*
X193327316Y-52172147D02*
X193387793Y-52111671D01*
X193387793Y-52111671D02*
X193448269Y-51990719D01*
X193448269Y-51990719D02*
X193448269Y-51869766D01*
X193448269Y-51869766D02*
X193387793Y-51748814D01*
X193387793Y-51748814D02*
X193327316Y-51688338D01*
X193327316Y-51688338D02*
X193206364Y-51627862D01*
X193206364Y-51627862D02*
X192903983Y-51627862D01*
X192903983Y-51627862D02*
X192722554Y-51688338D01*
X192178269Y-52897862D02*
X192178269Y-51627862D01*
X190908268Y-51688338D02*
X191029221Y-51627862D01*
X191029221Y-51627862D02*
X191210649Y-51627862D01*
X191210649Y-51627862D02*
X191392078Y-51688338D01*
X191392078Y-51688338D02*
X191513030Y-51809290D01*
X191513030Y-51809290D02*
X191573507Y-51930243D01*
X191573507Y-51930243D02*
X191633983Y-52172147D01*
X191633983Y-52172147D02*
X191633983Y-52353576D01*
X191633983Y-52353576D02*
X191573507Y-52595481D01*
X191573507Y-52595481D02*
X191513030Y-52716433D01*
X191513030Y-52716433D02*
X191392078Y-52837386D01*
X191392078Y-52837386D02*
X191210649Y-52897862D01*
X191210649Y-52897862D02*
X191089697Y-52897862D01*
X191089697Y-52897862D02*
X190908268Y-52837386D01*
X190908268Y-52837386D02*
X190847792Y-52776909D01*
X190847792Y-52776909D02*
X190847792Y-52353576D01*
X190847792Y-52353576D02*
X191089697Y-52353576D01*
X190303507Y-52897862D02*
X190303507Y-51627862D01*
X190303507Y-51627862D02*
X189577792Y-52897862D01*
X189577792Y-52897862D02*
X189577792Y-51627862D01*
X189033507Y-52535005D02*
X188428745Y-52535005D01*
X189154459Y-52897862D02*
X188731126Y-51627862D01*
X188731126Y-51627862D02*
X188307792Y-52897862D01*
X187279698Y-52897862D02*
X187884460Y-52897862D01*
X187884460Y-52897862D02*
X187884460Y-51627862D01*
X178463478Y-54650462D02*
X178463478Y-55678557D01*
X178463478Y-55678557D02*
X178403001Y-55799509D01*
X178403001Y-55799509D02*
X178342525Y-55859986D01*
X178342525Y-55859986D02*
X178221573Y-55920462D01*
X178221573Y-55920462D02*
X177979668Y-55920462D01*
X177979668Y-55920462D02*
X177858716Y-55859986D01*
X177858716Y-55859986D02*
X177798239Y-55799509D01*
X177798239Y-55799509D02*
X177737763Y-55678557D01*
X177737763Y-55678557D02*
X177737763Y-54650462D01*
X177193478Y-55859986D02*
X177012049Y-55920462D01*
X177012049Y-55920462D02*
X176709668Y-55920462D01*
X176709668Y-55920462D02*
X176588716Y-55859986D01*
X176588716Y-55859986D02*
X176528240Y-55799509D01*
X176528240Y-55799509D02*
X176467763Y-55678557D01*
X176467763Y-55678557D02*
X176467763Y-55557605D01*
X176467763Y-55557605D02*
X176528240Y-55436652D01*
X176528240Y-55436652D02*
X176588716Y-55376176D01*
X176588716Y-55376176D02*
X176709668Y-55315700D01*
X176709668Y-55315700D02*
X176951573Y-55255224D01*
X176951573Y-55255224D02*
X177072525Y-55194747D01*
X177072525Y-55194747D02*
X177133002Y-55134271D01*
X177133002Y-55134271D02*
X177193478Y-55013319D01*
X177193478Y-55013319D02*
X177193478Y-54892366D01*
X177193478Y-54892366D02*
X177133002Y-54771414D01*
X177133002Y-54771414D02*
X177072525Y-54710938D01*
X177072525Y-54710938D02*
X176951573Y-54650462D01*
X176951573Y-54650462D02*
X176649192Y-54650462D01*
X176649192Y-54650462D02*
X176467763Y-54710938D01*
X175197763Y-55920462D02*
X175621097Y-55315700D01*
X175923478Y-55920462D02*
X175923478Y-54650462D01*
X175923478Y-54650462D02*
X175439668Y-54650462D01*
X175439668Y-54650462D02*
X175318716Y-54710938D01*
X175318716Y-54710938D02*
X175258239Y-54771414D01*
X175258239Y-54771414D02*
X175197763Y-54892366D01*
X175197763Y-54892366D02*
X175197763Y-55073795D01*
X175197763Y-55073795D02*
X175258239Y-55194747D01*
X175258239Y-55194747D02*
X175318716Y-55255224D01*
X175318716Y-55255224D02*
X175439668Y-55315700D01*
X175439668Y-55315700D02*
X175923478Y-55315700D01*
X174472049Y-55194747D02*
X174593001Y-55134271D01*
X174593001Y-55134271D02*
X174653478Y-55073795D01*
X174653478Y-55073795D02*
X174713954Y-54952843D01*
X174713954Y-54952843D02*
X174713954Y-54892366D01*
X174713954Y-54892366D02*
X174653478Y-54771414D01*
X174653478Y-54771414D02*
X174593001Y-54710938D01*
X174593001Y-54710938D02*
X174472049Y-54650462D01*
X174472049Y-54650462D02*
X174230144Y-54650462D01*
X174230144Y-54650462D02*
X174109192Y-54710938D01*
X174109192Y-54710938D02*
X174048716Y-54771414D01*
X174048716Y-54771414D02*
X173988239Y-54892366D01*
X173988239Y-54892366D02*
X173988239Y-54952843D01*
X173988239Y-54952843D02*
X174048716Y-55073795D01*
X174048716Y-55073795D02*
X174109192Y-55134271D01*
X174109192Y-55134271D02*
X174230144Y-55194747D01*
X174230144Y-55194747D02*
X174472049Y-55194747D01*
X174472049Y-55194747D02*
X174593001Y-55255224D01*
X174593001Y-55255224D02*
X174653478Y-55315700D01*
X174653478Y-55315700D02*
X174713954Y-55436652D01*
X174713954Y-55436652D02*
X174713954Y-55678557D01*
X174713954Y-55678557D02*
X174653478Y-55799509D01*
X174653478Y-55799509D02*
X174593001Y-55859986D01*
X174593001Y-55859986D02*
X174472049Y-55920462D01*
X174472049Y-55920462D02*
X174230144Y-55920462D01*
X174230144Y-55920462D02*
X174109192Y-55859986D01*
X174109192Y-55859986D02*
X174048716Y-55799509D01*
X174048716Y-55799509D02*
X173988239Y-55678557D01*
X173988239Y-55678557D02*
X173988239Y-55436652D01*
X173988239Y-55436652D02*
X174048716Y-55315700D01*
X174048716Y-55315700D02*
X174109192Y-55255224D01*
X174109192Y-55255224D02*
X174230144Y-55194747D01*
X185423078Y-54650462D02*
X185423078Y-55678557D01*
X185423078Y-55678557D02*
X185362601Y-55799509D01*
X185362601Y-55799509D02*
X185302125Y-55859986D01*
X185302125Y-55859986D02*
X185181173Y-55920462D01*
X185181173Y-55920462D02*
X184939268Y-55920462D01*
X184939268Y-55920462D02*
X184818316Y-55859986D01*
X184818316Y-55859986D02*
X184757839Y-55799509D01*
X184757839Y-55799509D02*
X184697363Y-55678557D01*
X184697363Y-55678557D02*
X184697363Y-54650462D01*
X184153078Y-55859986D02*
X183971649Y-55920462D01*
X183971649Y-55920462D02*
X183669268Y-55920462D01*
X183669268Y-55920462D02*
X183548316Y-55859986D01*
X183548316Y-55859986D02*
X183487840Y-55799509D01*
X183487840Y-55799509D02*
X183427363Y-55678557D01*
X183427363Y-55678557D02*
X183427363Y-55557605D01*
X183427363Y-55557605D02*
X183487840Y-55436652D01*
X183487840Y-55436652D02*
X183548316Y-55376176D01*
X183548316Y-55376176D02*
X183669268Y-55315700D01*
X183669268Y-55315700D02*
X183911173Y-55255224D01*
X183911173Y-55255224D02*
X184032125Y-55194747D01*
X184032125Y-55194747D02*
X184092602Y-55134271D01*
X184092602Y-55134271D02*
X184153078Y-55013319D01*
X184153078Y-55013319D02*
X184153078Y-54892366D01*
X184153078Y-54892366D02*
X184092602Y-54771414D01*
X184092602Y-54771414D02*
X184032125Y-54710938D01*
X184032125Y-54710938D02*
X183911173Y-54650462D01*
X183911173Y-54650462D02*
X183608792Y-54650462D01*
X183608792Y-54650462D02*
X183427363Y-54710938D01*
X182157363Y-55920462D02*
X182580697Y-55315700D01*
X182883078Y-55920462D02*
X182883078Y-54650462D01*
X182883078Y-54650462D02*
X182399268Y-54650462D01*
X182399268Y-54650462D02*
X182278316Y-54710938D01*
X182278316Y-54710938D02*
X182217839Y-54771414D01*
X182217839Y-54771414D02*
X182157363Y-54892366D01*
X182157363Y-54892366D02*
X182157363Y-55073795D01*
X182157363Y-55073795D02*
X182217839Y-55194747D01*
X182217839Y-55194747D02*
X182278316Y-55255224D01*
X182278316Y-55255224D02*
X182399268Y-55315700D01*
X182399268Y-55315700D02*
X182883078Y-55315700D01*
X181068792Y-55073795D02*
X181068792Y-55920462D01*
X181371173Y-54589986D02*
X181673554Y-55497128D01*
X181673554Y-55497128D02*
X180887363Y-55497128D01*
X201310173Y-54650462D02*
X201068268Y-54650462D01*
X201068268Y-54650462D02*
X200947316Y-54710938D01*
X200947316Y-54710938D02*
X200826363Y-54831890D01*
X200826363Y-54831890D02*
X200765887Y-55073795D01*
X200765887Y-55073795D02*
X200765887Y-55497128D01*
X200765887Y-55497128D02*
X200826363Y-55739033D01*
X200826363Y-55739033D02*
X200947316Y-55859986D01*
X200947316Y-55859986D02*
X201068268Y-55920462D01*
X201068268Y-55920462D02*
X201310173Y-55920462D01*
X201310173Y-55920462D02*
X201431125Y-55859986D01*
X201431125Y-55859986D02*
X201552078Y-55739033D01*
X201552078Y-55739033D02*
X201612554Y-55497128D01*
X201612554Y-55497128D02*
X201612554Y-55073795D01*
X201612554Y-55073795D02*
X201552078Y-54831890D01*
X201552078Y-54831890D02*
X201431125Y-54710938D01*
X201431125Y-54710938D02*
X201310173Y-54650462D01*
X200221602Y-55920462D02*
X200221602Y-54650462D01*
X200221602Y-54650462D02*
X199737792Y-54650462D01*
X199737792Y-54650462D02*
X199616840Y-54710938D01*
X199616840Y-54710938D02*
X199556363Y-54771414D01*
X199556363Y-54771414D02*
X199495887Y-54892366D01*
X199495887Y-54892366D02*
X199495887Y-55073795D01*
X199495887Y-55073795D02*
X199556363Y-55194747D01*
X199556363Y-55194747D02*
X199616840Y-55255224D01*
X199616840Y-55255224D02*
X199737792Y-55315700D01*
X199737792Y-55315700D02*
X200221602Y-55315700D01*
X199012078Y-54771414D02*
X198951602Y-54710938D01*
X198951602Y-54710938D02*
X198830649Y-54650462D01*
X198830649Y-54650462D02*
X198528268Y-54650462D01*
X198528268Y-54650462D02*
X198407316Y-54710938D01*
X198407316Y-54710938D02*
X198346840Y-54771414D01*
X198346840Y-54771414D02*
X198286363Y-54892366D01*
X198286363Y-54892366D02*
X198286363Y-55013319D01*
X198286363Y-55013319D02*
X198346840Y-55194747D01*
X198346840Y-55194747D02*
X199072554Y-55920462D01*
X199072554Y-55920462D02*
X198286363Y-55920462D01*
X196834935Y-54589986D02*
X197923506Y-56222843D01*
X196472078Y-55859986D02*
X196290649Y-55920462D01*
X196290649Y-55920462D02*
X195988268Y-55920462D01*
X195988268Y-55920462D02*
X195867316Y-55859986D01*
X195867316Y-55859986D02*
X195806840Y-55799509D01*
X195806840Y-55799509D02*
X195746363Y-55678557D01*
X195746363Y-55678557D02*
X195746363Y-55557605D01*
X195746363Y-55557605D02*
X195806840Y-55436652D01*
X195806840Y-55436652D02*
X195867316Y-55376176D01*
X195867316Y-55376176D02*
X195988268Y-55315700D01*
X195988268Y-55315700D02*
X196230173Y-55255224D01*
X196230173Y-55255224D02*
X196351125Y-55194747D01*
X196351125Y-55194747D02*
X196411602Y-55134271D01*
X196411602Y-55134271D02*
X196472078Y-55013319D01*
X196472078Y-55013319D02*
X196472078Y-54892366D01*
X196472078Y-54892366D02*
X196411602Y-54771414D01*
X196411602Y-54771414D02*
X196351125Y-54710938D01*
X196351125Y-54710938D02*
X196230173Y-54650462D01*
X196230173Y-54650462D02*
X195927792Y-54650462D01*
X195927792Y-54650462D02*
X195746363Y-54710938D01*
X194778744Y-55255224D02*
X194597316Y-55315700D01*
X194597316Y-55315700D02*
X194536839Y-55376176D01*
X194536839Y-55376176D02*
X194476363Y-55497128D01*
X194476363Y-55497128D02*
X194476363Y-55678557D01*
X194476363Y-55678557D02*
X194536839Y-55799509D01*
X194536839Y-55799509D02*
X194597316Y-55859986D01*
X194597316Y-55859986D02*
X194718268Y-55920462D01*
X194718268Y-55920462D02*
X195202078Y-55920462D01*
X195202078Y-55920462D02*
X195202078Y-54650462D01*
X195202078Y-54650462D02*
X194778744Y-54650462D01*
X194778744Y-54650462D02*
X194657792Y-54710938D01*
X194657792Y-54710938D02*
X194597316Y-54771414D01*
X194597316Y-54771414D02*
X194536839Y-54892366D01*
X194536839Y-54892366D02*
X194536839Y-55013319D01*
X194536839Y-55013319D02*
X194597316Y-55134271D01*
X194597316Y-55134271D02*
X194657792Y-55194747D01*
X194657792Y-55194747D02*
X194778744Y-55255224D01*
X194778744Y-55255224D02*
X195202078Y-55255224D01*
X193206363Y-55799509D02*
X193266839Y-55859986D01*
X193266839Y-55859986D02*
X193448268Y-55920462D01*
X193448268Y-55920462D02*
X193569220Y-55920462D01*
X193569220Y-55920462D02*
X193750649Y-55859986D01*
X193750649Y-55859986D02*
X193871601Y-55739033D01*
X193871601Y-55739033D02*
X193932078Y-55618081D01*
X193932078Y-55618081D02*
X193992554Y-55376176D01*
X193992554Y-55376176D02*
X193992554Y-55194747D01*
X193992554Y-55194747D02*
X193932078Y-54952843D01*
X193932078Y-54952843D02*
X193871601Y-54831890D01*
X193871601Y-54831890D02*
X193750649Y-54710938D01*
X193750649Y-54710938D02*
X193569220Y-54650462D01*
X193569220Y-54650462D02*
X193448268Y-54650462D01*
X193448268Y-54650462D02*
X193266839Y-54710938D01*
X193266839Y-54710938D02*
X193206363Y-54771414D01*
X192662078Y-55436652D02*
X191694459Y-55436652D01*
X190847792Y-54650462D02*
X190605887Y-54650462D01*
X190605887Y-54650462D02*
X190484935Y-54710938D01*
X190484935Y-54710938D02*
X190363982Y-54831890D01*
X190363982Y-54831890D02*
X190303506Y-55073795D01*
X190303506Y-55073795D02*
X190303506Y-55497128D01*
X190303506Y-55497128D02*
X190363982Y-55739033D01*
X190363982Y-55739033D02*
X190484935Y-55859986D01*
X190484935Y-55859986D02*
X190605887Y-55920462D01*
X190605887Y-55920462D02*
X190847792Y-55920462D01*
X190847792Y-55920462D02*
X190968744Y-55859986D01*
X190968744Y-55859986D02*
X191089697Y-55739033D01*
X191089697Y-55739033D02*
X191150173Y-55497128D01*
X191150173Y-55497128D02*
X191150173Y-55073795D01*
X191150173Y-55073795D02*
X191089697Y-54831890D01*
X191089697Y-54831890D02*
X190968744Y-54710938D01*
X190968744Y-54710938D02*
X190847792Y-54650462D01*
X189880173Y-54650462D02*
X189093982Y-54650462D01*
X189093982Y-54650462D02*
X189517316Y-55134271D01*
X189517316Y-55134271D02*
X189335887Y-55134271D01*
X189335887Y-55134271D02*
X189214935Y-55194747D01*
X189214935Y-55194747D02*
X189154459Y-55255224D01*
X189154459Y-55255224D02*
X189093982Y-55376176D01*
X189093982Y-55376176D02*
X189093982Y-55678557D01*
X189093982Y-55678557D02*
X189154459Y-55799509D01*
X189154459Y-55799509D02*
X189214935Y-55859986D01*
X189214935Y-55859986D02*
X189335887Y-55920462D01*
X189335887Y-55920462D02*
X189698744Y-55920462D01*
X189698744Y-55920462D02*
X189819697Y-55859986D01*
X189819697Y-55859986D02*
X189880173Y-55799509D01*
X178463478Y-57673062D02*
X178463478Y-58701157D01*
X178463478Y-58701157D02*
X178403001Y-58822109D01*
X178403001Y-58822109D02*
X178342525Y-58882586D01*
X178342525Y-58882586D02*
X178221573Y-58943062D01*
X178221573Y-58943062D02*
X177979668Y-58943062D01*
X177979668Y-58943062D02*
X177858716Y-58882586D01*
X177858716Y-58882586D02*
X177798239Y-58822109D01*
X177798239Y-58822109D02*
X177737763Y-58701157D01*
X177737763Y-58701157D02*
X177737763Y-57673062D01*
X177193478Y-58882586D02*
X177012049Y-58943062D01*
X177012049Y-58943062D02*
X176709668Y-58943062D01*
X176709668Y-58943062D02*
X176588716Y-58882586D01*
X176588716Y-58882586D02*
X176528240Y-58822109D01*
X176528240Y-58822109D02*
X176467763Y-58701157D01*
X176467763Y-58701157D02*
X176467763Y-58580205D01*
X176467763Y-58580205D02*
X176528240Y-58459252D01*
X176528240Y-58459252D02*
X176588716Y-58398776D01*
X176588716Y-58398776D02*
X176709668Y-58338300D01*
X176709668Y-58338300D02*
X176951573Y-58277824D01*
X176951573Y-58277824D02*
X177072525Y-58217347D01*
X177072525Y-58217347D02*
X177133002Y-58156871D01*
X177133002Y-58156871D02*
X177193478Y-58035919D01*
X177193478Y-58035919D02*
X177193478Y-57914966D01*
X177193478Y-57914966D02*
X177133002Y-57794014D01*
X177133002Y-57794014D02*
X177072525Y-57733538D01*
X177072525Y-57733538D02*
X176951573Y-57673062D01*
X176951573Y-57673062D02*
X176649192Y-57673062D01*
X176649192Y-57673062D02*
X176467763Y-57733538D01*
X175197763Y-58943062D02*
X175621097Y-58338300D01*
X175923478Y-58943062D02*
X175923478Y-57673062D01*
X175923478Y-57673062D02*
X175439668Y-57673062D01*
X175439668Y-57673062D02*
X175318716Y-57733538D01*
X175318716Y-57733538D02*
X175258239Y-57794014D01*
X175258239Y-57794014D02*
X175197763Y-57914966D01*
X175197763Y-57914966D02*
X175197763Y-58096395D01*
X175197763Y-58096395D02*
X175258239Y-58217347D01*
X175258239Y-58217347D02*
X175318716Y-58277824D01*
X175318716Y-58277824D02*
X175439668Y-58338300D01*
X175439668Y-58338300D02*
X175923478Y-58338300D01*
X174774430Y-57673062D02*
X173927763Y-57673062D01*
X173927763Y-57673062D02*
X174472049Y-58943062D01*
X184697363Y-58943062D02*
X185120697Y-58338300D01*
X185423078Y-58943062D02*
X185423078Y-57673062D01*
X185423078Y-57673062D02*
X184939268Y-57673062D01*
X184939268Y-57673062D02*
X184818316Y-57733538D01*
X184818316Y-57733538D02*
X184757839Y-57794014D01*
X184757839Y-57794014D02*
X184697363Y-57914966D01*
X184697363Y-57914966D02*
X184697363Y-58096395D01*
X184697363Y-58096395D02*
X184757839Y-58217347D01*
X184757839Y-58217347D02*
X184818316Y-58277824D01*
X184818316Y-58277824D02*
X184939268Y-58338300D01*
X184939268Y-58338300D02*
X185423078Y-58338300D01*
X184274030Y-57673062D02*
X183427363Y-58943062D01*
X183427363Y-57673062D02*
X184274030Y-58943062D01*
X201310173Y-57673062D02*
X201068268Y-57673062D01*
X201068268Y-57673062D02*
X200947316Y-57733538D01*
X200947316Y-57733538D02*
X200826363Y-57854490D01*
X200826363Y-57854490D02*
X200765887Y-58096395D01*
X200765887Y-58096395D02*
X200765887Y-58519728D01*
X200765887Y-58519728D02*
X200826363Y-58761633D01*
X200826363Y-58761633D02*
X200947316Y-58882586D01*
X200947316Y-58882586D02*
X201068268Y-58943062D01*
X201068268Y-58943062D02*
X201310173Y-58943062D01*
X201310173Y-58943062D02*
X201431125Y-58882586D01*
X201431125Y-58882586D02*
X201552078Y-58761633D01*
X201552078Y-58761633D02*
X201612554Y-58519728D01*
X201612554Y-58519728D02*
X201612554Y-58096395D01*
X201612554Y-58096395D02*
X201552078Y-57854490D01*
X201552078Y-57854490D02*
X201431125Y-57733538D01*
X201431125Y-57733538D02*
X201310173Y-57673062D01*
X200221602Y-58943062D02*
X200221602Y-57673062D01*
X200221602Y-57673062D02*
X199737792Y-57673062D01*
X199737792Y-57673062D02*
X199616840Y-57733538D01*
X199616840Y-57733538D02*
X199556363Y-57794014D01*
X199556363Y-57794014D02*
X199495887Y-57914966D01*
X199495887Y-57914966D02*
X199495887Y-58096395D01*
X199495887Y-58096395D02*
X199556363Y-58217347D01*
X199556363Y-58217347D02*
X199616840Y-58277824D01*
X199616840Y-58277824D02*
X199737792Y-58338300D01*
X199737792Y-58338300D02*
X200221602Y-58338300D01*
X199072554Y-57673062D02*
X198286363Y-57673062D01*
X198286363Y-57673062D02*
X198709697Y-58156871D01*
X198709697Y-58156871D02*
X198528268Y-58156871D01*
X198528268Y-58156871D02*
X198407316Y-58217347D01*
X198407316Y-58217347D02*
X198346840Y-58277824D01*
X198346840Y-58277824D02*
X198286363Y-58398776D01*
X198286363Y-58398776D02*
X198286363Y-58701157D01*
X198286363Y-58701157D02*
X198346840Y-58822109D01*
X198346840Y-58822109D02*
X198407316Y-58882586D01*
X198407316Y-58882586D02*
X198528268Y-58943062D01*
X198528268Y-58943062D02*
X198891125Y-58943062D01*
X198891125Y-58943062D02*
X199012078Y-58882586D01*
X199012078Y-58882586D02*
X199072554Y-58822109D01*
X196834935Y-57612586D02*
X197923506Y-59245443D01*
X196472078Y-58882586D02*
X196290649Y-58943062D01*
X196290649Y-58943062D02*
X195988268Y-58943062D01*
X195988268Y-58943062D02*
X195867316Y-58882586D01*
X195867316Y-58882586D02*
X195806840Y-58822109D01*
X195806840Y-58822109D02*
X195746363Y-58701157D01*
X195746363Y-58701157D02*
X195746363Y-58580205D01*
X195746363Y-58580205D02*
X195806840Y-58459252D01*
X195806840Y-58459252D02*
X195867316Y-58398776D01*
X195867316Y-58398776D02*
X195988268Y-58338300D01*
X195988268Y-58338300D02*
X196230173Y-58277824D01*
X196230173Y-58277824D02*
X196351125Y-58217347D01*
X196351125Y-58217347D02*
X196411602Y-58156871D01*
X196411602Y-58156871D02*
X196472078Y-58035919D01*
X196472078Y-58035919D02*
X196472078Y-57914966D01*
X196472078Y-57914966D02*
X196411602Y-57794014D01*
X196411602Y-57794014D02*
X196351125Y-57733538D01*
X196351125Y-57733538D02*
X196230173Y-57673062D01*
X196230173Y-57673062D02*
X195927792Y-57673062D01*
X195927792Y-57673062D02*
X195746363Y-57733538D01*
X194778744Y-58277824D02*
X194597316Y-58338300D01*
X194597316Y-58338300D02*
X194536839Y-58398776D01*
X194536839Y-58398776D02*
X194476363Y-58519728D01*
X194476363Y-58519728D02*
X194476363Y-58701157D01*
X194476363Y-58701157D02*
X194536839Y-58822109D01*
X194536839Y-58822109D02*
X194597316Y-58882586D01*
X194597316Y-58882586D02*
X194718268Y-58943062D01*
X194718268Y-58943062D02*
X195202078Y-58943062D01*
X195202078Y-58943062D02*
X195202078Y-57673062D01*
X195202078Y-57673062D02*
X194778744Y-57673062D01*
X194778744Y-57673062D02*
X194657792Y-57733538D01*
X194657792Y-57733538D02*
X194597316Y-57794014D01*
X194597316Y-57794014D02*
X194536839Y-57914966D01*
X194536839Y-57914966D02*
X194536839Y-58035919D01*
X194536839Y-58035919D02*
X194597316Y-58156871D01*
X194597316Y-58156871D02*
X194657792Y-58217347D01*
X194657792Y-58217347D02*
X194778744Y-58277824D01*
X194778744Y-58277824D02*
X195202078Y-58277824D01*
X193206363Y-58822109D02*
X193266839Y-58882586D01*
X193266839Y-58882586D02*
X193448268Y-58943062D01*
X193448268Y-58943062D02*
X193569220Y-58943062D01*
X193569220Y-58943062D02*
X193750649Y-58882586D01*
X193750649Y-58882586D02*
X193871601Y-58761633D01*
X193871601Y-58761633D02*
X193932078Y-58640681D01*
X193932078Y-58640681D02*
X193992554Y-58398776D01*
X193992554Y-58398776D02*
X193992554Y-58217347D01*
X193992554Y-58217347D02*
X193932078Y-57975443D01*
X193932078Y-57975443D02*
X193871601Y-57854490D01*
X193871601Y-57854490D02*
X193750649Y-57733538D01*
X193750649Y-57733538D02*
X193569220Y-57673062D01*
X193569220Y-57673062D02*
X193448268Y-57673062D01*
X193448268Y-57673062D02*
X193266839Y-57733538D01*
X193266839Y-57733538D02*
X193206363Y-57794014D01*
X192662078Y-58459252D02*
X191694459Y-58459252D01*
X190847792Y-57673062D02*
X190605887Y-57673062D01*
X190605887Y-57673062D02*
X190484935Y-57733538D01*
X190484935Y-57733538D02*
X190363982Y-57854490D01*
X190363982Y-57854490D02*
X190303506Y-58096395D01*
X190303506Y-58096395D02*
X190303506Y-58519728D01*
X190303506Y-58519728D02*
X190363982Y-58761633D01*
X190363982Y-58761633D02*
X190484935Y-58882586D01*
X190484935Y-58882586D02*
X190605887Y-58943062D01*
X190605887Y-58943062D02*
X190847792Y-58943062D01*
X190847792Y-58943062D02*
X190968744Y-58882586D01*
X190968744Y-58882586D02*
X191089697Y-58761633D01*
X191089697Y-58761633D02*
X191150173Y-58519728D01*
X191150173Y-58519728D02*
X191150173Y-58096395D01*
X191150173Y-58096395D02*
X191089697Y-57854490D01*
X191089697Y-57854490D02*
X190968744Y-57733538D01*
X190968744Y-57733538D02*
X190847792Y-57673062D01*
X189093982Y-58943062D02*
X189819697Y-58943062D01*
X189456840Y-58943062D02*
X189456840Y-57673062D01*
X189456840Y-57673062D02*
X189577792Y-57854490D01*
X189577792Y-57854490D02*
X189698744Y-57975443D01*
X189698744Y-57975443D02*
X189819697Y-58035919D01*
X178463478Y-60695662D02*
X178463478Y-61723757D01*
X178463478Y-61723757D02*
X178403001Y-61844709D01*
X178403001Y-61844709D02*
X178342525Y-61905186D01*
X178342525Y-61905186D02*
X178221573Y-61965662D01*
X178221573Y-61965662D02*
X177979668Y-61965662D01*
X177979668Y-61965662D02*
X177858716Y-61905186D01*
X177858716Y-61905186D02*
X177798239Y-61844709D01*
X177798239Y-61844709D02*
X177737763Y-61723757D01*
X177737763Y-61723757D02*
X177737763Y-60695662D01*
X177193478Y-61905186D02*
X177012049Y-61965662D01*
X177012049Y-61965662D02*
X176709668Y-61965662D01*
X176709668Y-61965662D02*
X176588716Y-61905186D01*
X176588716Y-61905186D02*
X176528240Y-61844709D01*
X176528240Y-61844709D02*
X176467763Y-61723757D01*
X176467763Y-61723757D02*
X176467763Y-61602805D01*
X176467763Y-61602805D02*
X176528240Y-61481852D01*
X176528240Y-61481852D02*
X176588716Y-61421376D01*
X176588716Y-61421376D02*
X176709668Y-61360900D01*
X176709668Y-61360900D02*
X176951573Y-61300424D01*
X176951573Y-61300424D02*
X177072525Y-61239947D01*
X177072525Y-61239947D02*
X177133002Y-61179471D01*
X177133002Y-61179471D02*
X177193478Y-61058519D01*
X177193478Y-61058519D02*
X177193478Y-60937566D01*
X177193478Y-60937566D02*
X177133002Y-60816614D01*
X177133002Y-60816614D02*
X177072525Y-60756138D01*
X177072525Y-60756138D02*
X176951573Y-60695662D01*
X176951573Y-60695662D02*
X176649192Y-60695662D01*
X176649192Y-60695662D02*
X176467763Y-60756138D01*
X175197763Y-61965662D02*
X175621097Y-61360900D01*
X175923478Y-61965662D02*
X175923478Y-60695662D01*
X175923478Y-60695662D02*
X175439668Y-60695662D01*
X175439668Y-60695662D02*
X175318716Y-60756138D01*
X175318716Y-60756138D02*
X175258239Y-60816614D01*
X175258239Y-60816614D02*
X175197763Y-60937566D01*
X175197763Y-60937566D02*
X175197763Y-61118995D01*
X175197763Y-61118995D02*
X175258239Y-61239947D01*
X175258239Y-61239947D02*
X175318716Y-61300424D01*
X175318716Y-61300424D02*
X175439668Y-61360900D01*
X175439668Y-61360900D02*
X175923478Y-61360900D01*
X174109192Y-60695662D02*
X174351097Y-60695662D01*
X174351097Y-60695662D02*
X174472049Y-60756138D01*
X174472049Y-60756138D02*
X174532525Y-60816614D01*
X174532525Y-60816614D02*
X174653478Y-60998043D01*
X174653478Y-60998043D02*
X174713954Y-61239947D01*
X174713954Y-61239947D02*
X174713954Y-61723757D01*
X174713954Y-61723757D02*
X174653478Y-61844709D01*
X174653478Y-61844709D02*
X174593001Y-61905186D01*
X174593001Y-61905186D02*
X174472049Y-61965662D01*
X174472049Y-61965662D02*
X174230144Y-61965662D01*
X174230144Y-61965662D02*
X174109192Y-61905186D01*
X174109192Y-61905186D02*
X174048716Y-61844709D01*
X174048716Y-61844709D02*
X173988239Y-61723757D01*
X173988239Y-61723757D02*
X173988239Y-61421376D01*
X173988239Y-61421376D02*
X174048716Y-61300424D01*
X174048716Y-61300424D02*
X174109192Y-61239947D01*
X174109192Y-61239947D02*
X174230144Y-61179471D01*
X174230144Y-61179471D02*
X174472049Y-61179471D01*
X174472049Y-61179471D02*
X174593001Y-61239947D01*
X174593001Y-61239947D02*
X174653478Y-61300424D01*
X174653478Y-61300424D02*
X174713954Y-61421376D01*
X185604506Y-60695662D02*
X184878792Y-60695662D01*
X185241649Y-61965662D02*
X185241649Y-60695662D01*
X184576411Y-60695662D02*
X183729744Y-61965662D01*
X183729744Y-60695662D02*
X184576411Y-61965662D01*
X201310173Y-60695662D02*
X201068268Y-60695662D01*
X201068268Y-60695662D02*
X200947316Y-60756138D01*
X200947316Y-60756138D02*
X200826363Y-60877090D01*
X200826363Y-60877090D02*
X200765887Y-61118995D01*
X200765887Y-61118995D02*
X200765887Y-61542328D01*
X200765887Y-61542328D02*
X200826363Y-61784233D01*
X200826363Y-61784233D02*
X200947316Y-61905186D01*
X200947316Y-61905186D02*
X201068268Y-61965662D01*
X201068268Y-61965662D02*
X201310173Y-61965662D01*
X201310173Y-61965662D02*
X201431125Y-61905186D01*
X201431125Y-61905186D02*
X201552078Y-61784233D01*
X201552078Y-61784233D02*
X201612554Y-61542328D01*
X201612554Y-61542328D02*
X201612554Y-61118995D01*
X201612554Y-61118995D02*
X201552078Y-60877090D01*
X201552078Y-60877090D02*
X201431125Y-60756138D01*
X201431125Y-60756138D02*
X201310173Y-60695662D01*
X200221602Y-61965662D02*
X200221602Y-60695662D01*
X200221602Y-60695662D02*
X199737792Y-60695662D01*
X199737792Y-60695662D02*
X199616840Y-60756138D01*
X199616840Y-60756138D02*
X199556363Y-60816614D01*
X199556363Y-60816614D02*
X199495887Y-60937566D01*
X199495887Y-60937566D02*
X199495887Y-61118995D01*
X199495887Y-61118995D02*
X199556363Y-61239947D01*
X199556363Y-61239947D02*
X199616840Y-61300424D01*
X199616840Y-61300424D02*
X199737792Y-61360900D01*
X199737792Y-61360900D02*
X200221602Y-61360900D01*
X198407316Y-61118995D02*
X198407316Y-61965662D01*
X198709697Y-60635186D02*
X199012078Y-61542328D01*
X199012078Y-61542328D02*
X198225887Y-61542328D01*
X196834935Y-60635186D02*
X197923506Y-62268043D01*
X196472078Y-61905186D02*
X196290649Y-61965662D01*
X196290649Y-61965662D02*
X195988268Y-61965662D01*
X195988268Y-61965662D02*
X195867316Y-61905186D01*
X195867316Y-61905186D02*
X195806840Y-61844709D01*
X195806840Y-61844709D02*
X195746363Y-61723757D01*
X195746363Y-61723757D02*
X195746363Y-61602805D01*
X195746363Y-61602805D02*
X195806840Y-61481852D01*
X195806840Y-61481852D02*
X195867316Y-61421376D01*
X195867316Y-61421376D02*
X195988268Y-61360900D01*
X195988268Y-61360900D02*
X196230173Y-61300424D01*
X196230173Y-61300424D02*
X196351125Y-61239947D01*
X196351125Y-61239947D02*
X196411602Y-61179471D01*
X196411602Y-61179471D02*
X196472078Y-61058519D01*
X196472078Y-61058519D02*
X196472078Y-60937566D01*
X196472078Y-60937566D02*
X196411602Y-60816614D01*
X196411602Y-60816614D02*
X196351125Y-60756138D01*
X196351125Y-60756138D02*
X196230173Y-60695662D01*
X196230173Y-60695662D02*
X195927792Y-60695662D01*
X195927792Y-60695662D02*
X195746363Y-60756138D01*
X194778744Y-61300424D02*
X194597316Y-61360900D01*
X194597316Y-61360900D02*
X194536839Y-61421376D01*
X194536839Y-61421376D02*
X194476363Y-61542328D01*
X194476363Y-61542328D02*
X194476363Y-61723757D01*
X194476363Y-61723757D02*
X194536839Y-61844709D01*
X194536839Y-61844709D02*
X194597316Y-61905186D01*
X194597316Y-61905186D02*
X194718268Y-61965662D01*
X194718268Y-61965662D02*
X195202078Y-61965662D01*
X195202078Y-61965662D02*
X195202078Y-60695662D01*
X195202078Y-60695662D02*
X194778744Y-60695662D01*
X194778744Y-60695662D02*
X194657792Y-60756138D01*
X194657792Y-60756138D02*
X194597316Y-60816614D01*
X194597316Y-60816614D02*
X194536839Y-60937566D01*
X194536839Y-60937566D02*
X194536839Y-61058519D01*
X194536839Y-61058519D02*
X194597316Y-61179471D01*
X194597316Y-61179471D02*
X194657792Y-61239947D01*
X194657792Y-61239947D02*
X194778744Y-61300424D01*
X194778744Y-61300424D02*
X195202078Y-61300424D01*
X193206363Y-61844709D02*
X193266839Y-61905186D01*
X193266839Y-61905186D02*
X193448268Y-61965662D01*
X193448268Y-61965662D02*
X193569220Y-61965662D01*
X193569220Y-61965662D02*
X193750649Y-61905186D01*
X193750649Y-61905186D02*
X193871601Y-61784233D01*
X193871601Y-61784233D02*
X193932078Y-61663281D01*
X193932078Y-61663281D02*
X193992554Y-61421376D01*
X193992554Y-61421376D02*
X193992554Y-61239947D01*
X193992554Y-61239947D02*
X193932078Y-60998043D01*
X193932078Y-60998043D02*
X193871601Y-60877090D01*
X193871601Y-60877090D02*
X193750649Y-60756138D01*
X193750649Y-60756138D02*
X193569220Y-60695662D01*
X193569220Y-60695662D02*
X193448268Y-60695662D01*
X193448268Y-60695662D02*
X193266839Y-60756138D01*
X193266839Y-60756138D02*
X193206363Y-60816614D01*
X192662078Y-61481852D02*
X191694459Y-61481852D01*
X190847792Y-60695662D02*
X190605887Y-60695662D01*
X190605887Y-60695662D02*
X190484935Y-60756138D01*
X190484935Y-60756138D02*
X190363982Y-60877090D01*
X190363982Y-60877090D02*
X190303506Y-61118995D01*
X190303506Y-61118995D02*
X190303506Y-61542328D01*
X190303506Y-61542328D02*
X190363982Y-61784233D01*
X190363982Y-61784233D02*
X190484935Y-61905186D01*
X190484935Y-61905186D02*
X190605887Y-61965662D01*
X190605887Y-61965662D02*
X190847792Y-61965662D01*
X190847792Y-61965662D02*
X190968744Y-61905186D01*
X190968744Y-61905186D02*
X191089697Y-61784233D01*
X191089697Y-61784233D02*
X191150173Y-61542328D01*
X191150173Y-61542328D02*
X191150173Y-61118995D01*
X191150173Y-61118995D02*
X191089697Y-60877090D01*
X191089697Y-60877090D02*
X190968744Y-60756138D01*
X190968744Y-60756138D02*
X190847792Y-60695662D01*
X189517316Y-60695662D02*
X189396363Y-60695662D01*
X189396363Y-60695662D02*
X189275411Y-60756138D01*
X189275411Y-60756138D02*
X189214935Y-60816614D01*
X189214935Y-60816614D02*
X189154459Y-60937566D01*
X189154459Y-60937566D02*
X189093982Y-61179471D01*
X189093982Y-61179471D02*
X189093982Y-61481852D01*
X189093982Y-61481852D02*
X189154459Y-61723757D01*
X189154459Y-61723757D02*
X189214935Y-61844709D01*
X189214935Y-61844709D02*
X189275411Y-61905186D01*
X189275411Y-61905186D02*
X189396363Y-61965662D01*
X189396363Y-61965662D02*
X189517316Y-61965662D01*
X189517316Y-61965662D02*
X189638268Y-61905186D01*
X189638268Y-61905186D02*
X189698744Y-61844709D01*
X189698744Y-61844709D02*
X189759221Y-61723757D01*
X189759221Y-61723757D02*
X189819697Y-61481852D01*
X189819697Y-61481852D02*
X189819697Y-61179471D01*
X189819697Y-61179471D02*
X189759221Y-60937566D01*
X189759221Y-60937566D02*
X189698744Y-60816614D01*
X189698744Y-60816614D02*
X189638268Y-60756138D01*
X189638268Y-60756138D02*
X189517316Y-60695662D01*
X178463478Y-63718262D02*
X178463478Y-64746357D01*
X178463478Y-64746357D02*
X178403001Y-64867309D01*
X178403001Y-64867309D02*
X178342525Y-64927786D01*
X178342525Y-64927786D02*
X178221573Y-64988262D01*
X178221573Y-64988262D02*
X177979668Y-64988262D01*
X177979668Y-64988262D02*
X177858716Y-64927786D01*
X177858716Y-64927786D02*
X177798239Y-64867309D01*
X177798239Y-64867309D02*
X177737763Y-64746357D01*
X177737763Y-64746357D02*
X177737763Y-63718262D01*
X177193478Y-64927786D02*
X177012049Y-64988262D01*
X177012049Y-64988262D02*
X176709668Y-64988262D01*
X176709668Y-64988262D02*
X176588716Y-64927786D01*
X176588716Y-64927786D02*
X176528240Y-64867309D01*
X176528240Y-64867309D02*
X176467763Y-64746357D01*
X176467763Y-64746357D02*
X176467763Y-64625405D01*
X176467763Y-64625405D02*
X176528240Y-64504452D01*
X176528240Y-64504452D02*
X176588716Y-64443976D01*
X176588716Y-64443976D02*
X176709668Y-64383500D01*
X176709668Y-64383500D02*
X176951573Y-64323024D01*
X176951573Y-64323024D02*
X177072525Y-64262547D01*
X177072525Y-64262547D02*
X177133002Y-64202071D01*
X177133002Y-64202071D02*
X177193478Y-64081119D01*
X177193478Y-64081119D02*
X177193478Y-63960166D01*
X177193478Y-63960166D02*
X177133002Y-63839214D01*
X177133002Y-63839214D02*
X177072525Y-63778738D01*
X177072525Y-63778738D02*
X176951573Y-63718262D01*
X176951573Y-63718262D02*
X176649192Y-63718262D01*
X176649192Y-63718262D02*
X176467763Y-63778738D01*
X175197763Y-64988262D02*
X175621097Y-64383500D01*
X175923478Y-64988262D02*
X175923478Y-63718262D01*
X175923478Y-63718262D02*
X175439668Y-63718262D01*
X175439668Y-63718262D02*
X175318716Y-63778738D01*
X175318716Y-63778738D02*
X175258239Y-63839214D01*
X175258239Y-63839214D02*
X175197763Y-63960166D01*
X175197763Y-63960166D02*
X175197763Y-64141595D01*
X175197763Y-64141595D02*
X175258239Y-64262547D01*
X175258239Y-64262547D02*
X175318716Y-64323024D01*
X175318716Y-64323024D02*
X175439668Y-64383500D01*
X175439668Y-64383500D02*
X175923478Y-64383500D01*
X174109192Y-63718262D02*
X174351097Y-63718262D01*
X174351097Y-63718262D02*
X174472049Y-63778738D01*
X174472049Y-63778738D02*
X174532525Y-63839214D01*
X174532525Y-63839214D02*
X174653478Y-64020643D01*
X174653478Y-64020643D02*
X174713954Y-64262547D01*
X174713954Y-64262547D02*
X174713954Y-64746357D01*
X174713954Y-64746357D02*
X174653478Y-64867309D01*
X174653478Y-64867309D02*
X174593001Y-64927786D01*
X174593001Y-64927786D02*
X174472049Y-64988262D01*
X174472049Y-64988262D02*
X174230144Y-64988262D01*
X174230144Y-64988262D02*
X174109192Y-64927786D01*
X174109192Y-64927786D02*
X174048716Y-64867309D01*
X174048716Y-64867309D02*
X173988239Y-64746357D01*
X173988239Y-64746357D02*
X173988239Y-64443976D01*
X173988239Y-64443976D02*
X174048716Y-64323024D01*
X174048716Y-64323024D02*
X174109192Y-64262547D01*
X174109192Y-64262547D02*
X174230144Y-64202071D01*
X174230144Y-64202071D02*
X174472049Y-64202071D01*
X174472049Y-64202071D02*
X174593001Y-64262547D01*
X174593001Y-64262547D02*
X174653478Y-64323024D01*
X174653478Y-64323024D02*
X174713954Y-64443976D01*
X185483554Y-64927786D02*
X185302125Y-64988262D01*
X185302125Y-64988262D02*
X184999744Y-64988262D01*
X184999744Y-64988262D02*
X184878792Y-64927786D01*
X184878792Y-64927786D02*
X184818316Y-64867309D01*
X184818316Y-64867309D02*
X184757839Y-64746357D01*
X184757839Y-64746357D02*
X184757839Y-64625405D01*
X184757839Y-64625405D02*
X184818316Y-64504452D01*
X184818316Y-64504452D02*
X184878792Y-64443976D01*
X184878792Y-64443976D02*
X184999744Y-64383500D01*
X184999744Y-64383500D02*
X185241649Y-64323024D01*
X185241649Y-64323024D02*
X185362601Y-64262547D01*
X185362601Y-64262547D02*
X185423078Y-64202071D01*
X185423078Y-64202071D02*
X185483554Y-64081119D01*
X185483554Y-64081119D02*
X185483554Y-63960166D01*
X185483554Y-63960166D02*
X185423078Y-63839214D01*
X185423078Y-63839214D02*
X185362601Y-63778738D01*
X185362601Y-63778738D02*
X185241649Y-63718262D01*
X185241649Y-63718262D02*
X184939268Y-63718262D01*
X184939268Y-63718262D02*
X184757839Y-63778738D01*
X184334506Y-63718262D02*
X184032125Y-64988262D01*
X184032125Y-64988262D02*
X183790220Y-64081119D01*
X183790220Y-64081119D02*
X183548315Y-64988262D01*
X183548315Y-64988262D02*
X183245935Y-63718262D01*
X182762125Y-64504452D02*
X181794506Y-64504452D01*
X180524505Y-64988262D02*
X181250220Y-64988262D01*
X180887363Y-64988262D02*
X180887363Y-63718262D01*
X180887363Y-63718262D02*
X181008315Y-63899690D01*
X181008315Y-63899690D02*
X181129267Y-64020643D01*
X181129267Y-64020643D02*
X181250220Y-64081119D01*
X201310173Y-63718262D02*
X201068268Y-63718262D01*
X201068268Y-63718262D02*
X200947316Y-63778738D01*
X200947316Y-63778738D02*
X200826363Y-63899690D01*
X200826363Y-63899690D02*
X200765887Y-64141595D01*
X200765887Y-64141595D02*
X200765887Y-64564928D01*
X200765887Y-64564928D02*
X200826363Y-64806833D01*
X200826363Y-64806833D02*
X200947316Y-64927786D01*
X200947316Y-64927786D02*
X201068268Y-64988262D01*
X201068268Y-64988262D02*
X201310173Y-64988262D01*
X201310173Y-64988262D02*
X201431125Y-64927786D01*
X201431125Y-64927786D02*
X201552078Y-64806833D01*
X201552078Y-64806833D02*
X201612554Y-64564928D01*
X201612554Y-64564928D02*
X201612554Y-64141595D01*
X201612554Y-64141595D02*
X201552078Y-63899690D01*
X201552078Y-63899690D02*
X201431125Y-63778738D01*
X201431125Y-63778738D02*
X201310173Y-63718262D01*
X200221602Y-64988262D02*
X200221602Y-63718262D01*
X200221602Y-63718262D02*
X199737792Y-63718262D01*
X199737792Y-63718262D02*
X199616840Y-63778738D01*
X199616840Y-63778738D02*
X199556363Y-63839214D01*
X199556363Y-63839214D02*
X199495887Y-63960166D01*
X199495887Y-63960166D02*
X199495887Y-64141595D01*
X199495887Y-64141595D02*
X199556363Y-64262547D01*
X199556363Y-64262547D02*
X199616840Y-64323024D01*
X199616840Y-64323024D02*
X199737792Y-64383500D01*
X199737792Y-64383500D02*
X200221602Y-64383500D01*
X198346840Y-63718262D02*
X198951602Y-63718262D01*
X198951602Y-63718262D02*
X199012078Y-64323024D01*
X199012078Y-64323024D02*
X198951602Y-64262547D01*
X198951602Y-64262547D02*
X198830649Y-64202071D01*
X198830649Y-64202071D02*
X198528268Y-64202071D01*
X198528268Y-64202071D02*
X198407316Y-64262547D01*
X198407316Y-64262547D02*
X198346840Y-64323024D01*
X198346840Y-64323024D02*
X198286363Y-64443976D01*
X198286363Y-64443976D02*
X198286363Y-64746357D01*
X198286363Y-64746357D02*
X198346840Y-64867309D01*
X198346840Y-64867309D02*
X198407316Y-64927786D01*
X198407316Y-64927786D02*
X198528268Y-64988262D01*
X198528268Y-64988262D02*
X198830649Y-64988262D01*
X198830649Y-64988262D02*
X198951602Y-64927786D01*
X198951602Y-64927786D02*
X199012078Y-64867309D01*
X196834935Y-63657786D02*
X197923506Y-65290643D01*
X196472078Y-64927786D02*
X196290649Y-64988262D01*
X196290649Y-64988262D02*
X195988268Y-64988262D01*
X195988268Y-64988262D02*
X195867316Y-64927786D01*
X195867316Y-64927786D02*
X195806840Y-64867309D01*
X195806840Y-64867309D02*
X195746363Y-64746357D01*
X195746363Y-64746357D02*
X195746363Y-64625405D01*
X195746363Y-64625405D02*
X195806840Y-64504452D01*
X195806840Y-64504452D02*
X195867316Y-64443976D01*
X195867316Y-64443976D02*
X195988268Y-64383500D01*
X195988268Y-64383500D02*
X196230173Y-64323024D01*
X196230173Y-64323024D02*
X196351125Y-64262547D01*
X196351125Y-64262547D02*
X196411602Y-64202071D01*
X196411602Y-64202071D02*
X196472078Y-64081119D01*
X196472078Y-64081119D02*
X196472078Y-63960166D01*
X196472078Y-63960166D02*
X196411602Y-63839214D01*
X196411602Y-63839214D02*
X196351125Y-63778738D01*
X196351125Y-63778738D02*
X196230173Y-63718262D01*
X196230173Y-63718262D02*
X195927792Y-63718262D01*
X195927792Y-63718262D02*
X195746363Y-63778738D01*
X194778744Y-64323024D02*
X194597316Y-64383500D01*
X194597316Y-64383500D02*
X194536839Y-64443976D01*
X194536839Y-64443976D02*
X194476363Y-64564928D01*
X194476363Y-64564928D02*
X194476363Y-64746357D01*
X194476363Y-64746357D02*
X194536839Y-64867309D01*
X194536839Y-64867309D02*
X194597316Y-64927786D01*
X194597316Y-64927786D02*
X194718268Y-64988262D01*
X194718268Y-64988262D02*
X195202078Y-64988262D01*
X195202078Y-64988262D02*
X195202078Y-63718262D01*
X195202078Y-63718262D02*
X194778744Y-63718262D01*
X194778744Y-63718262D02*
X194657792Y-63778738D01*
X194657792Y-63778738D02*
X194597316Y-63839214D01*
X194597316Y-63839214D02*
X194536839Y-63960166D01*
X194536839Y-63960166D02*
X194536839Y-64081119D01*
X194536839Y-64081119D02*
X194597316Y-64202071D01*
X194597316Y-64202071D02*
X194657792Y-64262547D01*
X194657792Y-64262547D02*
X194778744Y-64323024D01*
X194778744Y-64323024D02*
X195202078Y-64323024D01*
X193206363Y-64867309D02*
X193266839Y-64927786D01*
X193266839Y-64927786D02*
X193448268Y-64988262D01*
X193448268Y-64988262D02*
X193569220Y-64988262D01*
X193569220Y-64988262D02*
X193750649Y-64927786D01*
X193750649Y-64927786D02*
X193871601Y-64806833D01*
X193871601Y-64806833D02*
X193932078Y-64685881D01*
X193932078Y-64685881D02*
X193992554Y-64443976D01*
X193992554Y-64443976D02*
X193992554Y-64262547D01*
X193992554Y-64262547D02*
X193932078Y-64020643D01*
X193932078Y-64020643D02*
X193871601Y-63899690D01*
X193871601Y-63899690D02*
X193750649Y-63778738D01*
X193750649Y-63778738D02*
X193569220Y-63718262D01*
X193569220Y-63718262D02*
X193448268Y-63718262D01*
X193448268Y-63718262D02*
X193266839Y-63778738D01*
X193266839Y-63778738D02*
X193206363Y-63839214D01*
X192662078Y-64504452D02*
X191694459Y-64504452D01*
X191089697Y-64988262D02*
X191089697Y-63718262D01*
X190243030Y-63718262D02*
X190122077Y-63718262D01*
X190122077Y-63718262D02*
X190001125Y-63778738D01*
X190001125Y-63778738D02*
X189940649Y-63839214D01*
X189940649Y-63839214D02*
X189880173Y-63960166D01*
X189880173Y-63960166D02*
X189819696Y-64202071D01*
X189819696Y-64202071D02*
X189819696Y-64504452D01*
X189819696Y-64504452D02*
X189880173Y-64746357D01*
X189880173Y-64746357D02*
X189940649Y-64867309D01*
X189940649Y-64867309D02*
X190001125Y-64927786D01*
X190001125Y-64927786D02*
X190122077Y-64988262D01*
X190122077Y-64988262D02*
X190243030Y-64988262D01*
X190243030Y-64988262D02*
X190363982Y-64927786D01*
X190363982Y-64927786D02*
X190424458Y-64867309D01*
X190424458Y-64867309D02*
X190484935Y-64746357D01*
X190484935Y-64746357D02*
X190545411Y-64504452D01*
X190545411Y-64504452D02*
X190545411Y-64202071D01*
X190545411Y-64202071D02*
X190484935Y-63960166D01*
X190484935Y-63960166D02*
X190424458Y-63839214D01*
X190424458Y-63839214D02*
X190363982Y-63778738D01*
X190363982Y-63778738D02*
X190243030Y-63718262D01*
X178463478Y-66740862D02*
X178463478Y-67768957D01*
X178463478Y-67768957D02*
X178403001Y-67889909D01*
X178403001Y-67889909D02*
X178342525Y-67950386D01*
X178342525Y-67950386D02*
X178221573Y-68010862D01*
X178221573Y-68010862D02*
X177979668Y-68010862D01*
X177979668Y-68010862D02*
X177858716Y-67950386D01*
X177858716Y-67950386D02*
X177798239Y-67889909D01*
X177798239Y-67889909D02*
X177737763Y-67768957D01*
X177737763Y-67768957D02*
X177737763Y-66740862D01*
X177193478Y-67950386D02*
X177012049Y-68010862D01*
X177012049Y-68010862D02*
X176709668Y-68010862D01*
X176709668Y-68010862D02*
X176588716Y-67950386D01*
X176588716Y-67950386D02*
X176528240Y-67889909D01*
X176528240Y-67889909D02*
X176467763Y-67768957D01*
X176467763Y-67768957D02*
X176467763Y-67648005D01*
X176467763Y-67648005D02*
X176528240Y-67527052D01*
X176528240Y-67527052D02*
X176588716Y-67466576D01*
X176588716Y-67466576D02*
X176709668Y-67406100D01*
X176709668Y-67406100D02*
X176951573Y-67345624D01*
X176951573Y-67345624D02*
X177072525Y-67285147D01*
X177072525Y-67285147D02*
X177133002Y-67224671D01*
X177133002Y-67224671D02*
X177193478Y-67103719D01*
X177193478Y-67103719D02*
X177193478Y-66982766D01*
X177193478Y-66982766D02*
X177133002Y-66861814D01*
X177133002Y-66861814D02*
X177072525Y-66801338D01*
X177072525Y-66801338D02*
X176951573Y-66740862D01*
X176951573Y-66740862D02*
X176649192Y-66740862D01*
X176649192Y-66740862D02*
X176467763Y-66801338D01*
X175197763Y-68010862D02*
X175621097Y-67406100D01*
X175923478Y-68010862D02*
X175923478Y-66740862D01*
X175923478Y-66740862D02*
X175439668Y-66740862D01*
X175439668Y-66740862D02*
X175318716Y-66801338D01*
X175318716Y-66801338D02*
X175258239Y-66861814D01*
X175258239Y-66861814D02*
X175197763Y-66982766D01*
X175197763Y-66982766D02*
X175197763Y-67164195D01*
X175197763Y-67164195D02*
X175258239Y-67285147D01*
X175258239Y-67285147D02*
X175318716Y-67345624D01*
X175318716Y-67345624D02*
X175439668Y-67406100D01*
X175439668Y-67406100D02*
X175923478Y-67406100D01*
X174774430Y-66740862D02*
X173927763Y-66740862D01*
X173927763Y-66740862D02*
X174472049Y-68010862D01*
X185483554Y-67950386D02*
X185302125Y-68010862D01*
X185302125Y-68010862D02*
X184999744Y-68010862D01*
X184999744Y-68010862D02*
X184878792Y-67950386D01*
X184878792Y-67950386D02*
X184818316Y-67889909D01*
X184818316Y-67889909D02*
X184757839Y-67768957D01*
X184757839Y-67768957D02*
X184757839Y-67648005D01*
X184757839Y-67648005D02*
X184818316Y-67527052D01*
X184818316Y-67527052D02*
X184878792Y-67466576D01*
X184878792Y-67466576D02*
X184999744Y-67406100D01*
X184999744Y-67406100D02*
X185241649Y-67345624D01*
X185241649Y-67345624D02*
X185362601Y-67285147D01*
X185362601Y-67285147D02*
X185423078Y-67224671D01*
X185423078Y-67224671D02*
X185483554Y-67103719D01*
X185483554Y-67103719D02*
X185483554Y-66982766D01*
X185483554Y-66982766D02*
X185423078Y-66861814D01*
X185423078Y-66861814D02*
X185362601Y-66801338D01*
X185362601Y-66801338D02*
X185241649Y-66740862D01*
X185241649Y-66740862D02*
X184939268Y-66740862D01*
X184939268Y-66740862D02*
X184757839Y-66801338D01*
X184334506Y-66740862D02*
X184032125Y-68010862D01*
X184032125Y-68010862D02*
X183790220Y-67103719D01*
X183790220Y-67103719D02*
X183548315Y-68010862D01*
X183548315Y-68010862D02*
X183245935Y-66740862D01*
X182762125Y-67527052D02*
X181794506Y-67527052D01*
X181250220Y-66861814D02*
X181189744Y-66801338D01*
X181189744Y-66801338D02*
X181068791Y-66740862D01*
X181068791Y-66740862D02*
X180766410Y-66740862D01*
X180766410Y-66740862D02*
X180645458Y-66801338D01*
X180645458Y-66801338D02*
X180584982Y-66861814D01*
X180584982Y-66861814D02*
X180524505Y-66982766D01*
X180524505Y-66982766D02*
X180524505Y-67103719D01*
X180524505Y-67103719D02*
X180584982Y-67285147D01*
X180584982Y-67285147D02*
X181310696Y-68010862D01*
X181310696Y-68010862D02*
X180524505Y-68010862D01*
X201310173Y-66740862D02*
X201068268Y-66740862D01*
X201068268Y-66740862D02*
X200947316Y-66801338D01*
X200947316Y-66801338D02*
X200826363Y-66922290D01*
X200826363Y-66922290D02*
X200765887Y-67164195D01*
X200765887Y-67164195D02*
X200765887Y-67587528D01*
X200765887Y-67587528D02*
X200826363Y-67829433D01*
X200826363Y-67829433D02*
X200947316Y-67950386D01*
X200947316Y-67950386D02*
X201068268Y-68010862D01*
X201068268Y-68010862D02*
X201310173Y-68010862D01*
X201310173Y-68010862D02*
X201431125Y-67950386D01*
X201431125Y-67950386D02*
X201552078Y-67829433D01*
X201552078Y-67829433D02*
X201612554Y-67587528D01*
X201612554Y-67587528D02*
X201612554Y-67164195D01*
X201612554Y-67164195D02*
X201552078Y-66922290D01*
X201552078Y-66922290D02*
X201431125Y-66801338D01*
X201431125Y-66801338D02*
X201310173Y-66740862D01*
X200221602Y-68010862D02*
X200221602Y-66740862D01*
X200221602Y-66740862D02*
X199737792Y-66740862D01*
X199737792Y-66740862D02*
X199616840Y-66801338D01*
X199616840Y-66801338D02*
X199556363Y-66861814D01*
X199556363Y-66861814D02*
X199495887Y-66982766D01*
X199495887Y-66982766D02*
X199495887Y-67164195D01*
X199495887Y-67164195D02*
X199556363Y-67285147D01*
X199556363Y-67285147D02*
X199616840Y-67345624D01*
X199616840Y-67345624D02*
X199737792Y-67406100D01*
X199737792Y-67406100D02*
X200221602Y-67406100D01*
X198407316Y-66740862D02*
X198649221Y-66740862D01*
X198649221Y-66740862D02*
X198770173Y-66801338D01*
X198770173Y-66801338D02*
X198830649Y-66861814D01*
X198830649Y-66861814D02*
X198951602Y-67043243D01*
X198951602Y-67043243D02*
X199012078Y-67285147D01*
X199012078Y-67285147D02*
X199012078Y-67768957D01*
X199012078Y-67768957D02*
X198951602Y-67889909D01*
X198951602Y-67889909D02*
X198891125Y-67950386D01*
X198891125Y-67950386D02*
X198770173Y-68010862D01*
X198770173Y-68010862D02*
X198528268Y-68010862D01*
X198528268Y-68010862D02*
X198407316Y-67950386D01*
X198407316Y-67950386D02*
X198346840Y-67889909D01*
X198346840Y-67889909D02*
X198286363Y-67768957D01*
X198286363Y-67768957D02*
X198286363Y-67466576D01*
X198286363Y-67466576D02*
X198346840Y-67345624D01*
X198346840Y-67345624D02*
X198407316Y-67285147D01*
X198407316Y-67285147D02*
X198528268Y-67224671D01*
X198528268Y-67224671D02*
X198770173Y-67224671D01*
X198770173Y-67224671D02*
X198891125Y-67285147D01*
X198891125Y-67285147D02*
X198951602Y-67345624D01*
X198951602Y-67345624D02*
X199012078Y-67466576D01*
X196834935Y-66680386D02*
X197923506Y-68313243D01*
X196472078Y-67950386D02*
X196290649Y-68010862D01*
X196290649Y-68010862D02*
X195988268Y-68010862D01*
X195988268Y-68010862D02*
X195867316Y-67950386D01*
X195867316Y-67950386D02*
X195806840Y-67889909D01*
X195806840Y-67889909D02*
X195746363Y-67768957D01*
X195746363Y-67768957D02*
X195746363Y-67648005D01*
X195746363Y-67648005D02*
X195806840Y-67527052D01*
X195806840Y-67527052D02*
X195867316Y-67466576D01*
X195867316Y-67466576D02*
X195988268Y-67406100D01*
X195988268Y-67406100D02*
X196230173Y-67345624D01*
X196230173Y-67345624D02*
X196351125Y-67285147D01*
X196351125Y-67285147D02*
X196411602Y-67224671D01*
X196411602Y-67224671D02*
X196472078Y-67103719D01*
X196472078Y-67103719D02*
X196472078Y-66982766D01*
X196472078Y-66982766D02*
X196411602Y-66861814D01*
X196411602Y-66861814D02*
X196351125Y-66801338D01*
X196351125Y-66801338D02*
X196230173Y-66740862D01*
X196230173Y-66740862D02*
X195927792Y-66740862D01*
X195927792Y-66740862D02*
X195746363Y-66801338D01*
X194778744Y-67345624D02*
X194597316Y-67406100D01*
X194597316Y-67406100D02*
X194536839Y-67466576D01*
X194536839Y-67466576D02*
X194476363Y-67587528D01*
X194476363Y-67587528D02*
X194476363Y-67768957D01*
X194476363Y-67768957D02*
X194536839Y-67889909D01*
X194536839Y-67889909D02*
X194597316Y-67950386D01*
X194597316Y-67950386D02*
X194718268Y-68010862D01*
X194718268Y-68010862D02*
X195202078Y-68010862D01*
X195202078Y-68010862D02*
X195202078Y-66740862D01*
X195202078Y-66740862D02*
X194778744Y-66740862D01*
X194778744Y-66740862D02*
X194657792Y-66801338D01*
X194657792Y-66801338D02*
X194597316Y-66861814D01*
X194597316Y-66861814D02*
X194536839Y-66982766D01*
X194536839Y-66982766D02*
X194536839Y-67103719D01*
X194536839Y-67103719D02*
X194597316Y-67224671D01*
X194597316Y-67224671D02*
X194657792Y-67285147D01*
X194657792Y-67285147D02*
X194778744Y-67345624D01*
X194778744Y-67345624D02*
X195202078Y-67345624D01*
X193206363Y-67889909D02*
X193266839Y-67950386D01*
X193266839Y-67950386D02*
X193448268Y-68010862D01*
X193448268Y-68010862D02*
X193569220Y-68010862D01*
X193569220Y-68010862D02*
X193750649Y-67950386D01*
X193750649Y-67950386D02*
X193871601Y-67829433D01*
X193871601Y-67829433D02*
X193932078Y-67708481D01*
X193932078Y-67708481D02*
X193992554Y-67466576D01*
X193992554Y-67466576D02*
X193992554Y-67285147D01*
X193992554Y-67285147D02*
X193932078Y-67043243D01*
X193932078Y-67043243D02*
X193871601Y-66922290D01*
X193871601Y-66922290D02*
X193750649Y-66801338D01*
X193750649Y-66801338D02*
X193569220Y-66740862D01*
X193569220Y-66740862D02*
X193448268Y-66740862D01*
X193448268Y-66740862D02*
X193266839Y-66801338D01*
X193266839Y-66801338D02*
X193206363Y-66861814D01*
X192662078Y-67527052D02*
X191694459Y-67527052D01*
X191089697Y-68010862D02*
X191089697Y-66740862D01*
X189819696Y-68010862D02*
X190545411Y-68010862D01*
X190182554Y-68010862D02*
X190182554Y-66740862D01*
X190182554Y-66740862D02*
X190303506Y-66922290D01*
X190303506Y-66922290D02*
X190424458Y-67043243D01*
X190424458Y-67043243D02*
X190545411Y-67103719D01*
X178463478Y-69763462D02*
X178463478Y-70791557D01*
X178463478Y-70791557D02*
X178403001Y-70912509D01*
X178403001Y-70912509D02*
X178342525Y-70972986D01*
X178342525Y-70972986D02*
X178221573Y-71033462D01*
X178221573Y-71033462D02*
X177979668Y-71033462D01*
X177979668Y-71033462D02*
X177858716Y-70972986D01*
X177858716Y-70972986D02*
X177798239Y-70912509D01*
X177798239Y-70912509D02*
X177737763Y-70791557D01*
X177737763Y-70791557D02*
X177737763Y-69763462D01*
X177193478Y-70972986D02*
X177012049Y-71033462D01*
X177012049Y-71033462D02*
X176709668Y-71033462D01*
X176709668Y-71033462D02*
X176588716Y-70972986D01*
X176588716Y-70972986D02*
X176528240Y-70912509D01*
X176528240Y-70912509D02*
X176467763Y-70791557D01*
X176467763Y-70791557D02*
X176467763Y-70670605D01*
X176467763Y-70670605D02*
X176528240Y-70549652D01*
X176528240Y-70549652D02*
X176588716Y-70489176D01*
X176588716Y-70489176D02*
X176709668Y-70428700D01*
X176709668Y-70428700D02*
X176951573Y-70368224D01*
X176951573Y-70368224D02*
X177072525Y-70307747D01*
X177072525Y-70307747D02*
X177133002Y-70247271D01*
X177133002Y-70247271D02*
X177193478Y-70126319D01*
X177193478Y-70126319D02*
X177193478Y-70005366D01*
X177193478Y-70005366D02*
X177133002Y-69884414D01*
X177133002Y-69884414D02*
X177072525Y-69823938D01*
X177072525Y-69823938D02*
X176951573Y-69763462D01*
X176951573Y-69763462D02*
X176649192Y-69763462D01*
X176649192Y-69763462D02*
X176467763Y-69823938D01*
X175197763Y-71033462D02*
X175621097Y-70428700D01*
X175923478Y-71033462D02*
X175923478Y-69763462D01*
X175923478Y-69763462D02*
X175439668Y-69763462D01*
X175439668Y-69763462D02*
X175318716Y-69823938D01*
X175318716Y-69823938D02*
X175258239Y-69884414D01*
X175258239Y-69884414D02*
X175197763Y-70005366D01*
X175197763Y-70005366D02*
X175197763Y-70186795D01*
X175197763Y-70186795D02*
X175258239Y-70307747D01*
X175258239Y-70307747D02*
X175318716Y-70368224D01*
X175318716Y-70368224D02*
X175439668Y-70428700D01*
X175439668Y-70428700D02*
X175923478Y-70428700D01*
X174109192Y-70186795D02*
X174109192Y-71033462D01*
X174411573Y-69702986D02*
X174713954Y-70610128D01*
X174713954Y-70610128D02*
X173927763Y-70610128D01*
X185483554Y-70972986D02*
X185302125Y-71033462D01*
X185302125Y-71033462D02*
X184999744Y-71033462D01*
X184999744Y-71033462D02*
X184878792Y-70972986D01*
X184878792Y-70972986D02*
X184818316Y-70912509D01*
X184818316Y-70912509D02*
X184757839Y-70791557D01*
X184757839Y-70791557D02*
X184757839Y-70670605D01*
X184757839Y-70670605D02*
X184818316Y-70549652D01*
X184818316Y-70549652D02*
X184878792Y-70489176D01*
X184878792Y-70489176D02*
X184999744Y-70428700D01*
X184999744Y-70428700D02*
X185241649Y-70368224D01*
X185241649Y-70368224D02*
X185362601Y-70307747D01*
X185362601Y-70307747D02*
X185423078Y-70247271D01*
X185423078Y-70247271D02*
X185483554Y-70126319D01*
X185483554Y-70126319D02*
X185483554Y-70005366D01*
X185483554Y-70005366D02*
X185423078Y-69884414D01*
X185423078Y-69884414D02*
X185362601Y-69823938D01*
X185362601Y-69823938D02*
X185241649Y-69763462D01*
X185241649Y-69763462D02*
X184939268Y-69763462D01*
X184939268Y-69763462D02*
X184757839Y-69823938D01*
X184334506Y-69763462D02*
X184032125Y-71033462D01*
X184032125Y-71033462D02*
X183790220Y-70126319D01*
X183790220Y-70126319D02*
X183548315Y-71033462D01*
X183548315Y-71033462D02*
X183245935Y-69763462D01*
X182762125Y-70549652D02*
X181794506Y-70549652D01*
X181310696Y-69763462D02*
X180524505Y-69763462D01*
X180524505Y-69763462D02*
X180947839Y-70247271D01*
X180947839Y-70247271D02*
X180766410Y-70247271D01*
X180766410Y-70247271D02*
X180645458Y-70307747D01*
X180645458Y-70307747D02*
X180584982Y-70368224D01*
X180584982Y-70368224D02*
X180524505Y-70489176D01*
X180524505Y-70489176D02*
X180524505Y-70791557D01*
X180524505Y-70791557D02*
X180584982Y-70912509D01*
X180584982Y-70912509D02*
X180645458Y-70972986D01*
X180645458Y-70972986D02*
X180766410Y-71033462D01*
X180766410Y-71033462D02*
X181129267Y-71033462D01*
X181129267Y-71033462D02*
X181250220Y-70972986D01*
X181250220Y-70972986D02*
X181310696Y-70912509D01*
X201310173Y-69763462D02*
X201068268Y-69763462D01*
X201068268Y-69763462D02*
X200947316Y-69823938D01*
X200947316Y-69823938D02*
X200826363Y-69944890D01*
X200826363Y-69944890D02*
X200765887Y-70186795D01*
X200765887Y-70186795D02*
X200765887Y-70610128D01*
X200765887Y-70610128D02*
X200826363Y-70852033D01*
X200826363Y-70852033D02*
X200947316Y-70972986D01*
X200947316Y-70972986D02*
X201068268Y-71033462D01*
X201068268Y-71033462D02*
X201310173Y-71033462D01*
X201310173Y-71033462D02*
X201431125Y-70972986D01*
X201431125Y-70972986D02*
X201552078Y-70852033D01*
X201552078Y-70852033D02*
X201612554Y-70610128D01*
X201612554Y-70610128D02*
X201612554Y-70186795D01*
X201612554Y-70186795D02*
X201552078Y-69944890D01*
X201552078Y-69944890D02*
X201431125Y-69823938D01*
X201431125Y-69823938D02*
X201310173Y-69763462D01*
X200221602Y-71033462D02*
X200221602Y-69763462D01*
X200221602Y-69763462D02*
X199737792Y-69763462D01*
X199737792Y-69763462D02*
X199616840Y-69823938D01*
X199616840Y-69823938D02*
X199556363Y-69884414D01*
X199556363Y-69884414D02*
X199495887Y-70005366D01*
X199495887Y-70005366D02*
X199495887Y-70186795D01*
X199495887Y-70186795D02*
X199556363Y-70307747D01*
X199556363Y-70307747D02*
X199616840Y-70368224D01*
X199616840Y-70368224D02*
X199737792Y-70428700D01*
X199737792Y-70428700D02*
X200221602Y-70428700D01*
X199072554Y-69763462D02*
X198225887Y-69763462D01*
X198225887Y-69763462D02*
X198770173Y-71033462D01*
X196834935Y-69702986D02*
X197923506Y-71335843D01*
X196472078Y-70972986D02*
X196290649Y-71033462D01*
X196290649Y-71033462D02*
X195988268Y-71033462D01*
X195988268Y-71033462D02*
X195867316Y-70972986D01*
X195867316Y-70972986D02*
X195806840Y-70912509D01*
X195806840Y-70912509D02*
X195746363Y-70791557D01*
X195746363Y-70791557D02*
X195746363Y-70670605D01*
X195746363Y-70670605D02*
X195806840Y-70549652D01*
X195806840Y-70549652D02*
X195867316Y-70489176D01*
X195867316Y-70489176D02*
X195988268Y-70428700D01*
X195988268Y-70428700D02*
X196230173Y-70368224D01*
X196230173Y-70368224D02*
X196351125Y-70307747D01*
X196351125Y-70307747D02*
X196411602Y-70247271D01*
X196411602Y-70247271D02*
X196472078Y-70126319D01*
X196472078Y-70126319D02*
X196472078Y-70005366D01*
X196472078Y-70005366D02*
X196411602Y-69884414D01*
X196411602Y-69884414D02*
X196351125Y-69823938D01*
X196351125Y-69823938D02*
X196230173Y-69763462D01*
X196230173Y-69763462D02*
X195927792Y-69763462D01*
X195927792Y-69763462D02*
X195746363Y-69823938D01*
X194778744Y-70368224D02*
X194597316Y-70428700D01*
X194597316Y-70428700D02*
X194536839Y-70489176D01*
X194536839Y-70489176D02*
X194476363Y-70610128D01*
X194476363Y-70610128D02*
X194476363Y-70791557D01*
X194476363Y-70791557D02*
X194536839Y-70912509D01*
X194536839Y-70912509D02*
X194597316Y-70972986D01*
X194597316Y-70972986D02*
X194718268Y-71033462D01*
X194718268Y-71033462D02*
X195202078Y-71033462D01*
X195202078Y-71033462D02*
X195202078Y-69763462D01*
X195202078Y-69763462D02*
X194778744Y-69763462D01*
X194778744Y-69763462D02*
X194657792Y-69823938D01*
X194657792Y-69823938D02*
X194597316Y-69884414D01*
X194597316Y-69884414D02*
X194536839Y-70005366D01*
X194536839Y-70005366D02*
X194536839Y-70126319D01*
X194536839Y-70126319D02*
X194597316Y-70247271D01*
X194597316Y-70247271D02*
X194657792Y-70307747D01*
X194657792Y-70307747D02*
X194778744Y-70368224D01*
X194778744Y-70368224D02*
X195202078Y-70368224D01*
X193206363Y-70912509D02*
X193266839Y-70972986D01*
X193266839Y-70972986D02*
X193448268Y-71033462D01*
X193448268Y-71033462D02*
X193569220Y-71033462D01*
X193569220Y-71033462D02*
X193750649Y-70972986D01*
X193750649Y-70972986D02*
X193871601Y-70852033D01*
X193871601Y-70852033D02*
X193932078Y-70731081D01*
X193932078Y-70731081D02*
X193992554Y-70489176D01*
X193992554Y-70489176D02*
X193992554Y-70307747D01*
X193992554Y-70307747D02*
X193932078Y-70065843D01*
X193932078Y-70065843D02*
X193871601Y-69944890D01*
X193871601Y-69944890D02*
X193750649Y-69823938D01*
X193750649Y-69823938D02*
X193569220Y-69763462D01*
X193569220Y-69763462D02*
X193448268Y-69763462D01*
X193448268Y-69763462D02*
X193266839Y-69823938D01*
X193266839Y-69823938D02*
X193206363Y-69884414D01*
X192662078Y-70549652D02*
X191694459Y-70549652D01*
X191089697Y-71033462D02*
X191089697Y-69763462D01*
X190545411Y-69884414D02*
X190484935Y-69823938D01*
X190484935Y-69823938D02*
X190363982Y-69763462D01*
X190363982Y-69763462D02*
X190061601Y-69763462D01*
X190061601Y-69763462D02*
X189940649Y-69823938D01*
X189940649Y-69823938D02*
X189880173Y-69884414D01*
X189880173Y-69884414D02*
X189819696Y-70005366D01*
X189819696Y-70005366D02*
X189819696Y-70126319D01*
X189819696Y-70126319D02*
X189880173Y-70307747D01*
X189880173Y-70307747D02*
X190605887Y-71033462D01*
X190605887Y-71033462D02*
X189819696Y-71033462D01*
X178584430Y-72786062D02*
X177737763Y-72786062D01*
X177737763Y-72786062D02*
X178584430Y-74056062D01*
X178584430Y-74056062D02*
X177737763Y-74056062D01*
X177253954Y-74056062D02*
X177253954Y-72786062D01*
X175923477Y-74056062D02*
X176346811Y-73451300D01*
X176649192Y-74056062D02*
X176649192Y-72786062D01*
X176649192Y-72786062D02*
X176165382Y-72786062D01*
X176165382Y-72786062D02*
X176044430Y-72846538D01*
X176044430Y-72846538D02*
X175983953Y-72907014D01*
X175983953Y-72907014D02*
X175923477Y-73027966D01*
X175923477Y-73027966D02*
X175923477Y-73209395D01*
X175923477Y-73209395D02*
X175983953Y-73330347D01*
X175983953Y-73330347D02*
X176044430Y-73390824D01*
X176044430Y-73390824D02*
X176165382Y-73451300D01*
X176165382Y-73451300D02*
X176649192Y-73451300D01*
X174532525Y-74177014D02*
X174653477Y-74116538D01*
X174653477Y-74116538D02*
X174774430Y-73995586D01*
X174774430Y-73995586D02*
X174955858Y-73814157D01*
X174955858Y-73814157D02*
X175076811Y-73753681D01*
X175076811Y-73753681D02*
X175197763Y-73753681D01*
X175137287Y-74056062D02*
X175258239Y-73995586D01*
X175258239Y-73995586D02*
X175379192Y-73874633D01*
X175379192Y-73874633D02*
X175439668Y-73632728D01*
X175439668Y-73632728D02*
X175439668Y-73209395D01*
X175439668Y-73209395D02*
X175379192Y-72967490D01*
X175379192Y-72967490D02*
X175258239Y-72846538D01*
X175258239Y-72846538D02*
X175137287Y-72786062D01*
X175137287Y-72786062D02*
X174895382Y-72786062D01*
X174895382Y-72786062D02*
X174774430Y-72846538D01*
X174774430Y-72846538D02*
X174653477Y-72967490D01*
X174653477Y-72967490D02*
X174593001Y-73209395D01*
X174593001Y-73209395D02*
X174593001Y-73632728D01*
X174593001Y-73632728D02*
X174653477Y-73874633D01*
X174653477Y-73874633D02*
X174774430Y-73995586D01*
X174774430Y-73995586D02*
X174895382Y-74056062D01*
X174895382Y-74056062D02*
X175137287Y-74056062D01*
X173383477Y-74056062D02*
X174109192Y-74056062D01*
X173746335Y-74056062D02*
X173746335Y-72786062D01*
X173746335Y-72786062D02*
X173867287Y-72967490D01*
X173867287Y-72967490D02*
X173988239Y-73088443D01*
X173988239Y-73088443D02*
X174109192Y-73148919D01*
X184999744Y-73390824D02*
X184818316Y-73451300D01*
X184818316Y-73451300D02*
X184757839Y-73511776D01*
X184757839Y-73511776D02*
X184697363Y-73632728D01*
X184697363Y-73632728D02*
X184697363Y-73814157D01*
X184697363Y-73814157D02*
X184757839Y-73935109D01*
X184757839Y-73935109D02*
X184818316Y-73995586D01*
X184818316Y-73995586D02*
X184939268Y-74056062D01*
X184939268Y-74056062D02*
X185423078Y-74056062D01*
X185423078Y-74056062D02*
X185423078Y-72786062D01*
X185423078Y-72786062D02*
X184999744Y-72786062D01*
X184999744Y-72786062D02*
X184878792Y-72846538D01*
X184878792Y-72846538D02*
X184818316Y-72907014D01*
X184818316Y-72907014D02*
X184757839Y-73027966D01*
X184757839Y-73027966D02*
X184757839Y-73148919D01*
X184757839Y-73148919D02*
X184818316Y-73269871D01*
X184818316Y-73269871D02*
X184878792Y-73330347D01*
X184878792Y-73330347D02*
X184999744Y-73390824D01*
X184999744Y-73390824D02*
X185423078Y-73390824D01*
X184455459Y-74177014D02*
X183487839Y-74177014D01*
X183185459Y-74056062D02*
X183185459Y-72786062D01*
X182580697Y-74056062D02*
X182580697Y-72786062D01*
X182580697Y-72786062D02*
X181854982Y-74056062D01*
X181854982Y-74056062D02*
X181854982Y-72786062D01*
X181431649Y-72786062D02*
X180705935Y-72786062D01*
X181068792Y-74056062D02*
X181068792Y-72786062D01*
X201310173Y-72786062D02*
X201068268Y-72786062D01*
X201068268Y-72786062D02*
X200947316Y-72846538D01*
X200947316Y-72846538D02*
X200826363Y-72967490D01*
X200826363Y-72967490D02*
X200765887Y-73209395D01*
X200765887Y-73209395D02*
X200765887Y-73632728D01*
X200765887Y-73632728D02*
X200826363Y-73874633D01*
X200826363Y-73874633D02*
X200947316Y-73995586D01*
X200947316Y-73995586D02*
X201068268Y-74056062D01*
X201068268Y-74056062D02*
X201310173Y-74056062D01*
X201310173Y-74056062D02*
X201431125Y-73995586D01*
X201431125Y-73995586D02*
X201552078Y-73874633D01*
X201552078Y-73874633D02*
X201612554Y-73632728D01*
X201612554Y-73632728D02*
X201612554Y-73209395D01*
X201612554Y-73209395D02*
X201552078Y-72967490D01*
X201552078Y-72967490D02*
X201431125Y-72846538D01*
X201431125Y-72846538D02*
X201310173Y-72786062D01*
X200221602Y-74056062D02*
X200221602Y-72786062D01*
X200221602Y-72786062D02*
X199737792Y-72786062D01*
X199737792Y-72786062D02*
X199616840Y-72846538D01*
X199616840Y-72846538D02*
X199556363Y-72907014D01*
X199556363Y-72907014D02*
X199495887Y-73027966D01*
X199495887Y-73027966D02*
X199495887Y-73209395D01*
X199495887Y-73209395D02*
X199556363Y-73330347D01*
X199556363Y-73330347D02*
X199616840Y-73390824D01*
X199616840Y-73390824D02*
X199737792Y-73451300D01*
X199737792Y-73451300D02*
X200221602Y-73451300D01*
X198770173Y-73330347D02*
X198891125Y-73269871D01*
X198891125Y-73269871D02*
X198951602Y-73209395D01*
X198951602Y-73209395D02*
X199012078Y-73088443D01*
X199012078Y-73088443D02*
X199012078Y-73027966D01*
X199012078Y-73027966D02*
X198951602Y-72907014D01*
X198951602Y-72907014D02*
X198891125Y-72846538D01*
X198891125Y-72846538D02*
X198770173Y-72786062D01*
X198770173Y-72786062D02*
X198528268Y-72786062D01*
X198528268Y-72786062D02*
X198407316Y-72846538D01*
X198407316Y-72846538D02*
X198346840Y-72907014D01*
X198346840Y-72907014D02*
X198286363Y-73027966D01*
X198286363Y-73027966D02*
X198286363Y-73088443D01*
X198286363Y-73088443D02*
X198346840Y-73209395D01*
X198346840Y-73209395D02*
X198407316Y-73269871D01*
X198407316Y-73269871D02*
X198528268Y-73330347D01*
X198528268Y-73330347D02*
X198770173Y-73330347D01*
X198770173Y-73330347D02*
X198891125Y-73390824D01*
X198891125Y-73390824D02*
X198951602Y-73451300D01*
X198951602Y-73451300D02*
X199012078Y-73572252D01*
X199012078Y-73572252D02*
X199012078Y-73814157D01*
X199012078Y-73814157D02*
X198951602Y-73935109D01*
X198951602Y-73935109D02*
X198891125Y-73995586D01*
X198891125Y-73995586D02*
X198770173Y-74056062D01*
X198770173Y-74056062D02*
X198528268Y-74056062D01*
X198528268Y-74056062D02*
X198407316Y-73995586D01*
X198407316Y-73995586D02*
X198346840Y-73935109D01*
X198346840Y-73935109D02*
X198286363Y-73814157D01*
X198286363Y-73814157D02*
X198286363Y-73572252D01*
X198286363Y-73572252D02*
X198346840Y-73451300D01*
X198346840Y-73451300D02*
X198407316Y-73390824D01*
X198407316Y-73390824D02*
X198528268Y-73330347D01*
X196834935Y-72725586D02*
X197923506Y-74358443D01*
X196411602Y-74056062D02*
X196411602Y-72786062D01*
X196411602Y-72786062D02*
X195988268Y-73693205D01*
X195988268Y-73693205D02*
X195564935Y-72786062D01*
X195564935Y-72786062D02*
X195564935Y-74056062D01*
X194718268Y-72786062D02*
X194476363Y-72786062D01*
X194476363Y-72786062D02*
X194355411Y-72846538D01*
X194355411Y-72846538D02*
X194234458Y-72967490D01*
X194234458Y-72967490D02*
X194173982Y-73209395D01*
X194173982Y-73209395D02*
X194173982Y-73632728D01*
X194173982Y-73632728D02*
X194234458Y-73874633D01*
X194234458Y-73874633D02*
X194355411Y-73995586D01*
X194355411Y-73995586D02*
X194476363Y-74056062D01*
X194476363Y-74056062D02*
X194718268Y-74056062D01*
X194718268Y-74056062D02*
X194839220Y-73995586D01*
X194839220Y-73995586D02*
X194960173Y-73874633D01*
X194960173Y-73874633D02*
X195020649Y-73632728D01*
X195020649Y-73632728D02*
X195020649Y-73209395D01*
X195020649Y-73209395D02*
X194960173Y-72967490D01*
X194960173Y-72967490D02*
X194839220Y-72846538D01*
X194839220Y-72846538D02*
X194718268Y-72786062D01*
X193629697Y-74056062D02*
X193629697Y-72786062D01*
X193629697Y-72786062D02*
X193327316Y-72786062D01*
X193327316Y-72786062D02*
X193145887Y-72846538D01*
X193145887Y-72846538D02*
X193024935Y-72967490D01*
X193024935Y-72967490D02*
X192964458Y-73088443D01*
X192964458Y-73088443D02*
X192903982Y-73330347D01*
X192903982Y-73330347D02*
X192903982Y-73511776D01*
X192903982Y-73511776D02*
X192964458Y-73753681D01*
X192964458Y-73753681D02*
X193024935Y-73874633D01*
X193024935Y-73874633D02*
X193145887Y-73995586D01*
X193145887Y-73995586D02*
X193327316Y-74056062D01*
X193327316Y-74056062D02*
X193629697Y-74056062D01*
X192359697Y-73572252D02*
X191392078Y-73572252D01*
X190787316Y-74056062D02*
X190787316Y-72786062D01*
X190182554Y-74056062D02*
X190182554Y-72786062D01*
X190182554Y-72786062D02*
X189456839Y-74056062D01*
X189456839Y-74056062D02*
X189456839Y-72786062D01*
X189033506Y-72786062D02*
X188307792Y-72786062D01*
X188670649Y-74056062D02*
X188670649Y-72786062D01*
D11*
X179872799Y-50807291D02*
X179872799Y-53829891D01*
X179872799Y-53829891D02*
X179872799Y-56852491D01*
X179872799Y-56852491D02*
X179872799Y-59875091D01*
X179872799Y-59875091D02*
X179872799Y-62897691D01*
X179872799Y-62897691D02*
X179872799Y-65920291D01*
X179872799Y-65920291D02*
X179872799Y-68942891D01*
X179872799Y-68942891D02*
X179872799Y-71965491D01*
X179872799Y-71965491D02*
X179872799Y-74988091D01*
X186832399Y-50807291D02*
X186832399Y-53829891D01*
X186832399Y-53829891D02*
X186832399Y-56852491D01*
X186832399Y-56852491D02*
X186832399Y-59875091D01*
X186832399Y-59875091D02*
X186832399Y-62897691D01*
X186832399Y-62897691D02*
X186832399Y-65920291D01*
X186832399Y-65920291D02*
X186832399Y-68942891D01*
X186832399Y-68942891D02*
X186832399Y-71965491D01*
X186832399Y-71965491D02*
X186832399Y-74988091D01*
X179872799Y-53829891D02*
X172862399Y-53829891D01*
X186832399Y-53829891D02*
X179872799Y-53829891D01*
X202961399Y-53829891D02*
X186832399Y-53829891D01*
X179872799Y-56852491D02*
X172862399Y-56852491D01*
X186832399Y-56852491D02*
X179872799Y-56852491D01*
X202961399Y-56852491D02*
X186832399Y-56852491D01*
X179872799Y-59875091D02*
X172862399Y-59875091D01*
X186832399Y-59875091D02*
X179872799Y-59875091D01*
X202961399Y-59875091D02*
X186832399Y-59875091D01*
X179872799Y-62897691D02*
X172862399Y-62897691D01*
X186832399Y-62897691D02*
X179872799Y-62897691D01*
X202961399Y-62897691D02*
X186832399Y-62897691D01*
X179872799Y-65920291D02*
X172862399Y-65920291D01*
X186832399Y-65920291D02*
X179872799Y-65920291D01*
X202961399Y-65920291D02*
X186832399Y-65920291D01*
X179872799Y-68942891D02*
X172862399Y-68942891D01*
X186832399Y-68942891D02*
X179872799Y-68942891D01*
X202961399Y-68942891D02*
X186832399Y-68942891D01*
X179872799Y-71965491D02*
X172862399Y-71965491D01*
X186832399Y-71965491D02*
X179872799Y-71965491D01*
X202961399Y-71965491D02*
X186832399Y-71965491D01*
X172862399Y-50807291D02*
X202961399Y-50807291D01*
X202961399Y-50807291D02*
X202961399Y-74988091D01*
X202961399Y-74988091D02*
X172862399Y-74988091D01*
X172862399Y-74988091D02*
X172862399Y-50807291D01*
D12*
X170764345Y-62101510D02*
X171000047Y-62337212D01*
X170629658Y-62707601D02*
X171336765Y-62000494D01*
X171336765Y-62000494D02*
X171000047Y-61663777D01*
X170326612Y-61057685D02*
X170427627Y-61091357D01*
X170427627Y-61091357D02*
X170528643Y-61192372D01*
X170528643Y-61192372D02*
X170595986Y-61327059D01*
X170595986Y-61327059D02*
X170595986Y-61461746D01*
X170595986Y-61461746D02*
X170562314Y-61562762D01*
X170562314Y-61562762D02*
X170461299Y-61731120D01*
X170461299Y-61731120D02*
X170360284Y-61832136D01*
X170360284Y-61832136D02*
X170191925Y-61933151D01*
X170191925Y-61933151D02*
X170090910Y-61966823D01*
X170090910Y-61966823D02*
X169956223Y-61966823D01*
X169956223Y-61966823D02*
X169821536Y-61899479D01*
X169821536Y-61899479D02*
X169754192Y-61832136D01*
X169754192Y-61832136D02*
X169686849Y-61697449D01*
X169686849Y-61697449D02*
X169686849Y-61630105D01*
X169686849Y-61630105D02*
X169922551Y-61394403D01*
X169922551Y-61394403D02*
X170057238Y-61529090D01*
X169316460Y-61394403D02*
X170023566Y-60687296D01*
X170023566Y-60687296D02*
X168912398Y-60990342D01*
X168912398Y-60990342D02*
X169619505Y-60283235D01*
X168575681Y-60653624D02*
X169282788Y-59946518D01*
X169282788Y-59946518D02*
X169114429Y-59778159D01*
X169114429Y-59778159D02*
X168979742Y-59710815D01*
X168979742Y-59710815D02*
X168845055Y-59710815D01*
X168845055Y-59710815D02*
X168744040Y-59744487D01*
X168744040Y-59744487D02*
X168575681Y-59845502D01*
X168575681Y-59845502D02*
X168474666Y-59946518D01*
X168474666Y-59946518D02*
X168373651Y-60114876D01*
X168373651Y-60114876D02*
X168339979Y-60215892D01*
X168339979Y-60215892D02*
X168339979Y-60350579D01*
X168339979Y-60350579D02*
X168407322Y-60485266D01*
X168407322Y-60485266D02*
X168575681Y-60653624D01*
X168089658Y-61293388D02*
X167146849Y-61764792D01*
X167146849Y-61764792D02*
X167618254Y-60821983D01*
X166742788Y-61293388D02*
X166608101Y-61226044D01*
X166608101Y-61226044D02*
X166439742Y-61057685D01*
X166439742Y-61057685D02*
X166406070Y-60956670D01*
X166406070Y-60956670D02*
X166406070Y-60889327D01*
X166406070Y-60889327D02*
X166439742Y-60788311D01*
X166439742Y-60788311D02*
X166507086Y-60720968D01*
X166507086Y-60720968D02*
X166608101Y-60687296D01*
X166608101Y-60687296D02*
X166675444Y-60687296D01*
X166675444Y-60687296D02*
X166776460Y-60720968D01*
X166776460Y-60720968D02*
X166944818Y-60821983D01*
X166944818Y-60821983D02*
X167045834Y-60855655D01*
X167045834Y-60855655D02*
X167113177Y-60855655D01*
X167113177Y-60855655D02*
X167214192Y-60821983D01*
X167214192Y-60821983D02*
X167281536Y-60754640D01*
X167281536Y-60754640D02*
X167315208Y-60653624D01*
X167315208Y-60653624D02*
X167315208Y-60586281D01*
X167315208Y-60586281D02*
X167281536Y-60485266D01*
X167281536Y-60485266D02*
X167113177Y-60316907D01*
X167113177Y-60316907D02*
X166978490Y-60249563D01*
X166069353Y-60619953D02*
X165934666Y-60552609D01*
X165934666Y-60552609D02*
X165766307Y-60384250D01*
X165766307Y-60384250D02*
X165732635Y-60283235D01*
X165732635Y-60283235D02*
X165732635Y-60215892D01*
X165732635Y-60215892D02*
X165766307Y-60114876D01*
X165766307Y-60114876D02*
X165833651Y-60047533D01*
X165833651Y-60047533D02*
X165934666Y-60013861D01*
X165934666Y-60013861D02*
X166002009Y-60013861D01*
X166002009Y-60013861D02*
X166103025Y-60047533D01*
X166103025Y-60047533D02*
X166271383Y-60148548D01*
X166271383Y-60148548D02*
X166372399Y-60182220D01*
X166372399Y-60182220D02*
X166439742Y-60182220D01*
X166439742Y-60182220D02*
X166540757Y-60148548D01*
X166540757Y-60148548D02*
X166608101Y-60081205D01*
X166608101Y-60081205D02*
X166641773Y-59980189D01*
X166641773Y-59980189D02*
X166641773Y-59912846D01*
X166641773Y-59912846D02*
X166608101Y-59811831D01*
X166608101Y-59811831D02*
X166439742Y-59643472D01*
X166439742Y-59643472D02*
X166305055Y-59576128D01*
X120637780Y-62774945D02*
X120503093Y-62707601D01*
X120503093Y-62707601D02*
X120435749Y-62707601D01*
X120435749Y-62707601D02*
X120334734Y-62741273D01*
X120334734Y-62741273D02*
X120233719Y-62842288D01*
X120233719Y-62842288D02*
X120200047Y-62943303D01*
X120200047Y-62943303D02*
X120200047Y-63010647D01*
X120200047Y-63010647D02*
X120233719Y-63111662D01*
X120233719Y-63111662D02*
X120503093Y-63381036D01*
X120503093Y-63381036D02*
X121210200Y-62673929D01*
X121210200Y-62673929D02*
X120974498Y-62438227D01*
X120974498Y-62438227D02*
X120873482Y-62404555D01*
X120873482Y-62404555D02*
X120806139Y-62404555D01*
X120806139Y-62404555D02*
X120705123Y-62438227D01*
X120705123Y-62438227D02*
X120637780Y-62505571D01*
X120637780Y-62505571D02*
X120604108Y-62606586D01*
X120604108Y-62606586D02*
X120604108Y-62673929D01*
X120604108Y-62673929D02*
X120637780Y-62774945D01*
X120637780Y-62774945D02*
X120873482Y-63010647D01*
X119459269Y-62337212D02*
X119795986Y-62673929D01*
X119795986Y-62673929D02*
X120503093Y-61966823D01*
X119526612Y-61057685D02*
X119627627Y-61091357D01*
X119627627Y-61091357D02*
X119728643Y-61192372D01*
X119728643Y-61192372D02*
X119795986Y-61327059D01*
X119795986Y-61327059D02*
X119795986Y-61461746D01*
X119795986Y-61461746D02*
X119762314Y-61562762D01*
X119762314Y-61562762D02*
X119661299Y-61731120D01*
X119661299Y-61731120D02*
X119560284Y-61832136D01*
X119560284Y-61832136D02*
X119391925Y-61933151D01*
X119391925Y-61933151D02*
X119290910Y-61966823D01*
X119290910Y-61966823D02*
X119156223Y-61966823D01*
X119156223Y-61966823D02*
X119021536Y-61899479D01*
X119021536Y-61899479D02*
X118954192Y-61832136D01*
X118954192Y-61832136D02*
X118886849Y-61697449D01*
X118886849Y-61697449D02*
X118886849Y-61630105D01*
X118886849Y-61630105D02*
X119122551Y-61394403D01*
X119122551Y-61394403D02*
X119257238Y-61529090D01*
X118516460Y-61394403D02*
X119223566Y-60687296D01*
X119223566Y-60687296D02*
X118112398Y-60990342D01*
X118112398Y-60990342D02*
X118819505Y-60283235D01*
X117775681Y-60653624D02*
X118482788Y-59946518D01*
X118482788Y-59946518D02*
X118314429Y-59778159D01*
X118314429Y-59778159D02*
X118179742Y-59710815D01*
X118179742Y-59710815D02*
X118045055Y-59710815D01*
X118045055Y-59710815D02*
X117944040Y-59744487D01*
X117944040Y-59744487D02*
X117775681Y-59845502D01*
X117775681Y-59845502D02*
X117674666Y-59946518D01*
X117674666Y-59946518D02*
X117573651Y-60114876D01*
X117573651Y-60114876D02*
X117539979Y-60215892D01*
X117539979Y-60215892D02*
X117539979Y-60350579D01*
X117539979Y-60350579D02*
X117607322Y-60485266D01*
X117607322Y-60485266D02*
X117775681Y-60653624D01*
X115976460Y-61394403D02*
X116683566Y-60687296D01*
X116683566Y-60687296D02*
X115572398Y-60990342D01*
X115572398Y-60990342D02*
X116279505Y-60283235D01*
X114898964Y-60182220D02*
X114898964Y-60249563D01*
X114898964Y-60249563D02*
X114966307Y-60384250D01*
X114966307Y-60384250D02*
X115033651Y-60451594D01*
X115033651Y-60451594D02*
X115168338Y-60518937D01*
X115168338Y-60518937D02*
X115303025Y-60518937D01*
X115303025Y-60518937D02*
X115404040Y-60485266D01*
X115404040Y-60485266D02*
X115572399Y-60384250D01*
X115572399Y-60384250D02*
X115673414Y-60283235D01*
X115673414Y-60283235D02*
X115774429Y-60114876D01*
X115774429Y-60114876D02*
X115808101Y-60013861D01*
X115808101Y-60013861D02*
X115808101Y-59879174D01*
X115808101Y-59879174D02*
X115740757Y-59744487D01*
X115740757Y-59744487D02*
X115673414Y-59677143D01*
X115673414Y-59677143D02*
X115538727Y-59609800D01*
X115538727Y-59609800D02*
X115471383Y-59609800D01*
X165010910Y-62168853D02*
X165718017Y-61461746D01*
X165718017Y-61461746D02*
X165448643Y-61192372D01*
X165448643Y-61192372D02*
X165347627Y-61158700D01*
X165347627Y-61158700D02*
X165280284Y-61158700D01*
X165280284Y-61158700D02*
X165179268Y-61192372D01*
X165179268Y-61192372D02*
X165078253Y-61293387D01*
X165078253Y-61293387D02*
X165044581Y-61394403D01*
X165044581Y-61394403D02*
X165044581Y-61461746D01*
X165044581Y-61461746D02*
X165078253Y-61562761D01*
X165078253Y-61562761D02*
X165347627Y-61832135D01*
X165078253Y-60821983D02*
X164202788Y-61360731D01*
X164202788Y-61360731D02*
X164573177Y-60720968D01*
X164573177Y-60720968D02*
X163933414Y-61091357D01*
X163933414Y-61091357D02*
X164472162Y-60215891D01*
X163091620Y-60249563D02*
X163664040Y-60148548D01*
X163495681Y-60653624D02*
X164202788Y-59946518D01*
X164202788Y-59946518D02*
X163933414Y-59677143D01*
X163933414Y-59677143D02*
X163832399Y-59643472D01*
X163832399Y-59643472D02*
X163765055Y-59643472D01*
X163765055Y-59643472D02*
X163664040Y-59677143D01*
X163664040Y-59677143D02*
X163563025Y-59778159D01*
X163563025Y-59778159D02*
X163529353Y-59879174D01*
X163529353Y-59879174D02*
X163529353Y-59946518D01*
X163529353Y-59946518D02*
X163563025Y-60047533D01*
X163563025Y-60047533D02*
X163832399Y-60316907D01*
X163178017Y-62741273D02*
X163178017Y-62808617D01*
X163178017Y-62808617D02*
X163245360Y-62943304D01*
X163245360Y-62943304D02*
X163312704Y-63010647D01*
X163312704Y-63010647D02*
X163447391Y-63077991D01*
X163447391Y-63077991D02*
X163582078Y-63077991D01*
X163582078Y-63077991D02*
X163683093Y-63044319D01*
X163683093Y-63044319D02*
X163851452Y-62943304D01*
X163851452Y-62943304D02*
X163952467Y-62842288D01*
X163952467Y-62842288D02*
X164053482Y-62673930D01*
X164053482Y-62673930D02*
X164087154Y-62572914D01*
X164087154Y-62572914D02*
X164087154Y-62438227D01*
X164087154Y-62438227D02*
X164019811Y-62303540D01*
X164019811Y-62303540D02*
X163952467Y-62236197D01*
X163952467Y-62236197D02*
X163817780Y-62168853D01*
X163817780Y-62168853D02*
X163750437Y-62168853D01*
X162807628Y-62505571D02*
X163514734Y-61798464D01*
X163514734Y-61798464D02*
X162403567Y-62101510D01*
X162403567Y-62101510D02*
X163110673Y-61394403D01*
X162874971Y-61158701D02*
X162470910Y-60754640D01*
X161965834Y-61663777D02*
X162672941Y-60956670D01*
X162336223Y-60619953D02*
X161393414Y-61091357D01*
X161393414Y-61091357D02*
X161864818Y-60148548D01*
X161494429Y-59778159D02*
X161427086Y-59710815D01*
X161427086Y-59710815D02*
X161326070Y-59677144D01*
X161326070Y-59677144D02*
X161258727Y-59677144D01*
X161258727Y-59677144D02*
X161157712Y-59710815D01*
X161157712Y-59710815D02*
X160989353Y-59811831D01*
X160989353Y-59811831D02*
X160820994Y-59980189D01*
X160820994Y-59980189D02*
X160719979Y-60148548D01*
X160719979Y-60148548D02*
X160686307Y-60249563D01*
X160686307Y-60249563D02*
X160686307Y-60316907D01*
X160686307Y-60316907D02*
X160719979Y-60417922D01*
X160719979Y-60417922D02*
X160787322Y-60485266D01*
X160787322Y-60485266D02*
X160888338Y-60518937D01*
X160888338Y-60518937D02*
X160955681Y-60518937D01*
X160955681Y-60518937D02*
X161056696Y-60485266D01*
X161056696Y-60485266D02*
X161225055Y-60384250D01*
X161225055Y-60384250D02*
X161393414Y-60215892D01*
X161393414Y-60215892D02*
X161494429Y-60047533D01*
X161494429Y-60047533D02*
X161528101Y-59946518D01*
X161528101Y-59946518D02*
X161528101Y-59879174D01*
X161528101Y-59879174D02*
X161494429Y-59778159D01*
X160873719Y-61697448D02*
X159998253Y-62236196D01*
X159998253Y-62236196D02*
X160368642Y-61596433D01*
X160368642Y-61596433D02*
X159728879Y-61966822D01*
X159728879Y-61966822D02*
X160267627Y-61091357D01*
X158887085Y-61125029D02*
X159459505Y-61024013D01*
X159291146Y-61529090D02*
X159998253Y-60821983D01*
X159998253Y-60821983D02*
X159728879Y-60552609D01*
X159728879Y-60552609D02*
X159627864Y-60518937D01*
X159627864Y-60518937D02*
X159560520Y-60518937D01*
X159560520Y-60518937D02*
X159459505Y-60552609D01*
X159459505Y-60552609D02*
X159358490Y-60653624D01*
X159358490Y-60653624D02*
X159324818Y-60754639D01*
X159324818Y-60754639D02*
X159324818Y-60821983D01*
X159324818Y-60821983D02*
X159358490Y-60922998D01*
X159358490Y-60922998D02*
X159627864Y-61192372D01*
X158853414Y-60552609D02*
X158314666Y-60013861D01*
X157054192Y-61832135D02*
X157626612Y-61731120D01*
X157458253Y-62236196D02*
X158165360Y-61529090D01*
X158165360Y-61529090D02*
X157895986Y-61259716D01*
X157895986Y-61259716D02*
X157794971Y-61226044D01*
X157794971Y-61226044D02*
X157727627Y-61226044D01*
X157727627Y-61226044D02*
X157626612Y-61259716D01*
X157626612Y-61259716D02*
X157525597Y-61360731D01*
X157525597Y-61360731D02*
X157491925Y-61461746D01*
X157491925Y-61461746D02*
X157491925Y-61529090D01*
X157491925Y-61529090D02*
X157525597Y-61630105D01*
X157525597Y-61630105D02*
X157794971Y-61899479D01*
X156751146Y-61529090D02*
X157458253Y-60821983D01*
X157458253Y-60821983D02*
X157289894Y-60653624D01*
X157289894Y-60653624D02*
X157155207Y-60586281D01*
X157155207Y-60586281D02*
X157020520Y-60586281D01*
X157020520Y-60586281D02*
X156919505Y-60619952D01*
X156919505Y-60619952D02*
X156751146Y-60720968D01*
X156751146Y-60720968D02*
X156650131Y-60821983D01*
X156650131Y-60821983D02*
X156549116Y-60990342D01*
X156549116Y-60990342D02*
X156515444Y-61091357D01*
X156515444Y-61091357D02*
X156515444Y-61226044D01*
X156515444Y-61226044D02*
X156582788Y-61360731D01*
X156582788Y-61360731D02*
X156751146Y-61529090D01*
X156313414Y-60552609D02*
X155774666Y-60013861D01*
X154547864Y-61731120D02*
X154547864Y-61798464D01*
X154547864Y-61798464D02*
X154615207Y-61933151D01*
X154615207Y-61933151D02*
X154682551Y-62000494D01*
X154682551Y-62000494D02*
X154817238Y-62067838D01*
X154817238Y-62067838D02*
X154951925Y-62067838D01*
X154951925Y-62067838D02*
X155052940Y-62034166D01*
X155052940Y-62034166D02*
X155221299Y-61933151D01*
X155221299Y-61933151D02*
X155322314Y-61832135D01*
X155322314Y-61832135D02*
X155423329Y-61663777D01*
X155423329Y-61663777D02*
X155457001Y-61562761D01*
X155457001Y-61562761D02*
X155457001Y-61428074D01*
X155457001Y-61428074D02*
X155389658Y-61293387D01*
X155389658Y-61293387D02*
X155322314Y-61226044D01*
X155322314Y-61226044D02*
X155187627Y-61158700D01*
X155187627Y-61158700D02*
X155120284Y-61158700D01*
X154244818Y-61495418D02*
X154110131Y-61428074D01*
X154110131Y-61428074D02*
X153941772Y-61259716D01*
X153941772Y-61259716D02*
X153908101Y-61158700D01*
X153908101Y-61158700D02*
X153908101Y-61091357D01*
X153908101Y-61091357D02*
X153941772Y-60990342D01*
X153941772Y-60990342D02*
X154009116Y-60922998D01*
X154009116Y-60922998D02*
X154110131Y-60889326D01*
X154110131Y-60889326D02*
X154177475Y-60889326D01*
X154177475Y-60889326D02*
X154278490Y-60922998D01*
X154278490Y-60922998D02*
X154446849Y-61024013D01*
X154446849Y-61024013D02*
X154547864Y-61057685D01*
X154547864Y-61057685D02*
X154615207Y-61057685D01*
X154615207Y-61057685D02*
X154716223Y-61024013D01*
X154716223Y-61024013D02*
X154783566Y-60956670D01*
X154783566Y-60956670D02*
X154817238Y-60855655D01*
X154817238Y-60855655D02*
X154817238Y-60788311D01*
X154817238Y-60788311D02*
X154783566Y-60687296D01*
X154783566Y-60687296D02*
X154615207Y-60518937D01*
X154615207Y-60518937D02*
X154480520Y-60451594D01*
X153773414Y-60552609D02*
X153234666Y-60013861D01*
X152782314Y-62505570D02*
X152782314Y-62572914D01*
X152782314Y-62572914D02*
X152849658Y-62707601D01*
X152849658Y-62707601D02*
X152917001Y-62774944D01*
X152917001Y-62774944D02*
X153051688Y-62842288D01*
X153051688Y-62842288D02*
X153186375Y-62842288D01*
X153186375Y-62842288D02*
X153287390Y-62808616D01*
X153287390Y-62808616D02*
X153455749Y-62707601D01*
X153455749Y-62707601D02*
X153556764Y-62606586D01*
X153556764Y-62606586D02*
X153657780Y-62438227D01*
X153657780Y-62438227D02*
X153691451Y-62337212D01*
X153691451Y-62337212D02*
X153691451Y-62202525D01*
X153691451Y-62202525D02*
X153624108Y-62067838D01*
X153624108Y-62067838D02*
X153556764Y-62000494D01*
X153556764Y-62000494D02*
X153422077Y-61933151D01*
X153422077Y-61933151D02*
X153354734Y-61933151D01*
X152647627Y-61024013D02*
X152344581Y-62539242D01*
X151671146Y-61529090D02*
X152378253Y-60821983D01*
X152378253Y-60821983D02*
X152209894Y-60653624D01*
X152209894Y-60653624D02*
X152075207Y-60586281D01*
X152075207Y-60586281D02*
X151940520Y-60586281D01*
X151940520Y-60586281D02*
X151839505Y-60619952D01*
X151839505Y-60619952D02*
X151671146Y-60720968D01*
X151671146Y-60720968D02*
X151570131Y-60821983D01*
X151570131Y-60821983D02*
X151469116Y-60990342D01*
X151469116Y-60990342D02*
X151435444Y-61091357D01*
X151435444Y-61091357D02*
X151435444Y-61226044D01*
X151435444Y-61226044D02*
X151502788Y-61360731D01*
X151502788Y-61360731D02*
X151671146Y-61529090D01*
X151233414Y-60552609D02*
X150694666Y-60013861D01*
X149939269Y-62337212D02*
X150511688Y-62236197D01*
X150343330Y-62741273D02*
X151050436Y-62034166D01*
X151050436Y-62034166D02*
X150781062Y-61764792D01*
X150781062Y-61764792D02*
X150680047Y-61731120D01*
X150680047Y-61731120D02*
X150612704Y-61731120D01*
X150612704Y-61731120D02*
X150511688Y-61764792D01*
X150511688Y-61764792D02*
X150410673Y-61865807D01*
X150410673Y-61865807D02*
X150377001Y-61966823D01*
X150377001Y-61966823D02*
X150377001Y-62034166D01*
X150377001Y-62034166D02*
X150410673Y-62135181D01*
X150410673Y-62135181D02*
X150680047Y-62404555D01*
X149703566Y-62034166D02*
X149568879Y-61966823D01*
X149568879Y-61966823D02*
X149400521Y-61798464D01*
X149400521Y-61798464D02*
X149366849Y-61697449D01*
X149366849Y-61697449D02*
X149366849Y-61630105D01*
X149366849Y-61630105D02*
X149400521Y-61529090D01*
X149400521Y-61529090D02*
X149467864Y-61461746D01*
X149467864Y-61461746D02*
X149568879Y-61428075D01*
X149568879Y-61428075D02*
X149636223Y-61428075D01*
X149636223Y-61428075D02*
X149737238Y-61461746D01*
X149737238Y-61461746D02*
X149905597Y-61562762D01*
X149905597Y-61562762D02*
X150006612Y-61596433D01*
X150006612Y-61596433D02*
X150073956Y-61596433D01*
X150073956Y-61596433D02*
X150174971Y-61562762D01*
X150174971Y-61562762D02*
X150242314Y-61495418D01*
X150242314Y-61495418D02*
X150275986Y-61394403D01*
X150275986Y-61394403D02*
X150275986Y-61327059D01*
X150275986Y-61327059D02*
X150242314Y-61226044D01*
X150242314Y-61226044D02*
X150073956Y-61057685D01*
X150073956Y-61057685D02*
X149939269Y-60990342D01*
X149770910Y-60754640D02*
X149366849Y-60350579D01*
X148861773Y-61259716D02*
X149568879Y-60552609D01*
X148693414Y-60552609D02*
X148154666Y-60013861D01*
X146389116Y-61327059D02*
X147096223Y-60619953D01*
X147096223Y-60619953D02*
X146927864Y-60451594D01*
X146927864Y-60451594D02*
X146793177Y-60384250D01*
X146793177Y-60384250D02*
X146658490Y-60384250D01*
X146658490Y-60384250D02*
X146557475Y-60417922D01*
X146557475Y-60417922D02*
X146389116Y-60518937D01*
X146389116Y-60518937D02*
X146288101Y-60619953D01*
X146288101Y-60619953D02*
X146187086Y-60788311D01*
X146187086Y-60788311D02*
X146153414Y-60889327D01*
X146153414Y-60889327D02*
X146153414Y-61024014D01*
X146153414Y-61024014D02*
X146220757Y-61158701D01*
X146220757Y-61158701D02*
X146389116Y-61327059D01*
X146254429Y-59778159D02*
X146187086Y-59710815D01*
X146187086Y-59710815D02*
X146086070Y-59677144D01*
X146086070Y-59677144D02*
X146018727Y-59677144D01*
X146018727Y-59677144D02*
X145917712Y-59710815D01*
X145917712Y-59710815D02*
X145749353Y-59811831D01*
X145749353Y-59811831D02*
X145580994Y-59980189D01*
X145580994Y-59980189D02*
X145479979Y-60148548D01*
X145479979Y-60148548D02*
X145446307Y-60249563D01*
X145446307Y-60249563D02*
X145446307Y-60316907D01*
X145446307Y-60316907D02*
X145479979Y-60417922D01*
X145479979Y-60417922D02*
X145547322Y-60485266D01*
X145547322Y-60485266D02*
X145648338Y-60518937D01*
X145648338Y-60518937D02*
X145715681Y-60518937D01*
X145715681Y-60518937D02*
X145816696Y-60485266D01*
X145816696Y-60485266D02*
X145985055Y-60384250D01*
X145985055Y-60384250D02*
X146153414Y-60215892D01*
X146153414Y-60215892D02*
X146254429Y-60047533D01*
X146254429Y-60047533D02*
X146288101Y-59946518D01*
X146288101Y-59946518D02*
X146288101Y-59879174D01*
X146288101Y-59879174D02*
X146254429Y-59778159D01*
X143849116Y-61327059D02*
X144556223Y-60619953D01*
X144556223Y-60619953D02*
X144387864Y-60451594D01*
X144387864Y-60451594D02*
X144253177Y-60384250D01*
X144253177Y-60384250D02*
X144118490Y-60384250D01*
X144118490Y-60384250D02*
X144017475Y-60417922D01*
X144017475Y-60417922D02*
X143849116Y-60518937D01*
X143849116Y-60518937D02*
X143748101Y-60619953D01*
X143748101Y-60619953D02*
X143647086Y-60788311D01*
X143647086Y-60788311D02*
X143613414Y-60889327D01*
X143613414Y-60889327D02*
X143613414Y-61024014D01*
X143613414Y-61024014D02*
X143680757Y-61158701D01*
X143680757Y-61158701D02*
X143849116Y-61327059D01*
X142771620Y-60249563D02*
X143175681Y-60653624D01*
X142973651Y-60451594D02*
X143680757Y-59744487D01*
X143680757Y-59744487D02*
X143647086Y-59912846D01*
X143647086Y-59912846D02*
X143647086Y-60047533D01*
X143647086Y-60047533D02*
X143680757Y-60148548D01*
X141309116Y-61327059D02*
X142016223Y-60619953D01*
X142016223Y-60619953D02*
X141847864Y-60451594D01*
X141847864Y-60451594D02*
X141713177Y-60384250D01*
X141713177Y-60384250D02*
X141578490Y-60384250D01*
X141578490Y-60384250D02*
X141477475Y-60417922D01*
X141477475Y-60417922D02*
X141309116Y-60518937D01*
X141309116Y-60518937D02*
X141208101Y-60619953D01*
X141208101Y-60619953D02*
X141107086Y-60788311D01*
X141107086Y-60788311D02*
X141073414Y-60889327D01*
X141073414Y-60889327D02*
X141073414Y-61024014D01*
X141073414Y-61024014D02*
X141140757Y-61158701D01*
X141140757Y-61158701D02*
X141309116Y-61327059D01*
X141275444Y-60013861D02*
X141275444Y-59946518D01*
X141275444Y-59946518D02*
X141241773Y-59845502D01*
X141241773Y-59845502D02*
X141073414Y-59677144D01*
X141073414Y-59677144D02*
X140972399Y-59643472D01*
X140972399Y-59643472D02*
X140905055Y-59643472D01*
X140905055Y-59643472D02*
X140804040Y-59677144D01*
X140804040Y-59677144D02*
X140736696Y-59744487D01*
X140736696Y-59744487D02*
X140669353Y-59879174D01*
X140669353Y-59879174D02*
X140669353Y-60687296D01*
X140669353Y-60687296D02*
X140231620Y-60249563D01*
X138769116Y-61327059D02*
X139476223Y-60619953D01*
X139476223Y-60619953D02*
X139307864Y-60451594D01*
X139307864Y-60451594D02*
X139173177Y-60384250D01*
X139173177Y-60384250D02*
X139038490Y-60384250D01*
X139038490Y-60384250D02*
X138937475Y-60417922D01*
X138937475Y-60417922D02*
X138769116Y-60518937D01*
X138769116Y-60518937D02*
X138668101Y-60619953D01*
X138668101Y-60619953D02*
X138567086Y-60788311D01*
X138567086Y-60788311D02*
X138533414Y-60889327D01*
X138533414Y-60889327D02*
X138533414Y-61024014D01*
X138533414Y-61024014D02*
X138600757Y-61158701D01*
X138600757Y-61158701D02*
X138769116Y-61327059D01*
X138836460Y-59980189D02*
X138398727Y-59542457D01*
X138398727Y-59542457D02*
X138365055Y-60047533D01*
X138365055Y-60047533D02*
X138264040Y-59946518D01*
X138264040Y-59946518D02*
X138163025Y-59912846D01*
X138163025Y-59912846D02*
X138095681Y-59912846D01*
X138095681Y-59912846D02*
X137994666Y-59946518D01*
X137994666Y-59946518D02*
X137826307Y-60114876D01*
X137826307Y-60114876D02*
X137792635Y-60215892D01*
X137792635Y-60215892D02*
X137792635Y-60283235D01*
X137792635Y-60283235D02*
X137826307Y-60384250D01*
X137826307Y-60384250D02*
X138028338Y-60586281D01*
X138028338Y-60586281D02*
X138129353Y-60619953D01*
X138129353Y-60619953D02*
X138196696Y-60619953D01*
X136229116Y-61327059D02*
X136936223Y-60619953D01*
X136936223Y-60619953D02*
X136767864Y-60451594D01*
X136767864Y-60451594D02*
X136633177Y-60384250D01*
X136633177Y-60384250D02*
X136498490Y-60384250D01*
X136498490Y-60384250D02*
X136397475Y-60417922D01*
X136397475Y-60417922D02*
X136229116Y-60518937D01*
X136229116Y-60518937D02*
X136128101Y-60619953D01*
X136128101Y-60619953D02*
X136027086Y-60788311D01*
X136027086Y-60788311D02*
X135993414Y-60889327D01*
X135993414Y-60889327D02*
X135993414Y-61024014D01*
X135993414Y-61024014D02*
X136060757Y-61158701D01*
X136060757Y-61158701D02*
X136229116Y-61327059D01*
X135690368Y-59845502D02*
X135218964Y-60316907D01*
X136128101Y-59744487D02*
X135791383Y-60417922D01*
X135791383Y-60417922D02*
X135353651Y-59980189D01*
X133689116Y-61327059D02*
X134396223Y-60619953D01*
X134396223Y-60619953D02*
X134227864Y-60451594D01*
X134227864Y-60451594D02*
X134093177Y-60384250D01*
X134093177Y-60384250D02*
X133958490Y-60384250D01*
X133958490Y-60384250D02*
X133857475Y-60417922D01*
X133857475Y-60417922D02*
X133689116Y-60518937D01*
X133689116Y-60518937D02*
X133588101Y-60619953D01*
X133588101Y-60619953D02*
X133487086Y-60788311D01*
X133487086Y-60788311D02*
X133453414Y-60889327D01*
X133453414Y-60889327D02*
X133453414Y-61024014D01*
X133453414Y-61024014D02*
X133520757Y-61158701D01*
X133520757Y-61158701D02*
X133689116Y-61327059D01*
X133352399Y-59576128D02*
X133689116Y-59912846D01*
X133689116Y-59912846D02*
X133386070Y-60283235D01*
X133386070Y-60283235D02*
X133386070Y-60215892D01*
X133386070Y-60215892D02*
X133352399Y-60114876D01*
X133352399Y-60114876D02*
X133184040Y-59946518D01*
X133184040Y-59946518D02*
X133083025Y-59912846D01*
X133083025Y-59912846D02*
X133015681Y-59912846D01*
X133015681Y-59912846D02*
X132914666Y-59946518D01*
X132914666Y-59946518D02*
X132746307Y-60114876D01*
X132746307Y-60114876D02*
X132712635Y-60215892D01*
X132712635Y-60215892D02*
X132712635Y-60283235D01*
X132712635Y-60283235D02*
X132746307Y-60384250D01*
X132746307Y-60384250D02*
X132914666Y-60552609D01*
X132914666Y-60552609D02*
X133015681Y-60586281D01*
X133015681Y-60586281D02*
X133083025Y-60586281D01*
X131149116Y-61327059D02*
X131856223Y-60619953D01*
X131856223Y-60619953D02*
X131687864Y-60451594D01*
X131687864Y-60451594D02*
X131553177Y-60384250D01*
X131553177Y-60384250D02*
X131418490Y-60384250D01*
X131418490Y-60384250D02*
X131317475Y-60417922D01*
X131317475Y-60417922D02*
X131149116Y-60518937D01*
X131149116Y-60518937D02*
X131048101Y-60619953D01*
X131048101Y-60619953D02*
X130947086Y-60788311D01*
X130947086Y-60788311D02*
X130913414Y-60889327D01*
X130913414Y-60889327D02*
X130913414Y-61024014D01*
X130913414Y-61024014D02*
X130980757Y-61158701D01*
X130980757Y-61158701D02*
X131149116Y-61327059D01*
X130846070Y-59609800D02*
X130980757Y-59744487D01*
X130980757Y-59744487D02*
X131014429Y-59845502D01*
X131014429Y-59845502D02*
X131014429Y-59912846D01*
X131014429Y-59912846D02*
X130980757Y-60081205D01*
X130980757Y-60081205D02*
X130879742Y-60249563D01*
X130879742Y-60249563D02*
X130610368Y-60518937D01*
X130610368Y-60518937D02*
X130509353Y-60552609D01*
X130509353Y-60552609D02*
X130442009Y-60552609D01*
X130442009Y-60552609D02*
X130340994Y-60518937D01*
X130340994Y-60518937D02*
X130206307Y-60384250D01*
X130206307Y-60384250D02*
X130172635Y-60283235D01*
X130172635Y-60283235D02*
X130172635Y-60215892D01*
X130172635Y-60215892D02*
X130206307Y-60114876D01*
X130206307Y-60114876D02*
X130374666Y-59946518D01*
X130374666Y-59946518D02*
X130475681Y-59912846D01*
X130475681Y-59912846D02*
X130543025Y-59912846D01*
X130543025Y-59912846D02*
X130644040Y-59946518D01*
X130644040Y-59946518D02*
X130778727Y-60081205D01*
X130778727Y-60081205D02*
X130812399Y-60182220D01*
X130812399Y-60182220D02*
X130812399Y-60249563D01*
X130812399Y-60249563D02*
X130778727Y-60350579D01*
X128609116Y-61327059D02*
X129316223Y-60619953D01*
X129316223Y-60619953D02*
X129147864Y-60451594D01*
X129147864Y-60451594D02*
X129013177Y-60384250D01*
X129013177Y-60384250D02*
X128878490Y-60384250D01*
X128878490Y-60384250D02*
X128777475Y-60417922D01*
X128777475Y-60417922D02*
X128609116Y-60518937D01*
X128609116Y-60518937D02*
X128508101Y-60619953D01*
X128508101Y-60619953D02*
X128407086Y-60788311D01*
X128407086Y-60788311D02*
X128373414Y-60889327D01*
X128373414Y-60889327D02*
X128373414Y-61024014D01*
X128373414Y-61024014D02*
X128440757Y-61158701D01*
X128440757Y-61158701D02*
X128609116Y-61327059D01*
X128676460Y-59980189D02*
X128205055Y-59508785D01*
X128205055Y-59508785D02*
X127800994Y-60518937D01*
X128123093Y-62640258D02*
X128358795Y-62875960D01*
X127988406Y-63246349D02*
X128695513Y-62539243D01*
X128695513Y-62539243D02*
X128358795Y-62202525D01*
X127954734Y-61798464D02*
X127820047Y-61663777D01*
X127820047Y-61663777D02*
X127719032Y-61630105D01*
X127719032Y-61630105D02*
X127584345Y-61630105D01*
X127584345Y-61630105D02*
X127415986Y-61731120D01*
X127415986Y-61731120D02*
X127180284Y-61966823D01*
X127180284Y-61966823D02*
X127079269Y-62135181D01*
X127079269Y-62135181D02*
X127079269Y-62269868D01*
X127079269Y-62269868D02*
X127112940Y-62370884D01*
X127112940Y-62370884D02*
X127247627Y-62505571D01*
X127247627Y-62505571D02*
X127348643Y-62539242D01*
X127348643Y-62539242D02*
X127483330Y-62539242D01*
X127483330Y-62539242D02*
X127651689Y-62438227D01*
X127651689Y-62438227D02*
X127887391Y-62202525D01*
X127887391Y-62202525D02*
X127988406Y-62034166D01*
X127988406Y-62034166D02*
X127988406Y-61899479D01*
X127988406Y-61899479D02*
X127954734Y-61798464D01*
X126641536Y-61899479D02*
X127348643Y-61192372D01*
X127348643Y-61192372D02*
X126237475Y-61495418D01*
X126237475Y-61495418D02*
X126944582Y-60788311D01*
X126708880Y-60552609D02*
X126304819Y-60148548D01*
X125799742Y-61057686D02*
X126506849Y-60350579D01*
X124991620Y-60249563D02*
X125395681Y-60653624D01*
X125193651Y-60451594D02*
X125900757Y-59744487D01*
X125900757Y-59744487D02*
X125867086Y-59912846D01*
X125867086Y-59912846D02*
X125867086Y-60047533D01*
X125867086Y-60047533D02*
X125900757Y-60148548D01*
X126020826Y-63684082D02*
X126020826Y-63751425D01*
X126020826Y-63751425D02*
X126088169Y-63886112D01*
X126088169Y-63886112D02*
X126155513Y-63953456D01*
X126155513Y-63953456D02*
X126290200Y-64020799D01*
X126290200Y-64020799D02*
X126424887Y-64020799D01*
X126424887Y-64020799D02*
X126525902Y-63987128D01*
X126525902Y-63987128D02*
X126694261Y-63886112D01*
X126694261Y-63886112D02*
X126795276Y-63785097D01*
X126795276Y-63785097D02*
X126896291Y-63616738D01*
X126896291Y-63616738D02*
X126929963Y-63515723D01*
X126929963Y-63515723D02*
X126929963Y-63381036D01*
X126929963Y-63381036D02*
X126862619Y-63246349D01*
X126862619Y-63246349D02*
X126795276Y-63179006D01*
X126795276Y-63179006D02*
X126660589Y-63111662D01*
X126660589Y-63111662D02*
X126593245Y-63111662D01*
X125650436Y-63448380D02*
X126357543Y-62741273D01*
X126357543Y-62741273D02*
X125246375Y-63044319D01*
X125246375Y-63044319D02*
X125953482Y-62337212D01*
X125717780Y-62101510D02*
X125313719Y-61697449D01*
X124808643Y-62606586D02*
X125515749Y-61899479D01*
X124370910Y-62168853D02*
X125078017Y-61461746D01*
X125078017Y-61461746D02*
X124808643Y-61192372D01*
X124808643Y-61192372D02*
X124707627Y-61158700D01*
X124707627Y-61158700D02*
X124640284Y-61158700D01*
X124640284Y-61158700D02*
X124539268Y-61192372D01*
X124539268Y-61192372D02*
X124438253Y-61293387D01*
X124438253Y-61293387D02*
X124404581Y-61394403D01*
X124404581Y-61394403D02*
X124404581Y-61461746D01*
X124404581Y-61461746D02*
X124438253Y-61562761D01*
X124438253Y-61562761D02*
X124707627Y-61832135D01*
X124438253Y-60821983D02*
X123562788Y-61360731D01*
X123562788Y-61360731D02*
X123933177Y-60720968D01*
X123933177Y-60720968D02*
X123293414Y-61091357D01*
X123293414Y-61091357D02*
X123832162Y-60215891D01*
X122451620Y-60249563D02*
X123024040Y-60148548D01*
X122855681Y-60653624D02*
X123562788Y-59946518D01*
X123562788Y-59946518D02*
X123293414Y-59677143D01*
X123293414Y-59677143D02*
X123192399Y-59643472D01*
X123192399Y-59643472D02*
X123125055Y-59643472D01*
X123125055Y-59643472D02*
X123024040Y-59677143D01*
X123024040Y-59677143D02*
X122923025Y-59778159D01*
X122923025Y-59778159D02*
X122889353Y-59879174D01*
X122889353Y-59879174D02*
X122889353Y-59946518D01*
X122889353Y-59946518D02*
X122923025Y-60047533D01*
X122923025Y-60047533D02*
X123192399Y-60316907D01*
X123245123Y-62842288D02*
X123110436Y-62774945D01*
X123110436Y-62774945D02*
X123043093Y-62774945D01*
X123043093Y-62774945D02*
X122942078Y-62808616D01*
X122942078Y-62808616D02*
X122841062Y-62909632D01*
X122841062Y-62909632D02*
X122807391Y-63010647D01*
X122807391Y-63010647D02*
X122807391Y-63077990D01*
X122807391Y-63077990D02*
X122841062Y-63179006D01*
X122841062Y-63179006D02*
X123110436Y-63448380D01*
X123110436Y-63448380D02*
X123817543Y-62741273D01*
X123817543Y-62741273D02*
X123581841Y-62505571D01*
X123581841Y-62505571D02*
X123480826Y-62471899D01*
X123480826Y-62471899D02*
X123413482Y-62471899D01*
X123413482Y-62471899D02*
X123312467Y-62505571D01*
X123312467Y-62505571D02*
X123245123Y-62572914D01*
X123245123Y-62572914D02*
X123211452Y-62673929D01*
X123211452Y-62673929D02*
X123211452Y-62741273D01*
X123211452Y-62741273D02*
X123245123Y-62842288D01*
X123245123Y-62842288D02*
X123480826Y-63077990D01*
X122066612Y-62404555D02*
X122403330Y-62741273D01*
X122403330Y-62741273D02*
X123110436Y-62034166D01*
X121830910Y-62168853D02*
X122538017Y-61461746D01*
X122538017Y-61461746D02*
X122268643Y-61192372D01*
X122268643Y-61192372D02*
X122167627Y-61158700D01*
X122167627Y-61158700D02*
X122100284Y-61158700D01*
X122100284Y-61158700D02*
X121999268Y-61192372D01*
X121999268Y-61192372D02*
X121898253Y-61293387D01*
X121898253Y-61293387D02*
X121864581Y-61394403D01*
X121864581Y-61394403D02*
X121864581Y-61461746D01*
X121864581Y-61461746D02*
X121898253Y-61562761D01*
X121898253Y-61562761D02*
X122167627Y-61832135D01*
X121898253Y-60821983D02*
X121022788Y-61360731D01*
X121022788Y-61360731D02*
X121393177Y-60720968D01*
X121393177Y-60720968D02*
X120753414Y-61091357D01*
X120753414Y-61091357D02*
X121292162Y-60215891D01*
X119911620Y-60249563D02*
X120484040Y-60148548D01*
X120315681Y-60653624D02*
X121022788Y-59946518D01*
X121022788Y-59946518D02*
X120753414Y-59677143D01*
X120753414Y-59677143D02*
X120652399Y-59643472D01*
X120652399Y-59643472D02*
X120585055Y-59643472D01*
X120585055Y-59643472D02*
X120484040Y-59677143D01*
X120484040Y-59677143D02*
X120383025Y-59778159D01*
X120383025Y-59778159D02*
X120349353Y-59879174D01*
X120349353Y-59879174D02*
X120349353Y-59946518D01*
X120349353Y-59946518D02*
X120383025Y-60047533D01*
X120383025Y-60047533D02*
X120652399Y-60316907D01*
X88798418Y-49255605D02*
X88798418Y-48684177D01*
X88798418Y-48969891D02*
X87798418Y-48969891D01*
X87798418Y-48969891D02*
X87941275Y-48874653D01*
X87941275Y-48874653D02*
X88036513Y-48779415D01*
X88036513Y-48779415D02*
X88084132Y-48684177D01*
X88703179Y-50255605D02*
X88750799Y-50207986D01*
X88750799Y-50207986D02*
X88798418Y-50065129D01*
X88798418Y-50065129D02*
X88798418Y-49969891D01*
X88798418Y-49969891D02*
X88750799Y-49827034D01*
X88750799Y-49827034D02*
X88655560Y-49731796D01*
X88655560Y-49731796D02*
X88560322Y-49684177D01*
X88560322Y-49684177D02*
X88369846Y-49636558D01*
X88369846Y-49636558D02*
X88226989Y-49636558D01*
X88226989Y-49636558D02*
X88036513Y-49684177D01*
X88036513Y-49684177D02*
X87941275Y-49731796D01*
X87941275Y-49731796D02*
X87846037Y-49827034D01*
X87846037Y-49827034D02*
X87798418Y-49969891D01*
X87798418Y-49969891D02*
X87798418Y-50065129D01*
X87798418Y-50065129D02*
X87846037Y-50207986D01*
X87846037Y-50207986D02*
X87893656Y-50255605D01*
X88798418Y-50684177D02*
X87798418Y-50684177D01*
X88798418Y-51255605D02*
X88226989Y-50827034D01*
X87798418Y-51255605D02*
X88369846Y-50684177D01*
X89785456Y-48734929D02*
X89737837Y-48782548D01*
X89737837Y-48782548D02*
X89690218Y-48877786D01*
X89690218Y-48877786D02*
X89690218Y-49115881D01*
X89690218Y-49115881D02*
X89737837Y-49211119D01*
X89737837Y-49211119D02*
X89785456Y-49258738D01*
X89785456Y-49258738D02*
X89880694Y-49306357D01*
X89880694Y-49306357D02*
X89975932Y-49306357D01*
X89975932Y-49306357D02*
X90118789Y-49258738D01*
X90118789Y-49258738D02*
X90690218Y-48687310D01*
X90690218Y-48687310D02*
X90690218Y-49306357D01*
X90309265Y-49734929D02*
X90309265Y-50496834D01*
X91823818Y-48649234D02*
X91823818Y-49268281D01*
X91823818Y-49268281D02*
X92204770Y-48934948D01*
X92204770Y-48934948D02*
X92204770Y-49077805D01*
X92204770Y-49077805D02*
X92252389Y-49173043D01*
X92252389Y-49173043D02*
X92300008Y-49220662D01*
X92300008Y-49220662D02*
X92395246Y-49268281D01*
X92395246Y-49268281D02*
X92633341Y-49268281D01*
X92633341Y-49268281D02*
X92728579Y-49220662D01*
X92728579Y-49220662D02*
X92776199Y-49173043D01*
X92776199Y-49173043D02*
X92823818Y-49077805D01*
X92823818Y-49077805D02*
X92823818Y-48792091D01*
X92823818Y-48792091D02*
X92776199Y-48696853D01*
X92776199Y-48696853D02*
X92728579Y-48649234D01*
X92823818Y-49696853D02*
X91823818Y-49696853D01*
X91823818Y-49696853D02*
X92538103Y-50030186D01*
X92538103Y-50030186D02*
X91823818Y-50363519D01*
X91823818Y-50363519D02*
X92823818Y-50363519D01*
X92823818Y-50839710D02*
X91823818Y-50839710D01*
X94189151Y-49160319D02*
X94855818Y-49160319D01*
X93808199Y-48922224D02*
X94522484Y-48684129D01*
X94522484Y-48684129D02*
X94522484Y-49303176D01*
X94474865Y-49684129D02*
X94474865Y-50446034D01*
X94855818Y-50065081D02*
X94093913Y-50065081D01*
X95837018Y-49206395D02*
X95837018Y-48730205D01*
X95837018Y-48730205D02*
X96313208Y-48682586D01*
X96313208Y-48682586D02*
X96265589Y-48730205D01*
X96265589Y-48730205D02*
X96217970Y-48825443D01*
X96217970Y-48825443D02*
X96217970Y-49063538D01*
X96217970Y-49063538D02*
X96265589Y-49158776D01*
X96265589Y-49158776D02*
X96313208Y-49206395D01*
X96313208Y-49206395D02*
X96408446Y-49254014D01*
X96408446Y-49254014D02*
X96646541Y-49254014D01*
X96646541Y-49254014D02*
X96741779Y-49206395D01*
X96741779Y-49206395D02*
X96789399Y-49158776D01*
X96789399Y-49158776D02*
X96837018Y-49063538D01*
X96837018Y-49063538D02*
X96837018Y-48825443D01*
X96837018Y-48825443D02*
X96789399Y-48730205D01*
X96789399Y-48730205D02*
X96741779Y-48682586D01*
X96741779Y-50254014D02*
X96789399Y-50206395D01*
X96789399Y-50206395D02*
X96837018Y-50063538D01*
X96837018Y-50063538D02*
X96837018Y-49968300D01*
X96837018Y-49968300D02*
X96789399Y-49825443D01*
X96789399Y-49825443D02*
X96694160Y-49730205D01*
X96694160Y-49730205D02*
X96598922Y-49682586D01*
X96598922Y-49682586D02*
X96408446Y-49634967D01*
X96408446Y-49634967D02*
X96265589Y-49634967D01*
X96265589Y-49634967D02*
X96075113Y-49682586D01*
X96075113Y-49682586D02*
X95979875Y-49730205D01*
X95979875Y-49730205D02*
X95884637Y-49825443D01*
X95884637Y-49825443D02*
X95837018Y-49968300D01*
X95837018Y-49968300D02*
X95837018Y-50063538D01*
X95837018Y-50063538D02*
X95884637Y-50206395D01*
X95884637Y-50206395D02*
X95932256Y-50254014D01*
X96789399Y-50634967D02*
X96837018Y-50777824D01*
X96837018Y-50777824D02*
X96837018Y-51015919D01*
X96837018Y-51015919D02*
X96789399Y-51111157D01*
X96789399Y-51111157D02*
X96741779Y-51158776D01*
X96741779Y-51158776D02*
X96646541Y-51206395D01*
X96646541Y-51206395D02*
X96551303Y-51206395D01*
X96551303Y-51206395D02*
X96456065Y-51158776D01*
X96456065Y-51158776D02*
X96408446Y-51111157D01*
X96408446Y-51111157D02*
X96360827Y-51015919D01*
X96360827Y-51015919D02*
X96313208Y-50825443D01*
X96313208Y-50825443D02*
X96265589Y-50730205D01*
X96265589Y-50730205D02*
X96217970Y-50682586D01*
X96217970Y-50682586D02*
X96122732Y-50634967D01*
X96122732Y-50634967D02*
X96027494Y-50634967D01*
X96027494Y-50634967D02*
X95932256Y-50682586D01*
X95932256Y-50682586D02*
X95884637Y-50730205D01*
X95884637Y-50730205D02*
X95837018Y-50825443D01*
X95837018Y-50825443D02*
X95837018Y-51063538D01*
X95837018Y-51063538D02*
X95884637Y-51206395D01*
X97843618Y-49166729D02*
X97843618Y-48976253D01*
X97843618Y-48976253D02*
X97891237Y-48881015D01*
X97891237Y-48881015D02*
X97938856Y-48833396D01*
X97938856Y-48833396D02*
X98081713Y-48738158D01*
X98081713Y-48738158D02*
X98272189Y-48690539D01*
X98272189Y-48690539D02*
X98653141Y-48690539D01*
X98653141Y-48690539D02*
X98748379Y-48738158D01*
X98748379Y-48738158D02*
X98795999Y-48785777D01*
X98795999Y-48785777D02*
X98843618Y-48881015D01*
X98843618Y-48881015D02*
X98843618Y-49071491D01*
X98843618Y-49071491D02*
X98795999Y-49166729D01*
X98795999Y-49166729D02*
X98748379Y-49214348D01*
X98748379Y-49214348D02*
X98653141Y-49261967D01*
X98653141Y-49261967D02*
X98415046Y-49261967D01*
X98415046Y-49261967D02*
X98319808Y-49214348D01*
X98319808Y-49214348D02*
X98272189Y-49166729D01*
X98272189Y-49166729D02*
X98224570Y-49071491D01*
X98224570Y-49071491D02*
X98224570Y-48881015D01*
X98224570Y-48881015D02*
X98272189Y-48785777D01*
X98272189Y-48785777D02*
X98319808Y-48738158D01*
X98319808Y-48738158D02*
X98415046Y-48690539D01*
X98843618Y-49690539D02*
X97843618Y-49690539D01*
X97843618Y-49690539D02*
X98557903Y-50023872D01*
X98557903Y-50023872D02*
X97843618Y-50357205D01*
X97843618Y-50357205D02*
X98843618Y-50357205D01*
X97843618Y-51023872D02*
X97843618Y-51214348D01*
X97843618Y-51214348D02*
X97891237Y-51309586D01*
X97891237Y-51309586D02*
X97986475Y-51404824D01*
X97986475Y-51404824D02*
X98176951Y-51452443D01*
X98176951Y-51452443D02*
X98510284Y-51452443D01*
X98510284Y-51452443D02*
X98700760Y-51404824D01*
X98700760Y-51404824D02*
X98795999Y-51309586D01*
X98795999Y-51309586D02*
X98843618Y-51214348D01*
X98843618Y-51214348D02*
X98843618Y-51023872D01*
X98843618Y-51023872D02*
X98795999Y-50928634D01*
X98795999Y-50928634D02*
X98700760Y-50833396D01*
X98700760Y-50833396D02*
X98510284Y-50785777D01*
X98510284Y-50785777D02*
X98176951Y-50785777D01*
X98176951Y-50785777D02*
X97986475Y-50833396D01*
X97986475Y-50833396D02*
X97891237Y-50928634D01*
X97891237Y-50928634D02*
X97843618Y-51023872D01*
D11*
X198538094Y-83976284D02*
X198201377Y-84313001D01*
X198403407Y-83706910D02*
X198874812Y-84649719D01*
X198874812Y-84649719D02*
X197932003Y-84178314D01*
X197325911Y-84784406D02*
X197729972Y-84380345D01*
X197527941Y-84582375D02*
X198235048Y-85289482D01*
X198235048Y-85289482D02*
X198201376Y-85121123D01*
X198201376Y-85121123D02*
X198201376Y-84986436D01*
X198201376Y-84986436D02*
X198235048Y-84885421D01*
X197191224Y-85861902D02*
X196719819Y-85390497D01*
X197628957Y-85962917D02*
X197292239Y-85289482D01*
X197292239Y-85289482D02*
X196854506Y-85727215D01*
X110008483Y-84616047D02*
X109840125Y-84447688D01*
X110075827Y-84346673D02*
X109840125Y-84447688D01*
X109840125Y-84447688D02*
X109739109Y-84683391D01*
X109806453Y-84211986D02*
X109840125Y-84447688D01*
X109840125Y-84447688D02*
X109604422Y-84414017D01*
X108863644Y-84346673D02*
X109570750Y-85053780D01*
X108526926Y-84683390D02*
X109234033Y-85390497D01*
X109234033Y-85390497D02*
X108122865Y-85087451D01*
X108122865Y-85087451D02*
X108829972Y-85794558D01*
X108594270Y-86030260D02*
X108190209Y-86434321D01*
X107685133Y-85525184D02*
X108392239Y-86232291D01*
X106877010Y-86333306D02*
X107281071Y-85929245D01*
X107079041Y-86131276D02*
X107786148Y-86838383D01*
X107786148Y-86838383D02*
X107752476Y-86670024D01*
X107752476Y-86670024D02*
X107752476Y-86535337D01*
X107752476Y-86535337D02*
X107786148Y-86434322D01*
X195998094Y-83976284D02*
X195661377Y-84313001D01*
X195863407Y-83706910D02*
X196334812Y-84649719D01*
X196334812Y-84649719D02*
X195392003Y-84178314D01*
X194785911Y-84784406D02*
X195189972Y-84380345D01*
X194987941Y-84582375D02*
X195695048Y-85289482D01*
X195695048Y-85289482D02*
X195661376Y-85121123D01*
X195661376Y-85121123D02*
X195661376Y-84986436D01*
X195661376Y-84986436D02*
X195695048Y-84885421D01*
X195257315Y-85727215D02*
X194819583Y-86164948D01*
X194819583Y-86164948D02*
X194785911Y-85659871D01*
X194785911Y-85659871D02*
X194684896Y-85760887D01*
X194684896Y-85760887D02*
X194583880Y-85794558D01*
X194583880Y-85794558D02*
X194516537Y-85794558D01*
X194516537Y-85794558D02*
X194415522Y-85760887D01*
X194415522Y-85760887D02*
X194247163Y-85592528D01*
X194247163Y-85592528D02*
X194213491Y-85491513D01*
X194213491Y-85491513D02*
X194213491Y-85424169D01*
X194213491Y-85424169D02*
X194247163Y-85323154D01*
X194247163Y-85323154D02*
X194449193Y-85121123D01*
X194449193Y-85121123D02*
X194550209Y-85087452D01*
X194550209Y-85087452D02*
X194617552Y-85087452D01*
X104322392Y-83807925D02*
X105029499Y-84515032D01*
X104356064Y-84515031D02*
X104120362Y-84750734D01*
X103648957Y-84481360D02*
X103985675Y-84144642D01*
X103985675Y-84144642D02*
X104692781Y-84851749D01*
X104692781Y-84851749D02*
X104356064Y-85188466D01*
X103918331Y-85626199D02*
X103783644Y-85760886D01*
X103783644Y-85760886D02*
X103682629Y-85794558D01*
X103682629Y-85794558D02*
X103547942Y-85794558D01*
X103547942Y-85794558D02*
X103379583Y-85693543D01*
X103379583Y-85693543D02*
X103143881Y-85457841D01*
X103143881Y-85457841D02*
X103042865Y-85289482D01*
X103042865Y-85289482D02*
X103042865Y-85154795D01*
X103042865Y-85154795D02*
X103076537Y-85053780D01*
X103076537Y-85053780D02*
X103211224Y-84919093D01*
X103211224Y-84919093D02*
X103312240Y-84885421D01*
X103312240Y-84885421D02*
X103446927Y-84885421D01*
X103446927Y-84885421D02*
X103615285Y-84986436D01*
X103615285Y-84986436D02*
X103850988Y-85222138D01*
X103850988Y-85222138D02*
X103952003Y-85390497D01*
X103952003Y-85390497D02*
X103952003Y-85525184D01*
X103952003Y-85525184D02*
X103918331Y-85626199D01*
X106862392Y-83807925D02*
X107569499Y-84515032D01*
X106896064Y-84515031D02*
X106660362Y-84750734D01*
X106188957Y-84481360D02*
X106525675Y-84144642D01*
X106525675Y-84144642D02*
X107232781Y-84851749D01*
X107232781Y-84851749D02*
X106896064Y-85188466D01*
X105885911Y-84784406D02*
X106593018Y-85491512D01*
D12*
X94731103Y-96741729D02*
X94826341Y-96694110D01*
X94826341Y-96694110D02*
X94969198Y-96694110D01*
X94969198Y-96694110D02*
X95112055Y-96741729D01*
X95112055Y-96741729D02*
X95207293Y-96836967D01*
X95207293Y-96836967D02*
X95254912Y-96932205D01*
X95254912Y-96932205D02*
X95302531Y-97122681D01*
X95302531Y-97122681D02*
X95302531Y-97265538D01*
X95302531Y-97265538D02*
X95254912Y-97456014D01*
X95254912Y-97456014D02*
X95207293Y-97551252D01*
X95207293Y-97551252D02*
X95112055Y-97646491D01*
X95112055Y-97646491D02*
X94969198Y-97694110D01*
X94969198Y-97694110D02*
X94873960Y-97694110D01*
X94873960Y-97694110D02*
X94731103Y-97646491D01*
X94731103Y-97646491D02*
X94683484Y-97598871D01*
X94683484Y-97598871D02*
X94683484Y-97265538D01*
X94683484Y-97265538D02*
X94873960Y-97265538D01*
X94254912Y-97694110D02*
X94254912Y-96694110D01*
X94254912Y-96694110D02*
X93683484Y-97694110D01*
X93683484Y-97694110D02*
X93683484Y-96694110D01*
X93207293Y-97694110D02*
X93207293Y-96694110D01*
X93207293Y-96694110D02*
X92969198Y-96694110D01*
X92969198Y-96694110D02*
X92826341Y-96741729D01*
X92826341Y-96741729D02*
X92731103Y-96836967D01*
X92731103Y-96836967D02*
X92683484Y-96932205D01*
X92683484Y-96932205D02*
X92635865Y-97122681D01*
X92635865Y-97122681D02*
X92635865Y-97265538D01*
X92635865Y-97265538D02*
X92683484Y-97456014D01*
X92683484Y-97456014D02*
X92731103Y-97551252D01*
X92731103Y-97551252D02*
X92826341Y-97646491D01*
X92826341Y-97646491D02*
X92969198Y-97694110D01*
X92969198Y-97694110D02*
X93207293Y-97694110D01*
X91005303Y-95077910D02*
X91005303Y-94077910D01*
X91005303Y-94077910D02*
X90767208Y-94077910D01*
X90767208Y-94077910D02*
X90624351Y-94125529D01*
X90624351Y-94125529D02*
X90529113Y-94220767D01*
X90529113Y-94220767D02*
X90481494Y-94316005D01*
X90481494Y-94316005D02*
X90433875Y-94506481D01*
X90433875Y-94506481D02*
X90433875Y-94649338D01*
X90433875Y-94649338D02*
X90481494Y-94839814D01*
X90481494Y-94839814D02*
X90529113Y-94935052D01*
X90529113Y-94935052D02*
X90624351Y-95030291D01*
X90624351Y-95030291D02*
X90767208Y-95077910D01*
X90767208Y-95077910D02*
X91005303Y-95077910D01*
X94751875Y-91502871D02*
X94799494Y-91550491D01*
X94799494Y-91550491D02*
X94942351Y-91598110D01*
X94942351Y-91598110D02*
X95037589Y-91598110D01*
X95037589Y-91598110D02*
X95180446Y-91550491D01*
X95180446Y-91550491D02*
X95275684Y-91455252D01*
X95275684Y-91455252D02*
X95323303Y-91360014D01*
X95323303Y-91360014D02*
X95370922Y-91169538D01*
X95370922Y-91169538D02*
X95370922Y-91026681D01*
X95370922Y-91026681D02*
X95323303Y-90836205D01*
X95323303Y-90836205D02*
X95275684Y-90740967D01*
X95275684Y-90740967D02*
X95180446Y-90645729D01*
X95180446Y-90645729D02*
X95037589Y-90598110D01*
X95037589Y-90598110D02*
X94942351Y-90598110D01*
X94942351Y-90598110D02*
X94799494Y-90645729D01*
X94799494Y-90645729D02*
X94751875Y-90693348D01*
X90730675Y-90064710D02*
X91206865Y-90064710D01*
X91206865Y-90064710D02*
X91254484Y-90540900D01*
X91254484Y-90540900D02*
X91206865Y-90493281D01*
X91206865Y-90493281D02*
X91111627Y-90445662D01*
X91111627Y-90445662D02*
X90873532Y-90445662D01*
X90873532Y-90445662D02*
X90778294Y-90493281D01*
X90778294Y-90493281D02*
X90730675Y-90540900D01*
X90730675Y-90540900D02*
X90683056Y-90636138D01*
X90683056Y-90636138D02*
X90683056Y-90874233D01*
X90683056Y-90874233D02*
X90730675Y-90969471D01*
X90730675Y-90969471D02*
X90778294Y-91017091D01*
X90778294Y-91017091D02*
X90873532Y-91064710D01*
X90873532Y-91064710D02*
X91111627Y-91064710D01*
X91111627Y-91064710D02*
X91206865Y-91017091D01*
X91206865Y-91017091D02*
X91254484Y-90969471D01*
X90397341Y-90064710D02*
X90064008Y-91064710D01*
X90064008Y-91064710D02*
X89730675Y-90064710D01*
D11*
X195998094Y-105291401D02*
X195661377Y-105628118D01*
X195863407Y-105022027D02*
X196334812Y-105964836D01*
X196334812Y-105964836D02*
X195392003Y-105493431D01*
X194785911Y-106099523D02*
X195189972Y-105695462D01*
X194987941Y-105897492D02*
X195695048Y-106604599D01*
X195695048Y-106604599D02*
X195661376Y-106436240D01*
X195661376Y-106436240D02*
X195661376Y-106301553D01*
X195661376Y-106301553D02*
X195695048Y-106200538D01*
X195257315Y-107042332D02*
X194819583Y-107480065D01*
X194819583Y-107480065D02*
X194785911Y-106974988D01*
X194785911Y-106974988D02*
X194684896Y-107076004D01*
X194684896Y-107076004D02*
X194583880Y-107109675D01*
X194583880Y-107109675D02*
X194516537Y-107109675D01*
X194516537Y-107109675D02*
X194415522Y-107076004D01*
X194415522Y-107076004D02*
X194247163Y-106907645D01*
X194247163Y-106907645D02*
X194213491Y-106806630D01*
X194213491Y-106806630D02*
X194213491Y-106739286D01*
X194213491Y-106739286D02*
X194247163Y-106638271D01*
X194247163Y-106638271D02*
X194449193Y-106436240D01*
X194449193Y-106436240D02*
X194550209Y-106402569D01*
X194550209Y-106402569D02*
X194617552Y-106402569D01*
X111538330Y-105527103D02*
X112110750Y-105628118D01*
X111942391Y-105123042D02*
X112649498Y-105830149D01*
X112649498Y-105830149D02*
X112380124Y-106099523D01*
X112380124Y-106099523D02*
X112279108Y-106133195D01*
X112279108Y-106133195D02*
X112211765Y-106133195D01*
X112211765Y-106133195D02*
X112110750Y-106099523D01*
X112110750Y-106099523D02*
X112009734Y-105998508D01*
X112009734Y-105998508D02*
X111976063Y-105897492D01*
X111976063Y-105897492D02*
X111976063Y-105830149D01*
X111976063Y-105830149D02*
X112009734Y-105729134D01*
X112009734Y-105729134D02*
X112279108Y-105459760D01*
X112009734Y-106469912D02*
X110831223Y-106234210D01*
X111538330Y-106941317D02*
X111302628Y-105762805D01*
X110008483Y-105931164D02*
X109840125Y-105762805D01*
X110075827Y-105661790D02*
X109840125Y-105762805D01*
X109840125Y-105762805D02*
X109739109Y-105998508D01*
X109806453Y-105527103D02*
X109840125Y-105762805D01*
X109840125Y-105762805D02*
X109604422Y-105729134D01*
X108863644Y-105661790D02*
X109570750Y-106368897D01*
X108526926Y-105998507D02*
X109234033Y-106705614D01*
X109234033Y-106705614D02*
X108122865Y-106402568D01*
X108122865Y-106402568D02*
X108829972Y-107109675D01*
X108594270Y-107345377D02*
X108190209Y-107749438D01*
X107685133Y-106840301D02*
X108392239Y-107547408D01*
X106877010Y-107648423D02*
X107281071Y-107244362D01*
X107079041Y-107446393D02*
X107786148Y-108153500D01*
X107786148Y-108153500D02*
X107752476Y-107985141D01*
X107752476Y-107985141D02*
X107752476Y-107850454D01*
X107752476Y-107850454D02*
X107786148Y-107749439D01*
X106862392Y-105123042D02*
X107569499Y-105830149D01*
X106896064Y-105830148D02*
X106660362Y-106065851D01*
X106188957Y-105796477D02*
X106525675Y-105459759D01*
X106525675Y-105459759D02*
X107232781Y-106166866D01*
X107232781Y-106166866D02*
X106896064Y-106503583D01*
X105885911Y-106099523D02*
X106593018Y-106806629D01*
X193458095Y-105291401D02*
X193121378Y-105628118D01*
X193323408Y-105022027D02*
X193794813Y-105964836D01*
X193794813Y-105964836D02*
X192852004Y-105493431D01*
X192245912Y-106099523D02*
X192649973Y-105695462D01*
X192447942Y-105897492D02*
X193155049Y-106604599D01*
X193155049Y-106604599D02*
X193121377Y-106436240D01*
X193121377Y-106436240D02*
X193121377Y-106301553D01*
X193121377Y-106301553D02*
X193155049Y-106200538D01*
X192616301Y-107008660D02*
X192616301Y-107076004D01*
X192616301Y-107076004D02*
X192582629Y-107177019D01*
X192582629Y-107177019D02*
X192414271Y-107345378D01*
X192414271Y-107345378D02*
X192313255Y-107379049D01*
X192313255Y-107379049D02*
X192245912Y-107379049D01*
X192245912Y-107379049D02*
X192144897Y-107345378D01*
X192144897Y-107345378D02*
X192077553Y-107278034D01*
X192077553Y-107278034D02*
X192010210Y-107143347D01*
X192010210Y-107143347D02*
X192010210Y-106335225D01*
X192010210Y-106335225D02*
X191572477Y-106772958D01*
X198538094Y-105291401D02*
X198201377Y-105628118D01*
X198403407Y-105022027D02*
X198874812Y-105964836D01*
X198874812Y-105964836D02*
X197932003Y-105493431D01*
X197325911Y-106099523D02*
X197729972Y-105695462D01*
X197527941Y-105897492D02*
X198235048Y-106604599D01*
X198235048Y-106604599D02*
X198201376Y-106436240D01*
X198201376Y-106436240D02*
X198201376Y-106301553D01*
X198201376Y-106301553D02*
X198235048Y-106200538D01*
X197191224Y-107177019D02*
X196719819Y-106705614D01*
X197628957Y-107278034D02*
X197292239Y-106604599D01*
X197292239Y-106604599D02*
X196854506Y-107042332D01*
X201586094Y-105291400D02*
X201249377Y-105628117D01*
X201451407Y-105022026D02*
X201922812Y-105964835D01*
X201922812Y-105964835D02*
X200980003Y-105493430D01*
X200373911Y-106099522D02*
X200777972Y-105695461D01*
X200575941Y-105897491D02*
X201283048Y-106604598D01*
X201283048Y-106604598D02*
X201249376Y-106436239D01*
X201249376Y-106436239D02*
X201249376Y-106301552D01*
X201249376Y-106301552D02*
X201283048Y-106200537D01*
X200441254Y-107446392D02*
X200777972Y-107109674D01*
X200777972Y-107109674D02*
X200474926Y-106739285D01*
X200474926Y-106739285D02*
X200474926Y-106806629D01*
X200474926Y-106806629D02*
X200441254Y-106907644D01*
X200441254Y-106907644D02*
X200272896Y-107076003D01*
X200272896Y-107076003D02*
X200171880Y-107109674D01*
X200171880Y-107109674D02*
X200104537Y-107109674D01*
X200104537Y-107109674D02*
X200003522Y-107076003D01*
X200003522Y-107076003D02*
X199835163Y-106907644D01*
X199835163Y-106907644D02*
X199801491Y-106806629D01*
X199801491Y-106806629D02*
X199801491Y-106739285D01*
X199801491Y-106739285D02*
X199835163Y-106638270D01*
X199835163Y-106638270D02*
X200003522Y-106469911D01*
X200003522Y-106469911D02*
X200104537Y-106436239D01*
X200104537Y-106436239D02*
X200171880Y-106436239D01*
D12*
X81203437Y-84587079D02*
X81155818Y-84491841D01*
X81155818Y-84491841D02*
X81155818Y-84348984D01*
X81155818Y-84348984D02*
X81203437Y-84206127D01*
X81203437Y-84206127D02*
X81298675Y-84110889D01*
X81298675Y-84110889D02*
X81393913Y-84063270D01*
X81393913Y-84063270D02*
X81584389Y-84015651D01*
X81584389Y-84015651D02*
X81727246Y-84015651D01*
X81727246Y-84015651D02*
X81917722Y-84063270D01*
X81917722Y-84063270D02*
X82012960Y-84110889D01*
X82012960Y-84110889D02*
X82108199Y-84206127D01*
X82108199Y-84206127D02*
X82155818Y-84348984D01*
X82155818Y-84348984D02*
X82155818Y-84444222D01*
X82155818Y-84444222D02*
X82108199Y-84587079D01*
X82108199Y-84587079D02*
X82060579Y-84634698D01*
X82060579Y-84634698D02*
X81727246Y-84634698D01*
X81727246Y-84634698D02*
X81727246Y-84444222D01*
X82155818Y-85063270D02*
X81155818Y-85063270D01*
X81155818Y-85063270D02*
X82155818Y-85634698D01*
X82155818Y-85634698D02*
X81155818Y-85634698D01*
X82155818Y-86110889D02*
X81155818Y-86110889D01*
X81155818Y-86110889D02*
X81155818Y-86348984D01*
X81155818Y-86348984D02*
X81203437Y-86491841D01*
X81203437Y-86491841D02*
X81298675Y-86587079D01*
X81298675Y-86587079D02*
X81393913Y-86634698D01*
X81393913Y-86634698D02*
X81584389Y-86682317D01*
X81584389Y-86682317D02*
X81727246Y-86682317D01*
X81727246Y-86682317D02*
X81917722Y-86634698D01*
X81917722Y-86634698D02*
X82012960Y-86587079D01*
X82012960Y-86587079D02*
X82108199Y-86491841D01*
X82108199Y-86491841D02*
X82155818Y-86348984D01*
X82155818Y-86348984D02*
X82155818Y-86110889D01*
X84670418Y-84124986D02*
X83670418Y-84124986D01*
X83670418Y-84124986D02*
X83670418Y-84363081D01*
X83670418Y-84363081D02*
X83718037Y-84505938D01*
X83718037Y-84505938D02*
X83813275Y-84601176D01*
X83813275Y-84601176D02*
X83908513Y-84648795D01*
X83908513Y-84648795D02*
X84098989Y-84696414D01*
X84098989Y-84696414D02*
X84241846Y-84696414D01*
X84241846Y-84696414D02*
X84432322Y-84648795D01*
X84432322Y-84648795D02*
X84527560Y-84601176D01*
X84527560Y-84601176D02*
X84622799Y-84505938D01*
X84622799Y-84505938D02*
X84670418Y-84363081D01*
X84670418Y-84363081D02*
X84670418Y-84124986D01*
X87165979Y-84721814D02*
X87213599Y-84674195D01*
X87213599Y-84674195D02*
X87261218Y-84531338D01*
X87261218Y-84531338D02*
X87261218Y-84436100D01*
X87261218Y-84436100D02*
X87213599Y-84293243D01*
X87213599Y-84293243D02*
X87118360Y-84198005D01*
X87118360Y-84198005D02*
X87023122Y-84150386D01*
X87023122Y-84150386D02*
X86832646Y-84102767D01*
X86832646Y-84102767D02*
X86689789Y-84102767D01*
X86689789Y-84102767D02*
X86499313Y-84150386D01*
X86499313Y-84150386D02*
X86404075Y-84198005D01*
X86404075Y-84198005D02*
X86308837Y-84293243D01*
X86308837Y-84293243D02*
X86261218Y-84436100D01*
X86261218Y-84436100D02*
X86261218Y-84531338D01*
X86261218Y-84531338D02*
X86308837Y-84674195D01*
X86308837Y-84674195D02*
X86356456Y-84721814D01*
X88775818Y-84539460D02*
X88775818Y-84063270D01*
X88775818Y-84063270D02*
X89252008Y-84015651D01*
X89252008Y-84015651D02*
X89204389Y-84063270D01*
X89204389Y-84063270D02*
X89156770Y-84158508D01*
X89156770Y-84158508D02*
X89156770Y-84396603D01*
X89156770Y-84396603D02*
X89204389Y-84491841D01*
X89204389Y-84491841D02*
X89252008Y-84539460D01*
X89252008Y-84539460D02*
X89347246Y-84587079D01*
X89347246Y-84587079D02*
X89585341Y-84587079D01*
X89585341Y-84587079D02*
X89680579Y-84539460D01*
X89680579Y-84539460D02*
X89728199Y-84491841D01*
X89728199Y-84491841D02*
X89775818Y-84396603D01*
X89775818Y-84396603D02*
X89775818Y-84158508D01*
X89775818Y-84158508D02*
X89728199Y-84063270D01*
X89728199Y-84063270D02*
X89680579Y-84015651D01*
X88775818Y-84872794D02*
X89775818Y-85206127D01*
X89775818Y-85206127D02*
X88775818Y-85539460D01*
M02*
