%TF.GenerationSoftware,KiCad,Pcbnew,9.0.9*%
%TF.CreationDate,2026-08-16T17:51:23-07:00*%
%TF.ProjectId,ZID_POD,5a49445f-504f-4442-9e6b-696361645f70,PR1.0*%
%TF.SameCoordinates,Original*%
%TF.FileFunction,Legend,Top*%
%TF.FilePolarity,Positive*%
%FSLAX46Y46*%
G04 Gerber Fmt 4.6, Leading zero omitted, Abs format (unit mm)*
G04 Created by KiCad (PCBNEW 9.0.9) date 2026-08-16 17:51:23*
%MOMM*%
%LPD*%
G01*
G04 APERTURE LIST*
%ADD10C,0.100000*%
%ADD11C,0.119063*%
%ADD12C,0.200000*%
%ADD13C,0.150000*%
%ADD14C,0.120000*%
G04 APERTURE END LIST*
D10*
X126871195Y-110970795D02*
X125855195Y-110970795D01*
X126363195Y-110462795D01*
X126871195Y-110970795D01*
G36*
X126871195Y-110970795D02*
G01*
X125855195Y-110970795D01*
X126363195Y-110462795D01*
X126871195Y-110970795D01*
G37*
X129032000Y-106680000D02*
X128524000Y-106172000D01*
X129032000Y-105664000D01*
X129032000Y-106680000D01*
G36*
X129032000Y-106680000D02*
G01*
X128524000Y-106172000D01*
X129032000Y-105664000D01*
X129032000Y-106680000D01*
G37*
X90424000Y-108458000D02*
X91186000Y-108458000D01*
X91186000Y-110998000D01*
X90424000Y-110998000D01*
X90424000Y-108458000D01*
G36*
X90424000Y-108458000D02*
G01*
X91186000Y-108458000D01*
X91186000Y-110998000D01*
X90424000Y-110998000D01*
X90424000Y-108458000D01*
G37*
X91186000Y-110490000D02*
X93218000Y-110490000D01*
X93218000Y-110998000D01*
X91186000Y-110998000D01*
X91186000Y-110490000D01*
G36*
X91186000Y-110490000D02*
G01*
X93218000Y-110490000D01*
X93218000Y-110998000D01*
X91186000Y-110998000D01*
X91186000Y-110490000D01*
G37*
D11*
X140351940Y-107837198D02*
X140351940Y-107202198D01*
X140351940Y-107202198D02*
X141304440Y-107837198D01*
X141304440Y-107837198D02*
X141304440Y-107202198D01*
X141304440Y-106839341D02*
X140351940Y-106839341D01*
X141304440Y-106385770D02*
X140351940Y-106385770D01*
X140351940Y-106385770D02*
X140351940Y-106158984D01*
X140351940Y-106158984D02*
X140397297Y-106022913D01*
X140397297Y-106022913D02*
X140488011Y-105932198D01*
X140488011Y-105932198D02*
X140578725Y-105886841D01*
X140578725Y-105886841D02*
X140760154Y-105841484D01*
X140760154Y-105841484D02*
X140896225Y-105841484D01*
X140896225Y-105841484D02*
X141077654Y-105886841D01*
X141077654Y-105886841D02*
X141168368Y-105932198D01*
X141168368Y-105932198D02*
X141259083Y-106022913D01*
X141259083Y-106022913D02*
X141304440Y-106158984D01*
X141304440Y-106158984D02*
X141304440Y-106385770D01*
X141304440Y-104707556D02*
X140351940Y-104707556D01*
X140351940Y-104707556D02*
X140351940Y-104344699D01*
X140351940Y-104344699D02*
X140397297Y-104253984D01*
X140397297Y-104253984D02*
X140442654Y-104208627D01*
X140442654Y-104208627D02*
X140533368Y-104163270D01*
X140533368Y-104163270D02*
X140669440Y-104163270D01*
X140669440Y-104163270D02*
X140760154Y-104208627D01*
X140760154Y-104208627D02*
X140805511Y-104253984D01*
X140805511Y-104253984D02*
X140850868Y-104344699D01*
X140850868Y-104344699D02*
X140850868Y-104707556D01*
X140351940Y-103573627D02*
X140351940Y-103392199D01*
X140351940Y-103392199D02*
X140397297Y-103301484D01*
X140397297Y-103301484D02*
X140488011Y-103210770D01*
X140488011Y-103210770D02*
X140669440Y-103165413D01*
X140669440Y-103165413D02*
X140986940Y-103165413D01*
X140986940Y-103165413D02*
X141168368Y-103210770D01*
X141168368Y-103210770D02*
X141259083Y-103301484D01*
X141259083Y-103301484D02*
X141304440Y-103392199D01*
X141304440Y-103392199D02*
X141304440Y-103573627D01*
X141304440Y-103573627D02*
X141259083Y-103664342D01*
X141259083Y-103664342D02*
X141168368Y-103755056D01*
X141168368Y-103755056D02*
X140986940Y-103800413D01*
X140986940Y-103800413D02*
X140669440Y-103800413D01*
X140669440Y-103800413D02*
X140488011Y-103755056D01*
X140488011Y-103755056D02*
X140397297Y-103664342D01*
X140397297Y-103664342D02*
X140351940Y-103573627D01*
X141304440Y-102757199D02*
X140351940Y-102757199D01*
X140351940Y-102757199D02*
X140351940Y-102530413D01*
X140351940Y-102530413D02*
X140397297Y-102394342D01*
X140397297Y-102394342D02*
X140488011Y-102303627D01*
X140488011Y-102303627D02*
X140578725Y-102258270D01*
X140578725Y-102258270D02*
X140760154Y-102212913D01*
X140760154Y-102212913D02*
X140896225Y-102212913D01*
X140896225Y-102212913D02*
X141077654Y-102258270D01*
X141077654Y-102258270D02*
X141168368Y-102303627D01*
X141168368Y-102303627D02*
X141259083Y-102394342D01*
X141259083Y-102394342D02*
X141304440Y-102530413D01*
X141304440Y-102530413D02*
X141304440Y-102757199D01*
X140941583Y-101804699D02*
X140941583Y-101078985D01*
X140351940Y-100716127D02*
X140351940Y-100126484D01*
X140351940Y-100126484D02*
X140714797Y-100443984D01*
X140714797Y-100443984D02*
X140714797Y-100307913D01*
X140714797Y-100307913D02*
X140760154Y-100217199D01*
X140760154Y-100217199D02*
X140805511Y-100171841D01*
X140805511Y-100171841D02*
X140896225Y-100126484D01*
X140896225Y-100126484D02*
X141123011Y-100126484D01*
X141123011Y-100126484D02*
X141213725Y-100171841D01*
X141213725Y-100171841D02*
X141259083Y-100217199D01*
X141259083Y-100217199D02*
X141304440Y-100307913D01*
X141304440Y-100307913D02*
X141304440Y-100580056D01*
X141304440Y-100580056D02*
X141259083Y-100670770D01*
X141259083Y-100670770D02*
X141213725Y-100716127D01*
X140351940Y-99128627D02*
X141304440Y-98811127D01*
X141304440Y-98811127D02*
X140351940Y-98493627D01*
X141304440Y-97677198D02*
X141304440Y-98221484D01*
X141304440Y-97949341D02*
X140351940Y-97949341D01*
X140351940Y-97949341D02*
X140488011Y-98040055D01*
X140488011Y-98040055D02*
X140578725Y-98130770D01*
X140578725Y-98130770D02*
X140624083Y-98221484D01*
X141213725Y-97268984D02*
X141259083Y-97223627D01*
X141259083Y-97223627D02*
X141304440Y-97268984D01*
X141304440Y-97268984D02*
X141259083Y-97314341D01*
X141259083Y-97314341D02*
X141213725Y-97268984D01*
X141213725Y-97268984D02*
X141304440Y-97268984D01*
X140351940Y-96633984D02*
X140351940Y-96543270D01*
X140351940Y-96543270D02*
X140397297Y-96452556D01*
X140397297Y-96452556D02*
X140442654Y-96407199D01*
X140442654Y-96407199D02*
X140533368Y-96361841D01*
X140533368Y-96361841D02*
X140714797Y-96316484D01*
X140714797Y-96316484D02*
X140941583Y-96316484D01*
X140941583Y-96316484D02*
X141123011Y-96361841D01*
X141123011Y-96361841D02*
X141213725Y-96407199D01*
X141213725Y-96407199D02*
X141259083Y-96452556D01*
X141259083Y-96452556D02*
X141304440Y-96543270D01*
X141304440Y-96543270D02*
X141304440Y-96633984D01*
X141304440Y-96633984D02*
X141259083Y-96724699D01*
X141259083Y-96724699D02*
X141213725Y-96770056D01*
X141213725Y-96770056D02*
X141123011Y-96815413D01*
X141123011Y-96815413D02*
X140941583Y-96860770D01*
X140941583Y-96860770D02*
X140714797Y-96860770D01*
X140714797Y-96860770D02*
X140533368Y-96815413D01*
X140533368Y-96815413D02*
X140442654Y-96770056D01*
X140442654Y-96770056D02*
X140397297Y-96724699D01*
X140397297Y-96724699D02*
X140351940Y-96633984D01*
D12*
X129814435Y-105461275D02*
X130481101Y-105461275D01*
X130481101Y-105461275D02*
X129814435Y-106461275D01*
X129814435Y-106461275D02*
X130481101Y-106461275D01*
X130862054Y-106461275D02*
X130862054Y-105461275D01*
X131338244Y-106461275D02*
X131338244Y-105461275D01*
X131338244Y-105461275D02*
X131576339Y-105461275D01*
X131576339Y-105461275D02*
X131719196Y-105508894D01*
X131719196Y-105508894D02*
X131814434Y-105604132D01*
X131814434Y-105604132D02*
X131862053Y-105699370D01*
X131862053Y-105699370D02*
X131909672Y-105889846D01*
X131909672Y-105889846D02*
X131909672Y-106032703D01*
X131909672Y-106032703D02*
X131862053Y-106223179D01*
X131862053Y-106223179D02*
X131814434Y-106318417D01*
X131814434Y-106318417D02*
X131719196Y-106413656D01*
X131719196Y-106413656D02*
X131576339Y-106461275D01*
X131576339Y-106461275D02*
X131338244Y-106461275D01*
X133671577Y-106366036D02*
X133623958Y-106413656D01*
X133623958Y-106413656D02*
X133481101Y-106461275D01*
X133481101Y-106461275D02*
X133385863Y-106461275D01*
X133385863Y-106461275D02*
X133243006Y-106413656D01*
X133243006Y-106413656D02*
X133147768Y-106318417D01*
X133147768Y-106318417D02*
X133100149Y-106223179D01*
X133100149Y-106223179D02*
X133052530Y-106032703D01*
X133052530Y-106032703D02*
X133052530Y-105889846D01*
X133052530Y-105889846D02*
X133100149Y-105699370D01*
X133100149Y-105699370D02*
X133147768Y-105604132D01*
X133147768Y-105604132D02*
X133243006Y-105508894D01*
X133243006Y-105508894D02*
X133385863Y-105461275D01*
X133385863Y-105461275D02*
X133481101Y-105461275D01*
X133481101Y-105461275D02*
X133623958Y-105508894D01*
X133623958Y-105508894D02*
X133671577Y-105556513D01*
X134433482Y-105937465D02*
X134576339Y-105985084D01*
X134576339Y-105985084D02*
X134623958Y-106032703D01*
X134623958Y-106032703D02*
X134671577Y-106127941D01*
X134671577Y-106127941D02*
X134671577Y-106270798D01*
X134671577Y-106270798D02*
X134623958Y-106366036D01*
X134623958Y-106366036D02*
X134576339Y-106413656D01*
X134576339Y-106413656D02*
X134481101Y-106461275D01*
X134481101Y-106461275D02*
X134100149Y-106461275D01*
X134100149Y-106461275D02*
X134100149Y-105461275D01*
X134100149Y-105461275D02*
X134433482Y-105461275D01*
X134433482Y-105461275D02*
X134528720Y-105508894D01*
X134528720Y-105508894D02*
X134576339Y-105556513D01*
X134576339Y-105556513D02*
X134623958Y-105651751D01*
X134623958Y-105651751D02*
X134623958Y-105746989D01*
X134623958Y-105746989D02*
X134576339Y-105842227D01*
X134576339Y-105842227D02*
X134528720Y-105889846D01*
X134528720Y-105889846D02*
X134433482Y-105937465D01*
X134433482Y-105937465D02*
X134100149Y-105937465D01*
X135576339Y-106461275D02*
X135100149Y-106461275D01*
X135100149Y-106461275D02*
X135100149Y-105461275D01*
X129909673Y-108071219D02*
X129909673Y-107071219D01*
X129909673Y-107071219D02*
X130290625Y-107071219D01*
X130290625Y-107071219D02*
X130385863Y-107118838D01*
X130385863Y-107118838D02*
X130433482Y-107166457D01*
X130433482Y-107166457D02*
X130481101Y-107261695D01*
X130481101Y-107261695D02*
X130481101Y-107404552D01*
X130481101Y-107404552D02*
X130433482Y-107499790D01*
X130433482Y-107499790D02*
X130385863Y-107547409D01*
X130385863Y-107547409D02*
X130290625Y-107595028D01*
X130290625Y-107595028D02*
X129909673Y-107595028D01*
X130909673Y-108071219D02*
X130909673Y-107071219D01*
X131385863Y-108071219D02*
X131385863Y-107071219D01*
X131385863Y-107071219D02*
X131957291Y-108071219D01*
X131957291Y-108071219D02*
X131957291Y-107071219D01*
X132433482Y-107690266D02*
X133195387Y-107690266D01*
X134195386Y-108071219D02*
X133623958Y-108071219D01*
X133909672Y-108071219D02*
X133909672Y-107071219D01*
X133909672Y-107071219D02*
X133814434Y-107214076D01*
X133814434Y-107214076D02*
X133719196Y-107309314D01*
X133719196Y-107309314D02*
X133623958Y-107356933D01*
D13*
X92164819Y-105592094D02*
X92164819Y-104925428D01*
X92164819Y-104925428D02*
X93164819Y-105592094D01*
X93164819Y-105592094D02*
X93164819Y-104925428D01*
X92593390Y-104401618D02*
X92545771Y-104496856D01*
X92545771Y-104496856D02*
X92498152Y-104544475D01*
X92498152Y-104544475D02*
X92402914Y-104592094D01*
X92402914Y-104592094D02*
X92355295Y-104592094D01*
X92355295Y-104592094D02*
X92260057Y-104544475D01*
X92260057Y-104544475D02*
X92212438Y-104496856D01*
X92212438Y-104496856D02*
X92164819Y-104401618D01*
X92164819Y-104401618D02*
X92164819Y-104211142D01*
X92164819Y-104211142D02*
X92212438Y-104115904D01*
X92212438Y-104115904D02*
X92260057Y-104068285D01*
X92260057Y-104068285D02*
X92355295Y-104020666D01*
X92355295Y-104020666D02*
X92402914Y-104020666D01*
X92402914Y-104020666D02*
X92498152Y-104068285D01*
X92498152Y-104068285D02*
X92545771Y-104115904D01*
X92545771Y-104115904D02*
X92593390Y-104211142D01*
X92593390Y-104211142D02*
X92593390Y-104401618D01*
X92593390Y-104401618D02*
X92641009Y-104496856D01*
X92641009Y-104496856D02*
X92688628Y-104544475D01*
X92688628Y-104544475D02*
X92783866Y-104592094D01*
X92783866Y-104592094D02*
X92974342Y-104592094D01*
X92974342Y-104592094D02*
X93069580Y-104544475D01*
X93069580Y-104544475D02*
X93117200Y-104496856D01*
X93117200Y-104496856D02*
X93164819Y-104401618D01*
X93164819Y-104401618D02*
X93164819Y-104211142D01*
X93164819Y-104211142D02*
X93117200Y-104115904D01*
X93117200Y-104115904D02*
X93069580Y-104068285D01*
X93069580Y-104068285D02*
X92974342Y-104020666D01*
X92974342Y-104020666D02*
X92783866Y-104020666D01*
X92783866Y-104020666D02*
X92688628Y-104068285D01*
X92688628Y-104068285D02*
X92641009Y-104115904D01*
X92641009Y-104115904D02*
X92593390Y-104211142D01*
X92164819Y-103401618D02*
X92164819Y-103306380D01*
X92164819Y-103306380D02*
X92212438Y-103211142D01*
X92212438Y-103211142D02*
X92260057Y-103163523D01*
X92260057Y-103163523D02*
X92355295Y-103115904D01*
X92355295Y-103115904D02*
X92545771Y-103068285D01*
X92545771Y-103068285D02*
X92783866Y-103068285D01*
X92783866Y-103068285D02*
X92974342Y-103115904D01*
X92974342Y-103115904D02*
X93069580Y-103163523D01*
X93069580Y-103163523D02*
X93117200Y-103211142D01*
X93117200Y-103211142D02*
X93164819Y-103306380D01*
X93164819Y-103306380D02*
X93164819Y-103401618D01*
X93164819Y-103401618D02*
X93117200Y-103496856D01*
X93117200Y-103496856D02*
X93069580Y-103544475D01*
X93069580Y-103544475D02*
X92974342Y-103592094D01*
X92974342Y-103592094D02*
X92783866Y-103639713D01*
X92783866Y-103639713D02*
X92545771Y-103639713D01*
X92545771Y-103639713D02*
X92355295Y-103592094D01*
X92355295Y-103592094D02*
X92260057Y-103544475D01*
X92260057Y-103544475D02*
X92212438Y-103496856D01*
X92212438Y-103496856D02*
X92164819Y-103401618D01*
X92783866Y-102639713D02*
X92783866Y-101877809D01*
X93117200Y-101449237D02*
X93164819Y-101306380D01*
X93164819Y-101306380D02*
X93164819Y-101068285D01*
X93164819Y-101068285D02*
X93117200Y-100973047D01*
X93117200Y-100973047D02*
X93069580Y-100925428D01*
X93069580Y-100925428D02*
X92974342Y-100877809D01*
X92974342Y-100877809D02*
X92879104Y-100877809D01*
X92879104Y-100877809D02*
X92783866Y-100925428D01*
X92783866Y-100925428D02*
X92736247Y-100973047D01*
X92736247Y-100973047D02*
X92688628Y-101068285D01*
X92688628Y-101068285D02*
X92641009Y-101258761D01*
X92641009Y-101258761D02*
X92593390Y-101353999D01*
X92593390Y-101353999D02*
X92545771Y-101401618D01*
X92545771Y-101401618D02*
X92450533Y-101449237D01*
X92450533Y-101449237D02*
X92355295Y-101449237D01*
X92355295Y-101449237D02*
X92260057Y-101401618D01*
X92260057Y-101401618D02*
X92212438Y-101353999D01*
X92212438Y-101353999D02*
X92164819Y-101258761D01*
X92164819Y-101258761D02*
X92164819Y-101020666D01*
X92164819Y-101020666D02*
X92212438Y-100877809D01*
X93164819Y-100449237D02*
X92164819Y-100449237D01*
X93164819Y-99877809D02*
X92593390Y-100306380D01*
X92164819Y-99877809D02*
X92736247Y-100449237D01*
X92164819Y-99592094D02*
X92164819Y-99020666D01*
X93164819Y-99306380D02*
X92164819Y-99306380D01*
X93164819Y-98163523D02*
X93164819Y-98734951D01*
X93164819Y-98449237D02*
X92164819Y-98449237D01*
X92164819Y-98449237D02*
X92307676Y-98544475D01*
X92307676Y-98544475D02*
X92402914Y-98639713D01*
X92402914Y-98639713D02*
X92450533Y-98734951D01*
X101990819Y-102187333D02*
X102705104Y-102187333D01*
X102705104Y-102187333D02*
X102847961Y-102234952D01*
X102847961Y-102234952D02*
X102943200Y-102330190D01*
X102943200Y-102330190D02*
X102990819Y-102473047D01*
X102990819Y-102473047D02*
X102990819Y-102568285D01*
X102990819Y-101187333D02*
X102990819Y-101758761D01*
X102990819Y-101473047D02*
X101990819Y-101473047D01*
X101990819Y-101473047D02*
X102133676Y-101568285D01*
X102133676Y-101568285D02*
X102228914Y-101663523D01*
X102228914Y-101663523D02*
X102276533Y-101758761D01*
X115290762Y-98480647D02*
X115557428Y-98480647D01*
X115671714Y-98899695D02*
X115290762Y-98899695D01*
X115290762Y-98899695D02*
X115290762Y-98099695D01*
X115290762Y-98099695D02*
X115671714Y-98099695D01*
X115900286Y-98099695D02*
X116166953Y-98899695D01*
X116166953Y-98899695D02*
X116433619Y-98099695D01*
X116700286Y-98480647D02*
X116966952Y-98480647D01*
X117081238Y-98899695D02*
X116700286Y-98899695D01*
X116700286Y-98899695D02*
X116700286Y-98099695D01*
X116700286Y-98099695D02*
X117081238Y-98099695D01*
X117424096Y-98899695D02*
X117424096Y-98099695D01*
X117424096Y-98099695D02*
X117881239Y-98899695D01*
X117881239Y-98899695D02*
X117881239Y-98099695D01*
X107035953Y-105151904D02*
X106997857Y-105190000D01*
X106997857Y-105190000D02*
X106883572Y-105228095D01*
X106883572Y-105228095D02*
X106807381Y-105228095D01*
X106807381Y-105228095D02*
X106693095Y-105190000D01*
X106693095Y-105190000D02*
X106616905Y-105113809D01*
X106616905Y-105113809D02*
X106578810Y-105037619D01*
X106578810Y-105037619D02*
X106540714Y-104885238D01*
X106540714Y-104885238D02*
X106540714Y-104770952D01*
X106540714Y-104770952D02*
X106578810Y-104618571D01*
X106578810Y-104618571D02*
X106616905Y-104542380D01*
X106616905Y-104542380D02*
X106693095Y-104466190D01*
X106693095Y-104466190D02*
X106807381Y-104428095D01*
X106807381Y-104428095D02*
X106883572Y-104428095D01*
X106883572Y-104428095D02*
X106997857Y-104466190D01*
X106997857Y-104466190D02*
X107035953Y-104504285D01*
X107531191Y-104428095D02*
X107683572Y-104428095D01*
X107683572Y-104428095D02*
X107759762Y-104466190D01*
X107759762Y-104466190D02*
X107835953Y-104542380D01*
X107835953Y-104542380D02*
X107874048Y-104694761D01*
X107874048Y-104694761D02*
X107874048Y-104961428D01*
X107874048Y-104961428D02*
X107835953Y-105113809D01*
X107835953Y-105113809D02*
X107759762Y-105190000D01*
X107759762Y-105190000D02*
X107683572Y-105228095D01*
X107683572Y-105228095D02*
X107531191Y-105228095D01*
X107531191Y-105228095D02*
X107455000Y-105190000D01*
X107455000Y-105190000D02*
X107378810Y-105113809D01*
X107378810Y-105113809D02*
X107340714Y-104961428D01*
X107340714Y-104961428D02*
X107340714Y-104694761D01*
X107340714Y-104694761D02*
X107378810Y-104542380D01*
X107378810Y-104542380D02*
X107455000Y-104466190D01*
X107455000Y-104466190D02*
X107531191Y-104428095D01*
X108216905Y-105228095D02*
X108216905Y-104428095D01*
X108216905Y-104428095D02*
X108674048Y-105228095D01*
X108674048Y-105228095D02*
X108674048Y-104428095D01*
X109055000Y-105228095D02*
X109055000Y-104428095D01*
X109055000Y-104428095D02*
X109245476Y-104428095D01*
X109245476Y-104428095D02*
X109359762Y-104466190D01*
X109359762Y-104466190D02*
X109435952Y-104542380D01*
X109435952Y-104542380D02*
X109474047Y-104618571D01*
X109474047Y-104618571D02*
X109512143Y-104770952D01*
X109512143Y-104770952D02*
X109512143Y-104885238D01*
X109512143Y-104885238D02*
X109474047Y-105037619D01*
X109474047Y-105037619D02*
X109435952Y-105113809D01*
X109435952Y-105113809D02*
X109359762Y-105190000D01*
X109359762Y-105190000D02*
X109245476Y-105228095D01*
X109245476Y-105228095D02*
X109055000Y-105228095D01*
X109855000Y-104923333D02*
X110464524Y-104923333D01*
X110807380Y-105190000D02*
X110921666Y-105228095D01*
X110921666Y-105228095D02*
X111112142Y-105228095D01*
X111112142Y-105228095D02*
X111188333Y-105190000D01*
X111188333Y-105190000D02*
X111226428Y-105151904D01*
X111226428Y-105151904D02*
X111264523Y-105075714D01*
X111264523Y-105075714D02*
X111264523Y-104999523D01*
X111264523Y-104999523D02*
X111226428Y-104923333D01*
X111226428Y-104923333D02*
X111188333Y-104885238D01*
X111188333Y-104885238D02*
X111112142Y-104847142D01*
X111112142Y-104847142D02*
X110959761Y-104809047D01*
X110959761Y-104809047D02*
X110883571Y-104770952D01*
X110883571Y-104770952D02*
X110845476Y-104732857D01*
X110845476Y-104732857D02*
X110807380Y-104656666D01*
X110807380Y-104656666D02*
X110807380Y-104580476D01*
X110807380Y-104580476D02*
X110845476Y-104504285D01*
X110845476Y-104504285D02*
X110883571Y-104466190D01*
X110883571Y-104466190D02*
X110959761Y-104428095D01*
X110959761Y-104428095D02*
X111150238Y-104428095D01*
X111150238Y-104428095D02*
X111264523Y-104466190D01*
X111607381Y-105228095D02*
X111607381Y-104428095D01*
X111988333Y-105228095D02*
X111988333Y-104428095D01*
X111988333Y-104428095D02*
X112178809Y-104428095D01*
X112178809Y-104428095D02*
X112293095Y-104466190D01*
X112293095Y-104466190D02*
X112369285Y-104542380D01*
X112369285Y-104542380D02*
X112407380Y-104618571D01*
X112407380Y-104618571D02*
X112445476Y-104770952D01*
X112445476Y-104770952D02*
X112445476Y-104885238D01*
X112445476Y-104885238D02*
X112407380Y-105037619D01*
X112407380Y-105037619D02*
X112369285Y-105113809D01*
X112369285Y-105113809D02*
X112293095Y-105190000D01*
X112293095Y-105190000D02*
X112178809Y-105228095D01*
X112178809Y-105228095D02*
X111988333Y-105228095D01*
X112788333Y-104809047D02*
X113054999Y-104809047D01*
X113169285Y-105228095D02*
X112788333Y-105228095D01*
X112788333Y-105228095D02*
X112788333Y-104428095D01*
X112788333Y-104428095D02*
X113169285Y-104428095D01*
X115709810Y-104351895D02*
X115862191Y-104351895D01*
X115862191Y-104351895D02*
X115938381Y-104389990D01*
X115938381Y-104389990D02*
X116014572Y-104466180D01*
X116014572Y-104466180D02*
X116052667Y-104618561D01*
X116052667Y-104618561D02*
X116052667Y-104885228D01*
X116052667Y-104885228D02*
X116014572Y-105037609D01*
X116014572Y-105037609D02*
X115938381Y-105113800D01*
X115938381Y-105113800D02*
X115862191Y-105151895D01*
X115862191Y-105151895D02*
X115709810Y-105151895D01*
X115709810Y-105151895D02*
X115633619Y-105113800D01*
X115633619Y-105113800D02*
X115557429Y-105037609D01*
X115557429Y-105037609D02*
X115519333Y-104885228D01*
X115519333Y-104885228D02*
X115519333Y-104618561D01*
X115519333Y-104618561D02*
X115557429Y-104466180D01*
X115557429Y-104466180D02*
X115633619Y-104389990D01*
X115633619Y-104389990D02*
X115709810Y-104351895D01*
X116395524Y-105151895D02*
X116395524Y-104351895D01*
X116395524Y-104351895D02*
X116586000Y-104351895D01*
X116586000Y-104351895D02*
X116700286Y-104389990D01*
X116700286Y-104389990D02*
X116776476Y-104466180D01*
X116776476Y-104466180D02*
X116814571Y-104542371D01*
X116814571Y-104542371D02*
X116852667Y-104694752D01*
X116852667Y-104694752D02*
X116852667Y-104809038D01*
X116852667Y-104809038D02*
X116814571Y-104961419D01*
X116814571Y-104961419D02*
X116776476Y-105037609D01*
X116776476Y-105037609D02*
X116700286Y-105113800D01*
X116700286Y-105113800D02*
X116586000Y-105151895D01*
X116586000Y-105151895D02*
X116395524Y-105151895D01*
X117195524Y-105151895D02*
X117195524Y-104351895D01*
X117195524Y-104351895D02*
X117386000Y-104351895D01*
X117386000Y-104351895D02*
X117500286Y-104389990D01*
X117500286Y-104389990D02*
X117576476Y-104466180D01*
X117576476Y-104466180D02*
X117614571Y-104542371D01*
X117614571Y-104542371D02*
X117652667Y-104694752D01*
X117652667Y-104694752D02*
X117652667Y-104809038D01*
X117652667Y-104809038D02*
X117614571Y-104961419D01*
X117614571Y-104961419D02*
X117576476Y-105037609D01*
X117576476Y-105037609D02*
X117500286Y-105113800D01*
X117500286Y-105113800D02*
X117386000Y-105151895D01*
X117386000Y-105151895D02*
X117195524Y-105151895D01*
D14*
%TO.C,Z80-SKT1*%
X90872000Y-95394000D02*
X90872000Y-100854000D01*
X90872000Y-102854000D02*
X90872000Y-108314000D01*
X90872000Y-108314000D02*
X141792000Y-108314000D01*
X141792000Y-95394000D02*
X90872000Y-95394000D01*
X141792000Y-108314000D02*
X141792000Y-95394000D01*
X90812000Y-110804000D02*
X141852000Y-110804000D01*
X141852000Y-92904000D01*
X90812000Y-92904000D01*
X90812000Y-110804000D01*
X90872000Y-100854000D02*
G75*
G02*
X90872000Y-102854000I0J-1000000D01*
G01*
%TO.C,J1*%
X103856000Y-100474000D02*
X103856000Y-103234000D01*
X103856000Y-103234000D02*
X105126000Y-103234000D01*
X105126000Y-100474000D02*
X103856000Y-100474000D01*
X106786000Y-103763999D02*
X106586000Y-103964000D01*
X106786000Y-103763999D02*
X106986000Y-103964000D01*
X106986000Y-103964000D02*
X106586000Y-103964000D01*
X129255999Y-103114000D02*
X127986000Y-103114000D01*
X129256000Y-100354000D02*
X127986000Y-100354000D01*
X129256000Y-100354000D02*
X129255999Y-103114000D01*
%TD*%
M02*
