%TF.GenerationSoftware,KiCad,Pcbnew,9.0.9*%
%TF.CreationDate,2026-08-16T17:51:23-07:00*%
%TF.ProjectId,ZID_POD,5a49445f-504f-4442-9e6b-696361645f70,PR1.0*%
%TF.SameCoordinates,Original*%
%TF.FileFunction,Copper,L2,Inr*%
%TF.FilePolarity,Positive*%
%FSLAX46Y46*%
G04 Gerber Fmt 4.6, Leading zero omitted, Abs format (unit mm)*
G04 Created by KiCad (PCBNEW 9.0.9) date 2026-08-16 17:51:23*
%MOMM*%
%LPD*%
G01*
G04 APERTURE LIST*
G04 Aperture macros list*
%AMRoundRect*
0 Rectangle with rounded corners*
0 $1 Rounding radius*
0 $2 $3 $4 $5 $6 $7 $8 $9 X,Y pos of 4 corners*
0 Add a 4 corners polygon primitive as box body*
4,1,4,$2,$3,$4,$5,$6,$7,$8,$9,$2,$3,0*
0 Add four circle primitives for the rounded corners*
1,1,$1+$1,$2,$3*
1,1,$1+$1,$4,$5*
1,1,$1+$1,$6,$7*
1,1,$1+$1,$8,$9*
0 Add four rect primitives between the rounded corners*
20,1,$1+$1,$2,$3,$4,$5,0*
20,1,$1+$1,$4,$5,$6,$7,0*
20,1,$1+$1,$6,$7,$8,$9,0*
20,1,$1+$1,$8,$9,$2,$3,0*%
G04 Aperture macros list end*
%TA.AperFunction,ComponentPad*%
%ADD10RoundRect,0.250000X0.550000X-0.550000X0.550000X0.550000X-0.550000X0.550000X-0.550000X-0.550000X0*%
%TD*%
%TA.AperFunction,ComponentPad*%
%ADD11C,1.600000*%
%TD*%
%TA.AperFunction,ViaPad*%
%ADD12C,0.600000*%
%TD*%
%TA.AperFunction,Conductor*%
%ADD13C,0.180000*%
%TD*%
G04 APERTURE END LIST*
D10*
%TO.N,/A11*%
%TO.C,Z80-SKT1*%
X92202000Y-109474000D03*
D11*
%TO.N,/A12*%
X94742000Y-109474000D03*
%TO.N,/A13*%
X97282000Y-109474000D03*
%TO.N,/A14*%
X99822000Y-109474000D03*
%TO.N,/A15*%
X102362000Y-109474000D03*
%TO.N,/CLK*%
X104902000Y-109474000D03*
%TO.N,/D4*%
X107442000Y-109474000D03*
%TO.N,/D3*%
X109982000Y-109474000D03*
%TO.N,/D5*%
X112522000Y-109474000D03*
%TO.N,/D6*%
X115062000Y-109474000D03*
%TO.N,unconnected-(Z80-SKT1-NC{slash}GND-Pad11)*%
X117602000Y-109474000D03*
%TO.N,/D2*%
X120142000Y-109474000D03*
%TO.N,/D7*%
X122682000Y-109474000D03*
%TO.N,/D0*%
X125222000Y-109474000D03*
%TO.N,/D1*%
X127762000Y-109474000D03*
%TO.N,/INT-*%
X130302000Y-109474000D03*
%TO.N,/NMI-*%
X132842000Y-109474000D03*
%TO.N,/HALT-*%
X135382000Y-109474000D03*
%TO.N,/MREQ-*%
X137922000Y-109474000D03*
%TO.N,/IORQ-*%
X140462000Y-109474000D03*
%TO.N,/RD-*%
X140462000Y-94234000D03*
%TO.N,/WR-*%
X137922000Y-94234000D03*
%TO.N,/BACK-*%
X135382000Y-94234000D03*
%TO.N,/WAIT-*%
X132842000Y-94234000D03*
%TO.N,/BREQ-*%
X130302000Y-94234000D03*
%TO.N,/RST-*%
X127762000Y-94234000D03*
%TO.N,/M1-*%
X125222000Y-94234000D03*
%TO.N,/RFSH-*%
X122682000Y-94234000D03*
%TO.N,/GND*%
X120142000Y-94234000D03*
%TO.N,/A0*%
X117602000Y-94234000D03*
%TO.N,/A1*%
X115062000Y-94234000D03*
%TO.N,/A2*%
X112522000Y-94234000D03*
%TO.N,/A3*%
X109982000Y-94234000D03*
%TO.N,/A4*%
X107442000Y-94234000D03*
%TO.N,/A5*%
X104902000Y-94234000D03*
%TO.N,/A6*%
X102362000Y-94234000D03*
%TO.N,/A7*%
X99822000Y-94234000D03*
%TO.N,/A8*%
X97282000Y-94234000D03*
%TO.N,/A9*%
X94742000Y-94234000D03*
%TO.N,/A10*%
X92202000Y-94234000D03*
%TD*%
D12*
%TO.N,/D1*%
X120213427Y-98891579D03*
%TO.N,/GND*%
X123723400Y-99466400D03*
X124561600Y-99517200D03*
%TO.N,/RST-*%
X113766600Y-104038400D03*
%TO.N,/A6*%
X108813600Y-104063800D03*
%TO.N,/MREQ-*%
X118770400Y-97942400D03*
%TO.N,/A0*%
X111810800Y-104013000D03*
%TO.N,/A14*%
X125933200Y-105370400D03*
%TO.N,/D0*%
X118897400Y-108974000D03*
%TO.N,/A8*%
X107797600Y-104038400D03*
%TO.N,/CLK*%
X123774200Y-105776800D03*
%TO.N,/INT-*%
X118770400Y-107278400D03*
%TO.N,/D5*%
X123246034Y-97741068D03*
%TO.N,/A11*%
X126314200Y-96954000D03*
%TO.N,/A2*%
X110744000Y-104038400D03*
%TO.N,/A12*%
X128066800Y-97967800D03*
%TO.N,/WR-*%
X115798600Y-105178400D03*
%TO.N,/NMI-*%
X119354600Y-98882200D03*
%TO.N,/A4*%
X109778800Y-104013000D03*
%TO.N,/D6*%
X121564400Y-108432600D03*
%TO.N,/RFSH-*%
X112776000Y-104063800D03*
%TO.N,/HALT-*%
X117805200Y-107264200D03*
%TO.N,/D7*%
X120269000Y-99669600D03*
%TO.N,/WAIT-*%
X114782600Y-104608400D03*
%TO.N,/A13*%
X124616899Y-96953999D03*
%TO.N,/D3*%
X122136214Y-107902099D03*
%TO.N,/A15*%
X111912400Y-98501200D03*
%TO.N,/D4*%
X123723400Y-97124200D03*
%TO.N,/IORQ-*%
X116785999Y-106678400D03*
%TD*%
D13*
%TO.N,/D0*%
X122495899Y-107332099D02*
X124637800Y-109474000D01*
X118897400Y-108974000D02*
X120539301Y-107332099D01*
X120539301Y-107332099D02*
X122495899Y-107332099D01*
%TO.N,/INT-*%
X123953116Y-108280200D02*
X129108200Y-108280200D01*
X129108200Y-108280200D02*
X130302000Y-109474000D01*
X122645015Y-106972099D02*
X123953116Y-108280200D01*
X118770400Y-107278400D02*
X119076701Y-106972099D01*
X119076701Y-106972099D02*
X122645015Y-106972099D01*
%TO.N,/HALT-*%
X118630599Y-106612099D02*
X122794132Y-106612099D01*
X133828200Y-107920200D02*
X135382000Y-109474000D01*
X122794132Y-106612099D02*
X124102232Y-107920200D01*
X124102232Y-107920200D02*
X133828200Y-107920200D01*
X117805200Y-107264200D02*
X117978498Y-107264200D01*
X117978498Y-107264200D02*
X118630599Y-106612099D01*
%TO.N,/IORQ-*%
X138548200Y-107560200D02*
X140462000Y-109474000D01*
X117212300Y-106252099D02*
X122943248Y-106252099D01*
X116785999Y-106678400D02*
X117212300Y-106252099D01*
X124251349Y-107560200D02*
X138548200Y-107560200D01*
X122943248Y-106252099D02*
X124251349Y-107560200D01*
%TD*%
%TA.AperFunction,Conductor*%
%TO.N,/GND*%
G36*
X120045713Y-92721494D02*
G01*
X120089862Y-92772446D01*
X120099457Y-92839178D01*
X120071450Y-92900504D01*
X120014734Y-92936953D01*
X119999742Y-92940327D01*
X119837583Y-92966009D01*
X119642979Y-93029241D01*
X119642968Y-93029245D01*
X119460653Y-93122138D01*
X119460647Y-93122142D01*
X119416077Y-93154524D01*
X120095553Y-93834000D01*
X120089339Y-93834000D01*
X119987606Y-93861259D01*
X119896394Y-93913920D01*
X119821920Y-93988394D01*
X119769259Y-94079606D01*
X119742000Y-94181339D01*
X119742000Y-94187553D01*
X119062524Y-93508077D01*
X119030142Y-93552647D01*
X119030138Y-93552653D01*
X118969125Y-93672399D01*
X118922833Y-93721413D01*
X118857391Y-93737619D01*
X118793577Y-93715872D01*
X118755907Y-93672398D01*
X118699410Y-93561515D01*
X118699407Y-93561511D01*
X118699406Y-93561509D01*
X118580694Y-93398116D01*
X118437884Y-93255306D01*
X118437882Y-93255304D01*
X118437879Y-93255302D01*
X118328152Y-93175581D01*
X118274491Y-93136594D01*
X118274490Y-93136593D01*
X118274488Y-93136592D01*
X118274489Y-93136592D01*
X118094544Y-93044906D01*
X118094543Y-93044905D01*
X118094540Y-93044904D01*
X118039021Y-93026865D01*
X117902459Y-92982493D01*
X117734575Y-92955903D01*
X117702982Y-92950900D01*
X117501018Y-92950900D01*
X117301540Y-92982493D01*
X117109466Y-93044902D01*
X117109460Y-93044904D01*
X117109458Y-93044904D01*
X117109455Y-93044906D01*
X116929510Y-93136592D01*
X116766120Y-93255302D01*
X116766117Y-93255304D01*
X116623304Y-93398117D01*
X116623302Y-93398120D01*
X116504592Y-93561510D01*
X116438609Y-93691011D01*
X116392318Y-93740025D01*
X116326876Y-93756231D01*
X116263061Y-93734484D01*
X116225391Y-93691011D01*
X116159407Y-93561510D01*
X116040697Y-93398120D01*
X116040695Y-93398117D01*
X115897882Y-93255304D01*
X115897879Y-93255302D01*
X115788152Y-93175581D01*
X115734491Y-93136594D01*
X115734490Y-93136593D01*
X115734488Y-93136592D01*
X115734489Y-93136592D01*
X115554544Y-93044906D01*
X115554543Y-93044905D01*
X115554540Y-93044904D01*
X115499021Y-93026865D01*
X115362459Y-92982493D01*
X115194575Y-92955903D01*
X115162982Y-92950900D01*
X114961018Y-92950900D01*
X114761540Y-92982493D01*
X114569466Y-93044902D01*
X114569460Y-93044904D01*
X114569458Y-93044904D01*
X114569455Y-93044906D01*
X114389510Y-93136592D01*
X114226120Y-93255302D01*
X114226117Y-93255304D01*
X114083304Y-93398117D01*
X114083302Y-93398120D01*
X113964592Y-93561510D01*
X113898609Y-93691011D01*
X113852318Y-93740025D01*
X113786876Y-93756231D01*
X113723061Y-93734484D01*
X113685391Y-93691011D01*
X113619407Y-93561510D01*
X113500697Y-93398120D01*
X113500695Y-93398117D01*
X113357882Y-93255304D01*
X113357879Y-93255302D01*
X113248152Y-93175581D01*
X113194491Y-93136594D01*
X113194490Y-93136593D01*
X113194488Y-93136592D01*
X113194489Y-93136592D01*
X113014544Y-93044906D01*
X113014543Y-93044905D01*
X113014540Y-93044904D01*
X112959021Y-93026865D01*
X112822459Y-92982493D01*
X112654575Y-92955903D01*
X112622982Y-92950900D01*
X112421018Y-92950900D01*
X112221540Y-92982493D01*
X112029466Y-93044902D01*
X112029460Y-93044904D01*
X112029458Y-93044904D01*
X112029455Y-93044906D01*
X111849510Y-93136592D01*
X111686120Y-93255302D01*
X111686117Y-93255304D01*
X111543304Y-93398117D01*
X111543302Y-93398120D01*
X111424592Y-93561510D01*
X111358609Y-93691011D01*
X111312318Y-93740025D01*
X111246876Y-93756231D01*
X111183061Y-93734484D01*
X111145391Y-93691011D01*
X111079407Y-93561510D01*
X110960697Y-93398120D01*
X110960695Y-93398117D01*
X110817882Y-93255304D01*
X110817879Y-93255302D01*
X110708152Y-93175581D01*
X110654491Y-93136594D01*
X110654490Y-93136593D01*
X110654488Y-93136592D01*
X110654489Y-93136592D01*
X110474544Y-93044906D01*
X110474543Y-93044905D01*
X110474540Y-93044904D01*
X110419021Y-93026865D01*
X110282459Y-92982493D01*
X110114575Y-92955903D01*
X110082982Y-92950900D01*
X109881018Y-92950900D01*
X109681540Y-92982493D01*
X109489466Y-93044902D01*
X109489460Y-93044904D01*
X109489458Y-93044904D01*
X109489455Y-93044906D01*
X109309510Y-93136592D01*
X109146120Y-93255302D01*
X109146117Y-93255304D01*
X109003304Y-93398117D01*
X109003302Y-93398120D01*
X108884592Y-93561510D01*
X108818609Y-93691011D01*
X108772318Y-93740025D01*
X108706876Y-93756231D01*
X108643061Y-93734484D01*
X108605391Y-93691011D01*
X108539407Y-93561510D01*
X108420697Y-93398120D01*
X108420695Y-93398117D01*
X108277882Y-93255304D01*
X108277879Y-93255302D01*
X108168152Y-93175581D01*
X108114491Y-93136594D01*
X108114490Y-93136593D01*
X108114488Y-93136592D01*
X108114489Y-93136592D01*
X107934544Y-93044906D01*
X107934543Y-93044905D01*
X107934540Y-93044904D01*
X107879021Y-93026865D01*
X107742459Y-92982493D01*
X107574575Y-92955903D01*
X107542982Y-92950900D01*
X107341018Y-92950900D01*
X107141540Y-92982493D01*
X106949466Y-93044902D01*
X106949460Y-93044904D01*
X106949458Y-93044904D01*
X106949455Y-93044906D01*
X106769510Y-93136592D01*
X106606120Y-93255302D01*
X106606117Y-93255304D01*
X106463304Y-93398117D01*
X106463302Y-93398120D01*
X106344592Y-93561510D01*
X106278609Y-93691011D01*
X106232318Y-93740025D01*
X106166876Y-93756231D01*
X106103061Y-93734484D01*
X106065391Y-93691011D01*
X105999407Y-93561510D01*
X105880697Y-93398120D01*
X105880695Y-93398117D01*
X105737882Y-93255304D01*
X105737879Y-93255302D01*
X105628152Y-93175581D01*
X105574491Y-93136594D01*
X105574490Y-93136593D01*
X105574488Y-93136592D01*
X105574489Y-93136592D01*
X105394544Y-93044906D01*
X105394543Y-93044905D01*
X105394540Y-93044904D01*
X105339021Y-93026865D01*
X105202459Y-92982493D01*
X105034575Y-92955903D01*
X105002982Y-92950900D01*
X104801018Y-92950900D01*
X104601540Y-92982493D01*
X104409466Y-93044902D01*
X104409460Y-93044904D01*
X104409458Y-93044904D01*
X104409455Y-93044906D01*
X104229510Y-93136592D01*
X104066120Y-93255302D01*
X104066117Y-93255304D01*
X103923304Y-93398117D01*
X103923302Y-93398120D01*
X103804592Y-93561510D01*
X103738609Y-93691011D01*
X103692318Y-93740025D01*
X103626876Y-93756231D01*
X103563061Y-93734484D01*
X103525391Y-93691011D01*
X103459407Y-93561510D01*
X103340697Y-93398120D01*
X103340695Y-93398117D01*
X103197882Y-93255304D01*
X103197879Y-93255302D01*
X103088152Y-93175581D01*
X103034491Y-93136594D01*
X103034490Y-93136593D01*
X103034488Y-93136592D01*
X103034489Y-93136592D01*
X102854544Y-93044906D01*
X102854543Y-93044905D01*
X102854540Y-93044904D01*
X102799021Y-93026865D01*
X102662459Y-92982493D01*
X102494575Y-92955903D01*
X102462982Y-92950900D01*
X102261018Y-92950900D01*
X102061540Y-92982493D01*
X101869466Y-93044902D01*
X101869460Y-93044904D01*
X101869458Y-93044904D01*
X101869455Y-93044906D01*
X101689510Y-93136592D01*
X101526120Y-93255302D01*
X101526117Y-93255304D01*
X101383304Y-93398117D01*
X101383302Y-93398120D01*
X101264592Y-93561510D01*
X101198609Y-93691011D01*
X101152318Y-93740025D01*
X101086876Y-93756231D01*
X101023061Y-93734484D01*
X100985391Y-93691011D01*
X100919407Y-93561510D01*
X100800697Y-93398120D01*
X100800695Y-93398117D01*
X100657882Y-93255304D01*
X100657879Y-93255302D01*
X100548152Y-93175581D01*
X100494491Y-93136594D01*
X100494490Y-93136593D01*
X100494488Y-93136592D01*
X100494489Y-93136592D01*
X100314544Y-93044906D01*
X100314543Y-93044905D01*
X100314540Y-93044904D01*
X100259021Y-93026865D01*
X100122459Y-92982493D01*
X99954575Y-92955903D01*
X99922982Y-92950900D01*
X99721018Y-92950900D01*
X99521540Y-92982493D01*
X99329466Y-93044902D01*
X99329460Y-93044904D01*
X99329458Y-93044904D01*
X99329455Y-93044906D01*
X99149510Y-93136592D01*
X98986120Y-93255302D01*
X98986117Y-93255304D01*
X98843304Y-93398117D01*
X98843302Y-93398120D01*
X98724592Y-93561510D01*
X98658609Y-93691011D01*
X98612318Y-93740025D01*
X98546876Y-93756231D01*
X98483061Y-93734484D01*
X98445391Y-93691011D01*
X98379407Y-93561510D01*
X98260697Y-93398120D01*
X98260695Y-93398117D01*
X98117882Y-93255304D01*
X98117879Y-93255302D01*
X98008152Y-93175581D01*
X97954491Y-93136594D01*
X97954490Y-93136593D01*
X97954488Y-93136592D01*
X97954489Y-93136592D01*
X97774544Y-93044906D01*
X97774543Y-93044905D01*
X97774540Y-93044904D01*
X97719021Y-93026865D01*
X97582459Y-92982493D01*
X97414575Y-92955903D01*
X97382982Y-92950900D01*
X97181018Y-92950900D01*
X96981540Y-92982493D01*
X96789466Y-93044902D01*
X96789460Y-93044904D01*
X96789458Y-93044904D01*
X96789455Y-93044906D01*
X96609510Y-93136592D01*
X96446120Y-93255302D01*
X96446117Y-93255304D01*
X96303304Y-93398117D01*
X96303302Y-93398120D01*
X96184592Y-93561510D01*
X96118609Y-93691011D01*
X96072318Y-93740025D01*
X96006876Y-93756231D01*
X95943061Y-93734484D01*
X95905391Y-93691011D01*
X95839407Y-93561510D01*
X95720697Y-93398120D01*
X95720695Y-93398117D01*
X95577882Y-93255304D01*
X95577879Y-93255302D01*
X95468152Y-93175581D01*
X95414491Y-93136594D01*
X95414490Y-93136593D01*
X95414488Y-93136592D01*
X95414489Y-93136592D01*
X95234544Y-93044906D01*
X95234543Y-93044905D01*
X95234540Y-93044904D01*
X95179021Y-93026865D01*
X95042459Y-92982493D01*
X94874575Y-92955903D01*
X94842982Y-92950900D01*
X94641018Y-92950900D01*
X94441540Y-92982493D01*
X94249466Y-93044902D01*
X94249460Y-93044904D01*
X94249458Y-93044904D01*
X94249455Y-93044906D01*
X94069510Y-93136592D01*
X93906120Y-93255302D01*
X93906117Y-93255304D01*
X93763304Y-93398117D01*
X93763302Y-93398120D01*
X93644592Y-93561510D01*
X93578609Y-93691011D01*
X93532318Y-93740025D01*
X93466876Y-93756231D01*
X93403061Y-93734484D01*
X93365391Y-93691011D01*
X93299407Y-93561510D01*
X93180697Y-93398120D01*
X93180695Y-93398117D01*
X93037882Y-93255304D01*
X93037879Y-93255302D01*
X92928152Y-93175581D01*
X92874491Y-93136594D01*
X92874490Y-93136593D01*
X92874488Y-93136592D01*
X92874489Y-93136592D01*
X92694544Y-93044906D01*
X92694543Y-93044905D01*
X92694540Y-93044904D01*
X92639021Y-93026865D01*
X92502459Y-92982493D01*
X92334575Y-92955903D01*
X92302982Y-92950900D01*
X92101018Y-92950900D01*
X91901540Y-92982493D01*
X91709466Y-93044902D01*
X91709460Y-93044904D01*
X91709458Y-93044904D01*
X91709455Y-93044906D01*
X91529510Y-93136592D01*
X91366120Y-93255302D01*
X91366117Y-93255304D01*
X91223304Y-93398117D01*
X91223302Y-93398120D01*
X91104592Y-93561510D01*
X91012906Y-93741455D01*
X91012902Y-93741466D01*
X90950493Y-93933540D01*
X90918900Y-94133018D01*
X90918900Y-94334981D01*
X90950493Y-94534459D01*
X90973979Y-94606741D01*
X91012904Y-94726540D01*
X91012905Y-94726543D01*
X91012906Y-94726544D01*
X91104592Y-94906489D01*
X91223302Y-95069879D01*
X91223304Y-95069882D01*
X91223306Y-95069884D01*
X91366116Y-95212694D01*
X91529509Y-95331406D01*
X91529511Y-95331407D01*
X91529510Y-95331407D01*
X91557878Y-95345861D01*
X91709460Y-95423096D01*
X91901540Y-95485506D01*
X92101018Y-95517100D01*
X92101023Y-95517100D01*
X92302977Y-95517100D01*
X92302982Y-95517100D01*
X92502460Y-95485506D01*
X92694540Y-95423096D01*
X92874491Y-95331406D01*
X93037884Y-95212694D01*
X93180694Y-95069884D01*
X93299406Y-94906491D01*
X93365391Y-94776987D01*
X93411682Y-94727974D01*
X93477124Y-94711768D01*
X93540939Y-94733515D01*
X93578608Y-94776987D01*
X93596032Y-94811183D01*
X93644592Y-94906489D01*
X93763302Y-95069879D01*
X93763304Y-95069882D01*
X93763306Y-95069884D01*
X93906116Y-95212694D01*
X94069509Y-95331406D01*
X94069511Y-95331407D01*
X94069510Y-95331407D01*
X94097878Y-95345861D01*
X94249460Y-95423096D01*
X94441540Y-95485506D01*
X94641018Y-95517100D01*
X94641023Y-95517100D01*
X94842977Y-95517100D01*
X94842982Y-95517100D01*
X95042460Y-95485506D01*
X95234540Y-95423096D01*
X95414491Y-95331406D01*
X95577884Y-95212694D01*
X95720694Y-95069884D01*
X95839406Y-94906491D01*
X95905391Y-94776987D01*
X95951682Y-94727974D01*
X96017124Y-94711768D01*
X96080939Y-94733515D01*
X96118608Y-94776987D01*
X96136032Y-94811183D01*
X96184592Y-94906489D01*
X96303302Y-95069879D01*
X96303304Y-95069882D01*
X96303306Y-95069884D01*
X96446116Y-95212694D01*
X96609509Y-95331406D01*
X96609511Y-95331407D01*
X96609510Y-95331407D01*
X96637878Y-95345861D01*
X96789460Y-95423096D01*
X96981540Y-95485506D01*
X97181018Y-95517100D01*
X97181023Y-95517100D01*
X97382977Y-95517100D01*
X97382982Y-95517100D01*
X97582460Y-95485506D01*
X97774540Y-95423096D01*
X97954491Y-95331406D01*
X98117884Y-95212694D01*
X98260694Y-95069884D01*
X98379406Y-94906491D01*
X98445391Y-94776987D01*
X98491682Y-94727974D01*
X98557124Y-94711768D01*
X98620939Y-94733515D01*
X98658608Y-94776987D01*
X98676032Y-94811183D01*
X98724592Y-94906489D01*
X98843302Y-95069879D01*
X98843304Y-95069882D01*
X98843306Y-95069884D01*
X98986116Y-95212694D01*
X99149509Y-95331406D01*
X99149511Y-95331407D01*
X99149510Y-95331407D01*
X99177878Y-95345861D01*
X99329460Y-95423096D01*
X99521540Y-95485506D01*
X99721018Y-95517100D01*
X99721023Y-95517100D01*
X99922977Y-95517100D01*
X99922982Y-95517100D01*
X100122460Y-95485506D01*
X100314540Y-95423096D01*
X100494491Y-95331406D01*
X100657884Y-95212694D01*
X100800694Y-95069884D01*
X100919406Y-94906491D01*
X100985391Y-94776987D01*
X101031682Y-94727974D01*
X101097124Y-94711768D01*
X101160939Y-94733515D01*
X101198608Y-94776987D01*
X101216032Y-94811183D01*
X101264592Y-94906489D01*
X101383302Y-95069879D01*
X101383304Y-95069882D01*
X101383306Y-95069884D01*
X101526116Y-95212694D01*
X101689509Y-95331406D01*
X101689511Y-95331407D01*
X101689510Y-95331407D01*
X101717878Y-95345861D01*
X101869460Y-95423096D01*
X102061540Y-95485506D01*
X102261018Y-95517100D01*
X102261023Y-95517100D01*
X102462977Y-95517100D01*
X102462982Y-95517100D01*
X102662460Y-95485506D01*
X102854540Y-95423096D01*
X103034491Y-95331406D01*
X103197884Y-95212694D01*
X103340694Y-95069884D01*
X103459406Y-94906491D01*
X103525391Y-94776987D01*
X103571682Y-94727974D01*
X103637124Y-94711768D01*
X103700939Y-94733515D01*
X103738608Y-94776987D01*
X103756032Y-94811183D01*
X103804592Y-94906489D01*
X103923302Y-95069879D01*
X103923304Y-95069882D01*
X103923306Y-95069884D01*
X104066116Y-95212694D01*
X104229509Y-95331406D01*
X104229511Y-95331407D01*
X104229510Y-95331407D01*
X104257878Y-95345861D01*
X104409460Y-95423096D01*
X104601540Y-95485506D01*
X104801018Y-95517100D01*
X104801023Y-95517100D01*
X105002977Y-95517100D01*
X105002982Y-95517100D01*
X105202460Y-95485506D01*
X105394540Y-95423096D01*
X105574491Y-95331406D01*
X105737884Y-95212694D01*
X105880694Y-95069884D01*
X105999406Y-94906491D01*
X106065391Y-94776987D01*
X106111682Y-94727974D01*
X106177124Y-94711768D01*
X106240939Y-94733515D01*
X106278608Y-94776987D01*
X106296032Y-94811183D01*
X106344592Y-94906489D01*
X106463302Y-95069879D01*
X106463304Y-95069882D01*
X106463306Y-95069884D01*
X106606116Y-95212694D01*
X106769509Y-95331406D01*
X106769511Y-95331407D01*
X106769510Y-95331407D01*
X106797878Y-95345861D01*
X106949460Y-95423096D01*
X107141540Y-95485506D01*
X107341018Y-95517100D01*
X107341023Y-95517100D01*
X107542977Y-95517100D01*
X107542982Y-95517100D01*
X107742460Y-95485506D01*
X107934540Y-95423096D01*
X108114491Y-95331406D01*
X108277884Y-95212694D01*
X108420694Y-95069884D01*
X108539406Y-94906491D01*
X108605391Y-94776987D01*
X108651682Y-94727974D01*
X108717124Y-94711768D01*
X108780939Y-94733515D01*
X108818608Y-94776987D01*
X108836032Y-94811183D01*
X108884592Y-94906489D01*
X109003302Y-95069879D01*
X109003304Y-95069882D01*
X109003306Y-95069884D01*
X109146116Y-95212694D01*
X109309509Y-95331406D01*
X109309511Y-95331407D01*
X109309510Y-95331407D01*
X109337878Y-95345861D01*
X109489460Y-95423096D01*
X109681540Y-95485506D01*
X109881018Y-95517100D01*
X109881023Y-95517100D01*
X110082977Y-95517100D01*
X110082982Y-95517100D01*
X110282460Y-95485506D01*
X110474540Y-95423096D01*
X110654491Y-95331406D01*
X110817884Y-95212694D01*
X110960694Y-95069884D01*
X111079406Y-94906491D01*
X111145391Y-94776987D01*
X111191682Y-94727974D01*
X111257124Y-94711768D01*
X111320939Y-94733515D01*
X111358608Y-94776987D01*
X111376032Y-94811183D01*
X111424592Y-94906489D01*
X111543302Y-95069879D01*
X111543304Y-95069882D01*
X111543306Y-95069884D01*
X111686116Y-95212694D01*
X111849509Y-95331406D01*
X111849511Y-95331407D01*
X111849510Y-95331407D01*
X111877878Y-95345861D01*
X112029460Y-95423096D01*
X112221540Y-95485506D01*
X112421018Y-95517100D01*
X112421023Y-95517100D01*
X112622977Y-95517100D01*
X112622982Y-95517100D01*
X112822460Y-95485506D01*
X113014540Y-95423096D01*
X113194491Y-95331406D01*
X113357884Y-95212694D01*
X113500694Y-95069884D01*
X113619406Y-94906491D01*
X113685391Y-94776987D01*
X113731682Y-94727974D01*
X113797124Y-94711768D01*
X113860939Y-94733515D01*
X113898608Y-94776987D01*
X113916032Y-94811183D01*
X113964592Y-94906489D01*
X114083302Y-95069879D01*
X114083304Y-95069882D01*
X114083306Y-95069884D01*
X114226116Y-95212694D01*
X114389509Y-95331406D01*
X114389511Y-95331407D01*
X114389510Y-95331407D01*
X114417878Y-95345861D01*
X114569460Y-95423096D01*
X114761540Y-95485506D01*
X114961018Y-95517100D01*
X114961023Y-95517100D01*
X115162977Y-95517100D01*
X115162982Y-95517100D01*
X115362460Y-95485506D01*
X115554540Y-95423096D01*
X115734491Y-95331406D01*
X115897884Y-95212694D01*
X116040694Y-95069884D01*
X116159406Y-94906491D01*
X116225391Y-94776987D01*
X116271682Y-94727974D01*
X116337124Y-94711768D01*
X116400939Y-94733515D01*
X116438608Y-94776987D01*
X116456032Y-94811183D01*
X116504592Y-94906489D01*
X116623302Y-95069879D01*
X116623304Y-95069882D01*
X116623306Y-95069884D01*
X116766116Y-95212694D01*
X116929509Y-95331406D01*
X116929511Y-95331407D01*
X116929510Y-95331407D01*
X116957878Y-95345861D01*
X117109460Y-95423096D01*
X117301540Y-95485506D01*
X117501018Y-95517100D01*
X117501023Y-95517100D01*
X117702977Y-95517100D01*
X117702982Y-95517100D01*
X117902460Y-95485506D01*
X118094540Y-95423096D01*
X118274491Y-95331406D01*
X118437884Y-95212694D01*
X118580694Y-95069884D01*
X118699406Y-94906491D01*
X118755908Y-94795599D01*
X118802198Y-94746586D01*
X118867639Y-94730380D01*
X118931454Y-94752126D01*
X118969125Y-94795600D01*
X119030140Y-94915349D01*
X119062524Y-94959921D01*
X119062524Y-94959922D01*
X119742000Y-94280446D01*
X119742000Y-94286661D01*
X119769259Y-94388394D01*
X119821920Y-94479606D01*
X119896394Y-94554080D01*
X119987606Y-94606741D01*
X120089339Y-94634000D01*
X120095552Y-94634000D01*
X119416076Y-95313474D01*
X119460653Y-95345861D01*
X119642968Y-95438754D01*
X119642979Y-95438758D01*
X119837583Y-95501990D01*
X120039688Y-95533999D01*
X120039693Y-95534000D01*
X120244307Y-95534000D01*
X120244311Y-95533999D01*
X120446416Y-95501990D01*
X120641020Y-95438758D01*
X120641037Y-95438751D01*
X120823345Y-95345862D01*
X120867922Y-95313474D01*
X120188448Y-94634000D01*
X120194661Y-94634000D01*
X120296394Y-94606741D01*
X120387606Y-94554080D01*
X120462080Y-94479606D01*
X120514741Y-94388394D01*
X120542000Y-94286661D01*
X120542000Y-94280448D01*
X121221474Y-94959922D01*
X121253862Y-94915345D01*
X121314874Y-94795601D01*
X121361164Y-94746587D01*
X121426606Y-94730380D01*
X121490421Y-94752126D01*
X121528091Y-94795599D01*
X121529462Y-94798289D01*
X121584592Y-94906489D01*
X121703302Y-95069879D01*
X121703304Y-95069882D01*
X121703306Y-95069884D01*
X121846116Y-95212694D01*
X122009509Y-95331406D01*
X122009511Y-95331407D01*
X122009510Y-95331407D01*
X122037878Y-95345861D01*
X122189460Y-95423096D01*
X122381540Y-95485506D01*
X122581018Y-95517100D01*
X122581023Y-95517100D01*
X122782977Y-95517100D01*
X122782982Y-95517100D01*
X122982460Y-95485506D01*
X123174540Y-95423096D01*
X123354491Y-95331406D01*
X123517884Y-95212694D01*
X123660694Y-95069884D01*
X123779406Y-94906491D01*
X123845391Y-94776987D01*
X123891682Y-94727974D01*
X123957124Y-94711768D01*
X124020939Y-94733515D01*
X124058608Y-94776987D01*
X124076032Y-94811183D01*
X124124592Y-94906489D01*
X124243302Y-95069879D01*
X124243304Y-95069882D01*
X124243306Y-95069884D01*
X124386116Y-95212694D01*
X124549509Y-95331406D01*
X124549511Y-95331407D01*
X124549510Y-95331407D01*
X124577878Y-95345861D01*
X124729460Y-95423096D01*
X124921540Y-95485506D01*
X125121018Y-95517100D01*
X125121023Y-95517100D01*
X125322977Y-95517100D01*
X125322982Y-95517100D01*
X125522460Y-95485506D01*
X125714540Y-95423096D01*
X125894491Y-95331406D01*
X126057884Y-95212694D01*
X126200694Y-95069884D01*
X126319406Y-94906491D01*
X126385391Y-94776987D01*
X126431682Y-94727974D01*
X126497124Y-94711768D01*
X126560939Y-94733515D01*
X126598608Y-94776987D01*
X126616032Y-94811183D01*
X126664592Y-94906489D01*
X126783302Y-95069879D01*
X126783304Y-95069882D01*
X126783306Y-95069884D01*
X126926116Y-95212694D01*
X127089509Y-95331406D01*
X127089511Y-95331407D01*
X127089510Y-95331407D01*
X127117878Y-95345861D01*
X127269460Y-95423096D01*
X127461540Y-95485506D01*
X127661018Y-95517100D01*
X127661023Y-95517100D01*
X127862977Y-95517100D01*
X127862982Y-95517100D01*
X128062460Y-95485506D01*
X128254540Y-95423096D01*
X128434491Y-95331406D01*
X128597884Y-95212694D01*
X128740694Y-95069884D01*
X128859406Y-94906491D01*
X128925391Y-94776987D01*
X128971682Y-94727974D01*
X129037124Y-94711768D01*
X129100939Y-94733515D01*
X129138608Y-94776987D01*
X129156032Y-94811183D01*
X129204592Y-94906489D01*
X129323302Y-95069879D01*
X129323304Y-95069882D01*
X129323306Y-95069884D01*
X129466116Y-95212694D01*
X129629509Y-95331406D01*
X129629511Y-95331407D01*
X129629510Y-95331407D01*
X129657878Y-95345861D01*
X129809460Y-95423096D01*
X130001540Y-95485506D01*
X130201018Y-95517100D01*
X130201023Y-95517100D01*
X130402977Y-95517100D01*
X130402982Y-95517100D01*
X130602460Y-95485506D01*
X130794540Y-95423096D01*
X130974491Y-95331406D01*
X131137884Y-95212694D01*
X131280694Y-95069884D01*
X131399406Y-94906491D01*
X131465391Y-94776987D01*
X131511682Y-94727974D01*
X131577124Y-94711768D01*
X131640939Y-94733515D01*
X131678608Y-94776987D01*
X131696032Y-94811183D01*
X131744592Y-94906489D01*
X131863302Y-95069879D01*
X131863304Y-95069882D01*
X131863306Y-95069884D01*
X132006116Y-95212694D01*
X132169509Y-95331406D01*
X132169511Y-95331407D01*
X132169510Y-95331407D01*
X132197878Y-95345861D01*
X132349460Y-95423096D01*
X132541540Y-95485506D01*
X132741018Y-95517100D01*
X132741023Y-95517100D01*
X132942977Y-95517100D01*
X132942982Y-95517100D01*
X133142460Y-95485506D01*
X133334540Y-95423096D01*
X133514491Y-95331406D01*
X133677884Y-95212694D01*
X133820694Y-95069884D01*
X133939406Y-94906491D01*
X134005391Y-94776987D01*
X134051682Y-94727974D01*
X134117124Y-94711768D01*
X134180939Y-94733515D01*
X134218608Y-94776987D01*
X134236032Y-94811183D01*
X134284592Y-94906489D01*
X134403302Y-95069879D01*
X134403304Y-95069882D01*
X134403306Y-95069884D01*
X134546116Y-95212694D01*
X134709509Y-95331406D01*
X134709511Y-95331407D01*
X134709510Y-95331407D01*
X134737878Y-95345861D01*
X134889460Y-95423096D01*
X135081540Y-95485506D01*
X135281018Y-95517100D01*
X135281023Y-95517100D01*
X135482977Y-95517100D01*
X135482982Y-95517100D01*
X135682460Y-95485506D01*
X135874540Y-95423096D01*
X136054491Y-95331406D01*
X136217884Y-95212694D01*
X136360694Y-95069884D01*
X136479406Y-94906491D01*
X136545391Y-94776987D01*
X136591682Y-94727974D01*
X136657124Y-94711768D01*
X136720939Y-94733515D01*
X136758608Y-94776987D01*
X136776032Y-94811183D01*
X136824592Y-94906489D01*
X136943302Y-95069879D01*
X136943304Y-95069882D01*
X136943306Y-95069884D01*
X137086116Y-95212694D01*
X137249509Y-95331406D01*
X137249511Y-95331407D01*
X137249510Y-95331407D01*
X137277878Y-95345861D01*
X137429460Y-95423096D01*
X137621540Y-95485506D01*
X137821018Y-95517100D01*
X137821023Y-95517100D01*
X138022977Y-95517100D01*
X138022982Y-95517100D01*
X138222460Y-95485506D01*
X138414540Y-95423096D01*
X138594491Y-95331406D01*
X138757884Y-95212694D01*
X138900694Y-95069884D01*
X139019406Y-94906491D01*
X139085391Y-94776987D01*
X139131682Y-94727974D01*
X139197124Y-94711768D01*
X139260939Y-94733515D01*
X139298608Y-94776987D01*
X139316032Y-94811183D01*
X139364592Y-94906489D01*
X139483302Y-95069879D01*
X139483304Y-95069882D01*
X139483306Y-95069884D01*
X139626116Y-95212694D01*
X139789509Y-95331406D01*
X139789511Y-95331407D01*
X139789510Y-95331407D01*
X139817878Y-95345861D01*
X139969460Y-95423096D01*
X140161540Y-95485506D01*
X140361018Y-95517100D01*
X140361023Y-95517100D01*
X140562977Y-95517100D01*
X140562982Y-95517100D01*
X140762460Y-95485506D01*
X140954540Y-95423096D01*
X141134491Y-95331406D01*
X141297884Y-95212694D01*
X141440694Y-95069884D01*
X141559406Y-94906491D01*
X141651096Y-94726540D01*
X141713506Y-94534460D01*
X141745100Y-94334982D01*
X141745100Y-94133018D01*
X141713506Y-93933540D01*
X141651096Y-93741460D01*
X141607103Y-93655119D01*
X141559407Y-93561510D01*
X141440697Y-93398120D01*
X141440695Y-93398117D01*
X141297882Y-93255304D01*
X141297879Y-93255302D01*
X141188152Y-93175581D01*
X141134491Y-93136594D01*
X141134490Y-93136593D01*
X141134488Y-93136592D01*
X141134489Y-93136592D01*
X140954544Y-93044906D01*
X140954543Y-93044905D01*
X140954540Y-93044904D01*
X140899021Y-93026865D01*
X140762459Y-92982493D01*
X140594575Y-92955903D01*
X140562982Y-92950900D01*
X140361018Y-92950900D01*
X140161540Y-92982493D01*
X139969466Y-93044902D01*
X139969460Y-93044904D01*
X139969458Y-93044904D01*
X139969455Y-93044906D01*
X139789510Y-93136592D01*
X139626120Y-93255302D01*
X139626117Y-93255304D01*
X139483304Y-93398117D01*
X139483302Y-93398120D01*
X139364592Y-93561510D01*
X139298609Y-93691011D01*
X139252318Y-93740025D01*
X139186876Y-93756231D01*
X139123061Y-93734484D01*
X139085391Y-93691011D01*
X139019407Y-93561510D01*
X138900697Y-93398120D01*
X138900695Y-93398117D01*
X138757882Y-93255304D01*
X138757879Y-93255302D01*
X138648152Y-93175581D01*
X138594491Y-93136594D01*
X138594490Y-93136593D01*
X138594488Y-93136592D01*
X138594489Y-93136592D01*
X138414544Y-93044906D01*
X138414543Y-93044905D01*
X138414540Y-93044904D01*
X138359021Y-93026865D01*
X138222459Y-92982493D01*
X138054575Y-92955903D01*
X138022982Y-92950900D01*
X137821018Y-92950900D01*
X137621540Y-92982493D01*
X137429466Y-93044902D01*
X137429460Y-93044904D01*
X137429458Y-93044904D01*
X137429455Y-93044906D01*
X137249510Y-93136592D01*
X137086120Y-93255302D01*
X137086117Y-93255304D01*
X136943304Y-93398117D01*
X136943302Y-93398120D01*
X136824592Y-93561510D01*
X136758609Y-93691011D01*
X136712318Y-93740025D01*
X136646876Y-93756231D01*
X136583061Y-93734484D01*
X136545391Y-93691011D01*
X136479407Y-93561510D01*
X136360697Y-93398120D01*
X136360695Y-93398117D01*
X136217882Y-93255304D01*
X136217879Y-93255302D01*
X136108152Y-93175581D01*
X136054491Y-93136594D01*
X136054490Y-93136593D01*
X136054488Y-93136592D01*
X136054489Y-93136592D01*
X135874544Y-93044906D01*
X135874543Y-93044905D01*
X135874540Y-93044904D01*
X135819021Y-93026865D01*
X135682459Y-92982493D01*
X135514575Y-92955903D01*
X135482982Y-92950900D01*
X135281018Y-92950900D01*
X135081540Y-92982493D01*
X134889466Y-93044902D01*
X134889460Y-93044904D01*
X134889458Y-93044904D01*
X134889455Y-93044906D01*
X134709510Y-93136592D01*
X134546120Y-93255302D01*
X134546117Y-93255304D01*
X134403304Y-93398117D01*
X134403302Y-93398120D01*
X134284592Y-93561510D01*
X134218609Y-93691011D01*
X134172318Y-93740025D01*
X134106876Y-93756231D01*
X134043061Y-93734484D01*
X134005391Y-93691011D01*
X133939407Y-93561510D01*
X133820697Y-93398120D01*
X133820695Y-93398117D01*
X133677882Y-93255304D01*
X133677879Y-93255302D01*
X133568152Y-93175581D01*
X133514491Y-93136594D01*
X133514490Y-93136593D01*
X133514488Y-93136592D01*
X133514489Y-93136592D01*
X133334544Y-93044906D01*
X133334543Y-93044905D01*
X133334540Y-93044904D01*
X133279021Y-93026865D01*
X133142459Y-92982493D01*
X132974575Y-92955903D01*
X132942982Y-92950900D01*
X132741018Y-92950900D01*
X132541540Y-92982493D01*
X132349466Y-93044902D01*
X132349460Y-93044904D01*
X132349458Y-93044904D01*
X132349455Y-93044906D01*
X132169510Y-93136592D01*
X132006120Y-93255302D01*
X132006117Y-93255304D01*
X131863304Y-93398117D01*
X131863302Y-93398120D01*
X131744592Y-93561510D01*
X131678609Y-93691011D01*
X131632318Y-93740025D01*
X131566876Y-93756231D01*
X131503061Y-93734484D01*
X131465391Y-93691011D01*
X131399407Y-93561510D01*
X131280697Y-93398120D01*
X131280695Y-93398117D01*
X131137882Y-93255304D01*
X131137879Y-93255302D01*
X131028152Y-93175581D01*
X130974491Y-93136594D01*
X130974490Y-93136593D01*
X130974488Y-93136592D01*
X130974489Y-93136592D01*
X130794544Y-93044906D01*
X130794543Y-93044905D01*
X130794540Y-93044904D01*
X130739021Y-93026865D01*
X130602459Y-92982493D01*
X130434575Y-92955903D01*
X130402982Y-92950900D01*
X130201018Y-92950900D01*
X130001540Y-92982493D01*
X129809466Y-93044902D01*
X129809460Y-93044904D01*
X129809458Y-93044904D01*
X129809455Y-93044906D01*
X129629510Y-93136592D01*
X129466120Y-93255302D01*
X129466117Y-93255304D01*
X129323304Y-93398117D01*
X129323302Y-93398120D01*
X129204592Y-93561510D01*
X129138609Y-93691011D01*
X129092318Y-93740025D01*
X129026876Y-93756231D01*
X128963061Y-93734484D01*
X128925391Y-93691011D01*
X128859407Y-93561510D01*
X128740697Y-93398120D01*
X128740695Y-93398117D01*
X128597882Y-93255304D01*
X128597879Y-93255302D01*
X128488152Y-93175581D01*
X128434491Y-93136594D01*
X128434490Y-93136593D01*
X128434488Y-93136592D01*
X128434489Y-93136592D01*
X128254544Y-93044906D01*
X128254543Y-93044905D01*
X128254540Y-93044904D01*
X128199021Y-93026865D01*
X128062459Y-92982493D01*
X127894575Y-92955903D01*
X127862982Y-92950900D01*
X127661018Y-92950900D01*
X127461540Y-92982493D01*
X127269466Y-93044902D01*
X127269460Y-93044904D01*
X127269458Y-93044904D01*
X127269455Y-93044906D01*
X127089510Y-93136592D01*
X126926120Y-93255302D01*
X126926117Y-93255304D01*
X126783304Y-93398117D01*
X126783302Y-93398120D01*
X126664592Y-93561510D01*
X126598609Y-93691011D01*
X126552318Y-93740025D01*
X126486876Y-93756231D01*
X126423061Y-93734484D01*
X126385391Y-93691011D01*
X126319407Y-93561510D01*
X126200697Y-93398120D01*
X126200695Y-93398117D01*
X126057882Y-93255304D01*
X126057879Y-93255302D01*
X125948152Y-93175581D01*
X125894491Y-93136594D01*
X125894490Y-93136593D01*
X125894488Y-93136592D01*
X125894489Y-93136592D01*
X125714544Y-93044906D01*
X125714543Y-93044905D01*
X125714540Y-93044904D01*
X125659021Y-93026865D01*
X125522459Y-92982493D01*
X125354575Y-92955903D01*
X125322982Y-92950900D01*
X125121018Y-92950900D01*
X124921540Y-92982493D01*
X124729466Y-93044902D01*
X124729460Y-93044904D01*
X124729458Y-93044904D01*
X124729455Y-93044906D01*
X124549510Y-93136592D01*
X124386120Y-93255302D01*
X124386117Y-93255304D01*
X124243304Y-93398117D01*
X124243302Y-93398120D01*
X124124592Y-93561510D01*
X124058609Y-93691011D01*
X124012318Y-93740025D01*
X123946876Y-93756231D01*
X123883061Y-93734484D01*
X123845391Y-93691011D01*
X123779407Y-93561510D01*
X123660697Y-93398120D01*
X123660695Y-93398117D01*
X123517882Y-93255304D01*
X123517879Y-93255302D01*
X123408152Y-93175581D01*
X123354491Y-93136594D01*
X123354490Y-93136593D01*
X123354488Y-93136592D01*
X123354489Y-93136592D01*
X123174544Y-93044906D01*
X123174543Y-93044905D01*
X123174540Y-93044904D01*
X123119021Y-93026865D01*
X122982459Y-92982493D01*
X122814575Y-92955903D01*
X122782982Y-92950900D01*
X122581018Y-92950900D01*
X122381540Y-92982493D01*
X122189466Y-93044902D01*
X122189460Y-93044904D01*
X122189458Y-93044904D01*
X122189455Y-93044906D01*
X122009510Y-93136592D01*
X121846120Y-93255302D01*
X121846117Y-93255304D01*
X121703304Y-93398117D01*
X121703302Y-93398120D01*
X121584592Y-93561511D01*
X121528092Y-93672399D01*
X121481800Y-93721413D01*
X121416359Y-93737619D01*
X121352544Y-93715872D01*
X121314874Y-93672399D01*
X121253861Y-93552653D01*
X121221474Y-93508076D01*
X120542000Y-94187550D01*
X120542000Y-94181339D01*
X120514741Y-94079606D01*
X120462080Y-93988394D01*
X120387606Y-93913920D01*
X120296394Y-93861259D01*
X120194661Y-93834000D01*
X120188447Y-93834000D01*
X120867922Y-93154524D01*
X120823348Y-93122140D01*
X120823349Y-93122140D01*
X120641031Y-93029245D01*
X120641020Y-93029241D01*
X120446416Y-92966009D01*
X120284258Y-92940327D01*
X120223338Y-92911448D01*
X120187702Y-92854217D01*
X120188665Y-92786805D01*
X120225920Y-92730615D01*
X120287639Y-92703487D01*
X120302975Y-92702500D01*
X142127850Y-92702500D01*
X142192538Y-92721494D01*
X142236687Y-92772446D01*
X142247500Y-92822150D01*
X142247500Y-110885850D01*
X142228506Y-110950538D01*
X142177554Y-110994687D01*
X142127850Y-111005500D01*
X90536150Y-111005500D01*
X90471462Y-110986506D01*
X90427313Y-110935554D01*
X90416500Y-110885850D01*
X90416500Y-108875143D01*
X90918900Y-108875143D01*
X90918900Y-110072845D01*
X90926424Y-110146491D01*
X90929158Y-110173255D01*
X90983062Y-110335931D01*
X91073030Y-110481790D01*
X91073032Y-110481792D01*
X91073034Y-110481795D01*
X91194204Y-110602965D01*
X91194207Y-110602967D01*
X91194210Y-110602970D01*
X91340069Y-110692938D01*
X91502745Y-110746842D01*
X91603149Y-110757100D01*
X92800850Y-110757099D01*
X92901255Y-110746842D01*
X93063931Y-110692938D01*
X93209790Y-110602970D01*
X93330970Y-110481790D01*
X93420938Y-110335931D01*
X93460768Y-110215727D01*
X93499144Y-110160298D01*
X93561397Y-110134415D01*
X93627760Y-110146297D01*
X93671144Y-110183034D01*
X93763302Y-110309880D01*
X93763306Y-110309884D01*
X93906116Y-110452694D01*
X94069509Y-110571406D01*
X94069511Y-110571407D01*
X94069510Y-110571407D01*
X94163119Y-110619103D01*
X94249460Y-110663096D01*
X94441540Y-110725506D01*
X94641018Y-110757100D01*
X94641023Y-110757100D01*
X94842977Y-110757100D01*
X94842982Y-110757100D01*
X95042460Y-110725506D01*
X95234540Y-110663096D01*
X95414491Y-110571406D01*
X95577884Y-110452694D01*
X95720694Y-110309884D01*
X95839406Y-110146491D01*
X95905391Y-110016987D01*
X95951682Y-109967974D01*
X96017124Y-109951768D01*
X96080939Y-109973515D01*
X96118609Y-110016988D01*
X96184592Y-110146489D01*
X96303302Y-110309879D01*
X96303304Y-110309882D01*
X96303306Y-110309884D01*
X96446116Y-110452694D01*
X96609509Y-110571406D01*
X96609511Y-110571407D01*
X96609510Y-110571407D01*
X96703119Y-110619103D01*
X96789460Y-110663096D01*
X96981540Y-110725506D01*
X97181018Y-110757100D01*
X97181023Y-110757100D01*
X97382977Y-110757100D01*
X97382982Y-110757100D01*
X97582460Y-110725506D01*
X97774540Y-110663096D01*
X97954491Y-110571406D01*
X98117884Y-110452694D01*
X98260694Y-110309884D01*
X98379406Y-110146491D01*
X98445391Y-110016987D01*
X98491682Y-109967974D01*
X98557124Y-109951768D01*
X98620939Y-109973515D01*
X98658609Y-110016988D01*
X98724592Y-110146489D01*
X98843302Y-110309879D01*
X98843304Y-110309882D01*
X98843306Y-110309884D01*
X98986116Y-110452694D01*
X99149509Y-110571406D01*
X99149511Y-110571407D01*
X99149510Y-110571407D01*
X99243119Y-110619103D01*
X99329460Y-110663096D01*
X99521540Y-110725506D01*
X99721018Y-110757100D01*
X99721023Y-110757100D01*
X99922977Y-110757100D01*
X99922982Y-110757100D01*
X100122460Y-110725506D01*
X100314540Y-110663096D01*
X100494491Y-110571406D01*
X100657884Y-110452694D01*
X100800694Y-110309884D01*
X100919406Y-110146491D01*
X100985391Y-110016987D01*
X101031682Y-109967974D01*
X101097124Y-109951768D01*
X101160939Y-109973515D01*
X101198609Y-110016988D01*
X101264592Y-110146489D01*
X101383302Y-110309879D01*
X101383304Y-110309882D01*
X101383306Y-110309884D01*
X101526116Y-110452694D01*
X101689509Y-110571406D01*
X101689511Y-110571407D01*
X101689510Y-110571407D01*
X101783119Y-110619103D01*
X101869460Y-110663096D01*
X102061540Y-110725506D01*
X102261018Y-110757100D01*
X102261023Y-110757100D01*
X102462977Y-110757100D01*
X102462982Y-110757100D01*
X102662460Y-110725506D01*
X102854540Y-110663096D01*
X103034491Y-110571406D01*
X103197884Y-110452694D01*
X103340694Y-110309884D01*
X103459406Y-110146491D01*
X103525391Y-110016987D01*
X103571682Y-109967974D01*
X103637124Y-109951768D01*
X103700939Y-109973515D01*
X103738609Y-110016988D01*
X103804592Y-110146489D01*
X103923302Y-110309879D01*
X103923304Y-110309882D01*
X103923306Y-110309884D01*
X104066116Y-110452694D01*
X104229509Y-110571406D01*
X104229511Y-110571407D01*
X104229510Y-110571407D01*
X104323119Y-110619103D01*
X104409460Y-110663096D01*
X104601540Y-110725506D01*
X104801018Y-110757100D01*
X104801023Y-110757100D01*
X105002977Y-110757100D01*
X105002982Y-110757100D01*
X105202460Y-110725506D01*
X105394540Y-110663096D01*
X105574491Y-110571406D01*
X105737884Y-110452694D01*
X105880694Y-110309884D01*
X105999406Y-110146491D01*
X106065391Y-110016987D01*
X106111682Y-109967974D01*
X106177124Y-109951768D01*
X106240939Y-109973515D01*
X106278609Y-110016988D01*
X106344592Y-110146489D01*
X106463302Y-110309879D01*
X106463304Y-110309882D01*
X106463306Y-110309884D01*
X106606116Y-110452694D01*
X106769509Y-110571406D01*
X106769511Y-110571407D01*
X106769510Y-110571407D01*
X106863119Y-110619103D01*
X106949460Y-110663096D01*
X107141540Y-110725506D01*
X107341018Y-110757100D01*
X107341023Y-110757100D01*
X107542977Y-110757100D01*
X107542982Y-110757100D01*
X107742460Y-110725506D01*
X107934540Y-110663096D01*
X108114491Y-110571406D01*
X108277884Y-110452694D01*
X108420694Y-110309884D01*
X108539406Y-110146491D01*
X108605391Y-110016987D01*
X108651682Y-109967974D01*
X108717124Y-109951768D01*
X108780939Y-109973515D01*
X108818609Y-110016988D01*
X108884592Y-110146489D01*
X109003302Y-110309879D01*
X109003304Y-110309882D01*
X109003306Y-110309884D01*
X109146116Y-110452694D01*
X109309509Y-110571406D01*
X109309511Y-110571407D01*
X109309510Y-110571407D01*
X109403119Y-110619103D01*
X109489460Y-110663096D01*
X109681540Y-110725506D01*
X109881018Y-110757100D01*
X109881023Y-110757100D01*
X110082977Y-110757100D01*
X110082982Y-110757100D01*
X110282460Y-110725506D01*
X110474540Y-110663096D01*
X110654491Y-110571406D01*
X110817884Y-110452694D01*
X110960694Y-110309884D01*
X111079406Y-110146491D01*
X111145391Y-110016987D01*
X111191682Y-109967974D01*
X111257124Y-109951768D01*
X111320939Y-109973515D01*
X111358609Y-110016988D01*
X111424592Y-110146489D01*
X111543302Y-110309879D01*
X111543304Y-110309882D01*
X111543306Y-110309884D01*
X111686116Y-110452694D01*
X111849509Y-110571406D01*
X111849511Y-110571407D01*
X111849510Y-110571407D01*
X111943119Y-110619103D01*
X112029460Y-110663096D01*
X112221540Y-110725506D01*
X112421018Y-110757100D01*
X112421023Y-110757100D01*
X112622977Y-110757100D01*
X112622982Y-110757100D01*
X112822460Y-110725506D01*
X113014540Y-110663096D01*
X113194491Y-110571406D01*
X113357884Y-110452694D01*
X113500694Y-110309884D01*
X113619406Y-110146491D01*
X113685391Y-110016987D01*
X113731682Y-109967974D01*
X113797124Y-109951768D01*
X113860939Y-109973515D01*
X113898609Y-110016988D01*
X113964592Y-110146489D01*
X114083302Y-110309879D01*
X114083304Y-110309882D01*
X114083306Y-110309884D01*
X114226116Y-110452694D01*
X114389509Y-110571406D01*
X114389511Y-110571407D01*
X114389510Y-110571407D01*
X114483119Y-110619103D01*
X114569460Y-110663096D01*
X114761540Y-110725506D01*
X114961018Y-110757100D01*
X114961023Y-110757100D01*
X115162977Y-110757100D01*
X115162982Y-110757100D01*
X115362460Y-110725506D01*
X115554540Y-110663096D01*
X115734491Y-110571406D01*
X115897884Y-110452694D01*
X116040694Y-110309884D01*
X116159406Y-110146491D01*
X116225391Y-110016987D01*
X116271682Y-109967974D01*
X116337124Y-109951768D01*
X116400939Y-109973515D01*
X116438609Y-110016988D01*
X116504592Y-110146489D01*
X116623302Y-110309879D01*
X116623304Y-110309882D01*
X116623306Y-110309884D01*
X116766116Y-110452694D01*
X116929509Y-110571406D01*
X116929511Y-110571407D01*
X116929510Y-110571407D01*
X117023119Y-110619103D01*
X117109460Y-110663096D01*
X117301540Y-110725506D01*
X117501018Y-110757100D01*
X117501023Y-110757100D01*
X117702977Y-110757100D01*
X117702982Y-110757100D01*
X117902460Y-110725506D01*
X118094540Y-110663096D01*
X118274491Y-110571406D01*
X118437884Y-110452694D01*
X118580694Y-110309884D01*
X118699406Y-110146491D01*
X118765391Y-110016987D01*
X118811682Y-109967974D01*
X118877124Y-109951768D01*
X118940939Y-109973515D01*
X118978609Y-110016988D01*
X119044592Y-110146489D01*
X119163302Y-110309879D01*
X119163304Y-110309882D01*
X119163306Y-110309884D01*
X119306116Y-110452694D01*
X119469509Y-110571406D01*
X119469511Y-110571407D01*
X119469510Y-110571407D01*
X119563119Y-110619103D01*
X119649460Y-110663096D01*
X119841540Y-110725506D01*
X120041018Y-110757100D01*
X120041023Y-110757100D01*
X120242977Y-110757100D01*
X120242982Y-110757100D01*
X120442460Y-110725506D01*
X120634540Y-110663096D01*
X120814491Y-110571406D01*
X120977884Y-110452694D01*
X121120694Y-110309884D01*
X121239406Y-110146491D01*
X121305391Y-110016987D01*
X121351682Y-109967974D01*
X121417124Y-109951768D01*
X121480939Y-109973515D01*
X121518609Y-110016988D01*
X121584592Y-110146489D01*
X121703302Y-110309879D01*
X121703304Y-110309882D01*
X121703306Y-110309884D01*
X121846116Y-110452694D01*
X122009509Y-110571406D01*
X122009511Y-110571407D01*
X122009510Y-110571407D01*
X122103119Y-110619103D01*
X122189460Y-110663096D01*
X122381540Y-110725506D01*
X122581018Y-110757100D01*
X122581023Y-110757100D01*
X122782977Y-110757100D01*
X122782982Y-110757100D01*
X122982460Y-110725506D01*
X123174540Y-110663096D01*
X123354491Y-110571406D01*
X123517884Y-110452694D01*
X123660694Y-110309884D01*
X123779406Y-110146491D01*
X123845391Y-110016987D01*
X123891682Y-109967974D01*
X123957124Y-109951768D01*
X124020939Y-109973515D01*
X124058609Y-110016988D01*
X124124592Y-110146489D01*
X124243302Y-110309879D01*
X124243304Y-110309882D01*
X124243306Y-110309884D01*
X124386116Y-110452694D01*
X124549509Y-110571406D01*
X124549511Y-110571407D01*
X124549510Y-110571407D01*
X124643119Y-110619103D01*
X124729460Y-110663096D01*
X124921540Y-110725506D01*
X125121018Y-110757100D01*
X125121023Y-110757100D01*
X125322977Y-110757100D01*
X125322982Y-110757100D01*
X125522460Y-110725506D01*
X125714540Y-110663096D01*
X125894491Y-110571406D01*
X126057884Y-110452694D01*
X126200694Y-110309884D01*
X126319406Y-110146491D01*
X126385391Y-110016987D01*
X126431682Y-109967974D01*
X126497124Y-109951768D01*
X126560939Y-109973515D01*
X126598609Y-110016988D01*
X126664592Y-110146489D01*
X126783302Y-110309879D01*
X126783304Y-110309882D01*
X126783306Y-110309884D01*
X126926116Y-110452694D01*
X127089509Y-110571406D01*
X127089511Y-110571407D01*
X127089510Y-110571407D01*
X127183119Y-110619103D01*
X127269460Y-110663096D01*
X127461540Y-110725506D01*
X127661018Y-110757100D01*
X127661023Y-110757100D01*
X127862977Y-110757100D01*
X127862982Y-110757100D01*
X128062460Y-110725506D01*
X128254540Y-110663096D01*
X128434491Y-110571406D01*
X128597884Y-110452694D01*
X128740694Y-110309884D01*
X128859406Y-110146491D01*
X128925391Y-110016987D01*
X128971682Y-109967974D01*
X129037124Y-109951768D01*
X129100939Y-109973515D01*
X129138609Y-110016988D01*
X129204592Y-110146489D01*
X129323302Y-110309879D01*
X129323304Y-110309882D01*
X129323306Y-110309884D01*
X129466116Y-110452694D01*
X129629509Y-110571406D01*
X129629511Y-110571407D01*
X129629510Y-110571407D01*
X129723119Y-110619103D01*
X129809460Y-110663096D01*
X130001540Y-110725506D01*
X130201018Y-110757100D01*
X130201023Y-110757100D01*
X130402977Y-110757100D01*
X130402982Y-110757100D01*
X130602460Y-110725506D01*
X130794540Y-110663096D01*
X130974491Y-110571406D01*
X131137884Y-110452694D01*
X131280694Y-110309884D01*
X131399406Y-110146491D01*
X131465391Y-110016987D01*
X131511682Y-109967974D01*
X131577124Y-109951768D01*
X131640939Y-109973515D01*
X131678609Y-110016988D01*
X131744592Y-110146489D01*
X131863302Y-110309879D01*
X131863304Y-110309882D01*
X131863306Y-110309884D01*
X132006116Y-110452694D01*
X132169509Y-110571406D01*
X132169511Y-110571407D01*
X132169510Y-110571407D01*
X132263119Y-110619103D01*
X132349460Y-110663096D01*
X132541540Y-110725506D01*
X132741018Y-110757100D01*
X132741023Y-110757100D01*
X132942977Y-110757100D01*
X132942982Y-110757100D01*
X133142460Y-110725506D01*
X133334540Y-110663096D01*
X133514491Y-110571406D01*
X133677884Y-110452694D01*
X133820694Y-110309884D01*
X133939406Y-110146491D01*
X134005391Y-110016987D01*
X134051682Y-109967974D01*
X134117124Y-109951768D01*
X134180939Y-109973515D01*
X134218609Y-110016988D01*
X134284592Y-110146489D01*
X134403302Y-110309879D01*
X134403304Y-110309882D01*
X134403306Y-110309884D01*
X134546116Y-110452694D01*
X134709509Y-110571406D01*
X134709511Y-110571407D01*
X134709510Y-110571407D01*
X134803119Y-110619103D01*
X134889460Y-110663096D01*
X135081540Y-110725506D01*
X135281018Y-110757100D01*
X135281023Y-110757100D01*
X135482977Y-110757100D01*
X135482982Y-110757100D01*
X135682460Y-110725506D01*
X135874540Y-110663096D01*
X136054491Y-110571406D01*
X136217884Y-110452694D01*
X136360694Y-110309884D01*
X136479406Y-110146491D01*
X136545391Y-110016987D01*
X136591682Y-109967974D01*
X136657124Y-109951768D01*
X136720939Y-109973515D01*
X136758609Y-110016988D01*
X136824592Y-110146489D01*
X136943302Y-110309879D01*
X136943304Y-110309882D01*
X136943306Y-110309884D01*
X137086116Y-110452694D01*
X137249509Y-110571406D01*
X137249511Y-110571407D01*
X137249510Y-110571407D01*
X137343119Y-110619103D01*
X137429460Y-110663096D01*
X137621540Y-110725506D01*
X137821018Y-110757100D01*
X137821023Y-110757100D01*
X138022977Y-110757100D01*
X138022982Y-110757100D01*
X138222460Y-110725506D01*
X138414540Y-110663096D01*
X138594491Y-110571406D01*
X138757884Y-110452694D01*
X138900694Y-110309884D01*
X139019406Y-110146491D01*
X139085391Y-110016987D01*
X139131682Y-109967974D01*
X139197124Y-109951768D01*
X139260939Y-109973515D01*
X139298609Y-110016988D01*
X139364592Y-110146489D01*
X139483302Y-110309879D01*
X139483304Y-110309882D01*
X139483306Y-110309884D01*
X139626116Y-110452694D01*
X139789509Y-110571406D01*
X139789511Y-110571407D01*
X139789510Y-110571407D01*
X139883119Y-110619103D01*
X139969460Y-110663096D01*
X140161540Y-110725506D01*
X140361018Y-110757100D01*
X140361023Y-110757100D01*
X140562977Y-110757100D01*
X140562982Y-110757100D01*
X140762460Y-110725506D01*
X140954540Y-110663096D01*
X141134491Y-110571406D01*
X141297884Y-110452694D01*
X141440694Y-110309884D01*
X141559406Y-110146491D01*
X141651096Y-109966540D01*
X141713506Y-109774460D01*
X141745100Y-109574982D01*
X141745100Y-109373018D01*
X141713506Y-109173540D01*
X141651096Y-108981460D01*
X141607103Y-108895119D01*
X141559407Y-108801510D01*
X141440697Y-108638120D01*
X141440695Y-108638117D01*
X141297882Y-108495304D01*
X141297879Y-108495302D01*
X141134488Y-108376592D01*
X141134489Y-108376592D01*
X140954544Y-108284906D01*
X140954543Y-108284905D01*
X140954540Y-108284904D01*
X140862689Y-108255060D01*
X140762459Y-108222493D01*
X140594575Y-108195903D01*
X140562982Y-108190900D01*
X140361018Y-108190900D01*
X140161541Y-108222493D01*
X140125180Y-108234307D01*
X140057789Y-108236230D01*
X140003604Y-108205117D01*
X138900094Y-107101607D01*
X138872477Y-107085662D01*
X138769408Y-107026156D01*
X138732968Y-107016392D01*
X138623653Y-106987100D01*
X138623650Y-106987100D01*
X124538295Y-106987100D01*
X124473607Y-106968106D01*
X124453690Y-106952055D01*
X124144686Y-106643051D01*
X124112375Y-106583879D01*
X124117185Y-106516633D01*
X124157587Y-106462661D01*
X124162817Y-106458961D01*
X124273396Y-106385074D01*
X124382474Y-106275996D01*
X124468173Y-106147738D01*
X124468175Y-106147735D01*
X124527203Y-106005230D01*
X124527203Y-106005228D01*
X124527206Y-106005222D01*
X124557300Y-105853929D01*
X124557300Y-105699671D01*
X124527206Y-105548378D01*
X124527204Y-105548373D01*
X124527203Y-105548369D01*
X124468175Y-105405864D01*
X124468173Y-105405861D01*
X124433432Y-105353867D01*
X124392942Y-105293270D01*
X125150100Y-105293270D01*
X125150100Y-105447529D01*
X125180194Y-105598822D01*
X125180196Y-105598830D01*
X125239224Y-105741335D01*
X125239226Y-105741338D01*
X125324925Y-105869596D01*
X125434003Y-105978674D01*
X125562261Y-106064373D01*
X125562264Y-106064375D01*
X125704769Y-106123403D01*
X125704773Y-106123404D01*
X125704778Y-106123406D01*
X125856071Y-106153500D01*
X126010329Y-106153500D01*
X126161622Y-106123406D01*
X126161628Y-106123403D01*
X126161630Y-106123403D01*
X126304135Y-106064375D01*
X126304138Y-106064373D01*
X126432396Y-105978674D01*
X126541474Y-105869596D01*
X126627173Y-105741338D01*
X126627175Y-105741335D01*
X126686203Y-105598830D01*
X126686203Y-105598828D01*
X126686206Y-105598822D01*
X126716300Y-105447529D01*
X126716300Y-105293271D01*
X126713183Y-105277603D01*
X126701064Y-105216674D01*
X126686206Y-105141978D01*
X126686204Y-105141973D01*
X126686203Y-105141969D01*
X126627175Y-104999464D01*
X126627173Y-104999461D01*
X126541474Y-104871203D01*
X126432396Y-104762125D01*
X126304138Y-104676426D01*
X126304135Y-104676424D01*
X126161630Y-104617396D01*
X126161622Y-104617394D01*
X126010329Y-104587300D01*
X125856071Y-104587300D01*
X125704777Y-104617394D01*
X125704769Y-104617396D01*
X125562264Y-104676424D01*
X125562261Y-104676426D01*
X125434003Y-104762125D01*
X125324925Y-104871203D01*
X125239226Y-104999461D01*
X125239224Y-104999464D01*
X125180196Y-105141969D01*
X125180194Y-105141977D01*
X125150100Y-105293270D01*
X124392942Y-105293270D01*
X124382474Y-105277603D01*
X124273396Y-105168525D01*
X124145138Y-105082826D01*
X124145135Y-105082824D01*
X124002630Y-105023796D01*
X124002622Y-105023794D01*
X123851329Y-104993700D01*
X123697071Y-104993700D01*
X123545777Y-105023794D01*
X123545769Y-105023796D01*
X123403264Y-105082824D01*
X123403261Y-105082826D01*
X123275003Y-105168525D01*
X123165925Y-105277603D01*
X123080226Y-105405861D01*
X123080224Y-105405864D01*
X123021196Y-105548369D01*
X123021193Y-105548378D01*
X123014369Y-105582691D01*
X122983120Y-105642430D01*
X122924535Y-105675792D01*
X122897018Y-105678999D01*
X117136846Y-105678999D01*
X116991092Y-105718055D01*
X116860407Y-105793505D01*
X116827033Y-105826880D01*
X116793656Y-105860256D01*
X116734487Y-105892565D01*
X116714713Y-105894691D01*
X116714717Y-105894724D01*
X116711068Y-105895083D01*
X116709053Y-105895300D01*
X116708870Y-105895300D01*
X116557576Y-105925394D01*
X116557567Y-105925396D01*
X116443308Y-105972724D01*
X116443299Y-105972729D01*
X116415062Y-105984426D01*
X116286802Y-106070127D01*
X116273175Y-106083753D01*
X116273170Y-106083757D01*
X116177722Y-106179206D01*
X116092025Y-106307461D01*
X116092023Y-106307464D01*
X116032995Y-106449969D01*
X116032993Y-106449977D01*
X116002899Y-106601270D01*
X116002899Y-106755529D01*
X116032993Y-106906822D01*
X116032995Y-106906830D01*
X116092023Y-107049335D01*
X116092025Y-107049338D01*
X116177724Y-107177596D01*
X116286802Y-107286674D01*
X116415060Y-107372373D01*
X116415063Y-107372375D01*
X116557568Y-107431403D01*
X116557572Y-107431404D01*
X116557577Y-107431406D01*
X116708870Y-107461500D01*
X116863127Y-107461500D01*
X116863128Y-107461500D01*
X116929587Y-107448280D01*
X116996733Y-107454288D01*
X117049975Y-107495647D01*
X117063469Y-107519843D01*
X117111224Y-107635135D01*
X117111226Y-107635138D01*
X117196925Y-107763396D01*
X117306003Y-107872474D01*
X117434260Y-107958172D01*
X117434263Y-107958174D01*
X117467212Y-107971822D01*
X117519706Y-108014124D01*
X117540998Y-108078092D01*
X117524325Y-108143417D01*
X117474983Y-108189357D01*
X117440142Y-108200541D01*
X117301539Y-108222493D01*
X117124473Y-108280026D01*
X117109460Y-108284904D01*
X117109458Y-108284904D01*
X117109455Y-108284906D01*
X116929510Y-108376592D01*
X116766120Y-108495302D01*
X116766117Y-108495304D01*
X116623304Y-108638117D01*
X116623302Y-108638120D01*
X116504592Y-108801510D01*
X116438609Y-108931011D01*
X116392318Y-108980025D01*
X116326876Y-108996231D01*
X116263061Y-108974484D01*
X116225391Y-108931011D01*
X116159407Y-108801510D01*
X116040697Y-108638120D01*
X116040695Y-108638117D01*
X115897882Y-108495304D01*
X115897879Y-108495302D01*
X115734488Y-108376592D01*
X115734489Y-108376592D01*
X115554544Y-108284906D01*
X115554543Y-108284905D01*
X115554540Y-108284904D01*
X115462689Y-108255060D01*
X115362459Y-108222493D01*
X115194575Y-108195903D01*
X115162982Y-108190900D01*
X114961018Y-108190900D01*
X114761540Y-108222493D01*
X114584473Y-108280026D01*
X114569460Y-108284904D01*
X114569458Y-108284904D01*
X114569455Y-108284906D01*
X114389510Y-108376592D01*
X114226120Y-108495302D01*
X114226117Y-108495304D01*
X114083304Y-108638117D01*
X114083302Y-108638120D01*
X113964592Y-108801510D01*
X113898609Y-108931011D01*
X113852318Y-108980025D01*
X113786876Y-108996231D01*
X113723061Y-108974484D01*
X113685391Y-108931011D01*
X113619407Y-108801510D01*
X113500697Y-108638120D01*
X113500695Y-108638117D01*
X113357882Y-108495304D01*
X113357879Y-108495302D01*
X113194488Y-108376592D01*
X113194489Y-108376592D01*
X113014544Y-108284906D01*
X113014543Y-108284905D01*
X113014540Y-108284904D01*
X112922689Y-108255060D01*
X112822459Y-108222493D01*
X112654575Y-108195903D01*
X112622982Y-108190900D01*
X112421018Y-108190900D01*
X112221540Y-108222493D01*
X112044473Y-108280026D01*
X112029460Y-108284904D01*
X112029458Y-108284904D01*
X112029455Y-108284906D01*
X111849510Y-108376592D01*
X111686120Y-108495302D01*
X111686117Y-108495304D01*
X111543304Y-108638117D01*
X111543302Y-108638120D01*
X111424592Y-108801510D01*
X111358609Y-108931011D01*
X111312318Y-108980025D01*
X111246876Y-108996231D01*
X111183061Y-108974484D01*
X111145391Y-108931011D01*
X111079407Y-108801510D01*
X110960697Y-108638120D01*
X110960695Y-108638117D01*
X110817882Y-108495304D01*
X110817879Y-108495302D01*
X110654488Y-108376592D01*
X110654489Y-108376592D01*
X110474544Y-108284906D01*
X110474543Y-108284905D01*
X110474540Y-108284904D01*
X110382689Y-108255060D01*
X110282459Y-108222493D01*
X110114575Y-108195903D01*
X110082982Y-108190900D01*
X109881018Y-108190900D01*
X109681540Y-108222493D01*
X109504473Y-108280026D01*
X109489460Y-108284904D01*
X109489458Y-108284904D01*
X109489455Y-108284906D01*
X109309510Y-108376592D01*
X109146120Y-108495302D01*
X109146117Y-108495304D01*
X109003304Y-108638117D01*
X109003302Y-108638120D01*
X108884592Y-108801510D01*
X108818609Y-108931011D01*
X108772318Y-108980025D01*
X108706876Y-108996231D01*
X108643061Y-108974484D01*
X108605391Y-108931011D01*
X108539407Y-108801510D01*
X108420697Y-108638120D01*
X108420695Y-108638117D01*
X108277882Y-108495304D01*
X108277879Y-108495302D01*
X108114488Y-108376592D01*
X108114489Y-108376592D01*
X107934544Y-108284906D01*
X107934543Y-108284905D01*
X107934540Y-108284904D01*
X107842689Y-108255060D01*
X107742459Y-108222493D01*
X107574575Y-108195903D01*
X107542982Y-108190900D01*
X107341018Y-108190900D01*
X107141540Y-108222493D01*
X106964473Y-108280026D01*
X106949460Y-108284904D01*
X106949458Y-108284904D01*
X106949455Y-108284906D01*
X106769510Y-108376592D01*
X106606120Y-108495302D01*
X106606117Y-108495304D01*
X106463304Y-108638117D01*
X106463302Y-108638120D01*
X106344592Y-108801510D01*
X106278609Y-108931011D01*
X106232318Y-108980025D01*
X106166876Y-108996231D01*
X106103061Y-108974484D01*
X106065391Y-108931011D01*
X105999407Y-108801510D01*
X105880697Y-108638120D01*
X105880695Y-108638117D01*
X105737882Y-108495304D01*
X105737879Y-108495302D01*
X105574488Y-108376592D01*
X105574489Y-108376592D01*
X105394544Y-108284906D01*
X105394543Y-108284905D01*
X105394540Y-108284904D01*
X105302689Y-108255060D01*
X105202459Y-108222493D01*
X105034575Y-108195903D01*
X105002982Y-108190900D01*
X104801018Y-108190900D01*
X104601540Y-108222493D01*
X104424473Y-108280026D01*
X104409460Y-108284904D01*
X104409458Y-108284904D01*
X104409455Y-108284906D01*
X104229510Y-108376592D01*
X104066120Y-108495302D01*
X104066117Y-108495304D01*
X103923304Y-108638117D01*
X103923302Y-108638120D01*
X103804592Y-108801510D01*
X103738609Y-108931011D01*
X103692318Y-108980025D01*
X103626876Y-108996231D01*
X103563061Y-108974484D01*
X103525391Y-108931011D01*
X103459407Y-108801510D01*
X103340697Y-108638120D01*
X103340695Y-108638117D01*
X103197882Y-108495304D01*
X103197879Y-108495302D01*
X103034488Y-108376592D01*
X103034489Y-108376592D01*
X102854544Y-108284906D01*
X102854543Y-108284905D01*
X102854540Y-108284904D01*
X102762689Y-108255060D01*
X102662459Y-108222493D01*
X102494575Y-108195903D01*
X102462982Y-108190900D01*
X102261018Y-108190900D01*
X102061540Y-108222493D01*
X101884473Y-108280026D01*
X101869460Y-108284904D01*
X101869458Y-108284904D01*
X101869455Y-108284906D01*
X101689510Y-108376592D01*
X101526120Y-108495302D01*
X101526117Y-108495304D01*
X101383304Y-108638117D01*
X101383302Y-108638120D01*
X101264592Y-108801510D01*
X101198609Y-108931011D01*
X101152318Y-108980025D01*
X101086876Y-108996231D01*
X101023061Y-108974484D01*
X100985391Y-108931011D01*
X100919407Y-108801510D01*
X100800697Y-108638120D01*
X100800695Y-108638117D01*
X100657882Y-108495304D01*
X100657879Y-108495302D01*
X100494488Y-108376592D01*
X100494489Y-108376592D01*
X100314544Y-108284906D01*
X100314543Y-108284905D01*
X100314540Y-108284904D01*
X100222689Y-108255060D01*
X100122459Y-108222493D01*
X99954575Y-108195903D01*
X99922982Y-108190900D01*
X99721018Y-108190900D01*
X99521540Y-108222493D01*
X99344473Y-108280026D01*
X99329460Y-108284904D01*
X99329458Y-108284904D01*
X99329455Y-108284906D01*
X99149510Y-108376592D01*
X98986120Y-108495302D01*
X98986117Y-108495304D01*
X98843304Y-108638117D01*
X98843302Y-108638120D01*
X98724592Y-108801510D01*
X98658609Y-108931011D01*
X98612318Y-108980025D01*
X98546876Y-108996231D01*
X98483061Y-108974484D01*
X98445391Y-108931011D01*
X98379407Y-108801510D01*
X98260697Y-108638120D01*
X98260695Y-108638117D01*
X98117882Y-108495304D01*
X98117879Y-108495302D01*
X97954488Y-108376592D01*
X97954489Y-108376592D01*
X97774544Y-108284906D01*
X97774543Y-108284905D01*
X97774540Y-108284904D01*
X97682689Y-108255060D01*
X97582459Y-108222493D01*
X97414575Y-108195903D01*
X97382982Y-108190900D01*
X97181018Y-108190900D01*
X96981540Y-108222493D01*
X96804473Y-108280026D01*
X96789460Y-108284904D01*
X96789458Y-108284904D01*
X96789455Y-108284906D01*
X96609510Y-108376592D01*
X96446120Y-108495302D01*
X96446117Y-108495304D01*
X96303304Y-108638117D01*
X96303302Y-108638120D01*
X96184592Y-108801510D01*
X96118609Y-108931011D01*
X96072318Y-108980025D01*
X96006876Y-108996231D01*
X95943061Y-108974484D01*
X95905391Y-108931011D01*
X95839407Y-108801510D01*
X95720697Y-108638120D01*
X95720695Y-108638117D01*
X95577882Y-108495304D01*
X95577879Y-108495302D01*
X95414488Y-108376592D01*
X95414489Y-108376592D01*
X95234544Y-108284906D01*
X95234543Y-108284905D01*
X95234540Y-108284904D01*
X95142689Y-108255060D01*
X95042459Y-108222493D01*
X94874575Y-108195903D01*
X94842982Y-108190900D01*
X94641018Y-108190900D01*
X94441540Y-108222493D01*
X94264473Y-108280026D01*
X94249460Y-108284904D01*
X94249458Y-108284904D01*
X94249455Y-108284906D01*
X94069510Y-108376592D01*
X93906120Y-108495302D01*
X93906117Y-108495304D01*
X93763305Y-108638116D01*
X93671144Y-108764966D01*
X93617755Y-108806135D01*
X93550584Y-108811904D01*
X93490956Y-108780442D01*
X93460768Y-108732272D01*
X93420938Y-108612069D01*
X93330970Y-108466210D01*
X93330967Y-108466207D01*
X93330965Y-108466204D01*
X93209795Y-108345034D01*
X93209792Y-108345032D01*
X93209790Y-108345030D01*
X93063931Y-108255062D01*
X93025411Y-108242298D01*
X92901262Y-108201160D01*
X92901251Y-108201157D01*
X92800854Y-108190900D01*
X91603154Y-108190900D01*
X91502743Y-108201158D01*
X91340074Y-108255060D01*
X91340069Y-108255062D01*
X91211052Y-108334642D01*
X91194207Y-108345032D01*
X91194204Y-108345034D01*
X91073034Y-108466204D01*
X91073032Y-108466207D01*
X91073030Y-108466209D01*
X91073030Y-108466210D01*
X91055083Y-108495306D01*
X90983062Y-108612069D01*
X90983060Y-108612074D01*
X90929160Y-108774737D01*
X90929157Y-108774748D01*
X90918900Y-108875143D01*
X90416500Y-108875143D01*
X90416500Y-103961270D01*
X107014500Y-103961270D01*
X107014500Y-104115529D01*
X107044594Y-104266822D01*
X107044596Y-104266830D01*
X107103624Y-104409335D01*
X107103626Y-104409338D01*
X107189325Y-104537596D01*
X107298403Y-104646674D01*
X107426661Y-104732373D01*
X107426664Y-104732375D01*
X107569169Y-104791403D01*
X107569173Y-104791404D01*
X107569178Y-104791406D01*
X107720471Y-104821500D01*
X107874729Y-104821500D01*
X108026022Y-104791406D01*
X108026028Y-104791403D01*
X108026030Y-104791403D01*
X108168535Y-104732375D01*
X108168535Y-104732374D01*
X108168537Y-104732374D01*
X108220116Y-104697908D01*
X108284454Y-104677762D01*
X108349471Y-104695597D01*
X108353066Y-104697908D01*
X108442661Y-104757773D01*
X108442664Y-104757775D01*
X108585169Y-104816803D01*
X108585173Y-104816804D01*
X108585178Y-104816806D01*
X108736471Y-104846900D01*
X108890729Y-104846900D01*
X109042022Y-104816806D01*
X109042028Y-104816803D01*
X109042030Y-104816803D01*
X109184535Y-104757775D01*
X109184535Y-104757774D01*
X109184537Y-104757774D01*
X109267739Y-104702179D01*
X109332076Y-104682033D01*
X109397092Y-104699869D01*
X109400691Y-104702182D01*
X109407861Y-104706973D01*
X109407864Y-104706975D01*
X109550369Y-104766003D01*
X109550373Y-104766004D01*
X109550378Y-104766006D01*
X109701671Y-104796100D01*
X109855929Y-104796100D01*
X110007222Y-104766006D01*
X110007228Y-104766003D01*
X110007230Y-104766003D01*
X110149735Y-104706975D01*
X110149735Y-104706974D01*
X110149737Y-104706974D01*
X110175917Y-104689480D01*
X110240254Y-104669334D01*
X110305270Y-104687169D01*
X110308866Y-104689479D01*
X110373066Y-104732376D01*
X110515569Y-104791403D01*
X110515573Y-104791404D01*
X110515578Y-104791406D01*
X110666871Y-104821500D01*
X110821129Y-104821500D01*
X110972422Y-104791406D01*
X110972428Y-104791403D01*
X110972430Y-104791403D01*
X111114932Y-104732376D01*
X111114937Y-104732374D01*
X111229934Y-104655535D01*
X111294269Y-104635390D01*
X111359286Y-104653226D01*
X111362880Y-104655536D01*
X111387630Y-104672073D01*
X111438993Y-104706393D01*
X111439862Y-104706973D01*
X111439864Y-104706975D01*
X111582369Y-104766003D01*
X111582373Y-104766004D01*
X111582378Y-104766006D01*
X111733671Y-104796100D01*
X111887929Y-104796100D01*
X112039222Y-104766006D01*
X112039228Y-104766003D01*
X112039230Y-104766003D01*
X112120419Y-104732373D01*
X112181737Y-104706974D01*
X112188910Y-104702180D01*
X112253247Y-104682034D01*
X112318264Y-104699869D01*
X112321860Y-104702180D01*
X112405061Y-104757773D01*
X112405064Y-104757775D01*
X112547569Y-104816803D01*
X112547573Y-104816804D01*
X112547578Y-104816806D01*
X112698871Y-104846900D01*
X112853129Y-104846900D01*
X113004422Y-104816806D01*
X113004428Y-104816803D01*
X113004430Y-104816803D01*
X113127063Y-104766006D01*
X113146937Y-104757774D01*
X113223833Y-104706393D01*
X113288169Y-104686248D01*
X113353186Y-104704084D01*
X113356780Y-104706393D01*
X113395666Y-104732376D01*
X113538169Y-104791403D01*
X113538173Y-104791404D01*
X113538178Y-104791406D01*
X113689471Y-104821500D01*
X113843728Y-104821500D01*
X113843729Y-104821500D01*
X113913275Y-104807666D01*
X113980424Y-104813675D01*
X114033666Y-104855034D01*
X114047159Y-104879229D01*
X114088624Y-104979335D01*
X114088626Y-104979338D01*
X114174325Y-105107596D01*
X114283403Y-105216674D01*
X114411661Y-105302373D01*
X114411664Y-105302375D01*
X114554169Y-105361403D01*
X114554173Y-105361404D01*
X114554178Y-105361406D01*
X114705471Y-105391500D01*
X114859728Y-105391500D01*
X114859729Y-105391500D01*
X114929275Y-105377666D01*
X114996424Y-105383675D01*
X115049666Y-105425034D01*
X115063159Y-105449229D01*
X115104624Y-105549335D01*
X115104626Y-105549338D01*
X115190325Y-105677596D01*
X115299403Y-105786674D01*
X115427661Y-105872373D01*
X115427664Y-105872375D01*
X115570169Y-105931403D01*
X115570173Y-105931404D01*
X115570178Y-105931406D01*
X115721471Y-105961500D01*
X115875729Y-105961500D01*
X116027022Y-105931406D01*
X116169537Y-105872374D01*
X116297797Y-105786673D01*
X116406873Y-105677597D01*
X116492574Y-105549337D01*
X116492975Y-105548369D01*
X116551603Y-105406830D01*
X116551603Y-105406828D01*
X116551606Y-105406822D01*
X116581700Y-105255529D01*
X116581700Y-105101271D01*
X116551606Y-104949978D01*
X116551604Y-104949973D01*
X116551603Y-104949969D01*
X116492575Y-104807464D01*
X116492573Y-104807461D01*
X116406874Y-104679203D01*
X116297796Y-104570125D01*
X116169538Y-104484426D01*
X116169535Y-104484424D01*
X116027030Y-104425396D01*
X116027022Y-104425394D01*
X115875729Y-104395300D01*
X115721471Y-104395300D01*
X115721469Y-104395300D01*
X115651924Y-104409133D01*
X115584774Y-104403124D01*
X115531532Y-104361764D01*
X115518040Y-104337570D01*
X115476574Y-104237463D01*
X115476573Y-104237461D01*
X115390874Y-104109203D01*
X115281796Y-104000125D01*
X115153538Y-103914426D01*
X115153535Y-103914424D01*
X115011030Y-103855396D01*
X115011022Y-103855394D01*
X114859729Y-103825300D01*
X114705471Y-103825300D01*
X114705469Y-103825300D01*
X114635924Y-103839133D01*
X114568774Y-103833124D01*
X114515532Y-103791764D01*
X114502040Y-103767570D01*
X114460574Y-103667463D01*
X114460573Y-103667461D01*
X114374874Y-103539203D01*
X114265796Y-103430125D01*
X114137538Y-103344426D01*
X114137535Y-103344424D01*
X113995030Y-103285396D01*
X113995022Y-103285394D01*
X113843729Y-103255300D01*
X113689471Y-103255300D01*
X113538177Y-103285394D01*
X113538169Y-103285396D01*
X113395664Y-103344424D01*
X113318766Y-103395806D01*
X113254428Y-103415951D01*
X113189412Y-103398114D01*
X113185820Y-103395806D01*
X113146936Y-103369825D01*
X113146935Y-103369824D01*
X113004430Y-103310796D01*
X113004422Y-103310794D01*
X112853129Y-103280700D01*
X112698871Y-103280700D01*
X112547577Y-103310794D01*
X112547569Y-103310796D01*
X112405067Y-103369823D01*
X112405062Y-103369826D01*
X112397881Y-103374624D01*
X112333541Y-103394765D01*
X112268526Y-103376924D01*
X112264941Y-103374620D01*
X112181735Y-103319024D01*
X112039230Y-103259996D01*
X112039222Y-103259994D01*
X111887929Y-103229900D01*
X111733671Y-103229900D01*
X111582377Y-103259994D01*
X111582369Y-103259996D01*
X111439864Y-103319024D01*
X111439861Y-103319026D01*
X111324867Y-103395863D01*
X111260528Y-103416009D01*
X111195512Y-103398172D01*
X111191919Y-103395863D01*
X111114938Y-103344426D01*
X111114935Y-103344424D01*
X110972430Y-103285396D01*
X110972422Y-103285394D01*
X110821129Y-103255300D01*
X110666871Y-103255300D01*
X110515577Y-103285394D01*
X110515569Y-103285396D01*
X110373067Y-103344423D01*
X110373062Y-103344426D01*
X110346878Y-103361921D01*
X110282539Y-103382065D01*
X110217523Y-103364227D01*
X110213934Y-103361920D01*
X110149736Y-103319025D01*
X110149735Y-103319024D01*
X110007230Y-103259996D01*
X110007222Y-103259994D01*
X109855929Y-103229900D01*
X109701671Y-103229900D01*
X109550377Y-103259994D01*
X109550369Y-103259996D01*
X109407864Y-103319024D01*
X109324659Y-103374620D01*
X109260321Y-103394765D01*
X109195305Y-103376928D01*
X109191715Y-103374622D01*
X109190236Y-103373634D01*
X109184537Y-103369826D01*
X109184534Y-103369824D01*
X109184533Y-103369824D01*
X109042030Y-103310796D01*
X109042022Y-103310794D01*
X108890729Y-103280700D01*
X108736471Y-103280700D01*
X108585177Y-103310794D01*
X108585169Y-103310796D01*
X108442666Y-103369823D01*
X108391081Y-103404292D01*
X108326742Y-103424437D01*
X108261726Y-103406600D01*
X108258133Y-103404292D01*
X108168533Y-103344423D01*
X108026030Y-103285396D01*
X108026022Y-103285394D01*
X107874729Y-103255300D01*
X107720471Y-103255300D01*
X107569177Y-103285394D01*
X107569169Y-103285396D01*
X107426664Y-103344424D01*
X107426661Y-103344426D01*
X107298403Y-103430125D01*
X107189325Y-103539203D01*
X107103626Y-103667461D01*
X107103624Y-103667464D01*
X107044596Y-103809969D01*
X107044594Y-103809977D01*
X107014500Y-103961270D01*
X90416500Y-103961270D01*
X90416500Y-98424070D01*
X111129300Y-98424070D01*
X111129300Y-98578329D01*
X111159394Y-98729622D01*
X111159396Y-98729630D01*
X111218424Y-98872135D01*
X111218426Y-98872138D01*
X111304125Y-99000396D01*
X111413203Y-99109474D01*
X111541461Y-99195173D01*
X111541464Y-99195175D01*
X111683969Y-99254203D01*
X111683973Y-99254204D01*
X111683978Y-99254206D01*
X111835271Y-99284300D01*
X111989529Y-99284300D01*
X112140822Y-99254206D01*
X112140828Y-99254203D01*
X112140830Y-99254203D01*
X112283335Y-99195175D01*
X112283338Y-99195173D01*
X112411596Y-99109474D01*
X112520674Y-99000396D01*
X112606373Y-98872138D01*
X112606375Y-98872135D01*
X112665403Y-98729630D01*
X112665403Y-98729628D01*
X112665406Y-98729622D01*
X112695500Y-98578329D01*
X112695500Y-98424071D01*
X112665406Y-98272778D01*
X112665404Y-98272773D01*
X112665403Y-98272769D01*
X112606375Y-98130264D01*
X112606373Y-98130261D01*
X112520674Y-98002003D01*
X112411596Y-97892925D01*
X112370207Y-97865270D01*
X117987300Y-97865270D01*
X117987300Y-98019529D01*
X118017394Y-98170822D01*
X118017396Y-98170830D01*
X118076424Y-98313335D01*
X118076426Y-98313338D01*
X118162125Y-98441596D01*
X118271203Y-98550674D01*
X118399461Y-98636373D01*
X118399464Y-98636375D01*
X118498736Y-98677495D01*
X118551231Y-98719798D01*
X118572522Y-98783767D01*
X118572023Y-98799757D01*
X118571500Y-98805070D01*
X118571500Y-98959329D01*
X118601594Y-99110622D01*
X118601596Y-99110630D01*
X118660624Y-99253135D01*
X118660626Y-99253138D01*
X118746325Y-99381396D01*
X118855403Y-99490474D01*
X118983661Y-99576173D01*
X118983664Y-99576175D01*
X119126169Y-99635203D01*
X119126173Y-99635204D01*
X119126178Y-99635206D01*
X119277471Y-99665300D01*
X119371508Y-99665300D01*
X119436196Y-99684294D01*
X119480345Y-99735246D01*
X119488859Y-99761607D01*
X119515994Y-99898022D01*
X119515996Y-99898030D01*
X119575024Y-100040535D01*
X119575026Y-100040538D01*
X119660725Y-100168796D01*
X119769803Y-100277874D01*
X119898061Y-100363573D01*
X119898064Y-100363575D01*
X120040569Y-100422603D01*
X120040573Y-100422604D01*
X120040578Y-100422606D01*
X120191871Y-100452700D01*
X120346129Y-100452700D01*
X120497422Y-100422606D01*
X120497428Y-100422603D01*
X120497430Y-100422603D01*
X120639935Y-100363575D01*
X120639938Y-100363573D01*
X120768196Y-100277874D01*
X120877274Y-100168796D01*
X120962973Y-100040538D01*
X120962975Y-100040535D01*
X121022003Y-99898030D01*
X121022003Y-99898028D01*
X121022006Y-99898022D01*
X121052100Y-99746729D01*
X121052100Y-99592471D01*
X121022006Y-99441178D01*
X121022004Y-99441173D01*
X121022003Y-99441169D01*
X120962976Y-99298667D01*
X120962975Y-99298665D01*
X120954955Y-99286662D01*
X120934810Y-99222324D01*
X120943898Y-99174404D01*
X120966433Y-99120001D01*
X120996527Y-98968708D01*
X120996527Y-98814450D01*
X120994661Y-98805071D01*
X120979655Y-98729630D01*
X120966433Y-98663157D01*
X120966431Y-98663152D01*
X120966430Y-98663148D01*
X120907402Y-98520643D01*
X120907400Y-98520640D01*
X120821701Y-98392382D01*
X120712623Y-98283304D01*
X120584365Y-98197605D01*
X120584362Y-98197603D01*
X120441857Y-98138575D01*
X120441849Y-98138573D01*
X120290556Y-98108479D01*
X120136298Y-98108479D01*
X119985004Y-98138573D01*
X119984996Y-98138575D01*
X119838043Y-98199446D01*
X119771011Y-98206653D01*
X119744487Y-98198605D01*
X119734677Y-98194333D01*
X119725537Y-98188226D01*
X119625271Y-98146694D01*
X119624283Y-98146264D01*
X119599209Y-98125304D01*
X119573768Y-98104802D01*
X119573414Y-98103741D01*
X119572557Y-98103024D01*
X119562801Y-98071853D01*
X119552477Y-98040834D01*
X119552532Y-98039043D01*
X119552420Y-98038683D01*
X119552560Y-98038172D01*
X119552977Y-98024833D01*
X119553500Y-98019524D01*
X119553500Y-97865270D01*
X119530212Y-97748196D01*
X119523406Y-97713978D01*
X119516156Y-97696474D01*
X119502679Y-97663938D01*
X122462934Y-97663938D01*
X122462934Y-97818197D01*
X122493028Y-97969490D01*
X122493030Y-97969498D01*
X122552058Y-98112003D01*
X122552060Y-98112006D01*
X122637759Y-98240264D01*
X122746837Y-98349342D01*
X122875095Y-98435041D01*
X122875098Y-98435043D01*
X123017603Y-98494071D01*
X123017607Y-98494072D01*
X123017612Y-98494074D01*
X123168905Y-98524168D01*
X123323163Y-98524168D01*
X123474456Y-98494074D01*
X123474462Y-98494071D01*
X123474464Y-98494071D01*
X123616969Y-98435043D01*
X123616972Y-98435041D01*
X123633392Y-98424070D01*
X123745231Y-98349341D01*
X123854307Y-98240265D01*
X123882144Y-98198605D01*
X123922256Y-98138573D01*
X123940008Y-98112005D01*
X123967792Y-98044929D01*
X123999036Y-97969501D01*
X123999036Y-97969497D01*
X123999040Y-97969490D01*
X124010807Y-97910330D01*
X124021091Y-97890670D01*
X127283700Y-97890670D01*
X127283700Y-98044929D01*
X127313794Y-98196222D01*
X127313796Y-98196230D01*
X127372824Y-98338735D01*
X127372826Y-98338738D01*
X127458525Y-98466996D01*
X127567603Y-98576074D01*
X127695861Y-98661773D01*
X127695864Y-98661775D01*
X127838369Y-98720803D01*
X127838373Y-98720804D01*
X127838378Y-98720806D01*
X127989671Y-98750900D01*
X128143929Y-98750900D01*
X128295222Y-98720806D01*
X128295228Y-98720803D01*
X128295230Y-98720803D01*
X128437735Y-98661775D01*
X128437738Y-98661773D01*
X128475751Y-98636374D01*
X128565997Y-98576073D01*
X128675073Y-98466997D01*
X128692046Y-98441596D01*
X128753688Y-98349342D01*
X128760774Y-98338737D01*
X128771296Y-98313335D01*
X128819803Y-98196230D01*
X128819803Y-98196228D01*
X128819806Y-98196222D01*
X128849900Y-98044929D01*
X128849900Y-97890671D01*
X128819806Y-97739378D01*
X128819804Y-97739373D01*
X128819803Y-97739369D01*
X128760775Y-97596864D01*
X128760773Y-97596861D01*
X128675074Y-97468603D01*
X128565996Y-97359525D01*
X128437738Y-97273826D01*
X128437735Y-97273824D01*
X128295230Y-97214796D01*
X128295222Y-97214794D01*
X128143929Y-97184700D01*
X127989671Y-97184700D01*
X127838377Y-97214794D01*
X127838369Y-97214796D01*
X127695864Y-97273824D01*
X127695861Y-97273826D01*
X127567603Y-97359525D01*
X127458525Y-97468603D01*
X127372826Y-97596861D01*
X127372824Y-97596864D01*
X127313796Y-97739369D01*
X127313794Y-97739377D01*
X127283700Y-97890670D01*
X124021091Y-97890670D01*
X124042056Y-97850592D01*
X124066806Y-97830950D01*
X124074302Y-97826472D01*
X124094337Y-97818174D01*
X124222597Y-97732473D01*
X124232657Y-97722411D01*
X124291826Y-97690100D01*
X124359073Y-97694907D01*
X124363013Y-97696457D01*
X124388477Y-97707005D01*
X124539770Y-97737099D01*
X124694028Y-97737099D01*
X124845321Y-97707005D01*
X124845327Y-97707002D01*
X124845329Y-97707002D01*
X124987834Y-97647974D01*
X124987837Y-97647972D01*
X125116095Y-97562273D01*
X125225173Y-97453195D01*
X125280674Y-97370132D01*
X125310873Y-97324936D01*
X125355007Y-97218388D01*
X125397310Y-97165893D01*
X125461278Y-97144602D01*
X125526603Y-97161275D01*
X125572543Y-97210618D01*
X125576091Y-97218388D01*
X125620224Y-97324935D01*
X125620226Y-97324938D01*
X125705925Y-97453196D01*
X125815003Y-97562274D01*
X125943261Y-97647973D01*
X125943264Y-97647975D01*
X126085769Y-97707003D01*
X126085773Y-97707004D01*
X126085778Y-97707006D01*
X126237071Y-97737100D01*
X126391329Y-97737100D01*
X126542622Y-97707006D01*
X126542628Y-97707003D01*
X126542630Y-97707003D01*
X126685135Y-97647975D01*
X126685138Y-97647973D01*
X126685140Y-97647972D01*
X126799642Y-97571464D01*
X126813396Y-97562274D01*
X126922474Y-97453196D01*
X126965323Y-97389067D01*
X127008174Y-97324937D01*
X127039867Y-97248424D01*
X127067203Y-97182430D01*
X127067203Y-97182428D01*
X127067206Y-97182422D01*
X127097300Y-97031129D01*
X127097300Y-96876871D01*
X127067206Y-96725578D01*
X127067204Y-96725573D01*
X127067203Y-96725569D01*
X127008175Y-96583064D01*
X127008173Y-96583061D01*
X126922474Y-96454803D01*
X126813396Y-96345725D01*
X126685138Y-96260026D01*
X126685135Y-96260024D01*
X126542630Y-96200996D01*
X126542622Y-96200994D01*
X126391329Y-96170900D01*
X126237071Y-96170900D01*
X126085777Y-96200994D01*
X126085769Y-96200996D01*
X125943264Y-96260024D01*
X125943261Y-96260026D01*
X125815003Y-96345725D01*
X125705925Y-96454803D01*
X125620226Y-96583061D01*
X125576091Y-96689611D01*
X125533787Y-96742106D01*
X125469818Y-96763396D01*
X125404494Y-96746722D01*
X125358554Y-96697378D01*
X125355007Y-96689610D01*
X125310873Y-96583062D01*
X125310872Y-96583060D01*
X125225173Y-96454802D01*
X125116095Y-96345724D01*
X124987837Y-96260025D01*
X124987834Y-96260023D01*
X124845329Y-96200995D01*
X124845321Y-96200993D01*
X124694028Y-96170899D01*
X124539770Y-96170899D01*
X124388476Y-96200993D01*
X124388468Y-96200995D01*
X124245963Y-96260023D01*
X124245961Y-96260025D01*
X124117703Y-96345724D01*
X124117699Y-96345727D01*
X124107633Y-96355793D01*
X124048459Y-96388099D01*
X123981213Y-96383285D01*
X123977248Y-96381725D01*
X123951829Y-96371196D01*
X123951823Y-96371194D01*
X123951822Y-96371194D01*
X123800529Y-96341100D01*
X123646271Y-96341100D01*
X123494977Y-96371194D01*
X123494969Y-96371196D01*
X123352464Y-96430224D01*
X123352461Y-96430226D01*
X123224203Y-96515925D01*
X123115125Y-96625003D01*
X123029426Y-96753261D01*
X123029425Y-96753263D01*
X122970395Y-96895775D01*
X122970394Y-96895777D01*
X122958626Y-96954939D01*
X122927376Y-97014678D01*
X122887066Y-97042136D01*
X122875094Y-97047095D01*
X122746837Y-97132793D01*
X122637759Y-97241871D01*
X122552060Y-97370129D01*
X122552058Y-97370132D01*
X122493030Y-97512637D01*
X122493028Y-97512645D01*
X122462934Y-97663938D01*
X119502679Y-97663938D01*
X119464375Y-97571464D01*
X119464373Y-97571461D01*
X119378674Y-97443203D01*
X119269596Y-97334125D01*
X119141338Y-97248426D01*
X119141335Y-97248424D01*
X118998830Y-97189396D01*
X118998822Y-97189394D01*
X118847529Y-97159300D01*
X118693271Y-97159300D01*
X118541977Y-97189394D01*
X118541969Y-97189396D01*
X118399464Y-97248424D01*
X118399461Y-97248426D01*
X118271203Y-97334125D01*
X118162125Y-97443203D01*
X118076426Y-97571461D01*
X118076424Y-97571464D01*
X118017396Y-97713969D01*
X118017394Y-97713977D01*
X117987300Y-97865270D01*
X112370207Y-97865270D01*
X112283338Y-97807226D01*
X112283335Y-97807224D01*
X112140830Y-97748196D01*
X112140822Y-97748194D01*
X111989529Y-97718100D01*
X111835271Y-97718100D01*
X111683977Y-97748194D01*
X111683969Y-97748196D01*
X111541464Y-97807224D01*
X111541461Y-97807226D01*
X111413203Y-97892925D01*
X111304125Y-98002003D01*
X111218426Y-98130261D01*
X111218424Y-98130264D01*
X111159396Y-98272769D01*
X111159394Y-98272777D01*
X111129300Y-98424070D01*
X90416500Y-98424070D01*
X90416500Y-92822150D01*
X90435494Y-92757462D01*
X90486446Y-92713313D01*
X90536150Y-92702500D01*
X119981025Y-92702500D01*
X120045713Y-92721494D01*
G37*
%TD.AperFunction*%
%TD*%
M02*
