%TF.GenerationSoftware,KiCad,Pcbnew,9.0.9*%
%TF.CreationDate,2026-08-16T17:51:28-07:00*%
%TF.ProjectId,ZID_POD,5a49445f-504f-4442-9e6b-696361645f70,PR1.0*%
%TF.SameCoordinates,Original*%
%TF.FileFunction,Plated,1,4,PTH,Drill*%
%TF.FilePolarity,Positive*%
%FSLAX46Y46*%
G04 Gerber Fmt 4.6, Leading zero omitted, Abs format (unit mm)*
G04 Created by KiCad (PCBNEW 9.0.9) date 2026-08-16 17:51:28*
%MOMM*%
%LPD*%
G01*
G04 APERTURE LIST*
%TA.AperFunction,ViaDrill*%
%ADD10C,0.300000*%
%TD*%
%TA.AperFunction,ComponentDrill*%
%ADD11C,0.800000*%
%TD*%
G04 APERTURE END LIST*
D10*
X107797600Y-104038400D03*
X108813600Y-104063800D03*
X109778800Y-104013000D03*
X110744000Y-104038400D03*
X111810800Y-104013000D03*
X111912400Y-98501200D03*
X112776000Y-104063800D03*
X113766600Y-104038400D03*
X114782600Y-104608400D03*
X115798600Y-105178400D03*
X116785999Y-106678400D03*
X117805200Y-107264200D03*
X118770400Y-97942400D03*
X118770400Y-107278400D03*
X118897400Y-108974000D03*
X119354600Y-98882200D03*
X120213427Y-98891579D03*
X120269000Y-99669600D03*
X121564400Y-108432600D03*
X122136214Y-107902099D03*
X123246034Y-97741068D03*
X123723400Y-97124200D03*
X123723400Y-99466400D03*
X123774200Y-105776800D03*
X124561600Y-99517200D03*
X124616899Y-96953999D03*
X125933200Y-105370400D03*
X126314200Y-96954000D03*
X128066800Y-97967800D03*
D11*
%TO.C,Z80-SKT1*%
X92202000Y-94234000D03*
X92202000Y-109474000D03*
X94742000Y-94234000D03*
X94742000Y-109474000D03*
X97282000Y-94234000D03*
X97282000Y-109474000D03*
X99822000Y-94234000D03*
X99822000Y-109474000D03*
X102362000Y-94234000D03*
X102362000Y-109474000D03*
X104902000Y-94234000D03*
X104902000Y-109474000D03*
X107442000Y-94234000D03*
X107442000Y-109474000D03*
X109982000Y-94234000D03*
X109982000Y-109474000D03*
X112522000Y-94234000D03*
X112522000Y-109474000D03*
X115062000Y-94234000D03*
X115062000Y-109474000D03*
X117602000Y-94234000D03*
X117602000Y-109474000D03*
X120142000Y-94234000D03*
X120142000Y-109474000D03*
X122682000Y-94234000D03*
X122682000Y-109474000D03*
X125222000Y-94234000D03*
X125222000Y-109474000D03*
X127762000Y-94234000D03*
X127762000Y-109474000D03*
X130302000Y-94234000D03*
X130302000Y-109474000D03*
X132842000Y-94234000D03*
X132842000Y-109474000D03*
X135382000Y-94234000D03*
X135382000Y-109474000D03*
X137922000Y-94234000D03*
X137922000Y-109474000D03*
X140462000Y-94234000D03*
X140462000Y-109474000D03*
M02*
