%TF.GenerationSoftware,KiCad,Pcbnew,9.0.9*%
%TF.CreationDate,2026-08-16T17:48:33-07:00*%
%TF.ProjectId,ZID_POD,5a49445f-504f-4442-9e6b-696361645f70,PR1.0*%
%TF.SameCoordinates,Original*%
%TF.FileFunction,Copper,L3,Inr*%
%TF.FilePolarity,Positive*%
%FSLAX46Y46*%
G04 Gerber Fmt 4.6, Leading zero omitted, Abs format (unit mm)*
G04 Created by KiCad (PCBNEW 9.0.9) date 2026-08-16 17:48:33*
%MOMM*%
%LPD*%
G01*
G04 APERTURE LIST*
G04 Aperture macros list*
%AMRoundRect*
0 Rectangle with rounded corners*
0 $1 Rounding radius*
0 $2 $3 $4 $5 $6 $7 $8 $9 X,Y pos of 4 corners*
0 Add a 4 corners polygon primitive as box body*
4,1,4,$2,$3,$4,$5,$6,$7,$8,$9,$2,$3,0*
0 Add four circle primitives for the rounded corners*
1,1,$1+$1,$2,$3*
1,1,$1+$1,$4,$5*
1,1,$1+$1,$6,$7*
1,1,$1+$1,$8,$9*
0 Add four rect primitives between the rounded corners*
20,1,$1+$1,$2,$3,$4,$5,0*
20,1,$1+$1,$4,$5,$6,$7,0*
20,1,$1+$1,$6,$7,$8,$9,0*
20,1,$1+$1,$8,$9,$2,$3,0*%
G04 Aperture macros list end*
%TA.AperFunction,ComponentPad*%
%ADD10RoundRect,0.250000X0.550000X-0.550000X0.550000X0.550000X-0.550000X0.550000X-0.550000X-0.550000X0*%
%TD*%
%TA.AperFunction,ComponentPad*%
%ADD11C,1.600000*%
%TD*%
%TA.AperFunction,ViaPad*%
%ADD12C,0.600000*%
%TD*%
%TA.AperFunction,Conductor*%
%ADD13C,0.180000*%
%TD*%
G04 APERTURE END LIST*
D10*
%TO.N,/A11*%
%TO.C,Z80-SKT1*%
X92207000Y-109474000D03*
D11*
%TO.N,/A12*%
X94747000Y-109474000D03*
%TO.N,/A13*%
X97287000Y-109474000D03*
%TO.N,/A14*%
X99827000Y-109474000D03*
%TO.N,/A15*%
X102367000Y-109474000D03*
%TO.N,/CLK*%
X104907000Y-109474000D03*
%TO.N,/D4*%
X107447000Y-109474000D03*
%TO.N,/D3*%
X109987000Y-109474000D03*
%TO.N,/D5*%
X112527000Y-109474000D03*
%TO.N,/D6*%
X115067000Y-109474000D03*
%TO.N,unconnected-(Z80-SKT1-NC{slash}GND-Pad11)*%
X117607000Y-109474000D03*
%TO.N,/D2*%
X120147000Y-109474000D03*
%TO.N,/D7*%
X122687000Y-109474000D03*
%TO.N,/D0*%
X125227000Y-109474000D03*
%TO.N,/D1*%
X127767000Y-109474000D03*
%TO.N,/INT-*%
X130307000Y-109474000D03*
%TO.N,/NMI-*%
X132847000Y-109474000D03*
%TO.N,/HALT-*%
X135387000Y-109474000D03*
%TO.N,/MREQ-*%
X137927000Y-109474000D03*
%TO.N,/IORQ-*%
X140467000Y-109474000D03*
%TO.N,/RD-*%
X140467000Y-94234000D03*
%TO.N,/WR-*%
X137927000Y-94234000D03*
%TO.N,/BACK-*%
X135387000Y-94234000D03*
%TO.N,/WAIT-*%
X132847000Y-94234000D03*
%TO.N,/BREQ-*%
X130307000Y-94234000D03*
%TO.N,/RST-*%
X127767000Y-94234000D03*
%TO.N,/M1-*%
X125227000Y-94234000D03*
%TO.N,/RFSH-*%
X122687000Y-94234000D03*
%TO.N,/GND*%
X120147000Y-94234000D03*
%TO.N,/A0*%
X117607000Y-94234000D03*
%TO.N,/A1*%
X115067000Y-94234000D03*
%TO.N,/A2*%
X112527000Y-94234000D03*
%TO.N,/A3*%
X109987000Y-94234000D03*
%TO.N,/A4*%
X107447000Y-94234000D03*
%TO.N,/A5*%
X104907000Y-94234000D03*
%TO.N,/A6*%
X102367000Y-94234000D03*
%TO.N,/A7*%
X99827000Y-94234000D03*
%TO.N,/A8*%
X97287000Y-94234000D03*
%TO.N,/A9*%
X94747000Y-94234000D03*
%TO.N,/A10*%
X92207000Y-94234000D03*
%TD*%
D12*
%TO.N,/BACK-*%
X117779800Y-101852600D03*
%TO.N,/GND*%
X109601000Y-103149400D03*
X108559600Y-103149400D03*
X112801400Y-95935800D03*
X110490000Y-95935800D03*
%TO.N,/A5*%
X124612400Y-97256600D03*
%TO.N,/RST-*%
X118364000Y-100104400D03*
%TO.N,/A6*%
X125958600Y-96799400D03*
%TO.N,/A7*%
X127101600Y-98374200D03*
%TO.N,/A1*%
X120091200Y-95910400D03*
%TO.N,/A8*%
X125941742Y-99027753D03*
%TO.N,/A10*%
X126735595Y-100361958D03*
%TO.N,/A9*%
X126404274Y-99655820D03*
%TO.N,/A2*%
X121205451Y-96218549D03*
%TO.N,/WR-*%
X117149250Y-102579400D03*
%TO.N,/RD-*%
X116582000Y-103149400D03*
%TO.N,/A4*%
X123786662Y-97022235D03*
%TO.N,/BREQ-*%
X117754400Y-100674400D03*
%TO.N,/M1-*%
X119019600Y-99681800D03*
%TO.N,/RFSH-*%
X119989600Y-99681800D03*
%TO.N,/WAIT-*%
X117068600Y-101244400D03*
%TO.N,/A15*%
X120573800Y-103352600D03*
%TO.N,/D4*%
X111887000Y-107619800D03*
%TO.N,/A3*%
X123238146Y-95958547D03*
%TD*%
D13*
%TO.N,/A5*%
X124358400Y-97256600D02*
X123628404Y-97986596D01*
X122429898Y-97311800D02*
X107984800Y-97311800D01*
X107984800Y-97311800D02*
X104907000Y-94234000D01*
X124612400Y-97256600D02*
X124358400Y-97256600D01*
X123104694Y-97986596D02*
X122429898Y-97311800D01*
X123628404Y-97986596D02*
X123104694Y-97986596D01*
%TO.N,/A6*%
X124215247Y-98556596D02*
X123165578Y-98556596D01*
X105804800Y-97671800D02*
X102367000Y-94234000D01*
X123165578Y-98556596D02*
X122280782Y-97671800D01*
X124829443Y-97928557D02*
X124829443Y-97942400D01*
X125958600Y-96799400D02*
X124829443Y-97928557D01*
X122280782Y-97671800D02*
X105804800Y-97671800D01*
X124829443Y-97942400D02*
X124215247Y-98556596D01*
%TO.N,/A7*%
X103624800Y-98031800D02*
X99827000Y-94234000D01*
X123298994Y-99199128D02*
X122131666Y-98031800D01*
X127101600Y-98374200D02*
X125501204Y-98374200D01*
X122131666Y-98031800D02*
X103624800Y-98031800D01*
X124676276Y-99199128D02*
X123298994Y-99199128D01*
X125501204Y-98374200D02*
X124676276Y-99199128D01*
%TO.N,/A8*%
X125925901Y-99027753D02*
X125184526Y-99769128D01*
X101444800Y-98391800D02*
X97287000Y-94234000D01*
X125941742Y-99027753D02*
X125925901Y-99027753D01*
X121982550Y-98391800D02*
X101444800Y-98391800D01*
X125184526Y-99769128D02*
X123359878Y-99769128D01*
X123359878Y-99769128D02*
X121982550Y-98391800D01*
%TO.N,/A10*%
X126735595Y-100361958D02*
X126059106Y-101038447D01*
X97084800Y-99111800D02*
X92207000Y-94234000D01*
X126059106Y-101038447D02*
X123610965Y-101038447D01*
X121684318Y-99111800D02*
X97084800Y-99111800D01*
X123610965Y-101038447D02*
X121684318Y-99111800D01*
%TO.N,/A9*%
X125653894Y-100406200D02*
X123487834Y-100406200D01*
X123487834Y-100406200D02*
X121833434Y-98751800D01*
X99264800Y-98751800D02*
X94747000Y-94234000D01*
X126404274Y-99655820D02*
X125653894Y-100406200D01*
X121833434Y-98751800D02*
X99264800Y-98751800D01*
%TO.N,/A4*%
X122946435Y-97022235D02*
X122876000Y-96951800D01*
X110164800Y-96951800D02*
X107447000Y-94234000D01*
X123786662Y-97022235D02*
X122946435Y-97022235D01*
X122876000Y-96951800D02*
X110164800Y-96951800D01*
%TO.N,/M1-*%
X126505208Y-101398447D02*
X127671600Y-100232055D01*
X127671600Y-100232055D02*
X127671600Y-96678600D01*
X127671600Y-96678600D02*
X125227000Y-94234000D01*
X119019600Y-99681800D02*
X120736247Y-101398447D01*
X120736247Y-101398447D02*
X126505208Y-101398447D01*
%TD*%
%TA.AperFunction,Conductor*%
%TO.N,/GND*%
G36*
X92054598Y-92722185D02*
G01*
X92100353Y-92774989D01*
X92110297Y-92844147D01*
X92081272Y-92907703D01*
X92022494Y-92945477D01*
X92006957Y-92948973D01*
X91902465Y-92965522D01*
X91707776Y-93028781D01*
X91525386Y-93121715D01*
X91359786Y-93242028D01*
X91215028Y-93386786D01*
X91094715Y-93552386D01*
X91001781Y-93734776D01*
X90938522Y-93929465D01*
X90906500Y-94131648D01*
X90906500Y-94336351D01*
X90938522Y-94538534D01*
X91001781Y-94733223D01*
X91065691Y-94858653D01*
X91094585Y-94915359D01*
X91094715Y-94915613D01*
X91215028Y-95081213D01*
X91359786Y-95225971D01*
X91502034Y-95329318D01*
X91525390Y-95346287D01*
X91641607Y-95405503D01*
X91707776Y-95439218D01*
X91707778Y-95439218D01*
X91707781Y-95439220D01*
X91805214Y-95470878D01*
X91902465Y-95502477D01*
X91944647Y-95509158D01*
X92104648Y-95534500D01*
X92104649Y-95534500D01*
X92309351Y-95534500D01*
X92309352Y-95534500D01*
X92511534Y-95502477D01*
X92536518Y-95494358D01*
X92606357Y-95492364D01*
X92662516Y-95524609D01*
X96722225Y-99584318D01*
X96840432Y-99652564D01*
X96856876Y-99662058D01*
X97007059Y-99702300D01*
X117386060Y-99702300D01*
X117453099Y-99721985D01*
X117498854Y-99774789D01*
X117508798Y-99843947D01*
X117479773Y-99907503D01*
X117433512Y-99940861D01*
X117375227Y-99965002D01*
X117375214Y-99965009D01*
X117244111Y-100052610D01*
X117244107Y-100052613D01*
X117132613Y-100164107D01*
X117132610Y-100164111D01*
X117045009Y-100295214D01*
X117045004Y-100295224D01*
X117008216Y-100384039D01*
X116964375Y-100438442D01*
X116917847Y-100458203D01*
X116835108Y-100474661D01*
X116835098Y-100474664D01*
X116689427Y-100535002D01*
X116689414Y-100535009D01*
X116558311Y-100622610D01*
X116558307Y-100622613D01*
X116446813Y-100734107D01*
X116446810Y-100734111D01*
X116359209Y-100865214D01*
X116359202Y-100865227D01*
X116298864Y-101010898D01*
X116298861Y-101010910D01*
X116268100Y-101165553D01*
X116268100Y-101323246D01*
X116298861Y-101477889D01*
X116298864Y-101477901D01*
X116359202Y-101623572D01*
X116359209Y-101623585D01*
X116446810Y-101754688D01*
X116446813Y-101754692D01*
X116556665Y-101864544D01*
X116590150Y-101925867D01*
X116585166Y-101995559D01*
X116556665Y-102039906D01*
X116527463Y-102069107D01*
X116527460Y-102069111D01*
X116439859Y-102200214D01*
X116439854Y-102200224D01*
X116388710Y-102323697D01*
X116344869Y-102378100D01*
X116321602Y-102390805D01*
X116202824Y-102440004D01*
X116202814Y-102440009D01*
X116071711Y-102527610D01*
X116071707Y-102527613D01*
X115960213Y-102639107D01*
X115960210Y-102639111D01*
X115872609Y-102770214D01*
X115872602Y-102770227D01*
X115812264Y-102915898D01*
X115812261Y-102915910D01*
X115781500Y-103070553D01*
X115781500Y-103228246D01*
X115812261Y-103382889D01*
X115812264Y-103382901D01*
X115872602Y-103528572D01*
X115872609Y-103528585D01*
X115960210Y-103659688D01*
X115960213Y-103659692D01*
X116071707Y-103771186D01*
X116071711Y-103771189D01*
X116202814Y-103858790D01*
X116202827Y-103858797D01*
X116348498Y-103919135D01*
X116348503Y-103919137D01*
X116503153Y-103949899D01*
X116503156Y-103949900D01*
X116503158Y-103949900D01*
X116660844Y-103949900D01*
X116660845Y-103949899D01*
X116815497Y-103919137D01*
X116928166Y-103872467D01*
X116961172Y-103858797D01*
X116961172Y-103858796D01*
X116961179Y-103858794D01*
X117092289Y-103771189D01*
X117203789Y-103659689D01*
X117291394Y-103528579D01*
X117342539Y-103405102D01*
X117386379Y-103350699D01*
X117409645Y-103337995D01*
X117455698Y-103318919D01*
X117528423Y-103288797D01*
X117528426Y-103288795D01*
X117528429Y-103288794D01*
X117550939Y-103273753D01*
X119773300Y-103273753D01*
X119773300Y-103431446D01*
X119804061Y-103586089D01*
X119804064Y-103586101D01*
X119864402Y-103731772D01*
X119864409Y-103731785D01*
X119952010Y-103862888D01*
X119952013Y-103862892D01*
X120063507Y-103974386D01*
X120063511Y-103974389D01*
X120194614Y-104061990D01*
X120194627Y-104061997D01*
X120340298Y-104122335D01*
X120340303Y-104122337D01*
X120494953Y-104153099D01*
X120494956Y-104153100D01*
X120494958Y-104153100D01*
X120652644Y-104153100D01*
X120652645Y-104153099D01*
X120807297Y-104122337D01*
X120952979Y-104061994D01*
X121084089Y-103974389D01*
X121195589Y-103862889D01*
X121283194Y-103731779D01*
X121343537Y-103586097D01*
X121374300Y-103431442D01*
X121374300Y-103273758D01*
X121374300Y-103273755D01*
X121374299Y-103273753D01*
X121343538Y-103119110D01*
X121343537Y-103119103D01*
X121331355Y-103089692D01*
X121283197Y-102973427D01*
X121283190Y-102973414D01*
X121195589Y-102842311D01*
X121195586Y-102842307D01*
X121084092Y-102730813D01*
X121084088Y-102730810D01*
X120952985Y-102643209D01*
X120952972Y-102643202D01*
X120807301Y-102582864D01*
X120807289Y-102582861D01*
X120652645Y-102552100D01*
X120652642Y-102552100D01*
X120494958Y-102552100D01*
X120494955Y-102552100D01*
X120340310Y-102582861D01*
X120340298Y-102582864D01*
X120194627Y-102643202D01*
X120194614Y-102643209D01*
X120063511Y-102730810D01*
X120063507Y-102730813D01*
X119952013Y-102842307D01*
X119952010Y-102842311D01*
X119864409Y-102973414D01*
X119864402Y-102973427D01*
X119804064Y-103119098D01*
X119804061Y-103119110D01*
X119773300Y-103273753D01*
X117550939Y-103273753D01*
X117659539Y-103201189D01*
X117659542Y-103201186D01*
X117680744Y-103179985D01*
X117771036Y-103089692D01*
X117771039Y-103089689D01*
X117858644Y-102958579D01*
X117918987Y-102812897D01*
X117938897Y-102712802D01*
X117971281Y-102650892D01*
X118013063Y-102622432D01*
X118013288Y-102622338D01*
X118013297Y-102622337D01*
X118158979Y-102561994D01*
X118290089Y-102474389D01*
X118401589Y-102362889D01*
X118489194Y-102231779D01*
X118549537Y-102086097D01*
X118580300Y-101931442D01*
X118580300Y-101773758D01*
X118580300Y-101773755D01*
X118580299Y-101773753D01*
X118549537Y-101619103D01*
X118491050Y-101477901D01*
X118489197Y-101473427D01*
X118489190Y-101473414D01*
X118401589Y-101342311D01*
X118401586Y-101342307D01*
X118395187Y-101335908D01*
X118361702Y-101274585D01*
X118366686Y-101204893D01*
X118379766Y-101179336D01*
X118463790Y-101053585D01*
X118463790Y-101053584D01*
X118463794Y-101053579D01*
X118507426Y-100948239D01*
X118551265Y-100893839D01*
X118591873Y-100876595D01*
X118591664Y-100875906D01*
X118597486Y-100874139D01*
X118597497Y-100874137D01*
X118743179Y-100813794D01*
X118874289Y-100726189D01*
X118874292Y-100726186D01*
X118963912Y-100636567D01*
X119025235Y-100603082D01*
X119094927Y-100608066D01*
X119139274Y-100636567D01*
X120373671Y-101870964D01*
X120373673Y-101870965D01*
X120373677Y-101870968D01*
X120415122Y-101894896D01*
X120415125Y-101894897D01*
X120415130Y-101894900D01*
X120508323Y-101948705D01*
X120658506Y-101988947D01*
X120658509Y-101988947D01*
X126582947Y-101988947D01*
X126582949Y-101988947D01*
X126714140Y-101953794D01*
X126733133Y-101948705D01*
X126867783Y-101870965D01*
X128144117Y-100594631D01*
X128148235Y-100587497D01*
X128205571Y-100488190D01*
X128205571Y-100488189D01*
X128221858Y-100459979D01*
X128262100Y-100309796D01*
X128262100Y-96600859D01*
X128221858Y-96450676D01*
X128170257Y-96361300D01*
X128144117Y-96316024D01*
X127574274Y-95746181D01*
X127540789Y-95684858D01*
X127545773Y-95615166D01*
X127587645Y-95559233D01*
X127653109Y-95534816D01*
X127661955Y-95534500D01*
X127869351Y-95534500D01*
X127869352Y-95534500D01*
X128071534Y-95502477D01*
X128266219Y-95439220D01*
X128266616Y-95439018D01*
X128270827Y-95436872D01*
X128448610Y-95346287D01*
X128582305Y-95249153D01*
X128614213Y-95225971D01*
X128614215Y-95225968D01*
X128614219Y-95225966D01*
X128758966Y-95081219D01*
X128758968Y-95081215D01*
X128758971Y-95081213D01*
X128879284Y-94915614D01*
X128879286Y-94915611D01*
X128879287Y-94915610D01*
X128926516Y-94822917D01*
X128974489Y-94772123D01*
X129042310Y-94755328D01*
X129108445Y-94777865D01*
X129147485Y-94822919D01*
X129194715Y-94915614D01*
X129315028Y-95081213D01*
X129459786Y-95225971D01*
X129602034Y-95329318D01*
X129625390Y-95346287D01*
X129741607Y-95405503D01*
X129807776Y-95439218D01*
X129807778Y-95439218D01*
X129807781Y-95439220D01*
X129905214Y-95470878D01*
X130002465Y-95502477D01*
X130044647Y-95509158D01*
X130204648Y-95534500D01*
X130204649Y-95534500D01*
X130409351Y-95534500D01*
X130409352Y-95534500D01*
X130611534Y-95502477D01*
X130806219Y-95439220D01*
X130806616Y-95439018D01*
X130810827Y-95436872D01*
X130988610Y-95346287D01*
X131122305Y-95249153D01*
X131154213Y-95225971D01*
X131154215Y-95225968D01*
X131154219Y-95225966D01*
X131298966Y-95081219D01*
X131298968Y-95081215D01*
X131298971Y-95081213D01*
X131419284Y-94915614D01*
X131419286Y-94915611D01*
X131419287Y-94915610D01*
X131466516Y-94822917D01*
X131514489Y-94772123D01*
X131582310Y-94755328D01*
X131648445Y-94777865D01*
X131687485Y-94822919D01*
X131734715Y-94915614D01*
X131855028Y-95081213D01*
X131999786Y-95225971D01*
X132142034Y-95329318D01*
X132165390Y-95346287D01*
X132281607Y-95405503D01*
X132347776Y-95439218D01*
X132347778Y-95439218D01*
X132347781Y-95439220D01*
X132445214Y-95470878D01*
X132542465Y-95502477D01*
X132584647Y-95509158D01*
X132744648Y-95534500D01*
X132744649Y-95534500D01*
X132949351Y-95534500D01*
X132949352Y-95534500D01*
X133151534Y-95502477D01*
X133346219Y-95439220D01*
X133346616Y-95439018D01*
X133350827Y-95436872D01*
X133528610Y-95346287D01*
X133662305Y-95249153D01*
X133694213Y-95225971D01*
X133694215Y-95225968D01*
X133694219Y-95225966D01*
X133838966Y-95081219D01*
X133838968Y-95081215D01*
X133838971Y-95081213D01*
X133959284Y-94915614D01*
X133959286Y-94915611D01*
X133959287Y-94915610D01*
X134006516Y-94822917D01*
X134054489Y-94772123D01*
X134122310Y-94755328D01*
X134188445Y-94777865D01*
X134227485Y-94822919D01*
X134274715Y-94915614D01*
X134395028Y-95081213D01*
X134539786Y-95225971D01*
X134682034Y-95329318D01*
X134705390Y-95346287D01*
X134821607Y-95405503D01*
X134887776Y-95439218D01*
X134887778Y-95439218D01*
X134887781Y-95439220D01*
X134985214Y-95470878D01*
X135082465Y-95502477D01*
X135124647Y-95509158D01*
X135284648Y-95534500D01*
X135284649Y-95534500D01*
X135489351Y-95534500D01*
X135489352Y-95534500D01*
X135691534Y-95502477D01*
X135886219Y-95439220D01*
X135886616Y-95439018D01*
X135890827Y-95436872D01*
X136068610Y-95346287D01*
X136202305Y-95249153D01*
X136234213Y-95225971D01*
X136234215Y-95225968D01*
X136234219Y-95225966D01*
X136378966Y-95081219D01*
X136378968Y-95081215D01*
X136378971Y-95081213D01*
X136499284Y-94915614D01*
X136499286Y-94915611D01*
X136499287Y-94915610D01*
X136546516Y-94822917D01*
X136594489Y-94772123D01*
X136662310Y-94755328D01*
X136728445Y-94777865D01*
X136767485Y-94822919D01*
X136814715Y-94915614D01*
X136935028Y-95081213D01*
X137079786Y-95225971D01*
X137222034Y-95329318D01*
X137245390Y-95346287D01*
X137361607Y-95405503D01*
X137427776Y-95439218D01*
X137427778Y-95439218D01*
X137427781Y-95439220D01*
X137525214Y-95470878D01*
X137622465Y-95502477D01*
X137664647Y-95509158D01*
X137824648Y-95534500D01*
X137824649Y-95534500D01*
X138029351Y-95534500D01*
X138029352Y-95534500D01*
X138231534Y-95502477D01*
X138426219Y-95439220D01*
X138426616Y-95439018D01*
X138430827Y-95436872D01*
X138608610Y-95346287D01*
X138742305Y-95249153D01*
X138774213Y-95225971D01*
X138774215Y-95225968D01*
X138774219Y-95225966D01*
X138918966Y-95081219D01*
X138918968Y-95081215D01*
X138918971Y-95081213D01*
X139039284Y-94915614D01*
X139039286Y-94915611D01*
X139039287Y-94915610D01*
X139086516Y-94822917D01*
X139134489Y-94772123D01*
X139202310Y-94755328D01*
X139268445Y-94777865D01*
X139307485Y-94822919D01*
X139354715Y-94915614D01*
X139475028Y-95081213D01*
X139619786Y-95225971D01*
X139762034Y-95329318D01*
X139785390Y-95346287D01*
X139901607Y-95405503D01*
X139967776Y-95439218D01*
X139967778Y-95439218D01*
X139967781Y-95439220D01*
X140065214Y-95470878D01*
X140162465Y-95502477D01*
X140204647Y-95509158D01*
X140364648Y-95534500D01*
X140364649Y-95534500D01*
X140569351Y-95534500D01*
X140569352Y-95534500D01*
X140771534Y-95502477D01*
X140966219Y-95439220D01*
X140966616Y-95439018D01*
X140970827Y-95436872D01*
X141148610Y-95346287D01*
X141282305Y-95249153D01*
X141314213Y-95225971D01*
X141314215Y-95225968D01*
X141314219Y-95225966D01*
X141458966Y-95081219D01*
X141458968Y-95081215D01*
X141458971Y-95081213D01*
X141511732Y-95008590D01*
X141579287Y-94915610D01*
X141672220Y-94733219D01*
X141735477Y-94538534D01*
X141767500Y-94336352D01*
X141767500Y-94131648D01*
X141759257Y-94079606D01*
X141735477Y-93929465D01*
X141672218Y-93734776D01*
X141579420Y-93552652D01*
X141579287Y-93552390D01*
X141547092Y-93508077D01*
X141458971Y-93386786D01*
X141314213Y-93242028D01*
X141148613Y-93121715D01*
X141148612Y-93121714D01*
X141148610Y-93121713D01*
X141091653Y-93092691D01*
X140966223Y-93028781D01*
X140771534Y-92965522D01*
X140667043Y-92948973D01*
X140603908Y-92919044D01*
X140566977Y-92859732D01*
X140567975Y-92789870D01*
X140606585Y-92731637D01*
X140670549Y-92703523D01*
X140686441Y-92702500D01*
X142123500Y-92702500D01*
X142190539Y-92722185D01*
X142236294Y-92774989D01*
X142247500Y-92826500D01*
X142247500Y-110881500D01*
X142227815Y-110948539D01*
X142175011Y-110994294D01*
X142123500Y-111005500D01*
X140686441Y-111005500D01*
X140619402Y-110985815D01*
X140573647Y-110933011D01*
X140563703Y-110863853D01*
X140592728Y-110800297D01*
X140651506Y-110762523D01*
X140667043Y-110759027D01*
X140771534Y-110742477D01*
X140966219Y-110679220D01*
X141148610Y-110586287D01*
X141277482Y-110492657D01*
X141314213Y-110465971D01*
X141314215Y-110465968D01*
X141314219Y-110465966D01*
X141458966Y-110321219D01*
X141458968Y-110321215D01*
X141458971Y-110321213D01*
X141527021Y-110227548D01*
X141579287Y-110155610D01*
X141672220Y-109973219D01*
X141735477Y-109778534D01*
X141767500Y-109576352D01*
X141767500Y-109371648D01*
X141735477Y-109169466D01*
X141672220Y-108974781D01*
X141672218Y-108974778D01*
X141672218Y-108974776D01*
X141620865Y-108873991D01*
X141579287Y-108792390D01*
X141527021Y-108720451D01*
X141458971Y-108626786D01*
X141314213Y-108482028D01*
X141148613Y-108361715D01*
X141148612Y-108361714D01*
X141148610Y-108361713D01*
X141084780Y-108329190D01*
X140966223Y-108268781D01*
X140771534Y-108205522D01*
X140596995Y-108177878D01*
X140569352Y-108173500D01*
X140364648Y-108173500D01*
X140340329Y-108177351D01*
X140162465Y-108205522D01*
X139967776Y-108268781D01*
X139785386Y-108361715D01*
X139619786Y-108482028D01*
X139475028Y-108626786D01*
X139354715Y-108792386D01*
X139307485Y-108885080D01*
X139259510Y-108935876D01*
X139191689Y-108952671D01*
X139125554Y-108930134D01*
X139086515Y-108885080D01*
X139080861Y-108873983D01*
X139039287Y-108792390D01*
X138987021Y-108720451D01*
X138918971Y-108626786D01*
X138774213Y-108482028D01*
X138608613Y-108361715D01*
X138608612Y-108361714D01*
X138608610Y-108361713D01*
X138544780Y-108329190D01*
X138426223Y-108268781D01*
X138231534Y-108205522D01*
X138056995Y-108177878D01*
X138029352Y-108173500D01*
X137824648Y-108173500D01*
X137800329Y-108177351D01*
X137622465Y-108205522D01*
X137427776Y-108268781D01*
X137245386Y-108361715D01*
X137079786Y-108482028D01*
X136935028Y-108626786D01*
X136814715Y-108792386D01*
X136767485Y-108885080D01*
X136719510Y-108935876D01*
X136651689Y-108952671D01*
X136585554Y-108930134D01*
X136546515Y-108885080D01*
X136540861Y-108873983D01*
X136499287Y-108792390D01*
X136447021Y-108720451D01*
X136378971Y-108626786D01*
X136234213Y-108482028D01*
X136068613Y-108361715D01*
X136068612Y-108361714D01*
X136068610Y-108361713D01*
X136004780Y-108329190D01*
X135886223Y-108268781D01*
X135691534Y-108205522D01*
X135516995Y-108177878D01*
X135489352Y-108173500D01*
X135284648Y-108173500D01*
X135260329Y-108177351D01*
X135082465Y-108205522D01*
X134887776Y-108268781D01*
X134705386Y-108361715D01*
X134539786Y-108482028D01*
X134395028Y-108626786D01*
X134274715Y-108792386D01*
X134227485Y-108885080D01*
X134179510Y-108935876D01*
X134111689Y-108952671D01*
X134045554Y-108930134D01*
X134006515Y-108885080D01*
X134000861Y-108873983D01*
X133959287Y-108792390D01*
X133907021Y-108720451D01*
X133838971Y-108626786D01*
X133694213Y-108482028D01*
X133528613Y-108361715D01*
X133528612Y-108361714D01*
X133528610Y-108361713D01*
X133464780Y-108329190D01*
X133346223Y-108268781D01*
X133151534Y-108205522D01*
X132976995Y-108177878D01*
X132949352Y-108173500D01*
X132744648Y-108173500D01*
X132720329Y-108177351D01*
X132542465Y-108205522D01*
X132347776Y-108268781D01*
X132165386Y-108361715D01*
X131999786Y-108482028D01*
X131855028Y-108626786D01*
X131734715Y-108792386D01*
X131687485Y-108885080D01*
X131639510Y-108935876D01*
X131571689Y-108952671D01*
X131505554Y-108930134D01*
X131466515Y-108885080D01*
X131460861Y-108873983D01*
X131419287Y-108792390D01*
X131367021Y-108720451D01*
X131298971Y-108626786D01*
X131154213Y-108482028D01*
X130988613Y-108361715D01*
X130988612Y-108361714D01*
X130988610Y-108361713D01*
X130924780Y-108329190D01*
X130806223Y-108268781D01*
X130611534Y-108205522D01*
X130436995Y-108177878D01*
X130409352Y-108173500D01*
X130204648Y-108173500D01*
X130180329Y-108177351D01*
X130002465Y-108205522D01*
X129807776Y-108268781D01*
X129625386Y-108361715D01*
X129459786Y-108482028D01*
X129315028Y-108626786D01*
X129194715Y-108792386D01*
X129147485Y-108885080D01*
X129099510Y-108935876D01*
X129031689Y-108952671D01*
X128965554Y-108930134D01*
X128926515Y-108885080D01*
X128920861Y-108873983D01*
X128879287Y-108792390D01*
X128827021Y-108720451D01*
X128758971Y-108626786D01*
X128614213Y-108482028D01*
X128448613Y-108361715D01*
X128448612Y-108361714D01*
X128448610Y-108361713D01*
X128384780Y-108329190D01*
X128266223Y-108268781D01*
X128071534Y-108205522D01*
X127896995Y-108177878D01*
X127869352Y-108173500D01*
X127664648Y-108173500D01*
X127640329Y-108177351D01*
X127462465Y-108205522D01*
X127267776Y-108268781D01*
X127085386Y-108361715D01*
X126919786Y-108482028D01*
X126775028Y-108626786D01*
X126654715Y-108792386D01*
X126607485Y-108885080D01*
X126559510Y-108935876D01*
X126491689Y-108952671D01*
X126425554Y-108930134D01*
X126386515Y-108885080D01*
X126380861Y-108873983D01*
X126339287Y-108792390D01*
X126287021Y-108720451D01*
X126218971Y-108626786D01*
X126074213Y-108482028D01*
X125908613Y-108361715D01*
X125908612Y-108361714D01*
X125908610Y-108361713D01*
X125844780Y-108329190D01*
X125726223Y-108268781D01*
X125531534Y-108205522D01*
X125356995Y-108177878D01*
X125329352Y-108173500D01*
X125124648Y-108173500D01*
X125100329Y-108177351D01*
X124922465Y-108205522D01*
X124727776Y-108268781D01*
X124545386Y-108361715D01*
X124379786Y-108482028D01*
X124235028Y-108626786D01*
X124114715Y-108792386D01*
X124067485Y-108885080D01*
X124019510Y-108935876D01*
X123951689Y-108952671D01*
X123885554Y-108930134D01*
X123846515Y-108885080D01*
X123840861Y-108873983D01*
X123799287Y-108792390D01*
X123747021Y-108720451D01*
X123678971Y-108626786D01*
X123534213Y-108482028D01*
X123368613Y-108361715D01*
X123368612Y-108361714D01*
X123368610Y-108361713D01*
X123304780Y-108329190D01*
X123186223Y-108268781D01*
X122991534Y-108205522D01*
X122816995Y-108177878D01*
X122789352Y-108173500D01*
X122584648Y-108173500D01*
X122560329Y-108177351D01*
X122382465Y-108205522D01*
X122187776Y-108268781D01*
X122005386Y-108361715D01*
X121839786Y-108482028D01*
X121695028Y-108626786D01*
X121574715Y-108792386D01*
X121527485Y-108885080D01*
X121479510Y-108935876D01*
X121411689Y-108952671D01*
X121345554Y-108930134D01*
X121306515Y-108885080D01*
X121300861Y-108873983D01*
X121259287Y-108792390D01*
X121207021Y-108720451D01*
X121138971Y-108626786D01*
X120994213Y-108482028D01*
X120828613Y-108361715D01*
X120828612Y-108361714D01*
X120828610Y-108361713D01*
X120764780Y-108329190D01*
X120646223Y-108268781D01*
X120451534Y-108205522D01*
X120276995Y-108177878D01*
X120249352Y-108173500D01*
X120044648Y-108173500D01*
X120020329Y-108177351D01*
X119842465Y-108205522D01*
X119647776Y-108268781D01*
X119465386Y-108361715D01*
X119299786Y-108482028D01*
X119155028Y-108626786D01*
X119034715Y-108792386D01*
X118987485Y-108885080D01*
X118939510Y-108935876D01*
X118871689Y-108952671D01*
X118805554Y-108930134D01*
X118766515Y-108885080D01*
X118760861Y-108873983D01*
X118719287Y-108792390D01*
X118667021Y-108720451D01*
X118598971Y-108626786D01*
X118454213Y-108482028D01*
X118288613Y-108361715D01*
X118288612Y-108361714D01*
X118288610Y-108361713D01*
X118224780Y-108329190D01*
X118106223Y-108268781D01*
X117911534Y-108205522D01*
X117736995Y-108177878D01*
X117709352Y-108173500D01*
X117504648Y-108173500D01*
X117480329Y-108177351D01*
X117302465Y-108205522D01*
X117107776Y-108268781D01*
X116925386Y-108361715D01*
X116759786Y-108482028D01*
X116615028Y-108626786D01*
X116494715Y-108792386D01*
X116447485Y-108885080D01*
X116399510Y-108935876D01*
X116331689Y-108952671D01*
X116265554Y-108930134D01*
X116226515Y-108885080D01*
X116220861Y-108873983D01*
X116179287Y-108792390D01*
X116127021Y-108720451D01*
X116058971Y-108626786D01*
X115914213Y-108482028D01*
X115748613Y-108361715D01*
X115748612Y-108361714D01*
X115748610Y-108361713D01*
X115684780Y-108329190D01*
X115566223Y-108268781D01*
X115371534Y-108205522D01*
X115196995Y-108177878D01*
X115169352Y-108173500D01*
X114964648Y-108173500D01*
X114940329Y-108177351D01*
X114762465Y-108205522D01*
X114567776Y-108268781D01*
X114385386Y-108361715D01*
X114219786Y-108482028D01*
X114075028Y-108626786D01*
X113954715Y-108792386D01*
X113907485Y-108885080D01*
X113859510Y-108935876D01*
X113791689Y-108952671D01*
X113725554Y-108930134D01*
X113686515Y-108885080D01*
X113680861Y-108873983D01*
X113639287Y-108792390D01*
X113587021Y-108720451D01*
X113518971Y-108626786D01*
X113374213Y-108482028D01*
X113208613Y-108361715D01*
X113208612Y-108361714D01*
X113208610Y-108361713D01*
X113144780Y-108329190D01*
X113026223Y-108268781D01*
X112831535Y-108205523D01*
X112685060Y-108182323D01*
X112621926Y-108152393D01*
X112584995Y-108093082D01*
X112585993Y-108023219D01*
X112595108Y-108001384D01*
X112596397Y-107998973D01*
X112656735Y-107853301D01*
X112656737Y-107853297D01*
X112687500Y-107698642D01*
X112687500Y-107540958D01*
X112687500Y-107540955D01*
X112687499Y-107540953D01*
X112656738Y-107386310D01*
X112656737Y-107386303D01*
X112656735Y-107386298D01*
X112596397Y-107240627D01*
X112596390Y-107240614D01*
X112508789Y-107109511D01*
X112508786Y-107109507D01*
X112397292Y-106998013D01*
X112397288Y-106998010D01*
X112266185Y-106910409D01*
X112266172Y-106910402D01*
X112120501Y-106850064D01*
X112120489Y-106850061D01*
X111965845Y-106819300D01*
X111965842Y-106819300D01*
X111808158Y-106819300D01*
X111808155Y-106819300D01*
X111653510Y-106850061D01*
X111653498Y-106850064D01*
X111507827Y-106910402D01*
X111507814Y-106910409D01*
X111376711Y-106998010D01*
X111376707Y-106998013D01*
X111265213Y-107109507D01*
X111265210Y-107109511D01*
X111177609Y-107240614D01*
X111177602Y-107240627D01*
X111117264Y-107386298D01*
X111117261Y-107386310D01*
X111086500Y-107540953D01*
X111086500Y-107698646D01*
X111117261Y-107853289D01*
X111117264Y-107853301D01*
X111177602Y-107998972D01*
X111177609Y-107998985D01*
X111265210Y-108130088D01*
X111265213Y-108130092D01*
X111376707Y-108241586D01*
X111376711Y-108241589D01*
X111507814Y-108329190D01*
X111507821Y-108329194D01*
X111566037Y-108353307D01*
X111620439Y-108397147D01*
X111642505Y-108463440D01*
X111625227Y-108531140D01*
X111606266Y-108555549D01*
X111535027Y-108626788D01*
X111414715Y-108792386D01*
X111367485Y-108885080D01*
X111319510Y-108935876D01*
X111251689Y-108952671D01*
X111185554Y-108930134D01*
X111146515Y-108885080D01*
X111140861Y-108873983D01*
X111099287Y-108792390D01*
X111047021Y-108720451D01*
X110978971Y-108626786D01*
X110834213Y-108482028D01*
X110668613Y-108361715D01*
X110668612Y-108361714D01*
X110668610Y-108361713D01*
X110604780Y-108329190D01*
X110486223Y-108268781D01*
X110291534Y-108205522D01*
X110116995Y-108177878D01*
X110089352Y-108173500D01*
X109884648Y-108173500D01*
X109860329Y-108177351D01*
X109682465Y-108205522D01*
X109487776Y-108268781D01*
X109305386Y-108361715D01*
X109139786Y-108482028D01*
X108995028Y-108626786D01*
X108874715Y-108792386D01*
X108827485Y-108885080D01*
X108779510Y-108935876D01*
X108711689Y-108952671D01*
X108645554Y-108930134D01*
X108606515Y-108885080D01*
X108600861Y-108873983D01*
X108559287Y-108792390D01*
X108507021Y-108720451D01*
X108438971Y-108626786D01*
X108294213Y-108482028D01*
X108128613Y-108361715D01*
X108128612Y-108361714D01*
X108128610Y-108361713D01*
X108064780Y-108329190D01*
X107946223Y-108268781D01*
X107751534Y-108205522D01*
X107576995Y-108177878D01*
X107549352Y-108173500D01*
X107344648Y-108173500D01*
X107320329Y-108177351D01*
X107142465Y-108205522D01*
X106947776Y-108268781D01*
X106765386Y-108361715D01*
X106599786Y-108482028D01*
X106455028Y-108626786D01*
X106334715Y-108792386D01*
X106287485Y-108885080D01*
X106239510Y-108935876D01*
X106171689Y-108952671D01*
X106105554Y-108930134D01*
X106066515Y-108885080D01*
X106060861Y-108873983D01*
X106019287Y-108792390D01*
X105967021Y-108720451D01*
X105898971Y-108626786D01*
X105754213Y-108482028D01*
X105588613Y-108361715D01*
X105588612Y-108361714D01*
X105588610Y-108361713D01*
X105524780Y-108329190D01*
X105406223Y-108268781D01*
X105211534Y-108205522D01*
X105036995Y-108177878D01*
X105009352Y-108173500D01*
X104804648Y-108173500D01*
X104780329Y-108177351D01*
X104602465Y-108205522D01*
X104407776Y-108268781D01*
X104225386Y-108361715D01*
X104059786Y-108482028D01*
X103915028Y-108626786D01*
X103794715Y-108792386D01*
X103747485Y-108885080D01*
X103699510Y-108935876D01*
X103631689Y-108952671D01*
X103565554Y-108930134D01*
X103526515Y-108885080D01*
X103520861Y-108873983D01*
X103479287Y-108792390D01*
X103427021Y-108720451D01*
X103358971Y-108626786D01*
X103214213Y-108482028D01*
X103048613Y-108361715D01*
X103048612Y-108361714D01*
X103048610Y-108361713D01*
X102984780Y-108329190D01*
X102866223Y-108268781D01*
X102671534Y-108205522D01*
X102496995Y-108177878D01*
X102469352Y-108173500D01*
X102264648Y-108173500D01*
X102240329Y-108177351D01*
X102062465Y-108205522D01*
X101867776Y-108268781D01*
X101685386Y-108361715D01*
X101519786Y-108482028D01*
X101375028Y-108626786D01*
X101254715Y-108792386D01*
X101207485Y-108885080D01*
X101159510Y-108935876D01*
X101091689Y-108952671D01*
X101025554Y-108930134D01*
X100986515Y-108885080D01*
X100980861Y-108873983D01*
X100939287Y-108792390D01*
X100887021Y-108720451D01*
X100818971Y-108626786D01*
X100674213Y-108482028D01*
X100508613Y-108361715D01*
X100508612Y-108361714D01*
X100508610Y-108361713D01*
X100444780Y-108329190D01*
X100326223Y-108268781D01*
X100131534Y-108205522D01*
X99956995Y-108177878D01*
X99929352Y-108173500D01*
X99724648Y-108173500D01*
X99700329Y-108177351D01*
X99522465Y-108205522D01*
X99327776Y-108268781D01*
X99145386Y-108361715D01*
X98979786Y-108482028D01*
X98835028Y-108626786D01*
X98714715Y-108792386D01*
X98667485Y-108885080D01*
X98619510Y-108935876D01*
X98551689Y-108952671D01*
X98485554Y-108930134D01*
X98446515Y-108885080D01*
X98440861Y-108873983D01*
X98399287Y-108792390D01*
X98347021Y-108720451D01*
X98278971Y-108626786D01*
X98134213Y-108482028D01*
X97968613Y-108361715D01*
X97968612Y-108361714D01*
X97968610Y-108361713D01*
X97904780Y-108329190D01*
X97786223Y-108268781D01*
X97591534Y-108205522D01*
X97416995Y-108177878D01*
X97389352Y-108173500D01*
X97184648Y-108173500D01*
X97160329Y-108177351D01*
X96982465Y-108205522D01*
X96787776Y-108268781D01*
X96605386Y-108361715D01*
X96439786Y-108482028D01*
X96295028Y-108626786D01*
X96174715Y-108792386D01*
X96127485Y-108885080D01*
X96079510Y-108935876D01*
X96011689Y-108952671D01*
X95945554Y-108930134D01*
X95906515Y-108885080D01*
X95900861Y-108873983D01*
X95859287Y-108792390D01*
X95807021Y-108720451D01*
X95738971Y-108626786D01*
X95594213Y-108482028D01*
X95428613Y-108361715D01*
X95428612Y-108361714D01*
X95428610Y-108361713D01*
X95364780Y-108329190D01*
X95246223Y-108268781D01*
X95051534Y-108205522D01*
X94876995Y-108177878D01*
X94849352Y-108173500D01*
X94644648Y-108173500D01*
X94620329Y-108177351D01*
X94442465Y-108205522D01*
X94247776Y-108268781D01*
X94065386Y-108361715D01*
X93899786Y-108482028D01*
X93755032Y-108626782D01*
X93755028Y-108626787D01*
X93686978Y-108720451D01*
X93631648Y-108763117D01*
X93562035Y-108769096D01*
X93500240Y-108736490D01*
X93468954Y-108686570D01*
X93441814Y-108604666D01*
X93349712Y-108455344D01*
X93225656Y-108331288D01*
X93076334Y-108239186D01*
X92909797Y-108184001D01*
X92909795Y-108184000D01*
X92807010Y-108173500D01*
X91606998Y-108173500D01*
X91606981Y-108173501D01*
X91504203Y-108184000D01*
X91504200Y-108184001D01*
X91337668Y-108239185D01*
X91337663Y-108239187D01*
X91188342Y-108331289D01*
X91064289Y-108455342D01*
X90972187Y-108604663D01*
X90972186Y-108604666D01*
X90917001Y-108771203D01*
X90917001Y-108771204D01*
X90917000Y-108771204D01*
X90906500Y-108873983D01*
X90906500Y-110074001D01*
X90906501Y-110074018D01*
X90917000Y-110176796D01*
X90917001Y-110176799D01*
X90933818Y-110227548D01*
X90972186Y-110343334D01*
X91064288Y-110492656D01*
X91188344Y-110616712D01*
X91337666Y-110708814D01*
X91503585Y-110763794D01*
X91561030Y-110803567D01*
X91587853Y-110868083D01*
X91575538Y-110936858D01*
X91527995Y-110988058D01*
X91464581Y-111005500D01*
X90540500Y-111005500D01*
X90473461Y-110985815D01*
X90427706Y-110933011D01*
X90416500Y-110881500D01*
X90416500Y-92826500D01*
X90436185Y-92759461D01*
X90488989Y-92713706D01*
X90540500Y-92702500D01*
X91987559Y-92702500D01*
X92054598Y-92722185D01*
G37*
%TD.AperFunction*%
%TA.AperFunction,Conductor*%
G36*
X119747000Y-94286661D02*
G01*
X119774259Y-94388394D01*
X119826920Y-94479606D01*
X119901394Y-94554080D01*
X119992606Y-94606741D01*
X120094339Y-94634000D01*
X120100553Y-94634000D01*
X119421076Y-95313474D01*
X119422323Y-95329318D01*
X119438796Y-95350680D01*
X119444775Y-95420293D01*
X119426348Y-95464558D01*
X119381808Y-95531216D01*
X119381802Y-95531227D01*
X119321464Y-95676898D01*
X119321461Y-95676910D01*
X119290700Y-95831553D01*
X119290700Y-95989246D01*
X119321461Y-96143889D01*
X119321464Y-96143901D01*
X119340496Y-96189848D01*
X119347965Y-96259317D01*
X119316689Y-96321796D01*
X119256600Y-96357448D01*
X119225935Y-96361300D01*
X110460755Y-96361300D01*
X110393716Y-96341615D01*
X110373074Y-96324981D01*
X109794274Y-95746181D01*
X109760789Y-95684858D01*
X109765773Y-95615166D01*
X109807645Y-95559233D01*
X109873109Y-95534816D01*
X109881955Y-95534500D01*
X110089351Y-95534500D01*
X110089352Y-95534500D01*
X110291534Y-95502477D01*
X110486219Y-95439220D01*
X110486616Y-95439018D01*
X110490827Y-95436872D01*
X110668610Y-95346287D01*
X110802305Y-95249153D01*
X110834213Y-95225971D01*
X110834215Y-95225968D01*
X110834219Y-95225966D01*
X110978966Y-95081219D01*
X110978968Y-95081215D01*
X110978971Y-95081213D01*
X111099284Y-94915614D01*
X111099286Y-94915611D01*
X111099287Y-94915610D01*
X111146516Y-94822917D01*
X111194489Y-94772123D01*
X111262310Y-94755328D01*
X111328445Y-94777865D01*
X111367485Y-94822919D01*
X111414715Y-94915614D01*
X111535028Y-95081213D01*
X111679786Y-95225971D01*
X111822034Y-95329318D01*
X111845390Y-95346287D01*
X111961607Y-95405503D01*
X112027776Y-95439218D01*
X112027778Y-95439218D01*
X112027781Y-95439220D01*
X112125214Y-95470878D01*
X112222465Y-95502477D01*
X112264647Y-95509158D01*
X112424648Y-95534500D01*
X112424649Y-95534500D01*
X112629351Y-95534500D01*
X112629352Y-95534500D01*
X112831534Y-95502477D01*
X113026219Y-95439220D01*
X113026616Y-95439018D01*
X113030827Y-95436872D01*
X113208610Y-95346287D01*
X113342305Y-95249153D01*
X113374213Y-95225971D01*
X113374215Y-95225968D01*
X113374219Y-95225966D01*
X113518966Y-95081219D01*
X113518968Y-95081215D01*
X113518971Y-95081213D01*
X113639284Y-94915614D01*
X113639286Y-94915611D01*
X113639287Y-94915610D01*
X113686516Y-94822917D01*
X113734489Y-94772123D01*
X113802310Y-94755328D01*
X113868445Y-94777865D01*
X113907485Y-94822919D01*
X113954715Y-94915614D01*
X114075028Y-95081213D01*
X114219786Y-95225971D01*
X114362034Y-95329318D01*
X114385390Y-95346287D01*
X114501607Y-95405503D01*
X114567776Y-95439218D01*
X114567778Y-95439218D01*
X114567781Y-95439220D01*
X114665214Y-95470878D01*
X114762465Y-95502477D01*
X114804647Y-95509158D01*
X114964648Y-95534500D01*
X114964649Y-95534500D01*
X115169351Y-95534500D01*
X115169352Y-95534500D01*
X115371534Y-95502477D01*
X115566219Y-95439220D01*
X115566616Y-95439018D01*
X115570827Y-95436872D01*
X115748610Y-95346287D01*
X115882305Y-95249153D01*
X115914213Y-95225971D01*
X115914215Y-95225968D01*
X115914219Y-95225966D01*
X116058966Y-95081219D01*
X116058968Y-95081215D01*
X116058971Y-95081213D01*
X116179284Y-94915614D01*
X116179286Y-94915611D01*
X116179287Y-94915610D01*
X116226516Y-94822917D01*
X116274489Y-94772123D01*
X116342310Y-94755328D01*
X116408445Y-94777865D01*
X116447485Y-94822919D01*
X116494715Y-94915614D01*
X116615028Y-95081213D01*
X116759786Y-95225971D01*
X116902034Y-95329318D01*
X116925390Y-95346287D01*
X117041607Y-95405503D01*
X117107776Y-95439218D01*
X117107778Y-95439218D01*
X117107781Y-95439220D01*
X117205214Y-95470878D01*
X117302465Y-95502477D01*
X117344647Y-95509158D01*
X117504648Y-95534500D01*
X117504649Y-95534500D01*
X117709351Y-95534500D01*
X117709352Y-95534500D01*
X117911534Y-95502477D01*
X118106219Y-95439220D01*
X118106616Y-95439018D01*
X118110827Y-95436872D01*
X118288610Y-95346287D01*
X118422305Y-95249153D01*
X118454213Y-95225971D01*
X118454215Y-95225968D01*
X118454219Y-95225966D01*
X118598966Y-95081219D01*
X118598968Y-95081215D01*
X118598971Y-95081213D01*
X118719286Y-94915611D01*
X118719415Y-94915359D01*
X118766795Y-94822369D01*
X118814769Y-94771573D01*
X118882590Y-94754778D01*
X118948725Y-94777315D01*
X118987765Y-94822369D01*
X119035141Y-94915350D01*
X119035147Y-94915359D01*
X119067523Y-94959921D01*
X119067524Y-94959922D01*
X119747000Y-94280446D01*
X119747000Y-94286661D01*
G37*
%TD.AperFunction*%
%TA.AperFunction,Conductor*%
G36*
X121226474Y-94959922D02*
G01*
X121226474Y-94959921D01*
X121258861Y-94915347D01*
X121258861Y-94915346D01*
X121306234Y-94822371D01*
X121354208Y-94771575D01*
X121422028Y-94754779D01*
X121488164Y-94777316D01*
X121527203Y-94822369D01*
X121574713Y-94915611D01*
X121695028Y-95081213D01*
X121839786Y-95225971D01*
X121982034Y-95329318D01*
X122005390Y-95346287D01*
X122121607Y-95405503D01*
X122187776Y-95439218D01*
X122187778Y-95439218D01*
X122187781Y-95439220D01*
X122285214Y-95470878D01*
X122382465Y-95502477D01*
X122394278Y-95504348D01*
X122457413Y-95534277D01*
X122494344Y-95593589D01*
X122493346Y-95663451D01*
X122489441Y-95674273D01*
X122468410Y-95725045D01*
X122468407Y-95725057D01*
X122437646Y-95879700D01*
X122437646Y-96037393D01*
X122468407Y-96192036D01*
X122470177Y-96197871D01*
X122468420Y-96198403D01*
X122471007Y-96222476D01*
X122475676Y-96254947D01*
X122474721Y-96257037D01*
X122474967Y-96259322D01*
X122460281Y-96288657D01*
X122446651Y-96318503D01*
X122444717Y-96319745D01*
X122443689Y-96321800D01*
X122415478Y-96338536D01*
X122387873Y-96356277D01*
X122384839Y-96356713D01*
X122383599Y-96357449D01*
X122352938Y-96361300D01*
X122129951Y-96361300D01*
X122062912Y-96341615D01*
X122017157Y-96288811D01*
X122005951Y-96237300D01*
X122005951Y-96139704D01*
X122005950Y-96139702D01*
X121985599Y-96037391D01*
X121975188Y-95985052D01*
X121948205Y-95919909D01*
X121914848Y-95839376D01*
X121914841Y-95839363D01*
X121827240Y-95708260D01*
X121827237Y-95708256D01*
X121715743Y-95596762D01*
X121715739Y-95596759D01*
X121584636Y-95509158D01*
X121584623Y-95509151D01*
X121438952Y-95448813D01*
X121438940Y-95448810D01*
X121284296Y-95418049D01*
X121284293Y-95418049D01*
X121126609Y-95418049D01*
X121126604Y-95418049D01*
X121021187Y-95439018D01*
X120951596Y-95432791D01*
X120896418Y-95389928D01*
X120873174Y-95324038D01*
X120873300Y-95313852D01*
X120193447Y-94634000D01*
X120199661Y-94634000D01*
X120301394Y-94606741D01*
X120392606Y-94554080D01*
X120467080Y-94479606D01*
X120519741Y-94388394D01*
X120547000Y-94286661D01*
X120547000Y-94280448D01*
X121226474Y-94959922D01*
G37*
%TD.AperFunction*%
%TA.AperFunction,Conductor*%
G36*
X119997789Y-92722185D02*
G01*
X120043544Y-92774989D01*
X120053488Y-92844147D01*
X120024463Y-92907703D01*
X119965685Y-92945477D01*
X119950148Y-92948973D01*
X119842582Y-92966009D01*
X119647968Y-93029244D01*
X119465644Y-93122143D01*
X119421077Y-93154523D01*
X119421077Y-93154524D01*
X120100554Y-93834000D01*
X120094339Y-93834000D01*
X119992606Y-93861259D01*
X119901394Y-93913920D01*
X119826920Y-93988394D01*
X119774259Y-94079606D01*
X119747000Y-94181339D01*
X119747000Y-94187553D01*
X119067524Y-93508077D01*
X119067523Y-93508077D01*
X119035143Y-93552644D01*
X118987765Y-93645630D01*
X118939790Y-93696426D01*
X118871969Y-93713221D01*
X118805834Y-93690683D01*
X118766795Y-93645630D01*
X118719284Y-93552385D01*
X118598971Y-93386786D01*
X118454213Y-93242028D01*
X118288613Y-93121715D01*
X118288612Y-93121714D01*
X118288610Y-93121713D01*
X118231653Y-93092691D01*
X118106223Y-93028781D01*
X117911534Y-92965522D01*
X117807043Y-92948973D01*
X117743908Y-92919044D01*
X117706977Y-92859732D01*
X117707975Y-92789870D01*
X117746585Y-92731637D01*
X117810549Y-92703523D01*
X117826441Y-92702500D01*
X119930750Y-92702500D01*
X119997789Y-92722185D01*
G37*
%TD.AperFunction*%
%TA.AperFunction,Conductor*%
G36*
X122534598Y-92722185D02*
G01*
X122580353Y-92774989D01*
X122590297Y-92844147D01*
X122561272Y-92907703D01*
X122502494Y-92945477D01*
X122486957Y-92948973D01*
X122382465Y-92965522D01*
X122187776Y-93028781D01*
X122005386Y-93121715D01*
X121839786Y-93242028D01*
X121695028Y-93386786D01*
X121574713Y-93552388D01*
X121527203Y-93645630D01*
X121479228Y-93696426D01*
X121411407Y-93713220D01*
X121345272Y-93690682D01*
X121306234Y-93645628D01*
X121258861Y-93552652D01*
X121226474Y-93508077D01*
X121226474Y-93508076D01*
X120547000Y-94187551D01*
X120547000Y-94181339D01*
X120519741Y-94079606D01*
X120467080Y-93988394D01*
X120392606Y-93913920D01*
X120301394Y-93861259D01*
X120199661Y-93834000D01*
X120193446Y-93834000D01*
X120872922Y-93154524D01*
X120872921Y-93154523D01*
X120828359Y-93122147D01*
X120828350Y-93122141D01*
X120646031Y-93029244D01*
X120451417Y-92966009D01*
X120343852Y-92948973D01*
X120280717Y-92919044D01*
X120243786Y-92859732D01*
X120244784Y-92789870D01*
X120283394Y-92731637D01*
X120347358Y-92703523D01*
X120363250Y-92702500D01*
X122467559Y-92702500D01*
X122534598Y-92722185D01*
G37*
%TD.AperFunction*%
%TD*%
M02*
