%TF.GenerationSoftware,KiCad,Pcbnew,9.0.9*%
%TF.CreationDate,2026-08-16T17:48:38-07:00*%
%TF.ProjectId,ZID_POD,5a49445f-504f-4442-9e6b-696361645f70,PR1.0*%
%TF.SameCoordinates,Original*%
%TF.FileFunction,Plated,1,4,PTH,Drill*%
%TF.FilePolarity,Positive*%
%FSLAX46Y46*%
G04 Gerber Fmt 4.6, Leading zero omitted, Abs format (unit mm)*
G04 Created by KiCad (PCBNEW 9.0.9) date 2026-08-16 17:48:38*
%MOMM*%
%LPD*%
G01*
G04 APERTURE LIST*
%TA.AperFunction,ViaDrill*%
%ADD10C,0.300000*%
%TD*%
%TA.AperFunction,ComponentDrill*%
%ADD11C,0.800000*%
%TD*%
G04 APERTURE END LIST*
D10*
X108559600Y-103149400D03*
X109601000Y-103149400D03*
X110490000Y-95935800D03*
X111887000Y-107619800D03*
X112801400Y-95935800D03*
X116582000Y-103149400D03*
X117068600Y-101244400D03*
X117149250Y-102579400D03*
X117754400Y-100674400D03*
X117779800Y-101852600D03*
X118364000Y-100104400D03*
X119019600Y-99681800D03*
X119989600Y-99681800D03*
X120091200Y-95910400D03*
X120573800Y-103352600D03*
X121205451Y-96218549D03*
X123238146Y-95958547D03*
X123786662Y-97022235D03*
X124612400Y-97256600D03*
X125941742Y-99027753D03*
X125958600Y-96799400D03*
X126404274Y-99655820D03*
X126735595Y-100361958D03*
X127101600Y-98374200D03*
D11*
%TO.C,Z80-SKT1*%
X92207000Y-94234000D03*
X92207000Y-109474000D03*
X94747000Y-94234000D03*
X94747000Y-109474000D03*
X97287000Y-94234000D03*
X97287000Y-109474000D03*
X99827000Y-94234000D03*
X99827000Y-109474000D03*
X102367000Y-94234000D03*
X102367000Y-109474000D03*
X104907000Y-94234000D03*
X104907000Y-109474000D03*
X107447000Y-94234000D03*
X107447000Y-109474000D03*
X109987000Y-94234000D03*
X109987000Y-109474000D03*
X112527000Y-94234000D03*
X112527000Y-109474000D03*
X115067000Y-94234000D03*
X115067000Y-109474000D03*
X117607000Y-94234000D03*
X117607000Y-109474000D03*
X120147000Y-94234000D03*
X120147000Y-109474000D03*
X122687000Y-94234000D03*
X122687000Y-109474000D03*
X125227000Y-94234000D03*
X125227000Y-109474000D03*
X127767000Y-94234000D03*
X127767000Y-109474000D03*
X130307000Y-94234000D03*
X130307000Y-109474000D03*
X132847000Y-94234000D03*
X132847000Y-109474000D03*
X135387000Y-94234000D03*
X135387000Y-109474000D03*
X137927000Y-94234000D03*
X137927000Y-109474000D03*
X140467000Y-94234000D03*
X140467000Y-109474000D03*
M02*
