%TF.GenerationSoftware,KiCad,Pcbnew,9.0.9*%
%TF.CreationDate,2026-08-16T17:48:34-07:00*%
%TF.ProjectId,ZID_POD,5a49445f-504f-4442-9e6b-696361645f70,PR1.0*%
%TF.SameCoordinates,Original*%
%TF.FileFunction,Soldermask,Top*%
%TF.FilePolarity,Negative*%
%FSLAX46Y46*%
G04 Gerber Fmt 4.6, Leading zero omitted, Abs format (unit mm)*
G04 Created by KiCad (PCBNEW 9.0.9) date 2026-08-16 17:48:34*
%MOMM*%
%LPD*%
G01*
G04 APERTURE LIST*
G04 Aperture macros list*
%AMRoundRect*
0 Rectangle with rounded corners*
0 $1 Rounding radius*
0 $2 $3 $4 $5 $6 $7 $8 $9 X,Y pos of 4 corners*
0 Add a 4 corners polygon primitive as box body*
4,1,4,$2,$3,$4,$5,$6,$7,$8,$9,$2,$3,0*
0 Add four circle primitives for the rounded corners*
1,1,$1+$1,$2,$3*
1,1,$1+$1,$4,$5*
1,1,$1+$1,$6,$7*
1,1,$1+$1,$8,$9*
0 Add four rect primitives between the rounded corners*
20,1,$1+$1,$2,$3,$4,$5,0*
20,1,$1+$1,$4,$5,$6,$7,0*
20,1,$1+$1,$6,$7,$8,$9,0*
20,1,$1+$1,$8,$9,$2,$3,0*%
G04 Aperture macros list end*
%ADD10RoundRect,0.250000X0.550000X-0.550000X0.550000X0.550000X-0.550000X0.550000X-0.550000X-0.550000X0*%
%ADD11C,1.600000*%
%ADD12R,0.300000X1.300000*%
%ADD13R,2.000000X1.800000*%
G04 APERTURE END LIST*
D10*
%TO.C,Z80-SKT1*%
X92207000Y-109474000D03*
D11*
X94747000Y-109474000D03*
X97287000Y-109474000D03*
X99827000Y-109474000D03*
X102367000Y-109474000D03*
X104907000Y-109474000D03*
X107447000Y-109474000D03*
X109987000Y-109474000D03*
X112527000Y-109474000D03*
X115067000Y-109474000D03*
X117607000Y-109474000D03*
X120147000Y-109474000D03*
X122687000Y-109474000D03*
X125227000Y-109474000D03*
X127767000Y-109474000D03*
X130307000Y-109474000D03*
X132847000Y-109474000D03*
X135387000Y-109474000D03*
X137927000Y-109474000D03*
X140467000Y-109474000D03*
X140467000Y-94234000D03*
X137927000Y-94234000D03*
X135387000Y-94234000D03*
X132847000Y-94234000D03*
X130307000Y-94234000D03*
X127767000Y-94234000D03*
X125227000Y-94234000D03*
X122687000Y-94234000D03*
X120147000Y-94234000D03*
X117607000Y-94234000D03*
X115067000Y-94234000D03*
X112527000Y-94234000D03*
X109987000Y-94234000D03*
X107447000Y-94234000D03*
X104907000Y-94234000D03*
X102367000Y-94234000D03*
X99827000Y-94234000D03*
X97287000Y-94234000D03*
X94747000Y-94234000D03*
X92207000Y-94234000D03*
%TD*%
D12*
%TO.C,J1*%
X126082001Y-104476201D03*
X125582000Y-104476201D03*
X125082000Y-104476201D03*
X124581999Y-104476201D03*
X124082000Y-104476201D03*
X123582000Y-104476201D03*
X123082000Y-104476201D03*
X122582000Y-104476201D03*
X122082000Y-104476202D03*
X121582000Y-104476201D03*
X121082000Y-104476201D03*
X120582000Y-104476201D03*
X120082000Y-104476201D03*
X119582000Y-104476202D03*
X119082000Y-104476201D03*
X118582000Y-104476201D03*
X118081999Y-104476201D03*
X117582000Y-104476201D03*
X117082001Y-104476201D03*
X116582000Y-104476201D03*
X116082000Y-104476201D03*
X115581999Y-104476201D03*
X115082000Y-104476201D03*
X114582001Y-104476201D03*
X114082000Y-104476201D03*
X113582000Y-104476201D03*
X113082000Y-104476202D03*
X112582000Y-104476201D03*
X112082000Y-104476201D03*
X111582000Y-104476201D03*
X111082000Y-104476201D03*
X110582000Y-104476202D03*
X110082000Y-104476201D03*
X109582000Y-104476201D03*
X109082000Y-104476201D03*
X108582000Y-104476201D03*
X108082001Y-104476201D03*
X107582000Y-104476201D03*
X107082000Y-104476201D03*
X106581999Y-104476201D03*
D13*
X127885600Y-101745401D03*
X104778400Y-101745401D03*
%TD*%
M02*
