%TF.GenerationSoftware,KiCad,Pcbnew,9.0.9*%
%TF.CreationDate,2026-08-16T17:48:33-07:00*%
%TF.ProjectId,ZID_POD,5a49445f-504f-4442-9e6b-696361645f70,PR1.0*%
%TF.SameCoordinates,Original*%
%TF.FileFunction,Copper,L4,Bot*%
%TF.FilePolarity,Positive*%
%FSLAX46Y46*%
G04 Gerber Fmt 4.6, Leading zero omitted, Abs format (unit mm)*
G04 Created by KiCad (PCBNEW 9.0.9) date 2026-08-16 17:48:33*
%MOMM*%
%LPD*%
G01*
G04 APERTURE LIST*
G04 Aperture macros list*
%AMRoundRect*
0 Rectangle with rounded corners*
0 $1 Rounding radius*
0 $2 $3 $4 $5 $6 $7 $8 $9 X,Y pos of 4 corners*
0 Add a 4 corners polygon primitive as box body*
4,1,4,$2,$3,$4,$5,$6,$7,$8,$9,$2,$3,0*
0 Add four circle primitives for the rounded corners*
1,1,$1+$1,$2,$3*
1,1,$1+$1,$4,$5*
1,1,$1+$1,$6,$7*
1,1,$1+$1,$8,$9*
0 Add four rect primitives between the rounded corners*
20,1,$1+$1,$2,$3,$4,$5,0*
20,1,$1+$1,$4,$5,$6,$7,0*
20,1,$1+$1,$6,$7,$8,$9,0*
20,1,$1+$1,$8,$9,$2,$3,0*%
G04 Aperture macros list end*
%TA.AperFunction,ComponentPad*%
%ADD10RoundRect,0.250000X0.550000X-0.550000X0.550000X0.550000X-0.550000X0.550000X-0.550000X-0.550000X0*%
%TD*%
%TA.AperFunction,ComponentPad*%
%ADD11C,1.600000*%
%TD*%
%TA.AperFunction,ViaPad*%
%ADD12C,0.600000*%
%TD*%
%TA.AperFunction,Conductor*%
%ADD13C,0.180000*%
%TD*%
G04 APERTURE END LIST*
D10*
%TO.P,Z80-SKT1,1,A11*%
%TO.N,/A11*%
X92207000Y-109474000D03*
D11*
%TO.P,Z80-SKT1,2,A12*%
%TO.N,/A12*%
X94747000Y-109474000D03*
%TO.P,Z80-SKT1,3,A13*%
%TO.N,/A13*%
X97287000Y-109474000D03*
%TO.P,Z80-SKT1,4,A14*%
%TO.N,/A14*%
X99827000Y-109474000D03*
%TO.P,Z80-SKT1,5,A15*%
%TO.N,/A15*%
X102367000Y-109474000D03*
%TO.P,Z80-SKT1,6,CLK*%
%TO.N,/CLK*%
X104907000Y-109474000D03*
%TO.P,Z80-SKT1,7,D4*%
%TO.N,/D4*%
X107447000Y-109474000D03*
%TO.P,Z80-SKT1,8,D3*%
%TO.N,/D3*%
X109987000Y-109474000D03*
%TO.P,Z80-SKT1,9,D5*%
%TO.N,/D5*%
X112527000Y-109474000D03*
%TO.P,Z80-SKT1,10,D6*%
%TO.N,/D6*%
X115067000Y-109474000D03*
%TO.P,Z80-SKT1,11,NC/GND*%
%TO.N,unconnected-(Z80-SKT1-NC{slash}GND-Pad11)*%
X117607000Y-109474000D03*
%TO.P,Z80-SKT1,12,D2*%
%TO.N,/D2*%
X120147000Y-109474000D03*
%TO.P,Z80-SKT1,13,D7*%
%TO.N,/D7*%
X122687000Y-109474000D03*
%TO.P,Z80-SKT1,14,D0*%
%TO.N,/D0*%
X125227000Y-109474000D03*
%TO.P,Z80-SKT1,15,D1*%
%TO.N,/D1*%
X127767000Y-109474000D03*
%TO.P,Z80-SKT1,16,~{INT}*%
%TO.N,/INT-*%
X130307000Y-109474000D03*
%TO.P,Z80-SKT1,17,~{NMI}*%
%TO.N,/NMI-*%
X132847000Y-109474000D03*
%TO.P,Z80-SKT1,18,~{HALT}*%
%TO.N,/HALT-*%
X135387000Y-109474000D03*
%TO.P,Z80-SKT1,19,~{MREQ}*%
%TO.N,/MREQ-*%
X137927000Y-109474000D03*
%TO.P,Z80-SKT1,20,~{IORQ}*%
%TO.N,/IORQ-*%
X140467000Y-109474000D03*
%TO.P,Z80-SKT1,21,~{RD}*%
%TO.N,/RD-*%
X140467000Y-94234000D03*
%TO.P,Z80-SKT1,22,~{WR}*%
%TO.N,/WR-*%
X137927000Y-94234000D03*
%TO.P,Z80-SKT1,23,~{BUSACK}*%
%TO.N,/BACK-*%
X135387000Y-94234000D03*
%TO.P,Z80-SKT1,24,~{WAIT}*%
%TO.N,/WAIT-*%
X132847000Y-94234000D03*
%TO.P,Z80-SKT1,25,~{BUSREQ}*%
%TO.N,/BREQ-*%
X130307000Y-94234000D03*
%TO.P,Z80-SKT1,26,~{RESET}*%
%TO.N,/RST-*%
X127767000Y-94234000D03*
%TO.P,Z80-SKT1,27,~{M1}*%
%TO.N,/M1-*%
X125227000Y-94234000D03*
%TO.P,Z80-SKT1,28,~{RFSH}*%
%TO.N,/RFSH-*%
X122687000Y-94234000D03*
%TO.P,Z80-SKT1,29,GND*%
%TO.N,/GND*%
X120147000Y-94234000D03*
%TO.P,Z80-SKT1,30,A0*%
%TO.N,/A0*%
X117607000Y-94234000D03*
%TO.P,Z80-SKT1,31,A1*%
%TO.N,/A1*%
X115067000Y-94234000D03*
%TO.P,Z80-SKT1,32,A2*%
%TO.N,/A2*%
X112527000Y-94234000D03*
%TO.P,Z80-SKT1,33,A3*%
%TO.N,/A3*%
X109987000Y-94234000D03*
%TO.P,Z80-SKT1,34,A4*%
%TO.N,/A4*%
X107447000Y-94234000D03*
%TO.P,Z80-SKT1,35,A5*%
%TO.N,/A5*%
X104907000Y-94234000D03*
%TO.P,Z80-SKT1,36,A6*%
%TO.N,/A6*%
X102367000Y-94234000D03*
%TO.P,Z80-SKT1,37,A7*%
%TO.N,/A7*%
X99827000Y-94234000D03*
%TO.P,Z80-SKT1,38,A8*%
%TO.N,/A8*%
X97287000Y-94234000D03*
%TO.P,Z80-SKT1,39,A9*%
%TO.N,/A9*%
X94747000Y-94234000D03*
%TO.P,Z80-SKT1,40,A10*%
%TO.N,/A10*%
X92207000Y-94234000D03*
%TD*%
D12*
%TO.N,/BACK-*%
X117779800Y-101852600D03*
%TO.N,/GND*%
X109601000Y-103149400D03*
X108559600Y-103149400D03*
X112801400Y-95935800D03*
X110490000Y-95935800D03*
%TO.N,/A5*%
X124612400Y-97256600D03*
%TO.N,/RST-*%
X118364000Y-100104400D03*
%TO.N,/A6*%
X125958600Y-96799400D03*
%TO.N,/A7*%
X127101600Y-98374200D03*
%TO.N,/A1*%
X120091200Y-95910400D03*
%TO.N,/A8*%
X125941742Y-99027753D03*
%TO.N,/A10*%
X126735595Y-100361958D03*
%TO.N,/A9*%
X126404274Y-99655820D03*
%TO.N,/A2*%
X121205451Y-96218549D03*
%TO.N,/WR-*%
X117149250Y-102579400D03*
%TO.N,/RD-*%
X116582000Y-103149400D03*
%TO.N,/A4*%
X123786662Y-97022235D03*
%TO.N,/BREQ-*%
X117754400Y-100674400D03*
%TO.N,/M1-*%
X119019600Y-99681800D03*
%TO.N,/RFSH-*%
X119989600Y-99681800D03*
%TO.N,/WAIT-*%
X117068600Y-101244400D03*
%TO.N,/A15*%
X120573800Y-103352600D03*
%TO.N,/D4*%
X111887000Y-107619800D03*
%TO.N,/A3*%
X123238146Y-95958547D03*
%TD*%
D13*
%TO.N,/BACK-*%
X127768400Y-101852600D02*
X135387000Y-94234000D01*
X117779800Y-101852600D02*
X127768400Y-101852600D01*
%TO.N,/RST-*%
X127767000Y-95797102D02*
X127767000Y-94234000D01*
X123310302Y-100253800D02*
X127767000Y-95797102D01*
X118364000Y-100104400D02*
X118513400Y-100253800D01*
X118513400Y-100253800D02*
X123310302Y-100253800D01*
%TO.N,/A1*%
X120091200Y-95910400D02*
X116743400Y-95910400D01*
X116743400Y-95910400D02*
X115067000Y-94234000D01*
%TO.N,/A2*%
X114773400Y-96480400D02*
X112527000Y-94234000D01*
X120943600Y-96480400D02*
X114773400Y-96480400D01*
X121205451Y-96218549D02*
X120943600Y-96480400D01*
%TO.N,/WR-*%
X117149250Y-102579400D02*
X117306050Y-102422600D01*
X117306050Y-102422600D02*
X129738400Y-102422600D01*
X129738400Y-102422600D02*
X137927000Y-94234000D01*
%TO.N,/RD-*%
X117149494Y-103149400D02*
X117200294Y-103200200D01*
X119920098Y-103200200D02*
X120337698Y-102782600D01*
X120337698Y-102782600D02*
X131918400Y-102782600D01*
X131918400Y-102782600D02*
X140467000Y-94234000D01*
X116582000Y-103149400D02*
X117149494Y-103149400D01*
X117200294Y-103200200D02*
X119920098Y-103200200D01*
%TO.N,/BREQ-*%
X117754400Y-100674400D02*
X123488993Y-100674400D01*
X123488993Y-100674400D02*
X125705640Y-98457753D01*
X125705640Y-98457753D02*
X126103647Y-98457753D01*
X126103647Y-98457753D02*
X130307000Y-94254400D01*
%TO.N,/RFSH-*%
X123901200Y-95448200D02*
X122687000Y-94234000D01*
X123901200Y-96101595D02*
X123901200Y-95448200D01*
X120320995Y-99681800D02*
X123901200Y-96101595D01*
X119989600Y-99681800D02*
X120320995Y-99681800D01*
%TO.N,/WAIT-*%
X117106800Y-101282600D02*
X126631600Y-101282600D01*
X132847000Y-95067200D02*
X132847000Y-94234000D01*
X117068600Y-101244400D02*
X117106800Y-101282600D01*
X126631600Y-101282600D02*
X132847000Y-95067200D01*
%TO.N,/A15*%
X108121600Y-103719400D02*
X102367000Y-109474000D01*
X120207000Y-103719400D02*
X108121600Y-103719400D01*
X120573800Y-103352600D02*
X120207000Y-103719400D01*
%TO.N,/D4*%
X109301200Y-107619800D02*
X107447000Y-109474000D01*
X111887000Y-107619800D02*
X109301200Y-107619800D01*
%TO.N,/A3*%
X123116453Y-95958547D02*
X122234600Y-96840400D01*
X123238146Y-95958547D02*
X123116453Y-95958547D01*
X112593400Y-96840400D02*
X109987000Y-94234000D01*
X122234600Y-96840400D02*
X112593400Y-96840400D01*
%TD*%
M02*
