%TF.GenerationSoftware,KiCad,Pcbnew,9.0.9*%
%TF.CreationDate,2026-08-16T17:48:33-07:00*%
%TF.ProjectId,ZID_POD,5a49445f-504f-4442-9e6b-696361645f70,PR1.0*%
%TF.SameCoordinates,Original*%
%TF.FileFunction,Legend,Top*%
%TF.FilePolarity,Positive*%
%FSLAX46Y46*%
G04 Gerber Fmt 4.6, Leading zero omitted, Abs format (unit mm)*
G04 Created by KiCad (PCBNEW 9.0.9) date 2026-08-16 17:48:33*
%MOMM*%
%LPD*%
G01*
G04 APERTURE LIST*
%ADD10C,0.100000*%
%ADD11C,0.119063*%
%ADD12C,0.200000*%
%ADD13C,0.150000*%
%ADD14C,0.120000*%
G04 APERTURE END LIST*
D10*
X104430710Y-97453921D02*
X103922710Y-97961921D01*
X103922709Y-96945921D01*
X104430710Y-97453921D01*
G36*
X104430710Y-97453921D02*
G01*
X103922710Y-97961921D01*
X103922709Y-96945921D01*
X104430710Y-97453921D01*
G37*
X106172000Y-92964000D02*
X105664000Y-92456000D01*
X106680000Y-92456000D01*
X106172000Y-92964000D01*
G36*
X106172000Y-92964000D02*
G01*
X105664000Y-92456000D01*
X106680000Y-92456000D01*
X106172000Y-92964000D01*
G37*
X90424000Y-108458000D02*
X91186000Y-108458000D01*
X91186000Y-110998000D01*
X90424000Y-110998000D01*
X90424000Y-108458000D01*
G36*
X90424000Y-108458000D02*
G01*
X91186000Y-108458000D01*
X91186000Y-110998000D01*
X90424000Y-110998000D01*
X90424000Y-108458000D01*
G37*
X91186000Y-110490000D02*
X93218000Y-110490000D01*
X93218000Y-110998000D01*
X91186000Y-110998000D01*
X91186000Y-110490000D01*
G36*
X91186000Y-110490000D02*
G01*
X93218000Y-110490000D01*
X93218000Y-110998000D01*
X91186000Y-110998000D01*
X91186000Y-110490000D01*
G37*
D11*
X140250340Y-107608598D02*
X140250340Y-106973598D01*
X140250340Y-106973598D02*
X141202840Y-107608598D01*
X141202840Y-107608598D02*
X141202840Y-106973598D01*
X141202840Y-106610741D02*
X140250340Y-106610741D01*
X141202840Y-106157170D02*
X140250340Y-106157170D01*
X140250340Y-106157170D02*
X140250340Y-105930384D01*
X140250340Y-105930384D02*
X140295697Y-105794313D01*
X140295697Y-105794313D02*
X140386411Y-105703598D01*
X140386411Y-105703598D02*
X140477125Y-105658241D01*
X140477125Y-105658241D02*
X140658554Y-105612884D01*
X140658554Y-105612884D02*
X140794625Y-105612884D01*
X140794625Y-105612884D02*
X140976054Y-105658241D01*
X140976054Y-105658241D02*
X141066768Y-105703598D01*
X141066768Y-105703598D02*
X141157483Y-105794313D01*
X141157483Y-105794313D02*
X141202840Y-105930384D01*
X141202840Y-105930384D02*
X141202840Y-106157170D01*
X141202840Y-104478956D02*
X140250340Y-104478956D01*
X140250340Y-104478956D02*
X140250340Y-104116099D01*
X140250340Y-104116099D02*
X140295697Y-104025384D01*
X140295697Y-104025384D02*
X140341054Y-103980027D01*
X140341054Y-103980027D02*
X140431768Y-103934670D01*
X140431768Y-103934670D02*
X140567840Y-103934670D01*
X140567840Y-103934670D02*
X140658554Y-103980027D01*
X140658554Y-103980027D02*
X140703911Y-104025384D01*
X140703911Y-104025384D02*
X140749268Y-104116099D01*
X140749268Y-104116099D02*
X140749268Y-104478956D01*
X140250340Y-103345027D02*
X140250340Y-103163599D01*
X140250340Y-103163599D02*
X140295697Y-103072884D01*
X140295697Y-103072884D02*
X140386411Y-102982170D01*
X140386411Y-102982170D02*
X140567840Y-102936813D01*
X140567840Y-102936813D02*
X140885340Y-102936813D01*
X140885340Y-102936813D02*
X141066768Y-102982170D01*
X141066768Y-102982170D02*
X141157483Y-103072884D01*
X141157483Y-103072884D02*
X141202840Y-103163599D01*
X141202840Y-103163599D02*
X141202840Y-103345027D01*
X141202840Y-103345027D02*
X141157483Y-103435742D01*
X141157483Y-103435742D02*
X141066768Y-103526456D01*
X141066768Y-103526456D02*
X140885340Y-103571813D01*
X140885340Y-103571813D02*
X140567840Y-103571813D01*
X140567840Y-103571813D02*
X140386411Y-103526456D01*
X140386411Y-103526456D02*
X140295697Y-103435742D01*
X140295697Y-103435742D02*
X140250340Y-103345027D01*
X141202840Y-102528599D02*
X140250340Y-102528599D01*
X140250340Y-102528599D02*
X140250340Y-102301813D01*
X140250340Y-102301813D02*
X140295697Y-102165742D01*
X140295697Y-102165742D02*
X140386411Y-102075027D01*
X140386411Y-102075027D02*
X140477125Y-102029670D01*
X140477125Y-102029670D02*
X140658554Y-101984313D01*
X140658554Y-101984313D02*
X140794625Y-101984313D01*
X140794625Y-101984313D02*
X140976054Y-102029670D01*
X140976054Y-102029670D02*
X141066768Y-102075027D01*
X141066768Y-102075027D02*
X141157483Y-102165742D01*
X141157483Y-102165742D02*
X141202840Y-102301813D01*
X141202840Y-102301813D02*
X141202840Y-102528599D01*
X140839983Y-101576099D02*
X140839983Y-100850385D01*
X140341054Y-100442170D02*
X140295697Y-100396813D01*
X140295697Y-100396813D02*
X140250340Y-100306099D01*
X140250340Y-100306099D02*
X140250340Y-100079313D01*
X140250340Y-100079313D02*
X140295697Y-99988599D01*
X140295697Y-99988599D02*
X140341054Y-99943241D01*
X140341054Y-99943241D02*
X140431768Y-99897884D01*
X140431768Y-99897884D02*
X140522483Y-99897884D01*
X140522483Y-99897884D02*
X140658554Y-99943241D01*
X140658554Y-99943241D02*
X141202840Y-100487527D01*
X141202840Y-100487527D02*
X141202840Y-99897884D01*
X140250340Y-98900027D02*
X141202840Y-98582527D01*
X141202840Y-98582527D02*
X140250340Y-98265027D01*
X141202840Y-97448598D02*
X141202840Y-97992884D01*
X141202840Y-97720741D02*
X140250340Y-97720741D01*
X140250340Y-97720741D02*
X140386411Y-97811455D01*
X140386411Y-97811455D02*
X140477125Y-97902170D01*
X140477125Y-97902170D02*
X140522483Y-97992884D01*
X141112125Y-97040384D02*
X141157483Y-96995027D01*
X141157483Y-96995027D02*
X141202840Y-97040384D01*
X141202840Y-97040384D02*
X141157483Y-97085741D01*
X141157483Y-97085741D02*
X141112125Y-97040384D01*
X141112125Y-97040384D02*
X141202840Y-97040384D01*
X140250340Y-96405384D02*
X140250340Y-96314670D01*
X140250340Y-96314670D02*
X140295697Y-96223956D01*
X140295697Y-96223956D02*
X140341054Y-96178599D01*
X140341054Y-96178599D02*
X140431768Y-96133241D01*
X140431768Y-96133241D02*
X140613197Y-96087884D01*
X140613197Y-96087884D02*
X140839983Y-96087884D01*
X140839983Y-96087884D02*
X141021411Y-96133241D01*
X141021411Y-96133241D02*
X141112125Y-96178599D01*
X141112125Y-96178599D02*
X141157483Y-96223956D01*
X141157483Y-96223956D02*
X141202840Y-96314670D01*
X141202840Y-96314670D02*
X141202840Y-96405384D01*
X141202840Y-96405384D02*
X141157483Y-96496099D01*
X141157483Y-96496099D02*
X141112125Y-96541456D01*
X141112125Y-96541456D02*
X141021411Y-96586813D01*
X141021411Y-96586813D02*
X140839983Y-96632170D01*
X140839983Y-96632170D02*
X140613197Y-96632170D01*
X140613197Y-96632170D02*
X140431768Y-96586813D01*
X140431768Y-96586813D02*
X140341054Y-96541456D01*
X140341054Y-96541456D02*
X140295697Y-96496099D01*
X140295697Y-96496099D02*
X140250340Y-96405384D01*
D12*
X97339145Y-95807791D02*
X98005811Y-95807791D01*
X98005811Y-95807791D02*
X97339145Y-96807791D01*
X97339145Y-96807791D02*
X98005811Y-96807791D01*
X98386764Y-96807791D02*
X98386764Y-95807791D01*
X98862954Y-96807791D02*
X98862954Y-95807791D01*
X98862954Y-95807791D02*
X99101049Y-95807791D01*
X99101049Y-95807791D02*
X99243906Y-95855410D01*
X99243906Y-95855410D02*
X99339144Y-95950648D01*
X99339144Y-95950648D02*
X99386763Y-96045886D01*
X99386763Y-96045886D02*
X99434382Y-96236362D01*
X99434382Y-96236362D02*
X99434382Y-96379219D01*
X99434382Y-96379219D02*
X99386763Y-96569695D01*
X99386763Y-96569695D02*
X99339144Y-96664933D01*
X99339144Y-96664933D02*
X99243906Y-96760172D01*
X99243906Y-96760172D02*
X99101049Y-96807791D01*
X99101049Y-96807791D02*
X98862954Y-96807791D01*
X101196287Y-96712552D02*
X101148668Y-96760172D01*
X101148668Y-96760172D02*
X101005811Y-96807791D01*
X101005811Y-96807791D02*
X100910573Y-96807791D01*
X100910573Y-96807791D02*
X100767716Y-96760172D01*
X100767716Y-96760172D02*
X100672478Y-96664933D01*
X100672478Y-96664933D02*
X100624859Y-96569695D01*
X100624859Y-96569695D02*
X100577240Y-96379219D01*
X100577240Y-96379219D02*
X100577240Y-96236362D01*
X100577240Y-96236362D02*
X100624859Y-96045886D01*
X100624859Y-96045886D02*
X100672478Y-95950648D01*
X100672478Y-95950648D02*
X100767716Y-95855410D01*
X100767716Y-95855410D02*
X100910573Y-95807791D01*
X100910573Y-95807791D02*
X101005811Y-95807791D01*
X101005811Y-95807791D02*
X101148668Y-95855410D01*
X101148668Y-95855410D02*
X101196287Y-95903029D01*
X101958192Y-96283981D02*
X102101049Y-96331600D01*
X102101049Y-96331600D02*
X102148668Y-96379219D01*
X102148668Y-96379219D02*
X102196287Y-96474457D01*
X102196287Y-96474457D02*
X102196287Y-96617314D01*
X102196287Y-96617314D02*
X102148668Y-96712552D01*
X102148668Y-96712552D02*
X102101049Y-96760172D01*
X102101049Y-96760172D02*
X102005811Y-96807791D01*
X102005811Y-96807791D02*
X101624859Y-96807791D01*
X101624859Y-96807791D02*
X101624859Y-95807791D01*
X101624859Y-95807791D02*
X101958192Y-95807791D01*
X101958192Y-95807791D02*
X102053430Y-95855410D01*
X102053430Y-95855410D02*
X102101049Y-95903029D01*
X102101049Y-95903029D02*
X102148668Y-95998267D01*
X102148668Y-95998267D02*
X102148668Y-96093505D01*
X102148668Y-96093505D02*
X102101049Y-96188743D01*
X102101049Y-96188743D02*
X102053430Y-96236362D01*
X102053430Y-96236362D02*
X101958192Y-96283981D01*
X101958192Y-96283981D02*
X101624859Y-96283981D01*
X103101049Y-96807791D02*
X102624859Y-96807791D01*
X102624859Y-96807791D02*
X102624859Y-95807791D01*
X97434383Y-98417735D02*
X97434383Y-97417735D01*
X97434383Y-97417735D02*
X97815335Y-97417735D01*
X97815335Y-97417735D02*
X97910573Y-97465354D01*
X97910573Y-97465354D02*
X97958192Y-97512973D01*
X97958192Y-97512973D02*
X98005811Y-97608211D01*
X98005811Y-97608211D02*
X98005811Y-97751068D01*
X98005811Y-97751068D02*
X97958192Y-97846306D01*
X97958192Y-97846306D02*
X97910573Y-97893925D01*
X97910573Y-97893925D02*
X97815335Y-97941544D01*
X97815335Y-97941544D02*
X97434383Y-97941544D01*
X98434383Y-98417735D02*
X98434383Y-97417735D01*
X98910573Y-98417735D02*
X98910573Y-97417735D01*
X98910573Y-97417735D02*
X99482001Y-98417735D01*
X99482001Y-98417735D02*
X99482001Y-97417735D01*
X99958192Y-98036782D02*
X100720097Y-98036782D01*
X101720096Y-98417735D02*
X101148668Y-98417735D01*
X101434382Y-98417735D02*
X101434382Y-97417735D01*
X101434382Y-97417735D02*
X101339144Y-97560592D01*
X101339144Y-97560592D02*
X101243906Y-97655830D01*
X101243906Y-97655830D02*
X101148668Y-97703449D01*
D13*
X92063219Y-105592094D02*
X92063219Y-104925428D01*
X92063219Y-104925428D02*
X93063219Y-105592094D01*
X93063219Y-105592094D02*
X93063219Y-104925428D01*
X92491790Y-104401618D02*
X92444171Y-104496856D01*
X92444171Y-104496856D02*
X92396552Y-104544475D01*
X92396552Y-104544475D02*
X92301314Y-104592094D01*
X92301314Y-104592094D02*
X92253695Y-104592094D01*
X92253695Y-104592094D02*
X92158457Y-104544475D01*
X92158457Y-104544475D02*
X92110838Y-104496856D01*
X92110838Y-104496856D02*
X92063219Y-104401618D01*
X92063219Y-104401618D02*
X92063219Y-104211142D01*
X92063219Y-104211142D02*
X92110838Y-104115904D01*
X92110838Y-104115904D02*
X92158457Y-104068285D01*
X92158457Y-104068285D02*
X92253695Y-104020666D01*
X92253695Y-104020666D02*
X92301314Y-104020666D01*
X92301314Y-104020666D02*
X92396552Y-104068285D01*
X92396552Y-104068285D02*
X92444171Y-104115904D01*
X92444171Y-104115904D02*
X92491790Y-104211142D01*
X92491790Y-104211142D02*
X92491790Y-104401618D01*
X92491790Y-104401618D02*
X92539409Y-104496856D01*
X92539409Y-104496856D02*
X92587028Y-104544475D01*
X92587028Y-104544475D02*
X92682266Y-104592094D01*
X92682266Y-104592094D02*
X92872742Y-104592094D01*
X92872742Y-104592094D02*
X92967980Y-104544475D01*
X92967980Y-104544475D02*
X93015600Y-104496856D01*
X93015600Y-104496856D02*
X93063219Y-104401618D01*
X93063219Y-104401618D02*
X93063219Y-104211142D01*
X93063219Y-104211142D02*
X93015600Y-104115904D01*
X93015600Y-104115904D02*
X92967980Y-104068285D01*
X92967980Y-104068285D02*
X92872742Y-104020666D01*
X92872742Y-104020666D02*
X92682266Y-104020666D01*
X92682266Y-104020666D02*
X92587028Y-104068285D01*
X92587028Y-104068285D02*
X92539409Y-104115904D01*
X92539409Y-104115904D02*
X92491790Y-104211142D01*
X92063219Y-103401618D02*
X92063219Y-103306380D01*
X92063219Y-103306380D02*
X92110838Y-103211142D01*
X92110838Y-103211142D02*
X92158457Y-103163523D01*
X92158457Y-103163523D02*
X92253695Y-103115904D01*
X92253695Y-103115904D02*
X92444171Y-103068285D01*
X92444171Y-103068285D02*
X92682266Y-103068285D01*
X92682266Y-103068285D02*
X92872742Y-103115904D01*
X92872742Y-103115904D02*
X92967980Y-103163523D01*
X92967980Y-103163523D02*
X93015600Y-103211142D01*
X93015600Y-103211142D02*
X93063219Y-103306380D01*
X93063219Y-103306380D02*
X93063219Y-103401618D01*
X93063219Y-103401618D02*
X93015600Y-103496856D01*
X93015600Y-103496856D02*
X92967980Y-103544475D01*
X92967980Y-103544475D02*
X92872742Y-103592094D01*
X92872742Y-103592094D02*
X92682266Y-103639713D01*
X92682266Y-103639713D02*
X92444171Y-103639713D01*
X92444171Y-103639713D02*
X92253695Y-103592094D01*
X92253695Y-103592094D02*
X92158457Y-103544475D01*
X92158457Y-103544475D02*
X92110838Y-103496856D01*
X92110838Y-103496856D02*
X92063219Y-103401618D01*
X92682266Y-102639713D02*
X92682266Y-101877809D01*
X93015600Y-101449237D02*
X93063219Y-101306380D01*
X93063219Y-101306380D02*
X93063219Y-101068285D01*
X93063219Y-101068285D02*
X93015600Y-100973047D01*
X93015600Y-100973047D02*
X92967980Y-100925428D01*
X92967980Y-100925428D02*
X92872742Y-100877809D01*
X92872742Y-100877809D02*
X92777504Y-100877809D01*
X92777504Y-100877809D02*
X92682266Y-100925428D01*
X92682266Y-100925428D02*
X92634647Y-100973047D01*
X92634647Y-100973047D02*
X92587028Y-101068285D01*
X92587028Y-101068285D02*
X92539409Y-101258761D01*
X92539409Y-101258761D02*
X92491790Y-101353999D01*
X92491790Y-101353999D02*
X92444171Y-101401618D01*
X92444171Y-101401618D02*
X92348933Y-101449237D01*
X92348933Y-101449237D02*
X92253695Y-101449237D01*
X92253695Y-101449237D02*
X92158457Y-101401618D01*
X92158457Y-101401618D02*
X92110838Y-101353999D01*
X92110838Y-101353999D02*
X92063219Y-101258761D01*
X92063219Y-101258761D02*
X92063219Y-101020666D01*
X92063219Y-101020666D02*
X92110838Y-100877809D01*
X93063219Y-100449237D02*
X92063219Y-100449237D01*
X93063219Y-99877809D02*
X92491790Y-100306380D01*
X92063219Y-99877809D02*
X92634647Y-100449237D01*
X92063219Y-99592094D02*
X92063219Y-99020666D01*
X93063219Y-99306380D02*
X92063219Y-99306380D01*
X93063219Y-98163523D02*
X93063219Y-98734951D01*
X93063219Y-98449237D02*
X92063219Y-98449237D01*
X92063219Y-98449237D02*
X92206076Y-98544475D01*
X92206076Y-98544475D02*
X92301314Y-98639713D01*
X92301314Y-98639713D02*
X92348933Y-98734951D01*
X115998666Y-105781020D02*
X115998666Y-106495305D01*
X115998666Y-106495305D02*
X115951047Y-106638162D01*
X115951047Y-106638162D02*
X115855809Y-106733401D01*
X115855809Y-106733401D02*
X115712952Y-106781020D01*
X115712952Y-106781020D02*
X115617714Y-106781020D01*
X116998666Y-106781020D02*
X116427238Y-106781020D01*
X116712952Y-106781020D02*
X116712952Y-105781020D01*
X116712952Y-105781020D02*
X116617714Y-105923877D01*
X116617714Y-105923877D02*
X116522476Y-106019115D01*
X116522476Y-106019115D02*
X116427238Y-106066734D01*
D14*
%TO.C,Z80-SKT1*%
X90877000Y-95394000D02*
X90877000Y-100854000D01*
X90877000Y-102854000D02*
X90877000Y-108314000D01*
X90877000Y-108314000D02*
X141797000Y-108314000D01*
X141797000Y-95394000D02*
X90877000Y-95394000D01*
X141797000Y-108314000D02*
X141797000Y-95394000D01*
X90817000Y-110804000D02*
X141857000Y-110804000D01*
X141857000Y-92904000D01*
X90817000Y-92904000D01*
X90817000Y-110804000D01*
X90877000Y-100854000D02*
G75*
G02*
X90877000Y-102854000I0J-1000000D01*
G01*
%TO.C,J1*%
X104682000Y-103926201D02*
X104682000Y-102829401D01*
X104698799Y-98257401D02*
X104698800Y-99991001D01*
X106172000Y-103926201D02*
X104682000Y-103926201D01*
X126492000Y-103926201D02*
X126492000Y-105126201D01*
X126492000Y-103926201D02*
X127982000Y-103926201D01*
X127982000Y-99866201D02*
X127982000Y-98257401D01*
X127982000Y-103926201D02*
X127982000Y-102829401D01*
X127998800Y-98257400D02*
X104698799Y-98257401D01*
%TD*%
M02*
