%TF.GenerationSoftware,KiCad,Pcbnew,9.0.9*%
%TF.CreationDate,2026-08-16T17:48:34-07:00*%
%TF.ProjectId,ZID_POD,5a49445f-504f-4442-9e6b-696361645f70,PR1.0*%
%TF.SameCoordinates,Original*%
%TF.FileFunction,Legend,Bot*%
%TF.FilePolarity,Positive*%
%FSLAX46Y46*%
G04 Gerber Fmt 4.6, Leading zero omitted, Abs format (unit mm)*
G04 Created by KiCad (PCBNEW 9.0.9) date 2026-08-16 17:48:34*
%MOMM*%
%LPD*%
G01*
G04 APERTURE LIST*
%ADD10C,0.100000*%
%ADD11C,0.200000*%
%ADD12C,0.150000*%
G04 APERTURE END LIST*
D10*
X104394000Y-97455405D02*
X103886000Y-97963405D01*
X103885999Y-96947405D01*
X104394000Y-97455405D01*
G36*
X104394000Y-97455405D02*
G01*
X103886000Y-97963405D01*
X103885999Y-96947405D01*
X104394000Y-97455405D01*
G37*
X108852687Y-107473180D02*
X108900306Y-107520800D01*
X108900306Y-107520800D02*
X109043163Y-107568419D01*
X109043163Y-107568419D02*
X109138401Y-107568419D01*
X109138401Y-107568419D02*
X109281258Y-107520800D01*
X109281258Y-107520800D02*
X109376496Y-107425561D01*
X109376496Y-107425561D02*
X109424115Y-107330323D01*
X109424115Y-107330323D02*
X109471734Y-107139847D01*
X109471734Y-107139847D02*
X109471734Y-106996990D01*
X109471734Y-106996990D02*
X109424115Y-106806514D01*
X109424115Y-106806514D02*
X109376496Y-106711276D01*
X109376496Y-106711276D02*
X109281258Y-106616038D01*
X109281258Y-106616038D02*
X109138401Y-106568419D01*
X109138401Y-106568419D02*
X109043163Y-106568419D01*
X109043163Y-106568419D02*
X108900306Y-106616038D01*
X108900306Y-106616038D02*
X108852687Y-106663657D01*
X108281258Y-107568419D02*
X108376496Y-107520800D01*
X108376496Y-107520800D02*
X108424115Y-107473180D01*
X108424115Y-107473180D02*
X108471734Y-107377942D01*
X108471734Y-107377942D02*
X108471734Y-107092228D01*
X108471734Y-107092228D02*
X108424115Y-106996990D01*
X108424115Y-106996990D02*
X108376496Y-106949371D01*
X108376496Y-106949371D02*
X108281258Y-106901752D01*
X108281258Y-106901752D02*
X108138401Y-106901752D01*
X108138401Y-106901752D02*
X108043163Y-106949371D01*
X108043163Y-106949371D02*
X107995544Y-106996990D01*
X107995544Y-106996990D02*
X107947925Y-107092228D01*
X107947925Y-107092228D02*
X107947925Y-107377942D01*
X107947925Y-107377942D02*
X107995544Y-107473180D01*
X107995544Y-107473180D02*
X108043163Y-107520800D01*
X108043163Y-107520800D02*
X108138401Y-107568419D01*
X108138401Y-107568419D02*
X108281258Y-107568419D01*
X107519353Y-106901752D02*
X107519353Y-107901752D01*
X107519353Y-106949371D02*
X107424115Y-106901752D01*
X107424115Y-106901752D02*
X107233639Y-106901752D01*
X107233639Y-106901752D02*
X107138401Y-106949371D01*
X107138401Y-106949371D02*
X107090782Y-106996990D01*
X107090782Y-106996990D02*
X107043163Y-107092228D01*
X107043163Y-107092228D02*
X107043163Y-107377942D01*
X107043163Y-107377942D02*
X107090782Y-107473180D01*
X107090782Y-107473180D02*
X107138401Y-107520800D01*
X107138401Y-107520800D02*
X107233639Y-107568419D01*
X107233639Y-107568419D02*
X107424115Y-107568419D01*
X107424115Y-107568419D02*
X107519353Y-107520800D01*
X106709829Y-106901752D02*
X106471734Y-107568419D01*
X106233639Y-106901752D02*
X106471734Y-107568419D01*
X106471734Y-107568419D02*
X106566972Y-107806514D01*
X106566972Y-107806514D02*
X106614591Y-107854133D01*
X106614591Y-107854133D02*
X106709829Y-107901752D01*
X105852686Y-107568419D02*
X105852686Y-106901752D01*
X105852686Y-107092228D02*
X105805067Y-106996990D01*
X105805067Y-106996990D02*
X105757448Y-106949371D01*
X105757448Y-106949371D02*
X105662210Y-106901752D01*
X105662210Y-106901752D02*
X105566972Y-106901752D01*
X105233638Y-107568419D02*
X105233638Y-106901752D01*
X105233638Y-106568419D02*
X105281257Y-106616038D01*
X105281257Y-106616038D02*
X105233638Y-106663657D01*
X105233638Y-106663657D02*
X105186019Y-106616038D01*
X105186019Y-106616038D02*
X105233638Y-106568419D01*
X105233638Y-106568419D02*
X105233638Y-106663657D01*
X104328877Y-106901752D02*
X104328877Y-107711276D01*
X104328877Y-107711276D02*
X104376496Y-107806514D01*
X104376496Y-107806514D02*
X104424115Y-107854133D01*
X104424115Y-107854133D02*
X104519353Y-107901752D01*
X104519353Y-107901752D02*
X104662210Y-107901752D01*
X104662210Y-107901752D02*
X104757448Y-107854133D01*
X104328877Y-107520800D02*
X104424115Y-107568419D01*
X104424115Y-107568419D02*
X104614591Y-107568419D01*
X104614591Y-107568419D02*
X104709829Y-107520800D01*
X104709829Y-107520800D02*
X104757448Y-107473180D01*
X104757448Y-107473180D02*
X104805067Y-107377942D01*
X104805067Y-107377942D02*
X104805067Y-107092228D01*
X104805067Y-107092228D02*
X104757448Y-106996990D01*
X104757448Y-106996990D02*
X104709829Y-106949371D01*
X104709829Y-106949371D02*
X104614591Y-106901752D01*
X104614591Y-106901752D02*
X104424115Y-106901752D01*
X104424115Y-106901752D02*
X104328877Y-106949371D01*
X103852686Y-107568419D02*
X103852686Y-106568419D01*
X103424115Y-107568419D02*
X103424115Y-107044609D01*
X103424115Y-107044609D02*
X103471734Y-106949371D01*
X103471734Y-106949371D02*
X103566972Y-106901752D01*
X103566972Y-106901752D02*
X103709829Y-106901752D01*
X103709829Y-106901752D02*
X103805067Y-106949371D01*
X103805067Y-106949371D02*
X103852686Y-106996990D01*
X103090781Y-106901752D02*
X102709829Y-106901752D01*
X102947924Y-106568419D02*
X102947924Y-107425561D01*
X102947924Y-107425561D02*
X102900305Y-107520800D01*
X102900305Y-107520800D02*
X102805067Y-107568419D01*
X102805067Y-107568419D02*
X102709829Y-107568419D01*
X101662209Y-106663657D02*
X101614590Y-106616038D01*
X101614590Y-106616038D02*
X101519352Y-106568419D01*
X101519352Y-106568419D02*
X101281257Y-106568419D01*
X101281257Y-106568419D02*
X101186019Y-106616038D01*
X101186019Y-106616038D02*
X101138400Y-106663657D01*
X101138400Y-106663657D02*
X101090781Y-106758895D01*
X101090781Y-106758895D02*
X101090781Y-106854133D01*
X101090781Y-106854133D02*
X101138400Y-106996990D01*
X101138400Y-106996990D02*
X101709828Y-107568419D01*
X101709828Y-107568419D02*
X101090781Y-107568419D01*
X100471733Y-106568419D02*
X100376495Y-106568419D01*
X100376495Y-106568419D02*
X100281257Y-106616038D01*
X100281257Y-106616038D02*
X100233638Y-106663657D01*
X100233638Y-106663657D02*
X100186019Y-106758895D01*
X100186019Y-106758895D02*
X100138400Y-106949371D01*
X100138400Y-106949371D02*
X100138400Y-107187466D01*
X100138400Y-107187466D02*
X100186019Y-107377942D01*
X100186019Y-107377942D02*
X100233638Y-107473180D01*
X100233638Y-107473180D02*
X100281257Y-107520800D01*
X100281257Y-107520800D02*
X100376495Y-107568419D01*
X100376495Y-107568419D02*
X100471733Y-107568419D01*
X100471733Y-107568419D02*
X100566971Y-107520800D01*
X100566971Y-107520800D02*
X100614590Y-107473180D01*
X100614590Y-107473180D02*
X100662209Y-107377942D01*
X100662209Y-107377942D02*
X100709828Y-107187466D01*
X100709828Y-107187466D02*
X100709828Y-106949371D01*
X100709828Y-106949371D02*
X100662209Y-106758895D01*
X100662209Y-106758895D02*
X100614590Y-106663657D01*
X100614590Y-106663657D02*
X100566971Y-106616038D01*
X100566971Y-106616038D02*
X100471733Y-106568419D01*
X99757447Y-106663657D02*
X99709828Y-106616038D01*
X99709828Y-106616038D02*
X99614590Y-106568419D01*
X99614590Y-106568419D02*
X99376495Y-106568419D01*
X99376495Y-106568419D02*
X99281257Y-106616038D01*
X99281257Y-106616038D02*
X99233638Y-106663657D01*
X99233638Y-106663657D02*
X99186019Y-106758895D01*
X99186019Y-106758895D02*
X99186019Y-106854133D01*
X99186019Y-106854133D02*
X99233638Y-106996990D01*
X99233638Y-106996990D02*
X99805066Y-107568419D01*
X99805066Y-107568419D02*
X99186019Y-107568419D01*
X98328876Y-106568419D02*
X98519352Y-106568419D01*
X98519352Y-106568419D02*
X98614590Y-106616038D01*
X98614590Y-106616038D02*
X98662209Y-106663657D01*
X98662209Y-106663657D02*
X98757447Y-106806514D01*
X98757447Y-106806514D02*
X98805066Y-106996990D01*
X98805066Y-106996990D02*
X98805066Y-107377942D01*
X98805066Y-107377942D02*
X98757447Y-107473180D01*
X98757447Y-107473180D02*
X98709828Y-107520800D01*
X98709828Y-107520800D02*
X98614590Y-107568419D01*
X98614590Y-107568419D02*
X98424114Y-107568419D01*
X98424114Y-107568419D02*
X98328876Y-107520800D01*
X98328876Y-107520800D02*
X98281257Y-107473180D01*
X98281257Y-107473180D02*
X98233638Y-107377942D01*
X98233638Y-107377942D02*
X98233638Y-107139847D01*
X98233638Y-107139847D02*
X98281257Y-107044609D01*
X98281257Y-107044609D02*
X98328876Y-106996990D01*
X98328876Y-106996990D02*
X98424114Y-106949371D01*
X98424114Y-106949371D02*
X98614590Y-106949371D01*
X98614590Y-106949371D02*
X98709828Y-106996990D01*
X98709828Y-106996990D02*
X98757447Y-107044609D01*
X98757447Y-107044609D02*
X98805066Y-107139847D01*
X97757447Y-107520800D02*
X97757447Y-107568419D01*
X97757447Y-107568419D02*
X97805066Y-107663657D01*
X97805066Y-107663657D02*
X97852685Y-107711276D01*
X96614590Y-107282704D02*
X96138400Y-107282704D01*
X96709828Y-107568419D02*
X96376495Y-106568419D01*
X96376495Y-106568419D02*
X96043162Y-107568419D01*
X95709828Y-107044609D02*
X95376495Y-107044609D01*
X95233638Y-107568419D02*
X95709828Y-107568419D01*
X95709828Y-107568419D02*
X95709828Y-106568419D01*
X95709828Y-106568419D02*
X95233638Y-106568419D01*
X94852685Y-107520800D02*
X94709828Y-107568419D01*
X94709828Y-107568419D02*
X94471733Y-107568419D01*
X94471733Y-107568419D02*
X94376495Y-107520800D01*
X94376495Y-107520800D02*
X94328876Y-107473180D01*
X94328876Y-107473180D02*
X94281257Y-107377942D01*
X94281257Y-107377942D02*
X94281257Y-107282704D01*
X94281257Y-107282704D02*
X94328876Y-107187466D01*
X94328876Y-107187466D02*
X94376495Y-107139847D01*
X94376495Y-107139847D02*
X94471733Y-107092228D01*
X94471733Y-107092228D02*
X94662209Y-107044609D01*
X94662209Y-107044609D02*
X94757447Y-106996990D01*
X94757447Y-106996990D02*
X94805066Y-106949371D01*
X94805066Y-106949371D02*
X94852685Y-106854133D01*
X94852685Y-106854133D02*
X94852685Y-106758895D01*
X94852685Y-106758895D02*
X94805066Y-106663657D01*
X94805066Y-106663657D02*
X94757447Y-106616038D01*
X94757447Y-106616038D02*
X94662209Y-106568419D01*
X94662209Y-106568419D02*
X94424114Y-106568419D01*
X94424114Y-106568419D02*
X94281257Y-106616038D01*
X93852685Y-107568419D02*
X93852685Y-106901752D01*
X93852685Y-106568419D02*
X93900304Y-106616038D01*
X93900304Y-106616038D02*
X93852685Y-106663657D01*
X93852685Y-106663657D02*
X93805066Y-106616038D01*
X93805066Y-106616038D02*
X93852685Y-106568419D01*
X93852685Y-106568419D02*
X93852685Y-106663657D01*
X93233638Y-107568419D02*
X93328876Y-107520800D01*
X93328876Y-107520800D02*
X93376495Y-107425561D01*
X93376495Y-107425561D02*
X93376495Y-106568419D01*
X92852685Y-107568419D02*
X92852685Y-106568419D01*
X92757447Y-107187466D02*
X92471733Y-107568419D01*
X92471733Y-106901752D02*
X92852685Y-107282704D01*
X92138399Y-106901752D02*
X91900304Y-107568419D01*
X91662209Y-106901752D02*
X91900304Y-107568419D01*
X91900304Y-107568419D02*
X91995542Y-107806514D01*
X91995542Y-107806514D02*
X92043161Y-107854133D01*
X92043161Y-107854133D02*
X92138399Y-107901752D01*
D11*
X102849564Y-95809275D02*
X102182898Y-95809275D01*
X102182898Y-95809275D02*
X102849564Y-96809275D01*
X102849564Y-96809275D02*
X102182898Y-96809275D01*
X101801945Y-96809275D02*
X101801945Y-95809275D01*
X101325755Y-96809275D02*
X101325755Y-95809275D01*
X101325755Y-95809275D02*
X101087660Y-95809275D01*
X101087660Y-95809275D02*
X100944803Y-95856894D01*
X100944803Y-95856894D02*
X100849565Y-95952132D01*
X100849565Y-95952132D02*
X100801946Y-96047370D01*
X100801946Y-96047370D02*
X100754327Y-96237846D01*
X100754327Y-96237846D02*
X100754327Y-96380703D01*
X100754327Y-96380703D02*
X100801946Y-96571179D01*
X100801946Y-96571179D02*
X100849565Y-96666417D01*
X100849565Y-96666417D02*
X100944803Y-96761656D01*
X100944803Y-96761656D02*
X101087660Y-96809275D01*
X101087660Y-96809275D02*
X101325755Y-96809275D01*
X98992422Y-96714036D02*
X99040041Y-96761656D01*
X99040041Y-96761656D02*
X99182898Y-96809275D01*
X99182898Y-96809275D02*
X99278136Y-96809275D01*
X99278136Y-96809275D02*
X99420993Y-96761656D01*
X99420993Y-96761656D02*
X99516231Y-96666417D01*
X99516231Y-96666417D02*
X99563850Y-96571179D01*
X99563850Y-96571179D02*
X99611469Y-96380703D01*
X99611469Y-96380703D02*
X99611469Y-96237846D01*
X99611469Y-96237846D02*
X99563850Y-96047370D01*
X99563850Y-96047370D02*
X99516231Y-95952132D01*
X99516231Y-95952132D02*
X99420993Y-95856894D01*
X99420993Y-95856894D02*
X99278136Y-95809275D01*
X99278136Y-95809275D02*
X99182898Y-95809275D01*
X99182898Y-95809275D02*
X99040041Y-95856894D01*
X99040041Y-95856894D02*
X98992422Y-95904513D01*
X98230517Y-96285465D02*
X98087660Y-96333084D01*
X98087660Y-96333084D02*
X98040041Y-96380703D01*
X98040041Y-96380703D02*
X97992422Y-96475941D01*
X97992422Y-96475941D02*
X97992422Y-96618798D01*
X97992422Y-96618798D02*
X98040041Y-96714036D01*
X98040041Y-96714036D02*
X98087660Y-96761656D01*
X98087660Y-96761656D02*
X98182898Y-96809275D01*
X98182898Y-96809275D02*
X98563850Y-96809275D01*
X98563850Y-96809275D02*
X98563850Y-95809275D01*
X98563850Y-95809275D02*
X98230517Y-95809275D01*
X98230517Y-95809275D02*
X98135279Y-95856894D01*
X98135279Y-95856894D02*
X98087660Y-95904513D01*
X98087660Y-95904513D02*
X98040041Y-95999751D01*
X98040041Y-95999751D02*
X98040041Y-96094989D01*
X98040041Y-96094989D02*
X98087660Y-96190227D01*
X98087660Y-96190227D02*
X98135279Y-96237846D01*
X98135279Y-96237846D02*
X98230517Y-96285465D01*
X98230517Y-96285465D02*
X98563850Y-96285465D01*
X97087660Y-96809275D02*
X97563850Y-96809275D01*
X97563850Y-96809275D02*
X97563850Y-95809275D01*
X102754326Y-98419219D02*
X102754326Y-97419219D01*
X102754326Y-97419219D02*
X102373374Y-97419219D01*
X102373374Y-97419219D02*
X102278136Y-97466838D01*
X102278136Y-97466838D02*
X102230517Y-97514457D01*
X102230517Y-97514457D02*
X102182898Y-97609695D01*
X102182898Y-97609695D02*
X102182898Y-97752552D01*
X102182898Y-97752552D02*
X102230517Y-97847790D01*
X102230517Y-97847790D02*
X102278136Y-97895409D01*
X102278136Y-97895409D02*
X102373374Y-97943028D01*
X102373374Y-97943028D02*
X102754326Y-97943028D01*
X101754326Y-98419219D02*
X101754326Y-97419219D01*
X101278136Y-98419219D02*
X101278136Y-97419219D01*
X101278136Y-97419219D02*
X100706708Y-98419219D01*
X100706708Y-98419219D02*
X100706708Y-97419219D01*
X100230517Y-98038266D02*
X99468613Y-98038266D01*
X98468613Y-98419219D02*
X99040041Y-98419219D01*
X98754327Y-98419219D02*
X98754327Y-97419219D01*
X98754327Y-97419219D02*
X98849565Y-97562076D01*
X98849565Y-97562076D02*
X98944803Y-97657314D01*
X98944803Y-97657314D02*
X99040041Y-97704933D01*
D12*
X123498667Y-96957210D02*
X123832000Y-96957210D01*
X123832000Y-97481020D02*
X123832000Y-96481020D01*
X123832000Y-96481020D02*
X123355810Y-96481020D01*
X122641524Y-96957210D02*
X122974857Y-96957210D01*
X122974857Y-97481020D02*
X122974857Y-96481020D01*
X122974857Y-96481020D02*
X122498667Y-96481020D01*
X121546286Y-97385781D02*
X121593905Y-97433401D01*
X121593905Y-97433401D02*
X121736762Y-97481020D01*
X121736762Y-97481020D02*
X121832000Y-97481020D01*
X121832000Y-97481020D02*
X121974857Y-97433401D01*
X121974857Y-97433401D02*
X122070095Y-97338162D01*
X122070095Y-97338162D02*
X122117714Y-97242924D01*
X122117714Y-97242924D02*
X122165333Y-97052448D01*
X122165333Y-97052448D02*
X122165333Y-96909591D01*
X122165333Y-96909591D02*
X122117714Y-96719115D01*
X122117714Y-96719115D02*
X122070095Y-96623877D01*
X122070095Y-96623877D02*
X121974857Y-96528639D01*
X121974857Y-96528639D02*
X121832000Y-96481020D01*
X121832000Y-96481020D02*
X121736762Y-96481020D01*
X121736762Y-96481020D02*
X121593905Y-96528639D01*
X121593905Y-96528639D02*
X121546286Y-96576258D01*
X120403429Y-96433401D02*
X121260571Y-97719115D01*
X119736762Y-96957210D02*
X120070095Y-96957210D01*
X120070095Y-97481020D02*
X120070095Y-96481020D01*
X120070095Y-96481020D02*
X119593905Y-96481020D01*
X119212952Y-97481020D02*
X119212952Y-96481020D01*
X119212952Y-96481020D02*
X118832000Y-96481020D01*
X118832000Y-96481020D02*
X118736762Y-96528639D01*
X118736762Y-96528639D02*
X118689143Y-96576258D01*
X118689143Y-96576258D02*
X118641524Y-96671496D01*
X118641524Y-96671496D02*
X118641524Y-96814353D01*
X118641524Y-96814353D02*
X118689143Y-96909591D01*
X118689143Y-96909591D02*
X118736762Y-96957210D01*
X118736762Y-96957210D02*
X118832000Y-97004829D01*
X118832000Y-97004829D02*
X119212952Y-97004829D01*
X117641524Y-97385781D02*
X117689143Y-97433401D01*
X117689143Y-97433401D02*
X117832000Y-97481020D01*
X117832000Y-97481020D02*
X117927238Y-97481020D01*
X117927238Y-97481020D02*
X118070095Y-97433401D01*
X118070095Y-97433401D02*
X118165333Y-97338162D01*
X118165333Y-97338162D02*
X118212952Y-97242924D01*
X118212952Y-97242924D02*
X118260571Y-97052448D01*
X118260571Y-97052448D02*
X118260571Y-96909591D01*
X118260571Y-96909591D02*
X118212952Y-96719115D01*
X118212952Y-96719115D02*
X118165333Y-96623877D01*
X118165333Y-96623877D02*
X118070095Y-96528639D01*
X118070095Y-96528639D02*
X117927238Y-96481020D01*
X117927238Y-96481020D02*
X117832000Y-96481020D01*
X117832000Y-96481020D02*
X117689143Y-96528639D01*
X117689143Y-96528639D02*
X117641524Y-96576258D01*
X117212952Y-97100067D02*
X116451048Y-97100067D01*
X115546286Y-96814353D02*
X115546286Y-97481020D01*
X115784381Y-96433401D02*
X116022476Y-97147686D01*
X116022476Y-97147686D02*
X115403429Y-97147686D01*
X114832000Y-96481020D02*
X114736762Y-96481020D01*
X114736762Y-96481020D02*
X114641524Y-96528639D01*
X114641524Y-96528639D02*
X114593905Y-96576258D01*
X114593905Y-96576258D02*
X114546286Y-96671496D01*
X114546286Y-96671496D02*
X114498667Y-96861972D01*
X114498667Y-96861972D02*
X114498667Y-97100067D01*
X114498667Y-97100067D02*
X114546286Y-97290543D01*
X114546286Y-97290543D02*
X114593905Y-97385781D01*
X114593905Y-97385781D02*
X114641524Y-97433401D01*
X114641524Y-97433401D02*
X114736762Y-97481020D01*
X114736762Y-97481020D02*
X114832000Y-97481020D01*
X114832000Y-97481020D02*
X114927238Y-97433401D01*
X114927238Y-97433401D02*
X114974857Y-97385781D01*
X114974857Y-97385781D02*
X115022476Y-97290543D01*
X115022476Y-97290543D02*
X115070095Y-97100067D01*
X115070095Y-97100067D02*
X115070095Y-96861972D01*
X115070095Y-96861972D02*
X115022476Y-96671496D01*
X115022476Y-96671496D02*
X114974857Y-96576258D01*
X114974857Y-96576258D02*
X114927238Y-96528639D01*
X114927238Y-96528639D02*
X114832000Y-96481020D01*
X113355809Y-97433401D02*
X113212952Y-97481020D01*
X113212952Y-97481020D02*
X112974857Y-97481020D01*
X112974857Y-97481020D02*
X112879619Y-97433401D01*
X112879619Y-97433401D02*
X112832000Y-97385781D01*
X112832000Y-97385781D02*
X112784381Y-97290543D01*
X112784381Y-97290543D02*
X112784381Y-97195305D01*
X112784381Y-97195305D02*
X112832000Y-97100067D01*
X112832000Y-97100067D02*
X112879619Y-97052448D01*
X112879619Y-97052448D02*
X112974857Y-97004829D01*
X112974857Y-97004829D02*
X113165333Y-96957210D01*
X113165333Y-96957210D02*
X113260571Y-96909591D01*
X113260571Y-96909591D02*
X113308190Y-96861972D01*
X113308190Y-96861972D02*
X113355809Y-96766734D01*
X113355809Y-96766734D02*
X113355809Y-96671496D01*
X113355809Y-96671496D02*
X113308190Y-96576258D01*
X113308190Y-96576258D02*
X113260571Y-96528639D01*
X113260571Y-96528639D02*
X113165333Y-96481020D01*
X113165333Y-96481020D02*
X112927238Y-96481020D01*
X112927238Y-96481020D02*
X112784381Y-96528639D01*
X112212952Y-97481020D02*
X112308190Y-97433401D01*
X112308190Y-97433401D02*
X112355809Y-97385781D01*
X112355809Y-97385781D02*
X112403428Y-97290543D01*
X112403428Y-97290543D02*
X112403428Y-97004829D01*
X112403428Y-97004829D02*
X112355809Y-96909591D01*
X112355809Y-96909591D02*
X112308190Y-96861972D01*
X112308190Y-96861972D02*
X112212952Y-96814353D01*
X112212952Y-96814353D02*
X112070095Y-96814353D01*
X112070095Y-96814353D02*
X111974857Y-96861972D01*
X111974857Y-96861972D02*
X111927238Y-96909591D01*
X111927238Y-96909591D02*
X111879619Y-97004829D01*
X111879619Y-97004829D02*
X111879619Y-97290543D01*
X111879619Y-97290543D02*
X111927238Y-97385781D01*
X111927238Y-97385781D02*
X111974857Y-97433401D01*
X111974857Y-97433401D02*
X112070095Y-97481020D01*
X112070095Y-97481020D02*
X112212952Y-97481020D01*
X111022476Y-97433401D02*
X111117714Y-97481020D01*
X111117714Y-97481020D02*
X111308190Y-97481020D01*
X111308190Y-97481020D02*
X111403428Y-97433401D01*
X111403428Y-97433401D02*
X111451047Y-97385781D01*
X111451047Y-97385781D02*
X111498666Y-97290543D01*
X111498666Y-97290543D02*
X111498666Y-97004829D01*
X111498666Y-97004829D02*
X111451047Y-96909591D01*
X111451047Y-96909591D02*
X111403428Y-96861972D01*
X111403428Y-96861972D02*
X111308190Y-96814353D01*
X111308190Y-96814353D02*
X111117714Y-96814353D01*
X111117714Y-96814353D02*
X111022476Y-96861972D01*
X110593904Y-97481020D02*
X110593904Y-96481020D01*
X110498666Y-97100067D02*
X110212952Y-97481020D01*
X110212952Y-96814353D02*
X110593904Y-97195305D01*
X109403428Y-97433401D02*
X109498666Y-97481020D01*
X109498666Y-97481020D02*
X109689142Y-97481020D01*
X109689142Y-97481020D02*
X109784380Y-97433401D01*
X109784380Y-97433401D02*
X109831999Y-97338162D01*
X109831999Y-97338162D02*
X109831999Y-96957210D01*
X109831999Y-96957210D02*
X109784380Y-96861972D01*
X109784380Y-96861972D02*
X109689142Y-96814353D01*
X109689142Y-96814353D02*
X109498666Y-96814353D01*
X109498666Y-96814353D02*
X109403428Y-96861972D01*
X109403428Y-96861972D02*
X109355809Y-96957210D01*
X109355809Y-96957210D02*
X109355809Y-97052448D01*
X109355809Y-97052448D02*
X109831999Y-97147686D01*
X109070094Y-96814353D02*
X108689142Y-96814353D01*
X108927237Y-96481020D02*
X108927237Y-97338162D01*
X108927237Y-97338162D02*
X108879618Y-97433401D01*
X108879618Y-97433401D02*
X108784380Y-97481020D01*
X108784380Y-97481020D02*
X108689142Y-97481020D01*
M02*
