%TF.GenerationSoftware,KiCad,Pcbnew,9.0.9*%
%TF.CreationDate,2026-08-16T17:48:33-07:00*%
%TF.ProjectId,ZID_POD,5a49445f-504f-4442-9e6b-696361645f70,PR1.0*%
%TF.SameCoordinates,Original*%
%TF.FileFunction,Copper,L2,Inr*%
%TF.FilePolarity,Positive*%
%FSLAX46Y46*%
G04 Gerber Fmt 4.6, Leading zero omitted, Abs format (unit mm)*
G04 Created by KiCad (PCBNEW 9.0.9) date 2026-08-16 17:48:33*
%MOMM*%
%LPD*%
G01*
G04 APERTURE LIST*
G04 Aperture macros list*
%AMRoundRect*
0 Rectangle with rounded corners*
0 $1 Rounding radius*
0 $2 $3 $4 $5 $6 $7 $8 $9 X,Y pos of 4 corners*
0 Add a 4 corners polygon primitive as box body*
4,1,4,$2,$3,$4,$5,$6,$7,$8,$9,$2,$3,0*
0 Add four circle primitives for the rounded corners*
1,1,$1+$1,$2,$3*
1,1,$1+$1,$4,$5*
1,1,$1+$1,$6,$7*
1,1,$1+$1,$8,$9*
0 Add four rect primitives between the rounded corners*
20,1,$1+$1,$2,$3,$4,$5,0*
20,1,$1+$1,$4,$5,$6,$7,0*
20,1,$1+$1,$6,$7,$8,$9,0*
20,1,$1+$1,$8,$9,$2,$3,0*%
G04 Aperture macros list end*
%TA.AperFunction,ComponentPad*%
%ADD10RoundRect,0.250000X0.550000X-0.550000X0.550000X0.550000X-0.550000X0.550000X-0.550000X-0.550000X0*%
%TD*%
%TA.AperFunction,ComponentPad*%
%ADD11C,1.600000*%
%TD*%
%TA.AperFunction,ViaPad*%
%ADD12C,0.600000*%
%TD*%
G04 APERTURE END LIST*
D10*
%TO.N,/A11*%
%TO.C,Z80-SKT1*%
X92207000Y-109474000D03*
D11*
%TO.N,/A12*%
X94747000Y-109474000D03*
%TO.N,/A13*%
X97287000Y-109474000D03*
%TO.N,/A14*%
X99827000Y-109474000D03*
%TO.N,/A15*%
X102367000Y-109474000D03*
%TO.N,/CLK*%
X104907000Y-109474000D03*
%TO.N,/D4*%
X107447000Y-109474000D03*
%TO.N,/D3*%
X109987000Y-109474000D03*
%TO.N,/D5*%
X112527000Y-109474000D03*
%TO.N,/D6*%
X115067000Y-109474000D03*
%TO.N,unconnected-(Z80-SKT1-NC{slash}GND-Pad11)*%
X117607000Y-109474000D03*
%TO.N,/D2*%
X120147000Y-109474000D03*
%TO.N,/D7*%
X122687000Y-109474000D03*
%TO.N,/D0*%
X125227000Y-109474000D03*
%TO.N,/D1*%
X127767000Y-109474000D03*
%TO.N,/INT-*%
X130307000Y-109474000D03*
%TO.N,/NMI-*%
X132847000Y-109474000D03*
%TO.N,/HALT-*%
X135387000Y-109474000D03*
%TO.N,/MREQ-*%
X137927000Y-109474000D03*
%TO.N,/IORQ-*%
X140467000Y-109474000D03*
%TO.N,/RD-*%
X140467000Y-94234000D03*
%TO.N,/WR-*%
X137927000Y-94234000D03*
%TO.N,/BACK-*%
X135387000Y-94234000D03*
%TO.N,/WAIT-*%
X132847000Y-94234000D03*
%TO.N,/BREQ-*%
X130307000Y-94234000D03*
%TO.N,/RST-*%
X127767000Y-94234000D03*
%TO.N,/M1-*%
X125227000Y-94234000D03*
%TO.N,/RFSH-*%
X122687000Y-94234000D03*
%TO.N,/GND*%
X120147000Y-94234000D03*
%TO.N,/A0*%
X117607000Y-94234000D03*
%TO.N,/A1*%
X115067000Y-94234000D03*
%TO.N,/A2*%
X112527000Y-94234000D03*
%TO.N,/A3*%
X109987000Y-94234000D03*
%TO.N,/A4*%
X107447000Y-94234000D03*
%TO.N,/A5*%
X104907000Y-94234000D03*
%TO.N,/A6*%
X102367000Y-94234000D03*
%TO.N,/A7*%
X99827000Y-94234000D03*
%TO.N,/A8*%
X97287000Y-94234000D03*
%TO.N,/A9*%
X94747000Y-94234000D03*
%TO.N,/A10*%
X92207000Y-94234000D03*
%TD*%
D12*
%TO.N,/BACK-*%
X117779800Y-101852600D03*
%TO.N,/GND*%
X109601000Y-103149400D03*
X108559600Y-103149400D03*
X112801400Y-95935800D03*
X110490000Y-95935800D03*
%TO.N,/A5*%
X124612400Y-97256600D03*
%TO.N,/RST-*%
X118364000Y-100104400D03*
%TO.N,/A6*%
X125958600Y-96799400D03*
%TO.N,/A7*%
X127101600Y-98374200D03*
%TO.N,/A1*%
X120091200Y-95910400D03*
%TO.N,/A8*%
X125941742Y-99027753D03*
%TO.N,/A10*%
X126735595Y-100361958D03*
%TO.N,/A9*%
X126404274Y-99655820D03*
%TO.N,/A2*%
X121205451Y-96218549D03*
%TO.N,/WR-*%
X117149250Y-102579400D03*
%TO.N,/RD-*%
X116582000Y-103149400D03*
%TO.N,/A4*%
X123786662Y-97022235D03*
%TO.N,/BREQ-*%
X117754400Y-100674400D03*
%TO.N,/M1-*%
X119019600Y-99681800D03*
%TO.N,/RFSH-*%
X119989600Y-99681800D03*
%TO.N,/WAIT-*%
X117068600Y-101244400D03*
%TO.N,/A15*%
X120573800Y-103352600D03*
%TO.N,/D4*%
X111887000Y-107619800D03*
%TO.N,/A3*%
X123238146Y-95958547D03*
%TD*%
%TA.AperFunction,Conductor*%
%TO.N,/GND*%
G36*
X120050713Y-92721494D02*
G01*
X120094862Y-92772446D01*
X120104457Y-92839178D01*
X120076450Y-92900504D01*
X120019734Y-92936953D01*
X120004742Y-92940327D01*
X119842583Y-92966009D01*
X119647979Y-93029241D01*
X119647968Y-93029245D01*
X119465653Y-93122138D01*
X119465647Y-93122142D01*
X119421077Y-93154524D01*
X120100553Y-93834000D01*
X120094339Y-93834000D01*
X119992606Y-93861259D01*
X119901394Y-93913920D01*
X119826920Y-93988394D01*
X119774259Y-94079606D01*
X119747000Y-94181339D01*
X119747000Y-94187553D01*
X119067524Y-93508077D01*
X119035142Y-93552647D01*
X119035138Y-93552653D01*
X118974125Y-93672399D01*
X118927833Y-93721413D01*
X118862391Y-93737619D01*
X118798577Y-93715872D01*
X118760907Y-93672398D01*
X118704410Y-93561515D01*
X118704407Y-93561511D01*
X118704406Y-93561509D01*
X118585694Y-93398116D01*
X118442884Y-93255306D01*
X118442882Y-93255304D01*
X118442879Y-93255302D01*
X118333152Y-93175581D01*
X118279491Y-93136594D01*
X118279490Y-93136593D01*
X118279488Y-93136592D01*
X118279489Y-93136592D01*
X118099544Y-93044906D01*
X118099543Y-93044905D01*
X118099540Y-93044904D01*
X118044021Y-93026865D01*
X117907459Y-92982493D01*
X117739575Y-92955903D01*
X117707982Y-92950900D01*
X117506018Y-92950900D01*
X117306540Y-92982493D01*
X117114466Y-93044902D01*
X117114460Y-93044904D01*
X117114458Y-93044904D01*
X117114455Y-93044906D01*
X116934510Y-93136592D01*
X116771120Y-93255302D01*
X116771117Y-93255304D01*
X116628304Y-93398117D01*
X116628302Y-93398120D01*
X116509592Y-93561510D01*
X116443609Y-93691011D01*
X116397318Y-93740025D01*
X116331876Y-93756231D01*
X116268061Y-93734484D01*
X116230391Y-93691011D01*
X116164407Y-93561510D01*
X116045697Y-93398120D01*
X116045695Y-93398117D01*
X115902882Y-93255304D01*
X115902879Y-93255302D01*
X115793152Y-93175581D01*
X115739491Y-93136594D01*
X115739490Y-93136593D01*
X115739488Y-93136592D01*
X115739489Y-93136592D01*
X115559544Y-93044906D01*
X115559543Y-93044905D01*
X115559540Y-93044904D01*
X115504021Y-93026865D01*
X115367459Y-92982493D01*
X115199575Y-92955903D01*
X115167982Y-92950900D01*
X114966018Y-92950900D01*
X114766540Y-92982493D01*
X114574466Y-93044902D01*
X114574460Y-93044904D01*
X114574458Y-93044904D01*
X114574455Y-93044906D01*
X114394510Y-93136592D01*
X114231120Y-93255302D01*
X114231117Y-93255304D01*
X114088304Y-93398117D01*
X114088302Y-93398120D01*
X113969592Y-93561510D01*
X113903609Y-93691011D01*
X113857318Y-93740025D01*
X113791876Y-93756231D01*
X113728061Y-93734484D01*
X113690391Y-93691011D01*
X113624407Y-93561510D01*
X113505697Y-93398120D01*
X113505695Y-93398117D01*
X113362882Y-93255304D01*
X113362879Y-93255302D01*
X113253152Y-93175581D01*
X113199491Y-93136594D01*
X113199490Y-93136593D01*
X113199488Y-93136592D01*
X113199489Y-93136592D01*
X113019544Y-93044906D01*
X113019543Y-93044905D01*
X113019540Y-93044904D01*
X112964021Y-93026865D01*
X112827459Y-92982493D01*
X112659575Y-92955903D01*
X112627982Y-92950900D01*
X112426018Y-92950900D01*
X112226540Y-92982493D01*
X112034466Y-93044902D01*
X112034460Y-93044904D01*
X112034458Y-93044904D01*
X112034455Y-93044906D01*
X111854510Y-93136592D01*
X111691120Y-93255302D01*
X111691117Y-93255304D01*
X111548304Y-93398117D01*
X111548302Y-93398120D01*
X111429592Y-93561510D01*
X111363609Y-93691011D01*
X111317318Y-93740025D01*
X111251876Y-93756231D01*
X111188061Y-93734484D01*
X111150391Y-93691011D01*
X111084407Y-93561510D01*
X110965697Y-93398120D01*
X110965695Y-93398117D01*
X110822882Y-93255304D01*
X110822879Y-93255302D01*
X110713152Y-93175581D01*
X110659491Y-93136594D01*
X110659490Y-93136593D01*
X110659488Y-93136592D01*
X110659489Y-93136592D01*
X110479544Y-93044906D01*
X110479543Y-93044905D01*
X110479540Y-93044904D01*
X110424021Y-93026865D01*
X110287459Y-92982493D01*
X110119575Y-92955903D01*
X110087982Y-92950900D01*
X109886018Y-92950900D01*
X109686540Y-92982493D01*
X109494466Y-93044902D01*
X109494460Y-93044904D01*
X109494458Y-93044904D01*
X109494455Y-93044906D01*
X109314510Y-93136592D01*
X109151120Y-93255302D01*
X109151117Y-93255304D01*
X109008304Y-93398117D01*
X109008302Y-93398120D01*
X108889592Y-93561510D01*
X108823609Y-93691011D01*
X108777318Y-93740025D01*
X108711876Y-93756231D01*
X108648061Y-93734484D01*
X108610391Y-93691011D01*
X108544407Y-93561510D01*
X108425697Y-93398120D01*
X108425695Y-93398117D01*
X108282882Y-93255304D01*
X108282879Y-93255302D01*
X108173152Y-93175581D01*
X108119491Y-93136594D01*
X108119490Y-93136593D01*
X108119488Y-93136592D01*
X108119489Y-93136592D01*
X107939544Y-93044906D01*
X107939543Y-93044905D01*
X107939540Y-93044904D01*
X107884021Y-93026865D01*
X107747459Y-92982493D01*
X107579575Y-92955903D01*
X107547982Y-92950900D01*
X107346018Y-92950900D01*
X107146540Y-92982493D01*
X106954466Y-93044902D01*
X106954460Y-93044904D01*
X106954458Y-93044904D01*
X106954455Y-93044906D01*
X106774510Y-93136592D01*
X106611120Y-93255302D01*
X106611117Y-93255304D01*
X106468304Y-93398117D01*
X106468302Y-93398120D01*
X106349592Y-93561510D01*
X106283609Y-93691011D01*
X106237318Y-93740025D01*
X106171876Y-93756231D01*
X106108061Y-93734484D01*
X106070391Y-93691011D01*
X106004407Y-93561510D01*
X105885697Y-93398120D01*
X105885695Y-93398117D01*
X105742882Y-93255304D01*
X105742879Y-93255302D01*
X105633152Y-93175581D01*
X105579491Y-93136594D01*
X105579490Y-93136593D01*
X105579488Y-93136592D01*
X105579489Y-93136592D01*
X105399544Y-93044906D01*
X105399543Y-93044905D01*
X105399540Y-93044904D01*
X105344021Y-93026865D01*
X105207459Y-92982493D01*
X105039575Y-92955903D01*
X105007982Y-92950900D01*
X104806018Y-92950900D01*
X104606540Y-92982493D01*
X104414466Y-93044902D01*
X104414460Y-93044904D01*
X104414458Y-93044904D01*
X104414455Y-93044906D01*
X104234510Y-93136592D01*
X104071120Y-93255302D01*
X104071117Y-93255304D01*
X103928304Y-93398117D01*
X103928302Y-93398120D01*
X103809592Y-93561510D01*
X103743609Y-93691011D01*
X103697318Y-93740025D01*
X103631876Y-93756231D01*
X103568061Y-93734484D01*
X103530391Y-93691011D01*
X103464407Y-93561510D01*
X103345697Y-93398120D01*
X103345695Y-93398117D01*
X103202882Y-93255304D01*
X103202879Y-93255302D01*
X103093152Y-93175581D01*
X103039491Y-93136594D01*
X103039490Y-93136593D01*
X103039488Y-93136592D01*
X103039489Y-93136592D01*
X102859544Y-93044906D01*
X102859543Y-93044905D01*
X102859540Y-93044904D01*
X102804021Y-93026865D01*
X102667459Y-92982493D01*
X102499575Y-92955903D01*
X102467982Y-92950900D01*
X102266018Y-92950900D01*
X102066540Y-92982493D01*
X101874466Y-93044902D01*
X101874460Y-93044904D01*
X101874458Y-93044904D01*
X101874455Y-93044906D01*
X101694510Y-93136592D01*
X101531120Y-93255302D01*
X101531117Y-93255304D01*
X101388304Y-93398117D01*
X101388302Y-93398120D01*
X101269592Y-93561510D01*
X101203609Y-93691011D01*
X101157318Y-93740025D01*
X101091876Y-93756231D01*
X101028061Y-93734484D01*
X100990391Y-93691011D01*
X100924407Y-93561510D01*
X100805697Y-93398120D01*
X100805695Y-93398117D01*
X100662882Y-93255304D01*
X100662879Y-93255302D01*
X100553152Y-93175581D01*
X100499491Y-93136594D01*
X100499490Y-93136593D01*
X100499488Y-93136592D01*
X100499489Y-93136592D01*
X100319544Y-93044906D01*
X100319543Y-93044905D01*
X100319540Y-93044904D01*
X100264021Y-93026865D01*
X100127459Y-92982493D01*
X99959575Y-92955903D01*
X99927982Y-92950900D01*
X99726018Y-92950900D01*
X99526540Y-92982493D01*
X99334466Y-93044902D01*
X99334460Y-93044904D01*
X99334458Y-93044904D01*
X99334455Y-93044906D01*
X99154510Y-93136592D01*
X98991120Y-93255302D01*
X98991117Y-93255304D01*
X98848304Y-93398117D01*
X98848302Y-93398120D01*
X98729592Y-93561510D01*
X98663609Y-93691011D01*
X98617318Y-93740025D01*
X98551876Y-93756231D01*
X98488061Y-93734484D01*
X98450391Y-93691011D01*
X98384407Y-93561510D01*
X98265697Y-93398120D01*
X98265695Y-93398117D01*
X98122882Y-93255304D01*
X98122879Y-93255302D01*
X98013152Y-93175581D01*
X97959491Y-93136594D01*
X97959490Y-93136593D01*
X97959488Y-93136592D01*
X97959489Y-93136592D01*
X97779544Y-93044906D01*
X97779543Y-93044905D01*
X97779540Y-93044904D01*
X97724021Y-93026865D01*
X97587459Y-92982493D01*
X97419575Y-92955903D01*
X97387982Y-92950900D01*
X97186018Y-92950900D01*
X96986540Y-92982493D01*
X96794466Y-93044902D01*
X96794460Y-93044904D01*
X96794458Y-93044904D01*
X96794455Y-93044906D01*
X96614510Y-93136592D01*
X96451120Y-93255302D01*
X96451117Y-93255304D01*
X96308304Y-93398117D01*
X96308302Y-93398120D01*
X96189592Y-93561510D01*
X96123609Y-93691011D01*
X96077318Y-93740025D01*
X96011876Y-93756231D01*
X95948061Y-93734484D01*
X95910391Y-93691011D01*
X95844407Y-93561510D01*
X95725697Y-93398120D01*
X95725695Y-93398117D01*
X95582882Y-93255304D01*
X95582879Y-93255302D01*
X95473152Y-93175581D01*
X95419491Y-93136594D01*
X95419490Y-93136593D01*
X95419488Y-93136592D01*
X95419489Y-93136592D01*
X95239544Y-93044906D01*
X95239543Y-93044905D01*
X95239540Y-93044904D01*
X95184021Y-93026865D01*
X95047459Y-92982493D01*
X94879575Y-92955903D01*
X94847982Y-92950900D01*
X94646018Y-92950900D01*
X94446540Y-92982493D01*
X94254466Y-93044902D01*
X94254460Y-93044904D01*
X94254458Y-93044904D01*
X94254455Y-93044906D01*
X94074510Y-93136592D01*
X93911120Y-93255302D01*
X93911117Y-93255304D01*
X93768304Y-93398117D01*
X93768302Y-93398120D01*
X93649592Y-93561510D01*
X93583609Y-93691011D01*
X93537318Y-93740025D01*
X93471876Y-93756231D01*
X93408061Y-93734484D01*
X93370391Y-93691011D01*
X93304407Y-93561510D01*
X93185697Y-93398120D01*
X93185695Y-93398117D01*
X93042882Y-93255304D01*
X93042879Y-93255302D01*
X92933152Y-93175581D01*
X92879491Y-93136594D01*
X92879490Y-93136593D01*
X92879488Y-93136592D01*
X92879489Y-93136592D01*
X92699544Y-93044906D01*
X92699543Y-93044905D01*
X92699540Y-93044904D01*
X92644021Y-93026865D01*
X92507459Y-92982493D01*
X92339575Y-92955903D01*
X92307982Y-92950900D01*
X92106018Y-92950900D01*
X91906540Y-92982493D01*
X91714466Y-93044902D01*
X91714460Y-93044904D01*
X91714458Y-93044904D01*
X91714455Y-93044906D01*
X91534510Y-93136592D01*
X91371120Y-93255302D01*
X91371117Y-93255304D01*
X91228304Y-93398117D01*
X91228302Y-93398120D01*
X91109592Y-93561510D01*
X91017906Y-93741455D01*
X91017902Y-93741466D01*
X90955493Y-93933540D01*
X90923900Y-94133018D01*
X90923900Y-94334981D01*
X90955493Y-94534459D01*
X90978979Y-94606741D01*
X91017904Y-94726540D01*
X91017905Y-94726543D01*
X91017906Y-94726544D01*
X91109592Y-94906489D01*
X91228302Y-95069879D01*
X91228304Y-95069882D01*
X91228306Y-95069884D01*
X91371116Y-95212694D01*
X91534509Y-95331406D01*
X91534511Y-95331407D01*
X91534510Y-95331407D01*
X91571535Y-95350272D01*
X91714460Y-95423096D01*
X91906540Y-95485506D01*
X92106018Y-95517100D01*
X92106023Y-95517100D01*
X92307977Y-95517100D01*
X92307982Y-95517100D01*
X92507460Y-95485506D01*
X92699540Y-95423096D01*
X92879491Y-95331406D01*
X93042884Y-95212694D01*
X93185694Y-95069884D01*
X93304406Y-94906491D01*
X93370391Y-94776987D01*
X93416682Y-94727974D01*
X93482124Y-94711768D01*
X93545939Y-94733515D01*
X93583608Y-94776987D01*
X93601032Y-94811183D01*
X93649592Y-94906489D01*
X93768302Y-95069879D01*
X93768304Y-95069882D01*
X93768306Y-95069884D01*
X93911116Y-95212694D01*
X94074509Y-95331406D01*
X94074511Y-95331407D01*
X94074510Y-95331407D01*
X94111535Y-95350272D01*
X94254460Y-95423096D01*
X94446540Y-95485506D01*
X94646018Y-95517100D01*
X94646023Y-95517100D01*
X94847977Y-95517100D01*
X94847982Y-95517100D01*
X95047460Y-95485506D01*
X95239540Y-95423096D01*
X95419491Y-95331406D01*
X95582884Y-95212694D01*
X95725694Y-95069884D01*
X95844406Y-94906491D01*
X95910391Y-94776987D01*
X95956682Y-94727974D01*
X96022124Y-94711768D01*
X96085939Y-94733515D01*
X96123608Y-94776987D01*
X96141032Y-94811183D01*
X96189592Y-94906489D01*
X96308302Y-95069879D01*
X96308304Y-95069882D01*
X96308306Y-95069884D01*
X96451116Y-95212694D01*
X96614509Y-95331406D01*
X96614511Y-95331407D01*
X96614510Y-95331407D01*
X96651535Y-95350272D01*
X96794460Y-95423096D01*
X96986540Y-95485506D01*
X97186018Y-95517100D01*
X97186023Y-95517100D01*
X97387977Y-95517100D01*
X97387982Y-95517100D01*
X97587460Y-95485506D01*
X97779540Y-95423096D01*
X97959491Y-95331406D01*
X98122884Y-95212694D01*
X98265694Y-95069884D01*
X98384406Y-94906491D01*
X98450391Y-94776987D01*
X98496682Y-94727974D01*
X98562124Y-94711768D01*
X98625939Y-94733515D01*
X98663608Y-94776987D01*
X98681032Y-94811183D01*
X98729592Y-94906489D01*
X98848302Y-95069879D01*
X98848304Y-95069882D01*
X98848306Y-95069884D01*
X98991116Y-95212694D01*
X99154509Y-95331406D01*
X99154511Y-95331407D01*
X99154510Y-95331407D01*
X99191535Y-95350272D01*
X99334460Y-95423096D01*
X99526540Y-95485506D01*
X99726018Y-95517100D01*
X99726023Y-95517100D01*
X99927977Y-95517100D01*
X99927982Y-95517100D01*
X100127460Y-95485506D01*
X100319540Y-95423096D01*
X100499491Y-95331406D01*
X100662884Y-95212694D01*
X100805694Y-95069884D01*
X100924406Y-94906491D01*
X100990391Y-94776987D01*
X101036682Y-94727974D01*
X101102124Y-94711768D01*
X101165939Y-94733515D01*
X101203608Y-94776987D01*
X101221032Y-94811183D01*
X101269592Y-94906489D01*
X101388302Y-95069879D01*
X101388304Y-95069882D01*
X101388306Y-95069884D01*
X101531116Y-95212694D01*
X101694509Y-95331406D01*
X101694511Y-95331407D01*
X101694510Y-95331407D01*
X101731535Y-95350272D01*
X101874460Y-95423096D01*
X102066540Y-95485506D01*
X102266018Y-95517100D01*
X102266023Y-95517100D01*
X102467977Y-95517100D01*
X102467982Y-95517100D01*
X102667460Y-95485506D01*
X102859540Y-95423096D01*
X103039491Y-95331406D01*
X103202884Y-95212694D01*
X103345694Y-95069884D01*
X103464406Y-94906491D01*
X103530391Y-94776987D01*
X103576682Y-94727974D01*
X103642124Y-94711768D01*
X103705939Y-94733515D01*
X103743608Y-94776987D01*
X103761032Y-94811183D01*
X103809592Y-94906489D01*
X103928302Y-95069879D01*
X103928304Y-95069882D01*
X103928306Y-95069884D01*
X104071116Y-95212694D01*
X104234509Y-95331406D01*
X104234511Y-95331407D01*
X104234510Y-95331407D01*
X104271535Y-95350272D01*
X104414460Y-95423096D01*
X104606540Y-95485506D01*
X104806018Y-95517100D01*
X104806023Y-95517100D01*
X105007977Y-95517100D01*
X105007982Y-95517100D01*
X105207460Y-95485506D01*
X105399540Y-95423096D01*
X105579491Y-95331406D01*
X105742884Y-95212694D01*
X105885694Y-95069884D01*
X106004406Y-94906491D01*
X106070391Y-94776987D01*
X106116682Y-94727974D01*
X106182124Y-94711768D01*
X106245939Y-94733515D01*
X106283608Y-94776987D01*
X106301032Y-94811183D01*
X106349592Y-94906489D01*
X106468302Y-95069879D01*
X106468304Y-95069882D01*
X106468306Y-95069884D01*
X106611116Y-95212694D01*
X106774509Y-95331406D01*
X106774511Y-95331407D01*
X106774510Y-95331407D01*
X106811535Y-95350272D01*
X106954460Y-95423096D01*
X107146540Y-95485506D01*
X107346018Y-95517100D01*
X107346023Y-95517100D01*
X107547977Y-95517100D01*
X107547982Y-95517100D01*
X107747460Y-95485506D01*
X107939540Y-95423096D01*
X108119491Y-95331406D01*
X108282884Y-95212694D01*
X108425694Y-95069884D01*
X108544406Y-94906491D01*
X108610391Y-94776987D01*
X108656682Y-94727974D01*
X108722124Y-94711768D01*
X108785939Y-94733515D01*
X108823608Y-94776987D01*
X108841032Y-94811183D01*
X108889592Y-94906489D01*
X109008302Y-95069879D01*
X109008304Y-95069882D01*
X109008306Y-95069884D01*
X109151116Y-95212694D01*
X109314509Y-95331406D01*
X109314511Y-95331407D01*
X109314510Y-95331407D01*
X109351535Y-95350272D01*
X109494460Y-95423096D01*
X109686540Y-95485506D01*
X109886018Y-95517100D01*
X109886023Y-95517100D01*
X110087977Y-95517100D01*
X110087982Y-95517100D01*
X110287460Y-95485506D01*
X110479540Y-95423096D01*
X110659491Y-95331406D01*
X110822884Y-95212694D01*
X110965694Y-95069884D01*
X111084406Y-94906491D01*
X111150391Y-94776987D01*
X111196682Y-94727974D01*
X111262124Y-94711768D01*
X111325939Y-94733515D01*
X111363608Y-94776987D01*
X111381032Y-94811183D01*
X111429592Y-94906489D01*
X111548302Y-95069879D01*
X111548304Y-95069882D01*
X111548306Y-95069884D01*
X111691116Y-95212694D01*
X111854509Y-95331406D01*
X111854511Y-95331407D01*
X111854510Y-95331407D01*
X111891535Y-95350272D01*
X112034460Y-95423096D01*
X112226540Y-95485506D01*
X112426018Y-95517100D01*
X112426023Y-95517100D01*
X112627977Y-95517100D01*
X112627982Y-95517100D01*
X112827460Y-95485506D01*
X113019540Y-95423096D01*
X113199491Y-95331406D01*
X113362884Y-95212694D01*
X113505694Y-95069884D01*
X113624406Y-94906491D01*
X113690391Y-94776987D01*
X113736682Y-94727974D01*
X113802124Y-94711768D01*
X113865939Y-94733515D01*
X113903608Y-94776987D01*
X113921032Y-94811183D01*
X113969592Y-94906489D01*
X114088302Y-95069879D01*
X114088304Y-95069882D01*
X114088306Y-95069884D01*
X114231116Y-95212694D01*
X114394509Y-95331406D01*
X114394511Y-95331407D01*
X114394510Y-95331407D01*
X114431535Y-95350272D01*
X114574460Y-95423096D01*
X114766540Y-95485506D01*
X114966018Y-95517100D01*
X114966023Y-95517100D01*
X115167977Y-95517100D01*
X115167982Y-95517100D01*
X115367460Y-95485506D01*
X115559540Y-95423096D01*
X115739491Y-95331406D01*
X115902884Y-95212694D01*
X116045694Y-95069884D01*
X116164406Y-94906491D01*
X116230391Y-94776987D01*
X116276682Y-94727974D01*
X116342124Y-94711768D01*
X116405939Y-94733515D01*
X116443608Y-94776987D01*
X116461032Y-94811183D01*
X116509592Y-94906489D01*
X116628302Y-95069879D01*
X116628304Y-95069882D01*
X116628306Y-95069884D01*
X116771116Y-95212694D01*
X116934509Y-95331406D01*
X116934511Y-95331407D01*
X116934510Y-95331407D01*
X116971535Y-95350272D01*
X117114460Y-95423096D01*
X117306540Y-95485506D01*
X117506018Y-95517100D01*
X117506023Y-95517100D01*
X117707977Y-95517100D01*
X117707982Y-95517100D01*
X117907460Y-95485506D01*
X118099540Y-95423096D01*
X118279491Y-95331406D01*
X118442884Y-95212694D01*
X118585694Y-95069884D01*
X118704406Y-94906491D01*
X118760908Y-94795599D01*
X118807198Y-94746586D01*
X118872639Y-94730380D01*
X118936454Y-94752126D01*
X118974125Y-94795600D01*
X119035140Y-94915349D01*
X119067524Y-94959921D01*
X119067524Y-94959922D01*
X119747000Y-94280446D01*
X119747000Y-94286661D01*
X119774259Y-94388394D01*
X119826920Y-94479606D01*
X119901394Y-94554080D01*
X119992606Y-94606741D01*
X120094339Y-94634000D01*
X120100552Y-94634000D01*
X119421076Y-95313474D01*
X119421450Y-95318222D01*
X119454771Y-95361433D01*
X119460541Y-95428604D01*
X119442759Y-95471317D01*
X119397226Y-95539461D01*
X119397224Y-95539464D01*
X119338196Y-95681969D01*
X119338194Y-95681977D01*
X119308100Y-95833270D01*
X119308100Y-95987529D01*
X119338194Y-96138822D01*
X119338196Y-96138830D01*
X119397224Y-96281335D01*
X119397226Y-96281338D01*
X119482925Y-96409596D01*
X119592003Y-96518674D01*
X119720261Y-96604373D01*
X119720264Y-96604375D01*
X119862769Y-96663403D01*
X119862773Y-96663404D01*
X119862778Y-96663406D01*
X120014071Y-96693500D01*
X120168329Y-96693500D01*
X120319622Y-96663406D01*
X120417853Y-96622716D01*
X120484884Y-96615510D01*
X120545172Y-96645687D01*
X120563126Y-96666785D01*
X120597176Y-96717745D01*
X120706254Y-96826823D01*
X120834512Y-96912522D01*
X120834515Y-96912524D01*
X120977020Y-96971552D01*
X120977024Y-96971553D01*
X120977029Y-96971555D01*
X121128322Y-97001649D01*
X121282580Y-97001649D01*
X121433873Y-96971555D01*
X121433879Y-96971552D01*
X121433881Y-96971552D01*
X121576386Y-96912524D01*
X121576389Y-96912522D01*
X121630257Y-96876529D01*
X121704648Y-96826822D01*
X121813724Y-96717746D01*
X121899425Y-96589486D01*
X121905291Y-96575325D01*
X121958454Y-96446979D01*
X121958454Y-96446977D01*
X121958457Y-96446971D01*
X121988551Y-96295678D01*
X121988551Y-96141420D01*
X121958457Y-95990127D01*
X121958455Y-95990122D01*
X121958454Y-95990118D01*
X121899426Y-95847613D01*
X121899424Y-95847610D01*
X121813725Y-95719352D01*
X121704647Y-95610274D01*
X121576389Y-95524575D01*
X121576386Y-95524573D01*
X121433881Y-95465545D01*
X121433873Y-95465543D01*
X121282580Y-95435449D01*
X121128322Y-95435449D01*
X121128321Y-95435449D01*
X121014132Y-95458162D01*
X120946982Y-95452153D01*
X120893740Y-95410793D01*
X120871311Y-95347215D01*
X120871509Y-95331422D01*
X120872921Y-95313473D01*
X120193448Y-94634000D01*
X120199661Y-94634000D01*
X120301394Y-94606741D01*
X120392606Y-94554080D01*
X120467080Y-94479606D01*
X120519741Y-94388394D01*
X120547000Y-94286661D01*
X120547000Y-94280448D01*
X121226474Y-94959922D01*
X121258862Y-94915345D01*
X121319874Y-94795601D01*
X121366164Y-94746587D01*
X121431606Y-94730380D01*
X121495421Y-94752126D01*
X121533091Y-94795599D01*
X121534462Y-94798289D01*
X121589592Y-94906489D01*
X121708302Y-95069879D01*
X121708304Y-95069882D01*
X121708306Y-95069884D01*
X121851116Y-95212694D01*
X122014509Y-95331406D01*
X122014511Y-95331407D01*
X122014510Y-95331407D01*
X122051535Y-95350272D01*
X122194460Y-95423096D01*
X122386540Y-95485506D01*
X122424246Y-95491478D01*
X122485167Y-95520356D01*
X122520803Y-95577587D01*
X122519842Y-95644998D01*
X122516073Y-95655443D01*
X122485143Y-95730115D01*
X122485140Y-95730124D01*
X122455046Y-95881417D01*
X122455046Y-96035676D01*
X122485140Y-96186969D01*
X122485140Y-96186970D01*
X122544170Y-96329482D01*
X122544172Y-96329485D01*
X122629871Y-96457743D01*
X122738949Y-96566821D01*
X122867207Y-96652520D01*
X122867210Y-96652522D01*
X122956231Y-96689396D01*
X123008726Y-96731699D01*
X123030017Y-96795668D01*
X123027794Y-96823280D01*
X123003562Y-96945104D01*
X123003562Y-97099364D01*
X123033656Y-97250657D01*
X123033658Y-97250665D01*
X123092686Y-97393170D01*
X123092688Y-97393173D01*
X123178387Y-97521431D01*
X123287465Y-97630509D01*
X123415723Y-97716208D01*
X123415726Y-97716210D01*
X123558231Y-97775238D01*
X123558235Y-97775239D01*
X123558240Y-97775241D01*
X123709533Y-97805335D01*
X123863790Y-97805335D01*
X123863791Y-97805335D01*
X123959439Y-97786309D01*
X124026587Y-97792318D01*
X124067386Y-97819056D01*
X124113203Y-97864874D01*
X124241461Y-97950573D01*
X124241464Y-97950575D01*
X124383969Y-98009603D01*
X124383973Y-98009604D01*
X124383978Y-98009606D01*
X124535271Y-98039700D01*
X124689529Y-98039700D01*
X124840822Y-98009606D01*
X124840828Y-98009603D01*
X124840830Y-98009603D01*
X124983335Y-97950575D01*
X124983338Y-97950573D01*
X125111596Y-97864874D01*
X125220674Y-97755796D01*
X125271168Y-97680226D01*
X125306374Y-97627537D01*
X125309001Y-97621196D01*
X125355083Y-97509945D01*
X125397386Y-97457450D01*
X125461355Y-97436159D01*
X125526679Y-97452832D01*
X125532099Y-97456248D01*
X125587661Y-97493373D01*
X125587664Y-97493375D01*
X125730169Y-97552403D01*
X125730173Y-97552404D01*
X125730178Y-97552406D01*
X125881471Y-97582500D01*
X126035729Y-97582500D01*
X126187022Y-97552406D01*
X126187028Y-97552403D01*
X126187030Y-97552403D01*
X126329535Y-97493375D01*
X126329538Y-97493373D01*
X126342037Y-97485022D01*
X126457797Y-97407673D01*
X126566873Y-97298597D01*
X126652574Y-97170337D01*
X126711606Y-97027822D01*
X126741700Y-96876529D01*
X126741700Y-96722271D01*
X126711606Y-96570978D01*
X126711604Y-96570973D01*
X126711603Y-96570969D01*
X126652575Y-96428464D01*
X126652573Y-96428461D01*
X126566874Y-96300203D01*
X126457796Y-96191125D01*
X126329538Y-96105426D01*
X126329535Y-96105424D01*
X126187030Y-96046396D01*
X126187022Y-96046394D01*
X126035729Y-96016300D01*
X125881471Y-96016300D01*
X125730177Y-96046394D01*
X125730169Y-96046396D01*
X125587664Y-96105424D01*
X125587661Y-96105426D01*
X125459403Y-96191125D01*
X125350325Y-96300203D01*
X125264626Y-96428461D01*
X125264624Y-96428464D01*
X125215917Y-96546055D01*
X125173614Y-96598550D01*
X125109645Y-96619841D01*
X125044321Y-96603168D01*
X125038901Y-96599752D01*
X124983338Y-96562626D01*
X124983335Y-96562624D01*
X124840830Y-96503596D01*
X124840822Y-96503594D01*
X124689529Y-96473500D01*
X124535271Y-96473500D01*
X124535270Y-96473500D01*
X124439623Y-96492525D01*
X124372473Y-96486516D01*
X124331675Y-96459778D01*
X124285858Y-96413960D01*
X124157600Y-96328261D01*
X124157597Y-96328259D01*
X124068576Y-96291386D01*
X124016081Y-96249083D01*
X123994790Y-96185115D01*
X123997012Y-96157505D01*
X124021246Y-96035676D01*
X124021246Y-95881418D01*
X123991152Y-95730125D01*
X123991150Y-95730120D01*
X123991149Y-95730116D01*
X123932121Y-95587611D01*
X123932119Y-95587608D01*
X123846420Y-95459350D01*
X123737342Y-95350272D01*
X123647534Y-95290264D01*
X123604301Y-95238532D01*
X123595899Y-95171639D01*
X123624996Y-95110823D01*
X123629385Y-95106192D01*
X123665694Y-95069884D01*
X123784406Y-94906491D01*
X123850391Y-94776987D01*
X123896682Y-94727974D01*
X123962124Y-94711768D01*
X124025939Y-94733515D01*
X124063608Y-94776987D01*
X124081032Y-94811183D01*
X124129592Y-94906489D01*
X124248302Y-95069879D01*
X124248304Y-95069882D01*
X124248306Y-95069884D01*
X124391116Y-95212694D01*
X124554509Y-95331406D01*
X124554511Y-95331407D01*
X124554510Y-95331407D01*
X124591535Y-95350272D01*
X124734460Y-95423096D01*
X124926540Y-95485506D01*
X125126018Y-95517100D01*
X125126023Y-95517100D01*
X125327977Y-95517100D01*
X125327982Y-95517100D01*
X125527460Y-95485506D01*
X125719540Y-95423096D01*
X125899491Y-95331406D01*
X126062884Y-95212694D01*
X126205694Y-95069884D01*
X126324406Y-94906491D01*
X126390391Y-94776987D01*
X126436682Y-94727974D01*
X126502124Y-94711768D01*
X126565939Y-94733515D01*
X126603608Y-94776987D01*
X126621032Y-94811183D01*
X126669592Y-94906489D01*
X126788302Y-95069879D01*
X126788304Y-95069882D01*
X126788306Y-95069884D01*
X126931116Y-95212694D01*
X127094509Y-95331406D01*
X127094511Y-95331407D01*
X127094510Y-95331407D01*
X127131535Y-95350272D01*
X127274460Y-95423096D01*
X127466540Y-95485506D01*
X127666018Y-95517100D01*
X127666023Y-95517100D01*
X127867977Y-95517100D01*
X127867982Y-95517100D01*
X128067460Y-95485506D01*
X128259540Y-95423096D01*
X128439491Y-95331406D01*
X128602884Y-95212694D01*
X128745694Y-95069884D01*
X128864406Y-94906491D01*
X128930391Y-94776987D01*
X128976682Y-94727974D01*
X129042124Y-94711768D01*
X129105939Y-94733515D01*
X129143608Y-94776987D01*
X129161032Y-94811183D01*
X129209592Y-94906489D01*
X129328302Y-95069879D01*
X129328304Y-95069882D01*
X129328306Y-95069884D01*
X129471116Y-95212694D01*
X129634509Y-95331406D01*
X129634511Y-95331407D01*
X129634510Y-95331407D01*
X129671535Y-95350272D01*
X129814460Y-95423096D01*
X130006540Y-95485506D01*
X130206018Y-95517100D01*
X130206023Y-95517100D01*
X130407977Y-95517100D01*
X130407982Y-95517100D01*
X130607460Y-95485506D01*
X130799540Y-95423096D01*
X130979491Y-95331406D01*
X131142884Y-95212694D01*
X131285694Y-95069884D01*
X131404406Y-94906491D01*
X131470391Y-94776987D01*
X131516682Y-94727974D01*
X131582124Y-94711768D01*
X131645939Y-94733515D01*
X131683608Y-94776987D01*
X131701032Y-94811183D01*
X131749592Y-94906489D01*
X131868302Y-95069879D01*
X131868304Y-95069882D01*
X131868306Y-95069884D01*
X132011116Y-95212694D01*
X132174509Y-95331406D01*
X132174511Y-95331407D01*
X132174510Y-95331407D01*
X132211535Y-95350272D01*
X132354460Y-95423096D01*
X132546540Y-95485506D01*
X132746018Y-95517100D01*
X132746023Y-95517100D01*
X132947977Y-95517100D01*
X132947982Y-95517100D01*
X133147460Y-95485506D01*
X133339540Y-95423096D01*
X133519491Y-95331406D01*
X133682884Y-95212694D01*
X133825694Y-95069884D01*
X133944406Y-94906491D01*
X134010391Y-94776987D01*
X134056682Y-94727974D01*
X134122124Y-94711768D01*
X134185939Y-94733515D01*
X134223608Y-94776987D01*
X134241032Y-94811183D01*
X134289592Y-94906489D01*
X134408302Y-95069879D01*
X134408304Y-95069882D01*
X134408306Y-95069884D01*
X134551116Y-95212694D01*
X134714509Y-95331406D01*
X134714511Y-95331407D01*
X134714510Y-95331407D01*
X134751535Y-95350272D01*
X134894460Y-95423096D01*
X135086540Y-95485506D01*
X135286018Y-95517100D01*
X135286023Y-95517100D01*
X135487977Y-95517100D01*
X135487982Y-95517100D01*
X135687460Y-95485506D01*
X135879540Y-95423096D01*
X136059491Y-95331406D01*
X136222884Y-95212694D01*
X136365694Y-95069884D01*
X136484406Y-94906491D01*
X136550391Y-94776987D01*
X136596682Y-94727974D01*
X136662124Y-94711768D01*
X136725939Y-94733515D01*
X136763608Y-94776987D01*
X136781032Y-94811183D01*
X136829592Y-94906489D01*
X136948302Y-95069879D01*
X136948304Y-95069882D01*
X136948306Y-95069884D01*
X137091116Y-95212694D01*
X137254509Y-95331406D01*
X137254511Y-95331407D01*
X137254510Y-95331407D01*
X137291535Y-95350272D01*
X137434460Y-95423096D01*
X137626540Y-95485506D01*
X137826018Y-95517100D01*
X137826023Y-95517100D01*
X138027977Y-95517100D01*
X138027982Y-95517100D01*
X138227460Y-95485506D01*
X138419540Y-95423096D01*
X138599491Y-95331406D01*
X138762884Y-95212694D01*
X138905694Y-95069884D01*
X139024406Y-94906491D01*
X139090391Y-94776987D01*
X139136682Y-94727974D01*
X139202124Y-94711768D01*
X139265939Y-94733515D01*
X139303608Y-94776987D01*
X139321032Y-94811183D01*
X139369592Y-94906489D01*
X139488302Y-95069879D01*
X139488304Y-95069882D01*
X139488306Y-95069884D01*
X139631116Y-95212694D01*
X139794509Y-95331406D01*
X139794511Y-95331407D01*
X139794510Y-95331407D01*
X139831535Y-95350272D01*
X139974460Y-95423096D01*
X140166540Y-95485506D01*
X140366018Y-95517100D01*
X140366023Y-95517100D01*
X140567977Y-95517100D01*
X140567982Y-95517100D01*
X140767460Y-95485506D01*
X140959540Y-95423096D01*
X141139491Y-95331406D01*
X141302884Y-95212694D01*
X141445694Y-95069884D01*
X141564406Y-94906491D01*
X141656096Y-94726540D01*
X141718506Y-94534460D01*
X141750100Y-94334982D01*
X141750100Y-94133018D01*
X141718506Y-93933540D01*
X141656096Y-93741460D01*
X141612103Y-93655119D01*
X141564407Y-93561510D01*
X141445697Y-93398120D01*
X141445695Y-93398117D01*
X141302882Y-93255304D01*
X141302879Y-93255302D01*
X141193152Y-93175581D01*
X141139491Y-93136594D01*
X141139490Y-93136593D01*
X141139488Y-93136592D01*
X141139489Y-93136592D01*
X140959544Y-93044906D01*
X140959543Y-93044905D01*
X140959540Y-93044904D01*
X140904021Y-93026865D01*
X140767459Y-92982493D01*
X140599575Y-92955903D01*
X140567982Y-92950900D01*
X140366018Y-92950900D01*
X140166540Y-92982493D01*
X139974466Y-93044902D01*
X139974460Y-93044904D01*
X139974458Y-93044904D01*
X139974455Y-93044906D01*
X139794510Y-93136592D01*
X139631120Y-93255302D01*
X139631117Y-93255304D01*
X139488304Y-93398117D01*
X139488302Y-93398120D01*
X139369592Y-93561510D01*
X139303609Y-93691011D01*
X139257318Y-93740025D01*
X139191876Y-93756231D01*
X139128061Y-93734484D01*
X139090391Y-93691011D01*
X139024407Y-93561510D01*
X138905697Y-93398120D01*
X138905695Y-93398117D01*
X138762882Y-93255304D01*
X138762879Y-93255302D01*
X138653152Y-93175581D01*
X138599491Y-93136594D01*
X138599490Y-93136593D01*
X138599488Y-93136592D01*
X138599489Y-93136592D01*
X138419544Y-93044906D01*
X138419543Y-93044905D01*
X138419540Y-93044904D01*
X138364021Y-93026865D01*
X138227459Y-92982493D01*
X138059575Y-92955903D01*
X138027982Y-92950900D01*
X137826018Y-92950900D01*
X137626540Y-92982493D01*
X137434466Y-93044902D01*
X137434460Y-93044904D01*
X137434458Y-93044904D01*
X137434455Y-93044906D01*
X137254510Y-93136592D01*
X137091120Y-93255302D01*
X137091117Y-93255304D01*
X136948304Y-93398117D01*
X136948302Y-93398120D01*
X136829592Y-93561510D01*
X136763609Y-93691011D01*
X136717318Y-93740025D01*
X136651876Y-93756231D01*
X136588061Y-93734484D01*
X136550391Y-93691011D01*
X136484407Y-93561510D01*
X136365697Y-93398120D01*
X136365695Y-93398117D01*
X136222882Y-93255304D01*
X136222879Y-93255302D01*
X136113152Y-93175581D01*
X136059491Y-93136594D01*
X136059490Y-93136593D01*
X136059488Y-93136592D01*
X136059489Y-93136592D01*
X135879544Y-93044906D01*
X135879543Y-93044905D01*
X135879540Y-93044904D01*
X135824021Y-93026865D01*
X135687459Y-92982493D01*
X135519575Y-92955903D01*
X135487982Y-92950900D01*
X135286018Y-92950900D01*
X135086540Y-92982493D01*
X134894466Y-93044902D01*
X134894460Y-93044904D01*
X134894458Y-93044904D01*
X134894455Y-93044906D01*
X134714510Y-93136592D01*
X134551120Y-93255302D01*
X134551117Y-93255304D01*
X134408304Y-93398117D01*
X134408302Y-93398120D01*
X134289592Y-93561510D01*
X134223609Y-93691011D01*
X134177318Y-93740025D01*
X134111876Y-93756231D01*
X134048061Y-93734484D01*
X134010391Y-93691011D01*
X133944407Y-93561510D01*
X133825697Y-93398120D01*
X133825695Y-93398117D01*
X133682882Y-93255304D01*
X133682879Y-93255302D01*
X133573152Y-93175581D01*
X133519491Y-93136594D01*
X133519490Y-93136593D01*
X133519488Y-93136592D01*
X133519489Y-93136592D01*
X133339544Y-93044906D01*
X133339543Y-93044905D01*
X133339540Y-93044904D01*
X133284021Y-93026865D01*
X133147459Y-92982493D01*
X132979575Y-92955903D01*
X132947982Y-92950900D01*
X132746018Y-92950900D01*
X132546540Y-92982493D01*
X132354466Y-93044902D01*
X132354460Y-93044904D01*
X132354458Y-93044904D01*
X132354455Y-93044906D01*
X132174510Y-93136592D01*
X132011120Y-93255302D01*
X132011117Y-93255304D01*
X131868304Y-93398117D01*
X131868302Y-93398120D01*
X131749592Y-93561510D01*
X131683609Y-93691011D01*
X131637318Y-93740025D01*
X131571876Y-93756231D01*
X131508061Y-93734484D01*
X131470391Y-93691011D01*
X131404407Y-93561510D01*
X131285697Y-93398120D01*
X131285695Y-93398117D01*
X131142882Y-93255304D01*
X131142879Y-93255302D01*
X131033152Y-93175581D01*
X130979491Y-93136594D01*
X130979490Y-93136593D01*
X130979488Y-93136592D01*
X130979489Y-93136592D01*
X130799544Y-93044906D01*
X130799543Y-93044905D01*
X130799540Y-93044904D01*
X130744021Y-93026865D01*
X130607459Y-92982493D01*
X130439575Y-92955903D01*
X130407982Y-92950900D01*
X130206018Y-92950900D01*
X130006540Y-92982493D01*
X129814466Y-93044902D01*
X129814460Y-93044904D01*
X129814458Y-93044904D01*
X129814455Y-93044906D01*
X129634510Y-93136592D01*
X129471120Y-93255302D01*
X129471117Y-93255304D01*
X129328304Y-93398117D01*
X129328302Y-93398120D01*
X129209592Y-93561510D01*
X129143609Y-93691011D01*
X129097318Y-93740025D01*
X129031876Y-93756231D01*
X128968061Y-93734484D01*
X128930391Y-93691011D01*
X128864407Y-93561510D01*
X128745697Y-93398120D01*
X128745695Y-93398117D01*
X128602882Y-93255304D01*
X128602879Y-93255302D01*
X128493152Y-93175581D01*
X128439491Y-93136594D01*
X128439490Y-93136593D01*
X128439488Y-93136592D01*
X128439489Y-93136592D01*
X128259544Y-93044906D01*
X128259543Y-93044905D01*
X128259540Y-93044904D01*
X128204021Y-93026865D01*
X128067459Y-92982493D01*
X127899575Y-92955903D01*
X127867982Y-92950900D01*
X127666018Y-92950900D01*
X127466540Y-92982493D01*
X127274466Y-93044902D01*
X127274460Y-93044904D01*
X127274458Y-93044904D01*
X127274455Y-93044906D01*
X127094510Y-93136592D01*
X126931120Y-93255302D01*
X126931117Y-93255304D01*
X126788304Y-93398117D01*
X126788302Y-93398120D01*
X126669592Y-93561510D01*
X126603609Y-93691011D01*
X126557318Y-93740025D01*
X126491876Y-93756231D01*
X126428061Y-93734484D01*
X126390391Y-93691011D01*
X126324407Y-93561510D01*
X126205697Y-93398120D01*
X126205695Y-93398117D01*
X126062882Y-93255304D01*
X126062879Y-93255302D01*
X125953152Y-93175581D01*
X125899491Y-93136594D01*
X125899490Y-93136593D01*
X125899488Y-93136592D01*
X125899489Y-93136592D01*
X125719544Y-93044906D01*
X125719543Y-93044905D01*
X125719540Y-93044904D01*
X125664021Y-93026865D01*
X125527459Y-92982493D01*
X125359575Y-92955903D01*
X125327982Y-92950900D01*
X125126018Y-92950900D01*
X124926540Y-92982493D01*
X124734466Y-93044902D01*
X124734460Y-93044904D01*
X124734458Y-93044904D01*
X124734455Y-93044906D01*
X124554510Y-93136592D01*
X124391120Y-93255302D01*
X124391117Y-93255304D01*
X124248304Y-93398117D01*
X124248302Y-93398120D01*
X124129592Y-93561510D01*
X124063609Y-93691011D01*
X124017318Y-93740025D01*
X123951876Y-93756231D01*
X123888061Y-93734484D01*
X123850391Y-93691011D01*
X123784407Y-93561510D01*
X123665697Y-93398120D01*
X123665695Y-93398117D01*
X123522882Y-93255304D01*
X123522879Y-93255302D01*
X123413152Y-93175581D01*
X123359491Y-93136594D01*
X123359490Y-93136593D01*
X123359488Y-93136592D01*
X123359489Y-93136592D01*
X123179544Y-93044906D01*
X123179543Y-93044905D01*
X123179540Y-93044904D01*
X123124021Y-93026865D01*
X122987459Y-92982493D01*
X122819575Y-92955903D01*
X122787982Y-92950900D01*
X122586018Y-92950900D01*
X122386540Y-92982493D01*
X122194466Y-93044902D01*
X122194460Y-93044904D01*
X122194458Y-93044904D01*
X122194455Y-93044906D01*
X122014510Y-93136592D01*
X121851120Y-93255302D01*
X121851117Y-93255304D01*
X121708304Y-93398117D01*
X121708302Y-93398120D01*
X121589592Y-93561511D01*
X121533092Y-93672399D01*
X121486800Y-93721413D01*
X121421359Y-93737619D01*
X121357544Y-93715872D01*
X121319874Y-93672399D01*
X121258861Y-93552653D01*
X121226474Y-93508076D01*
X120547000Y-94187550D01*
X120547000Y-94181339D01*
X120519741Y-94079606D01*
X120467080Y-93988394D01*
X120392606Y-93913920D01*
X120301394Y-93861259D01*
X120199661Y-93834000D01*
X120193447Y-93834000D01*
X120872922Y-93154524D01*
X120828348Y-93122140D01*
X120828349Y-93122140D01*
X120646031Y-93029245D01*
X120646020Y-93029241D01*
X120451416Y-92966009D01*
X120289258Y-92940327D01*
X120228338Y-92911448D01*
X120192702Y-92854217D01*
X120193665Y-92786805D01*
X120230920Y-92730615D01*
X120292639Y-92703487D01*
X120307975Y-92702500D01*
X142127850Y-92702500D01*
X142192538Y-92721494D01*
X142236687Y-92772446D01*
X142247500Y-92822150D01*
X142247500Y-110885850D01*
X142228506Y-110950538D01*
X142177554Y-110994687D01*
X142127850Y-111005500D01*
X90536150Y-111005500D01*
X90471462Y-110986506D01*
X90427313Y-110935554D01*
X90416500Y-110885850D01*
X90416500Y-108875143D01*
X90923900Y-108875143D01*
X90923900Y-110072845D01*
X90931424Y-110146491D01*
X90934158Y-110173255D01*
X90988062Y-110335931D01*
X91078030Y-110481790D01*
X91078032Y-110481792D01*
X91078034Y-110481795D01*
X91199204Y-110602965D01*
X91199207Y-110602967D01*
X91199210Y-110602970D01*
X91345069Y-110692938D01*
X91507745Y-110746842D01*
X91608149Y-110757100D01*
X92805850Y-110757099D01*
X92906255Y-110746842D01*
X93068931Y-110692938D01*
X93214790Y-110602970D01*
X93335970Y-110481790D01*
X93425938Y-110335931D01*
X93465768Y-110215727D01*
X93504144Y-110160298D01*
X93566397Y-110134415D01*
X93632760Y-110146297D01*
X93676144Y-110183034D01*
X93768302Y-110309880D01*
X93768306Y-110309884D01*
X93911116Y-110452694D01*
X94074509Y-110571406D01*
X94074511Y-110571407D01*
X94074510Y-110571407D01*
X94168119Y-110619103D01*
X94254460Y-110663096D01*
X94446540Y-110725506D01*
X94646018Y-110757100D01*
X94646023Y-110757100D01*
X94847977Y-110757100D01*
X94847982Y-110757100D01*
X95047460Y-110725506D01*
X95239540Y-110663096D01*
X95419491Y-110571406D01*
X95582884Y-110452694D01*
X95725694Y-110309884D01*
X95844406Y-110146491D01*
X95910391Y-110016987D01*
X95956682Y-109967974D01*
X96022124Y-109951768D01*
X96085939Y-109973515D01*
X96123609Y-110016988D01*
X96189592Y-110146489D01*
X96308302Y-110309879D01*
X96308304Y-110309882D01*
X96308306Y-110309884D01*
X96451116Y-110452694D01*
X96614509Y-110571406D01*
X96614511Y-110571407D01*
X96614510Y-110571407D01*
X96708119Y-110619103D01*
X96794460Y-110663096D01*
X96986540Y-110725506D01*
X97186018Y-110757100D01*
X97186023Y-110757100D01*
X97387977Y-110757100D01*
X97387982Y-110757100D01*
X97587460Y-110725506D01*
X97779540Y-110663096D01*
X97959491Y-110571406D01*
X98122884Y-110452694D01*
X98265694Y-110309884D01*
X98384406Y-110146491D01*
X98450391Y-110016987D01*
X98496682Y-109967974D01*
X98562124Y-109951768D01*
X98625939Y-109973515D01*
X98663609Y-110016988D01*
X98729592Y-110146489D01*
X98848302Y-110309879D01*
X98848304Y-110309882D01*
X98848306Y-110309884D01*
X98991116Y-110452694D01*
X99154509Y-110571406D01*
X99154511Y-110571407D01*
X99154510Y-110571407D01*
X99248119Y-110619103D01*
X99334460Y-110663096D01*
X99526540Y-110725506D01*
X99726018Y-110757100D01*
X99726023Y-110757100D01*
X99927977Y-110757100D01*
X99927982Y-110757100D01*
X100127460Y-110725506D01*
X100319540Y-110663096D01*
X100499491Y-110571406D01*
X100662884Y-110452694D01*
X100805694Y-110309884D01*
X100924406Y-110146491D01*
X100990391Y-110016987D01*
X101036682Y-109967974D01*
X101102124Y-109951768D01*
X101165939Y-109973515D01*
X101203609Y-110016988D01*
X101269592Y-110146489D01*
X101388302Y-110309879D01*
X101388304Y-110309882D01*
X101388306Y-110309884D01*
X101531116Y-110452694D01*
X101694509Y-110571406D01*
X101694511Y-110571407D01*
X101694510Y-110571407D01*
X101788119Y-110619103D01*
X101874460Y-110663096D01*
X102066540Y-110725506D01*
X102266018Y-110757100D01*
X102266023Y-110757100D01*
X102467977Y-110757100D01*
X102467982Y-110757100D01*
X102667460Y-110725506D01*
X102859540Y-110663096D01*
X103039491Y-110571406D01*
X103202884Y-110452694D01*
X103345694Y-110309884D01*
X103464406Y-110146491D01*
X103530391Y-110016987D01*
X103576682Y-109967974D01*
X103642124Y-109951768D01*
X103705939Y-109973515D01*
X103743609Y-110016988D01*
X103809592Y-110146489D01*
X103928302Y-110309879D01*
X103928304Y-110309882D01*
X103928306Y-110309884D01*
X104071116Y-110452694D01*
X104234509Y-110571406D01*
X104234511Y-110571407D01*
X104234510Y-110571407D01*
X104328119Y-110619103D01*
X104414460Y-110663096D01*
X104606540Y-110725506D01*
X104806018Y-110757100D01*
X104806023Y-110757100D01*
X105007977Y-110757100D01*
X105007982Y-110757100D01*
X105207460Y-110725506D01*
X105399540Y-110663096D01*
X105579491Y-110571406D01*
X105742884Y-110452694D01*
X105885694Y-110309884D01*
X106004406Y-110146491D01*
X106070391Y-110016987D01*
X106116682Y-109967974D01*
X106182124Y-109951768D01*
X106245939Y-109973515D01*
X106283609Y-110016988D01*
X106349592Y-110146489D01*
X106468302Y-110309879D01*
X106468304Y-110309882D01*
X106468306Y-110309884D01*
X106611116Y-110452694D01*
X106774509Y-110571406D01*
X106774511Y-110571407D01*
X106774510Y-110571407D01*
X106868119Y-110619103D01*
X106954460Y-110663096D01*
X107146540Y-110725506D01*
X107346018Y-110757100D01*
X107346023Y-110757100D01*
X107547977Y-110757100D01*
X107547982Y-110757100D01*
X107747460Y-110725506D01*
X107939540Y-110663096D01*
X108119491Y-110571406D01*
X108282884Y-110452694D01*
X108425694Y-110309884D01*
X108544406Y-110146491D01*
X108610391Y-110016987D01*
X108656682Y-109967974D01*
X108722124Y-109951768D01*
X108785939Y-109973515D01*
X108823609Y-110016988D01*
X108889592Y-110146489D01*
X109008302Y-110309879D01*
X109008304Y-110309882D01*
X109008306Y-110309884D01*
X109151116Y-110452694D01*
X109314509Y-110571406D01*
X109314511Y-110571407D01*
X109314510Y-110571407D01*
X109408119Y-110619103D01*
X109494460Y-110663096D01*
X109686540Y-110725506D01*
X109886018Y-110757100D01*
X109886023Y-110757100D01*
X110087977Y-110757100D01*
X110087982Y-110757100D01*
X110287460Y-110725506D01*
X110479540Y-110663096D01*
X110659491Y-110571406D01*
X110822884Y-110452694D01*
X110965694Y-110309884D01*
X111084406Y-110146491D01*
X111150391Y-110016987D01*
X111196682Y-109967974D01*
X111262124Y-109951768D01*
X111325939Y-109973515D01*
X111363609Y-110016988D01*
X111429592Y-110146489D01*
X111548302Y-110309879D01*
X111548304Y-110309882D01*
X111548306Y-110309884D01*
X111691116Y-110452694D01*
X111854509Y-110571406D01*
X111854511Y-110571407D01*
X111854510Y-110571407D01*
X111948119Y-110619103D01*
X112034460Y-110663096D01*
X112226540Y-110725506D01*
X112426018Y-110757100D01*
X112426023Y-110757100D01*
X112627977Y-110757100D01*
X112627982Y-110757100D01*
X112827460Y-110725506D01*
X113019540Y-110663096D01*
X113199491Y-110571406D01*
X113362884Y-110452694D01*
X113505694Y-110309884D01*
X113624406Y-110146491D01*
X113690391Y-110016987D01*
X113736682Y-109967974D01*
X113802124Y-109951768D01*
X113865939Y-109973515D01*
X113903609Y-110016988D01*
X113969592Y-110146489D01*
X114088302Y-110309879D01*
X114088304Y-110309882D01*
X114088306Y-110309884D01*
X114231116Y-110452694D01*
X114394509Y-110571406D01*
X114394511Y-110571407D01*
X114394510Y-110571407D01*
X114488119Y-110619103D01*
X114574460Y-110663096D01*
X114766540Y-110725506D01*
X114966018Y-110757100D01*
X114966023Y-110757100D01*
X115167977Y-110757100D01*
X115167982Y-110757100D01*
X115367460Y-110725506D01*
X115559540Y-110663096D01*
X115739491Y-110571406D01*
X115902884Y-110452694D01*
X116045694Y-110309884D01*
X116164406Y-110146491D01*
X116230391Y-110016987D01*
X116276682Y-109967974D01*
X116342124Y-109951768D01*
X116405939Y-109973515D01*
X116443609Y-110016988D01*
X116509592Y-110146489D01*
X116628302Y-110309879D01*
X116628304Y-110309882D01*
X116628306Y-110309884D01*
X116771116Y-110452694D01*
X116934509Y-110571406D01*
X116934511Y-110571407D01*
X116934510Y-110571407D01*
X117028119Y-110619103D01*
X117114460Y-110663096D01*
X117306540Y-110725506D01*
X117506018Y-110757100D01*
X117506023Y-110757100D01*
X117707977Y-110757100D01*
X117707982Y-110757100D01*
X117907460Y-110725506D01*
X118099540Y-110663096D01*
X118279491Y-110571406D01*
X118442884Y-110452694D01*
X118585694Y-110309884D01*
X118704406Y-110146491D01*
X118770391Y-110016987D01*
X118816682Y-109967974D01*
X118882124Y-109951768D01*
X118945939Y-109973515D01*
X118983609Y-110016988D01*
X119049592Y-110146489D01*
X119168302Y-110309879D01*
X119168304Y-110309882D01*
X119168306Y-110309884D01*
X119311116Y-110452694D01*
X119474509Y-110571406D01*
X119474511Y-110571407D01*
X119474510Y-110571407D01*
X119568119Y-110619103D01*
X119654460Y-110663096D01*
X119846540Y-110725506D01*
X120046018Y-110757100D01*
X120046023Y-110757100D01*
X120247977Y-110757100D01*
X120247982Y-110757100D01*
X120447460Y-110725506D01*
X120639540Y-110663096D01*
X120819491Y-110571406D01*
X120982884Y-110452694D01*
X121125694Y-110309884D01*
X121244406Y-110146491D01*
X121310391Y-110016987D01*
X121356682Y-109967974D01*
X121422124Y-109951768D01*
X121485939Y-109973515D01*
X121523609Y-110016988D01*
X121589592Y-110146489D01*
X121708302Y-110309879D01*
X121708304Y-110309882D01*
X121708306Y-110309884D01*
X121851116Y-110452694D01*
X122014509Y-110571406D01*
X122014511Y-110571407D01*
X122014510Y-110571407D01*
X122108119Y-110619103D01*
X122194460Y-110663096D01*
X122386540Y-110725506D01*
X122586018Y-110757100D01*
X122586023Y-110757100D01*
X122787977Y-110757100D01*
X122787982Y-110757100D01*
X122987460Y-110725506D01*
X123179540Y-110663096D01*
X123359491Y-110571406D01*
X123522884Y-110452694D01*
X123665694Y-110309884D01*
X123784406Y-110146491D01*
X123850391Y-110016987D01*
X123896682Y-109967974D01*
X123962124Y-109951768D01*
X124025939Y-109973515D01*
X124063609Y-110016988D01*
X124129592Y-110146489D01*
X124248302Y-110309879D01*
X124248304Y-110309882D01*
X124248306Y-110309884D01*
X124391116Y-110452694D01*
X124554509Y-110571406D01*
X124554511Y-110571407D01*
X124554510Y-110571407D01*
X124648119Y-110619103D01*
X124734460Y-110663096D01*
X124926540Y-110725506D01*
X125126018Y-110757100D01*
X125126023Y-110757100D01*
X125327977Y-110757100D01*
X125327982Y-110757100D01*
X125527460Y-110725506D01*
X125719540Y-110663096D01*
X125899491Y-110571406D01*
X126062884Y-110452694D01*
X126205694Y-110309884D01*
X126324406Y-110146491D01*
X126390391Y-110016987D01*
X126436682Y-109967974D01*
X126502124Y-109951768D01*
X126565939Y-109973515D01*
X126603609Y-110016988D01*
X126669592Y-110146489D01*
X126788302Y-110309879D01*
X126788304Y-110309882D01*
X126788306Y-110309884D01*
X126931116Y-110452694D01*
X127094509Y-110571406D01*
X127094511Y-110571407D01*
X127094510Y-110571407D01*
X127188119Y-110619103D01*
X127274460Y-110663096D01*
X127466540Y-110725506D01*
X127666018Y-110757100D01*
X127666023Y-110757100D01*
X127867977Y-110757100D01*
X127867982Y-110757100D01*
X128067460Y-110725506D01*
X128259540Y-110663096D01*
X128439491Y-110571406D01*
X128602884Y-110452694D01*
X128745694Y-110309884D01*
X128864406Y-110146491D01*
X128930391Y-110016987D01*
X128976682Y-109967974D01*
X129042124Y-109951768D01*
X129105939Y-109973515D01*
X129143609Y-110016988D01*
X129209592Y-110146489D01*
X129328302Y-110309879D01*
X129328304Y-110309882D01*
X129328306Y-110309884D01*
X129471116Y-110452694D01*
X129634509Y-110571406D01*
X129634511Y-110571407D01*
X129634510Y-110571407D01*
X129728119Y-110619103D01*
X129814460Y-110663096D01*
X130006540Y-110725506D01*
X130206018Y-110757100D01*
X130206023Y-110757100D01*
X130407977Y-110757100D01*
X130407982Y-110757100D01*
X130607460Y-110725506D01*
X130799540Y-110663096D01*
X130979491Y-110571406D01*
X131142884Y-110452694D01*
X131285694Y-110309884D01*
X131404406Y-110146491D01*
X131470391Y-110016987D01*
X131516682Y-109967974D01*
X131582124Y-109951768D01*
X131645939Y-109973515D01*
X131683609Y-110016988D01*
X131749592Y-110146489D01*
X131868302Y-110309879D01*
X131868304Y-110309882D01*
X131868306Y-110309884D01*
X132011116Y-110452694D01*
X132174509Y-110571406D01*
X132174511Y-110571407D01*
X132174510Y-110571407D01*
X132268119Y-110619103D01*
X132354460Y-110663096D01*
X132546540Y-110725506D01*
X132746018Y-110757100D01*
X132746023Y-110757100D01*
X132947977Y-110757100D01*
X132947982Y-110757100D01*
X133147460Y-110725506D01*
X133339540Y-110663096D01*
X133519491Y-110571406D01*
X133682884Y-110452694D01*
X133825694Y-110309884D01*
X133944406Y-110146491D01*
X134010391Y-110016987D01*
X134056682Y-109967974D01*
X134122124Y-109951768D01*
X134185939Y-109973515D01*
X134223609Y-110016988D01*
X134289592Y-110146489D01*
X134408302Y-110309879D01*
X134408304Y-110309882D01*
X134408306Y-110309884D01*
X134551116Y-110452694D01*
X134714509Y-110571406D01*
X134714511Y-110571407D01*
X134714510Y-110571407D01*
X134808119Y-110619103D01*
X134894460Y-110663096D01*
X135086540Y-110725506D01*
X135286018Y-110757100D01*
X135286023Y-110757100D01*
X135487977Y-110757100D01*
X135487982Y-110757100D01*
X135687460Y-110725506D01*
X135879540Y-110663096D01*
X136059491Y-110571406D01*
X136222884Y-110452694D01*
X136365694Y-110309884D01*
X136484406Y-110146491D01*
X136550391Y-110016987D01*
X136596682Y-109967974D01*
X136662124Y-109951768D01*
X136725939Y-109973515D01*
X136763609Y-110016988D01*
X136829592Y-110146489D01*
X136948302Y-110309879D01*
X136948304Y-110309882D01*
X136948306Y-110309884D01*
X137091116Y-110452694D01*
X137254509Y-110571406D01*
X137254511Y-110571407D01*
X137254510Y-110571407D01*
X137348119Y-110619103D01*
X137434460Y-110663096D01*
X137626540Y-110725506D01*
X137826018Y-110757100D01*
X137826023Y-110757100D01*
X138027977Y-110757100D01*
X138027982Y-110757100D01*
X138227460Y-110725506D01*
X138419540Y-110663096D01*
X138599491Y-110571406D01*
X138762884Y-110452694D01*
X138905694Y-110309884D01*
X139024406Y-110146491D01*
X139090391Y-110016987D01*
X139136682Y-109967974D01*
X139202124Y-109951768D01*
X139265939Y-109973515D01*
X139303609Y-110016988D01*
X139369592Y-110146489D01*
X139488302Y-110309879D01*
X139488304Y-110309882D01*
X139488306Y-110309884D01*
X139631116Y-110452694D01*
X139794509Y-110571406D01*
X139794511Y-110571407D01*
X139794510Y-110571407D01*
X139888119Y-110619103D01*
X139974460Y-110663096D01*
X140166540Y-110725506D01*
X140366018Y-110757100D01*
X140366023Y-110757100D01*
X140567977Y-110757100D01*
X140567982Y-110757100D01*
X140767460Y-110725506D01*
X140959540Y-110663096D01*
X141139491Y-110571406D01*
X141302884Y-110452694D01*
X141445694Y-110309884D01*
X141564406Y-110146491D01*
X141656096Y-109966540D01*
X141718506Y-109774460D01*
X141750100Y-109574982D01*
X141750100Y-109373018D01*
X141718506Y-109173540D01*
X141656096Y-108981460D01*
X141569703Y-108811904D01*
X141564407Y-108801510D01*
X141445697Y-108638120D01*
X141445695Y-108638117D01*
X141302882Y-108495304D01*
X141302879Y-108495302D01*
X141175698Y-108402900D01*
X141139491Y-108376594D01*
X141139490Y-108376593D01*
X141139488Y-108376592D01*
X141139489Y-108376592D01*
X140959544Y-108284906D01*
X140959543Y-108284905D01*
X140959540Y-108284904D01*
X140867689Y-108255060D01*
X140767459Y-108222493D01*
X140599575Y-108195903D01*
X140567982Y-108190900D01*
X140366018Y-108190900D01*
X140166540Y-108222493D01*
X139974466Y-108284902D01*
X139974460Y-108284904D01*
X139974458Y-108284904D01*
X139974455Y-108284906D01*
X139794510Y-108376592D01*
X139631120Y-108495302D01*
X139631117Y-108495304D01*
X139488304Y-108638117D01*
X139488302Y-108638120D01*
X139369592Y-108801510D01*
X139303609Y-108931011D01*
X139257318Y-108980025D01*
X139191876Y-108996231D01*
X139128061Y-108974484D01*
X139090391Y-108931011D01*
X139024407Y-108801510D01*
X138905697Y-108638120D01*
X138905695Y-108638117D01*
X138762882Y-108495304D01*
X138762879Y-108495302D01*
X138635698Y-108402900D01*
X138599491Y-108376594D01*
X138599490Y-108376593D01*
X138599488Y-108376592D01*
X138599489Y-108376592D01*
X138419544Y-108284906D01*
X138419543Y-108284905D01*
X138419540Y-108284904D01*
X138327689Y-108255060D01*
X138227459Y-108222493D01*
X138059575Y-108195903D01*
X138027982Y-108190900D01*
X137826018Y-108190900D01*
X137626540Y-108222493D01*
X137434466Y-108284902D01*
X137434460Y-108284904D01*
X137434458Y-108284904D01*
X137434455Y-108284906D01*
X137254510Y-108376592D01*
X137091120Y-108495302D01*
X137091117Y-108495304D01*
X136948304Y-108638117D01*
X136948302Y-108638120D01*
X136829592Y-108801510D01*
X136763609Y-108931011D01*
X136717318Y-108980025D01*
X136651876Y-108996231D01*
X136588061Y-108974484D01*
X136550391Y-108931011D01*
X136484407Y-108801510D01*
X136365697Y-108638120D01*
X136365695Y-108638117D01*
X136222882Y-108495304D01*
X136222879Y-108495302D01*
X136095698Y-108402900D01*
X136059491Y-108376594D01*
X136059490Y-108376593D01*
X136059488Y-108376592D01*
X136059489Y-108376592D01*
X135879544Y-108284906D01*
X135879543Y-108284905D01*
X135879540Y-108284904D01*
X135787689Y-108255060D01*
X135687459Y-108222493D01*
X135519575Y-108195903D01*
X135487982Y-108190900D01*
X135286018Y-108190900D01*
X135086540Y-108222493D01*
X134894466Y-108284902D01*
X134894460Y-108284904D01*
X134894458Y-108284904D01*
X134894455Y-108284906D01*
X134714510Y-108376592D01*
X134551120Y-108495302D01*
X134551117Y-108495304D01*
X134408304Y-108638117D01*
X134408302Y-108638120D01*
X134289592Y-108801510D01*
X134223609Y-108931011D01*
X134177318Y-108980025D01*
X134111876Y-108996231D01*
X134048061Y-108974484D01*
X134010391Y-108931011D01*
X133944407Y-108801510D01*
X133825697Y-108638120D01*
X133825695Y-108638117D01*
X133682882Y-108495304D01*
X133682879Y-108495302D01*
X133555698Y-108402900D01*
X133519491Y-108376594D01*
X133519490Y-108376593D01*
X133519488Y-108376592D01*
X133519489Y-108376592D01*
X133339544Y-108284906D01*
X133339543Y-108284905D01*
X133339540Y-108284904D01*
X133247689Y-108255060D01*
X133147459Y-108222493D01*
X132979575Y-108195903D01*
X132947982Y-108190900D01*
X132746018Y-108190900D01*
X132546540Y-108222493D01*
X132354466Y-108284902D01*
X132354460Y-108284904D01*
X132354458Y-108284904D01*
X132354455Y-108284906D01*
X132174510Y-108376592D01*
X132011120Y-108495302D01*
X132011117Y-108495304D01*
X131868304Y-108638117D01*
X131868302Y-108638120D01*
X131749592Y-108801510D01*
X131683609Y-108931011D01*
X131637318Y-108980025D01*
X131571876Y-108996231D01*
X131508061Y-108974484D01*
X131470391Y-108931011D01*
X131404407Y-108801510D01*
X131285697Y-108638120D01*
X131285695Y-108638117D01*
X131142882Y-108495304D01*
X131142879Y-108495302D01*
X131015698Y-108402900D01*
X130979491Y-108376594D01*
X130979490Y-108376593D01*
X130979488Y-108376592D01*
X130979489Y-108376592D01*
X130799544Y-108284906D01*
X130799543Y-108284905D01*
X130799540Y-108284904D01*
X130707689Y-108255060D01*
X130607459Y-108222493D01*
X130439575Y-108195903D01*
X130407982Y-108190900D01*
X130206018Y-108190900D01*
X130006540Y-108222493D01*
X129814466Y-108284902D01*
X129814460Y-108284904D01*
X129814458Y-108284904D01*
X129814455Y-108284906D01*
X129634510Y-108376592D01*
X129471120Y-108495302D01*
X129471117Y-108495304D01*
X129328304Y-108638117D01*
X129328302Y-108638120D01*
X129209592Y-108801510D01*
X129143609Y-108931011D01*
X129097318Y-108980025D01*
X129031876Y-108996231D01*
X128968061Y-108974484D01*
X128930391Y-108931011D01*
X128864407Y-108801510D01*
X128745697Y-108638120D01*
X128745695Y-108638117D01*
X128602882Y-108495304D01*
X128602879Y-108495302D01*
X128475698Y-108402900D01*
X128439491Y-108376594D01*
X128439490Y-108376593D01*
X128439488Y-108376592D01*
X128439489Y-108376592D01*
X128259544Y-108284906D01*
X128259543Y-108284905D01*
X128259540Y-108284904D01*
X128167689Y-108255060D01*
X128067459Y-108222493D01*
X127899575Y-108195903D01*
X127867982Y-108190900D01*
X127666018Y-108190900D01*
X127466540Y-108222493D01*
X127274466Y-108284902D01*
X127274460Y-108284904D01*
X127274458Y-108284904D01*
X127274455Y-108284906D01*
X127094510Y-108376592D01*
X126931120Y-108495302D01*
X126931117Y-108495304D01*
X126788304Y-108638117D01*
X126788302Y-108638120D01*
X126669592Y-108801510D01*
X126603609Y-108931011D01*
X126557318Y-108980025D01*
X126491876Y-108996231D01*
X126428061Y-108974484D01*
X126390391Y-108931011D01*
X126324407Y-108801510D01*
X126205697Y-108638120D01*
X126205695Y-108638117D01*
X126062882Y-108495304D01*
X126062879Y-108495302D01*
X125935698Y-108402900D01*
X125899491Y-108376594D01*
X125899490Y-108376593D01*
X125899488Y-108376592D01*
X125899489Y-108376592D01*
X125719544Y-108284906D01*
X125719543Y-108284905D01*
X125719540Y-108284904D01*
X125627689Y-108255060D01*
X125527459Y-108222493D01*
X125359575Y-108195903D01*
X125327982Y-108190900D01*
X125126018Y-108190900D01*
X124926540Y-108222493D01*
X124734466Y-108284902D01*
X124734460Y-108284904D01*
X124734458Y-108284904D01*
X124734455Y-108284906D01*
X124554510Y-108376592D01*
X124391120Y-108495302D01*
X124391117Y-108495304D01*
X124248304Y-108638117D01*
X124248302Y-108638120D01*
X124129592Y-108801510D01*
X124063609Y-108931011D01*
X124017318Y-108980025D01*
X123951876Y-108996231D01*
X123888061Y-108974484D01*
X123850391Y-108931011D01*
X123784407Y-108801510D01*
X123665697Y-108638120D01*
X123665695Y-108638117D01*
X123522882Y-108495304D01*
X123522879Y-108495302D01*
X123395698Y-108402900D01*
X123359491Y-108376594D01*
X123359490Y-108376593D01*
X123359488Y-108376592D01*
X123359489Y-108376592D01*
X123179544Y-108284906D01*
X123179543Y-108284905D01*
X123179540Y-108284904D01*
X123087689Y-108255060D01*
X122987459Y-108222493D01*
X122819575Y-108195903D01*
X122787982Y-108190900D01*
X122586018Y-108190900D01*
X122386540Y-108222493D01*
X122194466Y-108284902D01*
X122194460Y-108284904D01*
X122194458Y-108284904D01*
X122194455Y-108284906D01*
X122014510Y-108376592D01*
X121851120Y-108495302D01*
X121851117Y-108495304D01*
X121708304Y-108638117D01*
X121708302Y-108638120D01*
X121589592Y-108801510D01*
X121523609Y-108931011D01*
X121477318Y-108980025D01*
X121411876Y-108996231D01*
X121348061Y-108974484D01*
X121310391Y-108931011D01*
X121244407Y-108801510D01*
X121125697Y-108638120D01*
X121125695Y-108638117D01*
X120982882Y-108495304D01*
X120982879Y-108495302D01*
X120855698Y-108402900D01*
X120819491Y-108376594D01*
X120819490Y-108376593D01*
X120819488Y-108376592D01*
X120819489Y-108376592D01*
X120639544Y-108284906D01*
X120639543Y-108284905D01*
X120639540Y-108284904D01*
X120547689Y-108255060D01*
X120447459Y-108222493D01*
X120279575Y-108195903D01*
X120247982Y-108190900D01*
X120046018Y-108190900D01*
X119846540Y-108222493D01*
X119654466Y-108284902D01*
X119654460Y-108284904D01*
X119654458Y-108284904D01*
X119654455Y-108284906D01*
X119474510Y-108376592D01*
X119311120Y-108495302D01*
X119311117Y-108495304D01*
X119168304Y-108638117D01*
X119168302Y-108638120D01*
X119049592Y-108801510D01*
X118983609Y-108931011D01*
X118937318Y-108980025D01*
X118871876Y-108996231D01*
X118808061Y-108974484D01*
X118770391Y-108931011D01*
X118704407Y-108801510D01*
X118585697Y-108638120D01*
X118585695Y-108638117D01*
X118442882Y-108495304D01*
X118442879Y-108495302D01*
X118315698Y-108402900D01*
X118279491Y-108376594D01*
X118279490Y-108376593D01*
X118279488Y-108376592D01*
X118279489Y-108376592D01*
X118099544Y-108284906D01*
X118099543Y-108284905D01*
X118099540Y-108284904D01*
X118007689Y-108255060D01*
X117907459Y-108222493D01*
X117739575Y-108195903D01*
X117707982Y-108190900D01*
X117506018Y-108190900D01*
X117306540Y-108222493D01*
X117114466Y-108284902D01*
X117114460Y-108284904D01*
X117114458Y-108284904D01*
X117114455Y-108284906D01*
X116934510Y-108376592D01*
X116771120Y-108495302D01*
X116771117Y-108495304D01*
X116628304Y-108638117D01*
X116628302Y-108638120D01*
X116509592Y-108801510D01*
X116443609Y-108931011D01*
X116397318Y-108980025D01*
X116331876Y-108996231D01*
X116268061Y-108974484D01*
X116230391Y-108931011D01*
X116164407Y-108801510D01*
X116045697Y-108638120D01*
X116045695Y-108638117D01*
X115902882Y-108495304D01*
X115902879Y-108495302D01*
X115775698Y-108402900D01*
X115739491Y-108376594D01*
X115739490Y-108376593D01*
X115739488Y-108376592D01*
X115739489Y-108376592D01*
X115559544Y-108284906D01*
X115559543Y-108284905D01*
X115559540Y-108284904D01*
X115467689Y-108255060D01*
X115367459Y-108222493D01*
X115199575Y-108195903D01*
X115167982Y-108190900D01*
X114966018Y-108190900D01*
X114766540Y-108222493D01*
X114574466Y-108284902D01*
X114574460Y-108284904D01*
X114574458Y-108284904D01*
X114574455Y-108284906D01*
X114394510Y-108376592D01*
X114231120Y-108495302D01*
X114231117Y-108495304D01*
X114088304Y-108638117D01*
X114088302Y-108638120D01*
X113969592Y-108801510D01*
X113903609Y-108931011D01*
X113857318Y-108980025D01*
X113791876Y-108996231D01*
X113728061Y-108974484D01*
X113690391Y-108931011D01*
X113624407Y-108801510D01*
X113505697Y-108638120D01*
X113505695Y-108638117D01*
X113362882Y-108495304D01*
X113362879Y-108495302D01*
X113235698Y-108402900D01*
X113199491Y-108376594D01*
X113199490Y-108376593D01*
X113199488Y-108376592D01*
X113199489Y-108376592D01*
X113019544Y-108284906D01*
X113019543Y-108284905D01*
X113019540Y-108284904D01*
X112927689Y-108255060D01*
X112827459Y-108222493D01*
X112688859Y-108200541D01*
X112649137Y-108194250D01*
X112588218Y-108165372D01*
X112552582Y-108108141D01*
X112553545Y-108040729D01*
X112568371Y-108009598D01*
X112580975Y-107990735D01*
X112640003Y-107848230D01*
X112640003Y-107848228D01*
X112640006Y-107848222D01*
X112670100Y-107696929D01*
X112670100Y-107542671D01*
X112640006Y-107391378D01*
X112640004Y-107391373D01*
X112640003Y-107391369D01*
X112580975Y-107248864D01*
X112580973Y-107248861D01*
X112495274Y-107120603D01*
X112386196Y-107011525D01*
X112257938Y-106925826D01*
X112257935Y-106925824D01*
X112115430Y-106866796D01*
X112115422Y-106866794D01*
X111964129Y-106836700D01*
X111809871Y-106836700D01*
X111658577Y-106866794D01*
X111658569Y-106866796D01*
X111516064Y-106925824D01*
X111516061Y-106925826D01*
X111387803Y-107011525D01*
X111278725Y-107120603D01*
X111193026Y-107248861D01*
X111193024Y-107248864D01*
X111133996Y-107391369D01*
X111133994Y-107391377D01*
X111103900Y-107542670D01*
X111103900Y-107696929D01*
X111133994Y-107848222D01*
X111133996Y-107848230D01*
X111193024Y-107990735D01*
X111193026Y-107990738D01*
X111278725Y-108118996D01*
X111387803Y-108228074D01*
X111516061Y-108313773D01*
X111516064Y-108313775D01*
X111602768Y-108349689D01*
X111655263Y-108391992D01*
X111676554Y-108455960D01*
X111659881Y-108521285D01*
X111641586Y-108544836D01*
X111548300Y-108638122D01*
X111429592Y-108801510D01*
X111363609Y-108931011D01*
X111317318Y-108980025D01*
X111251876Y-108996231D01*
X111188061Y-108974484D01*
X111150391Y-108931011D01*
X111084407Y-108801510D01*
X110965697Y-108638120D01*
X110965695Y-108638117D01*
X110822882Y-108495304D01*
X110822879Y-108495302D01*
X110695698Y-108402900D01*
X110659491Y-108376594D01*
X110659490Y-108376593D01*
X110659488Y-108376592D01*
X110659489Y-108376592D01*
X110479544Y-108284906D01*
X110479543Y-108284905D01*
X110479540Y-108284904D01*
X110387689Y-108255060D01*
X110287459Y-108222493D01*
X110119575Y-108195903D01*
X110087982Y-108190900D01*
X109886018Y-108190900D01*
X109686540Y-108222493D01*
X109494466Y-108284902D01*
X109494460Y-108284904D01*
X109494458Y-108284904D01*
X109494455Y-108284906D01*
X109314510Y-108376592D01*
X109151120Y-108495302D01*
X109151117Y-108495304D01*
X109008304Y-108638117D01*
X109008302Y-108638120D01*
X108889592Y-108801510D01*
X108823609Y-108931011D01*
X108777318Y-108980025D01*
X108711876Y-108996231D01*
X108648061Y-108974484D01*
X108610391Y-108931011D01*
X108544407Y-108801510D01*
X108425697Y-108638120D01*
X108425695Y-108638117D01*
X108282882Y-108495304D01*
X108282879Y-108495302D01*
X108155698Y-108402900D01*
X108119491Y-108376594D01*
X108119490Y-108376593D01*
X108119488Y-108376592D01*
X108119489Y-108376592D01*
X107939544Y-108284906D01*
X107939543Y-108284905D01*
X107939540Y-108284904D01*
X107847689Y-108255060D01*
X107747459Y-108222493D01*
X107579575Y-108195903D01*
X107547982Y-108190900D01*
X107346018Y-108190900D01*
X107146540Y-108222493D01*
X106954466Y-108284902D01*
X106954460Y-108284904D01*
X106954458Y-108284904D01*
X106954455Y-108284906D01*
X106774510Y-108376592D01*
X106611120Y-108495302D01*
X106611117Y-108495304D01*
X106468304Y-108638117D01*
X106468302Y-108638120D01*
X106349592Y-108801510D01*
X106283609Y-108931011D01*
X106237318Y-108980025D01*
X106171876Y-108996231D01*
X106108061Y-108974484D01*
X106070391Y-108931011D01*
X106004407Y-108801510D01*
X105885697Y-108638120D01*
X105885695Y-108638117D01*
X105742882Y-108495304D01*
X105742879Y-108495302D01*
X105615698Y-108402900D01*
X105579491Y-108376594D01*
X105579490Y-108376593D01*
X105579488Y-108376592D01*
X105579489Y-108376592D01*
X105399544Y-108284906D01*
X105399543Y-108284905D01*
X105399540Y-108284904D01*
X105307689Y-108255060D01*
X105207459Y-108222493D01*
X105039575Y-108195903D01*
X105007982Y-108190900D01*
X104806018Y-108190900D01*
X104606540Y-108222493D01*
X104414466Y-108284902D01*
X104414460Y-108284904D01*
X104414458Y-108284904D01*
X104414455Y-108284906D01*
X104234510Y-108376592D01*
X104071120Y-108495302D01*
X104071117Y-108495304D01*
X103928304Y-108638117D01*
X103928302Y-108638120D01*
X103809592Y-108801510D01*
X103743609Y-108931011D01*
X103697318Y-108980025D01*
X103631876Y-108996231D01*
X103568061Y-108974484D01*
X103530391Y-108931011D01*
X103464407Y-108801510D01*
X103345697Y-108638120D01*
X103345695Y-108638117D01*
X103202882Y-108495304D01*
X103202879Y-108495302D01*
X103075698Y-108402900D01*
X103039491Y-108376594D01*
X103039490Y-108376593D01*
X103039488Y-108376592D01*
X103039489Y-108376592D01*
X102859544Y-108284906D01*
X102859543Y-108284905D01*
X102859540Y-108284904D01*
X102767689Y-108255060D01*
X102667459Y-108222493D01*
X102499575Y-108195903D01*
X102467982Y-108190900D01*
X102266018Y-108190900D01*
X102066540Y-108222493D01*
X101874466Y-108284902D01*
X101874460Y-108284904D01*
X101874458Y-108284904D01*
X101874455Y-108284906D01*
X101694510Y-108376592D01*
X101531120Y-108495302D01*
X101531117Y-108495304D01*
X101388304Y-108638117D01*
X101388302Y-108638120D01*
X101269592Y-108801510D01*
X101203609Y-108931011D01*
X101157318Y-108980025D01*
X101091876Y-108996231D01*
X101028061Y-108974484D01*
X100990391Y-108931011D01*
X100924407Y-108801510D01*
X100805697Y-108638120D01*
X100805695Y-108638117D01*
X100662882Y-108495304D01*
X100662879Y-108495302D01*
X100535698Y-108402900D01*
X100499491Y-108376594D01*
X100499490Y-108376593D01*
X100499488Y-108376592D01*
X100499489Y-108376592D01*
X100319544Y-108284906D01*
X100319543Y-108284905D01*
X100319540Y-108284904D01*
X100227689Y-108255060D01*
X100127459Y-108222493D01*
X99959575Y-108195903D01*
X99927982Y-108190900D01*
X99726018Y-108190900D01*
X99526540Y-108222493D01*
X99334466Y-108284902D01*
X99334460Y-108284904D01*
X99334458Y-108284904D01*
X99334455Y-108284906D01*
X99154510Y-108376592D01*
X98991120Y-108495302D01*
X98991117Y-108495304D01*
X98848304Y-108638117D01*
X98848302Y-108638120D01*
X98729592Y-108801510D01*
X98663609Y-108931011D01*
X98617318Y-108980025D01*
X98551876Y-108996231D01*
X98488061Y-108974484D01*
X98450391Y-108931011D01*
X98384407Y-108801510D01*
X98265697Y-108638120D01*
X98265695Y-108638117D01*
X98122882Y-108495304D01*
X98122879Y-108495302D01*
X97995698Y-108402900D01*
X97959491Y-108376594D01*
X97959490Y-108376593D01*
X97959488Y-108376592D01*
X97959489Y-108376592D01*
X97779544Y-108284906D01*
X97779543Y-108284905D01*
X97779540Y-108284904D01*
X97687689Y-108255060D01*
X97587459Y-108222493D01*
X97419575Y-108195903D01*
X97387982Y-108190900D01*
X97186018Y-108190900D01*
X96986540Y-108222493D01*
X96794466Y-108284902D01*
X96794460Y-108284904D01*
X96794458Y-108284904D01*
X96794455Y-108284906D01*
X96614510Y-108376592D01*
X96451120Y-108495302D01*
X96451117Y-108495304D01*
X96308304Y-108638117D01*
X96308302Y-108638120D01*
X96189592Y-108801510D01*
X96123609Y-108931011D01*
X96077318Y-108980025D01*
X96011876Y-108996231D01*
X95948061Y-108974484D01*
X95910391Y-108931011D01*
X95844407Y-108801510D01*
X95725697Y-108638120D01*
X95725695Y-108638117D01*
X95582882Y-108495304D01*
X95582879Y-108495302D01*
X95455698Y-108402900D01*
X95419491Y-108376594D01*
X95419490Y-108376593D01*
X95419488Y-108376592D01*
X95419489Y-108376592D01*
X95239544Y-108284906D01*
X95239543Y-108284905D01*
X95239540Y-108284904D01*
X95147689Y-108255060D01*
X95047459Y-108222493D01*
X94879575Y-108195903D01*
X94847982Y-108190900D01*
X94646018Y-108190900D01*
X94446540Y-108222493D01*
X94254466Y-108284902D01*
X94254460Y-108284904D01*
X94254458Y-108284904D01*
X94254455Y-108284906D01*
X94074510Y-108376592D01*
X93911120Y-108495302D01*
X93911117Y-108495304D01*
X93768305Y-108638116D01*
X93676144Y-108764966D01*
X93622755Y-108806135D01*
X93555584Y-108811904D01*
X93495956Y-108780442D01*
X93465768Y-108732272D01*
X93425938Y-108612069D01*
X93335970Y-108466210D01*
X93335967Y-108466207D01*
X93335965Y-108466204D01*
X93214795Y-108345034D01*
X93214792Y-108345032D01*
X93214790Y-108345030D01*
X93068931Y-108255062D01*
X93068925Y-108255060D01*
X92906262Y-108201160D01*
X92906251Y-108201157D01*
X92805854Y-108190900D01*
X91608154Y-108190900D01*
X91507743Y-108201158D01*
X91345074Y-108255060D01*
X91345069Y-108255062D01*
X91296692Y-108284902D01*
X91199207Y-108345032D01*
X91199204Y-108345034D01*
X91078034Y-108466204D01*
X91078032Y-108466207D01*
X91078030Y-108466209D01*
X91078030Y-108466210D01*
X91060083Y-108495306D01*
X90988062Y-108612069D01*
X90988060Y-108612074D01*
X90934160Y-108774737D01*
X90934157Y-108774748D01*
X90923900Y-108875143D01*
X90416500Y-108875143D01*
X90416500Y-103072270D01*
X115798900Y-103072270D01*
X115798900Y-103226529D01*
X115828994Y-103377822D01*
X115828996Y-103377830D01*
X115888024Y-103520335D01*
X115888026Y-103520338D01*
X115973725Y-103648596D01*
X116082803Y-103757674D01*
X116211061Y-103843373D01*
X116211064Y-103843375D01*
X116353569Y-103902403D01*
X116353573Y-103902404D01*
X116353578Y-103902406D01*
X116504871Y-103932500D01*
X116659129Y-103932500D01*
X116810422Y-103902406D01*
X116810428Y-103902403D01*
X116810430Y-103902403D01*
X116952935Y-103843375D01*
X116952938Y-103843373D01*
X117081196Y-103757674D01*
X117190274Y-103648596D01*
X117275973Y-103520338D01*
X117275974Y-103520337D01*
X117329911Y-103390121D01*
X117372213Y-103337626D01*
X117394663Y-103325367D01*
X117515127Y-103275470D01*
X119790700Y-103275470D01*
X119790700Y-103429729D01*
X119820794Y-103581022D01*
X119820796Y-103581030D01*
X119879824Y-103723535D01*
X119879826Y-103723538D01*
X119965525Y-103851796D01*
X120074603Y-103960874D01*
X120202861Y-104046573D01*
X120202864Y-104046575D01*
X120345369Y-104105603D01*
X120345373Y-104105604D01*
X120345378Y-104105606D01*
X120496671Y-104135700D01*
X120650929Y-104135700D01*
X120802222Y-104105606D01*
X120802228Y-104105603D01*
X120802230Y-104105603D01*
X120944735Y-104046575D01*
X120944738Y-104046573D01*
X121072996Y-103960874D01*
X121182074Y-103851796D01*
X121267773Y-103723538D01*
X121267775Y-103723535D01*
X121326803Y-103581030D01*
X121326803Y-103581028D01*
X121326806Y-103581022D01*
X121356900Y-103429729D01*
X121356900Y-103275471D01*
X121326806Y-103124178D01*
X121326804Y-103124173D01*
X121326803Y-103124169D01*
X121267775Y-102981664D01*
X121267773Y-102981661D01*
X121182074Y-102853403D01*
X121072996Y-102744325D01*
X120944738Y-102658626D01*
X120944735Y-102658624D01*
X120802230Y-102599596D01*
X120802222Y-102599594D01*
X120650929Y-102569500D01*
X120496671Y-102569500D01*
X120345377Y-102599594D01*
X120345369Y-102599596D01*
X120202864Y-102658624D01*
X120202861Y-102658626D01*
X120074603Y-102744325D01*
X119965525Y-102853403D01*
X119879826Y-102981661D01*
X119879824Y-102981664D01*
X119820796Y-103124169D01*
X119820794Y-103124177D01*
X119790700Y-103275470D01*
X117515127Y-103275470D01*
X117520187Y-103273374D01*
X117648447Y-103187673D01*
X117651133Y-103184988D01*
X117757523Y-103078597D01*
X117757524Y-103078596D01*
X117822292Y-102981664D01*
X117843224Y-102950337D01*
X117855385Y-102920978D01*
X117902253Y-102807830D01*
X117902256Y-102807821D01*
X117924266Y-102697165D01*
X117955515Y-102637428D01*
X118003009Y-102608384D01*
X118002791Y-102607856D01*
X118006148Y-102606465D01*
X118006898Y-102606007D01*
X118008213Y-102605607D01*
X118008222Y-102605606D01*
X118150737Y-102546574D01*
X118278997Y-102460873D01*
X118388073Y-102351797D01*
X118388621Y-102350978D01*
X118473773Y-102223538D01*
X118473775Y-102223535D01*
X118532803Y-102081030D01*
X118532803Y-102081028D01*
X118532806Y-102081022D01*
X118562900Y-101929729D01*
X118562900Y-101775471D01*
X118532806Y-101624178D01*
X118532804Y-101624173D01*
X118532803Y-101624169D01*
X118473775Y-101481664D01*
X118473773Y-101481661D01*
X118388074Y-101353403D01*
X118369756Y-101335085D01*
X118337445Y-101275913D01*
X118342255Y-101208667D01*
X118359563Y-101178588D01*
X118359408Y-101178485D01*
X118360958Y-101176163D01*
X118361879Y-101174565D01*
X118362676Y-101173594D01*
X118414093Y-101096641D01*
X118448374Y-101045337D01*
X118495800Y-100930839D01*
X118538101Y-100878347D01*
X118582997Y-100859280D01*
X118592422Y-100857406D01*
X118734937Y-100798374D01*
X118814513Y-100745203D01*
X118863196Y-100712674D01*
X118972272Y-100603598D01*
X118981104Y-100590380D01*
X119032542Y-100513398D01*
X119084271Y-100470166D01*
X119108681Y-100462522D01*
X119248022Y-100434806D01*
X119248028Y-100434803D01*
X119248030Y-100434803D01*
X119328577Y-100401439D01*
X119390537Y-100375774D01*
X119438126Y-100343975D01*
X119502463Y-100323830D01*
X119567480Y-100341666D01*
X119571055Y-100343963D01*
X119618663Y-100375774D01*
X119618664Y-100375774D01*
X119618665Y-100375775D01*
X119761169Y-100434803D01*
X119761173Y-100434804D01*
X119761178Y-100434806D01*
X119912471Y-100464900D01*
X120066729Y-100464900D01*
X120218022Y-100434806D01*
X120218028Y-100434803D01*
X120218030Y-100434803D01*
X120360535Y-100375775D01*
X120360538Y-100375773D01*
X120488796Y-100290074D01*
X120597874Y-100180996D01*
X120683573Y-100052738D01*
X120683575Y-100052735D01*
X120742603Y-99910230D01*
X120742603Y-99910228D01*
X120742606Y-99910222D01*
X120772700Y-99758929D01*
X120772700Y-99604671D01*
X120742606Y-99453378D01*
X120742604Y-99453373D01*
X120742603Y-99453369D01*
X120683575Y-99310864D01*
X120683573Y-99310861D01*
X120597874Y-99182603D01*
X120488796Y-99073525D01*
X120444954Y-99044231D01*
X120360538Y-98987826D01*
X120360535Y-98987824D01*
X120270725Y-98950623D01*
X125158642Y-98950623D01*
X125158642Y-99104882D01*
X125188736Y-99256175D01*
X125188738Y-99256183D01*
X125247766Y-99398688D01*
X125247768Y-99398691D01*
X125333467Y-99526949D01*
X125442545Y-99636027D01*
X125570803Y-99721726D01*
X125574761Y-99723842D01*
X125622856Y-99771087D01*
X125635708Y-99806019D01*
X125651268Y-99884244D01*
X125651270Y-99884250D01*
X125710298Y-100026755D01*
X125710300Y-100026758D01*
X125795999Y-100155016D01*
X125905067Y-100264084D01*
X125905072Y-100264088D01*
X125905077Y-100264093D01*
X125905082Y-100264096D01*
X125908747Y-100267104D01*
X125946703Y-100322823D01*
X125952495Y-100359598D01*
X125952495Y-100439087D01*
X125982589Y-100590380D01*
X125982591Y-100590388D01*
X126041619Y-100732893D01*
X126041621Y-100732896D01*
X126127320Y-100861154D01*
X126236398Y-100970232D01*
X126364656Y-101055931D01*
X126364659Y-101055933D01*
X126507164Y-101114961D01*
X126507168Y-101114962D01*
X126507173Y-101114964D01*
X126658466Y-101145058D01*
X126812724Y-101145058D01*
X126964017Y-101114964D01*
X126964023Y-101114961D01*
X126964025Y-101114961D01*
X127106530Y-101055933D01*
X127106533Y-101055931D01*
X127234791Y-100970232D01*
X127343869Y-100861154D01*
X127429568Y-100732896D01*
X127429570Y-100732893D01*
X127488598Y-100590388D01*
X127488598Y-100590386D01*
X127488601Y-100590380D01*
X127518695Y-100439087D01*
X127518695Y-100284829D01*
X127488601Y-100133536D01*
X127488599Y-100133531D01*
X127488598Y-100133527D01*
X127429570Y-99991022D01*
X127429568Y-99991019D01*
X127343869Y-99862761D01*
X127234792Y-99753684D01*
X127231116Y-99750667D01*
X127193163Y-99694946D01*
X127187374Y-99658179D01*
X127187374Y-99578690D01*
X127170951Y-99496127D01*
X127157280Y-99427398D01*
X127157278Y-99427393D01*
X127157277Y-99427389D01*
X127111344Y-99316497D01*
X127104137Y-99249465D01*
X127134315Y-99189177D01*
X127192296Y-99154776D01*
X127198524Y-99153362D01*
X127330022Y-99127206D01*
X127330026Y-99127204D01*
X127330030Y-99127203D01*
X127472535Y-99068175D01*
X127472538Y-99068173D01*
X127478724Y-99064040D01*
X127592789Y-98987824D01*
X127600796Y-98982474D01*
X127709874Y-98873396D01*
X127795573Y-98745138D01*
X127795575Y-98745135D01*
X127854603Y-98602630D01*
X127854603Y-98602628D01*
X127854606Y-98602622D01*
X127884700Y-98451329D01*
X127884700Y-98297071D01*
X127880259Y-98274747D01*
X127874273Y-98244653D01*
X127854606Y-98145778D01*
X127854604Y-98145773D01*
X127854603Y-98145769D01*
X127795575Y-98003264D01*
X127795573Y-98003261D01*
X127709874Y-97875003D01*
X127600796Y-97765925D01*
X127472538Y-97680226D01*
X127472535Y-97680224D01*
X127330030Y-97621196D01*
X127330022Y-97621194D01*
X127178729Y-97591100D01*
X127024471Y-97591100D01*
X126873177Y-97621194D01*
X126873169Y-97621196D01*
X126730664Y-97680224D01*
X126730661Y-97680226D01*
X126602403Y-97765925D01*
X126493325Y-97875003D01*
X126407626Y-98003261D01*
X126407624Y-98003264D01*
X126348596Y-98145769D01*
X126348594Y-98145777D01*
X126339754Y-98190219D01*
X126308504Y-98249958D01*
X126249918Y-98283319D01*
X126182596Y-98279710D01*
X126176617Y-98277419D01*
X126170172Y-98274749D01*
X126170164Y-98274747D01*
X126018871Y-98244653D01*
X125864613Y-98244653D01*
X125713319Y-98274747D01*
X125713311Y-98274749D01*
X125570806Y-98333777D01*
X125570803Y-98333779D01*
X125442545Y-98419478D01*
X125333467Y-98528556D01*
X125247768Y-98656814D01*
X125247766Y-98656817D01*
X125188738Y-98799322D01*
X125188736Y-98799330D01*
X125158642Y-98950623D01*
X120270725Y-98950623D01*
X120218030Y-98928796D01*
X120218022Y-98928794D01*
X120066729Y-98898700D01*
X119912471Y-98898700D01*
X119761177Y-98928794D01*
X119761169Y-98928796D01*
X119618667Y-98987823D01*
X119618665Y-98987824D01*
X119571073Y-99019624D01*
X119506734Y-99039769D01*
X119441718Y-99021932D01*
X119438127Y-99019624D01*
X119390534Y-98987824D01*
X119390532Y-98987823D01*
X119248030Y-98928796D01*
X119248022Y-98928794D01*
X119096729Y-98898700D01*
X118942471Y-98898700D01*
X118791177Y-98928794D01*
X118791169Y-98928796D01*
X118648664Y-98987824D01*
X118648661Y-98987826D01*
X118520403Y-99073525D01*
X118411325Y-99182603D01*
X118351058Y-99272800D01*
X118299327Y-99316033D01*
X118274917Y-99323677D01*
X118135575Y-99351394D01*
X118135569Y-99351396D01*
X117993064Y-99410424D01*
X117993061Y-99410426D01*
X117864803Y-99496125D01*
X117755725Y-99605203D01*
X117670026Y-99733461D01*
X117622600Y-99847957D01*
X117580297Y-99900451D01*
X117535407Y-99919518D01*
X117525980Y-99921393D01*
X117525975Y-99921395D01*
X117383463Y-99980425D01*
X117383461Y-99980426D01*
X117255203Y-100066125D01*
X117146125Y-100175203D01*
X117060426Y-100303461D01*
X117019842Y-100401439D01*
X116977538Y-100453933D01*
X116932644Y-100473001D01*
X116840175Y-100491394D01*
X116840169Y-100491396D01*
X116697664Y-100550424D01*
X116697661Y-100550426D01*
X116569403Y-100636125D01*
X116460325Y-100745203D01*
X116374626Y-100873461D01*
X116374624Y-100873464D01*
X116315596Y-101015969D01*
X116315594Y-101015977D01*
X116285500Y-101167270D01*
X116285500Y-101321529D01*
X116315594Y-101472822D01*
X116315596Y-101472830D01*
X116374624Y-101615335D01*
X116374626Y-101615338D01*
X116460325Y-101743596D01*
X116569402Y-101852673D01*
X116573949Y-101856405D01*
X116572830Y-101857767D01*
X116610760Y-101903141D01*
X116619171Y-101970033D01*
X116590082Y-102030853D01*
X116585665Y-102035513D01*
X116540975Y-102080203D01*
X116455276Y-102208461D01*
X116455274Y-102208464D01*
X116401338Y-102338679D01*
X116359035Y-102391174D01*
X116336584Y-102403433D01*
X116211064Y-102455424D01*
X116211061Y-102455426D01*
X116082803Y-102541125D01*
X115973725Y-102650203D01*
X115888026Y-102778461D01*
X115888024Y-102778464D01*
X115828996Y-102920969D01*
X115828994Y-102920977D01*
X115798900Y-103072270D01*
X90416500Y-103072270D01*
X90416500Y-92822150D01*
X90435494Y-92757462D01*
X90486446Y-92713313D01*
X90536150Y-92702500D01*
X119986025Y-92702500D01*
X120050713Y-92721494D01*
G37*
%TD.AperFunction*%
%TD*%
M02*
