%TF.GenerationSoftware,KiCad,Pcbnew,9.0.9*%
%TF.CreationDate,2026-08-16T17:48:33-07:00*%
%TF.ProjectId,ZID_POD,5a49445f-504f-4442-9e6b-696361645f70,PR1.0*%
%TF.SameCoordinates,Original*%
%TF.FileFunction,Paste,Top*%
%TF.FilePolarity,Positive*%
%FSLAX46Y46*%
G04 Gerber Fmt 4.6, Leading zero omitted, Abs format (unit mm)*
G04 Created by KiCad (PCBNEW 9.0.9) date 2026-08-16 17:48:33*
%MOMM*%
%LPD*%
G01*
G04 APERTURE LIST*
%ADD10R,0.300000X1.300000*%
%ADD11R,2.000000X1.800000*%
G04 APERTURE END LIST*
D10*
%TO.C,J1*%
X126082001Y-104476201D03*
X125582000Y-104476201D03*
X125082000Y-104476201D03*
X124581999Y-104476201D03*
X124082000Y-104476201D03*
X123582000Y-104476201D03*
X123082000Y-104476201D03*
X122582000Y-104476201D03*
X122082000Y-104476202D03*
X121582000Y-104476201D03*
X121082000Y-104476201D03*
X120582000Y-104476201D03*
X120082000Y-104476201D03*
X119582000Y-104476202D03*
X119082000Y-104476201D03*
X118582000Y-104476201D03*
X118081999Y-104476201D03*
X117582000Y-104476201D03*
X117082001Y-104476201D03*
X116582000Y-104476201D03*
X116082000Y-104476201D03*
X115581999Y-104476201D03*
X115082000Y-104476201D03*
X114582001Y-104476201D03*
X114082000Y-104476201D03*
X113582000Y-104476201D03*
X113082000Y-104476202D03*
X112582000Y-104476201D03*
X112082000Y-104476201D03*
X111582000Y-104476201D03*
X111082000Y-104476201D03*
X110582000Y-104476202D03*
X110082000Y-104476201D03*
X109582000Y-104476201D03*
X109082000Y-104476201D03*
X108582000Y-104476201D03*
X108082001Y-104476201D03*
X107582000Y-104476201D03*
X107082000Y-104476201D03*
X106581999Y-104476201D03*
D11*
X127885600Y-101745401D03*
X104778400Y-101745401D03*
%TD*%
M02*
